<?xml version="1.0" encoding="UTF-8" standalone="no"?>
<!DOCTYPE svg PUBLIC "-//W3C//DTD SVG 1.1//EN"
 "http://www.w3.org/Graphics/SVG/1.1/DTD/svg11.dtd">
<!-- Generated by graphviz version 5.0.1 (20220820.1526)
 -->
<!-- Title: G Pages: 1 -->
<svg width="698pt" height="86pt"
 viewBox="0.00 0.00 698.20 86.20" xmlns="http://www.w3.org/2000/svg" xmlns:xlink="http://www.w3.org/1999/xlink">
<g id="graph0" class="graph" transform="scale(1 1) rotate(0) translate(21.6 64.6)">
<title>G</title>
<polygon fill="#111111" stroke="none" points="-21.6,21.6 -21.6,-64.6 676.6,-64.6 676.6,21.6 -21.6,21.6"/>
<!-- app/wiring/wirings/connection.ts -->
<g id="node1" class="node">
<title>app/wiring/wirings/connection.ts</title>
<path fill="none" stroke="#ff6c60" d="M207.33,-23C207.33,-23 7.67,-23 7.67,-23 3.83,-23 0,-19.17 0,-15.33 0,-15.33 0,-7.67 0,-7.67 0,-3.83 3.83,0 7.67,0 7.67,0 207.33,0 207.33,0 211.17,0 215,-3.83 215,-7.67 215,-7.67 215,-15.33 215,-15.33 215,-19.17 211.17,-23 207.33,-23"/>
<text text-anchor="middle" x="107.5" y="-7.8" font-family="Arial" font-size="14.00" fill="#ff6c60">app/wiring/wirings/connection.ts</text>
</g>
<!-- app/wiring/wirings/wire.ts -->
<g id="node2" class="node">
<title>app/wiring/wirings/wire.ts</title>
<path fill="none" stroke="#ff6c60" d="M415.33,-43C415.33,-43 258.67,-43 258.67,-43 254.83,-43 251,-39.17 251,-35.33 251,-35.33 251,-27.67 251,-27.67 251,-23.83 254.83,-20 258.67,-20 258.67,-20 415.33,-20 415.33,-20 419.17,-20 423,-23.83 423,-27.67 423,-27.67 423,-35.33 423,-35.33 423,-39.17 419.17,-43 415.33,-43"/>
<text text-anchor="middle" x="337" y="-27.8" font-family="Arial" font-size="14.00" fill="#ff6c60">app/wiring/wirings/wire.ts</text>
</g>
<!-- app/wiring/wirings/connection.ts&#45;&gt;app/wiring/wirings/wire.ts -->
<g id="edge1" class="edge">
<title>app/wiring/wirings/connection.ts&#45;&gt;app/wiring/wirings/wire.ts</title>
<path fill="none" stroke="#757575" d="M215.26,-20.89C223.71,-21.63 232.21,-22.38 240.58,-23.11"/>
<polygon fill="#757575" stroke="#757575" points="240.44,-26.61 250.71,-24 241.06,-19.64 240.44,-26.61"/>
</g>
<!-- app/wiring/wirings/parrallel.ts -->
<g id="node3" class="node">
<title>app/wiring/wirings/parrallel.ts</title>
<path fill="none" stroke="#ff6c60" d="M647.33,-43C647.33,-43 466.67,-43 466.67,-43 462.83,-43 459,-39.17 459,-35.33 459,-35.33 459,-27.67 459,-27.67 459,-23.83 462.83,-20 466.67,-20 466.67,-20 647.33,-20 647.33,-20 651.17,-20 655,-23.83 655,-27.67 655,-27.67 655,-35.33 655,-35.33 655,-39.17 651.17,-43 647.33,-43"/>
<text text-anchor="middle" x="557" y="-27.8" font-family="Arial" font-size="14.00" fill="#ff6c60">app/wiring/wirings/parrallel.ts</text>
</g>
<!-- app/wiring/wirings/wire.ts&#45;&gt;app/wiring/wirings/parrallel.ts -->
<g id="edge4" class="edge">
<title>app/wiring/wirings/wire.ts&#45;&gt;app/wiring/wirings/parrallel.ts</title>
<path fill="none" stroke="#757575" d="M423.22,-24.89C431.63,-24.79 440.24,-24.74 448.84,-24.75"/>
<polygon fill="#757575" stroke="#757575" points="448.9,-28.25 458.91,-24.79 448.92,-21.25 448.9,-28.25"/>
</g>
<!-- app/wiring/wirings/parrallel.ts&#45;&gt;app/wiring/wirings/connection.ts -->
<g id="edge2" class="edge">
<title>app/wiring/wirings/parrallel.ts&#45;&gt;app/wiring/wirings/connection.ts</title>
<path fill="none" stroke="#757575" d="M492.63,-20C470.66,-16.54 445.82,-13.21 423,-11.5 357.76,-6.62 284.7,-6.31 225.42,-7.36"/>
<polygon fill="#757575" stroke="#757575" points="225.21,-3.86 215.28,-7.55 225.34,-10.86 225.21,-3.86"/>
</g>
<!-- app/wiring/wirings/parrallel.ts&#45;&gt;app/wiring/wirings/wire.ts -->
<g id="edge3" class="edge">
<title>app/wiring/wirings/parrallel.ts&#45;&gt;app/wiring/wirings/wire.ts</title>
<path fill="none" stroke="#757575" d="M458.91,-38.21C450.45,-38.27 441.9,-38.26 433.45,-38.2"/>
<polygon fill="#757575" stroke="#757575" points="433.25,-34.7 423.22,-38.11 433.19,-41.7 433.25,-34.7"/>
</g>
</g>
</svg>
