<?xml version="1.0" encoding="UTF-8" standalone="no"?>
<!DOCTYPE svg PUBLIC "-//W3C//DTD SVG 1.1//EN"
 "http://www.w3.org/Graphics/SVG/1.1/DTD/svg11.dtd">
<!-- Generated by graphviz version 5.0.1 (20220820.1526)
 -->
<!-- Title: G Pages: 1 -->
<svg width="953pt" height="139pt"
 viewBox="0.00 0.00 953.20 139.41" xmlns="http://www.w3.org/2000/svg" xmlns:xlink="http://www.w3.org/1999/xlink">
<g id="graph0" class="graph" transform="scale(1 1) rotate(0) translate(21.6 117.81)">
<title>G</title>
<polygon fill="#111111" stroke="none" points="-21.6,21.6 -21.6,-117.81 931.6,-117.81 931.6,21.6 -21.6,21.6"/>
<!-- app/wiring/wirings/battery.ts -->
<g id="node1" class="node">
<title>app/wiring/wirings/battery.ts</title>
<path fill="none" stroke="#ff6c60" d="M181.33,-23C181.33,-23 7.67,-23 7.67,-23 3.83,-23 0,-19.17 0,-15.33 0,-15.33 0,-7.67 0,-7.67 0,-3.83 3.83,0 7.67,0 7.67,0 181.33,0 181.33,0 185.17,0 189,-3.83 189,-7.67 189,-7.67 189,-15.33 189,-15.33 189,-19.17 185.17,-23 181.33,-23"/>
<text text-anchor="middle" x="94.5" y="-7.8" font-family="Arial" font-size="14.00" fill="#ff6c60">app/wiring/wirings/battery.ts</text>
</g>
<!-- app/wiring/wirings/connection.ts -->
<g id="node2" class="node">
<title>app/wiring/wirings/connection.ts</title>
<path fill="none" stroke="#ff6c60" d="M432.33,-62C432.33,-62 232.67,-62 232.67,-62 228.83,-62 225,-58.17 225,-54.33 225,-54.33 225,-46.67 225,-46.67 225,-42.83 228.83,-39 232.67,-39 232.67,-39 432.33,-39 432.33,-39 436.17,-39 440,-42.83 440,-46.67 440,-46.67 440,-54.33 440,-54.33 440,-58.17 436.17,-62 432.33,-62"/>
<text text-anchor="middle" x="332.5" y="-46.8" font-family="Arial" font-size="14.00" fill="#ff6c60">app/wiring/wirings/connection.ts</text>
</g>
<!-- app/wiring/wirings/battery.ts&#45;&gt;app/wiring/wirings/connection.ts -->
<g id="edge1" class="edge">
<title>app/wiring/wirings/battery.ts&#45;&gt;app/wiring/wirings/connection.ts</title>
<path fill="none" stroke="#757575" d="M165.35,-23.04C192.47,-27.52 223.68,-32.68 251.67,-37.31"/>
<polygon fill="#757575" stroke="#757575" points="251.39,-40.81 261.83,-38.99 252.53,-33.9 251.39,-40.81"/>
</g>
<!-- app/wiring/wirings/wire.ts -->
<g id="node3" class="node">
<title>app/wiring/wirings/wire.ts</title>
<path fill="none" stroke="#ff6c60" d="M640.33,-81C640.33,-81 483.67,-81 483.67,-81 479.83,-81 476,-77.17 476,-73.33 476,-73.33 476,-65.67 476,-65.67 476,-61.83 479.83,-58 483.67,-58 483.67,-58 640.33,-58 640.33,-58 644.17,-58 648,-61.83 648,-65.67 648,-65.67 648,-73.33 648,-73.33 648,-77.17 644.17,-81 640.33,-81"/>
<text text-anchor="middle" x="562" y="-65.8" font-family="Arial" font-size="14.00" fill="#ff6c60">app/wiring/wirings/wire.ts</text>
</g>
<!-- app/wiring/wirings/connection.ts&#45;&gt;app/wiring/wirings/wire.ts -->
<g id="edge2" class="edge">
<title>app/wiring/wirings/connection.ts&#45;&gt;app/wiring/wirings/wire.ts</title>
<path fill="none" stroke="#757575" d="M440.26,-59.42C448.71,-60.12 457.21,-60.83 465.58,-61.53"/>
<polygon fill="#757575" stroke="#757575" points="465.46,-65.03 475.71,-62.38 466.04,-58.06 465.46,-65.03"/>
</g>
<!-- app/wiring/wirings/parrallel&#45;wire.ts -->
<g id="node4" class="node">
<title>app/wiring/wirings/parrallel&#45;wire.ts</title>
<path fill="none" stroke="#ff6c60" d="M902.33,-41C902.33,-41 691.67,-41 691.67,-41 687.83,-41 684,-37.17 684,-33.33 684,-33.33 684,-25.67 684,-25.67 684,-21.83 687.83,-18 691.67,-18 691.67,-18 902.33,-18 902.33,-18 906.17,-18 910,-21.83 910,-25.67 910,-25.67 910,-33.33 910,-33.33 910,-37.17 906.17,-41 902.33,-41"/>
<text text-anchor="middle" x="797" y="-25.8" font-family="Arial" font-size="14.00" fill="#ff6c60">app/wiring/wirings/parrallel&#45;wire.ts</text>
</g>
<!-- app/wiring/wirings/wire.ts&#45;&gt;app/wiring/wirings/parrallel&#45;wire.ts -->
<g id="edge8" class="edge">
<title>app/wiring/wirings/wire.ts&#45;&gt;app/wiring/wirings/parrallel&#45;wire.ts</title>
<path fill="none" stroke="#757575" d="M600.44,-57.96C622.18,-53.13 650.89,-47.66 679.6,-42.73"/>
<polygon fill="#757575" stroke="#757575" points="680.46,-46.14 689.74,-41.02 679.29,-39.24 680.46,-46.14"/>
</g>
<!-- app/wiring/wirings/parrallel.ts -->
<g id="node5" class="node">
<title>app/wiring/wirings/parrallel.ts</title>
<path fill="none" stroke="#ff6c60" d="M887.33,-82C887.33,-82 706.67,-82 706.67,-82 702.83,-82 699,-78.17 699,-74.33 699,-74.33 699,-66.67 699,-66.67 699,-62.83 702.83,-59 706.67,-59 706.67,-59 887.33,-59 887.33,-59 891.17,-59 895,-62.83 895,-66.67 895,-66.67 895,-74.33 895,-74.33 895,-78.17 891.17,-82 887.33,-82"/>
<text text-anchor="middle" x="797" y="-66.8" font-family="Arial" font-size="14.00" fill="#ff6c60">app/wiring/wirings/parrallel.ts</text>
</g>
<!-- app/wiring/wirings/wire.ts&#45;&gt;app/wiring/wirings/parrallel.ts -->
<g id="edge9" class="edge">
<title>app/wiring/wirings/wire.ts&#45;&gt;app/wiring/wirings/parrallel.ts</title>
<path fill="none" stroke="#757575" d="M648.11,-63.34C661.26,-63.2 675,-63.19 688.57,-63.31"/>
<polygon fill="#757575" stroke="#757575" points="688.86,-66.81 698.9,-63.42 688.94,-59.81 688.86,-66.81"/>
</g>
<!-- app/wiring/wirings/parrallel&#45;wire.ts&#45;&gt;app/wiring/wirings/battery.ts -->
<g id="edge3" class="edge">
<title>app/wiring/wirings/parrallel&#45;wire.ts&#45;&gt;app/wiring/wirings/battery.ts</title>
<path fill="none" stroke="#757575" d="M683.72,-26.61C550.25,-23.19 329.34,-17.51 199.58,-14.17"/>
<polygon fill="#757575" stroke="#757575" points="199.33,-10.67 189.25,-13.91 199.15,-17.66 199.33,-10.67"/>
</g>
<!-- app/wiring/wirings/parrallel&#45;wire.ts&#45;&gt;app/wiring/wirings/connection.ts -->
<g id="edge4" class="edge">
<title>app/wiring/wirings/parrallel&#45;wire.ts&#45;&gt;app/wiring/wirings/connection.ts</title>
<path fill="none" stroke="#757575" d="M683.8,-34.59C613.17,-37.8 522.15,-41.93 450.6,-45.18"/>
<polygon fill="#757575" stroke="#757575" points="450.02,-41.71 440.19,-45.66 450.34,-48.7 450.02,-41.71"/>
</g>
<!-- app/wiring/wirings/parrallel&#45;wire.ts&#45;&gt;app/wiring/wirings/wire.ts -->
<g id="edge5" class="edge">
<title>app/wiring/wirings/parrallel&#45;wire.ts&#45;&gt;app/wiring/wirings/wire.ts</title>
<path fill="none" stroke="#757575" d="M758.57,-41.04C731.39,-47.07 693.32,-54.12 657.99,-59.84"/>
<polygon fill="#757575" stroke="#757575" points="657.43,-56.38 648.11,-61.42 658.53,-63.3 657.43,-56.38"/>
</g>
<!-- app/wiring/wirings/parrallel.ts&#45;&gt;app/wiring/wirings/connection.ts -->
<g id="edge6" class="edge">
<title>app/wiring/wirings/parrallel.ts&#45;&gt;app/wiring/wirings/connection.ts</title>
<path fill="none" stroke="#757575" d="M731.36,-82.05C666.53,-91.87 563.95,-102.61 476,-90.5 441.05,-85.69 402.59,-74.53 374.45,-65.22"/>
<polygon fill="#757575" stroke="#757575" points="375.54,-61.89 364.95,-62.01 373.31,-68.53 375.54,-61.89"/>
</g>
<!-- app/wiring/wirings/parrallel.ts&#45;&gt;app/wiring/wirings/wire.ts -->
<g id="edge7" class="edge">
<title>app/wiring/wirings/parrallel.ts&#45;&gt;app/wiring/wirings/wire.ts</title>
<path fill="none" stroke="#757575" d="M698.9,-76.75C685.46,-76.81 671.67,-76.74 658.27,-76.56"/>
<polygon fill="#757575" stroke="#757575" points="658.16,-73.06 648.11,-76.39 658.05,-80.06 658.16,-73.06"/>
</g>
</g>
</svg>
