<?xml version="1.0" encoding="UTF-8" standalone="no"?>
<!DOCTYPE svg PUBLIC "-//W3C//DTD SVG 1.1//EN"
 "http://www.w3.org/Graphics/SVG/1.1/DTD/svg11.dtd">
<!-- Generated by graphviz version 5.0.1 (20220820.1526)
 -->
<!-- Title: G Pages: 1 -->
<svg width="195pt" height="84pt"
 viewBox="0.00 0.00 195.20 84.20" xmlns="http://www.w3.org/2000/svg" xmlns:xlink="http://www.w3.org/1999/xlink">
<g id="graph0" class="graph" transform="scale(1 1) rotate(0) translate(21.6 62.6)">
<title>G</title>
<polygon fill="#111111" stroke="none" points="-21.6,21.6 -21.6,-62.6 173.6,-62.6 173.6,21.6 -21.6,21.6"/>
<!-- app/wiring/libs/mqtt.ts -->
<g id="node1" class="node">
<title>app/wiring/libs/mqtt.ts</title>
<path fill="none" stroke="#ff6c60" d="M144.33,-23C144.33,-23 7.67,-23 7.67,-23 3.83,-23 0,-19.17 0,-15.33 0,-15.33 0,-7.67 0,-7.67 0,-3.83 3.83,0 7.67,0 7.67,0 144.33,0 144.33,0 148.17,0 152,-3.83 152,-7.67 152,-7.67 152,-15.33 152,-15.33 152,-19.17 148.17,-23 144.33,-23"/>
<text text-anchor="middle" x="76" y="-7.8" font-family="Arial" font-size="14.00" fill="#ff6c60">app/wiring/libs/mqtt.ts</text>
</g>
<!-- app/wiring/libs/mqtt.ts&#45;&gt;app/wiring/libs/mqtt.ts -->
<g id="edge1" class="edge">
<title>app/wiring/libs/mqtt.ts&#45;&gt;app/wiring/libs/mqtt.ts</title>
<path fill="none" stroke="#757575" d="M51.18,-23.01C41.9,-31.91 50.17,-41 76,-41 92.14,-41 101.43,-37.45 103.86,-32.61"/>
<polygon fill="#757575" stroke="#757575" points="107.17,-31.49 100.82,-23.01 100.5,-33.6 107.17,-31.49"/>
</g>
</g>
</svg>
