<?xml version="1.0" encoding="UTF-8" standalone="no"?>
<!DOCTYPE svg PUBLIC "-//W3C//DTD SVG 1.1//EN"
 "http://www.w3.org/Graphics/SVG/1.1/DTD/svg11.dtd">
<!-- Generated by graphviz version 5.0.1 (20220820.1526)
 -->
<!-- Title: G Pages: 1 -->
<svg width="728pt" height="107pt"
 viewBox="0.00 0.00 728.20 107.20" xmlns="http://www.w3.org/2000/svg" xmlns:xlink="http://www.w3.org/1999/xlink">
<g id="graph0" class="graph" transform="scale(1 1) rotate(0) translate(21.6 85.6)">
<title>G</title>
<polygon fill="#111111" stroke="none" points="-21.6,21.6 -21.6,-85.6 706.6,-85.6 706.6,21.6 -21.6,21.6"/>
<!-- app/wiring/wirings/connection.ts -->
<g id="node1" class="node">
<title>app/wiring/wirings/connection.ts</title>
<path fill="none" stroke="#ff6c60" d="M207.33,-44C207.33,-44 7.67,-44 7.67,-44 3.83,-44 0,-40.17 0,-36.33 0,-36.33 0,-28.67 0,-28.67 0,-24.83 3.83,-21 7.67,-21 7.67,-21 207.33,-21 207.33,-21 211.17,-21 215,-24.83 215,-28.67 215,-28.67 215,-36.33 215,-36.33 215,-40.17 211.17,-44 207.33,-44"/>
<text text-anchor="middle" x="107.5" y="-28.8" font-family="Arial" font-size="14.00" fill="#ff6c60">app/wiring/wirings/connection.ts</text>
</g>
<!-- app/wiring/wirings/wire.ts -->
<g id="node2" class="node">
<title>app/wiring/wirings/wire.ts</title>
<path fill="none" stroke="#ff6c60" d="M415.33,-44C415.33,-44 258.67,-44 258.67,-44 254.83,-44 251,-40.17 251,-36.33 251,-36.33 251,-28.67 251,-28.67 251,-24.83 254.83,-21 258.67,-21 258.67,-21 415.33,-21 415.33,-21 419.17,-21 423,-24.83 423,-28.67 423,-28.67 423,-36.33 423,-36.33 423,-40.17 419.17,-44 415.33,-44"/>
<text text-anchor="middle" x="337" y="-28.8" font-family="Arial" font-size="14.00" fill="#ff6c60">app/wiring/wirings/wire.ts</text>
</g>
<!-- app/wiring/wirings/connection.ts&#45;&gt;app/wiring/wirings/wire.ts -->
<g id="edge1" class="edge">
<title>app/wiring/wirings/connection.ts&#45;&gt;app/wiring/wirings/wire.ts</title>
<path fill="none" stroke="#757575" d="M215.26,-32.5C223.71,-32.5 232.21,-32.5 240.58,-32.5"/>
<polygon fill="#757575" stroke="#757575" points="240.71,-36 250.71,-32.5 240.71,-29 240.71,-36"/>
</g>
<!-- app/wiring/wirings/parrallel&#45;wire.ts -->
<g id="node3" class="node">
<title>app/wiring/wirings/parrallel&#45;wire.ts</title>
<path fill="none" stroke="#ff6c60" d="M677.33,-64C677.33,-64 466.67,-64 466.67,-64 462.83,-64 459,-60.17 459,-56.33 459,-56.33 459,-48.67 459,-48.67 459,-44.83 462.83,-41 466.67,-41 466.67,-41 677.33,-41 677.33,-41 681.17,-41 685,-44.83 685,-48.67 685,-48.67 685,-56.33 685,-56.33 685,-60.17 681.17,-64 677.33,-64"/>
<text text-anchor="middle" x="572" y="-48.8" font-family="Arial" font-size="14.00" fill="#ff6c60">app/wiring/wirings/parrallel&#45;wire.ts</text>
</g>
<!-- app/wiring/wirings/wire.ts&#45;&gt;app/wiring/wirings/parrallel&#45;wire.ts -->
<g id="edge6" class="edge">
<title>app/wiring/wirings/wire.ts&#45;&gt;app/wiring/wirings/parrallel&#45;wire.ts</title>
<path fill="none" stroke="#757575" d="M423.11,-33.28C447.56,-35.02 474.01,-37.36 497.69,-39.89"/>
<polygon fill="#757575" stroke="#757575" points="497.33,-43.37 507.66,-40.98 498.1,-36.41 497.33,-43.37"/>
</g>
<!-- app/wiring/wirings/parrallel.ts -->
<g id="node4" class="node">
<title>app/wiring/wirings/parrallel.ts</title>
<path fill="none" stroke="#ff6c60" d="M662.33,-23C662.33,-23 481.67,-23 481.67,-23 477.83,-23 474,-19.17 474,-15.33 474,-15.33 474,-7.67 474,-7.67 474,-3.83 477.83,0 481.67,0 481.67,0 662.33,0 662.33,0 666.17,0 670,-3.83 670,-7.67 670,-7.67 670,-15.33 670,-15.33 670,-19.17 666.17,-23 662.33,-23"/>
<text text-anchor="middle" x="572" y="-7.8" font-family="Arial" font-size="14.00" fill="#ff6c60">app/wiring/wirings/parrallel.ts</text>
</g>
<!-- app/wiring/wirings/wire.ts&#45;&gt;app/wiring/wirings/parrallel.ts -->
<g id="edge7" class="edge">
<title>app/wiring/wirings/wire.ts&#45;&gt;app/wiring/wirings/parrallel.ts</title>
<path fill="none" stroke="#757575" d="M398.91,-21C418.79,-18.63 441.49,-16.35 463.73,-14.44"/>
<polygon fill="#757575" stroke="#757575" points="464.24,-17.91 473.91,-13.58 463.66,-10.93 464.24,-17.91"/>
</g>
<!-- app/wiring/wirings/parrallel&#45;wire.ts&#45;&gt;app/wiring/wirings/connection.ts -->
<g id="edge2" class="edge">
<title>app/wiring/wirings/parrallel&#45;wire.ts&#45;&gt;app/wiring/wirings/connection.ts</title>
<path fill="none" stroke="#757575" d="M458.67,-57.03C397.24,-58.46 319.84,-58.55 251,-53.5 228.72,-51.87 204.64,-48.82 182.73,-45.54"/>
<polygon fill="#757575" stroke="#757575" points="183.25,-42.08 172.83,-44.02 182.19,-49 183.25,-42.08"/>
</g>
<!-- app/wiring/wirings/parrallel&#45;wire.ts&#45;&gt;app/wiring/wirings/wire.ts -->
<g id="edge3" class="edge">
<title>app/wiring/wirings/parrallel&#45;wire.ts&#45;&gt;app/wiring/wirings/wire.ts</title>
<path fill="none" stroke="#757575" d="M458.77,-49.61C442.74,-48.27 426.6,-46.74 411.57,-45.14"/>
<polygon fill="#757575" stroke="#757575" points="411.68,-41.63 401.36,-44.02 410.92,-48.59 411.68,-41.63"/>
</g>
<!-- app/wiring/wirings/parrallel.ts&#45;&gt;app/wiring/wirings/connection.ts -->
<g id="edge4" class="edge">
<title>app/wiring/wirings/parrallel.ts&#45;&gt;app/wiring/wirings/connection.ts</title>
<path fill="none" stroke="#757575" d="M473.89,-7.82C410.38,-6.32 325.66,-6.03 251,-11.5 228.72,-13.13 204.64,-16.18 182.73,-19.46"/>
<polygon fill="#757575" stroke="#757575" points="182.19,-16 172.83,-20.98 183.25,-22.92 182.19,-16"/>
</g>
<!-- app/wiring/wirings/parrallel.ts&#45;&gt;app/wiring/wirings/wire.ts -->
<g id="edge5" class="edge">
<title>app/wiring/wirings/parrallel.ts&#45;&gt;app/wiring/wirings/wire.ts</title>
<path fill="none" stroke="#757575" d="M509.83,-23.04C486.43,-25.81 459.15,-28.48 433.31,-30.56"/>
<polygon fill="#757575" stroke="#757575" points="432.8,-27.09 423.11,-31.36 433.35,-34.07 432.8,-27.09"/>
</g>
</g>
</svg>
