<?xml version="1.0" encoding="UTF-8" standalone="no"?>
<!DOCTYPE svg PUBLIC "-//W3C//DTD SVG 1.1//EN"
 "http://www.w3.org/Graphics/SVG/1.1/DTD/svg11.dtd">
<!-- Generated by graphviz version 5.0.1 (20220820.1526)
 -->
<!-- Title: G Pages: 1 -->
<svg width="2009pt" height="189pt"
 viewBox="0.00 0.00 2009.20 188.70" xmlns="http://www.w3.org/2000/svg" xmlns:xlink="http://www.w3.org/1999/xlink">
<g id="graph0" class="graph" transform="scale(1 1) rotate(0) translate(21.6 167.1)">
<title>G</title>
<polygon fill="#111111" stroke="none" points="-21.6,21.6 -21.6,-167.1 1987.6,-167.1 1987.6,21.6 -21.6,21.6"/>
<!-- app/wiring/wiring&#45;ui/in&#45;out/in&#45;out.component.ts -->
<g id="node1" class="node">
<title>app/wiring/wiring&#45;ui/in&#45;out/in&#45;out.component.ts</title>
<path fill="none" stroke="#ff6c60" d="M294.33,-34.5C294.33,-34.5 7.67,-34.5 7.67,-34.5 3.83,-34.5 0,-30.67 0,-26.83 0,-26.83 0,-19.17 0,-19.17 0,-15.33 3.83,-11.5 7.67,-11.5 7.67,-11.5 294.33,-11.5 294.33,-11.5 298.17,-11.5 302,-15.33 302,-19.17 302,-19.17 302,-26.83 302,-26.83 302,-30.67 298.17,-34.5 294.33,-34.5"/>
<text text-anchor="middle" x="151" y="-19.3" font-family="Arial" font-size="14.00" fill="#ff6c60">app/wiring/wiring&#45;ui/in&#45;out/in&#45;out.component.ts</text>
</g>
<!-- app/wiring/wirings/parrallel&#45;wire.ts -->
<g id="node2" class="node">
<title>app/wiring/wirings/parrallel&#45;wire.ts</title>
<path fill="none" stroke="#ff6c60" d="M556.33,-58.5C556.33,-58.5 345.67,-58.5 345.67,-58.5 341.83,-58.5 338,-54.67 338,-50.83 338,-50.83 338,-43.17 338,-43.17 338,-39.33 341.83,-35.5 345.67,-35.5 345.67,-35.5 556.33,-35.5 556.33,-35.5 560.17,-35.5 564,-39.33 564,-43.17 564,-43.17 564,-50.83 564,-50.83 564,-54.67 560.17,-58.5 556.33,-58.5"/>
<text text-anchor="middle" x="451" y="-43.3" font-family="Arial" font-size="14.00" fill="#ff6c60">app/wiring/wirings/parrallel&#45;wire.ts</text>
</g>
<!-- app/wiring/wiring&#45;ui/in&#45;out/in&#45;out.component.ts&#45;&gt;app/wiring/wirings/parrallel&#45;wire.ts -->
<g id="edge1" class="edge">
<title>app/wiring/wiring&#45;ui/in&#45;out/in&#45;out.component.ts&#45;&gt;app/wiring/wirings/parrallel&#45;wire.ts</title>
<path fill="none" stroke="#757575" d="M294.89,-34.51C305.76,-35.38 316.67,-36.26 327.39,-37.13"/>
<polygon fill="#757575" stroke="#757575" points="327.36,-40.63 337.6,-37.95 327.92,-33.66 327.36,-40.63"/>
</g>
<!-- app/wiring/wirings/battery.ts -->
<g id="node5" class="node">
<title>app/wiring/wirings/battery.ts</title>
<path fill="none" stroke="#ff6c60" d="M781.33,-145.5C781.33,-145.5 607.67,-145.5 607.67,-145.5 603.83,-145.5 600,-141.67 600,-137.83 600,-137.83 600,-130.17 600,-130.17 600,-126.33 603.83,-122.5 607.67,-122.5 607.67,-122.5 781.33,-122.5 781.33,-122.5 785.17,-122.5 789,-126.33 789,-130.17 789,-130.17 789,-137.83 789,-137.83 789,-141.67 785.17,-145.5 781.33,-145.5"/>
<text text-anchor="middle" x="694.5" y="-130.3" font-family="Arial" font-size="14.00" fill="#ff6c60">app/wiring/wirings/battery.ts</text>
</g>
<!-- app/wiring/wirings/parrallel&#45;wire.ts&#45;&gt;app/wiring/wirings/battery.ts -->
<g id="edge8" class="edge">
<title>app/wiring/wirings/parrallel&#45;wire.ts&#45;&gt;app/wiring/wirings/battery.ts</title>
<path fill="none" stroke="#757575" d="M477.31,-58.52C506.5,-71.55 556.11,-92.91 600,-108 612.07,-112.15 625.18,-116.12 637.67,-119.65"/>
<polygon fill="#757575" stroke="#757575" points="636.94,-123.08 647.51,-122.39 638.81,-116.34 636.94,-123.08"/>
</g>
<!-- app/wiring/wirings/connection.ts -->
<g id="node7" class="node">
<title>app/wiring/wirings/connection.ts</title>
<path fill="none" stroke="#ff6c60" d="M1032.33,-107.5C1032.33,-107.5 832.67,-107.5 832.67,-107.5 828.83,-107.5 825,-103.67 825,-99.83 825,-99.83 825,-92.17 825,-92.17 825,-88.33 828.83,-84.5 832.67,-84.5 832.67,-84.5 1032.33,-84.5 1032.33,-84.5 1036.17,-84.5 1040,-88.33 1040,-92.17 1040,-92.17 1040,-99.83 1040,-99.83 1040,-103.67 1036.17,-107.5 1032.33,-107.5"/>
<text text-anchor="middle" x="932.5" y="-92.3" font-family="Arial" font-size="14.00" fill="#ff6c60">app/wiring/wirings/connection.ts</text>
</g>
<!-- app/wiring/wirings/parrallel&#45;wire.ts&#45;&gt;app/wiring/wirings/connection.ts -->
<g id="edge9" class="edge">
<title>app/wiring/wirings/parrallel&#45;wire.ts&#45;&gt;app/wiring/wirings/connection.ts</title>
<path fill="none" stroke="#757575" d="M519.27,-58.56C544.53,-62.61 573.53,-66.91 600,-70 671.16,-78.31 751.24,-84.67 814.86,-89.02"/>
<polygon fill="#757575" stroke="#757575" points="814.72,-92.52 824.93,-89.7 815.19,-85.54 814.72,-92.52"/>
</g>
<!-- app/wiring/wirings/wire.ts -->
<g id="node8" class="node">
<title>app/wiring/wirings/wire.ts</title>
<path fill="none" stroke="#ff6c60" d="M1240.33,-60.5C1240.33,-60.5 1083.67,-60.5 1083.67,-60.5 1079.83,-60.5 1076,-56.67 1076,-52.83 1076,-52.83 1076,-45.17 1076,-45.17 1076,-41.33 1079.83,-37.5 1083.67,-37.5 1083.67,-37.5 1240.33,-37.5 1240.33,-37.5 1244.17,-37.5 1248,-41.33 1248,-45.17 1248,-45.17 1248,-52.83 1248,-52.83 1248,-56.67 1244.17,-60.5 1240.33,-60.5"/>
<text text-anchor="middle" x="1162" y="-45.3" font-family="Arial" font-size="14.00" fill="#ff6c60">app/wiring/wirings/wire.ts</text>
</g>
<!-- app/wiring/wirings/parrallel&#45;wire.ts&#45;&gt;app/wiring/wirings/wire.ts -->
<g id="edge10" class="edge">
<title>app/wiring/wirings/parrallel&#45;wire.ts&#45;&gt;app/wiring/wirings/wire.ts</title>
<path fill="none" stroke="#757575" d="M564.34,-42.23C702.73,-40.31 935.41,-41.06 1065.54,-43.95"/>
<polygon fill="#757575" stroke="#757575" points="1065.81,-47.45 1075.89,-44.18 1065.97,-40.45 1065.81,-47.45"/>
</g>
<!-- app/wiring/wiring&#45;ui/mock&#45;ui.ts -->
<g id="node3" class="node">
<title>app/wiring/wiring&#45;ui/mock&#45;ui.ts</title>
<path fill="none" stroke="#ff6c60" d="M1721.33,-75.5C1721.33,-75.5 1533.67,-75.5 1533.67,-75.5 1529.83,-75.5 1526,-71.67 1526,-67.83 1526,-67.83 1526,-60.17 1526,-60.17 1526,-56.33 1529.83,-52.5 1533.67,-52.5 1533.67,-52.5 1721.33,-52.5 1721.33,-52.5 1725.17,-52.5 1729,-56.33 1729,-60.17 1729,-60.17 1729,-67.83 1729,-67.83 1729,-71.67 1725.17,-75.5 1721.33,-75.5"/>
<text text-anchor="middle" x="1627.5" y="-60.3" font-family="Arial" font-size="14.00" fill="#ff6c60">app/wiring/wiring&#45;ui/mock&#45;ui.ts</text>
</g>
<!-- app/wiring/wiring&#45;ui/ui&#45;node.ts -->
<g id="node4" class="node">
<title>app/wiring/wiring&#45;ui/ui&#45;node.ts</title>
<path fill="none" stroke="#ff6c60" d="M1958.33,-31.5C1958.33,-31.5 1772.67,-31.5 1772.67,-31.5 1768.83,-31.5 1765,-27.67 1765,-23.83 1765,-23.83 1765,-16.17 1765,-16.17 1765,-12.33 1768.83,-8.5 1772.67,-8.5 1772.67,-8.5 1958.33,-8.5 1958.33,-8.5 1962.17,-8.5 1966,-12.33 1966,-16.17 1966,-16.17 1966,-23.83 1966,-23.83 1966,-27.67 1962.17,-31.5 1958.33,-31.5"/>
<text text-anchor="middle" x="1865.5" y="-16.3" font-family="Arial" font-size="14.00" fill="#ff6c60">app/wiring/wiring&#45;ui/ui&#45;node.ts</text>
</g>
<!-- app/wiring/wiring&#45;ui/mock&#45;ui.ts&#45;&gt;app/wiring/wiring&#45;ui/ui&#45;node.ts -->
<g id="edge2" class="edge">
<title>app/wiring/wiring&#45;ui/mock&#45;ui.ts&#45;&gt;app/wiring/wiring&#45;ui/ui&#45;node.ts</title>
<path fill="none" stroke="#757575" d="M1690.2,-52.5C1721.64,-46.64 1760.04,-39.48 1792.78,-33.37"/>
<polygon fill="#757575" stroke="#757575" points="1793.56,-36.79 1802.75,-31.51 1792.28,-29.9 1793.56,-36.79"/>
</g>
<!-- app/wiring/wiring&#45;ui/ui&#45;node.ts&#45;&gt;app/wiring/wiring&#45;ui/in&#45;out/in&#45;out.component.ts -->
<g id="edge3" class="edge">
<title>app/wiring/wiring&#45;ui/ui&#45;node.ts&#45;&gt;app/wiring/wiring&#45;ui/in&#45;out/in&#45;out.component.ts</title>
<path fill="none" stroke="#757575" d="M1764.61,-13.37C1668.24,-7.55 1518.2,0 1388,0 693.5,0 693.5,0 693.5,0 565.31,0 420.21,-6.51 312.5,-12.61"/>
<polygon fill="#757575" stroke="#757575" points="311.98,-9.13 302.19,-13.2 312.38,-16.12 311.98,-9.13"/>
</g>
<!-- app/wiring/wirings/collection.ts -->
<g id="node6" class="node">
<title>app/wiring/wirings/collection.ts</title>
<path fill="none" stroke="#ff6c60" d="M1482.33,-101.5C1482.33,-101.5 1291.67,-101.5 1291.67,-101.5 1287.83,-101.5 1284,-97.67 1284,-93.83 1284,-93.83 1284,-86.17 1284,-86.17 1284,-82.33 1287.83,-78.5 1291.67,-78.5 1291.67,-78.5 1482.33,-78.5 1482.33,-78.5 1486.17,-78.5 1490,-82.33 1490,-86.17 1490,-86.17 1490,-93.83 1490,-93.83 1490,-97.67 1486.17,-101.5 1482.33,-101.5"/>
<text text-anchor="middle" x="1387" y="-86.3" font-family="Arial" font-size="14.00" fill="#ff6c60">app/wiring/wirings/collection.ts</text>
</g>
<!-- app/wiring/wirings/battery.ts&#45;&gt;app/wiring/wirings/collection.ts -->
<g id="edge4" class="edge">
<title>app/wiring/wirings/battery.ts&#45;&gt;app/wiring/wirings/collection.ts</title>
<path fill="none" stroke="#757575" d="M789.12,-130.1C858.43,-127.04 955.14,-122.4 1040,-117 1118.07,-112.03 1205.95,-105.16 1273.61,-99.59"/>
<polygon fill="#757575" stroke="#757575" points="1274.18,-103.05 1283.86,-98.74 1273.61,-96.08 1274.18,-103.05"/>
</g>
<!-- app/wiring/wirings/battery.ts&#45;&gt;app/wiring/wirings/connection.ts -->
<g id="edge5" class="edge">
<title>app/wiring/wirings/battery.ts&#45;&gt;app/wiring/wirings/connection.ts</title>
<path fill="none" stroke="#757575" d="M766.95,-122.5C793.05,-118.29 822.78,-113.51 849.71,-109.17"/>
<polygon fill="#757575" stroke="#757575" points="850.57,-112.58 859.89,-107.53 849.46,-105.67 850.57,-112.58"/>
</g>
<!-- app/wiring/wirings/collection.ts&#45;&gt;app/wiring/wiring&#45;ui/mock&#45;ui.ts -->
<g id="edge6" class="edge">
<title>app/wiring/wirings/collection.ts&#45;&gt;app/wiring/wiring&#45;ui/mock&#45;ui.ts</title>
<path fill="none" stroke="#757575" d="M1490.18,-78.86C1498.63,-77.94 1507.2,-77.01 1515.71,-76.08"/>
<polygon fill="#757575" stroke="#757575" points="1516.1,-79.56 1525.67,-74.99 1515.35,-72.6 1516.1,-79.56"/>
</g>
<!-- app/wiring/wirings/connection.ts&#45;&gt;app/wiring/wirings/wire.ts -->
<g id="edge7" class="edge">
<title>app/wiring/wirings/connection.ts&#45;&gt;app/wiring/wirings/wire.ts</title>
<path fill="none" stroke="#757575" d="M989.44,-84.44C1021.4,-77.84 1061.64,-69.53 1095.12,-62.61"/>
<polygon fill="#757575" stroke="#757575" points="1096.19,-65.96 1105.27,-60.51 1094.77,-59.11 1096.19,-65.96"/>
</g>
<!-- app/wiring/wirings/wire.ts&#45;&gt;app/wiring/wirings/parrallel&#45;wire.ts -->
<g id="edge14" class="edge">
<title>app/wiring/wirings/wire.ts&#45;&gt;app/wiring/wirings/parrallel&#45;wire.ts</title>
<path fill="none" stroke="#757575" d="M1075.89,-53.34C951.08,-55.64 717.74,-55.2 574.5,-52.6"/>
<polygon fill="#757575" stroke="#757575" points="574.41,-49.09 564.34,-52.41 574.28,-56.09 574.41,-49.09"/>
</g>
<!-- app/wiring/wirings/wire.ts&#45;&gt;app/wiring/wirings/collection.ts -->
<g id="edge13" class="edge">
<title>app/wiring/wirings/wire.ts&#45;&gt;app/wiring/wirings/collection.ts</title>
<path fill="none" stroke="#757575" d="M1225.71,-60.53C1253.02,-65.55 1285.2,-71.47 1313.53,-76.68"/>
<polygon fill="#757575" stroke="#757575" points="1312.91,-80.12 1323.37,-78.49 1314.17,-73.24 1312.91,-80.12"/>
</g>
<!-- app/wiring/wirings/parrallel.ts -->
<g id="node9" class="node">
<title>app/wiring/wirings/parrallel.ts</title>
<path fill="none" stroke="#ff6c60" d="M1477.33,-60.5C1477.33,-60.5 1296.67,-60.5 1296.67,-60.5 1292.83,-60.5 1289,-56.67 1289,-52.83 1289,-52.83 1289,-45.17 1289,-45.17 1289,-41.33 1292.83,-37.5 1296.67,-37.5 1296.67,-37.5 1477.33,-37.5 1477.33,-37.5 1481.17,-37.5 1485,-41.33 1485,-45.17 1485,-45.17 1485,-52.83 1485,-52.83 1485,-56.67 1481.17,-60.5 1477.33,-60.5"/>
<text text-anchor="middle" x="1387" y="-45.3" font-family="Arial" font-size="14.00" fill="#ff6c60">app/wiring/wirings/parrallel.ts</text>
</g>
<!-- app/wiring/wirings/wire.ts&#45;&gt;app/wiring/wirings/parrallel.ts -->
<g id="edge15" class="edge">
<title>app/wiring/wirings/wire.ts&#45;&gt;app/wiring/wirings/parrallel.ts</title>
<path fill="none" stroke="#757575" d="M1248.26,-42.42C1258.22,-42.29 1268.48,-42.23 1278.69,-42.25"/>
<polygon fill="#757575" stroke="#757575" points="1278.85,-45.75 1288.87,-42.3 1278.88,-38.75 1278.85,-45.75"/>
</g>
<!-- app/wiring/wirings/parrallel.ts&#45;&gt;app/wiring/wirings/connection.ts -->
<g id="edge11" class="edge">
<title>app/wiring/wirings/parrallel.ts&#45;&gt;app/wiring/wirings/connection.ts</title>
<path fill="none" stroke="#757575" d="M1316.63,-60.51C1294.72,-63.89 1270.38,-67.37 1248,-70 1182.8,-77.65 1109.74,-83.83 1050.46,-88.25"/>
<polygon fill="#757575" stroke="#757575" points="1050.03,-84.77 1040.31,-89 1050.54,-91.75 1050.03,-84.77"/>
</g>
<!-- app/wiring/wirings/parrallel.ts&#45;&gt;app/wiring/wirings/wire.ts -->
<g id="edge12" class="edge">
<title>app/wiring/wirings/parrallel.ts&#45;&gt;app/wiring/wirings/wire.ts</title>
<path fill="none" stroke="#757575" d="M1288.87,-55.7C1278.73,-55.77 1268.43,-55.77 1258.31,-55.69"/>
<polygon fill="#757575" stroke="#757575" points="1258.3,-52.19 1248.26,-55.58 1258.22,-59.19 1258.3,-52.19"/>
</g>
</g>
</svg>
