<?xml version="1.0" encoding="UTF-8" standalone="no"?>
<!DOCTYPE svg PUBLIC "-//W3C//DTD SVG 1.1//EN"
 "http://www.w3.org/Graphics/SVG/1.1/DTD/svg11.dtd">
<!-- Generated by graphviz version 5.0.1 (20220820.1526)
 -->
<!-- Title: G Pages: 1 -->
<svg width="923pt" height="145pt"
 viewBox="0.00 0.00 923.20 145.20" xmlns="http://www.w3.org/2000/svg" xmlns:xlink="http://www.w3.org/1999/xlink">
<g id="graph0" class="graph" transform="scale(1 1) rotate(0) translate(21.6 123.6)">
<title>G</title>
<polygon fill="#111111" stroke="none" points="-21.6,21.6 -21.6,-123.6 901.6,-123.6 901.6,21.6 -21.6,21.6"/>
<!-- app/wiring/wirings/battery.ts -->
<g id="node1" class="node">
<title>app/wiring/wirings/battery.ts</title>
<path fill="none" stroke="#ff6c60" d="M181.33,-43C181.33,-43 7.67,-43 7.67,-43 3.83,-43 0,-39.17 0,-35.33 0,-35.33 0,-27.67 0,-27.67 0,-23.83 3.83,-20 7.67,-20 7.67,-20 181.33,-20 181.33,-20 185.17,-20 189,-23.83 189,-27.67 189,-27.67 189,-35.33 189,-35.33 189,-39.17 185.17,-43 181.33,-43"/>
<text text-anchor="middle" x="94.5" y="-27.8" font-family="Arial" font-size="14.00" fill="#ff6c60">app/wiring/wirings/battery.ts</text>
</g>
<!-- app/wiring/wirings/connection.ts -->
<g id="node2" class="node">
<title>app/wiring/wirings/connection.ts</title>
<path fill="none" stroke="#ff6c60" d="M432.33,-23C432.33,-23 232.67,-23 232.67,-23 228.83,-23 225,-19.17 225,-15.33 225,-15.33 225,-7.67 225,-7.67 225,-3.83 228.83,0 232.67,0 232.67,0 432.33,0 432.33,0 436.17,0 440,-3.83 440,-7.67 440,-7.67 440,-15.33 440,-15.33 440,-19.17 436.17,-23 432.33,-23"/>
<text text-anchor="middle" x="332.5" y="-7.8" font-family="Arial" font-size="14.00" fill="#ff6c60">app/wiring/wirings/connection.ts</text>
</g>
<!-- app/wiring/wirings/battery.ts&#45;&gt;app/wiring/wirings/connection.ts -->
<g id="edge1" class="edge">
<title>app/wiring/wirings/battery.ts&#45;&gt;app/wiring/wirings/connection.ts</title>
<path fill="none" stroke="#757575" d="M189.11,-23.57C197.53,-22.85 206.12,-22.13 214.7,-21.4"/>
<polygon fill="#757575" stroke="#757575" points="215.09,-24.88 224.76,-20.55 214.5,-17.9 215.09,-24.88"/>
</g>
<!-- app/wiring/wirings/wire.ts -->
<g id="node3" class="node">
<title>app/wiring/wirings/wire.ts</title>
<path fill="none" stroke="#ff6c60" d="M640.33,-63C640.33,-63 483.67,-63 483.67,-63 479.83,-63 476,-59.17 476,-55.33 476,-55.33 476,-47.67 476,-47.67 476,-43.83 479.83,-40 483.67,-40 483.67,-40 640.33,-40 640.33,-40 644.17,-40 648,-43.83 648,-47.67 648,-47.67 648,-55.33 648,-55.33 648,-59.17 644.17,-63 640.33,-63"/>
<text text-anchor="middle" x="562" y="-47.8" font-family="Arial" font-size="14.00" fill="#ff6c60">app/wiring/wirings/wire.ts</text>
</g>
<!-- app/wiring/wirings/connection.ts&#45;&gt;app/wiring/wirings/wire.ts -->
<g id="edge2" class="edge">
<title>app/wiring/wirings/connection.ts&#45;&gt;app/wiring/wirings/wire.ts</title>
<path fill="none" stroke="#757575" d="M399,-23.02C426,-27.76 457.46,-33.3 485.44,-38.21"/>
<polygon fill="#757575" stroke="#757575" points="485.12,-41.71 495.57,-40 486.33,-34.82 485.12,-41.71"/>
</g>
<!-- app/wiring/wirings/wire.ts&#45;&gt;app/wiring/wirings/battery.ts -->
<g id="edge5" class="edge">
<title>app/wiring/wirings/wire.ts&#45;&gt;app/wiring/wirings/battery.ts</title>
<path fill="none" stroke="#757575" d="M475.74,-47.84C397.88,-44.49 282.59,-39.54 199.38,-35.96"/>
<polygon fill="#757575" stroke="#757575" points="199.28,-32.46 189.14,-35.52 198.98,-39.45 199.28,-32.46"/>
</g>
<!-- app/wiring/wirings/parrallel.ts -->
<g id="node4" class="node">
<title>app/wiring/wirings/parrallel.ts</title>
<path fill="none" stroke="#ff6c60" d="M872.33,-63C872.33,-63 691.67,-63 691.67,-63 687.83,-63 684,-59.17 684,-55.33 684,-55.33 684,-47.67 684,-47.67 684,-43.83 687.83,-40 691.67,-40 691.67,-40 872.33,-40 872.33,-40 876.17,-40 880,-43.83 880,-47.67 880,-47.67 880,-55.33 880,-55.33 880,-59.17 876.17,-63 872.33,-63"/>
<text text-anchor="middle" x="782" y="-47.8" font-family="Arial" font-size="14.00" fill="#ff6c60">app/wiring/wirings/parrallel.ts</text>
</g>
<!-- app/wiring/wirings/wire.ts&#45;&gt;app/wiring/wirings/parrallel.ts -->
<g id="edge6" class="edge">
<title>app/wiring/wirings/wire.ts&#45;&gt;app/wiring/wirings/parrallel.ts</title>
<path fill="none" stroke="#757575" d="M648.22,-44.89C656.63,-44.79 665.24,-44.74 673.84,-44.75"/>
<polygon fill="#757575" stroke="#757575" points="673.9,-48.25 683.91,-44.79 673.92,-41.25 673.9,-48.25"/>
</g>
<!-- app/wiring/wirings/parrallel.ts&#45;&gt;app/wiring/wirings/connection.ts -->
<g id="edge3" class="edge">
<title>app/wiring/wirings/parrallel.ts&#45;&gt;app/wiring/wirings/connection.ts</title>
<path fill="none" stroke="#757575" d="M712.12,-39.99C691.54,-36.87 668.9,-33.73 648,-31.5 582.82,-24.54 509.76,-19.71 450.47,-16.55"/>
<polygon fill="#757575" stroke="#757575" points="450.49,-13.04 440.32,-16.02 450.13,-20.04 450.49,-13.04"/>
</g>
<!-- app/wiring/wirings/parrallel.ts&#45;&gt;app/wiring/wirings/wire.ts -->
<g id="edge4" class="edge">
<title>app/wiring/wirings/parrallel.ts&#45;&gt;app/wiring/wirings/wire.ts</title>
<path fill="none" stroke="#757575" d="M683.91,-58.21C675.45,-58.27 666.9,-58.26 658.45,-58.2"/>
<polygon fill="#757575" stroke="#757575" points="658.25,-54.7 648.22,-58.11 658.19,-61.7 658.25,-54.7"/>
</g>
<!-- type/google&#45;charts.ts -->
<g id="node5" class="node">
<title>type/google&#45;charts.ts</title>
<path fill="none" stroke="#ff6c60" d="M161.33,-84C161.33,-84 27.67,-84 27.67,-84 23.83,-84 20,-80.17 20,-76.33 20,-76.33 20,-68.67 20,-68.67 20,-64.83 23.83,-61 27.67,-61 27.67,-61 161.33,-61 161.33,-61 165.17,-61 169,-64.83 169,-68.67 169,-68.67 169,-76.33 169,-76.33 169,-80.17 165.17,-84 161.33,-84"/>
<text text-anchor="middle" x="94.5" y="-68.8" font-family="Arial" font-size="14.00" fill="#ff6c60">type/google&#45;charts.ts</text>
</g>
<!-- type/google&#45;charts.ts&#45;&gt;type/google&#45;charts.ts -->
<g id="edge7" class="edge">
<title>type/google&#45;charts.ts&#45;&gt;type/google&#45;charts.ts</title>
<path fill="none" stroke="#757575" d="M55.64,-84.01C41.1,-92.91 54.06,-102 94.5,-102 121.67,-102 136.43,-97.9 138.79,-92.51"/>
<polygon fill="#757575" stroke="#757575" points="141.69,-90.55 133.36,-84.01 135.79,-94.32 141.69,-90.55"/>
</g>
</g>
</svg>
