<?xml version="1.0" encoding="UTF-8" standalone="no"?>
<!DOCTYPE svg PUBLIC "-//W3C//DTD SVG 1.1//EN"
 "http://www.w3.org/Graphics/SVG/1.1/DTD/svg11.dtd">
<!-- Generated by graphviz version 5.0.1 (20220820.1526)
 -->
<!-- Title: G Pages: 1 -->
<svg width="746pt" height="125pt"
 viewBox="0.00 0.00 746.20 125.20" xmlns="http://www.w3.org/2000/svg" xmlns:xlink="http://www.w3.org/1999/xlink">
<g id="graph0" class="graph" transform="scale(1 1) rotate(0) translate(21.6 103.6)">
<title>G</title>
<polygon fill="#111111" stroke="none" points="-21.6,21.6 -21.6,-103.6 724.6,-103.6 724.6,21.6 -21.6,21.6"/>
<!-- app/inventory/inventory.component.ts -->
<g id="node1" class="node">
<title>app/inventory/inventory.component.ts</title>
<path fill="none" stroke="#ff6c60" d="M243.33,-23C243.33,-23 7.67,-23 7.67,-23 3.83,-23 0,-19.17 0,-15.33 0,-15.33 0,-7.67 0,-7.67 0,-3.83 3.83,0 7.67,0 7.67,0 243.33,0 243.33,0 247.17,0 251,-3.83 251,-7.67 251,-7.67 251,-15.33 251,-15.33 251,-19.17 247.17,-23 243.33,-23"/>
<text text-anchor="middle" x="125.5" y="-7.8" font-family="Arial" font-size="14.00" fill="#ff6c60">app/inventory/inventory.component.ts</text>
</g>
<!-- app/inventory/regex&#45;highlighted/regex&#45;highlighted.component.ts -->
<g id="node2" class="node">
<title>app/inventory/regex&#45;highlighted/regex&#45;highlighted.component.ts</title>
<path fill="none" stroke="#ff6c60" d="M695.33,-23C695.33,-23 294.67,-23 294.67,-23 290.83,-23 287,-19.17 287,-15.33 287,-15.33 287,-7.67 287,-7.67 287,-3.83 290.83,0 294.67,0 294.67,0 695.33,0 695.33,0 699.17,0 703,-3.83 703,-7.67 703,-7.67 703,-15.33 703,-15.33 703,-19.17 699.17,-23 695.33,-23"/>
<text text-anchor="middle" x="495" y="-7.8" font-family="Arial" font-size="14.00" fill="#ff6c60">app/inventory/regex&#45;highlighted/regex&#45;highlighted.component.ts</text>
</g>
<!-- app/inventory/inventory.component.ts&#45;&gt;app/inventory/regex&#45;highlighted/regex&#45;highlighted.component.ts -->
<g id="edge1" class="edge">
<title>app/inventory/inventory.component.ts&#45;&gt;app/inventory/regex&#45;highlighted/regex&#45;highlighted.component.ts</title>
<path fill="none" stroke="#757575" d="M251.18,-5.07C259.55,-4.98 268.12,-4.9 276.78,-4.85"/>
<polygon fill="#757575" stroke="#757575" points="277.01,-8.35 286.99,-4.8 276.98,-1.35 277.01,-8.35"/>
</g>
<!-- app/inventory/regex&#45;highlighted/regex&#45;highlighted.component.ts&#45;&gt;app/inventory/inventory.component.ts -->
<g id="edge2" class="edge">
<title>app/inventory/regex&#45;highlighted/regex&#45;highlighted.component.ts&#45;&gt;app/inventory/inventory.component.ts</title>
<path fill="none" stroke="#757575" d="M286.99,-18.2C278.36,-18.17 269.79,-18.11 261.37,-18.03"/>
<polygon fill="#757575" stroke="#757575" points="261.21,-14.53 251.18,-17.93 261.14,-21.53 261.21,-14.53"/>
</g>
<!-- app/wiring/libs/mqtt.ts -->
<g id="node3" class="node">
<title>app/wiring/libs/mqtt.ts</title>
<path fill="none" stroke="#ff6c60" d="M193.83,-64C193.83,-64 57.17,-64 57.17,-64 53.33,-64 49.5,-60.17 49.5,-56.33 49.5,-56.33 49.5,-48.67 49.5,-48.67 49.5,-44.83 53.33,-41 57.17,-41 57.17,-41 193.83,-41 193.83,-41 197.67,-41 201.5,-44.83 201.5,-48.67 201.5,-48.67 201.5,-56.33 201.5,-56.33 201.5,-60.17 197.67,-64 193.83,-64"/>
<text text-anchor="middle" x="125.5" y="-48.8" font-family="Arial" font-size="14.00" fill="#ff6c60">app/wiring/libs/mqtt.ts</text>
</g>
<!-- app/wiring/libs/mqtt.ts&#45;&gt;app/wiring/libs/mqtt.ts -->
<g id="edge3" class="edge">
<title>app/wiring/libs/mqtt.ts&#45;&gt;app/wiring/libs/mqtt.ts</title>
<path fill="none" stroke="#757575" d="M65.41,-64.01C42.94,-72.91 62.97,-82 125.5,-82 174.35,-82 197.26,-76.45 194.23,-69.78"/>
<polygon fill="#757575" stroke="#757575" points="195.85,-66.65 185.59,-64.01 191.96,-72.47 195.85,-66.65"/>
</g>
</g>
</svg>
