<?xml version="1.0" encoding="UTF-8" standalone="no"?>
<!DOCTYPE svg PUBLIC "-//W3C//DTD SVG 1.1//EN"
 "http://www.w3.org/Graphics/SVG/1.1/DTD/svg11.dtd">
<!-- Generated by graphviz version 12.2.1 (20241206.2353)
 -->
<!-- Title: G Pages: 1 -->
<svg width="190pt" height="85pt"
 viewBox="0.00 0.00 189.70 84.95" xmlns="http://www.w3.org/2000/svg" xmlns:xlink="http://www.w3.org/1999/xlink">
<g id="graph0" class="graph" transform="scale(1 1) rotate(0) translate(21.6 63.35)">
<title>G</title>
<polygon fill="#111111" stroke="none" points="-21.6,21.6 -21.6,-63.35 168.1,-63.35 168.1,21.6 -21.6,21.6"/>
<!-- app/wiring/libs/mqtt.ts -->
<g id="node1" class="node">
<title>app/wiring/libs/mqtt.ts</title>
<path fill="none" stroke="#ff6c60" d="M138.58,-23.75C138.58,-23.75 7.92,-23.75 7.92,-23.75 3.96,-23.75 0,-19.79 0,-15.83 0,-15.83 0,-7.92 0,-7.92 0,-3.96 3.96,0 7.92,0 7.92,0 138.58,0 138.58,0 142.54,0 146.5,-3.96 146.5,-7.92 146.5,-7.92 146.5,-15.83 146.5,-15.83 146.5,-19.79 142.54,-23.75 138.58,-23.75"/>
<text text-anchor="middle" x="73.25" y="-6.45" font-family="Arial" font-size="14.00" fill="#ff6c60">app/wiring/libs/mqtt.ts</text>
</g>
<!-- app/wiring/libs/mqtt.ts&#45;&gt;app/wiring/libs/mqtt.ts -->
<g id="edge1" class="edge">
<title>app/wiring/libs/mqtt.ts&#45;&gt;app/wiring/libs/mqtt.ts</title>
<path fill="none" stroke="#757575" d="M48.74,-24.15C40.76,-32.97 48.93,-41.75 73.25,-41.75 86.17,-41.75 94.53,-39.27 98.34,-35.63"/>
<polygon fill="#757575" stroke="#757575" points="101.83,-35.47 97.84,-25.66 94.84,-35.82 101.83,-35.47"/>
</g>
</g>
</svg>
