<?xml version="1.0" encoding="UTF-8" standalone="no"?>
<!DOCTYPE svg PUBLIC "-//W3C//DTD SVG 1.1//EN"
 "http://www.w3.org/Graphics/SVG/1.1/DTD/svg11.dtd">
<!-- Generated by graphviz version 2.47.2 (20210527.0053)
 -->
<!-- Title: G Pages: 1 -->
<svg width="3250pt" height="1328pt"
 viewBox="0.00 0.00 3250.20 1328.21" xmlns="http://www.w3.org/2000/svg" xmlns:xlink="http://www.w3.org/1999/xlink">
<g id="graph0" class="graph" transform="scale(1 1) rotate(0) translate(21.6 1306.61)">
<title>G</title>
<polygon fill="#111111" stroke="transparent" points="-21.6,21.6 -21.6,-1306.61 3228.6,-1306.61 3228.6,21.6 -21.6,21.6"/>
<!-- models/battery.ts -->
<g id="node1" class="node">
<title>models/battery.ts</title>
<path fill="none" stroke="#cfffac" d="M1766.83,-1032.62C1766.83,-1032.62 1657.17,-1032.62 1657.17,-1032.62 1653.33,-1032.62 1649.5,-1028.79 1649.5,-1024.96 1649.5,-1024.96 1649.5,-1017.29 1649.5,-1017.29 1649.5,-1013.46 1653.33,-1009.62 1657.17,-1009.62 1657.17,-1009.62 1766.83,-1009.62 1766.83,-1009.62 1770.67,-1009.62 1774.5,-1013.46 1774.5,-1017.29 1774.5,-1017.29 1774.5,-1024.96 1774.5,-1024.96 1774.5,-1028.79 1770.67,-1032.62 1766.83,-1032.62"/>
<text text-anchor="middle" x="1712" y="-1017.42" font-family="Arial" font-size="14.00" fill="#cfffac">models/battery.ts</text>
</g>
<!-- models/connection&#45;response.d.ts -->
<g id="node2" class="node">
<title>models/connection&#45;response.d.ts</title>
<path fill="none" stroke="#cfffac" d="M2744.33,-425.62C2744.33,-425.62 2531.67,-425.62 2531.67,-425.62 2527.83,-425.62 2524,-421.79 2524,-417.96 2524,-417.96 2524,-410.29 2524,-410.29 2524,-406.46 2527.83,-402.62 2531.67,-402.62 2531.67,-402.62 2744.33,-402.62 2744.33,-402.62 2748.17,-402.62 2752,-406.46 2752,-410.29 2752,-410.29 2752,-417.96 2752,-417.96 2752,-421.79 2748.17,-425.62 2744.33,-425.62"/>
<text text-anchor="middle" x="2638" y="-410.42" font-family="Arial" font-size="14.00" fill="#cfffac">models/connection&#45;response.d.ts</text>
</g>
<!-- models/connection.ts -->
<g id="node3" class="node">
<title>models/connection.ts</title>
<path fill="none" stroke="#c6c5fe" d="M1780.33,-568.62C1780.33,-568.62 1643.67,-568.62 1643.67,-568.62 1639.83,-568.62 1636,-564.79 1636,-560.96 1636,-560.96 1636,-553.29 1636,-553.29 1636,-549.46 1639.83,-545.62 1643.67,-545.62 1643.67,-545.62 1780.33,-545.62 1780.33,-545.62 1784.17,-545.62 1788,-549.46 1788,-553.29 1788,-553.29 1788,-560.96 1788,-560.96 1788,-564.79 1784.17,-568.62 1780.33,-568.62"/>
<text text-anchor="middle" x="1712" y="-553.42" font-family="Arial" font-size="14.00" fill="#c6c5fe">models/connection.ts</text>
</g>
<!-- models/receiver&#45;data.ts -->
<g id="node4" class="node">
<title>models/receiver&#45;data.ts</title>
<path fill="none" stroke="#c6c5fe" d="M2194.83,-564.62C2194.83,-564.62 2045.17,-564.62 2045.17,-564.62 2041.33,-564.62 2037.5,-560.79 2037.5,-556.96 2037.5,-556.96 2037.5,-549.29 2037.5,-549.29 2037.5,-545.46 2041.33,-541.62 2045.17,-541.62 2045.17,-541.62 2194.83,-541.62 2194.83,-541.62 2198.67,-541.62 2202.5,-545.46 2202.5,-549.29 2202.5,-549.29 2202.5,-556.96 2202.5,-556.96 2202.5,-560.79 2198.67,-564.62 2194.83,-564.62"/>
<text text-anchor="middle" x="2120" y="-549.42" font-family="Arial" font-size="14.00" fill="#c6c5fe">models/receiver&#45;data.ts</text>
</g>
<!-- models/connection.ts&#45;&gt;models/receiver&#45;data.ts -->
<g id="edge1" class="edge">
<title>models/connection.ts&#45;&gt;models/receiver&#45;data.ts</title>
<path fill="none" stroke="#757575" d="M1788.41,-556.38C1855.84,-555.72 1954.86,-554.74 2026.94,-554.03"/>
<polygon fill="#757575" stroke="#757575" points="2027.4,-557.53 2037.37,-553.93 2027.34,-550.53 2027.4,-557.53"/>
</g>
<!-- models/receiver.ts -->
<g id="node5" class="node">
<title>models/receiver.ts</title>
<path fill="none" stroke="#c6c5fe" d="M1960.83,-486.62C1960.83,-486.62 1842.17,-486.62 1842.17,-486.62 1838.33,-486.62 1834.5,-482.79 1834.5,-478.96 1834.5,-478.96 1834.5,-471.29 1834.5,-471.29 1834.5,-467.46 1838.33,-463.62 1842.17,-463.62 1842.17,-463.62 1960.83,-463.62 1960.83,-463.62 1964.67,-463.62 1968.5,-467.46 1968.5,-471.29 1968.5,-471.29 1968.5,-478.96 1968.5,-478.96 1968.5,-482.79 1964.67,-486.62 1960.83,-486.62"/>
<text text-anchor="middle" x="1901.5" y="-471.42" font-family="Arial" font-size="14.00" fill="#c6c5fe">models/receiver.ts</text>
</g>
<!-- models/connection.ts&#45;&gt;models/receiver.ts -->
<g id="edge2" class="edge">
<title>models/connection.ts&#45;&gt;models/receiver.ts</title>
<path fill="none" stroke="#757575" d="M1739.47,-545.55C1772.27,-531.2 1828.3,-506.7 1864.86,-490.71"/>
<polygon fill="#757575" stroke="#757575" points="1866.41,-493.85 1874.17,-486.64 1863.6,-487.44 1866.41,-493.85"/>
</g>
<!-- models/transformation.ts -->
<g id="node6" class="node">
<title>models/transformation.ts</title>
<path fill="none" stroke="#c6c5fe" d="M2198.83,-874.62C2198.83,-874.62 2041.17,-874.62 2041.17,-874.62 2037.33,-874.62 2033.5,-870.79 2033.5,-866.96 2033.5,-866.96 2033.5,-859.29 2033.5,-859.29 2033.5,-855.46 2037.33,-851.62 2041.17,-851.62 2041.17,-851.62 2198.83,-851.62 2198.83,-851.62 2202.67,-851.62 2206.5,-855.46 2206.5,-859.29 2206.5,-859.29 2206.5,-866.96 2206.5,-866.96 2206.5,-870.79 2202.67,-874.62 2198.83,-874.62"/>
<text text-anchor="middle" x="2120" y="-859.42" font-family="Arial" font-size="14.00" fill="#c6c5fe">models/transformation.ts</text>
</g>
<!-- models/connection.ts&#45;&gt;models/transformation.ts -->
<g id="edge3" class="edge">
<title>models/connection.ts&#45;&gt;models/transformation.ts</title>
<path fill="none" stroke="#757575" d="M1766.08,-568.77C1774.15,-572.35 1781.82,-577.02 1788,-583.12 1821.6,-616.33 1789.47,-650.89 1824,-683.12 1876.35,-731.99 1925.8,-679.19 1979,-727.12 2011,-755.96 1985.09,-786.12 2015,-817.12 2028.36,-830.97 2046.62,-840.94 2064.11,-847.98"/>
<polygon fill="#757575" stroke="#757575" points="2063.12,-851.35 2073.71,-851.6 2065.59,-844.8 2063.12,-851.35"/>
</g>
<!-- models/transformer.ts -->
<g id="node7" class="node">
<title>models/transformer.ts</title>
<path fill="none" stroke="#c6c5fe" d="M1971.33,-758.62C1971.33,-758.62 1831.67,-758.62 1831.67,-758.62 1827.83,-758.62 1824,-754.79 1824,-750.96 1824,-750.96 1824,-743.29 1824,-743.29 1824,-739.46 1827.83,-735.62 1831.67,-735.62 1831.67,-735.62 1971.33,-735.62 1971.33,-735.62 1975.17,-735.62 1979,-739.46 1979,-743.29 1979,-743.29 1979,-750.96 1979,-750.96 1979,-754.79 1975.17,-758.62 1971.33,-758.62"/>
<text text-anchor="middle" x="1901.5" y="-743.42" font-family="Arial" font-size="14.00" fill="#c6c5fe">models/transformer.ts</text>
</g>
<!-- models/connection.ts&#45;&gt;models/transformer.ts -->
<g id="edge4" class="edge">
<title>models/connection.ts&#45;&gt;models/transformer.ts</title>
<path fill="none" stroke="#757575" d="M1767.32,-568.65C1775.05,-572.24 1782.29,-576.95 1788,-583.12 1831.03,-629.67 1780.83,-674.71 1824,-721.12 1827.4,-724.78 1831.34,-727.93 1835.6,-730.63"/>
<polygon fill="#757575" stroke="#757575" points="1834.26,-733.88 1844.72,-735.58 1837.6,-727.73 1834.26,-733.88"/>
</g>
<!-- util/express&#45;db&#45;wrapper.ts -->
<g id="node8" class="node">
<title>util/express&#45;db&#45;wrapper.ts</title>
<path fill="none" stroke="#c6c5fe" d="M2720.33,-853.62C2720.33,-853.62 2555.67,-853.62 2555.67,-853.62 2551.83,-853.62 2548,-849.79 2548,-845.96 2548,-845.96 2548,-838.29 2548,-838.29 2548,-834.46 2551.83,-830.62 2555.67,-830.62 2555.67,-830.62 2720.33,-830.62 2720.33,-830.62 2724.17,-830.62 2728,-834.46 2728,-838.29 2728,-838.29 2728,-845.96 2728,-845.96 2728,-849.79 2724.17,-853.62 2720.33,-853.62"/>
<text text-anchor="middle" x="2638" y="-838.42" font-family="Arial" font-size="14.00" fill="#c6c5fe">util/express&#45;db&#45;wrapper.ts</text>
</g>
<!-- models/connection.ts&#45;&gt;util/express&#45;db&#45;wrapper.ts -->
<g id="edge5" class="edge">
<title>models/connection.ts&#45;&gt;util/express&#45;db&#45;wrapper.ts</title>
<path fill="none" stroke="#757575" d="M1748.75,-568.72C1761.26,-572.99 1775.34,-578.03 1788,-583.12 2002.72,-669.58 2037.93,-739.33 2261,-801.12 2352.6,-826.5 2460.83,-836.29 2537.59,-840"/>
<polygon fill="#757575" stroke="#757575" points="2537.58,-843.51 2547.73,-840.47 2537.91,-836.51 2537.58,-843.51"/>
</g>
<!-- models/receiver&#45;data.ts&#45;&gt;models/connection&#45;response.d.ts -->
<g id="edge7" class="edge">
<title>models/receiver&#45;data.ts&#45;&gt;models/connection&#45;response.d.ts</title>
<path fill="none" stroke="#757575" d="M2164.53,-541.61C2233.28,-523.41 2371.2,-486.79 2488,-455.12 2520.43,-446.33 2556.79,-436.33 2585.47,-428.41"/>
<polygon fill="#757575" stroke="#757575" points="2586.57,-431.73 2595.28,-425.7 2584.71,-424.99 2586.57,-431.73"/>
</g>
<!-- models/evaluated&#45;data.ts -->
<g id="node9" class="node">
<title>models/evaluated&#45;data.ts</title>
<path fill="none" stroke="#c6c5fe" d="M2454.33,-446.62C2454.33,-446.62 2294.67,-446.62 2294.67,-446.62 2290.83,-446.62 2287,-442.79 2287,-438.96 2287,-438.96 2287,-431.29 2287,-431.29 2287,-427.46 2290.83,-423.62 2294.67,-423.62 2294.67,-423.62 2454.33,-423.62 2454.33,-423.62 2458.17,-423.62 2462,-427.46 2462,-431.29 2462,-431.29 2462,-438.96 2462,-438.96 2462,-442.79 2458.17,-446.62 2454.33,-446.62"/>
<text text-anchor="middle" x="2374.5" y="-431.42" font-family="Arial" font-size="14.00" fill="#c6c5fe">models/evaluated&#45;data.ts</text>
</g>
<!-- models/receiver&#45;data.ts&#45;&gt;models/evaluated&#45;data.ts -->
<g id="edge8" class="edge">
<title>models/receiver&#45;data.ts&#45;&gt;models/evaluated&#45;data.ts</title>
<path fill="none" stroke="#757575" d="M2144.14,-541.52C2165.78,-530.27 2198.63,-512.15 2225,-493.12 2242.36,-480.6 2241.98,-470.95 2261,-461.12 2270.04,-456.45 2279.92,-452.61 2289.95,-449.45"/>
<polygon fill="#757575" stroke="#757575" points="2290.98,-452.8 2299.6,-446.63 2289.02,-446.08 2290.98,-452.8"/>
</g>
<!-- models/sound.ts -->
<g id="node11" class="node">
<title>models/sound.ts</title>
<path fill="none" stroke="#c6c5fe" d="M2427.83,-756.62C2427.83,-756.62 2321.17,-756.62 2321.17,-756.62 2317.33,-756.62 2313.5,-752.79 2313.5,-748.96 2313.5,-748.96 2313.5,-741.29 2313.5,-741.29 2313.5,-737.46 2317.33,-733.62 2321.17,-733.62 2321.17,-733.62 2427.83,-733.62 2427.83,-733.62 2431.67,-733.62 2435.5,-737.46 2435.5,-741.29 2435.5,-741.29 2435.5,-748.96 2435.5,-748.96 2435.5,-752.79 2431.67,-756.62 2427.83,-756.62"/>
<text text-anchor="middle" x="2374.5" y="-741.42" font-family="Arial" font-size="14.00" fill="#c6c5fe">models/sound.ts</text>
</g>
<!-- models/receiver&#45;data.ts&#45;&gt;models/sound.ts -->
<g id="edge9" class="edge">
<title>models/receiver&#45;data.ts&#45;&gt;models/sound.ts</title>
<path fill="none" stroke="#757575" d="M2141.95,-564.7C2163.42,-576.86 2197.45,-596.97 2225,-617.12 2273.76,-652.79 2326.28,-700.52 2353.92,-726.45"/>
<polygon fill="#757575" stroke="#757575" points="2351.67,-729.14 2361.35,-733.46 2356.48,-724.05 2351.67,-729.14"/>
</g>
<!-- models/receiver.ts&#45;&gt;models/receiver&#45;data.ts -->
<g id="edge11" class="edge">
<title>models/receiver.ts&#45;&gt;models/receiver&#45;data.ts</title>
<path fill="none" stroke="#757575" d="M1939.44,-486.65C1952.24,-491.17 1966.51,-496.79 1979,-503.12 1996.15,-511.82 1997.41,-519.35 2015,-527.12 2025.4,-531.72 2036.76,-535.61 2048.03,-538.86"/>
<polygon fill="#757575" stroke="#757575" points="2047.31,-542.29 2057.88,-541.55 2049.16,-535.54 2047.31,-542.29"/>
</g>
<!-- models/receiver.ts&#45;&gt;util/express&#45;db&#45;wrapper.ts -->
<g id="edge14" class="edge">
<title>models/receiver.ts&#45;&gt;util/express&#45;db&#45;wrapper.ts</title>
<path fill="none" stroke="#757575" d="M1912.51,-486.76C1951.73,-531.5 2100.69,-693.58 2261,-766.12 2354.55,-808.46 2387.42,-788.46 2488,-809.12 2517.23,-815.13 2549.57,-822.24 2576.64,-828.31"/>
<polygon fill="#757575" stroke="#757575" points="2576.21,-831.8 2586.74,-830.59 2577.75,-824.98 2576.21,-831.8"/>
</g>
<!-- models/receiver.ts&#45;&gt;models/evaluated&#45;data.ts -->
<g id="edge10" class="edge">
<title>models/receiver.ts&#45;&gt;models/evaluated&#45;data.ts</title>
<path fill="none" stroke="#757575" d="M1950.68,-463.57C1970.49,-459.27 1993.74,-454.79 2015,-452.12 2103.28,-441.07 2204.61,-437.06 2276.97,-435.67"/>
<polygon fill="#757575" stroke="#757575" points="2277.04,-439.17 2286.98,-435.5 2276.92,-432.18 2277.04,-439.17"/>
</g>
<!-- services/firebasemessaging.ts -->
<g id="node12" class="node">
<title>services/firebasemessaging.ts</title>
<path fill="none" stroke="#cfffac" d="M2217.33,-484.62C2217.33,-484.62 2022.67,-484.62 2022.67,-484.62 2018.83,-484.62 2015,-480.79 2015,-476.96 2015,-476.96 2015,-469.29 2015,-469.29 2015,-465.46 2018.83,-461.62 2022.67,-461.62 2022.67,-461.62 2217.33,-461.62 2217.33,-461.62 2221.17,-461.62 2225,-465.46 2225,-469.29 2225,-469.29 2225,-476.96 2225,-476.96 2225,-480.79 2221.17,-484.62 2217.33,-484.62"/>
<text text-anchor="middle" x="2120" y="-469.42" font-family="Arial" font-size="14.00" fill="#cfffac">services/firebasemessaging.ts</text>
</g>
<!-- models/receiver.ts&#45;&gt;services/firebasemessaging.ts -->
<g id="edge12" class="edge">
<title>models/receiver.ts&#45;&gt;services/firebasemessaging.ts</title>
<path fill="none" stroke="#757575" d="M1968.63,-474.51C1980.1,-474.41 1992.31,-474.29 2004.62,-474.18"/>
<polygon fill="#757575" stroke="#757575" points="2005.01,-477.68 2014.98,-474.09 2004.95,-470.68 2005.01,-477.68"/>
</g>
<!-- services/websocketmessaging.ts -->
<g id="node13" class="node">
<title>services/websocketmessaging.ts</title>
<path fill="none" stroke="#c6c5fe" d="M2480.33,-405.62C2480.33,-405.62 2268.67,-405.62 2268.67,-405.62 2264.83,-405.62 2261,-401.79 2261,-397.96 2261,-397.96 2261,-390.29 2261,-390.29 2261,-386.46 2264.83,-382.62 2268.67,-382.62 2268.67,-382.62 2480.33,-382.62 2480.33,-382.62 2484.17,-382.62 2488,-386.46 2488,-390.29 2488,-390.29 2488,-397.96 2488,-397.96 2488,-401.79 2484.17,-405.62 2480.33,-405.62"/>
<text text-anchor="middle" x="2374.5" y="-390.42" font-family="Arial" font-size="14.00" fill="#c6c5fe">services/websocketmessaging.ts</text>
</g>
<!-- models/receiver.ts&#45;&gt;services/websocketmessaging.ts -->
<g id="edge13" class="edge">
<title>models/receiver.ts&#45;&gt;services/websocketmessaging.ts</title>
<path fill="none" stroke="#757575" d="M1928.78,-463.52C1951.24,-454.1 1984.64,-441.24 2015,-434.12 2092.29,-416 2180.94,-406.02 2250.75,-400.56"/>
<polygon fill="#757575" stroke="#757575" points="2251.2,-404.03 2260.91,-399.79 2250.67,-397.05 2251.2,-404.03"/>
</g>
<!-- util/log.ts -->
<g id="node14" class="node">
<title>util/log.ts</title>
<path fill="none" stroke="#c6c5fe" d="M2953.83,-604.62C2953.83,-604.62 2897.17,-604.62 2897.17,-604.62 2893.33,-604.62 2889.5,-600.79 2889.5,-596.96 2889.5,-596.96 2889.5,-589.29 2889.5,-589.29 2889.5,-585.46 2893.33,-581.62 2897.17,-581.62 2897.17,-581.62 2953.83,-581.62 2953.83,-581.62 2957.67,-581.62 2961.5,-585.46 2961.5,-589.29 2961.5,-589.29 2961.5,-596.96 2961.5,-596.96 2961.5,-600.79 2957.67,-604.62 2953.83,-604.62"/>
<text text-anchor="middle" x="2925.5" y="-589.42" font-family="Arial" font-size="14.00" fill="#c6c5fe">util/log.ts</text>
</g>
<!-- models/receiver.ts&#45;&gt;util/log.ts -->
<g id="edge15" class="edge">
<title>models/receiver.ts&#45;&gt;util/log.ts</title>
<path fill="none" stroke="#757575" d="M1918.95,-463.43C1940.59,-448.23 1979.97,-421.13 2015,-400.12 2235.16,-268.11 2275.03,-189.68 2524,-127.12 2622.28,-102.43 2668.83,-69.23 2752,-127.12 2905.52,-234 2922.73,-494.15 2924.4,-571.25"/>
<polygon fill="#757575" stroke="#757575" points="2920.9,-571.31 2924.55,-581.25 2927.9,-571.2 2920.9,-571.31"/>
</g>
<!-- util/settable.ts -->
<g id="node15" class="node">
<title>util/settable.ts</title>
<path fill="none" stroke="#cfffac" d="M2969.33,-853.62C2969.33,-853.62 2881.67,-853.62 2881.67,-853.62 2877.83,-853.62 2874,-849.79 2874,-845.96 2874,-845.96 2874,-838.29 2874,-838.29 2874,-834.46 2877.83,-830.62 2881.67,-830.62 2881.67,-830.62 2969.33,-830.62 2969.33,-830.62 2973.17,-830.62 2977,-834.46 2977,-838.29 2977,-838.29 2977,-845.96 2977,-845.96 2977,-849.79 2973.17,-853.62 2969.33,-853.62"/>
<text text-anchor="middle" x="2925.5" y="-838.42" font-family="Arial" font-size="14.00" fill="#cfffac">util/settable.ts</text>
</g>
<!-- models/receiver.ts&#45;&gt;util/settable.ts -->
<g id="edge16" class="edge">
<title>models/receiver.ts&#45;&gt;util/settable.ts</title>
<path fill="none" stroke="#757575" d="M1968.8,-486.18C2055.97,-500.85 2200.93,-525.76 2225,-533.12 2495.02,-615.75 2799.22,-774.38 2894.4,-825.68"/>
<polygon fill="#757575" stroke="#757575" points="2893,-828.9 2903.46,-830.58 2896.33,-822.75 2893,-828.9"/>
</g>
<!-- models/transformation.ts&#45;&gt;util/express&#45;db&#45;wrapper.ts -->
<g id="edge28" class="edge">
<title>models/transformation.ts&#45;&gt;util/express&#45;db&#45;wrapper.ts</title>
<path fill="none" stroke="#757575" d="M2206.79,-859.63C2297.99,-855.92 2442.02,-850.06 2537.98,-846.15"/>
<polygon fill="#757575" stroke="#757575" points="2538.13,-849.65 2547.98,-845.75 2537.84,-842.66 2538.13,-849.65"/>
</g>
<!-- models/transformation.ts&#45;&gt;util/settable.ts -->
<g id="edge29" class="edge">
<title>models/transformation.ts&#45;&gt;util/settable.ts</title>
<path fill="none" stroke="#757575" d="M2206.6,-866.71C2328.05,-870.98 2557.29,-876.04 2752,-863.12 2789.24,-860.65 2830.77,-855.67 2863.74,-851.17"/>
<polygon fill="#757575" stroke="#757575" points="2864.26,-854.63 2873.69,-849.8 2863.3,-847.7 2864.26,-854.63"/>
</g>
<!-- models/transformer.ts&#45;&gt;models/connection&#45;response.d.ts -->
<g id="edge30" class="edge">
<title>models/transformer.ts&#45;&gt;models/connection&#45;response.d.ts</title>
<path fill="none" stroke="#757575" d="M1925.59,-735.56C1948.2,-724.34 1983.72,-707.03 2015,-693.12 2222.62,-600.81 2283.78,-598.74 2488,-499.12 2531.72,-477.8 2580.3,-449.09 2609.74,-431.09"/>
<polygon fill="#757575" stroke="#757575" points="2611.91,-433.87 2618.6,-425.65 2608.25,-427.9 2611.91,-433.87"/>
</g>
<!-- models/transformer.ts&#45;&gt;models/transformation.ts -->
<g id="edge31" class="edge">
<title>models/transformer.ts&#45;&gt;models/transformation.ts</title>
<path fill="none" stroke="#757575" d="M1919.59,-758.81C1941.26,-773.39 1980.03,-798.63 2015,-817.12 2036.15,-828.31 2060.58,-839.21 2080.44,-847.59"/>
<polygon fill="#757575" stroke="#757575" points="2079.22,-850.87 2089.79,-851.5 2081.91,-844.41 2079.22,-850.87"/>
</g>
<!-- util/express&#45;db&#45;wrapper.ts&#45;&gt;util/log.ts -->
<g id="edge80" class="edge">
<title>util/express&#45;db&#45;wrapper.ts&#45;&gt;util/log.ts</title>
<path fill="none" stroke="#757575" d="M2652.39,-830.45C2698,-790.67 2847.6,-660.19 2903.33,-611.59"/>
<polygon fill="#757575" stroke="#757575" points="2905.91,-613.99 2911.14,-604.77 2901.3,-608.71 2905.91,-613.99"/>
</g>
<!-- util/express&#45;db&#45;wrapper.ts&#45;&gt;util/settable.ts -->
<g id="edge81" class="edge">
<title>util/express&#45;db&#45;wrapper.ts&#45;&gt;util/settable.ts</title>
<path fill="none" stroke="#757575" d="M2728.16,-842.12C2772.17,-842.12 2824.12,-842.12 2863.53,-842.12"/>
<polygon fill="#757575" stroke="#757575" points="2863.78,-845.62 2873.78,-842.12 2863.78,-838.62 2863.78,-845.62"/>
</g>
<!-- util/express&#45;util.ts/response&#45;code&#45;error.ts -->
<g id="node26" class="node">
<title>util/express&#45;util.ts/response&#45;code&#45;error.ts</title>
<path fill="none" stroke="#cfffac" d="M3055.33,-1089.62C3055.33,-1089.62 2795.67,-1089.62 2795.67,-1089.62 2791.83,-1089.62 2788,-1085.79 2788,-1081.96 2788,-1081.96 2788,-1074.29 2788,-1074.29 2788,-1070.46 2791.83,-1066.62 2795.67,-1066.62 2795.67,-1066.62 3055.33,-1066.62 3055.33,-1066.62 3059.17,-1066.62 3063,-1070.46 3063,-1074.29 3063,-1074.29 3063,-1081.96 3063,-1081.96 3063,-1085.79 3059.17,-1089.62 3055.33,-1089.62"/>
<text text-anchor="middle" x="2925.5" y="-1074.42" font-family="Arial" font-size="14.00" fill="#cfffac">util/express&#45;util.ts/response&#45;code&#45;error.ts</text>
</g>
<!-- util/express&#45;db&#45;wrapper.ts&#45;&gt;util/express&#45;util.ts/response&#45;code&#45;error.ts -->
<g id="edge79" class="edge">
<title>util/express&#45;db&#45;wrapper.ts&#45;&gt;util/express&#45;util.ts/response&#45;code&#45;error.ts</title>
<path fill="none" stroke="#757575" d="M2653.16,-853.83C2699.39,-892.05 2846.18,-1013.39 2902.35,-1059.81"/>
<polygon fill="#757575" stroke="#757575" points="2900.32,-1062.68 2910.26,-1066.35 2904.78,-1057.28 2900.32,-1062.68"/>
</g>
<!-- models/evaluated&#45;data.ts&#45;&gt;models/connection&#45;response.d.ts -->
<g id="edge6" class="edge">
<title>models/evaluated&#45;data.ts&#45;&gt;models/connection&#45;response.d.ts</title>
<path fill="none" stroke="#757575" d="M2462.21,-428.16C2478.74,-426.83 2496.33,-425.42 2513.75,-424.02"/>
<polygon fill="#757575" stroke="#757575" points="2514.28,-427.49 2523.97,-423.2 2513.72,-420.51 2514.28,-427.49"/>
</g>
<!-- models/event.ts -->
<g id="node10" class="node">
<title>models/event.ts</title>
<path fill="none" stroke="#cfffac" d="M1762.83,-1073.62C1762.83,-1073.62 1661.17,-1073.62 1661.17,-1073.62 1657.33,-1073.62 1653.5,-1069.79 1653.5,-1065.96 1653.5,-1065.96 1653.5,-1058.29 1653.5,-1058.29 1653.5,-1054.46 1657.33,-1050.62 1661.17,-1050.62 1661.17,-1050.62 1762.83,-1050.62 1762.83,-1050.62 1766.67,-1050.62 1770.5,-1054.46 1770.5,-1058.29 1770.5,-1058.29 1770.5,-1065.96 1770.5,-1065.96 1770.5,-1069.79 1766.67,-1073.62 1762.83,-1073.62"/>
<text text-anchor="middle" x="1712" y="-1058.42" font-family="Arial" font-size="14.00" fill="#cfffac">models/event.ts</text>
</g>
<!-- models/sound.ts&#45;&gt;util/express&#45;db&#45;wrapper.ts -->
<g id="edge26" class="edge">
<title>models/sound.ts&#45;&gt;util/express&#45;db&#45;wrapper.ts</title>
<path fill="none" stroke="#757575" d="M2435.63,-754.4C2453,-758.3 2471.66,-763.71 2488,-771.12 2505.97,-779.29 2506.7,-787.62 2524,-797.12 2545.59,-808.98 2570.96,-819.37 2592.19,-827.18"/>
<polygon fill="#757575" stroke="#757575" points="2591.03,-830.48 2601.62,-830.58 2593.4,-823.89 2591.03,-830.48"/>
</g>
<!-- models/sound.ts&#45;&gt;util/settable.ts -->
<g id="edge27" class="edge">
<title>models/sound.ts&#45;&gt;util/settable.ts</title>
<path fill="none" stroke="#757575" d="M2435.56,-755.74C2540.95,-774.36 2758.01,-812.71 2863.83,-831.4"/>
<polygon fill="#757575" stroke="#757575" points="2863.25,-834.86 2873.71,-833.15 2864.47,-827.96 2863.25,-834.86"/>
</g>
<!-- services/websocketmessaging.ts&#45;&gt;models/connection&#45;response.d.ts -->
<g id="edge78" class="edge">
<title>services/websocketmessaging.ts&#45;&gt;models/connection&#45;response.d.ts</title>
<path fill="none" stroke="#757575" d="M2488.3,-402.75C2496.65,-403.39 2505.1,-404.04 2513.52,-404.68"/>
<polygon fill="#757575" stroke="#757575" points="2513.51,-408.19 2523.75,-405.46 2514.04,-401.21 2513.51,-408.19"/>
</g>
<!-- util/btoaatob.ts -->
<g id="node32" class="node">
<title>util/btoaatob.ts</title>
<path fill="none" stroke="#cfffac" d="M3199.33,-604.62C3199.33,-604.62 3106.67,-604.62 3106.67,-604.62 3102.83,-604.62 3099,-600.79 3099,-596.96 3099,-596.96 3099,-589.29 3099,-589.29 3099,-585.46 3102.83,-581.62 3106.67,-581.62 3106.67,-581.62 3199.33,-581.62 3199.33,-581.62 3203.17,-581.62 3207,-585.46 3207,-589.29 3207,-589.29 3207,-596.96 3207,-596.96 3207,-600.79 3203.17,-604.62 3199.33,-604.62"/>
<text text-anchor="middle" x="3153" y="-589.42" font-family="Arial" font-size="14.00" fill="#cfffac">util/btoaatob.ts</text>
</g>
<!-- util/log.ts&#45;&gt;util/btoaatob.ts -->
<g id="edge82" class="edge">
<title>util/log.ts&#45;&gt;util/btoaatob.ts</title>
<path fill="none" stroke="#757575" d="M2961.73,-593.12C2995.65,-593.12 3047.7,-593.12 3088.79,-593.12"/>
<polygon fill="#757575" stroke="#757575" points="3088.99,-596.62 3098.99,-593.12 3088.99,-589.62 3088.99,-596.62"/>
</g>
<!-- models/sender.ts -->
<g id="node16" class="node">
<title>models/sender.ts</title>
<path fill="none" stroke="#c6c5fe" d="M1590.33,-840.62C1590.33,-840.62 1478.67,-840.62 1478.67,-840.62 1474.83,-840.62 1471,-836.79 1471,-832.96 1471,-832.96 1471,-825.29 1471,-825.29 1471,-821.46 1474.83,-817.62 1478.67,-817.62 1478.67,-817.62 1590.33,-817.62 1590.33,-817.62 1594.17,-817.62 1598,-821.46 1598,-825.29 1598,-825.29 1598,-832.96 1598,-832.96 1598,-836.79 1594.17,-840.62 1590.33,-840.62"/>
<text text-anchor="middle" x="1534.5" y="-825.42" font-family="Arial" font-size="14.00" fill="#c6c5fe">models/sender.ts</text>
</g>
<!-- models/sender.ts&#45;&gt;models/battery.ts -->
<g id="edge17" class="edge">
<title>models/sender.ts&#45;&gt;models/battery.ts</title>
<path fill="none" stroke="#757575" d="M1539.33,-840.65C1549.85,-870.59 1582.04,-951.48 1636,-995.12 1640.92,-999.11 1646.49,-1002.49 1652.32,-1005.38"/>
<polygon fill="#757575" stroke="#757575" points="1651.07,-1008.65 1661.63,-1009.5 1653.91,-1002.25 1651.07,-1008.65"/>
</g>
<!-- models/sender.ts&#45;&gt;models/connection&#45;response.d.ts -->
<g id="edge18" class="edge">
<title>models/sender.ts&#45;&gt;models/connection&#45;response.d.ts</title>
<path fill="none" stroke="#757575" d="M1598.18,-825.47C1684.99,-819.3 1846.14,-803.8 1979,-768.12 2215.02,-704.75 2283.8,-694.37 2488,-560.12 2543.6,-523.57 2596.14,-464.29 2621.37,-433.72"/>
<polygon fill="#757575" stroke="#757575" points="2624.14,-435.87 2627.75,-425.91 2618.71,-431.45 2624.14,-435.87"/>
</g>
<!-- models/sender.ts&#45;&gt;models/connection.ts -->
<g id="edge19" class="edge">
<title>models/sender.ts&#45;&gt;models/connection.ts</title>
<path fill="none" stroke="#757575" d="M1542.31,-817.47C1554.1,-797.27 1579.08,-754.43 1600,-718.12 1616.1,-690.18 1618.16,-681.99 1636,-655.12 1654.79,-626.83 1679.07,-595.99 1694.84,-576.62"/>
<polygon fill="#757575" stroke="#757575" points="1697.6,-578.77 1701.23,-568.81 1692.18,-574.33 1697.6,-578.77"/>
</g>
<!-- models/sender.ts&#45;&gt;models/transformation.ts -->
<g id="edge21" class="edge">
<title>models/sender.ts&#45;&gt;models/transformation.ts</title>
<path fill="none" stroke="#757575" d="M1598.22,-832.78C1700.18,-838.72 1902.56,-850.51 2022.81,-857.52"/>
<polygon fill="#757575" stroke="#757575" points="2022.92,-861.03 2033.11,-858.12 2023.33,-854.04 2022.92,-861.03"/>
</g>
<!-- models/sender.ts&#45;&gt;models/transformer.ts -->
<g id="edge22" class="edge">
<title>models/sender.ts&#45;&gt;models/transformer.ts</title>
<path fill="none" stroke="#757575" d="M1553.17,-817.44C1572.6,-805.2 1605.18,-786.5 1636,-777.12 1693.62,-759.6 1761.11,-752.15 1813.5,-749.05"/>
<polygon fill="#757575" stroke="#757575" points="1813.98,-752.53 1823.77,-748.48 1813.59,-745.54 1813.98,-752.53"/>
</g>
<!-- models/sender.ts&#45;&gt;util/express&#45;db&#45;wrapper.ts -->
<g id="edge23" class="edge">
<title>models/sender.ts&#45;&gt;util/express&#45;db&#45;wrapper.ts</title>
<path fill="none" stroke="#757575" d="M1577.76,-840.73C1595.6,-845.24 1616.69,-850.05 1636,-853.12 2009.99,-912.72 2111.75,-909.21 2488,-866.12 2512.6,-863.31 2539.34,-859.3 2563.29,-855.36"/>
<polygon fill="#757575" stroke="#757575" points="2564.08,-858.78 2573.37,-853.69 2562.93,-851.88 2564.08,-858.78"/>
</g>
<!-- models/sender.ts&#45;&gt;models/event.ts -->
<g id="edge20" class="edge">
<title>models/sender.ts&#45;&gt;models/event.ts</title>
<path fill="none" stroke="#757575" d="M1537.49,-840.92C1544.2,-876.96 1569.44,-986.6 1636,-1042.12 1638.54,-1044.24 1641.27,-1046.13 1644.15,-1047.83"/>
<polygon fill="#757575" stroke="#757575" points="1642.63,-1050.98 1653.14,-1052.34 1645.77,-1044.72 1642.63,-1050.98"/>
</g>
<!-- models/sender.ts&#45;&gt;util/log.ts -->
<g id="edge24" class="edge">
<title>models/sender.ts&#45;&gt;util/log.ts</title>
<path fill="none" stroke="#757575" d="M1554.37,-840.7C1574.01,-852.16 1606.03,-869.26 1636,-878.12 1716.72,-902.01 1740.1,-894.25 1824,-901.12 2029.7,-917.99 2576.47,-971.7 2752,-863.12 2776.93,-847.71 2877.74,-674.66 2912.58,-613.99"/>
<polygon fill="#757575" stroke="#757575" points="2915.83,-615.37 2917.76,-604.95 2909.75,-611.88 2915.83,-615.37"/>
</g>
<!-- models/sender.ts&#45;&gt;util/settable.ts -->
<g id="edge25" class="edge">
<title>models/sender.ts&#45;&gt;util/settable.ts</title>
<path fill="none" stroke="#757575" d="M1546.8,-840.89C1564.64,-859.08 1600.93,-894.48 1636,-919.12 1698.8,-963.26 1723.71,-959.19 1788,-1001.12 1804.98,-1012.2 1805.11,-1021.77 1824,-1029.12 1946.59,-1076.83 1987.46,-1053.12 2119,-1053.12 2119,-1053.12 2119,-1053.12 2375.5,-1053.12 2590.88,-1053.12 2824.04,-909.89 2899.47,-859.44"/>
<polygon fill="#757575" stroke="#757575" points="2901.54,-862.27 2907.87,-853.77 2897.62,-856.46 2901.54,-862.27"/>
</g>
<!-- models/test.ts -->
<g id="node17" class="node">
<title>models/test.ts</title>
<path fill="none" stroke="#cfffac" d="M143.83,-1094.62C143.83,-1094.62 53.17,-1094.62 53.17,-1094.62 49.33,-1094.62 45.5,-1090.79 45.5,-1086.96 45.5,-1086.96 45.5,-1079.29 45.5,-1079.29 45.5,-1075.46 49.33,-1071.62 53.17,-1071.62 53.17,-1071.62 143.83,-1071.62 143.83,-1071.62 147.67,-1071.62 151.5,-1075.46 151.5,-1079.29 151.5,-1079.29 151.5,-1086.96 151.5,-1086.96 151.5,-1090.79 147.67,-1094.62 143.83,-1094.62"/>
<text text-anchor="middle" x="98.5" y="-1079.42" font-family="Arial" font-size="14.00" fill="#cfffac">models/test.ts</text>
</g>
<!-- models/timer.ts -->
<g id="node18" class="node">
<title>models/timer.ts</title>
<path fill="none" stroke="#cfffac" d="M1583.83,-418.62C1583.83,-418.62 1485.17,-418.62 1485.17,-418.62 1481.33,-418.62 1477.5,-414.79 1477.5,-410.96 1477.5,-410.96 1477.5,-403.29 1477.5,-403.29 1477.5,-399.46 1481.33,-395.62 1485.17,-395.62 1485.17,-395.62 1583.83,-395.62 1583.83,-395.62 1587.67,-395.62 1591.5,-399.46 1591.5,-403.29 1591.5,-403.29 1591.5,-410.96 1591.5,-410.96 1591.5,-414.79 1587.67,-418.62 1583.83,-418.62"/>
<text text-anchor="middle" x="1534.5" y="-403.42" font-family="Arial" font-size="14.00" fill="#cfffac">models/timer.ts</text>
</g>
<!-- resources/connection.r.ts -->
<g id="node19" class="node">
<title>resources/connection.r.ts</title>
<path fill="none" stroke="#c6c5fe" d="M909.33,-537.62C909.33,-537.62 748.67,-537.62 748.67,-537.62 744.83,-537.62 741,-533.79 741,-529.96 741,-529.96 741,-522.29 741,-522.29 741,-518.46 744.83,-514.62 748.67,-514.62 748.67,-514.62 909.33,-514.62 909.33,-514.62 913.17,-514.62 917,-518.46 917,-522.29 917,-522.29 917,-529.96 917,-529.96 917,-533.79 913.17,-537.62 909.33,-537.62"/>
<text text-anchor="middle" x="829" y="-522.42" font-family="Arial" font-size="14.00" fill="#c6c5fe">resources/connection.r.ts</text>
</g>
<!-- resources/connection.r.ts&#45;&gt;models/connection.ts -->
<g id="edge32" class="edge">
<title>resources/connection.r.ts&#45;&gt;models/connection.ts</title>
<path fill="none" stroke="#757575" d="M917.28,-536.14C929.27,-537.28 941.43,-538.32 953,-539.12 1181.91,-554.97 1239.58,-551.87 1469,-556.12 1521.05,-557.09 1579.41,-557.35 1625.77,-557.37"/>
<polygon fill="#757575" stroke="#757575" points="1625.78,-560.87 1635.78,-557.37 1625.78,-553.87 1625.78,-560.87"/>
</g>
<!-- resources/connection.r.ts&#45;&gt;models/receiver.ts -->
<g id="edge33" class="edge">
<title>resources/connection.r.ts&#45;&gt;models/receiver.ts</title>
<path fill="none" stroke="#757575" d="M917.15,-521.97C1121.88,-512.22 1630.78,-487.97 1824.23,-478.76"/>
<polygon fill="#757575" stroke="#757575" points="1824.49,-482.25 1834.31,-478.28 1824.15,-475.26 1824.49,-482.25"/>
</g>
<!-- resources/connection.r.ts&#45;&gt;models/sender.ts -->
<g id="edge34" class="edge">
<title>resources/connection.r.ts&#45;&gt;models/sender.ts</title>
<path fill="none" stroke="#757575" d="M844.66,-537.81C867.24,-555.56 912.19,-589.91 953,-615.12 1053.62,-677.29 1078.7,-695.42 1189,-738.12 1281.51,-773.94 1393.3,-800.59 1463.92,-815.51"/>
<polygon fill="#757575" stroke="#757575" points="1463.53,-819 1474.03,-817.62 1464.96,-812.15 1463.53,-819"/>
</g>
<!-- resources/frontend&#45;update.ts -->
<g id="node20" class="node">
<title>resources/frontend&#45;update.ts</title>
<path fill="none" stroke="#c6c5fe" d="M1145.33,-458.62C1145.33,-458.62 960.67,-458.62 960.67,-458.62 956.83,-458.62 953,-454.79 953,-450.96 953,-450.96 953,-443.29 953,-443.29 953,-439.46 956.83,-435.62 960.67,-435.62 960.67,-435.62 1145.33,-435.62 1145.33,-435.62 1149.17,-435.62 1153,-439.46 1153,-443.29 1153,-443.29 1153,-450.96 1153,-450.96 1153,-454.79 1149.17,-458.62 1145.33,-458.62"/>
<text text-anchor="middle" x="1053" y="-443.42" font-family="Arial" font-size="14.00" fill="#c6c5fe">resources/frontend&#45;update.ts</text>
</g>
<!-- resources/connection.r.ts&#45;&gt;resources/frontend&#45;update.ts -->
<g id="edge35" class="edge">
<title>resources/connection.r.ts&#45;&gt;resources/frontend&#45;update.ts</title>
<path fill="none" stroke="#757575" d="M871.38,-514.53C885.89,-510.26 902.25,-505.21 917,-500.12 950.6,-488.53 988.19,-473.61 1015.16,-462.55"/>
<polygon fill="#757575" stroke="#757575" points="1016.67,-465.71 1024.59,-458.67 1014.01,-459.24 1016.67,-465.71"/>
</g>
<!-- resources/frontend&#45;update.ts&#45;&gt;models/timer.ts -->
<g id="edge36" class="edge">
<title>resources/frontend&#45;update.ts&#45;&gt;models/timer.ts</title>
<path fill="none" stroke="#757575" d="M1119.4,-435.61C1141.45,-432.09 1166.24,-428.52 1189,-426.12 1285.33,-416 1397.41,-411.09 1466.91,-408.84"/>
<polygon fill="#757575" stroke="#757575" points="1467.39,-412.33 1477.27,-408.51 1467.17,-405.33 1467.39,-412.33"/>
</g>
<!-- resources/websocket&#45;response.d.ts -->
<g id="node21" class="node">
<title>resources/websocket&#45;response.d.ts</title>
<path fill="none" stroke="#c6c5fe" d="M1425.33,-458.62C1425.33,-458.62 1196.67,-458.62 1196.67,-458.62 1192.83,-458.62 1189,-454.79 1189,-450.96 1189,-450.96 1189,-443.29 1189,-443.29 1189,-439.46 1192.83,-435.62 1196.67,-435.62 1196.67,-435.62 1425.33,-435.62 1425.33,-435.62 1429.17,-435.62 1433,-439.46 1433,-443.29 1433,-443.29 1433,-450.96 1433,-450.96 1433,-454.79 1429.17,-458.62 1425.33,-458.62"/>
<text text-anchor="middle" x="1311" y="-443.42" font-family="Arial" font-size="14.00" fill="#c6c5fe">resources/websocket&#45;response.d.ts</text>
</g>
<!-- resources/frontend&#45;update.ts&#45;&gt;resources/websocket&#45;response.d.ts -->
<g id="edge37" class="edge">
<title>resources/frontend&#45;update.ts&#45;&gt;resources/websocket&#45;response.d.ts</title>
<path fill="none" stroke="#757575" d="M1153.34,-447.12C1161.73,-447.12 1170.28,-447.12 1178.86,-447.12"/>
<polygon fill="#757575" stroke="#757575" points="1178.93,-450.62 1188.93,-447.12 1178.93,-443.62 1178.93,-450.62"/>
</g>
<!-- services/sender&#45;loader.ts -->
<g id="node22" class="node">
<title>services/sender&#45;loader.ts</title>
<path fill="none" stroke="#c6c5fe" d="M1391.83,-728.62C1391.83,-728.62 1230.17,-728.62 1230.17,-728.62 1226.33,-728.62 1222.5,-724.79 1222.5,-720.96 1222.5,-720.96 1222.5,-713.29 1222.5,-713.29 1222.5,-709.46 1226.33,-705.62 1230.17,-705.62 1230.17,-705.62 1391.83,-705.62 1391.83,-705.62 1395.67,-705.62 1399.5,-709.46 1399.5,-713.29 1399.5,-713.29 1399.5,-720.96 1399.5,-720.96 1399.5,-724.79 1395.67,-728.62 1391.83,-728.62"/>
<text text-anchor="middle" x="1311" y="-713.42" font-family="Arial" font-size="14.00" fill="#c6c5fe">services/sender&#45;loader.ts</text>
</g>
<!-- resources/frontend&#45;update.ts&#45;&gt;services/sender&#45;loader.ts -->
<g id="edge38" class="edge">
<title>resources/frontend&#45;update.ts&#45;&gt;services/sender&#45;loader.ts</title>
<path fill="none" stroke="#757575" d="M1065,-458.73C1104.96,-500.87 1242.7,-646.14 1292.15,-698.3"/>
<polygon fill="#757575" stroke="#757575" points="1289.62,-700.72 1299.04,-705.57 1294.7,-695.9 1289.62,-700.72"/>
</g>
<!-- resources/websocket&#45;response.d.ts&#45;&gt;models/sender.ts -->
<g id="edge55" class="edge">
<title>resources/websocket&#45;response.d.ts&#45;&gt;models/sender.ts</title>
<path fill="none" stroke="#757575" d="M1318.73,-458.75C1340.46,-496.3 1410.74,-617.71 1469,-718.12 1487.32,-749.7 1508.59,-786.3 1521.55,-808.58"/>
<polygon fill="#757575" stroke="#757575" points="1518.66,-810.58 1526.72,-817.46 1524.71,-807.06 1518.66,-810.58"/>
</g>
<!-- resources/websocket&#45;response.d.ts&#45;&gt;models/timer.ts -->
<g id="edge56" class="edge">
<title>resources/websocket&#45;response.d.ts&#45;&gt;models/timer.ts</title>
<path fill="none" stroke="#757575" d="M1375.77,-435.61C1404.47,-430.43 1438.33,-424.31 1467.3,-419.08"/>
<polygon fill="#757575" stroke="#757575" points="1468.11,-422.49 1477.33,-417.27 1466.87,-415.6 1468.11,-422.49"/>
</g>
<!-- services/sender&#45;loader.ts&#45;&gt;models/sound.ts -->
<g id="edge68" class="edge">
<title>services/sender&#45;loader.ts&#45;&gt;models/sound.ts</title>
<path fill="none" stroke="#757575" d="M1399.6,-718.1C1554.06,-719.89 1868.88,-723.79 1979,-727.12 2092.46,-730.56 2224.17,-737.08 2303.07,-741.26"/>
<polygon fill="#757575" stroke="#757575" points="2303.2,-744.77 2313.37,-741.81 2303.57,-737.78 2303.2,-744.77"/>
</g>
<!-- services/sender&#45;loader.ts&#45;&gt;models/sender.ts -->
<g id="edge67" class="edge">
<title>services/sender&#45;loader.ts&#45;&gt;models/sender.ts</title>
<path fill="none" stroke="#757575" d="M1392.98,-728.68C1406.74,-732.27 1420.58,-736.98 1433,-743.12 1466.64,-759.78 1498.3,-790.23 1516.79,-810.07"/>
<polygon fill="#757575" stroke="#757575" points="1514.33,-812.57 1523.65,-817.6 1519.5,-807.85 1514.33,-812.57"/>
</g>
<!-- util/tsc&#45;compiler.ts -->
<g id="node31" class="node">
<title>util/tsc&#45;compiler.ts</title>
<path fill="none" stroke="#c6c5fe" d="M1592.33,-708.62C1592.33,-708.62 1476.67,-708.62 1476.67,-708.62 1472.83,-708.62 1469,-704.79 1469,-700.96 1469,-700.96 1469,-693.29 1469,-693.29 1469,-689.46 1472.83,-685.62 1476.67,-685.62 1476.67,-685.62 1592.33,-685.62 1592.33,-685.62 1596.17,-685.62 1600,-689.46 1600,-693.29 1600,-693.29 1600,-700.96 1600,-700.96 1600,-704.79 1596.17,-708.62 1592.33,-708.62"/>
<text text-anchor="middle" x="1534.5" y="-693.42" font-family="Arial" font-size="14.00" fill="#c6c5fe">util/tsc&#45;compiler.ts</text>
</g>
<!-- services/sender&#45;loader.ts&#45;&gt;util/tsc&#45;compiler.ts -->
<g id="edge69" class="edge">
<title>services/sender&#45;loader.ts&#45;&gt;util/tsc&#45;compiler.ts</title>
<path fill="none" stroke="#757575" d="M1399.54,-709.22C1419.12,-707.45 1439.71,-705.59 1458.72,-703.88"/>
<polygon fill="#757575" stroke="#757575" points="1459.15,-707.35 1468.8,-702.97 1458.52,-700.38 1459.15,-707.35"/>
</g>
<!-- resources/receiver.r.ts -->
<g id="node23" class="node">
<title>resources/receiver.r.ts</title>
<path fill="none" stroke="#c6c5fe" d="M900.33,-161.62C900.33,-161.62 757.67,-161.62 757.67,-161.62 753.83,-161.62 750,-157.79 750,-153.96 750,-153.96 750,-146.29 750,-146.29 750,-142.46 753.83,-138.62 757.67,-138.62 757.67,-138.62 900.33,-138.62 900.33,-138.62 904.17,-138.62 908,-142.46 908,-146.29 908,-146.29 908,-153.96 908,-153.96 908,-157.79 904.17,-161.62 900.33,-161.62"/>
<text text-anchor="middle" x="829" y="-146.42" font-family="Arial" font-size="14.00" fill="#c6c5fe">resources/receiver.r.ts</text>
</g>
<!-- resources/receiver.r.ts&#45;&gt;models/receiver.ts -->
<g id="edge39" class="edge">
<title>resources/receiver.r.ts&#45;&gt;models/receiver.ts</title>
<path fill="none" stroke="#757575" d="M908.11,-153.7C1048.05,-160.65 1335.94,-177.58 1433,-203.12 1511.86,-223.88 1528.53,-239.85 1600,-279.12 1707.11,-337.99 1826.57,-421.76 1876.52,-457.68"/>
<polygon fill="#757575" stroke="#757575" points="1874.59,-460.61 1884.74,-463.62 1878.68,-454.93 1874.59,-460.61"/>
</g>
<!-- resources/receiver.r.ts&#45;&gt;util/log.ts -->
<g id="edge41" class="edge">
<title>resources/receiver.r.ts&#45;&gt;util/log.ts</title>
<path fill="none" stroke="#757575" d="M886.71,-138.57C1005.92,-115.33 1291.45,-65.12 1533.5,-65.12 1533.5,-65.12 1533.5,-65.12 2375.5,-65.12 2459.37,-65.12 2685.46,-40.08 2752,-91.12 2911.24,-213.29 2924.39,-490.92 2924.76,-571.08"/>
<polygon fill="#757575" stroke="#757575" points="2921.26,-571.42 2924.74,-581.43 2928.26,-571.43 2921.26,-571.42"/>
</g>
<!-- resources/receiver.r.ts&#45;&gt;util/settable.ts -->
<g id="edge42" class="edge">
<title>resources/receiver.r.ts&#45;&gt;util/settable.ts</title>
<path fill="none" stroke="#757575" d="M908.14,-147.76C1003.13,-145.09 1168.31,-141.12 1310,-141.12 1310,-141.12 1310,-141.12 2375.5,-141.12 2576.86,-141.12 2653.71,-217.39 2752,-393.12 2800.58,-479.98 2753.83,-520.66 2788,-614.12 2818.5,-697.56 2880.35,-784.48 2909.13,-822.43"/>
<polygon fill="#757575" stroke="#757575" points="2906.52,-824.78 2915.38,-830.59 2912.07,-820.52 2906.52,-824.78"/>
</g>
<!-- resources/receiver.r.ts&#45;&gt;resources/frontend&#45;update.ts -->
<g id="edge40" class="edge">
<title>resources/receiver.r.ts&#45;&gt;resources/frontend&#45;update.ts</title>
<path fill="none" stroke="#757575" d="M838.7,-161.77C872.41,-206.87 994.63,-370.37 1037.23,-427.36"/>
<polygon fill="#757575" stroke="#757575" points="1034.57,-429.65 1043.36,-435.56 1040.17,-425.46 1034.57,-429.65"/>
</g>
<!-- resources/sender.r.ts -->
<g id="node24" class="node">
<title>resources/sender.r.ts</title>
<path fill="none" stroke="#c6c5fe" d="M166.83,-1053.62C166.83,-1053.62 30.17,-1053.62 30.17,-1053.62 26.33,-1053.62 22.5,-1049.79 22.5,-1045.96 22.5,-1045.96 22.5,-1038.29 22.5,-1038.29 22.5,-1034.46 26.33,-1030.62 30.17,-1030.62 30.17,-1030.62 166.83,-1030.62 166.83,-1030.62 170.67,-1030.62 174.5,-1034.46 174.5,-1038.29 174.5,-1038.29 174.5,-1045.96 174.5,-1045.96 174.5,-1049.79 170.67,-1053.62 166.83,-1053.62"/>
<text text-anchor="middle" x="98.5" y="-1038.42" font-family="Arial" font-size="14.00" fill="#c6c5fe">resources/sender.r.ts</text>
</g>
<!-- resources/sender.r.ts&#45;&gt;models/battery.ts -->
<g id="edge43" class="edge">
<title>resources/sender.r.ts&#45;&gt;models/battery.ts</title>
<path fill="none" stroke="#757575" d="M174.5,-1037.26C272.35,-1031.34 448.9,-1022.12 600,-1022.12 600,-1022.12 600,-1022.12 1312,-1022.12 1426.36,-1022.12 1559.15,-1021.71 1639.05,-1021.41"/>
<polygon fill="#757575" stroke="#757575" points="1639.5,-1024.91 1649.48,-1021.37 1639.47,-1017.91 1639.5,-1024.91"/>
</g>
<!-- resources/sender.r.ts&#45;&gt;models/transformation.ts -->
<g id="edge47" class="edge">
<title>resources/sender.r.ts&#45;&gt;models/transformation.ts</title>
<path fill="none" stroke="#757575" d="M152.24,-1053.66C176.71,-1058.68 206.24,-1064.29 233,-1068.12 395.15,-1091.37 436.19,-1102.12 600,-1102.12 600,-1102.12 600,-1102.12 1535.5,-1102.12 1648.04,-1102.12 1681.56,-1119.68 1788,-1083.12 1920.32,-1037.67 2050.69,-926.2 2099.18,-881.81"/>
<polygon fill="#757575" stroke="#757575" points="2101.79,-884.16 2106.76,-874.8 2097.04,-879.02 2101.79,-884.16"/>
</g>
<!-- resources/sender.r.ts&#45;&gt;util/express&#45;db&#45;wrapper.ts -->
<g id="edge51" class="edge">
<title>resources/sender.r.ts&#45;&gt;util/express&#45;db&#45;wrapper.ts</title>
<path fill="none" stroke="#757575" d="M173.38,-1053.63C181.57,-1056.18 189.62,-1059.31 197,-1063.12 216.28,-1073.09 213.28,-1087.06 233,-1096.12 382.28,-1164.7 435.72,-1140.12 600,-1140.12 600,-1140.12 600,-1140.12 1535.5,-1140.12 1973.06,-1140.12 2106.9,-1106.11 2488,-891.12 2506.65,-880.61 2504.61,-868.2 2524,-859.12 2528.6,-856.97 2533.41,-855.08 2538.34,-853.42"/>
<polygon fill="#757575" stroke="#757575" points="2539.4,-856.75 2547.95,-850.49 2537.36,-850.05 2539.4,-856.75"/>
</g>
<!-- resources/sender.r.ts&#45;&gt;models/event.ts -->
<g id="edge44" class="edge">
<title>resources/sender.r.ts&#45;&gt;models/event.ts</title>
<path fill="none" stroke="#757575" d="M174.51,-1046.75C272.36,-1052.37 448.92,-1061.12 600,-1061.12 600,-1061.12 600,-1061.12 1312,-1061.12 1428.18,-1061.12 1563.39,-1061.55 1642.83,-1061.85"/>
<polygon fill="#757575" stroke="#757575" points="1643.17,-1065.35 1653.18,-1061.89 1643.2,-1058.35 1643.17,-1065.35"/>
</g>
<!-- resources/sender.r.ts&#45;&gt;util/log.ts -->
<g id="edge53" class="edge">
<title>resources/sender.r.ts&#45;&gt;util/log.ts</title>
<path fill="none" stroke="#757575" d="M174.97,-1051.14C182.88,-1054.14 190.42,-1058.05 197,-1063.12 225.02,-1084.73 204.01,-1113.84 233,-1134.12 367.61,-1228.29 435.72,-1178.12 600,-1178.12 600,-1178.12 600,-1178.12 2375.5,-1178.12 2582.19,-1178.12 2622.62,-1066.32 2752,-905.12 2777.17,-873.77 2769.67,-857.91 2788,-822.12 2828.83,-742.42 2885.92,-652.38 2911.36,-613.16"/>
<polygon fill="#757575" stroke="#757575" points="2914.32,-615.03 2916.85,-604.74 2908.46,-611.21 2914.32,-615.03"/>
</g>
<!-- resources/sender.r.ts&#45;&gt;util/settable.ts -->
<g id="edge54" class="edge">
<title>resources/sender.r.ts&#45;&gt;util/settable.ts</title>
<path fill="none" stroke="#757575" d="M174.57,-1049.31C182.83,-1052.59 190.57,-1057.07 197,-1063.12 240.33,-1103.93 186.79,-1154.6 233,-1192.12 296.45,-1243.64 518.27,-1216.12 600,-1216.12 600,-1216.12 600,-1216.12 2375.5,-1216.12 2459.34,-1216.12 2687.13,-1245.23 2752,-1192.12 2799.72,-1153.06 2763.25,-1114.61 2788,-1058.12 2821.96,-980.64 2881.07,-898.73 2909.02,-861.99"/>
<polygon fill="#757575" stroke="#757575" points="2911.8,-864.11 2915.11,-854.05 2906.25,-859.85 2911.8,-864.11"/>
</g>
<!-- resources/sender.r.ts&#45;&gt;models/sender.ts -->
<g id="edge45" class="edge">
<title>resources/sender.r.ts&#45;&gt;models/sender.ts</title>
<path fill="none" stroke="#757575" d="M137.1,-1030.6C163.64,-1022.95 200.17,-1013.38 233,-1008.12 394.43,-982.29 436.51,-983.12 600,-983.12 600,-983.12 600,-983.12 1054,-983.12 1224.83,-983.12 1279.09,-993.25 1433,-919.12 1468.02,-902.26 1499.88,-869.43 1517.95,-848.43"/>
<polygon fill="#757575" stroke="#757575" points="1520.64,-850.67 1524.39,-840.76 1515.28,-846.16 1520.64,-850.67"/>
</g>
<!-- resources/sender.r.ts&#45;&gt;models/timer.ts -->
<g id="edge46" class="edge">
<title>resources/sender.r.ts&#45;&gt;models/timer.ts</title>
<path fill="none" stroke="#757575" d="M123.49,-1030.47C150.12,-1017.61 194.42,-996.45 233,-979.12 761.96,-741.57 916.22,-730.12 1433,-467.12 1458.91,-453.94 1487.26,-436.75 1507.22,-424.15"/>
<polygon fill="#757575" stroke="#757575" points="1509.2,-427.03 1515.76,-418.71 1505.44,-421.13 1509.2,-427.03"/>
</g>
<!-- resources/sender.r.ts&#45;&gt;resources/frontend&#45;update.ts -->
<g id="edge48" class="edge">
<title>resources/sender.r.ts&#45;&gt;resources/frontend&#45;update.ts</title>
<path fill="none" stroke="#757575" d="M104.44,-1030.28C119.28,-995.95 166.53,-894.96 233,-834.12 407.66,-674.27 543.01,-759.8 705,-587.12 731.95,-558.39 710.12,-530.59 741,-506.12 758.17,-492.52 874.58,-472.98 959.96,-460.17"/>
<polygon fill="#757575" stroke="#757575" points="960.58,-463.62 969.95,-458.68 959.54,-456.69 960.58,-463.62"/>
</g>
<!-- resources/sender.r.ts&#45;&gt;services/sender&#45;loader.ts -->
<g id="edge49" class="edge">
<title>resources/sender.r.ts&#45;&gt;services/sender&#45;loader.ts</title>
<path fill="none" stroke="#757575" d="M116.9,-1030.6C141.69,-1014.65 189.08,-985.91 233,-969.12 584.11,-834.91 1027.97,-758.61 1217.45,-730.13"/>
<polygon fill="#757575" stroke="#757575" points="1218,-733.58 1227.38,-728.64 1216.97,-726.66 1218,-733.58"/>
</g>
<!-- services/sender&#45;trigger&#45;service.ts -->
<g id="node25" class="node">
<title>services/sender&#45;trigger&#45;service.ts</title>
<path fill="none" stroke="#c6c5fe" d="M453.33,-577.62C453.33,-577.62 240.67,-577.62 240.67,-577.62 236.83,-577.62 233,-573.79 233,-569.96 233,-569.96 233,-562.29 233,-562.29 233,-558.46 236.83,-554.62 240.67,-554.62 240.67,-554.62 453.33,-554.62 453.33,-554.62 457.17,-554.62 461,-558.46 461,-562.29 461,-562.29 461,-569.96 461,-569.96 461,-573.79 457.17,-577.62 453.33,-577.62"/>
<text text-anchor="middle" x="347" y="-562.42" font-family="Arial" font-size="14.00" fill="#c6c5fe">services/sender&#45;trigger&#45;service.ts</text>
</g>
<!-- resources/sender.r.ts&#45;&gt;services/sender&#45;trigger&#45;service.ts -->
<g id="edge50" class="edge">
<title>resources/sender.r.ts&#45;&gt;services/sender&#45;trigger&#45;service.ts</title>
<path fill="none" stroke="#757575" d="M104.47,-1030.58C121.32,-991.62 178.32,-861.71 233,-758.12 266.67,-694.34 311.24,-621.61 332.97,-586.81"/>
<polygon fill="#757575" stroke="#757575" points="336.12,-588.37 338.47,-578.03 330.19,-584.65 336.12,-588.37"/>
</g>
<!-- resources/sender.r.ts&#45;&gt;util/express&#45;util.ts/response&#45;code&#45;error.ts -->
<g id="edge52" class="edge">
<title>resources/sender.r.ts&#45;&gt;util/express&#45;util.ts/response&#45;code&#45;error.ts</title>
<path fill="none" stroke="#757575" d="M174.92,-1048.94C183.13,-1052.29 190.76,-1056.88 197,-1063.12 250.69,-1116.81 175.51,-1180.52 233,-1230.12 356.76,-1336.91 436.54,-1254.12 600,-1254.12 600,-1254.12 600,-1254.12 2375.5,-1254.12 2543.17,-1254.12 2597.11,-1294.33 2752,-1230.12 2821.73,-1201.22 2882.57,-1132.08 2909.6,-1097.92"/>
<polygon fill="#757575" stroke="#757575" points="2912.65,-1099.7 2916.02,-1089.65 2907.12,-1095.4 2912.65,-1099.7"/>
</g>
<!-- services/sender&#45;trigger&#45;service.ts&#45;&gt;models/connection&#45;response.d.ts -->
<g id="edge70" class="edge">
<title>services/sender&#45;trigger&#45;service.ts&#45;&gt;models/connection&#45;response.d.ts</title>
<path fill="none" stroke="#757575" d="M353.64,-554.59C383.42,-495.28 528.97,-223.6 741,-129.12 981.74,-21.85 1859.24,-179.12 1900.5,-179.12 1900.5,-179.12 1900.5,-179.12 2121,-179.12 2287.57,-179.12 2342.71,-173.66 2488,-255.12 2492.13,-257.44 2580.84,-353.28 2619.38,-395.02"/>
<polygon fill="#757575" stroke="#757575" points="2616.82,-397.41 2626.17,-402.38 2621.96,-392.66 2616.82,-397.41"/>
</g>
<!-- services/sender&#45;trigger&#45;service.ts&#45;&gt;models/transformation.ts -->
<g id="edge72" class="edge">
<title>services/sender&#45;trigger&#45;service.ts&#45;&gt;models/transformation.ts</title>
<path fill="none" stroke="#757575" d="M452.42,-577.75C455.4,-579.36 458.27,-581.15 461,-583.12 489.68,-603.84 470.44,-630.75 497,-654.12 784.92,-907.43 926.52,-943.12 1310,-943.12 1310,-943.12 1310,-943.12 1535.5,-943.12 1728.41,-943.12 1953.89,-899.67 2059.17,-876.82"/>
<polygon fill="#757575" stroke="#757575" points="2059.95,-880.23 2068.97,-874.67 2058.46,-873.39 2059.95,-880.23"/>
</g>
<!-- services/sender&#45;trigger&#45;service.ts&#45;&gt;models/sender.ts -->
<g id="edge71" class="edge">
<title>services/sender&#45;trigger&#45;service.ts&#45;&gt;models/sender.ts</title>
<path fill="none" stroke="#757575" d="M384.9,-577.65C501.62,-613.69 873.7,-725.48 1189,-786.12 1282.08,-804.03 1390.81,-816.16 1460.83,-822.86"/>
<polygon fill="#757575" stroke="#757575" points="1460.59,-826.35 1470.88,-823.81 1461.25,-819.38 1460.59,-826.35"/>
</g>
<!-- services/connection&#45;service.ts -->
<g id="node28" class="node">
<title>services/connection&#45;service.ts</title>
<path fill="none" stroke="#c6c5fe" d="M697.33,-577.62C697.33,-577.62 504.67,-577.62 504.67,-577.62 500.83,-577.62 497,-573.79 497,-569.96 497,-569.96 497,-562.29 497,-562.29 497,-558.46 500.83,-554.62 504.67,-554.62 504.67,-554.62 697.33,-554.62 697.33,-554.62 701.17,-554.62 705,-558.46 705,-562.29 705,-562.29 705,-569.96 705,-569.96 705,-573.79 701.17,-577.62 697.33,-577.62"/>
<text text-anchor="middle" x="601" y="-562.42" font-family="Arial" font-size="14.00" fill="#c6c5fe">services/connection&#45;service.ts</text>
</g>
<!-- services/sender&#45;trigger&#45;service.ts&#45;&gt;services/connection&#45;service.ts -->
<g id="edge73" class="edge">
<title>services/sender&#45;trigger&#45;service.ts&#45;&gt;services/connection&#45;service.ts</title>
<path fill="none" stroke="#757575" d="M461.1,-566.12C469.66,-566.12 478.3,-566.12 486.85,-566.12"/>
<polygon fill="#757575" stroke="#757575" points="486.86,-569.62 496.86,-566.12 486.86,-562.62 486.86,-569.62"/>
</g>
<!-- services/timer&#45;factory.ts -->
<g id="node29" class="node">
<title>services/timer&#45;factory.ts</title>
<path fill="none" stroke="#c6c5fe" d="M904.83,-457.62C904.83,-457.62 753.17,-457.62 753.17,-457.62 749.33,-457.62 745.5,-453.79 745.5,-449.96 745.5,-449.96 745.5,-442.29 745.5,-442.29 745.5,-438.46 749.33,-434.62 753.17,-434.62 753.17,-434.62 904.83,-434.62 904.83,-434.62 908.67,-434.62 912.5,-438.46 912.5,-442.29 912.5,-442.29 912.5,-449.96 912.5,-449.96 912.5,-453.79 908.67,-457.62 904.83,-457.62"/>
<text text-anchor="middle" x="829" y="-442.42" font-family="Arial" font-size="14.00" fill="#c6c5fe">services/timer&#45;factory.ts</text>
</g>
<!-- services/sender&#45;trigger&#45;service.ts&#45;&gt;services/timer&#45;factory.ts -->
<g id="edge74" class="edge">
<title>services/sender&#45;trigger&#45;service.ts&#45;&gt;services/timer&#45;factory.ts</title>
<path fill="none" stroke="#757575" d="M394.02,-554.62C482.52,-532.49 676.12,-484.09 771.96,-460.13"/>
<polygon fill="#757575" stroke="#757575" points="772.91,-463.5 781.76,-457.68 771.21,-456.71 772.91,-463.5"/>
</g>
<!-- resources/transformation.r.ts -->
<g id="node27" class="node">
<title>resources/transformation.r.ts</title>
<path fill="none" stroke="#cfffac" d="M189.33,-1135.62C189.33,-1135.62 7.67,-1135.62 7.67,-1135.62 3.83,-1135.62 0,-1131.79 0,-1127.96 0,-1127.96 0,-1120.29 0,-1120.29 0,-1116.46 3.83,-1112.62 7.67,-1112.62 7.67,-1112.62 189.33,-1112.62 189.33,-1112.62 193.17,-1112.62 197,-1116.46 197,-1120.29 197,-1120.29 197,-1127.96 197,-1127.96 197,-1131.79 193.17,-1135.62 189.33,-1135.62"/>
<text text-anchor="middle" x="98.5" y="-1120.42" font-family="Arial" font-size="14.00" fill="#cfffac">resources/transformation.r.ts</text>
</g>
<!-- services/connection&#45;service.ts&#45;&gt;models/connection&#45;response.d.ts -->
<g id="edge57" class="edge">
<title>services/connection&#45;service.ts&#45;&gt;models/connection&#45;response.d.ts</title>
<path fill="none" stroke="#757575" d="M610.3,-554.34C629.89,-527.39 681.85,-460.83 741,-425.12 864.63,-350.51 907.6,-331.12 1052,-331.12 1052,-331.12 1052,-331.12 2121,-331.12 2285.18,-331.12 2326.82,-341.92 2488,-373.12 2523.11,-379.92 2562.05,-390.75 2591.31,-399.58"/>
<polygon fill="#757575" stroke="#757575" points="2590.65,-403.04 2601.24,-402.61 2592.69,-396.34 2590.65,-403.04"/>
</g>
<!-- services/connection&#45;service.ts&#45;&gt;models/connection.ts -->
<g id="edge58" class="edge">
<title>services/connection&#45;service.ts&#45;&gt;models/connection.ts</title>
<path fill="none" stroke="#757575" d="M704.77,-577.64C716.97,-578.67 729.25,-579.53 741,-580.12 819.12,-584.05 838.78,-580.7 917,-580.12 1220.58,-577.9 1297.07,-590.03 1600,-570.12 1608.35,-569.58 1617.04,-568.84 1625.71,-568"/>
<polygon fill="#757575" stroke="#757575" points="1626.27,-571.47 1635.86,-566.97 1625.56,-564.5 1626.27,-571.47"/>
</g>
<!-- services/connection&#45;service.ts&#45;&gt;models/receiver&#45;data.ts -->
<g id="edge59" class="edge">
<title>services/connection&#45;service.ts&#45;&gt;models/receiver&#45;data.ts</title>
<path fill="none" stroke="#757575" d="M705.12,-560.23C910.97,-549.22 1387.52,-527.45 1788,-537.12 1868.97,-539.08 1960.98,-543.72 2027.4,-547.51"/>
<polygon fill="#757575" stroke="#757575" points="2027.24,-551 2037.42,-548.08 2027.64,-544.01 2027.24,-551"/>
</g>
<!-- services/connection&#45;service.ts&#45;&gt;models/transformation.ts -->
<g id="edge60" class="edge">
<title>services/connection&#45;service.ts&#45;&gt;models/transformation.ts</title>
<path fill="none" stroke="#757575" d="M705.23,-570.75C986.07,-583.73 1745.79,-621.77 1788,-655.12 1829.36,-687.8 1786.79,-730.8 1824,-768.12 1856.4,-800.63 1976.61,-832 2053.22,-849.31"/>
<polygon fill="#757575" stroke="#757575" points="2052.74,-852.79 2063.26,-851.56 2054.27,-845.96 2052.74,-852.79"/>
</g>
<!-- services/connection&#45;service.ts&#45;&gt;services/timer&#45;factory.ts -->
<g id="edge61" class="edge">
<title>services/connection&#45;service.ts&#45;&gt;services/timer&#45;factory.ts</title>
<path fill="none" stroke="#757575" d="M621.33,-554.47C642.29,-541.66 676.56,-520.23 705,-500.12 721.55,-488.42 722.98,-481.41 741,-472.12 749.53,-467.73 758.92,-463.96 768.28,-460.76"/>
<polygon fill="#757575" stroke="#757575" points="769.54,-464.03 777.99,-457.63 767.39,-457.36 769.54,-464.03"/>
</g>
<!-- services/timer&#45;factory.ts&#45;&gt;models/connection&#45;response.d.ts -->
<g id="edge75" class="edge">
<title>services/timer&#45;factory.ts&#45;&gt;models/connection&#45;response.d.ts</title>
<path fill="none" stroke="#757575" d="M853.97,-434.61C942.17,-393.31 1257.92,-255.12 1533.5,-255.12 1533.5,-255.12 1533.5,-255.12 2121,-255.12 2286.42,-255.12 2333.91,-256.96 2488,-317.12 2537.51,-336.45 2587.83,-373.66 2615.47,-395.96"/>
<polygon fill="#757575" stroke="#757575" points="2613.33,-398.73 2623.29,-402.36 2617.77,-393.32 2613.33,-398.73"/>
</g>
<!-- services/timer&#45;factory.ts&#45;&gt;models/timer.ts -->
<g id="edge76" class="edge">
<title>services/timer&#45;factory.ts&#45;&gt;models/timer.ts</title>
<path fill="none" stroke="#757575" d="M894.65,-434.6C913.43,-431.53 933.99,-428.43 953,-426.12 1057.46,-413.45 1083.86,-411.35 1189,-407.12 1285.63,-403.24 1397.64,-404.26 1467.04,-405.54"/>
<polygon fill="#757575" stroke="#757575" points="1467.32,-409.05 1477.38,-405.74 1467.45,-402.05 1467.32,-409.05"/>
</g>
<!-- services/timer&#45;factory.ts&#45;&gt;resources/frontend&#45;update.ts -->
<g id="edge77" class="edge">
<title>services/timer&#45;factory.ts&#45;&gt;resources/frontend&#45;update.ts</title>
<path fill="none" stroke="#757575" d="M912.66,-446.5C922.47,-446.54 932.58,-446.59 942.68,-446.63"/>
<polygon fill="#757575" stroke="#757575" points="942.74,-450.13 952.76,-446.68 942.77,-443.13 942.74,-450.13"/>
</g>
<!-- services/event&#45;scheduler.ts -->
<g id="node30" class="node">
<title>services/event&#45;scheduler.ts</title>
<path fill="none" stroke="#c6c5fe" d="M185.83,-266.62C185.83,-266.62 11.17,-266.62 11.17,-266.62 7.33,-266.62 3.5,-262.79 3.5,-258.96 3.5,-258.96 3.5,-251.29 3.5,-251.29 3.5,-247.46 7.33,-243.62 11.17,-243.62 11.17,-243.62 185.83,-243.62 185.83,-243.62 189.67,-243.62 193.5,-247.46 193.5,-251.29 193.5,-251.29 193.5,-258.96 193.5,-258.96 193.5,-262.79 189.67,-266.62 185.83,-266.62"/>
<text text-anchor="middle" x="98.5" y="-251.42" font-family="Arial" font-size="14.00" fill="#c6c5fe">services/event&#45;scheduler.ts</text>
</g>
<!-- services/event&#45;scheduler.ts&#45;&gt;models/connection.ts -->
<g id="edge62" class="edge">
<title>services/event&#45;scheduler.ts&#45;&gt;models/connection.ts</title>
<path fill="none" stroke="#757575" d="M173.84,-243.6C380.06,-214.55 974.31,-150.76 1433,-299.12 1512.63,-324.88 1538.07,-329.84 1600,-386.12 1648.87,-430.54 1685.47,-501.05 1701.72,-536.02"/>
<polygon fill="#757575" stroke="#757575" points="1698.61,-537.62 1705.93,-545.28 1704.98,-534.73 1698.61,-537.62"/>
</g>
<!-- services/event&#45;scheduler.ts&#45;&gt;util/log.ts -->
<g id="edge66" class="edge">
<title>services/event&#45;scheduler.ts&#45;&gt;util/log.ts</title>
<path fill="none" stroke="#757575" d="M113.17,-243.5C169.3,-197.04 388.98,-27.12 600,-27.12 600,-27.12 600,-27.12 2375.5,-27.12 2543.3,-27.12 2620.21,48.73 2752,-55.12 2921.04,-188.33 2927.03,-488.41 2925.3,-571.46"/>
<polygon fill="#757575" stroke="#757575" points="2921.8,-571.41 2925.02,-581.5 2928.79,-571.6 2921.8,-571.41"/>
</g>
<!-- services/event&#45;scheduler.ts&#45;&gt;models/sender.ts -->
<g id="edge63" class="edge">
<title>services/event&#45;scheduler.ts&#45;&gt;models/sender.ts</title>
<path fill="none" stroke="#757575" d="M101.26,-266.94C108.74,-313.32 141.74,-485.38 233,-587.12 433.21,-810.33 528.16,-905.12 828,-905.12 828,-905.12 828,-905.12 1054,-905.12 1210.63,-905.12 1392.54,-865.07 1480.49,-843.12"/>
<polygon fill="#757575" stroke="#757575" points="1481.39,-846.5 1490.23,-840.67 1479.68,-839.72 1481.39,-846.5"/>
</g>
<!-- services/event&#45;scheduler.ts&#45;&gt;models/timer.ts -->
<g id="edge64" class="edge">
<title>services/event&#45;scheduler.ts&#45;&gt;models/timer.ts</title>
<path fill="none" stroke="#757575" d="M193.59,-255.12C294.19,-255.12 458.37,-255.12 600,-255.12 600,-255.12 600,-255.12 830,-255.12 1087.53,-255.12 1386.37,-353.64 1493.09,-392.05"/>
<polygon fill="#757575" stroke="#757575" points="1492.21,-395.46 1502.81,-395.57 1494.6,-388.88 1492.21,-395.46"/>
</g>
<!-- services/event&#45;scheduler.ts&#45;&gt;services/sender&#45;trigger&#45;service.ts -->
<g id="edge65" class="edge">
<title>services/event&#45;scheduler.ts&#45;&gt;services/sender&#45;trigger&#45;service.ts</title>
<path fill="none" stroke="#757575" d="M108.86,-266.94C146,-313.79 283.21,-486.91 330.14,-546.12"/>
<polygon fill="#757575" stroke="#757575" points="327.67,-548.64 336.63,-554.3 333.16,-544.29 327.67,-548.64"/>
</g>
<!-- util/tsc&#45;compiler.ts&#45;&gt;util/log.ts -->
<g id="edge84" class="edge">
<title>util/tsc&#45;compiler.ts&#45;&gt;util/log.ts</title>
<path fill="none" stroke="#757575" d="M1558.43,-685.45C1578.41,-675.8 1608.42,-662.51 1636,-655.12 1845.06,-599.12 1902.57,-593.12 2119,-593.12 2119,-593.12 2119,-593.12 2375.5,-593.12 2562.49,-593.12 2785.31,-593.12 2879.22,-593.12"/>
<polygon fill="#757575" stroke="#757575" points="2879.5,-596.62 2889.5,-593.12 2879.5,-589.62 2879.5,-596.62"/>
</g>
<!-- util/file.ts -->
<g id="node33" class="node">
<title>util/file.ts</title>
<path fill="none" stroke="#cfffac" d="M1739.83,-686.62C1739.83,-686.62 1684.17,-686.62 1684.17,-686.62 1680.33,-686.62 1676.5,-682.79 1676.5,-678.96 1676.5,-678.96 1676.5,-671.29 1676.5,-671.29 1676.5,-667.46 1680.33,-663.62 1684.17,-663.62 1684.17,-663.62 1739.83,-663.62 1739.83,-663.62 1743.67,-663.62 1747.5,-667.46 1747.5,-671.29 1747.5,-671.29 1747.5,-678.96 1747.5,-678.96 1747.5,-682.79 1743.67,-686.62 1739.83,-686.62"/>
<text text-anchor="middle" x="1712" y="-671.42" font-family="Arial" font-size="14.00" fill="#cfffac">util/file.ts</text>
</g>
<!-- util/tsc&#45;compiler.ts&#45;&gt;util/file.ts -->
<g id="edge83" class="edge">
<title>util/tsc&#45;compiler.ts&#45;&gt;util/file.ts</title>
<path fill="none" stroke="#757575" d="M1600.35,-688.99C1622.3,-686.24 1646.31,-683.23 1666.33,-680.72"/>
<polygon fill="#757575" stroke="#757575" points="1666.92,-684.18 1676.41,-679.46 1666.05,-677.23 1666.92,-684.18"/>
</g>
</g>
</svg>
