<?xml version="1.0" encoding="UTF-8" standalone="no"?>
<!DOCTYPE svg PUBLIC "-//W3C//DTD SVG 1.1//EN"
 "http://www.w3.org/Graphics/SVG/1.1/DTD/svg11.dtd">
<!-- Generated by graphviz version 5.0.1 (20220820.1526)
 -->
<!-- Title: G Pages: 1 -->
<svg width="2908pt" height="1767pt"
 viewBox="0.00 0.00 2908.20 1767.28" xmlns="http://www.w3.org/2000/svg" xmlns:xlink="http://www.w3.org/1999/xlink">
<g id="graph0" class="graph" transform="scale(1 1) rotate(0) translate(21.6 1745.68)">
<title>G</title>
<polygon fill="#111111" stroke="none" points="-21.6,21.6 -21.6,-1745.68 2886.6,-1745.68 2886.6,21.6 -21.6,21.6"/>
<!-- environment.ts -->
<g id="node1" class="node">
<title>environment.ts</title>
<path fill="none" stroke="#cfffac" d="M2546.33,-304.08C2546.33,-304.08 2452.67,-304.08 2452.67,-304.08 2448.83,-304.08 2445,-300.24 2445,-296.41 2445,-296.41 2445,-288.74 2445,-288.74 2445,-284.91 2448.83,-281.08 2452.67,-281.08 2452.67,-281.08 2546.33,-281.08 2546.33,-281.08 2550.17,-281.08 2554,-284.91 2554,-288.74 2554,-288.74 2554,-296.41 2554,-296.41 2554,-300.24 2550.17,-304.08 2546.33,-304.08"/>
<text text-anchor="middle" x="2499.5" y="-288.88" font-family="Arial" font-size="14.00" fill="#cfffac">environment.ts</text>
</g>
<!-- models/action.ts -->
<g id="node2" class="node">
<title>models/action.ts</title>
<path fill="none" stroke="#cfffac" d="M2297.33,-1005.08C2297.33,-1005.08 2192.67,-1005.08 2192.67,-1005.08 2188.83,-1005.08 2185,-1001.24 2185,-997.41 2185,-997.41 2185,-989.74 2185,-989.74 2185,-985.91 2188.83,-982.08 2192.67,-982.08 2192.67,-982.08 2297.33,-982.08 2297.33,-982.08 2301.17,-982.08 2305,-985.91 2305,-989.74 2305,-989.74 2305,-997.41 2305,-997.41 2305,-1001.24 2301.17,-1005.08 2297.33,-1005.08"/>
<text text-anchor="middle" x="2245" y="-989.88" font-family="Arial" font-size="14.00" fill="#cfffac">models/action.ts</text>
</g>
<!-- models/battery.ts -->
<g id="node3" class="node">
<title>models/battery.ts</title>
<path fill="none" stroke="#cfffac" d="M1670.83,-463.08C1670.83,-463.08 1561.17,-463.08 1561.17,-463.08 1557.33,-463.08 1553.5,-459.24 1553.5,-455.41 1553.5,-455.41 1553.5,-447.74 1553.5,-447.74 1553.5,-443.91 1557.33,-440.08 1561.17,-440.08 1561.17,-440.08 1670.83,-440.08 1670.83,-440.08 1674.67,-440.08 1678.5,-443.91 1678.5,-447.74 1678.5,-447.74 1678.5,-455.41 1678.5,-455.41 1678.5,-459.24 1674.67,-463.08 1670.83,-463.08"/>
<text text-anchor="middle" x="1616" y="-447.88" font-family="Arial" font-size="14.00" fill="#cfffac">models/battery.ts</text>
</g>
<!-- models/connection&#45;response.ts -->
<g id="node4" class="node">
<title>models/connection&#45;response.ts</title>
<path fill="none" stroke="#cfffac" d="M2857.33,-1040.08C2857.33,-1040.08 2656.67,-1040.08 2656.67,-1040.08 2652.83,-1040.08 2649,-1036.24 2649,-1032.41 2649,-1032.41 2649,-1024.74 2649,-1024.74 2649,-1020.91 2652.83,-1017.08 2656.67,-1017.08 2656.67,-1017.08 2857.33,-1017.08 2857.33,-1017.08 2861.17,-1017.08 2865,-1020.91 2865,-1024.74 2865,-1024.74 2865,-1032.41 2865,-1032.41 2865,-1036.24 2861.17,-1040.08 2857.33,-1040.08"/>
<text text-anchor="middle" x="2757" y="-1024.88" font-family="Arial" font-size="14.00" fill="#cfffac">models/connection&#45;response.ts</text>
</g>
<!-- models/connection.ts -->
<g id="node5" class="node">
<title>models/connection.ts</title>
<path fill="none" stroke="#c6c5fe" d="M1684.33,-899.08C1684.33,-899.08 1547.67,-899.08 1547.67,-899.08 1543.83,-899.08 1540,-895.24 1540,-891.41 1540,-891.41 1540,-883.74 1540,-883.74 1540,-879.91 1543.83,-876.08 1547.67,-876.08 1547.67,-876.08 1684.33,-876.08 1684.33,-876.08 1688.17,-876.08 1692,-879.91 1692,-883.74 1692,-883.74 1692,-891.41 1692,-891.41 1692,-895.24 1688.17,-899.08 1684.33,-899.08"/>
<text text-anchor="middle" x="1616" y="-883.88" font-family="Arial" font-size="14.00" fill="#c6c5fe">models/connection.ts</text>
</g>
<!-- models/receiver&#45;data.ts -->
<g id="node6" class="node">
<title>models/receiver&#45;data.ts</title>
<path fill="none" stroke="#c6c5fe" d="M2319.83,-1128.08C2319.83,-1128.08 2170.17,-1128.08 2170.17,-1128.08 2166.33,-1128.08 2162.5,-1124.24 2162.5,-1120.41 2162.5,-1120.41 2162.5,-1112.74 2162.5,-1112.74 2162.5,-1108.91 2166.33,-1105.08 2170.17,-1105.08 2170.17,-1105.08 2319.83,-1105.08 2319.83,-1105.08 2323.67,-1105.08 2327.5,-1108.91 2327.5,-1112.74 2327.5,-1112.74 2327.5,-1120.41 2327.5,-1120.41 2327.5,-1124.24 2323.67,-1128.08 2319.83,-1128.08"/>
<text text-anchor="middle" x="2245" y="-1112.88" font-family="Arial" font-size="14.00" fill="#c6c5fe">models/receiver&#45;data.ts</text>
</g>
<!-- models/connection.ts&#45;&gt;models/receiver&#45;data.ts -->
<g id="edge1" class="edge">
<title>models/connection.ts&#45;&gt;models/receiver&#45;data.ts</title>
<path fill="none" stroke="#757575" d="M1631.76,-899.34C1659.85,-921.19 1723.58,-968.31 1784,-995.58 1909.27,-1052.12 2066.09,-1086.28 2160.48,-1103.27"/>
<polygon fill="#757575" stroke="#757575" points="2160.09,-1106.76 2170.55,-1105.06 2161.31,-1099.86 2160.09,-1106.76"/>
</g>
<!-- models/receiver.ts -->
<g id="node7" class="node">
<title>models/receiver.ts</title>
<path fill="none" stroke="#c6c5fe" d="M2003.33,-987.08C2003.33,-987.08 1884.67,-987.08 1884.67,-987.08 1880.83,-987.08 1877,-983.24 1877,-979.41 1877,-979.41 1877,-971.74 1877,-971.74 1877,-967.91 1880.83,-964.08 1884.67,-964.08 1884.67,-964.08 2003.33,-964.08 2003.33,-964.08 2007.17,-964.08 2011,-967.91 2011,-971.74 2011,-971.74 2011,-979.41 2011,-979.41 2011,-983.24 2007.17,-987.08 2003.33,-987.08"/>
<text text-anchor="middle" x="1944" y="-971.88" font-family="Arial" font-size="14.00" fill="#c6c5fe">models/receiver.ts</text>
</g>
<!-- models/connection.ts&#45;&gt;models/receiver.ts -->
<g id="edge2" class="edge">
<title>models/connection.ts&#45;&gt;models/receiver.ts</title>
<path fill="none" stroke="#757575" d="M1692.04,-898.89C1710.59,-902.66 1730.23,-907.5 1748,-913.58 1764.92,-919.37 1767.3,-925.16 1784,-931.58 1815.59,-943.71 1851.88,-954.02 1881.82,-961.6"/>
<polygon fill="#757575" stroke="#757575" points="1881.16,-965.04 1891.71,-964.06 1882.85,-958.25 1881.16,-965.04"/>
</g>
<!-- models/transformation.ts -->
<g id="node8" class="node">
<title>models/transformation.ts</title>
<path fill="none" stroke="#cfffac" d="M2323.83,-539.08C2323.83,-539.08 2166.17,-539.08 2166.17,-539.08 2162.33,-539.08 2158.5,-535.24 2158.5,-531.41 2158.5,-531.41 2158.5,-523.74 2158.5,-523.74 2158.5,-519.91 2162.33,-516.08 2166.17,-516.08 2166.17,-516.08 2323.83,-516.08 2323.83,-516.08 2327.67,-516.08 2331.5,-519.91 2331.5,-523.74 2331.5,-523.74 2331.5,-531.41 2331.5,-531.41 2331.5,-535.24 2327.67,-539.08 2323.83,-539.08"/>
<text text-anchor="middle" x="2245" y="-523.88" font-family="Arial" font-size="14.00" fill="#cfffac">models/transformation.ts</text>
</g>
<!-- models/connection.ts&#45;&gt;models/transformation.ts -->
<g id="edge3" class="edge">
<title>models/connection.ts&#45;&gt;models/transformation.ts</title>
<path fill="none" stroke="#757575" d="M1689.41,-899.09C1808.46,-916.4 2038.86,-942.58 2104,-897.58 2223.66,-814.92 2241.15,-615.86 2243.62,-549.51"/>
<polygon fill="#757575" stroke="#757575" points="2247.12,-549.48 2243.92,-539.38 2240.13,-549.27 2247.12,-549.48"/>
</g>
<!-- models/transformer.ts -->
<g id="node9" class="node">
<title>models/transformer.ts</title>
<path fill="none" stroke="#c6c5fe" d="M2013.83,-889.08C2013.83,-889.08 1874.17,-889.08 1874.17,-889.08 1870.33,-889.08 1866.5,-885.24 1866.5,-881.41 1866.5,-881.41 1866.5,-873.74 1866.5,-873.74 1866.5,-869.91 1870.33,-866.08 1874.17,-866.08 1874.17,-866.08 2013.83,-866.08 2013.83,-866.08 2017.67,-866.08 2021.5,-869.91 2021.5,-873.74 2021.5,-873.74 2021.5,-881.41 2021.5,-881.41 2021.5,-885.24 2017.67,-889.08 2013.83,-889.08"/>
<text text-anchor="middle" x="1944" y="-873.88" font-family="Arial" font-size="14.00" fill="#c6c5fe">models/transformer.ts</text>
</g>
<!-- models/connection.ts&#45;&gt;models/transformer.ts -->
<g id="edge4" class="edge">
<title>models/connection.ts&#45;&gt;models/transformer.ts</title>
<path fill="none" stroke="#757575" d="M1692.2,-885.27C1741.21,-883.77 1805.31,-881.8 1856.44,-880.23"/>
<polygon fill="#757575" stroke="#757575" points="1856.59,-883.73 1866.48,-879.93 1856.38,-876.73 1856.59,-883.73"/>
</g>
<!-- models/receiver&#45;data.ts&#45;&gt;models/connection&#45;response.ts -->
<g id="edge8" class="edge">
<title>models/receiver&#45;data.ts&#45;&gt;models/connection&#45;response.ts</title>
<path fill="none" stroke="#757575" d="M2312.67,-1105.07C2407.17,-1088.77 2579.62,-1059.01 2679.3,-1041.81"/>
<polygon fill="#757575" stroke="#757575" points="2680.05,-1045.23 2689.31,-1040.09 2678.86,-1038.34 2680.05,-1045.23"/>
</g>
<!-- models/evaluated&#45;data.ts -->
<g id="node10" class="node">
<title>models/evaluated&#45;data.ts</title>
<path fill="none" stroke="#c6c5fe" d="M2579.33,-1040.08C2579.33,-1040.08 2419.67,-1040.08 2419.67,-1040.08 2415.83,-1040.08 2412,-1036.24 2412,-1032.41 2412,-1032.41 2412,-1024.74 2412,-1024.74 2412,-1020.91 2415.83,-1017.08 2419.67,-1017.08 2419.67,-1017.08 2579.33,-1017.08 2579.33,-1017.08 2583.17,-1017.08 2587,-1020.91 2587,-1024.74 2587,-1024.74 2587,-1032.41 2587,-1032.41 2587,-1036.24 2583.17,-1040.08 2579.33,-1040.08"/>
<text text-anchor="middle" x="2499.5" y="-1024.88" font-family="Arial" font-size="14.00" fill="#c6c5fe">models/evaluated&#45;data.ts</text>
</g>
<!-- models/receiver&#45;data.ts&#45;&gt;models/evaluated&#45;data.ts -->
<g id="edge9" class="edge">
<title>models/receiver&#45;data.ts&#45;&gt;models/evaluated&#45;data.ts</title>
<path fill="none" stroke="#757575" d="M2327.52,-1105.22C2335.36,-1102.63 2342.99,-1099.46 2350,-1095.58 2370.35,-1084.31 2365.95,-1069.39 2386,-1057.58 2396.11,-1051.62 2407.45,-1046.87 2418.92,-1043.09"/>
<polygon fill="#757575" stroke="#757575" points="2420.02,-1046.41 2428.56,-1040.14 2417.97,-1039.72 2420.02,-1046.41"/>
</g>
<!-- models/sound.ts -->
<g id="node15" class="node">
<title>models/sound.ts</title>
<path fill="none" stroke="#cfffac" d="M2552.83,-990.08C2552.83,-990.08 2446.17,-990.08 2446.17,-990.08 2442.33,-990.08 2438.5,-986.24 2438.5,-982.41 2438.5,-982.41 2438.5,-974.74 2438.5,-974.74 2438.5,-970.91 2442.33,-967.08 2446.17,-967.08 2446.17,-967.08 2552.83,-967.08 2552.83,-967.08 2556.67,-967.08 2560.5,-970.91 2560.5,-974.74 2560.5,-974.74 2560.5,-982.41 2560.5,-982.41 2560.5,-986.24 2556.67,-990.08 2552.83,-990.08"/>
<text text-anchor="middle" x="2499.5" y="-974.88" font-family="Arial" font-size="14.00" fill="#cfffac">models/sound.ts</text>
</g>
<!-- models/receiver&#45;data.ts&#45;&gt;models/sound.ts -->
<g id="edge10" class="edge">
<title>models/receiver&#45;data.ts&#45;&gt;models/sound.ts</title>
<path fill="none" stroke="#757575" d="M2327.69,-1108.37C2335.76,-1105.2 2343.4,-1101.04 2350,-1095.58 2382.57,-1068.65 2354.16,-1035.36 2386,-1007.58 2397.91,-997.19 2413.06,-990.44 2428.36,-986.08"/>
<polygon fill="#757575" stroke="#757575" points="2429.56,-989.39 2438.4,-983.55 2427.85,-982.6 2429.56,-989.39"/>
</g>
<!-- util/types.d.ts -->
<g id="node16" class="node">
<title>util/types.d.ts</title>
<path fill="none" stroke="#cfffac" d="M2541.33,-1128.08C2541.33,-1128.08 2457.67,-1128.08 2457.67,-1128.08 2453.83,-1128.08 2450,-1124.24 2450,-1120.41 2450,-1120.41 2450,-1112.74 2450,-1112.74 2450,-1108.91 2453.83,-1105.08 2457.67,-1105.08 2457.67,-1105.08 2541.33,-1105.08 2541.33,-1105.08 2545.17,-1105.08 2549,-1108.91 2549,-1112.74 2549,-1112.74 2549,-1120.41 2549,-1120.41 2549,-1124.24 2545.17,-1128.08 2541.33,-1128.08"/>
<text text-anchor="middle" x="2499.5" y="-1112.88" font-family="Arial" font-size="14.00" fill="#cfffac">util/types.d.ts</text>
</g>
<!-- models/receiver&#45;data.ts&#45;&gt;util/types.d.ts -->
<g id="edge11" class="edge">
<title>models/receiver&#45;data.ts&#45;&gt;util/types.d.ts</title>
<path fill="none" stroke="#757575" d="M2327.63,-1116.58C2364.19,-1116.58 2406.48,-1116.58 2439.84,-1116.58"/>
<polygon fill="#757575" stroke="#757575" points="2439.89,-1120.08 2449.89,-1116.58 2439.89,-1113.08 2439.89,-1120.08"/>
</g>
<!-- models/receiver.ts&#45;&gt;models/action.ts -->
<g id="edge12" class="edge">
<title>models/receiver.ts&#45;&gt;models/action.ts</title>
<path fill="none" stroke="#757575" d="M2011.36,-979.57C2059.87,-982.49 2125.5,-986.44 2174.68,-989.41"/>
<polygon fill="#757575" stroke="#757575" points="2174.72,-992.91 2184.92,-990.02 2175.14,-985.93 2174.72,-992.91"/>
</g>
<!-- models/receiver.ts&#45;&gt;models/receiver&#45;data.ts -->
<g id="edge14" class="edge">
<title>models/receiver.ts&#45;&gt;models/receiver&#45;data.ts</title>
<path fill="none" stroke="#757575" d="M2011.33,-979.63C2042.43,-984.56 2078.22,-994.96 2104,-1016.58 2133.57,-1041.37 2109.79,-1071.58 2140,-1095.58 2144.04,-1098.79 2148.45,-1101.55 2153.09,-1103.92"/>
<polygon fill="#757575" stroke="#757575" points="2151.7,-1107.13 2162.26,-1108.01 2154.55,-1100.74 2151.7,-1107.13"/>
</g>
<!-- models/receiver.ts&#45;&gt;models/evaluated&#45;data.ts -->
<g id="edge13" class="edge">
<title>models/receiver.ts&#45;&gt;models/evaluated&#45;data.ts</title>
<path fill="none" stroke="#757575" d="M2002.39,-964.07C2082.47,-950.47 2231.25,-934.18 2350,-972.58 2368.78,-978.65 2368.17,-990.12 2386,-998.58 2399.43,-1004.95 2414.42,-1010.14 2428.98,-1014.29"/>
<polygon fill="#757575" stroke="#757575" points="2428.39,-1017.76 2438.96,-1017.01 2430.23,-1011.01 2428.39,-1017.76"/>
</g>
<!-- models/receiver&#45;event.ts -->
<g id="node17" class="node">
<title>models/receiver&#45;event.ts</title>
<path fill="none" stroke="#cfffac" d="M2323.83,-1087.08C2323.83,-1087.08 2166.17,-1087.08 2166.17,-1087.08 2162.33,-1087.08 2158.5,-1083.24 2158.5,-1079.41 2158.5,-1079.41 2158.5,-1071.74 2158.5,-1071.74 2158.5,-1067.91 2162.33,-1064.08 2166.17,-1064.08 2166.17,-1064.08 2323.83,-1064.08 2323.83,-1064.08 2327.67,-1064.08 2331.5,-1067.91 2331.5,-1071.74 2331.5,-1071.74 2331.5,-1079.41 2331.5,-1079.41 2331.5,-1083.24 2327.67,-1087.08 2323.83,-1087.08"/>
<text text-anchor="middle" x="2245" y="-1071.88" font-family="Arial" font-size="14.00" fill="#cfffac">models/receiver&#45;event.ts</text>
</g>
<!-- models/receiver.ts&#45;&gt;models/receiver&#45;event.ts -->
<g id="edge15" class="edge">
<title>models/receiver.ts&#45;&gt;models/receiver&#45;event.ts</title>
<path fill="none" stroke="#757575" d="M2011.25,-984.12C2041.1,-990.06 2075.88,-1000.01 2104,-1016.58 2124.04,-1028.39 2119.65,-1043.31 2140,-1054.58 2143.96,-1056.77 2148.12,-1058.74 2152.4,-1060.5"/>
<polygon fill="#757575" stroke="#757575" points="2151.34,-1063.84 2161.94,-1064.04 2153.78,-1057.28 2151.34,-1063.84"/>
</g>
<!-- services/firebasemessaging.ts -->
<g id="node18" class="node">
<title>services/firebasemessaging.ts</title>
<path fill="none" stroke="#cfffac" d="M2342.33,-1046.08C2342.33,-1046.08 2147.67,-1046.08 2147.67,-1046.08 2143.83,-1046.08 2140,-1042.24 2140,-1038.41 2140,-1038.41 2140,-1030.74 2140,-1030.74 2140,-1026.91 2143.83,-1023.08 2147.67,-1023.08 2147.67,-1023.08 2342.33,-1023.08 2342.33,-1023.08 2346.17,-1023.08 2350,-1026.91 2350,-1030.74 2350,-1030.74 2350,-1038.41 2350,-1038.41 2350,-1042.24 2346.17,-1046.08 2342.33,-1046.08"/>
<text text-anchor="middle" x="2245" y="-1030.88" font-family="Arial" font-size="14.00" fill="#cfffac">services/firebasemessaging.ts</text>
</g>
<!-- models/receiver.ts&#45;&gt;services/firebasemessaging.ts -->
<g id="edge16" class="edge">
<title>models/receiver.ts&#45;&gt;services/firebasemessaging.ts</title>
<path fill="none" stroke="#757575" d="M2003.36,-987.09C2052.77,-996.84 2123.67,-1010.83 2175.72,-1021.1"/>
<polygon fill="#757575" stroke="#757575" points="2175.04,-1024.54 2185.53,-1023.04 2176.4,-1017.67 2175.04,-1024.54"/>
</g>
<!-- services/websocketmessaging.ts -->
<g id="node19" class="node">
<title>services/websocketmessaging.ts</title>
<path fill="none" stroke="#c6c5fe" d="M2605.33,-947.08C2605.33,-947.08 2393.67,-947.08 2393.67,-947.08 2389.83,-947.08 2386,-943.24 2386,-939.41 2386,-939.41 2386,-931.74 2386,-931.74 2386,-927.91 2389.83,-924.08 2393.67,-924.08 2393.67,-924.08 2605.33,-924.08 2605.33,-924.08 2609.17,-924.08 2613,-927.91 2613,-931.74 2613,-931.74 2613,-939.41 2613,-939.41 2613,-943.24 2609.17,-947.08 2605.33,-947.08"/>
<text text-anchor="middle" x="2499.5" y="-931.88" font-family="Arial" font-size="14.00" fill="#c6c5fe">services/websocketmessaging.ts</text>
</g>
<!-- models/receiver.ts&#45;&gt;services/websocketmessaging.ts -->
<g id="edge17" class="edge">
<title>models/receiver.ts&#45;&gt;services/websocketmessaging.ts</title>
<path fill="none" stroke="#757575" d="M1994.36,-964.04C2033.58,-955.46 2089.97,-944.44 2140,-939.58 2218.09,-931.99 2306.2,-930.91 2375.52,-931.76"/>
<polygon fill="#757575" stroke="#757575" points="2375.56,-935.26 2385.61,-931.9 2375.66,-928.26 2375.56,-935.26"/>
</g>
<!-- util/log.ts -->
<g id="node20" class="node">
<title>util/log.ts</title>
<path fill="none" stroke="#c6c5fe" d="M2273.33,-283.08C2273.33,-283.08 2216.67,-283.08 2216.67,-283.08 2212.83,-283.08 2209,-279.24 2209,-275.41 2209,-275.41 2209,-267.74 2209,-267.74 2209,-263.91 2212.83,-260.08 2216.67,-260.08 2216.67,-260.08 2273.33,-260.08 2273.33,-260.08 2277.17,-260.08 2281,-263.91 2281,-267.74 2281,-267.74 2281,-275.41 2281,-275.41 2281,-279.24 2277.17,-283.08 2273.33,-283.08"/>
<text text-anchor="middle" x="2245" y="-267.88" font-family="Arial" font-size="14.00" fill="#c6c5fe">util/log.ts</text>
</g>
<!-- models/receiver.ts&#45;&gt;util/log.ts -->
<g id="edge18" class="edge">
<title>models/receiver.ts&#45;&gt;util/log.ts</title>
<path fill="none" stroke="#757575" d="M1997.92,-964C2033.99,-953.17 2079.49,-933.15 2104,-897.58 2153.5,-825.72 2118.06,-591.03 2140,-506.58 2161.62,-423.38 2209.61,-332.3 2232.02,-292.33"/>
<polygon fill="#757575" stroke="#757575" points="2235.25,-293.73 2237.14,-283.31 2229.16,-290.28 2235.25,-293.73"/>
</g>
<!-- models/transformer.ts&#45;&gt;models/connection&#45;response.ts -->
<g id="edge26" class="edge">
<title>models/transformer.ts&#45;&gt;models/connection&#45;response.ts</title>
<path fill="none" stroke="#757575" d="M2021.73,-867.16C2149.27,-853.01 2410.86,-837.52 2613,-914.58 2665.97,-934.77 2714.6,-982.24 2739.19,-1009.12"/>
<polygon fill="#757575" stroke="#757575" points="2736.75,-1011.64 2746.03,-1016.75 2741.96,-1006.97 2736.75,-1011.64"/>
</g>
<!-- models/transformer.ts&#45;&gt;models/transformation.ts -->
<g id="edge27" class="edge">
<title>models/transformer.ts&#45;&gt;models/transformation.ts</title>
<path fill="none" stroke="#757575" d="M2021.53,-879.97C2049.93,-877.26 2080.84,-869.64 2104,-851.58 2204.54,-773.15 2234.13,-608.15 2241.69,-549.13"/>
<polygon fill="#757575" stroke="#757575" points="2245.18,-549.44 2242.89,-539.1 2238.23,-548.61 2245.18,-549.44"/>
</g>
<!-- models/evaluated&#45;data.ts&#45;&gt;models/connection&#45;response.ts -->
<g id="edge5" class="edge">
<title>models/evaluated&#45;data.ts&#45;&gt;models/connection&#45;response.ts</title>
<path fill="none" stroke="#757575" d="M2587,-1028.58C2603.58,-1028.58 2621.2,-1028.58 2638.56,-1028.58"/>
<polygon fill="#757575" stroke="#757575" points="2638.74,-1032.08 2648.74,-1028.58 2638.74,-1025.08 2638.74,-1032.08"/>
</g>
<!-- models/event.ts -->
<g id="node11" class="node">
<title>models/event.ts</title>
<path fill="none" stroke="#cfffac" d="M1666.83,-422.08C1666.83,-422.08 1565.17,-422.08 1565.17,-422.08 1561.33,-422.08 1557.5,-418.24 1557.5,-414.41 1557.5,-414.41 1557.5,-406.74 1557.5,-406.74 1557.5,-402.91 1561.33,-399.08 1565.17,-399.08 1565.17,-399.08 1666.83,-399.08 1666.83,-399.08 1670.67,-399.08 1674.5,-402.91 1674.5,-406.74 1674.5,-406.74 1674.5,-414.41 1674.5,-414.41 1674.5,-418.24 1670.67,-422.08 1666.83,-422.08"/>
<text text-anchor="middle" x="1616" y="-406.88" font-family="Arial" font-size="14.00" fill="#cfffac">models/event.ts</text>
</g>
<!-- models/inventory/item.ts -->
<g id="node12" class="node">
<title>models/inventory/item.ts</title>
<path fill="none" stroke="#c6c5fe" d="M1358.83,-525.08C1358.83,-525.08 1204.17,-525.08 1204.17,-525.08 1200.33,-525.08 1196.5,-521.24 1196.5,-517.41 1196.5,-517.41 1196.5,-509.74 1196.5,-509.74 1196.5,-505.91 1200.33,-502.08 1204.17,-502.08 1204.17,-502.08 1358.83,-502.08 1358.83,-502.08 1362.67,-502.08 1366.5,-505.91 1366.5,-509.74 1366.5,-509.74 1366.5,-517.41 1366.5,-517.41 1366.5,-521.24 1362.67,-525.08 1358.83,-525.08"/>
<text text-anchor="middle" x="1281.5" y="-509.88" font-family="Arial" font-size="14.00" fill="#c6c5fe">models/inventory/item.ts</text>
</g>
<!-- models/inventory/location.ts -->
<g id="node13" class="node">
<title>models/inventory/location.ts</title>
<path fill="none" stroke="#cfffac" d="M1703.83,-660.08C1703.83,-660.08 1528.17,-660.08 1528.17,-660.08 1524.33,-660.08 1520.5,-656.24 1520.5,-652.41 1520.5,-652.41 1520.5,-644.74 1520.5,-644.74 1520.5,-640.91 1524.33,-637.08 1528.17,-637.08 1528.17,-637.08 1703.83,-637.08 1703.83,-637.08 1707.67,-637.08 1711.5,-640.91 1711.5,-644.74 1711.5,-644.74 1711.5,-652.41 1711.5,-652.41 1711.5,-656.24 1707.67,-660.08 1703.83,-660.08"/>
<text text-anchor="middle" x="1616" y="-644.88" font-family="Arial" font-size="14.00" fill="#cfffac">models/inventory/location.ts</text>
</g>
<!-- models/inventory/item.ts&#45;&gt;models/inventory/location.ts -->
<g id="edge6" class="edge">
<title>models/inventory/item.ts&#45;&gt;models/inventory/location.ts</title>
<path fill="none" stroke="#757575" d="M1366.55,-506.97C1394.94,-508.83 1425.18,-515.77 1448,-533.58 1483.27,-561.1 1449.27,-599.38 1484,-627.58 1491.91,-634 1501,-638.83 1510.63,-642.43"/>
<polygon fill="#757575" stroke="#757575" points="1509.82,-645.85 1520.41,-645.63 1511.99,-639.19 1509.82,-645.85"/>
</g>
<!-- models/inventory/order.ts -->
<g id="node14" class="node">
<title>models/inventory/order.ts</title>
<path fill="none" stroke="#cfffac" d="M1696.33,-342.08C1696.33,-342.08 1535.67,-342.08 1535.67,-342.08 1531.83,-342.08 1528,-338.24 1528,-334.41 1528,-334.41 1528,-326.74 1528,-326.74 1528,-322.91 1531.83,-319.08 1535.67,-319.08 1535.67,-319.08 1696.33,-319.08 1696.33,-319.08 1700.17,-319.08 1704,-322.91 1704,-326.74 1704,-326.74 1704,-334.41 1704,-334.41 1704,-338.24 1700.17,-342.08 1696.33,-342.08"/>
<text text-anchor="middle" x="1616" y="-326.88" font-family="Arial" font-size="14.00" fill="#cfffac">models/inventory/order.ts</text>
</g>
<!-- models/inventory/item.ts&#45;&gt;models/inventory/order.ts -->
<g id="edge7" class="edge">
<title>models/inventory/item.ts&#45;&gt;models/inventory/order.ts</title>
<path fill="none" stroke="#757575" d="M1299.58,-502.03C1333.77,-479.13 1413.41,-427 1484,-389.58 1514.72,-373.3 1550.82,-357.25 1577.34,-346.02"/>
<polygon fill="#757575" stroke="#757575" points="1578.78,-349.21 1586.65,-342.1 1576.07,-342.75 1578.78,-349.21"/>
</g>
<!-- services/websocketmessaging.ts&#45;&gt;models/connection&#45;response.ts -->
<g id="edge95" class="edge">
<title>services/websocketmessaging.ts&#45;&gt;models/connection&#45;response.ts</title>
<path fill="none" stroke="#757575" d="M2574.47,-947.1C2587.47,-949.96 2600.75,-953.42 2613,-957.58 2654.74,-971.74 2699.81,-995.7 2727.96,-1011.83"/>
<polygon fill="#757575" stroke="#757575" points="2726.42,-1014.98 2736.82,-1016.97 2729.93,-1008.92 2726.42,-1014.98"/>
</g>
<!-- util/log.ts&#45;&gt;environment.ts -->
<g id="edge96" class="edge">
<title>util/log.ts&#45;&gt;environment.ts</title>
<path fill="none" stroke="#757575" d="M2281.11,-274.5C2320.71,-277.79 2385.92,-283.21 2434.61,-287.26"/>
<polygon fill="#757575" stroke="#757575" points="2434.47,-290.77 2444.73,-288.11 2435.05,-283.79 2434.47,-290.77"/>
</g>
<!-- util/btoaatob.ts -->
<g id="node61" class="node">
<title>util/btoaatob.ts</title>
<path fill="none" stroke="#cfffac" d="M2545.83,-263.08C2545.83,-263.08 2453.17,-263.08 2453.17,-263.08 2449.33,-263.08 2445.5,-259.24 2445.5,-255.41 2445.5,-255.41 2445.5,-247.74 2445.5,-247.74 2445.5,-243.91 2449.33,-240.08 2453.17,-240.08 2453.17,-240.08 2545.83,-240.08 2545.83,-240.08 2549.67,-240.08 2553.5,-243.91 2553.5,-247.74 2553.5,-247.74 2553.5,-255.41 2553.5,-255.41 2553.5,-259.24 2549.67,-263.08 2545.83,-263.08"/>
<text text-anchor="middle" x="2499.5" y="-247.88" font-family="Arial" font-size="14.00" fill="#cfffac">util/btoaatob.ts</text>
</g>
<!-- util/log.ts&#45;&gt;util/btoaatob.ts -->
<g id="edge97" class="edge">
<title>util/log.ts&#45;&gt;util/btoaatob.ts</title>
<path fill="none" stroke="#757575" d="M2281.11,-268.8C2320.83,-265.65 2386.33,-260.46 2435.07,-256.6"/>
<polygon fill="#757575" stroke="#757575" points="2435.51,-260.08 2445.2,-255.8 2434.96,-253.1 2435.51,-260.08"/>
</g>
<!-- models/sender.ts -->
<g id="node21" class="node">
<title>models/sender.ts</title>
<path fill="none" stroke="#c6c5fe" d="M1337.33,-566.08C1337.33,-566.08 1225.67,-566.08 1225.67,-566.08 1221.83,-566.08 1218,-562.24 1218,-558.41 1218,-558.41 1218,-550.74 1218,-550.74 1218,-546.91 1221.83,-543.08 1225.67,-543.08 1225.67,-543.08 1337.33,-543.08 1337.33,-543.08 1341.17,-543.08 1345,-546.91 1345,-550.74 1345,-550.74 1345,-558.41 1345,-558.41 1345,-562.24 1341.17,-566.08 1337.33,-566.08"/>
<text text-anchor="middle" x="1281.5" y="-550.88" font-family="Arial" font-size="14.00" fill="#c6c5fe">models/sender.ts</text>
</g>
<!-- models/sender.ts&#45;&gt;models/battery.ts -->
<g id="edge19" class="edge">
<title>models/sender.ts&#45;&gt;models/battery.ts</title>
<path fill="none" stroke="#757575" d="M1345.3,-558.86C1378.17,-558.22 1417.75,-552.66 1448,-533.58 1473.02,-517.79 1459.54,-494.23 1484,-477.58 1501.38,-465.75 1522.88,-459.04 1543.4,-455.3"/>
<polygon fill="#757575" stroke="#757575" points="1544.06,-458.74 1553.37,-453.7 1542.94,-451.83 1544.06,-458.74"/>
</g>
<!-- models/sender.ts&#45;&gt;models/connection&#45;response.ts -->
<g id="edge20" class="edge">
<title>models/sender.ts&#45;&gt;models/connection&#45;response.ts</title>
<path fill="none" stroke="#757575" d="M1345.33,-556.64C1462.73,-560.3 1723.36,-567.58 1943,-567.58 1943,-567.58 1943,-567.58 2246,-567.58 2512.05,-567.58 2701.45,-917.1 2745.97,-1007.46"/>
<polygon fill="#757575" stroke="#757575" points="2742.95,-1009.25 2750.47,-1016.72 2749.25,-1006.2 2742.95,-1009.25"/>
</g>
<!-- models/sender.ts&#45;&gt;models/connection.ts -->
<g id="edge21" class="edge">
<title>models/sender.ts&#45;&gt;models/connection.ts</title>
<path fill="none" stroke="#757575" d="M1320.71,-566.11C1359.03,-579.73 1416.71,-606.18 1448,-649.58 1495.2,-715.05 1433.85,-764.33 1484,-827.58 1501.36,-849.48 1528.52,-863.69 1553.62,-872.75"/>
<polygon fill="#757575" stroke="#757575" points="1552.52,-876.08 1563.12,-875.98 1554.77,-869.45 1552.52,-876.08"/>
</g>
<!-- models/sender.ts&#45;&gt;models/transformation.ts -->
<g id="edge23" class="edge">
<title>models/sender.ts&#45;&gt;models/transformation.ts</title>
<path fill="none" stroke="#757575" d="M1345.22,-552.82C1509.36,-548.21 1952.41,-535.77 2148.45,-530.26"/>
<polygon fill="#757575" stroke="#757575" points="2148.55,-533.76 2158.45,-529.98 2148.35,-526.76 2148.55,-533.76"/>
</g>
<!-- models/sender.ts&#45;&gt;models/transformer.ts -->
<g id="edge24" class="edge">
<title>models/sender.ts&#45;&gt;models/transformer.ts</title>
<path fill="none" stroke="#757575" d="M1312.37,-566.19C1348,-581.19 1407.79,-610.14 1448,-649.58 1470.2,-671.35 1459.38,-690.58 1484,-709.58 1580.77,-784.23 1633.62,-743.5 1748,-786.58 1807.46,-808.97 1873.99,-841.78 1911.95,-861.28"/>
<polygon fill="#757575" stroke="#757575" points="1910.47,-864.45 1920.96,-865.93 1913.68,-858.23 1910.47,-864.45"/>
</g>
<!-- models/sender.ts&#45;&gt;models/event.ts -->
<g id="edge22" class="edge">
<title>models/sender.ts&#45;&gt;models/event.ts</title>
<path fill="none" stroke="#757575" d="M1345.24,-561.59C1379.1,-561.98 1419.63,-556.54 1448,-533.58 1485.7,-503.07 1446.69,-461.56 1484,-430.58 1501.5,-416.05 1525.02,-409.76 1547.3,-407.51"/>
<polygon fill="#757575" stroke="#757575" points="1547.71,-410.99 1557.42,-406.75 1547.19,-404.01 1547.71,-410.99"/>
</g>
<!-- models/sender.ts&#45;&gt;util/log.ts -->
<g id="edge25" class="edge">
<title>models/sender.ts&#45;&gt;util/log.ts</title>
<path fill="none" stroke="#757575" d="M1345.15,-547.79C1376.17,-544.13 1414.14,-539.22 1448,-533.58 1582.3,-511.21 1617.67,-510.97 1748,-471.58 1926.99,-417.48 2131.31,-324.73 2210.35,-287.61"/>
<polygon fill="#757575" stroke="#757575" points="2212.24,-290.59 2219.79,-283.17 2209.25,-284.26 2212.24,-290.59"/>
</g>
<!-- models/test.ts -->
<g id="node22" class="node">
<title>models/test.ts</title>
<path fill="none" stroke="#cfffac" d="M149.33,-1221.08C149.33,-1221.08 58.67,-1221.08 58.67,-1221.08 54.83,-1221.08 51,-1217.24 51,-1213.41 51,-1213.41 51,-1205.74 51,-1205.74 51,-1201.91 54.83,-1198.08 58.67,-1198.08 58.67,-1198.08 149.33,-1198.08 149.33,-1198.08 153.17,-1198.08 157,-1201.91 157,-1205.74 157,-1205.74 157,-1213.41 157,-1213.41 157,-1217.24 153.17,-1221.08 149.33,-1221.08"/>
<text text-anchor="middle" x="104" y="-1205.88" font-family="Arial" font-size="14.00" fill="#cfffac">models/test.ts</text>
</g>
<!-- models/timer.ts -->
<g id="node23" class="node">
<title>models/timer.ts</title>
<path fill="none" stroke="#cfffac" d="M1330.83,-837.08C1330.83,-837.08 1232.17,-837.08 1232.17,-837.08 1228.33,-837.08 1224.5,-833.24 1224.5,-829.41 1224.5,-829.41 1224.5,-821.74 1224.5,-821.74 1224.5,-817.91 1228.33,-814.08 1232.17,-814.08 1232.17,-814.08 1330.83,-814.08 1330.83,-814.08 1334.67,-814.08 1338.5,-817.91 1338.5,-821.74 1338.5,-821.74 1338.5,-829.41 1338.5,-829.41 1338.5,-833.24 1334.67,-837.08 1330.83,-837.08"/>
<text text-anchor="middle" x="1281.5" y="-821.88" font-family="Arial" font-size="14.00" fill="#cfffac">models/timer.ts</text>
</g>
<!-- node&#45;red/glboal&#45;script.ts -->
<g id="node24" class="node">
<title>node&#45;red/glboal&#45;script.ts</title>
<path fill="none" stroke="#c6c5fe" d="M1000.83,-1335.08C1000.83,-1335.08 846.17,-1335.08 846.17,-1335.08 842.33,-1335.08 838.5,-1331.24 838.5,-1327.41 838.5,-1327.41 838.5,-1319.74 838.5,-1319.74 838.5,-1315.91 842.33,-1312.08 846.17,-1312.08 846.17,-1312.08 1000.83,-1312.08 1000.83,-1312.08 1004.67,-1312.08 1008.5,-1315.91 1008.5,-1319.74 1008.5,-1319.74 1008.5,-1327.41 1008.5,-1327.41 1008.5,-1331.24 1004.67,-1335.08 1000.83,-1335.08"/>
<text text-anchor="middle" x="923.5" y="-1319.88" font-family="Arial" font-size="14.00" fill="#c6c5fe">node&#45;red/glboal&#45;script.ts</text>
</g>
<!-- node&#45;red/red&#45;ui.d.ts -->
<g id="node25" class="node">
<title>node&#45;red/red&#45;ui.d.ts</title>
<path fill="none" stroke="#cfffac" d="M1344.33,-1335.08C1344.33,-1335.08 1218.67,-1335.08 1218.67,-1335.08 1214.83,-1335.08 1211,-1331.24 1211,-1327.41 1211,-1327.41 1211,-1319.74 1211,-1319.74 1211,-1315.91 1214.83,-1312.08 1218.67,-1312.08 1218.67,-1312.08 1344.33,-1312.08 1344.33,-1312.08 1348.17,-1312.08 1352,-1315.91 1352,-1319.74 1352,-1319.74 1352,-1327.41 1352,-1327.41 1352,-1331.24 1348.17,-1335.08 1344.33,-1335.08"/>
<text text-anchor="middle" x="1281.5" y="-1319.88" font-family="Arial" font-size="14.00" fill="#cfffac">node&#45;red/red&#45;ui.d.ts</text>
</g>
<!-- node&#45;red/glboal&#45;script.ts&#45;&gt;node&#45;red/red&#45;ui.d.ts -->
<g id="edge28" class="edge">
<title>node&#45;red/glboal&#45;script.ts&#45;&gt;node&#45;red/red&#45;ui.d.ts</title>
<path fill="none" stroke="#757575" d="M1008.87,-1323.58C1066.96,-1323.58 1143.65,-1323.58 1200.73,-1323.58"/>
<polygon fill="#757575" stroke="#757575" points="1200.79,-1327.08 1210.79,-1323.58 1200.79,-1320.08 1200.79,-1327.08"/>
</g>
<!-- node&#45;red/node&#45;red&#45;registration.ts -->
<g id="node26" class="node">
<title>node&#45;red/node&#45;red&#45;registration.ts</title>
<path fill="none" stroke="#c6c5fe" d="M722.83,-1335.08C722.83,-1335.08 513.17,-1335.08 513.17,-1335.08 509.33,-1335.08 505.5,-1331.24 505.5,-1327.41 505.5,-1327.41 505.5,-1319.74 505.5,-1319.74 505.5,-1315.91 509.33,-1312.08 513.17,-1312.08 513.17,-1312.08 722.83,-1312.08 722.83,-1312.08 726.67,-1312.08 730.5,-1315.91 730.5,-1319.74 730.5,-1319.74 730.5,-1327.41 730.5,-1327.41 730.5,-1331.24 726.67,-1335.08 722.83,-1335.08"/>
<text text-anchor="middle" x="618" y="-1319.88" font-family="Arial" font-size="14.00" fill="#c6c5fe">node&#45;red/node&#45;red&#45;registration.ts</text>
</g>
<!-- node&#45;red/node&#45;red&#45;registration.ts&#45;&gt;node&#45;red/glboal&#45;script.ts -->
<g id="edge29" class="edge">
<title>node&#45;red/node&#45;red&#45;registration.ts&#45;&gt;node&#45;red/glboal&#45;script.ts</title>
<path fill="none" stroke="#757575" d="M730.72,-1323.58C762.61,-1323.58 797.04,-1323.58 827.8,-1323.58"/>
<polygon fill="#757575" stroke="#757575" points="828.09,-1327.08 838.09,-1323.58 828.09,-1320.08 828.09,-1327.08"/>
</g>
<!-- node&#45;red/node&#45;red&#45;registration.ts&#45;&gt;node&#45;red/red&#45;ui.d.ts -->
<g id="edge30" class="edge">
<title>node&#45;red/node&#45;red&#45;registration.ts&#45;&gt;node&#45;red/red&#45;ui.d.ts</title>
<path fill="none" stroke="#757575" d="M686.29,-1312.06C711.8,-1308.23 741.16,-1304.46 768,-1302.58 905.88,-1292.91 940.96,-1295.4 1079,-1302.58 1119.13,-1304.66 1163.58,-1309.07 1200.5,-1313.31"/>
<polygon fill="#757575" stroke="#757575" points="1200.36,-1316.82 1210.7,-1314.5 1201.17,-1309.87 1200.36,-1316.82"/>
</g>
<!-- node&#45;red/register&#45;custom&#45;type.ts -->
<g id="node27" class="node">
<title>node&#45;red/register&#45;custom&#45;type.ts</title>
<path fill="none" stroke="#c6c5fe" d="M460.33,-1355.08C460.33,-1355.08 251.67,-1355.08 251.67,-1355.08 247.83,-1355.08 244,-1351.24 244,-1347.41 244,-1347.41 244,-1339.74 244,-1339.74 244,-1335.91 247.83,-1332.08 251.67,-1332.08 251.67,-1332.08 460.33,-1332.08 460.33,-1332.08 464.17,-1332.08 468,-1335.91 468,-1339.74 468,-1339.74 468,-1347.41 468,-1347.41 468,-1351.24 464.17,-1355.08 460.33,-1355.08"/>
<text text-anchor="middle" x="356" y="-1339.88" font-family="Arial" font-size="14.00" fill="#c6c5fe">node&#45;red/register&#45;custom&#45;type.ts</text>
</g>
<!-- node&#45;red/register&#45;custom&#45;type.ts&#45;&gt;node&#45;red/red&#45;ui.d.ts -->
<g id="edge32" class="edge">
<title>node&#45;red/register&#45;custom&#45;type.ts&#45;&gt;node&#45;red/red&#45;ui.d.ts</title>
<path fill="none" stroke="#757575" d="M468.1,-1347.4C609.95,-1351.44 862.91,-1355.81 1079,-1344.58 1119.13,-1342.49 1163.58,-1338.09 1200.5,-1333.84"/>
<polygon fill="#757575" stroke="#757575" points="1201.17,-1337.29 1210.7,-1332.65 1200.36,-1330.34 1201.17,-1337.29"/>
</g>
<!-- node&#45;red/register&#45;custom&#45;type.ts&#45;&gt;node&#45;red/node&#45;red&#45;registration.ts -->
<g id="edge31" class="edge">
<title>node&#45;red/register&#45;custom&#45;type.ts&#45;&gt;node&#45;red/node&#45;red&#45;registration.ts</title>
<path fill="none" stroke="#757575" d="M468.02,-1335.04C476.94,-1334.35 485.99,-1333.66 494.99,-1332.96"/>
<polygon fill="#757575" stroke="#757575" points="495.41,-1336.44 505.11,-1332.18 494.87,-1329.46 495.41,-1336.44"/>
</g>
<!-- node&#45;red/server.ts -->
<g id="node28" class="node">
<title>node&#45;red/server.ts</title>
<path fill="none" stroke="#c6c5fe" d="M162.83,-1355.08C162.83,-1355.08 45.17,-1355.08 45.17,-1355.08 41.33,-1355.08 37.5,-1351.24 37.5,-1347.41 37.5,-1347.41 37.5,-1339.74 37.5,-1339.74 37.5,-1335.91 41.33,-1332.08 45.17,-1332.08 45.17,-1332.08 162.83,-1332.08 162.83,-1332.08 166.67,-1332.08 170.5,-1335.91 170.5,-1339.74 170.5,-1339.74 170.5,-1347.41 170.5,-1347.41 170.5,-1351.24 166.67,-1355.08 162.83,-1355.08"/>
<text text-anchor="middle" x="104" y="-1339.88" font-family="Arial" font-size="14.00" fill="#c6c5fe">node&#45;red/server.ts</text>
</g>
<!-- node&#45;red/server.ts&#45;&gt;node&#45;red/register&#45;custom&#45;type.ts -->
<g id="edge33" class="edge">
<title>node&#45;red/server.ts&#45;&gt;node&#45;red/register&#45;custom&#45;type.ts</title>
<path fill="none" stroke="#757575" d="M170.68,-1343.58C190.04,-1343.58 211.87,-1343.58 233.56,-1343.58"/>
<polygon fill="#757575" stroke="#757575" points="233.84,-1347.08 243.84,-1343.58 233.84,-1340.08 233.84,-1347.08"/>
</g>
<!-- resources/connection.r.ts -->
<g id="node29" class="node">
<title>resources/connection.r.ts</title>
<path fill="none" stroke="#c6c5fe" d="M436.33,-778.08C436.33,-778.08 275.67,-778.08 275.67,-778.08 271.83,-778.08 268,-774.24 268,-770.41 268,-770.41 268,-762.74 268,-762.74 268,-758.91 271.83,-755.08 275.67,-755.08 275.67,-755.08 436.33,-755.08 436.33,-755.08 440.17,-755.08 444,-758.91 444,-762.74 444,-762.74 444,-770.41 444,-770.41 444,-774.24 440.17,-778.08 436.33,-778.08"/>
<text text-anchor="middle" x="356" y="-762.88" font-family="Arial" font-size="14.00" fill="#c6c5fe">resources/connection.r.ts</text>
</g>
<!-- resources/connection.r.ts&#45;&gt;models/connection.ts -->
<g id="edge34" class="edge">
<title>resources/connection.r.ts&#45;&gt;models/connection.ts</title>
<path fill="none" stroke="#757575" d="M408.27,-778.09C485.73,-794.99 637.44,-826.18 768,-841.58 1045.36,-874.28 1376.6,-883.78 1529.68,-886.5"/>
<polygon fill="#757575" stroke="#757575" points="1529.89,-890 1539.95,-886.68 1530.01,-883.01 1529.89,-890"/>
</g>
<!-- resources/connection.r.ts&#45;&gt;models/receiver.ts -->
<g id="edge35" class="edge">
<title>resources/connection.r.ts&#45;&gt;models/receiver.ts</title>
<path fill="none" stroke="#757575" d="M379.32,-778.28C407.63,-792.68 458.27,-817.02 504,-831.58 923.18,-965.06 1044.23,-959.25 1484,-970.58 1618.63,-974.05 1775.52,-975.11 1866.62,-975.44"/>
<polygon fill="#757575" stroke="#757575" points="1866.85,-978.94 1876.86,-975.47 1866.87,-971.94 1866.85,-978.94"/>
</g>
<!-- resources/connection.r.ts&#45;&gt;models/sender.ts -->
<g id="edge36" class="edge">
<title>resources/connection.r.ts&#45;&gt;models/sender.ts</title>
<path fill="none" stroke="#757575" d="M367.46,-754.99C389.87,-731.02 445.24,-676.06 504,-650.58 740.34,-548.08 822.94,-605.78 1079,-577.58 1121.73,-572.87 1169.53,-567.42 1207.85,-563.01"/>
<polygon fill="#757575" stroke="#757575" points="1208.35,-566.48 1217.89,-561.85 1207.55,-559.52 1208.35,-566.48"/>
</g>
<!-- resources/frontend&#45;update.ts -->
<g id="node30" class="node">
<title>resources/frontend&#45;update.ts</title>
<path fill="none" stroke="#c6c5fe" d="M710.33,-683.08C710.33,-683.08 525.67,-683.08 525.67,-683.08 521.83,-683.08 518,-679.24 518,-675.41 518,-675.41 518,-667.74 518,-667.74 518,-663.91 521.83,-660.08 525.67,-660.08 525.67,-660.08 710.33,-660.08 710.33,-660.08 714.17,-660.08 718,-663.91 718,-667.74 718,-667.74 718,-675.41 718,-675.41 718,-679.24 714.17,-683.08 710.33,-683.08"/>
<text text-anchor="middle" x="618" y="-667.88" font-family="Arial" font-size="14.00" fill="#c6c5fe">resources/frontend&#45;update.ts</text>
</g>
<!-- resources/connection.r.ts&#45;&gt;resources/frontend&#45;update.ts -->
<g id="edge37" class="edge">
<title>resources/connection.r.ts&#45;&gt;resources/frontend&#45;update.ts</title>
<path fill="none" stroke="#757575" d="M388.62,-755.02C435.54,-737.88 523.61,-705.7 575.61,-686.7"/>
<polygon fill="#757575" stroke="#757575" points="577,-689.92 585.19,-683.2 574.6,-683.34 577,-689.92"/>
</g>
<!-- resources/frontend&#45;update.ts&#45;&gt;models/receiver.ts -->
<g id="edge39" class="edge">
<title>resources/frontend&#45;update.ts&#45;&gt;models/receiver.ts</title>
<path fill="none" stroke="#757575" d="M633.3,-683.14C658.83,-703.21 714.58,-744.57 768,-767.58 1068.97,-897.21 1160.25,-892.89 1484,-943.58 1617.69,-964.51 1775.43,-971.75 1866.86,-974.26"/>
<polygon fill="#757575" stroke="#757575" points="1866.77,-977.75 1876.85,-974.52 1866.95,-970.76 1866.77,-977.75"/>
</g>
<!-- resources/frontend&#45;update.ts&#45;&gt;models/inventory/item.ts -->
<g id="edge38" class="edge">
<title>resources/frontend&#45;update.ts&#45;&gt;models/inventory/item.ts</title>
<path fill="none" stroke="#757575" d="M643.57,-660C672.72,-646.63 723.05,-624.65 768,-610.58 918.75,-563.37 959.29,-560.2 1115,-533.58 1138.09,-529.63 1163.12,-526.18 1186.56,-523.31"/>
<polygon fill="#757575" stroke="#757575" points="1186.99,-526.78 1196.5,-522.11 1186.15,-519.83 1186.99,-526.78"/>
</g>
<!-- resources/frontend&#45;update.ts&#45;&gt;models/timer.ts -->
<g id="edge40" class="edge">
<title>resources/frontend&#45;update.ts&#45;&gt;models/timer.ts</title>
<path fill="none" stroke="#757575" d="M642.64,-683.19C671.53,-696.88 722.21,-719.31 768,-731.58 902.85,-767.69 948.56,-725.84 1079,-775.58 1096.97,-782.43 1097.09,-792.59 1115,-799.58 1146.28,-811.78 1183.01,-818.26 1213.91,-821.71"/>
<polygon fill="#757575" stroke="#757575" points="1213.84,-825.22 1224.15,-822.76 1214.56,-818.25 1213.84,-825.22"/>
</g>
<!-- resources/websocket&#45;response.d.ts -->
<g id="node32" class="node">
<title>resources/websocket&#45;response.d.ts</title>
<path fill="none" stroke="#c6c5fe" d="M1037.83,-723.08C1037.83,-723.08 809.17,-723.08 809.17,-723.08 805.33,-723.08 801.5,-719.24 801.5,-715.41 801.5,-715.41 801.5,-707.74 801.5,-707.74 801.5,-703.91 805.33,-700.08 809.17,-700.08 809.17,-700.08 1037.83,-700.08 1037.83,-700.08 1041.67,-700.08 1045.5,-703.91 1045.5,-707.74 1045.5,-707.74 1045.5,-715.41 1045.5,-715.41 1045.5,-719.24 1041.67,-723.08 1037.83,-723.08"/>
<text text-anchor="middle" x="923.5" y="-707.88" font-family="Arial" font-size="14.00" fill="#c6c5fe">resources/websocket&#45;response.d.ts</text>
</g>
<!-- resources/frontend&#45;update.ts&#45;&gt;resources/websocket&#45;response.d.ts -->
<g id="edge41" class="edge">
<title>resources/frontend&#45;update.ts&#45;&gt;resources/websocket&#45;response.d.ts</title>
<path fill="none" stroke="#757575" d="M706.38,-683.09C743.51,-687.99 786.96,-693.71 825.12,-698.74"/>
<polygon fill="#757575" stroke="#757575" points="824.84,-702.24 835.21,-700.07 825.76,-695.3 824.84,-702.24"/>
</g>
<!-- services/generic&#45;node/generic&#45;node&#45;service.ts -->
<g id="node33" class="node">
<title>services/generic&#45;node/generic&#45;node&#45;service.ts</title>
<path fill="none" stroke="#cfffac" d="M1071.33,-446.08C1071.33,-446.08 775.67,-446.08 775.67,-446.08 771.83,-446.08 768,-442.24 768,-438.41 768,-438.41 768,-430.74 768,-430.74 768,-426.91 771.83,-423.08 775.67,-423.08 775.67,-423.08 1071.33,-423.08 1071.33,-423.08 1075.17,-423.08 1079,-426.91 1079,-430.74 1079,-430.74 1079,-438.41 1079,-438.41 1079,-442.24 1075.17,-446.08 1071.33,-446.08"/>
<text text-anchor="middle" x="923.5" y="-430.88" font-family="Arial" font-size="14.00" fill="#cfffac">services/generic&#45;node/generic&#45;node&#45;service.ts</text>
</g>
<!-- resources/frontend&#45;update.ts&#45;&gt;services/generic&#45;node/generic&#45;node&#45;service.ts -->
<g id="edge42" class="edge">
<title>resources/frontend&#45;update.ts&#45;&gt;services/generic&#45;node/generic&#45;node&#45;service.ts</title>
<path fill="none" stroke="#757575" d="M626.28,-659.81C653.22,-616.48 746.7,-467.6 768,-454.58 770.35,-453.14 772.76,-451.78 775.22,-450.51"/>
<polygon fill="#757575" stroke="#757575" points="776.77,-453.64 784.33,-446.22 773.79,-447.31 776.77,-453.64"/>
</g>
<!-- services/generic&#45;node/last&#45;event&#45;service.ts -->
<g id="node34" class="node">
<title>services/generic&#45;node/last&#45;event&#45;service.ts</title>
<path fill="none" stroke="#c6c5fe" d="M1059.33,-643.08C1059.33,-643.08 787.67,-643.08 787.67,-643.08 783.83,-643.08 780,-639.24 780,-635.41 780,-635.41 780,-627.74 780,-627.74 780,-623.91 783.83,-620.08 787.67,-620.08 787.67,-620.08 1059.33,-620.08 1059.33,-620.08 1063.17,-620.08 1067,-623.91 1067,-627.74 1067,-627.74 1067,-635.41 1067,-635.41 1067,-639.24 1063.17,-643.08 1059.33,-643.08"/>
<text text-anchor="middle" x="923.5" y="-627.88" font-family="Arial" font-size="14.00" fill="#c6c5fe">services/generic&#45;node/last&#45;event&#45;service.ts</text>
</g>
<!-- resources/frontend&#45;update.ts&#45;&gt;services/generic&#45;node/last&#45;event&#45;service.ts -->
<g id="edge43" class="edge">
<title>resources/frontend&#45;update.ts&#45;&gt;services/generic&#45;node/last&#45;event&#45;service.ts</title>
<path fill="none" stroke="#757575" d="M706.38,-660.06C743.51,-655.17 786.96,-649.44 825.12,-644.41"/>
<polygon fill="#757575" stroke="#757575" points="825.76,-647.86 835.21,-643.08 824.84,-640.92 825.76,-647.86"/>
</g>
<!-- services/generic&#45;node/typing/generic&#45;node&#45;type.ts -->
<g id="node35" class="node">
<title>services/generic&#45;node/typing/generic&#45;node&#45;type.ts</title>
<path fill="none" stroke="#c6c5fe" d="M1440.33,-723.08C1440.33,-723.08 1122.67,-723.08 1122.67,-723.08 1118.83,-723.08 1115,-719.24 1115,-715.41 1115,-715.41 1115,-707.74 1115,-707.74 1115,-703.91 1118.83,-700.08 1122.67,-700.08 1122.67,-700.08 1440.33,-700.08 1440.33,-700.08 1444.17,-700.08 1448,-703.91 1448,-707.74 1448,-707.74 1448,-715.41 1448,-715.41 1448,-719.24 1444.17,-723.08 1440.33,-723.08"/>
<text text-anchor="middle" x="1281.5" y="-707.88" font-family="Arial" font-size="14.00" fill="#c6c5fe">services/generic&#45;node/typing/generic&#45;node&#45;type.ts</text>
</g>
<!-- resources/frontend&#45;update.ts&#45;&gt;services/generic&#45;node/typing/generic&#45;node&#45;type.ts -->
<g id="edge44" class="edge">
<title>resources/frontend&#45;update.ts&#45;&gt;services/generic&#45;node/typing/generic&#45;node&#45;type.ts</title>
<path fill="none" stroke="#757575" d="M718.26,-673.88C811.49,-676.48 954.84,-681.55 1079,-690.58 1109.18,-692.77 1141.83,-695.86 1171.88,-699"/>
<polygon fill="#757575" stroke="#757575" points="1171.65,-702.49 1181.96,-700.06 1172.39,-695.53 1171.65,-702.49"/>
</g>
<!-- services/sender&#45;loader.ts -->
<g id="node36" class="node">
<title>services/sender&#45;loader.ts</title>
<path fill="none" stroke="#c6c5fe" d="M1004.33,-487.08C1004.33,-487.08 842.67,-487.08 842.67,-487.08 838.83,-487.08 835,-483.24 835,-479.41 835,-479.41 835,-471.74 835,-471.74 835,-467.91 838.83,-464.08 842.67,-464.08 842.67,-464.08 1004.33,-464.08 1004.33,-464.08 1008.17,-464.08 1012,-467.91 1012,-471.74 1012,-471.74 1012,-479.41 1012,-479.41 1012,-483.24 1008.17,-487.08 1004.33,-487.08"/>
<text text-anchor="middle" x="923.5" y="-471.88" font-family="Arial" font-size="14.00" fill="#c6c5fe">services/sender&#45;loader.ts</text>
</g>
<!-- resources/frontend&#45;update.ts&#45;&gt;services/sender&#45;loader.ts -->
<g id="edge45" class="edge">
<title>resources/frontend&#45;update.ts&#45;&gt;services/sender&#45;loader.ts</title>
<path fill="none" stroke="#757575" d="M627.47,-660.03C653.33,-625.13 731.67,-521.85 768,-501.58 785.27,-491.94 805.2,-485.68 824.87,-481.66"/>
<polygon fill="#757575" stroke="#757575" points="825.62,-485.08 834.81,-479.8 824.34,-478.2 825.62,-485.08"/>
</g>
<!-- resources/control&#45;keys.ws.ts -->
<g id="node31" class="node">
<title>resources/control&#45;keys.ws.ts</title>
<path fill="none" stroke="#cfffac" d="M194.83,-1396.08C194.83,-1396.08 13.17,-1396.08 13.17,-1396.08 9.33,-1396.08 5.5,-1392.24 5.5,-1388.41 5.5,-1388.41 5.5,-1380.74 5.5,-1380.74 5.5,-1376.91 9.33,-1373.08 13.17,-1373.08 13.17,-1373.08 194.83,-1373.08 194.83,-1373.08 198.67,-1373.08 202.5,-1376.91 202.5,-1380.74 202.5,-1380.74 202.5,-1388.41 202.5,-1388.41 202.5,-1392.24 198.67,-1396.08 194.83,-1396.08"/>
<text text-anchor="middle" x="104" y="-1380.88" font-family="Arial" font-size="14.00" fill="#cfffac">resources/control&#45;keys.ws.ts</text>
</g>
<!-- resources/websocket&#45;response.d.ts&#45;&gt;models/receiver.ts -->
<g id="edge68" class="edge">
<title>resources/websocket&#45;response.d.ts&#45;&gt;models/receiver.ts</title>
<path fill="none" stroke="#757575" d="M1045.68,-722.93C1056.96,-724.35 1068.21,-725.9 1079,-727.58 1244.54,-753.35 1322.06,-694.09 1448,-804.58 1484.45,-836.56 1446.62,-876.68 1484,-907.58 1498.62,-919.67 1740.31,-950.79 1866.94,-966.39"/>
<polygon fill="#757575" stroke="#757575" points="1866.62,-969.87 1876.97,-967.62 1867.47,-962.92 1866.62,-969.87"/>
</g>
<!-- resources/websocket&#45;response.d.ts&#45;&gt;models/inventory/item.ts -->
<g id="edge67" class="edge">
<title>resources/websocket&#45;response.d.ts&#45;&gt;models/inventory/item.ts</title>
<path fill="none" stroke="#757575" d="M989.87,-699.98C1020.68,-691.4 1055.7,-676.67 1079,-651.58 1116.3,-611.39 1072.97,-568.79 1115,-533.58 1134.68,-517.09 1160.6,-509.62 1186.07,-506.91"/>
<polygon fill="#757575" stroke="#757575" points="1186.49,-510.39 1196.17,-506.07 1185.91,-503.41 1186.49,-510.39"/>
</g>
<!-- resources/websocket&#45;response.d.ts&#45;&gt;models/sender.ts -->
<g id="edge69" class="edge">
<title>resources/websocket&#45;response.d.ts&#45;&gt;models/sender.ts</title>
<path fill="none" stroke="#757575" d="M956.46,-700C987.91,-688.41 1037.16,-669.74 1079,-651.58 1139.74,-625.21 1208.98,-590.93 1248.44,-570.97"/>
<polygon fill="#757575" stroke="#757575" points="1250.47,-573.87 1257.8,-566.22 1247.3,-567.62 1250.47,-573.87"/>
</g>
<!-- resources/websocket&#45;response.d.ts&#45;&gt;models/timer.ts -->
<g id="edge70" class="edge">
<title>resources/websocket&#45;response.d.ts&#45;&gt;models/timer.ts</title>
<path fill="none" stroke="#757575" d="M1045.85,-721.25C1057.64,-725.29 1068.94,-730.61 1079,-737.58 1105.19,-755.72 1088.71,-781.58 1115,-799.58 1143.69,-819.22 1181.69,-826.19 1214.03,-828.03"/>
<polygon fill="#757575" stroke="#757575" points="1214.18,-831.54 1224.31,-828.46 1214.47,-824.55 1214.18,-831.54"/>
</g>
<!-- resources/websocket&#45;response.d.ts&#45;&gt;services/generic&#45;node/typing/generic&#45;node&#45;type.ts -->
<g id="edge71" class="edge">
<title>resources/websocket&#45;response.d.ts&#45;&gt;services/generic&#45;node/typing/generic&#45;node&#45;type.ts</title>
<path fill="none" stroke="#757575" d="M1045.52,-711.58C1064.58,-711.58 1084.6,-711.58 1104.6,-711.58"/>
<polygon fill="#757575" stroke="#757575" points="1104.72,-715.08 1114.72,-711.58 1104.72,-708.08 1104.72,-715.08"/>
</g>
<!-- services/generic&#45;node/last&#45;event&#45;service.ts&#45;&gt;services/generic&#45;node/typing/generic&#45;node&#45;type.ts -->
<g id="edge79" class="edge">
<title>services/generic&#45;node/last&#45;event&#45;service.ts&#45;&gt;services/generic&#45;node/typing/generic&#45;node&#45;type.ts</title>
<path fill="none" stroke="#757575" d="M1039.07,-643.18C1052.91,-646.8 1066.54,-651.49 1079,-657.58 1098.5,-667.1 1095.31,-681.45 1115,-690.58 1120.01,-692.9 1125.19,-694.99 1130.49,-696.88"/>
<polygon fill="#757575" stroke="#757575" points="1129.55,-700.25 1140.14,-700.05 1131.74,-693.6 1129.55,-700.25"/>
</g>
<!-- services/generic&#45;node/generic&#45;node&#45;constants.ts -->
<g id="node51" class="node">
<title>services/generic&#45;node/generic&#45;node&#45;constants.ts</title>
<path fill="none" stroke="#cfffac" d="M1436.83,-682.08C1436.83,-682.08 1126.17,-682.08 1126.17,-682.08 1122.33,-682.08 1118.5,-678.24 1118.5,-674.41 1118.5,-674.41 1118.5,-666.74 1118.5,-666.74 1118.5,-662.91 1122.33,-659.08 1126.17,-659.08 1126.17,-659.08 1436.83,-659.08 1436.83,-659.08 1440.67,-659.08 1444.5,-662.91 1444.5,-666.74 1444.5,-666.74 1444.5,-674.41 1444.5,-674.41 1444.5,-678.24 1440.67,-682.08 1436.83,-682.08"/>
<text text-anchor="middle" x="1281.5" y="-666.88" font-family="Arial" font-size="14.00" fill="#cfffac">services/generic&#45;node/generic&#45;node&#45;constants.ts</text>
</g>
<!-- services/generic&#45;node/last&#45;event&#45;service.ts&#45;&gt;services/generic&#45;node/generic&#45;node&#45;constants.ts -->
<g id="edge77" class="edge">
<title>services/generic&#45;node/last&#45;event&#45;service.ts&#45;&gt;services/generic&#45;node/generic&#45;node&#45;constants.ts</title>
<path fill="none" stroke="#757575" d="M1029.87,-643.12C1072.47,-647.79 1121.78,-653.19 1165.34,-657.96"/>
<polygon fill="#757575" stroke="#757575" points="1165.08,-661.45 1175.4,-659.06 1165.84,-654.5 1165.08,-661.45"/>
</g>
<!-- services/generic&#45;node/node&#45;event.ts -->
<g id="node52" class="node">
<title>services/generic&#45;node/node&#45;event.ts</title>
<path fill="none" stroke="#c6c5fe" d="M1732.33,-701.08C1732.33,-701.08 1499.67,-701.08 1499.67,-701.08 1495.83,-701.08 1492,-697.24 1492,-693.41 1492,-693.41 1492,-685.74 1492,-685.74 1492,-681.91 1495.83,-678.08 1499.67,-678.08 1499.67,-678.08 1732.33,-678.08 1732.33,-678.08 1736.17,-678.08 1740,-681.91 1740,-685.74 1740,-685.74 1740,-693.41 1740,-693.41 1740,-697.24 1736.17,-701.08 1732.33,-701.08"/>
<text text-anchor="middle" x="1616" y="-685.88" font-family="Arial" font-size="14.00" fill="#c6c5fe">services/generic&#45;node/node&#45;event.ts</text>
</g>
<!-- services/generic&#45;node/last&#45;event&#45;service.ts&#45;&gt;services/generic&#45;node/node&#45;event.ts -->
<g id="edge78" class="edge">
<title>services/generic&#45;node/last&#45;event&#45;service.ts&#45;&gt;services/generic&#45;node/node&#45;event.ts</title>
<path fill="none" stroke="#757575" d="M1054.87,-620.07C1162.24,-614.36 1317.49,-614.86 1448,-649.58 1465.48,-654.23 1466.84,-662.85 1484,-668.58 1492.25,-671.33 1500.93,-673.73 1509.71,-675.82"/>
<polygon fill="#757575" stroke="#757575" points="1509.14,-679.28 1519.66,-678.05 1510.67,-672.45 1509.14,-679.28"/>
</g>
<!-- services/generic&#45;node/element&#45;node.ts -->
<g id="node50" class="node">
<title>services/generic&#45;node/element&#45;node.ts</title>
<path fill="none" stroke="#cfffac" d="M1740.33,-819.08C1740.33,-819.08 1491.67,-819.08 1491.67,-819.08 1487.83,-819.08 1484,-815.24 1484,-811.41 1484,-811.41 1484,-803.74 1484,-803.74 1484,-799.91 1487.83,-796.08 1491.67,-796.08 1491.67,-796.08 1740.33,-796.08 1740.33,-796.08 1744.17,-796.08 1748,-799.91 1748,-803.74 1748,-803.74 1748,-811.41 1748,-811.41 1748,-815.24 1744.17,-819.08 1740.33,-819.08"/>
<text text-anchor="middle" x="1616" y="-803.88" font-family="Arial" font-size="14.00" fill="#cfffac">services/generic&#45;node/element&#45;node.ts</text>
</g>
<!-- services/generic&#45;node/typing/generic&#45;node&#45;type.ts&#45;&gt;services/generic&#45;node/element&#45;node.ts -->
<g id="edge82" class="edge">
<title>services/generic&#45;node/typing/generic&#45;node&#45;type.ts&#45;&gt;services/generic&#45;node/element&#45;node.ts</title>
<path fill="none" stroke="#757575" d="M1311.8,-723.2C1350.67,-738.27 1421.63,-764.64 1484,-781.58 1501.12,-786.23 1519.7,-790.42 1537.34,-794.01"/>
<polygon fill="#757575" stroke="#757575" points="1537.11,-797.53 1547.6,-796.05 1538.48,-790.67 1537.11,-797.53"/>
</g>
<!-- services/generic&#45;node/typing/generic&#45;node&#45;type.ts&#45;&gt;services/generic&#45;node/node&#45;event.ts -->
<g id="edge83" class="edge">
<title>services/generic&#45;node/typing/generic&#45;node&#45;type.ts&#45;&gt;services/generic&#45;node/node&#45;event.ts</title>
<path fill="none" stroke="#757575" d="M1448.26,-700.61C1459.47,-699.87 1470.68,-699.13 1481.69,-698.4"/>
<polygon fill="#757575" stroke="#757575" points="1482,-701.89 1491.74,-697.73 1481.54,-694.9 1482,-701.89"/>
</g>
<!-- services/generic&#45;node/typing/node&#45;options.ts -->
<g id="node54" class="node">
<title>services/generic&#45;node/typing/node&#45;options.ts</title>
<path fill="none" stroke="#cfffac" d="M2086.83,-680.08C2086.83,-680.08 1801.17,-680.08 1801.17,-680.08 1797.33,-680.08 1793.5,-676.24 1793.5,-672.41 1793.5,-672.41 1793.5,-664.74 1793.5,-664.74 1793.5,-660.91 1797.33,-657.08 1801.17,-657.08 1801.17,-657.08 2086.83,-657.08 2086.83,-657.08 2090.67,-657.08 2094.5,-660.91 2094.5,-664.74 2094.5,-664.74 2094.5,-672.41 2094.5,-672.41 2094.5,-676.24 2090.67,-680.08 2086.83,-680.08"/>
<text text-anchor="middle" x="1944" y="-664.88" font-family="Arial" font-size="14.00" fill="#cfffac">services/generic&#45;node/typing/node&#45;options.ts</text>
</g>
<!-- services/generic&#45;node/typing/generic&#45;node&#45;type.ts&#45;&gt;services/generic&#45;node/typing/node&#45;options.ts -->
<g id="edge84" class="edge">
<title>services/generic&#45;node/typing/generic&#45;node&#45;type.ts&#45;&gt;services/generic&#45;node/typing/node&#45;options.ts</title>
<path fill="none" stroke="#757575" d="M1358.28,-723.09C1451.76,-734.61 1614.67,-745.93 1748,-709.58 1765.87,-704.71 1766.46,-694.52 1784,-688.58 1790.79,-686.28 1797.83,-684.24 1805,-682.43"/>
<polygon fill="#757575" stroke="#757575" points="1805.91,-685.81 1814.83,-680.1 1804.29,-679 1805.91,-685.81"/>
</g>
<!-- services/sender&#45;loader.ts&#45;&gt;models/sound.ts -->
<g id="edge89" class="edge">
<title>services/sender&#45;loader.ts&#45;&gt;models/sound.ts</title>
<path fill="none" stroke="#757575" d="M1011.98,-464.06C1033.88,-461.07 1057.31,-457.79 1079,-454.58 1317.53,-419.23 1373.87,-370.58 1615,-370.58 1615,-370.58 1615,-370.58 1945,-370.58 2134.88,-370.58 2233.07,-356.97 2350,-506.58 2411.64,-585.44 2319.65,-880.63 2386,-955.58 2396.83,-967.82 2412.27,-974.57 2428.24,-978.11"/>
<polygon fill="#757575" stroke="#757575" points="2427.76,-981.58 2438.22,-979.91 2429,-974.69 2427.76,-981.58"/>
</g>
<!-- services/sender&#45;loader.ts&#45;&gt;models/sender.ts -->
<g id="edge88" class="edge">
<title>services/sender&#45;loader.ts&#45;&gt;models/sender.ts</title>
<path fill="none" stroke="#757575" d="M956.42,-487.12C993.91,-500.24 1058.21,-521.42 1115,-533.58 1145.15,-540.03 1178.84,-544.75 1207.91,-548.06"/>
<polygon fill="#757575" stroke="#757575" points="1207.67,-551.55 1217.99,-549.17 1208.44,-544.59 1207.67,-551.55"/>
</g>
<!-- util/tsc&#45;compiler.ts -->
<g id="node58" class="node">
<title>util/tsc&#45;compiler.ts</title>
<path fill="none" stroke="#c6c5fe" d="M1339.33,-266.08C1339.33,-266.08 1223.67,-266.08 1223.67,-266.08 1219.83,-266.08 1216,-262.24 1216,-258.41 1216,-258.41 1216,-250.74 1216,-250.74 1216,-246.91 1219.83,-243.08 1223.67,-243.08 1223.67,-243.08 1339.33,-243.08 1339.33,-243.08 1343.17,-243.08 1347,-246.91 1347,-250.74 1347,-250.74 1347,-258.41 1347,-258.41 1347,-262.24 1343.17,-266.08 1339.33,-266.08"/>
<text text-anchor="middle" x="1281.5" y="-250.88" font-family="Arial" font-size="14.00" fill="#c6c5fe">util/tsc&#45;compiler.ts</text>
</g>
<!-- services/sender&#45;loader.ts&#45;&gt;util/tsc&#45;compiler.ts -->
<g id="edge90" class="edge">
<title>services/sender&#45;loader.ts&#45;&gt;util/tsc&#45;compiler.ts</title>
<path fill="none" stroke="#757575" d="M1012.39,-479.64C1036.1,-476.72 1060.33,-469.58 1079,-454.58 1115.17,-425.51 1085.63,-392.5 1115,-356.58 1148.43,-315.68 1202.85,-286.66 1240.09,-270.29"/>
<polygon fill="#757575" stroke="#757575" points="1241.82,-273.35 1249.64,-266.2 1239.07,-266.92 1241.82,-273.35"/>
</g>
<!-- resources/inventory.r.ts -->
<g id="node37" class="node">
<title>resources/inventory.r.ts</title>
<path fill="none" stroke="#c6c5fe" d="M430.33,-177.08C430.33,-177.08 281.67,-177.08 281.67,-177.08 277.83,-177.08 274,-173.24 274,-169.41 274,-169.41 274,-161.74 274,-161.74 274,-157.91 277.83,-154.08 281.67,-154.08 281.67,-154.08 430.33,-154.08 430.33,-154.08 434.17,-154.08 438,-157.91 438,-161.74 438,-161.74 438,-169.41 438,-169.41 438,-173.24 434.17,-177.08 430.33,-177.08"/>
<text text-anchor="middle" x="356" y="-161.88" font-family="Arial" font-size="14.00" fill="#c6c5fe">resources/inventory.r.ts</text>
</g>
<!-- resources/inventory.r.ts&#45;&gt;models/inventory/item.ts -->
<g id="edge46" class="edge">
<title>resources/inventory.r.ts&#45;&gt;models/inventory/item.ts</title>
<path fill="none" stroke="#757575" d="M396.41,-177.14C506.22,-209.77 824.33,-307.17 1079,-413.58 1141.29,-439.6 1211.32,-476.07 1250.25,-497.02"/>
<polygon fill="#757575" stroke="#757575" points="1248.99,-500.32 1259.45,-501.99 1252.32,-494.16 1248.99,-500.32"/>
</g>
<!-- resources/inventory.r.ts&#45;&gt;models/inventory/order.ts -->
<g id="edge47" class="edge">
<title>resources/inventory.r.ts&#45;&gt;models/inventory/order.ts</title>
<path fill="none" stroke="#757575" d="M431.67,-177.11C567.48,-197.9 864.1,-242.5 1115,-274.58 1254.68,-292.44 1416.72,-310.01 1517.57,-320.58"/>
<polygon fill="#757575" stroke="#757575" points="1517.43,-324.08 1527.74,-321.64 1518.16,-317.12 1517.43,-324.08"/>
</g>
<!-- resources/inventory.r.ts&#45;&gt;util/log.ts -->
<g id="edge50" class="edge">
<title>resources/inventory.r.ts&#45;&gt;util/log.ts</title>
<path fill="none" stroke="#757575" d="M438.13,-154.62C740.45,-115.15 1799.74,10.64 2104,-121.58 2165.52,-148.31 2212.28,-216.87 2232.71,-251.26"/>
<polygon fill="#757575" stroke="#757575" points="2229.73,-253.09 2237.77,-259.99 2235.79,-249.59 2229.73,-253.09"/>
</g>
<!-- resources/inventory.r.ts&#45;&gt;resources/frontend&#45;update.ts -->
<g id="edge48" class="edge">
<title>resources/inventory.r.ts&#45;&gt;resources/frontend&#45;update.ts</title>
<path fill="none" stroke="#757575" d="M362.21,-177.24C378.08,-212.83 427.29,-323.13 468,-414.58 484.02,-450.57 485.3,-460.9 504,-495.58 535.68,-554.34 580.14,-619.47 602.68,-651.52"/>
<polygon fill="#757575" stroke="#757575" points="600.05,-653.86 608.68,-660.01 605.77,-649.82 600.05,-653.86"/>
</g>
<!-- services/image&#45;converter.ts -->
<g id="node38" class="node">
<title>services/image&#45;converter.ts</title>
<path fill="none" stroke="#cfffac" d="M705.83,-99.08C705.83,-99.08 530.17,-99.08 530.17,-99.08 526.33,-99.08 522.5,-95.24 522.5,-91.41 522.5,-91.41 522.5,-83.74 522.5,-83.74 522.5,-79.91 526.33,-76.08 530.17,-76.08 530.17,-76.08 705.83,-76.08 705.83,-76.08 709.67,-76.08 713.5,-79.91 713.5,-83.74 713.5,-83.74 713.5,-91.41 713.5,-91.41 713.5,-95.24 709.67,-99.08 705.83,-99.08"/>
<text text-anchor="middle" x="618" y="-83.88" font-family="Arial" font-size="14.00" fill="#cfffac">services/image&#45;converter.ts</text>
</g>
<!-- resources/inventory.r.ts&#45;&gt;services/image&#45;converter.ts -->
<g id="edge49" class="edge">
<title>resources/inventory.r.ts&#45;&gt;services/image&#45;converter.ts</title>
<path fill="none" stroke="#757575" d="M386.52,-154.02C415.97,-142.75 462.67,-125.6 504,-113.58 519.14,-109.17 535.6,-105.03 551.15,-101.4"/>
<polygon fill="#757575" stroke="#757575" points="552.25,-104.74 561.21,-99.09 550.68,-97.92 552.25,-104.74"/>
</g>
<!-- resources/log.r.ts -->
<g id="node39" class="node">
<title>resources/log.r.ts</title>
<path fill="none" stroke="#cfffac" d="M159.83,-1437.08C159.83,-1437.08 48.17,-1437.08 48.17,-1437.08 44.33,-1437.08 40.5,-1433.24 40.5,-1429.41 40.5,-1429.41 40.5,-1421.74 40.5,-1421.74 40.5,-1417.91 44.33,-1414.08 48.17,-1414.08 48.17,-1414.08 159.83,-1414.08 159.83,-1414.08 163.67,-1414.08 167.5,-1417.91 167.5,-1421.74 167.5,-1421.74 167.5,-1429.41 167.5,-1429.41 167.5,-1433.24 163.67,-1437.08 159.83,-1437.08"/>
<text text-anchor="middle" x="104" y="-1421.88" font-family="Arial" font-size="14.00" fill="#cfffac">resources/log.r.ts</text>
</g>
<!-- resources/receiver.r.ts -->
<g id="node40" class="node">
<title>resources/receiver.r.ts</title>
<path fill="none" stroke="#c6c5fe" d="M427.33,-1027.08C427.33,-1027.08 284.67,-1027.08 284.67,-1027.08 280.83,-1027.08 277,-1023.24 277,-1019.41 277,-1019.41 277,-1011.74 277,-1011.74 277,-1007.91 280.83,-1004.08 284.67,-1004.08 284.67,-1004.08 427.33,-1004.08 427.33,-1004.08 431.17,-1004.08 435,-1007.91 435,-1011.74 435,-1011.74 435,-1019.41 435,-1019.41 435,-1023.24 431.17,-1027.08 427.33,-1027.08"/>
<text text-anchor="middle" x="356" y="-1011.88" font-family="Arial" font-size="14.00" fill="#c6c5fe">resources/receiver.r.ts</text>
</g>
<!-- resources/receiver.r.ts&#45;&gt;models/receiver&#45;data.ts -->
<g id="edge51" class="edge">
<title>resources/receiver.r.ts&#45;&gt;models/receiver&#45;data.ts</title>
<path fill="none" stroke="#757575" d="M412.25,-1027.09C439.71,-1032.37 473.48,-1038.19 504,-1041.58 522.4,-1043.62 1750.23,-1098.2 1784,-1099.58 1911.57,-1104.8 2059.06,-1110.12 2151.93,-1113.39"/>
<polygon fill="#757575" stroke="#757575" points="2152.03,-1116.89 2162.14,-1113.75 2152.27,-1109.9 2152.03,-1116.89"/>
</g>
<!-- resources/receiver.r.ts&#45;&gt;models/receiver.ts -->
<g id="edge53" class="edge">
<title>resources/receiver.r.ts&#45;&gt;models/receiver.ts</title>
<path fill="none" stroke="#757575" d="M435,-1019.52C517.65,-1023.48 651.98,-1029.32 768,-1031.58 1203.47,-1040.05 1316.7,-1092.28 1748,-1031.58 1802.91,-1023.85 1864.03,-1004.45 1902.96,-990.65"/>
<polygon fill="#757575" stroke="#757575" points="1904.61,-993.78 1912.84,-987.1 1902.25,-987.19 1904.61,-993.78"/>
</g>
<!-- resources/receiver.r.ts&#45;&gt;models/receiver&#45;event.ts -->
<g id="edge52" class="edge">
<title>resources/receiver.r.ts&#45;&gt;models/receiver&#45;event.ts</title>
<path fill="none" stroke="#757575" d="M412.25,-1027.09C439.71,-1032.37 473.48,-1038.19 504,-1041.58 1127.43,-1110.7 1884,-1090.07 2147.79,-1079.8"/>
<polygon fill="#757575" stroke="#757575" points="2148.24,-1083.29 2158.1,-1079.4 2147.97,-1076.29 2148.24,-1083.29"/>
</g>
<!-- resources/receiver.r.ts&#45;&gt;util/log.ts -->
<g id="edge55" class="edge">
<title>resources/receiver.r.ts&#45;&gt;util/log.ts</title>
<path fill="none" stroke="#757575" d="M435.06,-1005.32C718.88,-968 1682.9,-840.87 1748,-827.58 1908.79,-794.74 1994.43,-851.75 2104,-729.58 2171.03,-654.84 2111.45,-602.83 2140,-506.58 2164.5,-423.99 2211.2,-332.3 2232.68,-292.22"/>
<polygon fill="#757575" stroke="#757575" points="2235.78,-293.85 2237.45,-283.39 2229.62,-290.53 2235.78,-293.85"/>
</g>
<!-- resources/receiver.r.ts&#45;&gt;resources/frontend&#45;update.ts -->
<g id="edge54" class="edge">
<title>resources/receiver.r.ts&#45;&gt;resources/frontend&#45;update.ts</title>
<path fill="none" stroke="#757575" d="M391.99,-1004.06C415.77,-994.8 446.66,-979.82 468,-958.58 548.79,-878.15 595.16,-744.74 610.88,-693.01"/>
<polygon fill="#757575" stroke="#757575" points="614.29,-693.84 613.78,-683.25 607.58,-691.85 614.29,-693.84"/>
</g>
<!-- resources/sender.r.ts -->
<g id="node41" class="node">
<title>resources/sender.r.ts</title>
<path fill="none" stroke="#c6c5fe" d="M424.33,-447.08C424.33,-447.08 287.67,-447.08 287.67,-447.08 283.83,-447.08 280,-443.24 280,-439.41 280,-439.41 280,-431.74 280,-431.74 280,-427.91 283.83,-424.08 287.67,-424.08 287.67,-424.08 424.33,-424.08 424.33,-424.08 428.17,-424.08 432,-427.91 432,-431.74 432,-431.74 432,-439.41 432,-439.41 432,-443.24 428.17,-447.08 424.33,-447.08"/>
<text text-anchor="middle" x="356" y="-431.88" font-family="Arial" font-size="14.00" fill="#c6c5fe">resources/sender.r.ts</text>
</g>
<!-- resources/sender.r.ts&#45;&gt;models/battery.ts -->
<g id="edge56" class="edge">
<title>resources/sender.r.ts&#45;&gt;models/battery.ts</title>
<path fill="none" stroke="#757575" d="M432.33,-430.34C514.71,-424.88 650.67,-416.72 768,-413.58 906.17,-409.88 940.86,-408.69 1079,-413.58 1245.3,-419.47 1440.08,-435.6 1542.91,-444.84"/>
<polygon fill="#757575" stroke="#757575" points="1542.9,-448.35 1553.17,-445.77 1543.53,-441.38 1542.9,-448.35"/>
</g>
<!-- resources/sender.r.ts&#45;&gt;models/transformation.ts -->
<g id="edge60" class="edge">
<title>resources/sender.r.ts&#45;&gt;models/transformation.ts</title>
<path fill="none" stroke="#757575" d="M403.26,-424.04C474.13,-406.3 613.81,-371.06 732,-339.58 902.67,-294.12 939.99,-257.35 1115,-233.58 1254.6,-214.62 1642.89,-174.77 1748,-268.58 1800.44,-315.38 1734.17,-373.01 1784,-422.58 1834.5,-472.82 2028.72,-503.26 2148.06,-517.61"/>
<polygon fill="#757575" stroke="#757575" points="2147.95,-521.13 2158.29,-518.83 2148.78,-514.17 2147.95,-521.13"/>
</g>
<!-- resources/sender.r.ts&#45;&gt;models/event.ts -->
<g id="edge57" class="edge">
<title>resources/sender.r.ts&#45;&gt;models/event.ts</title>
<path fill="none" stroke="#757575" d="M364.82,-423.73C384.28,-395.47 438.11,-324.52 504,-298.58 697.79,-222.27 1348.97,-352.96 1553.19,-396.93"/>
<polygon fill="#757575" stroke="#757575" points="1552.64,-400.39 1563.15,-399.08 1554.12,-393.54 1552.64,-400.39"/>
</g>
<!-- resources/sender.r.ts&#45;&gt;util/log.ts -->
<g id="edge66" class="edge">
<title>resources/sender.r.ts&#45;&gt;util/log.ts</title>
<path fill="none" stroke="#757575" d="M363.35,-423.82C380.93,-392.63 433.57,-307.69 504,-271.58 1107.66,37.96 1991.22,-195.58 2199.06,-257.58"/>
<polygon fill="#757575" stroke="#757575" points="2198.14,-260.96 2208.72,-260.49 2200.16,-254.26 2198.14,-260.96"/>
</g>
<!-- resources/sender.r.ts&#45;&gt;models/sender.ts -->
<g id="edge58" class="edge">
<title>resources/sender.r.ts&#45;&gt;models/sender.ts</title>
<path fill="none" stroke="#757575" d="M372.27,-447.12C397.88,-465.73 451.86,-501.79 504,-516.58 754.36,-587.56 1068.04,-573.18 1207.67,-561.75"/>
<polygon fill="#757575" stroke="#757575" points="1208.15,-565.22 1217.82,-560.9 1207.56,-558.25 1208.15,-565.22"/>
</g>
<!-- resources/sender.r.ts&#45;&gt;models/timer.ts -->
<g id="edge59" class="edge">
<title>resources/sender.r.ts&#45;&gt;models/timer.ts</title>
<path fill="none" stroke="#757575" d="M360.18,-447.09C371.92,-487.36 416.68,-623.12 504,-691.58 718.34,-859.63 1068.95,-847.34 1214.23,-833.57"/>
<polygon fill="#757575" stroke="#757575" points="1214.72,-837.04 1224.33,-832.58 1214.04,-830.07 1214.72,-837.04"/>
</g>
<!-- resources/sender.r.ts&#45;&gt;resources/frontend&#45;update.ts -->
<g id="edge61" class="edge">
<title>resources/sender.r.ts&#45;&gt;resources/frontend&#45;update.ts</title>
<path fill="none" stroke="#757575" d="M369.89,-447.28C411.91,-485.42 545.13,-606.34 596.51,-652.98"/>
<polygon fill="#757575" stroke="#757575" points="594.27,-655.67 604.03,-659.8 598.98,-650.49 594.27,-655.67"/>
</g>
<!-- resources/sender.r.ts&#45;&gt;services/generic&#45;node/generic&#45;node&#45;service.ts -->
<g id="edge62" class="edge">
<title>resources/sender.r.ts&#45;&gt;services/generic&#45;node/generic&#45;node&#45;service.ts</title>
<path fill="none" stroke="#757575" d="M432.09,-435.45C514.68,-435.3 649.94,-435.06 757.52,-434.87"/>
<polygon fill="#757575" stroke="#757575" points="757.84,-438.37 767.84,-434.85 757.83,-431.37 757.84,-438.37"/>
</g>
<!-- resources/sender.r.ts&#45;&gt;services/sender&#45;loader.ts -->
<g id="edge64" class="edge">
<title>resources/sender.r.ts&#45;&gt;services/sender&#45;loader.ts</title>
<path fill="none" stroke="#757575" d="M378.1,-447.26C405.94,-461.94 456.93,-486.34 504,-495.58 625.75,-519.47 771.04,-502.64 854.46,-488.76"/>
<polygon fill="#757575" stroke="#757575" points="855.05,-492.21 864.32,-487.08 853.87,-485.3 855.05,-492.21"/>
</g>
<!-- services/mqtt&#45;api.ts -->
<g id="node42" class="node">
<title>services/mqtt&#45;api.ts</title>
<path fill="none" stroke="#cfffac" d="M680.33,-331.08C680.33,-331.08 555.67,-331.08 555.67,-331.08 551.83,-331.08 548,-327.24 548,-323.41 548,-323.41 548,-315.74 548,-315.74 548,-311.91 551.83,-308.08 555.67,-308.08 555.67,-308.08 680.33,-308.08 680.33,-308.08 684.17,-308.08 688,-311.91 688,-315.74 688,-315.74 688,-323.41 688,-323.41 688,-327.24 684.17,-331.08 680.33,-331.08"/>
<text text-anchor="middle" x="618" y="-315.88" font-family="Arial" font-size="14.00" fill="#cfffac">services/mqtt&#45;api.ts</text>
</g>
<!-- resources/sender.r.ts&#45;&gt;services/mqtt&#45;api.ts -->
<g id="edge63" class="edge">
<title>resources/sender.r.ts&#45;&gt;services/mqtt&#45;api.ts</title>
<path fill="none" stroke="#757575" d="M372.4,-423.79C398.22,-404.6 452.47,-366.62 504,-345.58 515.54,-340.86 528.12,-336.91 540.54,-333.62"/>
<polygon fill="#757575" stroke="#757575" points="541.62,-336.96 550.46,-331.13 539.91,-330.17 541.62,-336.96"/>
</g>
<!-- services/sender&#45;trigger&#45;service.ts -->
<g id="node43" class="node">
<title>services/sender&#45;trigger&#45;service.ts</title>
<path fill="none" stroke="#cfffac" d="M724.33,-487.08C724.33,-487.08 511.67,-487.08 511.67,-487.08 507.83,-487.08 504,-483.24 504,-479.41 504,-479.41 504,-471.74 504,-471.74 504,-467.91 507.83,-464.08 511.67,-464.08 511.67,-464.08 724.33,-464.08 724.33,-464.08 728.17,-464.08 732,-467.91 732,-471.74 732,-471.74 732,-479.41 732,-479.41 732,-483.24 728.17,-487.08 724.33,-487.08"/>
<text text-anchor="middle" x="618" y="-471.88" font-family="Arial" font-size="14.00" fill="#cfffac">services/sender&#45;trigger&#45;service.ts</text>
</g>
<!-- resources/sender.r.ts&#45;&gt;services/sender&#45;trigger&#45;service.ts -->
<g id="edge65" class="edge">
<title>resources/sender.r.ts&#45;&gt;services/sender&#45;trigger&#45;service.ts</title>
<path fill="none" stroke="#757575" d="M431.85,-447.09C463.26,-451.93 499.94,-457.57 532.32,-462.55"/>
<polygon fill="#757575" stroke="#757575" points="531.81,-466.01 542.22,-464.07 532.87,-459.09 531.81,-466.01"/>
</g>
<!-- resources/socket&#45;events.ts -->
<g id="node44" class="node">
<title>resources/socket&#45;events.ts</title>
<path fill="none" stroke="#cfffac" d="M190.33,-1478.08C190.33,-1478.08 17.67,-1478.08 17.67,-1478.08 13.83,-1478.08 10,-1474.24 10,-1470.41 10,-1470.41 10,-1462.74 10,-1462.74 10,-1458.91 13.83,-1455.08 17.67,-1455.08 17.67,-1455.08 190.33,-1455.08 190.33,-1455.08 194.17,-1455.08 198,-1458.91 198,-1462.74 198,-1462.74 198,-1470.41 198,-1470.41 198,-1474.24 194.17,-1478.08 190.33,-1478.08"/>
<text text-anchor="middle" x="104" y="-1462.88" font-family="Arial" font-size="14.00" fill="#cfffac">resources/socket&#45;events.ts</text>
</g>
<!-- resources/transformation.r.ts -->
<g id="node45" class="node">
<title>resources/transformation.r.ts</title>
<path fill="none" stroke="#cfffac" d="M194.83,-1519.08C194.83,-1519.08 13.17,-1519.08 13.17,-1519.08 9.33,-1519.08 5.5,-1515.24 5.5,-1511.41 5.5,-1511.41 5.5,-1503.74 5.5,-1503.74 5.5,-1499.91 9.33,-1496.08 13.17,-1496.08 13.17,-1496.08 194.83,-1496.08 194.83,-1496.08 198.67,-1496.08 202.5,-1499.91 202.5,-1503.74 202.5,-1503.74 202.5,-1511.41 202.5,-1511.41 202.5,-1515.24 198.67,-1519.08 194.83,-1519.08"/>
<text text-anchor="middle" x="104" y="-1503.88" font-family="Arial" font-size="14.00" fill="#cfffac">resources/transformation.r.ts</text>
</g>
<!-- resources/wiring.r.ts -->
<g id="node46" class="node">
<title>resources/wiring.r.ts</title>
<path fill="none" stroke="#cfffac" d="M167.83,-1560.08C167.83,-1560.08 40.17,-1560.08 40.17,-1560.08 36.33,-1560.08 32.5,-1556.24 32.5,-1552.41 32.5,-1552.41 32.5,-1544.74 32.5,-1544.74 32.5,-1540.91 36.33,-1537.08 40.17,-1537.08 40.17,-1537.08 167.83,-1537.08 167.83,-1537.08 171.67,-1537.08 175.5,-1540.91 175.5,-1544.74 175.5,-1544.74 175.5,-1552.41 175.5,-1552.41 175.5,-1556.24 171.67,-1560.08 167.83,-1560.08"/>
<text text-anchor="middle" x="104" y="-1544.88" font-family="Arial" font-size="14.00" fill="#cfffac">resources/wiring.r.ts</text>
</g>
<!-- services/connection&#45;service.ts -->
<g id="node47" class="node">
<title>services/connection&#45;service.ts</title>
<path fill="none" stroke="#c6c5fe" d="M200.33,-1067.08C200.33,-1067.08 7.67,-1067.08 7.67,-1067.08 3.83,-1067.08 0,-1063.24 0,-1059.41 0,-1059.41 0,-1051.74 0,-1051.74 0,-1047.91 3.83,-1044.08 7.67,-1044.08 7.67,-1044.08 200.33,-1044.08 200.33,-1044.08 204.17,-1044.08 208,-1047.91 208,-1051.74 208,-1051.74 208,-1059.41 208,-1059.41 208,-1063.24 204.17,-1067.08 200.33,-1067.08"/>
<text text-anchor="middle" x="104" y="-1051.88" font-family="Arial" font-size="14.00" fill="#c6c5fe">services/connection&#45;service.ts</text>
</g>
<!-- services/connection&#45;service.ts&#45;&gt;models/connection&#45;response.ts -->
<g id="edge72" class="edge">
<title>services/connection&#45;service.ts&#45;&gt;models/connection&#45;response.ts</title>
<path fill="none" stroke="#757575" d="M115.2,-1067.22C136.55,-1090.79 188.59,-1144.16 244,-1170.58 396.64,-1243.34 447.9,-1245.58 617,-1245.58 617,-1245.58 617,-1245.58 2246,-1245.58 2412.48,-1245.58 2466.24,-1249.18 2613,-1170.58 2669.7,-1140.21 2718.72,-1080.22 2741.84,-1048.82"/>
<polygon fill="#757575" stroke="#757575" points="2744.89,-1050.57 2747.91,-1040.41 2739.22,-1046.47 2744.89,-1050.57"/>
</g>
<!-- services/connection&#45;service.ts&#45;&gt;models/connection.ts -->
<g id="edge73" class="edge">
<title>services/connection&#45;service.ts&#45;&gt;models/connection.ts</title>
<path fill="none" stroke="#757575" d="M208.31,-1050.61C280.98,-1046.94 380.47,-1041.56 468,-1035.58 903.99,-1005.78 1022.91,-1056.94 1448,-955.58 1497.19,-943.85 1550.81,-919.84 1583.67,-903.73"/>
<polygon fill="#757575" stroke="#757575" points="1585.37,-906.79 1592.77,-899.2 1582.26,-900.52 1585.37,-906.79"/>
</g>
<!-- services/connection&#45;service.ts&#45;&gt;models/receiver&#45;data.ts -->
<g id="edge74" class="edge">
<title>services/connection&#45;service.ts&#45;&gt;models/receiver&#45;data.ts</title>
<path fill="none" stroke="#757575" d="M127.26,-1067.25C197.26,-1102.85 419.96,-1207.58 617,-1207.58 617,-1207.58 617,-1207.58 1282.5,-1207.58 1609.33,-1207.58 1995.87,-1154.82 2161.73,-1129.65"/>
<polygon fill="#757575" stroke="#757575" points="2162.49,-1133.07 2171.85,-1128.1 2161.44,-1126.15 2162.49,-1133.07"/>
</g>
<!-- services/connection&#45;service.ts&#45;&gt;models/transformation.ts -->
<g id="edge75" class="edge">
<title>services/connection&#45;service.ts&#45;&gt;models/transformation.ts</title>
<path fill="none" stroke="#757575" d="M105.72,-1043.97C112.46,-937.61 165.81,-134.55 244,-66.58 431.8,96.67 1387.19,-77.26 1748,-205.58 1953.05,-278.5 2158.61,-451.44 2223.24,-508.76"/>
<polygon fill="#757575" stroke="#757575" points="2221.29,-511.71 2231.08,-515.76 2225.95,-506.49 2221.29,-511.71"/>
</g>
<!-- services/timer&#45;factory.ts -->
<g id="node48" class="node">
<title>services/timer&#45;factory.ts</title>
<path fill="none" stroke="#c6c5fe" d="M431.83,-950.08C431.83,-950.08 280.17,-950.08 280.17,-950.08 276.33,-950.08 272.5,-946.24 272.5,-942.41 272.5,-942.41 272.5,-934.74 272.5,-934.74 272.5,-930.91 276.33,-927.08 280.17,-927.08 280.17,-927.08 431.83,-927.08 431.83,-927.08 435.67,-927.08 439.5,-930.91 439.5,-934.74 439.5,-934.74 439.5,-942.41 439.5,-942.41 439.5,-946.24 435.67,-950.08 431.83,-950.08"/>
<text text-anchor="middle" x="356" y="-934.88" font-family="Arial" font-size="14.00" fill="#c6c5fe">services/timer&#45;factory.ts</text>
</g>
<!-- services/connection&#45;service.ts&#45;&gt;services/timer&#45;factory.ts -->
<g id="edge76" class="edge">
<title>services/connection&#45;service.ts&#45;&gt;services/timer&#45;factory.ts</title>
<path fill="none" stroke="#757575" d="M129.88,-1043.93C174.9,-1022.86 269.92,-978.4 320.93,-954.52"/>
<polygon fill="#757575" stroke="#757575" points="322.64,-957.59 330.22,-950.18 319.67,-951.25 322.64,-957.59"/>
</g>
<!-- services/timer&#45;factory.ts&#45;&gt;models/connection&#45;response.ts -->
<g id="edge91" class="edge">
<title>services/timer&#45;factory.ts&#45;&gt;models/connection&#45;response.ts</title>
<path fill="none" stroke="#757575" d="M401.46,-950.08C517.73,-979.6 840.82,-1058.09 1115,-1091.58 1445.58,-1131.95 2297.23,-1242.42 2613,-1136.58 2665.4,-1119.02 2713.93,-1073.83 2738.73,-1047.81"/>
<polygon fill="#757575" stroke="#757575" points="2741.38,-1050.1 2745.64,-1040.4 2736.26,-1045.32 2741.38,-1050.1"/>
</g>
<!-- services/timer&#45;factory.ts&#45;&gt;models/timer.ts -->
<g id="edge92" class="edge">
<title>services/timer&#45;factory.ts&#45;&gt;models/timer.ts</title>
<path fill="none" stroke="#757575" d="M439.77,-928.45C620.92,-906.28 1049.5,-853.84 1214.32,-833.68"/>
<polygon fill="#757575" stroke="#757575" points="1214.82,-837.14 1224.32,-832.45 1213.97,-830.19 1214.82,-837.14"/>
</g>
<!-- services/timer&#45;factory.ts&#45;&gt;resources/frontend&#45;update.ts -->
<g id="edge93" class="edge">
<title>services/timer&#45;factory.ts&#45;&gt;resources/frontend&#45;update.ts</title>
<path fill="none" stroke="#757575" d="M368.51,-926.76C409.45,-884.72 548.29,-742.14 598.6,-690.47"/>
<polygon fill="#757575" stroke="#757575" points="601.16,-692.86 605.63,-683.26 596.14,-687.98 601.16,-692.86"/>
</g>
<!-- services/event&#45;scheduler.ts -->
<g id="node49" class="node">
<title>services/event&#45;scheduler.ts</title>
<path fill="none" stroke="#cfffac" d="M191.33,-1601.08C191.33,-1601.08 16.67,-1601.08 16.67,-1601.08 12.83,-1601.08 9,-1597.24 9,-1593.41 9,-1593.41 9,-1585.74 9,-1585.74 9,-1581.91 12.83,-1578.08 16.67,-1578.08 16.67,-1578.08 191.33,-1578.08 191.33,-1578.08 195.17,-1578.08 199,-1581.91 199,-1585.74 199,-1585.74 199,-1593.41 199,-1593.41 199,-1597.24 195.17,-1601.08 191.33,-1601.08"/>
<text text-anchor="middle" x="104" y="-1585.88" font-family="Arial" font-size="14.00" fill="#cfffac">services/event&#45;scheduler.ts</text>
</g>
<!-- services/generic&#45;node/typing/node&#45;event&#45;data.ts -->
<g id="node53" class="node">
<title>services/generic&#45;node/typing/node&#45;event&#45;data.ts</title>
<path fill="none" stroke="#cfffac" d="M2096.33,-721.08C2096.33,-721.08 1791.67,-721.08 1791.67,-721.08 1787.83,-721.08 1784,-717.24 1784,-713.41 1784,-713.41 1784,-705.74 1784,-705.74 1784,-701.91 1787.83,-698.08 1791.67,-698.08 1791.67,-698.08 2096.33,-698.08 2096.33,-698.08 2100.17,-698.08 2104,-701.91 2104,-705.74 2104,-705.74 2104,-713.41 2104,-713.41 2104,-717.24 2100.17,-721.08 2096.33,-721.08"/>
<text text-anchor="middle" x="1944" y="-705.88" font-family="Arial" font-size="14.00" fill="#cfffac">services/generic&#45;node/typing/node&#45;event&#45;data.ts</text>
</g>
<!-- services/generic&#45;node/node&#45;event.ts&#45;&gt;services/generic&#45;node/typing/node&#45;event&#45;data.ts -->
<g id="edge80" class="edge">
<title>services/generic&#45;node/node&#45;event.ts&#45;&gt;services/generic&#45;node/typing/node&#45;event&#45;data.ts</title>
<path fill="none" stroke="#757575" d="M1740.25,-697.14C1751.15,-697.81 1762.31,-698.49 1773.51,-699.18"/>
<polygon fill="#757575" stroke="#757575" points="1773.61,-702.69 1783.8,-699.81 1774.03,-695.71 1773.61,-702.69"/>
</g>
<!-- services/generic&#45;node/node&#45;event.ts&#45;&gt;services/generic&#45;node/typing/node&#45;options.ts -->
<g id="edge81" class="edge">
<title>services/generic&#45;node/node&#45;event.ts&#45;&gt;services/generic&#45;node/typing/node&#45;options.ts</title>
<path fill="none" stroke="#757575" d="M1740.25,-681.64C1754.31,-680.73 1768.8,-679.8 1783.25,-678.87"/>
<polygon fill="#757575" stroke="#757575" points="1783.48,-682.36 1793.24,-678.23 1783.03,-675.38 1783.48,-682.36"/>
</g>
<!-- services/image&#45;converter.test.ts -->
<g id="node55" class="node">
<title>services/image&#45;converter.test.ts</title>
<path fill="none" stroke="#c6c5fe" d="M457.33,-99.08C457.33,-99.08 254.67,-99.08 254.67,-99.08 250.83,-99.08 247,-95.24 247,-91.41 247,-91.41 247,-83.74 247,-83.74 247,-79.91 250.83,-76.08 254.67,-76.08 254.67,-76.08 457.33,-76.08 457.33,-76.08 461.17,-76.08 465,-79.91 465,-83.74 465,-83.74 465,-91.41 465,-91.41 465,-95.24 461.17,-99.08 457.33,-99.08"/>
<text text-anchor="middle" x="356" y="-83.88" font-family="Arial" font-size="14.00" fill="#c6c5fe">services/image&#45;converter.test.ts</text>
</g>
<!-- services/image&#45;converter.test.ts&#45;&gt;services/image&#45;converter.ts -->
<g id="edge85" class="edge">
<title>services/image&#45;converter.test.ts&#45;&gt;services/image&#45;converter.ts</title>
<path fill="none" stroke="#757575" d="M465,-87.58C480.57,-87.58 496.57,-87.58 512.07,-87.58"/>
<polygon fill="#757575" stroke="#757575" points="512.18,-91.08 522.18,-87.58 512.18,-84.08 512.18,-91.08"/>
</g>
<!-- services/mqtt&#45;tasmota.ts -->
<g id="node56" class="node">
<title>services/mqtt&#45;tasmota.ts</title>
<path fill="none" stroke="#c6c5fe" d="M1693.83,-619.08C1693.83,-619.08 1538.17,-619.08 1538.17,-619.08 1534.33,-619.08 1530.5,-615.24 1530.5,-611.41 1530.5,-611.41 1530.5,-603.74 1530.5,-603.74 1530.5,-599.91 1534.33,-596.08 1538.17,-596.08 1538.17,-596.08 1693.83,-596.08 1693.83,-596.08 1697.67,-596.08 1701.5,-599.91 1701.5,-603.74 1701.5,-603.74 1701.5,-611.41 1701.5,-611.41 1701.5,-615.24 1697.67,-619.08 1693.83,-619.08"/>
<text text-anchor="middle" x="1616" y="-603.88" font-family="Arial" font-size="14.00" fill="#c6c5fe">services/mqtt&#45;tasmota.ts</text>
</g>
<!-- services/mqtt&#45;tasmota.ts&#45;&gt;services/generic&#45;node/typing/node&#45;options.ts -->
<g id="edge86" class="edge">
<title>services/mqtt&#45;tasmota.ts&#45;&gt;services/generic&#45;node/typing/node&#45;options.ts</title>
<path fill="none" stroke="#757575" d="M1697.13,-619.09C1713.96,-621.71 1731.59,-624.6 1748,-627.58 1793,-635.74 1843.52,-646.4 1881.86,-654.81"/>
<polygon fill="#757575" stroke="#757575" points="1881.31,-658.27 1891.83,-657.01 1882.82,-651.44 1881.31,-658.27"/>
</g>
<!-- services/mqtt&#45;types.ts -->
<g id="node57" class="node">
<title>services/mqtt&#45;types.ts</title>
<path fill="none" stroke="#cfffac" d="M2013.83,-619.08C2013.83,-619.08 1874.17,-619.08 1874.17,-619.08 1870.33,-619.08 1866.5,-615.24 1866.5,-611.41 1866.5,-611.41 1866.5,-603.74 1866.5,-603.74 1866.5,-599.91 1870.33,-596.08 1874.17,-596.08 1874.17,-596.08 2013.83,-596.08 2013.83,-596.08 2017.67,-596.08 2021.5,-599.91 2021.5,-603.74 2021.5,-603.74 2021.5,-611.41 2021.5,-611.41 2021.5,-615.24 2017.67,-619.08 2013.83,-619.08"/>
<text text-anchor="middle" x="1944" y="-603.88" font-family="Arial" font-size="14.00" fill="#cfffac">services/mqtt&#45;types.ts</text>
</g>
<!-- services/mqtt&#45;tasmota.ts&#45;&gt;services/mqtt&#45;types.ts -->
<g id="edge87" class="edge">
<title>services/mqtt&#45;tasmota.ts&#45;&gt;services/mqtt&#45;types.ts</title>
<path fill="none" stroke="#757575" d="M1701.8,-607.58C1749.36,-607.58 1808.55,-607.58 1856.39,-607.58"/>
<polygon fill="#757575" stroke="#757575" points="1856.42,-611.08 1866.42,-607.58 1856.42,-604.08 1856.42,-611.08"/>
</g>
<!-- util/tsc&#45;compiler.ts&#45;&gt;util/log.ts -->
<g id="edge99" class="edge">
<title>util/tsc&#45;compiler.ts&#45;&gt;util/log.ts</title>
<path fill="none" stroke="#757575" d="M1347.08,-255.72C1529.01,-258.94 2042.62,-268.02 2198.55,-270.77"/>
<polygon fill="#757575" stroke="#757575" points="2198.66,-274.28 2208.72,-270.95 2198.79,-267.28 2198.66,-274.28"/>
</g>
<!-- util/file.ts -->
<g id="node62" class="node">
<title>util/file.ts</title>
<path fill="none" stroke="#cfffac" d="M1643.83,-301.08C1643.83,-301.08 1588.17,-301.08 1588.17,-301.08 1584.33,-301.08 1580.5,-297.24 1580.5,-293.41 1580.5,-293.41 1580.5,-285.74 1580.5,-285.74 1580.5,-281.91 1584.33,-278.08 1588.17,-278.08 1588.17,-278.08 1643.83,-278.08 1643.83,-278.08 1647.67,-278.08 1651.5,-281.91 1651.5,-285.74 1651.5,-285.74 1651.5,-293.41 1651.5,-293.41 1651.5,-297.24 1647.67,-301.08 1643.83,-301.08"/>
<text text-anchor="middle" x="1616" y="-285.88" font-family="Arial" font-size="14.00" fill="#cfffac">util/file.ts</text>
</g>
<!-- util/tsc&#45;compiler.ts&#45;&gt;util/file.ts -->
<g id="edge98" class="edge">
<title>util/tsc&#45;compiler.ts&#45;&gt;util/file.ts</title>
<path fill="none" stroke="#757575" d="M1347,-261.37C1412.61,-268.27 1512.56,-278.79 1570.05,-284.85"/>
<polygon fill="#757575" stroke="#757575" points="1569.96,-288.36 1580.27,-285.92 1570.69,-281.39 1569.96,-288.36"/>
</g>
<!-- services/tuya.spec.ts -->
<g id="node59" class="node">
<title>services/tuya.spec.ts</title>
<path fill="none" stroke="#c6c5fe" d="M170.83,-1642.08C170.83,-1642.08 37.17,-1642.08 37.17,-1642.08 33.33,-1642.08 29.5,-1638.24 29.5,-1634.41 29.5,-1634.41 29.5,-1626.74 29.5,-1626.74 29.5,-1622.91 33.33,-1619.08 37.17,-1619.08 37.17,-1619.08 170.83,-1619.08 170.83,-1619.08 174.67,-1619.08 178.5,-1622.91 178.5,-1626.74 178.5,-1626.74 178.5,-1634.41 178.5,-1634.41 178.5,-1638.24 174.67,-1642.08 170.83,-1642.08"/>
<text text-anchor="middle" x="104" y="-1626.88" font-family="Arial" font-size="14.00" fill="#c6c5fe">services/tuya.spec.ts</text>
</g>
<!-- services/tuya.ts -->
<g id="node60" class="node">
<title>services/tuya.ts</title>
<path fill="none" stroke="#cfffac" d="M405.33,-1642.08C405.33,-1642.08 306.67,-1642.08 306.67,-1642.08 302.83,-1642.08 299,-1638.24 299,-1634.41 299,-1634.41 299,-1626.74 299,-1626.74 299,-1622.91 302.83,-1619.08 306.67,-1619.08 306.67,-1619.08 405.33,-1619.08 405.33,-1619.08 409.17,-1619.08 413,-1622.91 413,-1626.74 413,-1626.74 413,-1634.41 413,-1634.41 413,-1638.24 409.17,-1642.08 405.33,-1642.08"/>
<text text-anchor="middle" x="356" y="-1626.88" font-family="Arial" font-size="14.00" fill="#cfffac">services/tuya.ts</text>
</g>
<!-- services/tuya.spec.ts&#45;&gt;services/tuya.ts -->
<g id="edge94" class="edge">
<title>services/tuya.spec.ts&#45;&gt;services/tuya.ts</title>
<path fill="none" stroke="#757575" d="M178.66,-1630.58C213.51,-1630.58 254.8,-1630.58 288.67,-1630.58"/>
<polygon fill="#757575" stroke="#757575" points="288.92,-1634.08 298.92,-1630.58 288.92,-1627.08 288.92,-1634.08"/>
</g>
<!-- util/reconnecting&#45;socket.ts -->
<g id="node63" class="node">
<title>util/reconnecting&#45;socket.ts</title>
<path fill="none" stroke="#cfffac" d="M186.83,-1683.08C186.83,-1683.08 21.17,-1683.08 21.17,-1683.08 17.33,-1683.08 13.5,-1679.24 13.5,-1675.41 13.5,-1675.41 13.5,-1667.74 13.5,-1667.74 13.5,-1663.91 17.33,-1660.08 21.17,-1660.08 21.17,-1660.08 186.83,-1660.08 186.83,-1660.08 190.67,-1660.08 194.5,-1663.91 194.5,-1667.74 194.5,-1667.74 194.5,-1675.41 194.5,-1675.41 194.5,-1679.24 190.67,-1683.08 186.83,-1683.08"/>
<text text-anchor="middle" x="104" y="-1667.88" font-family="Arial" font-size="14.00" fill="#cfffac">util/reconnecting&#45;socket.ts</text>
</g>
<!-- util/resolvable&#45;promise.ts -->
<g id="node64" class="node">
<title>util/resolvable&#45;promise.ts</title>
<path fill="none" stroke="#cfffac" d="M183.33,-1724.08C183.33,-1724.08 24.67,-1724.08 24.67,-1724.08 20.83,-1724.08 17,-1720.24 17,-1716.41 17,-1716.41 17,-1708.74 17,-1708.74 17,-1704.91 20.83,-1701.08 24.67,-1701.08 24.67,-1701.08 183.33,-1701.08 183.33,-1701.08 187.17,-1701.08 191,-1704.91 191,-1708.74 191,-1708.74 191,-1716.41 191,-1716.41 191,-1720.24 187.17,-1724.08 183.33,-1724.08"/>
<text text-anchor="middle" x="104" y="-1708.88" font-family="Arial" font-size="14.00" fill="#cfffac">util/resolvable&#45;promise.ts</text>
</g>
</g>
</svg>
