<?xml version="1.0" encoding="UTF-8" standalone="no"?>
<!DOCTYPE svg PUBLIC "-//W3C//DTD SVG 1.1//EN"
 "http://www.w3.org/Graphics/SVG/1.1/DTD/svg11.dtd">
<!-- Generated by graphviz version 5.0.1 (20220820.1526)
 -->
<!-- Title: G Pages: 1 -->
<svg width="2629pt" height="428pt"
 viewBox="0.00 0.00 2629.20 428.32" xmlns="http://www.w3.org/2000/svg" xmlns:xlink="http://www.w3.org/1999/xlink">
<g id="graph0" class="graph" transform="scale(1 1) rotate(0) translate(21.6 406.72)">
<title>G</title>
<polygon fill="#111111" stroke="none" points="-21.6,21.6 -21.6,-406.72 2607.6,-406.72 2607.6,21.6 -21.6,21.6"/>
<!-- resources/frontend&#45;update.ts -->
<g id="node1" class="node">
<title>resources/frontend&#45;update.ts</title>
<path fill="none" stroke="#ff6c60" d="M192.33,-282.62C192.33,-282.62 7.67,-282.62 7.67,-282.62 3.83,-282.62 0,-278.79 0,-274.96 0,-274.96 0,-267.29 0,-267.29 0,-263.46 3.83,-259.62 7.67,-259.62 7.67,-259.62 192.33,-259.62 192.33,-259.62 196.17,-259.62 200,-263.46 200,-267.29 200,-267.29 200,-274.96 200,-274.96 200,-278.79 196.17,-282.62 192.33,-282.62"/>
<text text-anchor="middle" x="100" y="-267.42" font-family="Arial" font-size="14.00" fill="#ff6c60">resources/frontend&#45;update.ts</text>
</g>
<!-- services/generic&#45;node/generic&#45;node&#45;socket.ts -->
<g id="node2" class="node">
<title>services/generic&#45;node/generic&#45;node&#45;socket.ts</title>
<path fill="none" stroke="#ff6c60" d="M535.33,-282.62C535.33,-282.62 243.67,-282.62 243.67,-282.62 239.83,-282.62 236,-278.79 236,-274.96 236,-274.96 236,-267.29 236,-267.29 236,-263.46 239.83,-259.62 243.67,-259.62 243.67,-259.62 535.33,-259.62 535.33,-259.62 539.17,-259.62 543,-263.46 543,-267.29 543,-267.29 543,-274.96 543,-274.96 543,-278.79 539.17,-282.62 535.33,-282.62"/>
<text text-anchor="middle" x="389.5" y="-267.42" font-family="Arial" font-size="14.00" fill="#ff6c60">services/generic&#45;node/generic&#45;node&#45;socket.ts</text>
</g>
<!-- resources/frontend&#45;update.ts&#45;&gt;services/generic&#45;node/generic&#45;node&#45;socket.ts -->
<g id="edge1" class="edge">
<title>resources/frontend&#45;update.ts&#45;&gt;services/generic&#45;node/generic&#45;node&#45;socket.ts</title>
<path fill="none" stroke="#757575" d="M200.34,-264.67C208.63,-264.55 217.13,-264.47 225.72,-264.42"/>
<polygon fill="#757575" stroke="#757575" points="225.86,-267.92 235.84,-264.38 225.83,-260.92 225.86,-267.92"/>
</g>
<!-- services/generic&#45;node/typing/frontend&#45;events.ts -->
<g id="node3" class="node">
<title>services/generic&#45;node/typing/frontend&#45;events.ts</title>
<path fill="none" stroke="#ff6c60" d="M2573.83,-339.62C2573.83,-339.62 2272.17,-339.62 2272.17,-339.62 2268.33,-339.62 2264.5,-335.79 2264.5,-331.96 2264.5,-331.96 2264.5,-324.29 2264.5,-324.29 2264.5,-320.46 2268.33,-316.62 2272.17,-316.62 2272.17,-316.62 2573.83,-316.62 2573.83,-316.62 2577.67,-316.62 2581.5,-320.46 2581.5,-324.29 2581.5,-324.29 2581.5,-331.96 2581.5,-331.96 2581.5,-335.79 2577.67,-339.62 2573.83,-339.62"/>
<text text-anchor="middle" x="2423" y="-324.42" font-family="Arial" font-size="14.00" fill="#ff6c60">services/generic&#45;node/typing/frontend&#45;events.ts</text>
</g>
<!-- resources/frontend&#45;update.ts&#45;&gt;services/generic&#45;node/typing/frontend&#45;events.ts -->
<g id="edge2" class="edge">
<title>resources/frontend&#45;update.ts&#45;&gt;services/generic&#45;node/typing/frontend&#45;events.ts</title>
<path fill="none" stroke="#757575" d="M138.72,-282.68C236.77,-311.66 508.1,-385.12 739.5,-385.12 739.5,-385.12 739.5,-385.12 1748,-385.12 1960,-385.12 2013.01,-374.82 2224,-354.12 2259.8,-350.61 2299.11,-345.67 2333.2,-341.04"/>
<polygon fill="#757575" stroke="#757575" points="2333.7,-344.51 2343.13,-339.68 2332.75,-337.57 2333.7,-344.51"/>
</g>
<!-- services/generic&#45;node/generic&#45;node&#45;socket.ts&#45;&gt;resources/frontend&#45;update.ts -->
<g id="edge8" class="edge">
<title>services/generic&#45;node/generic&#45;node&#45;socket.ts&#45;&gt;resources/frontend&#45;update.ts</title>
<path fill="none" stroke="#757575" d="M235.84,-277.86C227.29,-277.84 218.78,-277.78 210.43,-277.7"/>
<polygon fill="#757575" stroke="#757575" points="210.39,-274.2 200.34,-277.58 210.3,-281.2 210.39,-274.2"/>
</g>
<!-- services/generic&#45;node/generic&#45;node&#45;socket.ts&#45;&gt;services/generic&#45;node/typing/frontend&#45;events.ts -->
<g id="edge12" class="edge">
<title>services/generic&#45;node/generic&#45;node&#45;socket.ts&#45;&gt;services/generic&#45;node/typing/frontend&#45;events.ts</title>
<path fill="none" stroke="#757575" d="M452.35,-282.66C571.83,-303.93 842.9,-347.12 1073,-347.12 1073,-347.12 1073,-347.12 1748,-347.12 1920.59,-347.12 2117.94,-340.82 2254.28,-335.47"/>
<polygon fill="#757575" stroke="#757575" points="2254.55,-338.97 2264.4,-335.08 2254.27,-331.97 2254.55,-338.97"/>
</g>
<!-- services/generic&#45;node/generic&#45;store/actions.ts -->
<g id="node7" class="node">
<title>services/generic&#45;node/generic&#45;store/actions.ts</title>
<path fill="none" stroke="#ff6c60" d="M2216.33,-245.62C2216.33,-245.62 1922.67,-245.62 1922.67,-245.62 1918.83,-245.62 1915,-241.79 1915,-237.96 1915,-237.96 1915,-230.29 1915,-230.29 1915,-226.46 1918.83,-222.62 1922.67,-222.62 1922.67,-222.62 2216.33,-222.62 2216.33,-222.62 2220.17,-222.62 2224,-226.46 2224,-230.29 2224,-230.29 2224,-237.96 2224,-237.96 2224,-241.79 2220.17,-245.62 2216.33,-245.62"/>
<text text-anchor="middle" x="2069.5" y="-230.42" font-family="Arial" font-size="14.00" fill="#ff6c60">services/generic&#45;node/generic&#45;store/actions.ts</text>
</g>
<!-- services/generic&#45;node/generic&#45;node&#45;socket.ts&#45;&gt;services/generic&#45;node/generic&#45;store/actions.ts -->
<g id="edge9" class="edge">
<title>services/generic&#45;node/generic&#45;node&#45;socket.ts&#45;&gt;services/generic&#45;node/generic&#45;store/actions.ts</title>
<path fill="none" stroke="#757575" d="M543.31,-271.12C681.63,-271.12 890.97,-271.12 1073,-271.12 1073,-271.12 1073,-271.12 1413.5,-271.12 1592.22,-271.12 1797.93,-257.22 1930.4,-246.46"/>
<polygon fill="#757575" stroke="#757575" points="1930.92,-249.93 1940.6,-245.63 1930.35,-242.95 1930.92,-249.93"/>
</g>
<!-- services/generic&#45;node/generic&#45;store/reference.ts -->
<g id="node8" class="node">
<title>services/generic&#45;node/generic&#45;store/reference.ts</title>
<path fill="none" stroke="#ff6c60" d="M2578.33,-145.62C2578.33,-145.62 2267.67,-145.62 2267.67,-145.62 2263.83,-145.62 2260,-141.79 2260,-137.96 2260,-137.96 2260,-130.29 2260,-130.29 2260,-126.46 2263.83,-122.62 2267.67,-122.62 2267.67,-122.62 2578.33,-122.62 2578.33,-122.62 2582.17,-122.62 2586,-126.46 2586,-130.29 2586,-130.29 2586,-137.96 2586,-137.96 2586,-141.79 2582.17,-145.62 2578.33,-145.62"/>
<text text-anchor="middle" x="2423" y="-130.42" font-family="Arial" font-size="14.00" fill="#ff6c60">services/generic&#45;node/generic&#45;store/reference.ts</text>
</g>
<!-- services/generic&#45;node/generic&#45;node&#45;socket.ts&#45;&gt;services/generic&#45;node/generic&#45;store/reference.ts -->
<g id="edge10" class="edge">
<title>services/generic&#45;node/generic&#45;node&#45;socket.ts&#45;&gt;services/generic&#45;node/generic&#45;store/reference.ts</title>
<path fill="none" stroke="#757575" d="M403.11,-259.23C431.94,-232.68 505.84,-168.15 579,-133.12 783.98,-34.98 845.74,-1.12 1073,-1.12 1073,-1.12 1073,-1.12 1748,-1.12 1960.42,-1.12 2018.63,10.15 2224,-44.12 2287.61,-60.93 2356.35,-96.55 2393.77,-117.59"/>
<polygon fill="#757575" stroke="#757575" points="2392.17,-120.7 2402.59,-122.6 2395.63,-114.62 2392.17,-120.7"/>
</g>
<!-- services/generic&#45;node/generic&#45;store/selectors.ts -->
<g id="node10" class="node">
<title>services/generic&#45;node/generic&#45;store/selectors.ts</title>
<path fill="none" stroke="#ff6c60" d="M894.33,-164.62C894.33,-164.62 586.67,-164.62 586.67,-164.62 582.83,-164.62 579,-160.79 579,-156.96 579,-156.96 579,-149.29 579,-149.29 579,-145.46 582.83,-141.62 586.67,-141.62 586.67,-141.62 894.33,-141.62 894.33,-141.62 898.17,-141.62 902,-145.46 902,-149.29 902,-149.29 902,-156.96 902,-156.96 902,-160.79 898.17,-164.62 894.33,-164.62"/>
<text text-anchor="middle" x="740.5" y="-149.42" font-family="Arial" font-size="14.00" fill="#ff6c60">services/generic&#45;node/generic&#45;store/selectors.ts</text>
</g>
<!-- services/generic&#45;node/generic&#45;node&#45;socket.ts&#45;&gt;services/generic&#45;node/generic&#45;store/selectors.ts -->
<g id="edge11" class="edge">
<title>services/generic&#45;node/generic&#45;node&#45;socket.ts&#45;&gt;services/generic&#45;node/generic&#45;store/selectors.ts</title>
<path fill="none" stroke="#757575" d="M424.6,-259.59C488.32,-238.05 625.38,-191.71 695.78,-167.9"/>
<polygon fill="#757575" stroke="#757575" points="696.91,-171.22 705.26,-164.7 694.67,-164.59 696.91,-171.22"/>
</g>
<!-- services/generic&#45;node/typing/generic&#45;node&#45;type.ts -->
<g id="node5" class="node">
<title>services/generic&#45;node/typing/generic&#45;node&#45;type.ts</title>
<path fill="none" stroke="#ff6c60" d="M1571.33,-204.62C1571.33,-204.62 1253.67,-204.62 1253.67,-204.62 1249.83,-204.62 1246,-200.79 1246,-196.96 1246,-196.96 1246,-189.29 1246,-189.29 1246,-185.46 1249.83,-181.62 1253.67,-181.62 1253.67,-181.62 1571.33,-181.62 1571.33,-181.62 1575.17,-181.62 1579,-185.46 1579,-189.29 1579,-189.29 1579,-196.96 1579,-196.96 1579,-200.79 1575.17,-204.62 1571.33,-204.62"/>
<text text-anchor="middle" x="1412.5" y="-189.42" font-family="Arial" font-size="14.00" fill="#ff6c60">services/generic&#45;node/typing/generic&#45;node&#45;type.ts</text>
</g>
<!-- services/generic&#45;node/typing/frontend&#45;events.ts&#45;&gt;services/generic&#45;node/typing/generic&#45;node&#45;type.ts -->
<g id="edge22" class="edge">
<title>services/generic&#45;node/typing/frontend&#45;events.ts&#45;&gt;services/generic&#45;node/typing/generic&#45;node&#45;type.ts</title>
<path fill="none" stroke="#757575" d="M2294,-316.59C2134.46,-301.45 1853.7,-272.24 1615,-234.12 1567.39,-226.52 1513.93,-215.53 1474.05,-206.84"/>
<polygon fill="#757575" stroke="#757575" points="1474.73,-203.4 1464.21,-204.68 1473.23,-210.24 1474.73,-203.4"/>
</g>
<!-- services/generic&#45;node/data&#45;versioning.ts -->
<g id="node4" class="node">
<title>services/generic&#45;node/data&#45;versioning.ts</title>
<path fill="none" stroke="#ff6c60" d="M1202.33,-204.62C1202.33,-204.62 945.67,-204.62 945.67,-204.62 941.83,-204.62 938,-200.79 938,-196.96 938,-196.96 938,-189.29 938,-189.29 938,-185.46 941.83,-181.62 945.67,-181.62 945.67,-181.62 1202.33,-181.62 1202.33,-181.62 1206.17,-181.62 1210,-185.46 1210,-189.29 1210,-189.29 1210,-196.96 1210,-196.96 1210,-200.79 1206.17,-204.62 1202.33,-204.62"/>
<text text-anchor="middle" x="1074" y="-189.42" font-family="Arial" font-size="14.00" fill="#ff6c60">services/generic&#45;node/data&#45;versioning.ts</text>
</g>
<!-- services/generic&#45;node/data&#45;versioning.ts&#45;&gt;services/generic&#45;node/typing/generic&#45;node&#45;type.ts -->
<g id="edge3" class="edge">
<title>services/generic&#45;node/data&#45;versioning.ts&#45;&gt;services/generic&#45;node/typing/generic&#45;node&#45;type.ts</title>
<path fill="none" stroke="#757575" d="M1210.41,-193.12C1218.81,-193.12 1227.33,-193.12 1235.87,-193.12"/>
<polygon fill="#757575" stroke="#757575" points="1235.9,-196.62 1245.9,-193.12 1235.9,-189.62 1235.9,-196.62"/>
</g>
<!-- services/generic&#45;node/element&#45;node.ts -->
<g id="node6" class="node">
<title>services/generic&#45;node/element&#45;node.ts</title>
<path fill="none" stroke="#ff6c60" d="M1871.33,-204.62C1871.33,-204.62 1622.67,-204.62 1622.67,-204.62 1618.83,-204.62 1615,-200.79 1615,-196.96 1615,-196.96 1615,-189.29 1615,-189.29 1615,-185.46 1618.83,-181.62 1622.67,-181.62 1622.67,-181.62 1871.33,-181.62 1871.33,-181.62 1875.17,-181.62 1879,-185.46 1879,-189.29 1879,-189.29 1879,-196.96 1879,-196.96 1879,-200.79 1875.17,-204.62 1871.33,-204.62"/>
<text text-anchor="middle" x="1747" y="-189.42" font-family="Arial" font-size="14.00" fill="#ff6c60">services/generic&#45;node/element&#45;node.ts</text>
</g>
<!-- services/generic&#45;node/typing/generic&#45;node&#45;type.ts&#45;&gt;services/generic&#45;node/element&#45;node.ts -->
<g id="edge23" class="edge">
<title>services/generic&#45;node/typing/generic&#45;node&#45;type.ts&#45;&gt;services/generic&#45;node/element&#45;node.ts</title>
<path fill="none" stroke="#757575" d="M1579.26,-186.37C1587.71,-186.37 1596.15,-186.39 1604.51,-186.44"/>
<polygon fill="#757575" stroke="#757575" points="1604.63,-189.94 1614.66,-186.51 1604.68,-182.94 1604.63,-189.94"/>
</g>
<!-- services/generic&#45;node/node&#45;event.ts -->
<g id="node9" class="node">
<title>services/generic&#45;node/node&#45;event.ts</title>
<path fill="none" stroke="#ff6c60" d="M2185.83,-165.62C2185.83,-165.62 1953.17,-165.62 1953.17,-165.62 1949.33,-165.62 1945.5,-161.79 1945.5,-157.96 1945.5,-157.96 1945.5,-150.29 1945.5,-150.29 1945.5,-146.46 1949.33,-142.62 1953.17,-142.62 1953.17,-142.62 2185.83,-142.62 2185.83,-142.62 2189.67,-142.62 2193.5,-146.46 2193.5,-150.29 2193.5,-150.29 2193.5,-157.96 2193.5,-157.96 2193.5,-161.79 2189.67,-165.62 2185.83,-165.62"/>
<text text-anchor="middle" x="2069.5" y="-150.42" font-family="Arial" font-size="14.00" fill="#ff6c60">services/generic&#45;node/node&#45;event.ts</text>
</g>
<!-- services/generic&#45;node/typing/generic&#45;node&#45;type.ts&#45;&gt;services/generic&#45;node/node&#45;event.ts -->
<g id="edge24" class="edge">
<title>services/generic&#45;node/typing/generic&#45;node&#45;type.ts&#45;&gt;services/generic&#45;node/node&#45;event.ts</title>
<path fill="none" stroke="#757575" d="M1517.99,-181.61C1549.17,-178.48 1583.44,-175.35 1615,-173.12 1722.59,-165.53 1844.76,-160.63 1935.18,-157.71"/>
<polygon fill="#757575" stroke="#757575" points="1935.32,-161.2 1945.21,-157.39 1935.1,-154.21 1935.32,-161.2"/>
</g>
<!-- services/generic&#45;node/element&#45;node.ts&#45;&gt;services/generic&#45;node/typing/generic&#45;node&#45;type.ts -->
<g id="edge7" class="edge">
<title>services/generic&#45;node/element&#45;node.ts&#45;&gt;services/generic&#45;node/typing/generic&#45;node&#45;type.ts</title>
<path fill="none" stroke="#757575" d="M1614.66,-199.74C1606.29,-199.8 1597.8,-199.84 1589.28,-199.86"/>
<polygon fill="#757575" stroke="#757575" points="1589.26,-196.36 1579.26,-199.87 1589.27,-203.36 1589.26,-196.36"/>
</g>
<!-- services/generic&#45;node/element&#45;node.ts&#45;&gt;services/generic&#45;node/generic&#45;store/actions.ts -->
<g id="edge4" class="edge">
<title>services/generic&#45;node/element&#45;node.ts&#45;&gt;services/generic&#45;node/generic&#45;store/actions.ts</title>
<path fill="none" stroke="#757575" d="M1838.13,-204.65C1878.67,-209.84 1926.66,-215.98 1968.32,-221.31"/>
<polygon fill="#757575" stroke="#757575" points="1968.13,-224.81 1978.49,-222.61 1969.02,-217.87 1968.13,-224.81"/>
</g>
<!-- services/generic&#45;node/element&#45;node.ts&#45;&gt;services/generic&#45;node/generic&#45;store/reference.ts -->
<g id="edge5" class="edge">
<title>services/generic&#45;node/element&#45;node.ts&#45;&gt;services/generic&#45;node/generic&#45;store/reference.ts</title>
<path fill="none" stroke="#757575" d="M1879.03,-194.01C1974.9,-193.25 2107.94,-189.23 2224,-175.12 2272.89,-169.18 2327.65,-157.44 2367.18,-148.04"/>
<polygon fill="#757575" stroke="#757575" points="2368.23,-151.38 2377.14,-145.64 2366.59,-144.58 2368.23,-151.38"/>
</g>
<!-- services/generic&#45;node/element&#45;node.ts&#45;&gt;services/generic&#45;node/node&#45;event.ts -->
<g id="edge6" class="edge">
<title>services/generic&#45;node/element&#45;node.ts&#45;&gt;services/generic&#45;node/node&#45;event.ts</title>
<path fill="none" stroke="#757575" d="M1842.86,-181.58C1880.82,-176.96 1924.68,-171.62 1963.58,-166.89"/>
<polygon fill="#757575" stroke="#757575" points="1964.38,-170.32 1973.88,-165.64 1963.53,-163.37 1964.38,-170.32"/>
</g>
<!-- services/generic&#45;node/generic&#45;store/actions.ts&#45;&gt;services/generic&#45;node/typing/frontend&#45;events.ts -->
<g id="edge14" class="edge">
<title>services/generic&#45;node/generic&#45;store/actions.ts&#45;&gt;services/generic&#45;node/typing/frontend&#45;events.ts</title>
<path fill="none" stroke="#757575" d="M2113.6,-245.65C2177.99,-262.87 2299.16,-295.27 2368.92,-313.93"/>
<polygon fill="#757575" stroke="#757575" points="2368.26,-317.37 2378.82,-316.58 2370.07,-310.61 2368.26,-317.37"/>
</g>
<!-- services/generic&#45;node/generic&#45;store/actions.ts&#45;&gt;services/generic&#45;node/typing/generic&#45;node&#45;type.ts -->
<g id="edge15" class="edge">
<title>services/generic&#45;node/generic&#45;store/actions.ts&#45;&gt;services/generic&#45;node/typing/generic&#45;node&#45;type.ts</title>
<path fill="none" stroke="#757575" d="M1914.87,-229.63C1826.98,-226.49 1714.72,-221.51 1615,-214.12 1584.98,-211.9 1552.52,-208.81 1522.6,-205.69"/>
<polygon fill="#757575" stroke="#757575" points="1522.86,-202.2 1512.55,-204.64 1522.13,-209.16 1522.86,-202.2"/>
</g>
<!-- services/generic&#45;node/generic&#45;store/actions.ts&#45;&gt;services/generic&#45;node/generic&#45;store/reference.ts -->
<g id="edge13" class="edge">
<title>services/generic&#45;node/generic&#45;store/actions.ts&#45;&gt;services/generic&#45;node/generic&#45;store/reference.ts</title>
<path fill="none" stroke="#757575" d="M2155.97,-222.6C2178.3,-218.79 2202.21,-213.98 2224,-208.12 2282.31,-192.44 2347.47,-166.34 2386.58,-149.7"/>
<polygon fill="#757575" stroke="#757575" points="2388.13,-152.84 2395.94,-145.68 2385.37,-146.41 2388.13,-152.84"/>
</g>
<!-- services/generic&#45;node/generic&#45;store/reference.ts&#45;&gt;services/generic&#45;node/typing/generic&#45;node&#45;type.ts -->
<g id="edge16" class="edge">
<title>services/generic&#45;node/generic&#45;store/reference.ts&#45;&gt;services/generic&#45;node/typing/generic&#45;node&#45;type.ts</title>
<path fill="none" stroke="#757575" d="M2259.72,-128.66C2096.23,-125.43 1837.06,-126.51 1615,-155.12 1567.8,-161.2 1514.96,-171.29 1475.23,-179.55"/>
<polygon fill="#757575" stroke="#757575" points="1474.49,-176.13 1465.42,-181.61 1475.93,-182.98 1474.49,-176.13"/>
</g>
<!-- services/generic&#45;node/node&#45;event.ts&#45;&gt;services/generic&#45;node/generic&#45;store/reference.ts -->
<g id="edge20" class="edge">
<title>services/generic&#45;node/node&#45;event.ts&#45;&gt;services/generic&#45;node/generic&#45;store/reference.ts</title>
<path fill="none" stroke="#757575" d="M2193.93,-147.1C2212.04,-146.07 2230.97,-144.99 2249.84,-143.92"/>
<polygon fill="#757575" stroke="#757575" points="2250.21,-147.4 2260,-143.34 2249.82,-140.41 2250.21,-147.4"/>
</g>
<!-- services/generic&#45;node/node&#45;event.ts&#45;&gt;services/generic&#45;node/generic&#45;store/selectors.ts -->
<g id="edge21" class="edge">
<title>services/generic&#45;node/node&#45;event.ts&#45;&gt;services/generic&#45;node/generic&#45;store/selectors.ts</title>
<path fill="none" stroke="#757575" d="M1945.39,-154.03C1707.48,-153.85 1184.16,-153.46 912.58,-153.25"/>
<polygon fill="#757575" stroke="#757575" points="912.23,-149.75 902.23,-153.24 912.23,-156.75 912.23,-149.75"/>
</g>
<!-- services/generic&#45;node/generic&#45;store/selectors.ts&#45;&gt;services/generic&#45;node/data&#45;versioning.ts -->
<g id="edge17" class="edge">
<title>services/generic&#45;node/generic&#45;store/selectors.ts&#45;&gt;services/generic&#45;node/data&#45;versioning.ts</title>
<path fill="none" stroke="#757575" d="M836.94,-164.64C877.84,-169.57 925.76,-175.36 967.7,-180.42"/>
<polygon fill="#757575" stroke="#757575" points="967.31,-183.89 977.66,-181.62 968.15,-176.95 967.31,-183.89"/>
</g>
<!-- services/generic&#45;node/generic&#45;store/selectors.ts&#45;&gt;services/generic&#45;node/typing/generic&#45;node&#45;type.ts -->
<g id="edge19" class="edge">
<title>services/generic&#45;node/generic&#45;store/selectors.ts&#45;&gt;services/generic&#45;node/typing/generic&#45;node&#45;type.ts</title>
<path fill="none" stroke="#757575" d="M902.08,-157.74C992.59,-160.91 1107.68,-165.87 1210,-173.12 1238.03,-175.11 1268.2,-177.81 1296.44,-180.57"/>
<polygon fill="#757575" stroke="#757575" points="1296.46,-184.09 1306.75,-181.6 1297.15,-177.13 1296.46,-184.09"/>
</g>
<!-- services/generic&#45;node/generic&#45;store/selectors.ts&#45;&gt;services/generic&#45;node/generic&#45;store/reference.ts -->
<g id="edge18" class="edge">
<title>services/generic&#45;node/generic&#45;store/selectors.ts&#45;&gt;services/generic&#45;node/generic&#45;store/reference.ts</title>
<path fill="none" stroke="#757575" d="M781.12,-141.56C884.1,-112.58 1169.03,-39.12 1411.5,-39.12 1411.5,-39.12 1411.5,-39.12 1748,-39.12 1977.93,-39.12 2247.71,-94 2363.93,-120.34"/>
<polygon fill="#757575" stroke="#757575" points="2363.17,-123.76 2373.7,-122.57 2364.72,-116.93 2363.17,-123.76"/>
</g>
</g>
</svg>
