<?xml version="1.0" encoding="UTF-8" standalone="no"?>
<!DOCTYPE svg PUBLIC "-//W3C//DTD SVG 1.1//EN"
 "http://www.w3.org/Graphics/SVG/1.1/DTD/svg11.dtd">
<!-- Generated by graphviz version 5.0.1 (20220820.1526)
 -->
<!-- Title: G Pages: 1 -->
<svg width="2686pt" height="1796pt"
 viewBox="0.00 0.00 2686.20 1796.48" xmlns="http://www.w3.org/2000/svg" xmlns:xlink="http://www.w3.org/1999/xlink">
<g id="graph0" class="graph" transform="scale(1 1) rotate(0) translate(21.6 1774.88)">
<title>G</title>
<polygon fill="#111111" stroke="none" points="-21.6,21.6 -21.6,-1774.88 2664.6,-1774.88 2664.6,21.6 -21.6,21.6"/>
<!-- models/action.ts -->
<g id="node1" class="node">
<title>models/action.ts</title>
<path fill="none" stroke="#cfffac" d="M2075.33,-1125.28C2075.33,-1125.28 1970.67,-1125.28 1970.67,-1125.28 1966.83,-1125.28 1963,-1121.45 1963,-1117.61 1963,-1117.61 1963,-1109.95 1963,-1109.95 1963,-1106.11 1966.83,-1102.28 1970.67,-1102.28 1970.67,-1102.28 2075.33,-1102.28 2075.33,-1102.28 2079.17,-1102.28 2083,-1106.11 2083,-1109.95 2083,-1109.95 2083,-1117.61 2083,-1117.61 2083,-1121.45 2079.17,-1125.28 2075.33,-1125.28"/>
<text text-anchor="middle" x="2023" y="-1110.08" font-family="Arial" font-size="14.00" fill="#cfffac">models/action.ts</text>
</g>
<!-- models/battery.ts -->
<g id="node2" class="node">
<title>models/battery.ts</title>
<path fill="none" stroke="#cfffac" d="M1621.83,-273.28C1621.83,-273.28 1512.17,-273.28 1512.17,-273.28 1508.33,-273.28 1504.5,-269.45 1504.5,-265.61 1504.5,-265.61 1504.5,-257.95 1504.5,-257.95 1504.5,-254.11 1508.33,-250.28 1512.17,-250.28 1512.17,-250.28 1621.83,-250.28 1621.83,-250.28 1625.67,-250.28 1629.5,-254.11 1629.5,-257.95 1629.5,-257.95 1629.5,-265.61 1629.5,-265.61 1629.5,-269.45 1625.67,-273.28 1621.83,-273.28"/>
<text text-anchor="middle" x="1567" y="-258.08" font-family="Arial" font-size="14.00" fill="#cfffac">models/battery.ts</text>
</g>
<!-- models/connection&#45;response.ts -->
<g id="node3" class="node">
<title>models/connection&#45;response.ts</title>
<path fill="none" stroke="#cfffac" d="M2635.33,-1006.28C2635.33,-1006.28 2434.67,-1006.28 2434.67,-1006.28 2430.83,-1006.28 2427,-1002.45 2427,-998.61 2427,-998.61 2427,-990.95 2427,-990.95 2427,-987.11 2430.83,-983.28 2434.67,-983.28 2434.67,-983.28 2635.33,-983.28 2635.33,-983.28 2639.17,-983.28 2643,-987.11 2643,-990.95 2643,-990.95 2643,-998.61 2643,-998.61 2643,-1002.45 2639.17,-1006.28 2635.33,-1006.28"/>
<text text-anchor="middle" x="2535" y="-991.08" font-family="Arial" font-size="14.00" fill="#cfffac">models/connection&#45;response.ts</text>
</g>
<!-- models/connection.ts -->
<g id="node4" class="node">
<title>models/connection.ts</title>
<path fill="none" stroke="#c6c5fe" d="M1635.33,-505.28C1635.33,-505.28 1498.67,-505.28 1498.67,-505.28 1494.83,-505.28 1491,-501.45 1491,-497.61 1491,-497.61 1491,-489.95 1491,-489.95 1491,-486.11 1494.83,-482.28 1498.67,-482.28 1498.67,-482.28 1635.33,-482.28 1635.33,-482.28 1639.17,-482.28 1643,-486.11 1643,-489.95 1643,-489.95 1643,-497.61 1643,-497.61 1643,-501.45 1639.17,-505.28 1635.33,-505.28"/>
<text text-anchor="middle" x="1567" y="-490.08" font-family="Arial" font-size="14.00" fill="#c6c5fe">models/connection.ts</text>
</g>
<!-- models/receiver&#45;data.ts -->
<g id="node5" class="node">
<title>models/receiver&#45;data.ts</title>
<path fill="none" stroke="#c6c5fe" d="M2097.83,-1004.28C2097.83,-1004.28 1948.17,-1004.28 1948.17,-1004.28 1944.33,-1004.28 1940.5,-1000.45 1940.5,-996.61 1940.5,-996.61 1940.5,-988.95 1940.5,-988.95 1940.5,-985.11 1944.33,-981.28 1948.17,-981.28 1948.17,-981.28 2097.83,-981.28 2097.83,-981.28 2101.67,-981.28 2105.5,-985.11 2105.5,-988.95 2105.5,-988.95 2105.5,-996.61 2105.5,-996.61 2105.5,-1000.45 2101.67,-1004.28 2097.83,-1004.28"/>
<text text-anchor="middle" x="2023" y="-989.08" font-family="Arial" font-size="14.00" fill="#c6c5fe">models/receiver&#45;data.ts</text>
</g>
<!-- models/connection.ts&#45;&gt;models/receiver&#45;data.ts -->
<g id="edge1" class="edge">
<title>models/connection.ts&#45;&gt;models/receiver&#45;data.ts</title>
<path fill="none" stroke="#757575" d="M1582.19,-505.54C1605.67,-525.21 1653.7,-566.43 1691,-604.78 1821.06,-738.51 1961.23,-914.92 2006.78,-973.18"/>
<polygon fill="#757575" stroke="#757575" points="2004.13,-975.47 2013.04,-981.2 2009.65,-971.16 2004.13,-975.47"/>
</g>
<!-- models/receiver.ts -->
<g id="node6" class="node">
<title>models/receiver.ts</title>
<path fill="none" stroke="#c6c5fe" d="M1863.83,-1088.28C1863.83,-1088.28 1745.17,-1088.28 1745.17,-1088.28 1741.33,-1088.28 1737.5,-1084.45 1737.5,-1080.61 1737.5,-1080.61 1737.5,-1072.95 1737.5,-1072.95 1737.5,-1069.11 1741.33,-1065.28 1745.17,-1065.28 1745.17,-1065.28 1863.83,-1065.28 1863.83,-1065.28 1867.67,-1065.28 1871.5,-1069.11 1871.5,-1072.95 1871.5,-1072.95 1871.5,-1080.61 1871.5,-1080.61 1871.5,-1084.45 1867.67,-1088.28 1863.83,-1088.28"/>
<text text-anchor="middle" x="1804.5" y="-1073.08" font-family="Arial" font-size="14.00" fill="#c6c5fe">models/receiver.ts</text>
</g>
<!-- models/connection.ts&#45;&gt;models/receiver.ts -->
<g id="edge2" class="edge">
<title>models/connection.ts&#45;&gt;models/receiver.ts</title>
<path fill="none" stroke="#757575" d="M1588.4,-505.39C1616.93,-522.85 1667.83,-558.8 1691,-604.78 1765.36,-752.32 1667.22,-820.76 1727,-974.78 1739.74,-1007.61 1766.19,-1039.02 1784.39,-1058.11"/>
<polygon fill="#757575" stroke="#757575" points="1781.89,-1060.56 1791.38,-1065.26 1786.9,-1055.67 1781.89,-1060.56"/>
</g>
<!-- models/transformation.ts -->
<g id="node7" class="node">
<title>models/transformation.ts</title>
<path fill="none" stroke="#cfffac" d="M2101.83,-271.28C2101.83,-271.28 1944.17,-271.28 1944.17,-271.28 1940.33,-271.28 1936.5,-267.45 1936.5,-263.61 1936.5,-263.61 1936.5,-255.95 1936.5,-255.95 1936.5,-252.11 1940.33,-248.28 1944.17,-248.28 1944.17,-248.28 2101.83,-248.28 2101.83,-248.28 2105.67,-248.28 2109.5,-252.11 2109.5,-255.95 2109.5,-255.95 2109.5,-263.61 2109.5,-263.61 2109.5,-267.45 2105.67,-271.28 2101.83,-271.28"/>
<text text-anchor="middle" x="2023" y="-256.08" font-family="Arial" font-size="14.00" fill="#cfffac">models/transformation.ts</text>
</g>
<!-- models/connection.ts&#45;&gt;models/transformation.ts -->
<g id="edge3" class="edge">
<title>models/connection.ts&#45;&gt;models/transformation.ts</title>
<path fill="none" stroke="#757575" d="M1590.51,-482.18C1665.1,-443.73 1904.27,-320.46 1990.57,-275.98"/>
<polygon fill="#757575" stroke="#757575" points="1992.33,-279.01 1999.62,-271.32 1989.13,-272.79 1992.33,-279.01"/>
</g>
<!-- models/transformer.ts -->
<g id="node8" class="node">
<title>models/transformer.ts</title>
<path fill="none" stroke="#c6c5fe" d="M1874.33,-311.28C1874.33,-311.28 1734.67,-311.28 1734.67,-311.28 1730.83,-311.28 1727,-307.45 1727,-303.61 1727,-303.61 1727,-295.95 1727,-295.95 1727,-292.11 1730.83,-288.28 1734.67,-288.28 1734.67,-288.28 1874.33,-288.28 1874.33,-288.28 1878.17,-288.28 1882,-292.11 1882,-295.95 1882,-295.95 1882,-303.61 1882,-303.61 1882,-307.45 1878.17,-311.28 1874.33,-311.28"/>
<text text-anchor="middle" x="1804.5" y="-296.08" font-family="Arial" font-size="14.00" fill="#c6c5fe">models/transformer.ts</text>
</g>
<!-- models/connection.ts&#45;&gt;models/transformer.ts -->
<g id="edge4" class="edge">
<title>models/connection.ts&#45;&gt;models/transformer.ts</title>
<path fill="none" stroke="#757575" d="M1586.12,-482.05C1611.88,-464.71 1659.43,-430.11 1691,-391.78 1712.24,-365.99 1701.43,-347.29 1727,-325.78 1731.79,-321.75 1737.23,-318.33 1742.96,-315.44"/>
<polygon fill="#757575" stroke="#757575" points="1744.45,-318.61 1752.13,-311.31 1741.58,-312.23 1744.45,-318.61"/>
</g>
<!-- models/receiver&#45;data.ts&#45;&gt;models/connection&#45;response.ts -->
<g id="edge8" class="edge">
<title>models/receiver&#45;data.ts&#45;&gt;models/connection&#45;response.ts</title>
<path fill="none" stroke="#757575" d="M2105.66,-993.1C2189.69,-993.43 2321.41,-993.95 2416.6,-994.32"/>
<polygon fill="#757575" stroke="#757575" points="2416.85,-997.82 2426.86,-994.36 2416.87,-990.82 2416.85,-997.82"/>
</g>
<!-- models/evaluated&#45;data.ts -->
<g id="node9" class="node">
<title>models/evaluated&#45;data.ts</title>
<path fill="none" stroke="#c6c5fe" d="M2357.33,-1087.28C2357.33,-1087.28 2197.67,-1087.28 2197.67,-1087.28 2193.83,-1087.28 2190,-1083.45 2190,-1079.61 2190,-1079.61 2190,-1071.95 2190,-1071.95 2190,-1068.11 2193.83,-1064.28 2197.67,-1064.28 2197.67,-1064.28 2357.33,-1064.28 2357.33,-1064.28 2361.17,-1064.28 2365,-1068.11 2365,-1071.95 2365,-1071.95 2365,-1079.61 2365,-1079.61 2365,-1083.45 2361.17,-1087.28 2357.33,-1087.28"/>
<text text-anchor="middle" x="2277.5" y="-1072.08" font-family="Arial" font-size="14.00" fill="#c6c5fe">models/evaluated&#45;data.ts</text>
</g>
<!-- models/receiver&#45;data.ts&#45;&gt;models/evaluated&#45;data.ts -->
<g id="edge9" class="edge">
<title>models/receiver&#45;data.ts&#45;&gt;models/evaluated&#45;data.ts</title>
<path fill="none" stroke="#757575" d="M2092.61,-1004.32C2104.85,-1007.93 2117.15,-1012.64 2128,-1018.78 2147.69,-1029.93 2143.98,-1044.23 2164,-1054.78 2169.18,-1057.51 2174.66,-1059.89 2180.3,-1061.96"/>
<polygon fill="#757575" stroke="#757575" points="2179.32,-1065.33 2189.91,-1065.17 2181.54,-1058.69 2179.32,-1065.33"/>
</g>
<!-- models/sound.ts -->
<g id="node14" class="node">
<title>models/sound.ts</title>
<path fill="none" stroke="#cfffac" d="M2330.83,-966.28C2330.83,-966.28 2224.17,-966.28 2224.17,-966.28 2220.33,-966.28 2216.5,-962.45 2216.5,-958.61 2216.5,-958.61 2216.5,-950.95 2216.5,-950.95 2216.5,-947.11 2220.33,-943.28 2224.17,-943.28 2224.17,-943.28 2330.83,-943.28 2330.83,-943.28 2334.67,-943.28 2338.5,-947.11 2338.5,-950.95 2338.5,-950.95 2338.5,-958.61 2338.5,-958.61 2338.5,-962.45 2334.67,-966.28 2330.83,-966.28"/>
<text text-anchor="middle" x="2277.5" y="-951.08" font-family="Arial" font-size="14.00" fill="#cfffac">models/sound.ts</text>
</g>
<!-- models/receiver&#45;data.ts&#45;&gt;models/sound.ts -->
<g id="edge10" class="edge">
<title>models/receiver&#45;data.ts&#45;&gt;models/sound.ts</title>
<path fill="none" stroke="#757575" d="M2100.44,-981.28C2134.12,-976.21 2173.42,-970.29 2206.34,-965.34"/>
<polygon fill="#757575" stroke="#757575" points="2206.97,-968.78 2216.34,-963.83 2205.93,-961.86 2206.97,-968.78"/>
</g>
<!-- util/types.d.ts -->
<g id="node15" class="node">
<title>util/types.d.ts</title>
<path fill="none" stroke="#cfffac" d="M2319.33,-1046.28C2319.33,-1046.28 2235.67,-1046.28 2235.67,-1046.28 2231.83,-1046.28 2228,-1042.45 2228,-1038.61 2228,-1038.61 2228,-1030.95 2228,-1030.95 2228,-1027.11 2231.83,-1023.28 2235.67,-1023.28 2235.67,-1023.28 2319.33,-1023.28 2319.33,-1023.28 2323.17,-1023.28 2327,-1027.11 2327,-1030.95 2327,-1030.95 2327,-1038.61 2327,-1038.61 2327,-1042.45 2323.17,-1046.28 2319.33,-1046.28"/>
<text text-anchor="middle" x="2277.5" y="-1031.08" font-family="Arial" font-size="14.00" fill="#cfffac">util/types.d.ts</text>
</g>
<!-- models/receiver&#45;data.ts&#45;&gt;util/types.d.ts -->
<g id="edge11" class="edge">
<title>models/receiver&#45;data.ts&#45;&gt;util/types.d.ts</title>
<path fill="none" stroke="#757575" d="M2093.33,-1004.31C2132.3,-1010.79 2180.42,-1018.8 2217.55,-1024.98"/>
<polygon fill="#757575" stroke="#757575" points="2217.28,-1028.48 2227.72,-1026.67 2218.43,-1021.57 2217.28,-1028.48"/>
</g>
<!-- models/receiver.ts&#45;&gt;models/action.ts -->
<g id="edge12" class="edge">
<title>models/receiver.ts&#45;&gt;models/action.ts</title>
<path fill="none" stroke="#757575" d="M1871.63,-1088.08C1897.32,-1092.47 1926.76,-1097.5 1952.74,-1101.94"/>
<polygon fill="#757575" stroke="#757575" points="1952.44,-1105.44 1962.89,-1103.68 1953.62,-1098.54 1952.44,-1105.44"/>
</g>
<!-- models/receiver.ts&#45;&gt;models/receiver&#45;data.ts -->
<g id="edge14" class="edge">
<title>models/receiver.ts&#45;&gt;models/receiver&#45;data.ts</title>
<path fill="none" stroke="#757575" d="M1849.3,-1065.23C1860.36,-1061.43 1871.94,-1056.64 1882,-1050.78 1900.5,-1040.01 1899.07,-1028.78 1918,-1018.78 1926.7,-1014.19 1936.25,-1010.38 1945.91,-1007.23"/>
<polygon fill="#757575" stroke="#757575" points="1947.04,-1010.55 1955.59,-1004.3 1945.01,-1003.85 1947.04,-1010.55"/>
</g>
<!-- models/receiver.ts&#45;&gt;models/evaluated&#45;data.ts -->
<g id="edge13" class="edge">
<title>models/receiver.ts&#45;&gt;models/evaluated&#45;data.ts</title>
<path fill="none" stroke="#757575" d="M1847.07,-1065.26C1868.14,-1060.01 1894.23,-1054.39 1918,-1051.78 2010.78,-1041.6 2034.97,-1044.31 2128,-1051.78 2154.66,-1053.92 2183.75,-1058.19 2209.07,-1062.54"/>
<polygon fill="#757575" stroke="#757575" points="2208.48,-1065.99 2218.93,-1064.27 2209.69,-1059.1 2208.48,-1065.99"/>
</g>
<!-- models/receiver&#45;event.ts -->
<g id="node16" class="node">
<title>models/receiver&#45;event.ts</title>
<path fill="none" stroke="#cfffac" d="M2101.83,-1205.28C2101.83,-1205.28 1944.17,-1205.28 1944.17,-1205.28 1940.33,-1205.28 1936.5,-1201.45 1936.5,-1197.61 1936.5,-1197.61 1936.5,-1189.95 1936.5,-1189.95 1936.5,-1186.11 1940.33,-1182.28 1944.17,-1182.28 1944.17,-1182.28 2101.83,-1182.28 2101.83,-1182.28 2105.67,-1182.28 2109.5,-1186.11 2109.5,-1189.95 2109.5,-1189.95 2109.5,-1197.61 2109.5,-1197.61 2109.5,-1201.45 2105.67,-1205.28 2101.83,-1205.28"/>
<text text-anchor="middle" x="2023" y="-1190.08" font-family="Arial" font-size="14.00" fill="#cfffac">models/receiver&#45;event.ts</text>
</g>
<!-- models/receiver.ts&#45;&gt;models/receiver&#45;event.ts -->
<g id="edge15" class="edge">
<title>models/receiver.ts&#45;&gt;models/receiver&#45;event.ts</title>
<path fill="none" stroke="#757575" d="M1816.45,-1088.48C1835.31,-1107.92 1875.96,-1146.82 1918,-1167.78 1927.21,-1172.37 1937.3,-1176.2 1947.46,-1179.37"/>
<polygon fill="#757575" stroke="#757575" points="1946.61,-1182.77 1957.19,-1182.21 1948.57,-1176.05 1946.61,-1182.77"/>
</g>
<!-- services/firebasemessaging.ts -->
<g id="node17" class="node">
<title>services/firebasemessaging.ts</title>
<path fill="none" stroke="#cfffac" d="M2120.33,-1084.28C2120.33,-1084.28 1925.67,-1084.28 1925.67,-1084.28 1921.83,-1084.28 1918,-1080.45 1918,-1076.61 1918,-1076.61 1918,-1068.95 1918,-1068.95 1918,-1065.11 1921.83,-1061.28 1925.67,-1061.28 1925.67,-1061.28 2120.33,-1061.28 2120.33,-1061.28 2124.17,-1061.28 2128,-1065.11 2128,-1068.95 2128,-1068.95 2128,-1076.61 2128,-1076.61 2128,-1080.45 2124.17,-1084.28 2120.33,-1084.28"/>
<text text-anchor="middle" x="2023" y="-1069.08" font-family="Arial" font-size="14.00" fill="#cfffac">services/firebasemessaging.ts</text>
</g>
<!-- models/receiver.ts&#45;&gt;services/firebasemessaging.ts -->
<g id="edge16" class="edge">
<title>models/receiver.ts&#45;&gt;services/firebasemessaging.ts</title>
<path fill="none" stroke="#757575" d="M1871.63,-1075.56C1883.1,-1075.35 1895.31,-1075.12 1907.62,-1074.89"/>
<polygon fill="#757575" stroke="#757575" points="1908.05,-1078.39 1917.98,-1074.7 1907.92,-1071.39 1908.05,-1078.39"/>
</g>
<!-- services/websocketmessaging.ts -->
<g id="node18" class="node">
<title>services/websocketmessaging.ts</title>
<path fill="none" stroke="#c6c5fe" d="M2383.33,-1153.28C2383.33,-1153.28 2171.67,-1153.28 2171.67,-1153.28 2167.83,-1153.28 2164,-1149.45 2164,-1145.61 2164,-1145.61 2164,-1137.95 2164,-1137.95 2164,-1134.11 2167.83,-1130.28 2171.67,-1130.28 2171.67,-1130.28 2383.33,-1130.28 2383.33,-1130.28 2387.17,-1130.28 2391,-1134.11 2391,-1137.95 2391,-1137.95 2391,-1145.61 2391,-1145.61 2391,-1149.45 2387.17,-1153.28 2383.33,-1153.28"/>
<text text-anchor="middle" x="2277.5" y="-1138.08" font-family="Arial" font-size="14.00" fill="#c6c5fe">services/websocketmessaging.ts</text>
</g>
<!-- models/receiver.ts&#45;&gt;services/websocketmessaging.ts -->
<g id="edge17" class="edge">
<title>models/receiver.ts&#45;&gt;services/websocketmessaging.ts</title>
<path fill="none" stroke="#757575" d="M1822.46,-1088.45C1843.69,-1102.3 1881.68,-1124.68 1918,-1133.78 1994.69,-1153.01 2083.53,-1155.13 2153.58,-1152.38"/>
<polygon fill="#757575" stroke="#757575" points="2153.93,-1155.87 2163.77,-1151.94 2153.63,-1148.87 2153.93,-1155.87"/>
</g>
<!-- util/log.ts -->
<g id="node19" class="node">
<title>util/log.ts</title>
<path fill="none" stroke="#c6c5fe" d="M2051.33,-505.28C2051.33,-505.28 1994.67,-505.28 1994.67,-505.28 1990.83,-505.28 1987,-501.45 1987,-497.61 1987,-497.61 1987,-489.95 1987,-489.95 1987,-486.11 1990.83,-482.28 1994.67,-482.28 1994.67,-482.28 2051.33,-482.28 2051.33,-482.28 2055.17,-482.28 2059,-486.11 2059,-489.95 2059,-489.95 2059,-497.61 2059,-497.61 2059,-501.45 2055.17,-505.28 2051.33,-505.28"/>
<text text-anchor="middle" x="2023" y="-490.08" font-family="Arial" font-size="14.00" fill="#c6c5fe">util/log.ts</text>
</g>
<!-- models/receiver.ts&#45;&gt;util/log.ts -->
<g id="edge18" class="edge">
<title>models/receiver.ts&#45;&gt;util/log.ts</title>
<path fill="none" stroke="#757575" d="M1810.81,-1065.24C1823.69,-1037.07 1857.35,-962.46 1882,-898.78 1938.12,-753.81 1995.9,-575.68 2015.24,-515.1"/>
<polygon fill="#757575" stroke="#757575" points="2018.6,-516.08 2018.3,-505.49 2011.93,-513.96 2018.6,-516.08"/>
</g>
<!-- models/transformer.ts&#45;&gt;models/connection&#45;response.ts -->
<g id="edge26" class="edge">
<title>models/transformer.ts&#45;&gt;models/connection&#45;response.ts</title>
<path fill="none" stroke="#757575" d="M1882.12,-299.75C2006.9,-304.02 2253.83,-331.18 2391,-472.78 2463.41,-547.53 2517.58,-883.79 2530.86,-973"/>
<polygon fill="#757575" stroke="#757575" points="2527.42,-973.66 2532.34,-983.05 2534.34,-972.65 2527.42,-973.66"/>
</g>
<!-- models/transformer.ts&#45;&gt;models/transformation.ts -->
<g id="edge27" class="edge">
<title>models/transformer.ts&#45;&gt;models/transformation.ts</title>
<path fill="none" stroke="#757575" d="M1867.83,-288.26C1893.42,-283.54 1923.21,-278.03 1949.74,-273.13"/>
<polygon fill="#757575" stroke="#757575" points="1950.54,-276.54 1959.73,-271.28 1949.27,-269.66 1950.54,-276.54"/>
</g>
<!-- models/evaluated&#45;data.ts&#45;&gt;models/connection&#45;response.ts -->
<g id="edge5" class="edge">
<title>models/evaluated&#45;data.ts&#45;&gt;models/connection&#45;response.ts</title>
<path fill="none" stroke="#757575" d="M2352.56,-1064.28C2365.49,-1061.61 2378.72,-1058.46 2391,-1054.78 2430.16,-1043.06 2473.17,-1024.13 2501.69,-1010.67"/>
<polygon fill="#757575" stroke="#757575" points="2503.26,-1013.8 2510.78,-1006.34 2500.25,-1007.48 2503.26,-1013.8"/>
</g>
<!-- models/event.ts -->
<g id="node10" class="node">
<title>models/event.ts</title>
<path fill="none" stroke="#cfffac" d="M1617.83,-232.28C1617.83,-232.28 1516.17,-232.28 1516.17,-232.28 1512.33,-232.28 1508.5,-228.45 1508.5,-224.61 1508.5,-224.61 1508.5,-216.95 1508.5,-216.95 1508.5,-213.11 1512.33,-209.28 1516.17,-209.28 1516.17,-209.28 1617.83,-209.28 1617.83,-209.28 1621.67,-209.28 1625.5,-213.11 1625.5,-216.95 1625.5,-216.95 1625.5,-224.61 1625.5,-224.61 1625.5,-228.45 1621.67,-232.28 1617.83,-232.28"/>
<text text-anchor="middle" x="1567" y="-217.08" font-family="Arial" font-size="14.00" fill="#cfffac">models/event.ts</text>
</g>
<!-- models/inventory/item.ts -->
<g id="node11" class="node">
<title>models/inventory/item.ts</title>
<path fill="none" stroke="#c6c5fe" d="M1338.33,-820.28C1338.33,-820.28 1183.67,-820.28 1183.67,-820.28 1179.83,-820.28 1176,-816.45 1176,-812.61 1176,-812.61 1176,-804.95 1176,-804.95 1176,-801.11 1179.83,-797.28 1183.67,-797.28 1183.67,-797.28 1338.33,-797.28 1338.33,-797.28 1342.17,-797.28 1346,-801.11 1346,-804.95 1346,-804.95 1346,-812.61 1346,-812.61 1346,-816.45 1342.17,-820.28 1338.33,-820.28"/>
<text text-anchor="middle" x="1261" y="-805.08" font-family="Arial" font-size="14.00" fill="#c6c5fe">models/inventory/item.ts</text>
</g>
<!-- models/inventory/location.ts -->
<g id="node12" class="node">
<title>models/inventory/location.ts</title>
<path fill="none" stroke="#cfffac" d="M1654.83,-815.28C1654.83,-815.28 1479.17,-815.28 1479.17,-815.28 1475.33,-815.28 1471.5,-811.45 1471.5,-807.61 1471.5,-807.61 1471.5,-799.95 1471.5,-799.95 1471.5,-796.11 1475.33,-792.28 1479.17,-792.28 1479.17,-792.28 1654.83,-792.28 1654.83,-792.28 1658.67,-792.28 1662.5,-796.11 1662.5,-799.95 1662.5,-799.95 1662.5,-807.61 1662.5,-807.61 1662.5,-811.45 1658.67,-815.28 1654.83,-815.28"/>
<text text-anchor="middle" x="1567" y="-800.08" font-family="Arial" font-size="14.00" fill="#cfffac">models/inventory/location.ts</text>
</g>
<!-- models/inventory/item.ts&#45;&gt;models/inventory/location.ts -->
<g id="edge6" class="edge">
<title>models/inventory/item.ts&#45;&gt;models/inventory/location.ts</title>
<path fill="none" stroke="#757575" d="M1346.28,-807.39C1381.77,-806.81 1423.46,-806.12 1460.93,-805.51"/>
<polygon fill="#757575" stroke="#757575" points="1461.44,-809 1471.38,-805.34 1461.33,-802 1461.44,-809"/>
</g>
<!-- models/inventory/order.ts -->
<g id="node13" class="node">
<title>models/inventory/order.ts</title>
<path fill="none" stroke="#cfffac" d="M1647.33,-856.28C1647.33,-856.28 1486.67,-856.28 1486.67,-856.28 1482.83,-856.28 1479,-852.45 1479,-848.61 1479,-848.61 1479,-840.95 1479,-840.95 1479,-837.11 1482.83,-833.28 1486.67,-833.28 1486.67,-833.28 1647.33,-833.28 1647.33,-833.28 1651.17,-833.28 1655,-837.11 1655,-840.95 1655,-840.95 1655,-848.61 1655,-848.61 1655,-852.45 1651.17,-856.28 1647.33,-856.28"/>
<text text-anchor="middle" x="1567" y="-841.08" font-family="Arial" font-size="14.00" fill="#cfffac">models/inventory/order.ts</text>
</g>
<!-- models/inventory/item.ts&#45;&gt;models/inventory/order.ts -->
<g id="edge7" class="edge">
<title>models/inventory/item.ts&#45;&gt;models/inventory/order.ts</title>
<path fill="none" stroke="#757575" d="M1346.28,-818.76C1384.26,-823.26 1429.34,-828.6 1468.76,-833.26"/>
<polygon fill="#757575" stroke="#757575" points="1468.57,-836.77 1478.91,-834.47 1469.39,-829.82 1468.57,-836.77"/>
</g>
<!-- services/websocketmessaging.ts&#45;&gt;models/connection&#45;response.ts -->
<g id="edge86" class="edge">
<title>services/websocketmessaging.ts&#45;&gt;models/connection&#45;response.ts</title>
<path fill="none" stroke="#757575" d="M2312.4,-1130.21C2335.22,-1121.88 2365.65,-1109.68 2391,-1095.78 2436.21,-1070.99 2484.3,-1034.7 2511.59,-1013.04"/>
<polygon fill="#757575" stroke="#757575" points="2514.08,-1015.54 2519.7,-1006.56 2509.7,-1010.07 2514.08,-1015.54"/>
</g>
<!-- util/btoaatob.ts -->
<g id="node56" class="node">
<title>util/btoaatob.ts</title>
<path fill="none" stroke="#cfffac" d="M2323.83,-505.28C2323.83,-505.28 2231.17,-505.28 2231.17,-505.28 2227.33,-505.28 2223.5,-501.45 2223.5,-497.61 2223.5,-497.61 2223.5,-489.95 2223.5,-489.95 2223.5,-486.11 2227.33,-482.28 2231.17,-482.28 2231.17,-482.28 2323.83,-482.28 2323.83,-482.28 2327.67,-482.28 2331.5,-486.11 2331.5,-489.95 2331.5,-489.95 2331.5,-497.61 2331.5,-497.61 2331.5,-501.45 2327.67,-505.28 2323.83,-505.28"/>
<text text-anchor="middle" x="2277.5" y="-490.08" font-family="Arial" font-size="14.00" fill="#cfffac">util/btoaatob.ts</text>
</g>
<!-- util/log.ts&#45;&gt;util/btoaatob.ts -->
<g id="edge87" class="edge">
<title>util/log.ts&#45;&gt;util/btoaatob.ts</title>
<path fill="none" stroke="#757575" d="M2059.11,-493.78C2098.83,-493.78 2164.33,-493.78 2213.07,-493.78"/>
<polygon fill="#757575" stroke="#757575" points="2213.2,-497.28 2223.2,-493.78 2213.2,-490.28 2213.2,-497.28"/>
</g>
<!-- models/sender.ts -->
<g id="node20" class="node">
<title>models/sender.ts</title>
<path fill="none" stroke="#c6c5fe" d="M1316.83,-355.28C1316.83,-355.28 1205.17,-355.28 1205.17,-355.28 1201.33,-355.28 1197.5,-351.45 1197.5,-347.61 1197.5,-347.61 1197.5,-339.95 1197.5,-339.95 1197.5,-336.11 1201.33,-332.28 1205.17,-332.28 1205.17,-332.28 1316.83,-332.28 1316.83,-332.28 1320.67,-332.28 1324.5,-336.11 1324.5,-339.95 1324.5,-339.95 1324.5,-347.61 1324.5,-347.61 1324.5,-351.45 1320.67,-355.28 1316.83,-355.28"/>
<text text-anchor="middle" x="1261" y="-340.08" font-family="Arial" font-size="14.00" fill="#c6c5fe">models/sender.ts</text>
</g>
<!-- models/sender.ts&#45;&gt;models/battery.ts -->
<g id="edge19" class="edge">
<title>models/sender.ts&#45;&gt;models/battery.ts</title>
<path fill="none" stroke="#757575" d="M1324.81,-339.65C1351.14,-336.13 1381.5,-329.66 1407,-317.78 1425.88,-308.98 1424.26,-296.87 1443,-287.78 1458.84,-280.1 1476.91,-274.68 1494.24,-270.85"/>
<polygon fill="#757575" stroke="#757575" points="1495.23,-274.22 1504.33,-268.78 1493.83,-267.36 1495.23,-274.22"/>
</g>
<!-- models/sender.ts&#45;&gt;models/connection&#45;response.ts -->
<g id="edge20" class="edge">
<title>models/sender.ts&#45;&gt;models/connection&#45;response.ts</title>
<path fill="none" stroke="#757575" d="M1324.78,-333.8C1359.59,-328.33 1403.67,-321.52 1443,-315.78 1553.09,-299.72 1591.69,-331.93 1691,-281.78 1711.48,-271.44 1706.01,-254.04 1727,-244.78 1804.71,-210.52 1833.08,-240.11 1918,-238.78 2011.32,-237.31 2036.32,-221.31 2128,-238.78 2251.47,-262.31 2309.54,-247.05 2391,-342.78 2475.61,-442.2 2522.05,-871.64 2531.97,-973.19"/>
<polygon fill="#757575" stroke="#757575" points="2528.5,-973.58 2532.94,-983.2 2535.46,-972.91 2528.5,-973.58"/>
</g>
<!-- models/sender.ts&#45;&gt;models/connection.ts -->
<g id="edge21" class="edge">
<title>models/sender.ts&#45;&gt;models/connection.ts</title>
<path fill="none" stroke="#757575" d="M1285.35,-355.3C1339.06,-381.8 1471.51,-447.16 1533.29,-477.64"/>
<polygon fill="#757575" stroke="#757575" points="1532.05,-480.93 1542.57,-482.22 1535.15,-474.66 1532.05,-480.93"/>
</g>
<!-- models/sender.ts&#45;&gt;models/transformation.ts -->
<g id="edge23" class="edge">
<title>models/sender.ts&#45;&gt;models/transformation.ts</title>
<path fill="none" stroke="#757575" d="M1324.89,-345.14C1427.93,-346.48 1627.63,-345.01 1691,-315.78 1711.83,-306.17 1706.16,-288.38 1727,-278.78 1789.02,-250.21 1866.26,-246.2 1926.14,-248.95"/>
<polygon fill="#757575" stroke="#757575" points="1926.19,-252.45 1936.36,-249.49 1926.56,-245.46 1926.19,-252.45"/>
</g>
<!-- models/sender.ts&#45;&gt;models/transformer.ts -->
<g id="edge24" class="edge">
<title>models/sender.ts&#45;&gt;models/transformer.ts</title>
<path fill="none" stroke="#757575" d="M1309.33,-355.28C1390.16,-372.68 1558.87,-399.11 1691,-353.78 1710.17,-347.2 1709.16,-335.4 1727,-325.78 1734.72,-321.62 1743.22,-317.94 1751.67,-314.76"/>
<polygon fill="#757575" stroke="#757575" points="1752.91,-318.04 1761.15,-311.38 1750.55,-311.44 1752.91,-318.04"/>
</g>
<!-- models/sender.ts&#45;&gt;models/event.ts -->
<g id="edge22" class="edge">
<title>models/sender.ts&#45;&gt;models/event.ts</title>
<path fill="none" stroke="#757575" d="M1278.01,-332.02C1308.46,-310.27 1377.54,-263.88 1443,-240.78 1460.47,-234.61 1480.02,-230.34 1498.3,-227.37"/>
<polygon fill="#757575" stroke="#757575" points="1498.94,-230.81 1508.3,-225.86 1497.89,-223.89 1498.94,-230.81"/>
</g>
<!-- models/sender.ts&#45;&gt;util/log.ts -->
<g id="edge25" class="edge">
<title>models/sender.ts&#45;&gt;util/log.ts</title>
<path fill="none" stroke="#757575" d="M1313.71,-355.33C1349.82,-363.15 1399.2,-373.37 1443,-380.78 1637.11,-413.62 1691.3,-390.91 1882,-439.78 1919.25,-449.33 1960.08,-465.81 1987.99,-478.07"/>
<polygon fill="#757575" stroke="#757575" points="1986.73,-481.34 1997.29,-482.21 1989.58,-474.94 1986.73,-481.34"/>
</g>
<!-- models/test.ts -->
<g id="node21" class="node">
<title>models/test.ts</title>
<path fill="none" stroke="#cfffac" d="M149.33,-1076.28C149.33,-1076.28 58.67,-1076.28 58.67,-1076.28 54.83,-1076.28 51,-1072.45 51,-1068.61 51,-1068.61 51,-1060.95 51,-1060.95 51,-1057.11 54.83,-1053.28 58.67,-1053.28 58.67,-1053.28 149.33,-1053.28 149.33,-1053.28 153.17,-1053.28 157,-1057.11 157,-1060.95 157,-1060.95 157,-1068.61 157,-1068.61 157,-1072.45 153.17,-1076.28 149.33,-1076.28"/>
<text text-anchor="middle" x="104" y="-1061.08" font-family="Arial" font-size="14.00" fill="#cfffac">models/test.ts</text>
</g>
<!-- models/timer.ts -->
<g id="node22" class="node">
<title>models/timer.ts</title>
<path fill="none" stroke="#cfffac" d="M1310.33,-692.28C1310.33,-692.28 1211.67,-692.28 1211.67,-692.28 1207.83,-692.28 1204,-688.45 1204,-684.61 1204,-684.61 1204,-676.95 1204,-676.95 1204,-673.11 1207.83,-669.28 1211.67,-669.28 1211.67,-669.28 1310.33,-669.28 1310.33,-669.28 1314.17,-669.28 1318,-673.11 1318,-676.95 1318,-676.95 1318,-684.61 1318,-684.61 1318,-688.45 1314.17,-692.28 1310.33,-692.28"/>
<text text-anchor="middle" x="1261" y="-677.08" font-family="Arial" font-size="14.00" fill="#cfffac">models/timer.ts</text>
</g>
<!-- node&#45;red/glboal&#45;script.ts -->
<g id="node23" class="node">
<title>node&#45;red/glboal&#45;script.ts</title>
<path fill="none" stroke="#c6c5fe" d="M1000.83,-1323.28C1000.83,-1323.28 846.17,-1323.28 846.17,-1323.28 842.33,-1323.28 838.5,-1319.45 838.5,-1315.61 838.5,-1315.61 838.5,-1307.95 838.5,-1307.95 838.5,-1304.11 842.33,-1300.28 846.17,-1300.28 846.17,-1300.28 1000.83,-1300.28 1000.83,-1300.28 1004.67,-1300.28 1008.5,-1304.11 1008.5,-1307.95 1008.5,-1307.95 1008.5,-1315.61 1008.5,-1315.61 1008.5,-1319.45 1004.67,-1323.28 1000.83,-1323.28"/>
<text text-anchor="middle" x="923.5" y="-1308.08" font-family="Arial" font-size="14.00" fill="#c6c5fe">node&#45;red/glboal&#45;script.ts</text>
</g>
<!-- node&#45;red/red&#45;ui.d.ts -->
<g id="node24" class="node">
<title>node&#45;red/red&#45;ui.d.ts</title>
<path fill="none" stroke="#cfffac" d="M1323.83,-1323.28C1323.83,-1323.28 1198.17,-1323.28 1198.17,-1323.28 1194.33,-1323.28 1190.5,-1319.45 1190.5,-1315.61 1190.5,-1315.61 1190.5,-1307.95 1190.5,-1307.95 1190.5,-1304.11 1194.33,-1300.28 1198.17,-1300.28 1198.17,-1300.28 1323.83,-1300.28 1323.83,-1300.28 1327.67,-1300.28 1331.5,-1304.11 1331.5,-1307.95 1331.5,-1307.95 1331.5,-1315.61 1331.5,-1315.61 1331.5,-1319.45 1327.67,-1323.28 1323.83,-1323.28"/>
<text text-anchor="middle" x="1261" y="-1308.08" font-family="Arial" font-size="14.00" fill="#cfffac">node&#45;red/red&#45;ui.d.ts</text>
</g>
<!-- node&#45;red/glboal&#45;script.ts&#45;&gt;node&#45;red/red&#45;ui.d.ts -->
<g id="edge28" class="edge">
<title>node&#45;red/glboal&#45;script.ts&#45;&gt;node&#45;red/red&#45;ui.d.ts</title>
<path fill="none" stroke="#757575" d="M1008.73,-1311.78C1061.32,-1311.78 1128.61,-1311.78 1180.32,-1311.78"/>
<polygon fill="#757575" stroke="#757575" points="1180.45,-1315.28 1190.45,-1311.78 1180.45,-1308.28 1180.45,-1315.28"/>
</g>
<!-- node&#45;red/node&#45;red&#45;registration.ts -->
<g id="node25" class="node">
<title>node&#45;red/node&#45;red&#45;registration.ts</title>
<path fill="none" stroke="#c6c5fe" d="M722.83,-1323.28C722.83,-1323.28 513.17,-1323.28 513.17,-1323.28 509.33,-1323.28 505.5,-1319.45 505.5,-1315.61 505.5,-1315.61 505.5,-1307.95 505.5,-1307.95 505.5,-1304.11 509.33,-1300.28 513.17,-1300.28 513.17,-1300.28 722.83,-1300.28 722.83,-1300.28 726.67,-1300.28 730.5,-1304.11 730.5,-1307.95 730.5,-1307.95 730.5,-1315.61 730.5,-1315.61 730.5,-1319.45 726.67,-1323.28 722.83,-1323.28"/>
<text text-anchor="middle" x="618" y="-1308.08" font-family="Arial" font-size="14.00" fill="#c6c5fe">node&#45;red/node&#45;red&#45;registration.ts</text>
</g>
<!-- node&#45;red/node&#45;red&#45;registration.ts&#45;&gt;node&#45;red/glboal&#45;script.ts -->
<g id="edge29" class="edge">
<title>node&#45;red/node&#45;red&#45;registration.ts&#45;&gt;node&#45;red/glboal&#45;script.ts</title>
<path fill="none" stroke="#757575" d="M730.72,-1311.78C762.61,-1311.78 797.04,-1311.78 827.8,-1311.78"/>
<polygon fill="#757575" stroke="#757575" points="828.09,-1315.28 838.09,-1311.78 828.09,-1308.28 828.09,-1315.28"/>
</g>
<!-- node&#45;red/node&#45;red&#45;registration.ts&#45;&gt;node&#45;red/red&#45;ui.d.ts -->
<g id="edge30" class="edge">
<title>node&#45;red/node&#45;red&#45;registration.ts&#45;&gt;node&#45;red/red&#45;ui.d.ts</title>
<path fill="none" stroke="#757575" d="M686.29,-1300.26C711.8,-1296.43 741.16,-1292.66 768,-1290.78 905.88,-1281.11 941.01,-1282.8 1079,-1290.78 1112.2,-1292.7 1148.65,-1296.58 1180.09,-1300.5"/>
<polygon fill="#757575" stroke="#757575" points="1179.75,-1303.98 1190.11,-1301.76 1180.63,-1297.04 1179.75,-1303.98"/>
</g>
<!-- node&#45;red/register&#45;custom&#45;type.ts -->
<g id="node26" class="node">
<title>node&#45;red/register&#45;custom&#45;type.ts</title>
<path fill="none" stroke="#c6c5fe" d="M460.33,-1343.28C460.33,-1343.28 251.67,-1343.28 251.67,-1343.28 247.83,-1343.28 244,-1339.45 244,-1335.61 244,-1335.61 244,-1327.95 244,-1327.95 244,-1324.11 247.83,-1320.28 251.67,-1320.28 251.67,-1320.28 460.33,-1320.28 460.33,-1320.28 464.17,-1320.28 468,-1324.11 468,-1327.95 468,-1327.95 468,-1335.61 468,-1335.61 468,-1339.45 464.17,-1343.28 460.33,-1343.28"/>
<text text-anchor="middle" x="356" y="-1328.08" font-family="Arial" font-size="14.00" fill="#c6c5fe">node&#45;red/register&#45;custom&#45;type.ts</text>
</g>
<!-- node&#45;red/register&#45;custom&#45;type.ts&#45;&gt;node&#45;red/red&#45;ui.d.ts -->
<g id="edge32" class="edge">
<title>node&#45;red/register&#45;custom&#45;type.ts&#45;&gt;node&#45;red/red&#45;ui.d.ts</title>
<path fill="none" stroke="#757575" d="M468.12,-1336C610,-1340.46 862.98,-1345.27 1079,-1332.78 1112.2,-1330.86 1148.65,-1326.98 1180.09,-1323.07"/>
<polygon fill="#757575" stroke="#757575" points="1180.63,-1326.52 1190.11,-1321.8 1179.75,-1319.58 1180.63,-1326.52"/>
</g>
<!-- node&#45;red/register&#45;custom&#45;type.ts&#45;&gt;node&#45;red/node&#45;red&#45;registration.ts -->
<g id="edge31" class="edge">
<title>node&#45;red/register&#45;custom&#45;type.ts&#45;&gt;node&#45;red/node&#45;red&#45;registration.ts</title>
<path fill="none" stroke="#757575" d="M468.02,-1323.24C476.94,-1322.55 485.99,-1321.86 494.99,-1321.17"/>
<polygon fill="#757575" stroke="#757575" points="495.41,-1324.64 505.11,-1320.39 494.87,-1317.66 495.41,-1324.64"/>
</g>
<!-- node&#45;red/server.ts -->
<g id="node27" class="node">
<title>node&#45;red/server.ts</title>
<path fill="none" stroke="#c6c5fe" d="M162.83,-1343.28C162.83,-1343.28 45.17,-1343.28 45.17,-1343.28 41.33,-1343.28 37.5,-1339.45 37.5,-1335.61 37.5,-1335.61 37.5,-1327.95 37.5,-1327.95 37.5,-1324.11 41.33,-1320.28 45.17,-1320.28 45.17,-1320.28 162.83,-1320.28 162.83,-1320.28 166.67,-1320.28 170.5,-1324.11 170.5,-1327.95 170.5,-1327.95 170.5,-1335.61 170.5,-1335.61 170.5,-1339.45 166.67,-1343.28 162.83,-1343.28"/>
<text text-anchor="middle" x="104" y="-1328.08" font-family="Arial" font-size="14.00" fill="#c6c5fe">node&#45;red/server.ts</text>
</g>
<!-- node&#45;red/server.ts&#45;&gt;node&#45;red/register&#45;custom&#45;type.ts -->
<g id="edge33" class="edge">
<title>node&#45;red/server.ts&#45;&gt;node&#45;red/register&#45;custom&#45;type.ts</title>
<path fill="none" stroke="#757575" d="M170.68,-1331.78C190.04,-1331.78 211.87,-1331.78 233.56,-1331.78"/>
<polygon fill="#757575" stroke="#757575" points="233.84,-1335.28 243.84,-1331.78 233.84,-1328.28 233.84,-1335.28"/>
</g>
<!-- resources/connection.r.ts -->
<g id="node28" class="node">
<title>resources/connection.r.ts</title>
<path fill="none" stroke="#c6c5fe" d="M436.33,-543.28C436.33,-543.28 275.67,-543.28 275.67,-543.28 271.83,-543.28 268,-539.45 268,-535.61 268,-535.61 268,-527.95 268,-527.95 268,-524.11 271.83,-520.28 275.67,-520.28 275.67,-520.28 436.33,-520.28 436.33,-520.28 440.17,-520.28 444,-524.11 444,-527.95 444,-527.95 444,-535.61 444,-535.61 444,-539.45 440.17,-543.28 436.33,-543.28"/>
<text text-anchor="middle" x="356" y="-528.08" font-family="Arial" font-size="14.00" fill="#c6c5fe">resources/connection.r.ts</text>
</g>
<!-- resources/connection.r.ts&#45;&gt;models/connection.ts -->
<g id="edge34" class="edge">
<title>resources/connection.r.ts&#45;&gt;models/connection.ts</title>
<path fill="none" stroke="#757575" d="M444.39,-528.7C527.59,-525.8 656.32,-521.36 768,-517.78 1027.58,-509.46 1334.69,-500.46 1480.68,-496.23"/>
<polygon fill="#757575" stroke="#757575" points="1481.01,-499.73 1490.91,-495.94 1480.81,-492.73 1481.01,-499.73"/>
</g>
<!-- resources/connection.r.ts&#45;&gt;models/receiver.ts -->
<g id="edge35" class="edge">
<title>resources/connection.r.ts&#45;&gt;models/receiver.ts</title>
<path fill="none" stroke="#757575" d="M444.04,-536.56C452.96,-540.08 461.21,-545 468,-551.78 531.58,-615.31 448.34,-680.21 504,-750.78 774.51,-1093.71 1011.85,-970.89 1443,-1040.78 1540.55,-1056.59 1654.14,-1066.56 1727.35,-1071.89"/>
<polygon fill="#757575" stroke="#757575" points="1727.18,-1075.39 1737.4,-1072.62 1727.68,-1068.41 1727.18,-1075.39"/>
</g>
<!-- resources/connection.r.ts&#45;&gt;models/sender.ts -->
<g id="edge36" class="edge">
<title>resources/connection.r.ts&#45;&gt;models/sender.ts</title>
<path fill="none" stroke="#757575" d="M412.47,-520.23C570.86,-487.26 1024.73,-392.76 1194.69,-357.38"/>
<polygon fill="#757575" stroke="#757575" points="1195.43,-360.8 1204.51,-355.33 1194,-353.95 1195.43,-360.8"/>
</g>
<!-- resources/frontend&#45;update.ts -->
<g id="node29" class="node">
<title>resources/frontend&#45;update.ts</title>
<path fill="none" stroke="#c6c5fe" d="M710.33,-742.28C710.33,-742.28 525.67,-742.28 525.67,-742.28 521.83,-742.28 518,-738.45 518,-734.61 518,-734.61 518,-726.95 518,-726.95 518,-723.11 521.83,-719.28 525.67,-719.28 525.67,-719.28 710.33,-719.28 710.33,-719.28 714.17,-719.28 718,-723.11 718,-726.95 718,-726.95 718,-734.61 718,-734.61 718,-738.45 714.17,-742.28 710.33,-742.28"/>
<text text-anchor="middle" x="618" y="-727.08" font-family="Arial" font-size="14.00" fill="#c6c5fe">resources/frontend&#45;update.ts</text>
</g>
<!-- resources/connection.r.ts&#45;&gt;resources/frontend&#45;update.ts -->
<g id="edge37" class="edge">
<title>resources/connection.r.ts&#45;&gt;resources/frontend&#45;update.ts</title>
<path fill="none" stroke="#757575" d="M444.26,-541.38C452.58,-544.09 460.64,-547.49 468,-551.78 476.84,-556.93 564.89,-665.88 601.33,-711.24"/>
<polygon fill="#757575" stroke="#757575" points="598.71,-713.56 607.7,-719.17 604.17,-709.18 598.71,-713.56"/>
</g>
<!-- resources/frontend&#45;update.ts&#45;&gt;models/receiver.ts -->
<g id="edge39" class="edge">
<title>resources/frontend&#45;update.ts&#45;&gt;models/receiver.ts</title>
<path fill="none" stroke="#757575" d="M640.17,-742.41C668.59,-757.66 720.93,-784.49 768,-801.78 1123.03,-932.23 1567.39,-1028.95 1735.16,-1063.22"/>
<polygon fill="#757575" stroke="#757575" points="1734.59,-1066.68 1745.09,-1065.24 1735.99,-1059.82 1734.59,-1066.68"/>
</g>
<!-- resources/frontend&#45;update.ts&#45;&gt;models/inventory/item.ts -->
<g id="edge38" class="edge">
<title>resources/frontend&#45;update.ts&#45;&gt;models/inventory/item.ts</title>
<path fill="none" stroke="#757575" d="M653.49,-742.32C683.42,-751.83 728.08,-764.85 768,-771.78 905.08,-795.56 1066.27,-804.06 1165.79,-807.1"/>
<polygon fill="#757575" stroke="#757575" points="1165.72,-810.6 1175.82,-807.39 1165.93,-803.6 1165.72,-810.6"/>
</g>
<!-- resources/frontend&#45;update.ts&#45;&gt;models/timer.ts -->
<g id="edge40" class="edge">
<title>resources/frontend&#45;update.ts&#45;&gt;models/timer.ts</title>
<path fill="none" stroke="#757575" d="M681.01,-742.31C769.96,-756.85 938.54,-777 1079,-750.78 1133.8,-740.55 1193.36,-714.31 1228.65,-697.02"/>
<polygon fill="#757575" stroke="#757575" points="1230.54,-699.99 1237.93,-692.4 1227.42,-693.72 1230.54,-699.99"/>
</g>
<!-- resources/websocket&#45;response.d.ts -->
<g id="node31" class="node">
<title>resources/websocket&#45;response.d.ts</title>
<path fill="none" stroke="#c6c5fe" d="M1037.83,-742.28C1037.83,-742.28 809.17,-742.28 809.17,-742.28 805.33,-742.28 801.5,-738.45 801.5,-734.61 801.5,-734.61 801.5,-726.95 801.5,-726.95 801.5,-723.11 805.33,-719.28 809.17,-719.28 809.17,-719.28 1037.83,-719.28 1037.83,-719.28 1041.67,-719.28 1045.5,-723.11 1045.5,-726.95 1045.5,-726.95 1045.5,-734.61 1045.5,-734.61 1045.5,-738.45 1041.67,-742.28 1037.83,-742.28"/>
<text text-anchor="middle" x="923.5" y="-727.08" font-family="Arial" font-size="14.00" fill="#c6c5fe">resources/websocket&#45;response.d.ts</text>
</g>
<!-- resources/frontend&#45;update.ts&#45;&gt;resources/websocket&#45;response.d.ts -->
<g id="edge41" class="edge">
<title>resources/frontend&#45;update.ts&#45;&gt;resources/websocket&#45;response.d.ts</title>
<path fill="none" stroke="#757575" d="M718.38,-730.78C741.7,-730.78 766.91,-730.78 791.38,-730.78"/>
<polygon fill="#757575" stroke="#757575" points="791.45,-734.28 801.45,-730.78 791.45,-727.28 791.45,-734.28"/>
</g>
<!-- services/generic&#45;node/generic&#45;node&#45;service.ts -->
<g id="node32" class="node">
<title>services/generic&#45;node/generic&#45;node&#45;service.ts</title>
<path fill="none" stroke="#cfffac" d="M1071.33,-701.28C1071.33,-701.28 775.67,-701.28 775.67,-701.28 771.83,-701.28 768,-697.45 768,-693.61 768,-693.61 768,-685.95 768,-685.95 768,-682.11 771.83,-678.28 775.67,-678.28 775.67,-678.28 1071.33,-678.28 1071.33,-678.28 1075.17,-678.28 1079,-682.11 1079,-685.95 1079,-685.95 1079,-693.61 1079,-693.61 1079,-697.45 1075.17,-701.28 1071.33,-701.28"/>
<text text-anchor="middle" x="923.5" y="-686.08" font-family="Arial" font-size="14.00" fill="#cfffac">services/generic&#45;node/generic&#45;node&#45;service.ts</text>
</g>
<!-- resources/frontend&#45;update.ts&#45;&gt;services/generic&#45;node/generic&#45;node&#45;service.ts -->
<g id="edge42" class="edge">
<title>resources/frontend&#45;update.ts&#45;&gt;services/generic&#45;node/generic&#45;node&#45;service.ts</title>
<path fill="none" stroke="#757575" d="M699.4,-719.28C721.62,-716.15 745.74,-712.79 768,-709.78 785.53,-707.41 804.18,-704.95 822.24,-702.59"/>
<polygon fill="#757575" stroke="#757575" points="822.74,-706.06 832.2,-701.3 821.83,-699.11 822.74,-706.06"/>
</g>
<!-- services/sender&#45;loader.ts -->
<g id="node33" class="node">
<title>services/sender&#45;loader.ts</title>
<path fill="none" stroke="#c6c5fe" d="M1004.33,-235.28C1004.33,-235.28 842.67,-235.28 842.67,-235.28 838.83,-235.28 835,-231.45 835,-227.61 835,-227.61 835,-219.95 835,-219.95 835,-216.11 838.83,-212.28 842.67,-212.28 842.67,-212.28 1004.33,-212.28 1004.33,-212.28 1008.17,-212.28 1012,-216.11 1012,-219.95 1012,-219.95 1012,-227.61 1012,-227.61 1012,-231.45 1008.17,-235.28 1004.33,-235.28"/>
<text text-anchor="middle" x="923.5" y="-220.08" font-family="Arial" font-size="14.00" fill="#c6c5fe">services/sender&#45;loader.ts</text>
</g>
<!-- resources/frontend&#45;update.ts&#45;&gt;services/sender&#45;loader.ts -->
<g id="edge43" class="edge">
<title>resources/frontend&#45;update.ts&#45;&gt;services/sender&#45;loader.ts</title>
<path fill="none" stroke="#757575" d="M629.85,-719.15C651.09,-696.05 698.93,-642.24 732,-591.78 813.86,-466.88 888.22,-302.57 913.42,-244.89"/>
<polygon fill="#757575" stroke="#757575" points="916.77,-245.96 917.54,-235.39 910.35,-243.17 916.77,-245.96"/>
</g>
<!-- resources/control&#45;keys.ws.ts -->
<g id="node30" class="node">
<title>resources/control&#45;keys.ws.ts</title>
<path fill="none" stroke="#cfffac" d="M194.83,-1384.28C194.83,-1384.28 13.17,-1384.28 13.17,-1384.28 9.33,-1384.28 5.5,-1380.45 5.5,-1376.61 5.5,-1376.61 5.5,-1368.95 5.5,-1368.95 5.5,-1365.11 9.33,-1361.28 13.17,-1361.28 13.17,-1361.28 194.83,-1361.28 194.83,-1361.28 198.67,-1361.28 202.5,-1365.11 202.5,-1368.95 202.5,-1368.95 202.5,-1376.61 202.5,-1376.61 202.5,-1380.45 198.67,-1384.28 194.83,-1384.28"/>
<text text-anchor="middle" x="104" y="-1369.08" font-family="Arial" font-size="14.00" fill="#cfffac">resources/control&#45;keys.ws.ts</text>
</g>
<!-- resources/websocket&#45;response.d.ts&#45;&gt;models/receiver.ts -->
<g id="edge65" class="edge">
<title>resources/websocket&#45;response.d.ts&#45;&gt;models/receiver.ts</title>
<path fill="none" stroke="#757575" d="M1045.78,-723.64C1235.68,-714.95 1591.79,-709.44 1691,-782.78 1781.45,-849.64 1799.18,-999.03 1802.65,-1055.03"/>
<polygon fill="#757575" stroke="#757575" points="1799.17,-1055.41 1803.19,-1065.21 1806.16,-1055.04 1799.17,-1055.41"/>
</g>
<!-- resources/websocket&#45;response.d.ts&#45;&gt;models/inventory/item.ts -->
<g id="edge64" class="edge">
<title>resources/websocket&#45;response.d.ts&#45;&gt;models/inventory/item.ts</title>
<path fill="none" stroke="#757575" d="M974,-742.29C1034.21,-756.29 1135.78,-779.9 1200.27,-794.89"/>
<polygon fill="#757575" stroke="#757575" points="1199.76,-798.37 1210.29,-797.22 1201.35,-791.55 1199.76,-798.37"/>
</g>
<!-- resources/websocket&#45;response.d.ts&#45;&gt;models/sender.ts -->
<g id="edge66" class="edge">
<title>resources/websocket&#45;response.d.ts&#45;&gt;models/sender.ts</title>
<path fill="none" stroke="#757575" d="M1045.77,-729.1C1058,-724.78 1069.42,-718.56 1079,-709.78 1132.43,-660.84 1085.66,-617.03 1115,-550.78 1148.72,-474.64 1212.13,-397.63 1242.68,-362.88"/>
<polygon fill="#757575" stroke="#757575" points="1245.34,-365.16 1249.36,-355.36 1240.11,-360.51 1245.34,-365.16"/>
</g>
<!-- resources/websocket&#45;response.d.ts&#45;&gt;models/timer.ts -->
<g id="edge67" class="edge">
<title>resources/websocket&#45;response.d.ts&#45;&gt;models/timer.ts</title>
<path fill="none" stroke="#757575" d="M1011.98,-719.26C1033.88,-716.27 1057.31,-712.99 1079,-709.78 1117.11,-704.14 1159.65,-697.35 1193.91,-691.76"/>
<polygon fill="#757575" stroke="#757575" points="1194.49,-695.21 1203.8,-690.14 1193.36,-688.3 1194.49,-695.21"/>
</g>
<!-- services/generic&#45;node/generic&#45;node&#45;type.ts -->
<g id="node43" class="node">
<title>services/generic&#45;node/generic&#45;node&#45;type.ts</title>
<path fill="none" stroke="#ff6c60" d="M1399.33,-637.28C1399.33,-637.28 1122.67,-637.28 1122.67,-637.28 1118.83,-637.28 1115,-633.45 1115,-629.61 1115,-629.61 1115,-621.95 1115,-621.95 1115,-618.11 1118.83,-614.28 1122.67,-614.28 1122.67,-614.28 1399.33,-614.28 1399.33,-614.28 1403.17,-614.28 1407,-618.11 1407,-621.95 1407,-621.95 1407,-629.61 1407,-629.61 1407,-633.45 1403.17,-637.28 1399.33,-637.28"/>
<text text-anchor="middle" x="1261" y="-622.08" font-family="Arial" font-size="14.00" fill="#ff6c60">services/generic&#45;node/generic&#45;node&#45;type.ts</text>
</g>
<!-- resources/websocket&#45;response.d.ts&#45;&gt;services/generic&#45;node/generic&#45;node&#45;type.ts -->
<g id="edge68" class="edge">
<title>resources/websocket&#45;response.d.ts&#45;&gt;services/generic&#45;node/generic&#45;node&#45;type.ts</title>
<path fill="none" stroke="#757575" d="M1045.87,-724.05C1057.53,-720.56 1068.79,-715.91 1079,-709.78 1102.47,-695.68 1092.22,-674.98 1115,-659.78 1127.61,-651.36 1142.06,-645.02 1156.83,-640.23"/>
<polygon fill="#757575" stroke="#757575" points="1158,-643.54 1166.58,-637.31 1155.99,-636.83 1158,-643.54"/>
</g>
<!-- services/sender&#45;loader.ts&#45;&gt;models/sound.ts -->
<g id="edge80" class="edge">
<title>services/sender&#45;loader.ts&#45;&gt;models/sound.ts</title>
<path fill="none" stroke="#757575" d="M939.67,-211.97C970.54,-188.78 1043.8,-137.95 1115,-119.78 1554.24,-7.69 1859.65,126.57 2128,-238.78 2164.48,-288.45 2152.36,-453.26 2164,-513.78 2195.38,-676.98 2251.14,-869.7 2270.03,-933.27"/>
<polygon fill="#757575" stroke="#757575" points="2266.72,-934.39 2272.93,-942.97 2273.42,-932.39 2266.72,-934.39"/>
</g>
<!-- services/sender&#45;loader.ts&#45;&gt;models/sender.ts -->
<g id="edge79" class="edge">
<title>services/sender&#45;loader.ts&#45;&gt;models/sender.ts</title>
<path fill="none" stroke="#757575" d="M956.67,-235.29C1017.63,-257.09 1149.96,-304.42 1217.9,-328.72"/>
<polygon fill="#757575" stroke="#757575" points="1216.84,-332.06 1227.44,-332.13 1219.2,-325.47 1216.84,-332.06"/>
</g>
<!-- util/tsc&#45;compiler.ts -->
<g id="node53" class="node">
<title>util/tsc&#45;compiler.ts</title>
<path fill="none" stroke="#c6c5fe" d="M1318.83,-152.28C1318.83,-152.28 1203.17,-152.28 1203.17,-152.28 1199.33,-152.28 1195.5,-148.45 1195.5,-144.61 1195.5,-144.61 1195.5,-136.95 1195.5,-136.95 1195.5,-133.11 1199.33,-129.28 1203.17,-129.28 1203.17,-129.28 1318.83,-129.28 1318.83,-129.28 1322.67,-129.28 1326.5,-133.11 1326.5,-136.95 1326.5,-136.95 1326.5,-144.61 1326.5,-144.61 1326.5,-148.45 1322.67,-152.28 1318.83,-152.28"/>
<text text-anchor="middle" x="1261" y="-137.08" font-family="Arial" font-size="14.00" fill="#c6c5fe">util/tsc&#45;compiler.ts</text>
</g>
<!-- services/sender&#45;loader.ts&#45;&gt;util/tsc&#45;compiler.ts -->
<g id="edge81" class="edge">
<title>services/sender&#45;loader.ts&#45;&gt;util/tsc&#45;compiler.ts</title>
<path fill="none" stroke="#757575" d="M971.15,-212.24C1032.03,-197.18 1138.49,-170.84 1203.76,-154.69"/>
<polygon fill="#757575" stroke="#757575" points="1204.61,-158.09 1213.48,-152.29 1202.93,-151.29 1204.61,-158.09"/>
</g>
<!-- resources/inventory.r.ts -->
<g id="node34" class="node">
<title>resources/inventory.r.ts</title>
<path fill="none" stroke="#c6c5fe" d="M430.33,-722.28C430.33,-722.28 281.67,-722.28 281.67,-722.28 277.83,-722.28 274,-718.45 274,-714.61 274,-714.61 274,-706.95 274,-706.95 274,-703.11 277.83,-699.28 281.67,-699.28 281.67,-699.28 430.33,-699.28 430.33,-699.28 434.17,-699.28 438,-703.11 438,-706.95 438,-706.95 438,-714.61 438,-714.61 438,-718.45 434.17,-722.28 430.33,-722.28"/>
<text text-anchor="middle" x="356" y="-707.08" font-family="Arial" font-size="14.00" fill="#c6c5fe">resources/inventory.r.ts</text>
</g>
<!-- resources/inventory.r.ts&#45;&gt;models/inventory/item.ts -->
<g id="edge44" class="edge">
<title>resources/inventory.r.ts&#45;&gt;models/inventory/item.ts</title>
<path fill="none" stroke="#757575" d="M438.15,-722.19C448.33,-724.56 458.5,-727.39 468,-730.78 485.24,-736.93 486.8,-744.52 504,-750.78 730.2,-833.09 1018.98,-827.4 1165.53,-817.44"/>
<polygon fill="#757575" stroke="#757575" points="1166.1,-820.91 1175.83,-816.71 1165.61,-813.92 1166.1,-820.91"/>
</g>
<!-- resources/inventory.r.ts&#45;&gt;models/inventory/order.ts -->
<g id="edge45" class="edge">
<title>resources/inventory.r.ts&#45;&gt;models/inventory/order.ts</title>
<path fill="none" stroke="#757575" d="M438.2,-716.94C448.81,-720.12 459.08,-724.57 468,-730.78 493.84,-748.76 477.91,-774.16 504,-791.78 659.36,-896.71 1236.68,-868.5 1468.62,-852.37"/>
<polygon fill="#757575" stroke="#757575" points="1469,-855.85 1478.73,-851.65 1468.51,-848.86 1469,-855.85"/>
</g>
<!-- resources/inventory.r.ts&#45;&gt;util/log.ts -->
<g id="edge48" class="edge">
<title>resources/inventory.r.ts&#45;&gt;util/log.ts</title>
<path fill="none" stroke="#757575" d="M383.49,-699.27C412.66,-686.83 461.14,-666.92 504,-652.78 603.62,-619.92 642.89,-647.13 732,-591.78 752.6,-578.98 746.11,-561.22 768,-550.78 814.32,-528.68 1639.75,-516.36 1691,-513.78 1793.12,-508.65 1912.87,-501.01 1976.63,-496.81"/>
<polygon fill="#757575" stroke="#757575" points="1976.99,-500.3 1986.74,-496.15 1976.53,-493.31 1976.99,-500.3"/>
</g>
<!-- resources/inventory.r.ts&#45;&gt;resources/frontend&#45;update.ts -->
<g id="edge46" class="edge">
<title>resources/inventory.r.ts&#45;&gt;resources/frontend&#45;update.ts</title>
<path fill="none" stroke="#757575" d="M438.2,-717.03C460.13,-718.71 484.23,-720.57 507.45,-722.35"/>
<polygon fill="#757575" stroke="#757575" points="507.44,-725.86 517.68,-723.14 507.98,-718.88 507.44,-725.86"/>
</g>
<!-- services/image&#45;converter.ts -->
<g id="node35" class="node">
<title>services/image&#45;converter.ts</title>
<path fill="none" stroke="#cfffac" d="M705.83,-583.28C705.83,-583.28 530.17,-583.28 530.17,-583.28 526.33,-583.28 522.5,-579.45 522.5,-575.61 522.5,-575.61 522.5,-567.95 522.5,-567.95 522.5,-564.11 526.33,-560.28 530.17,-560.28 530.17,-560.28 705.83,-560.28 705.83,-560.28 709.67,-560.28 713.5,-564.11 713.5,-567.95 713.5,-567.95 713.5,-575.61 713.5,-575.61 713.5,-579.45 709.67,-583.28 705.83,-583.28"/>
<text text-anchor="middle" x="618" y="-568.08" font-family="Arial" font-size="14.00" fill="#cfffac">services/image&#45;converter.ts</text>
</g>
<!-- resources/inventory.r.ts&#45;&gt;services/image&#45;converter.ts -->
<g id="edge47" class="edge">
<title>resources/inventory.r.ts&#45;&gt;services/image&#45;converter.ts</title>
<path fill="none" stroke="#757575" d="M368.39,-699.15C391.65,-676.11 447.23,-624.56 504,-597.78 513.9,-593.11 524.69,-589.25 535.54,-586.07"/>
<polygon fill="#757575" stroke="#757575" points="536.79,-589.36 545.51,-583.34 534.94,-582.61 536.79,-589.36"/>
</g>
<!-- resources/log.r.ts -->
<g id="node36" class="node">
<title>resources/log.r.ts</title>
<path fill="none" stroke="#cfffac" d="M159.83,-1425.28C159.83,-1425.28 48.17,-1425.28 48.17,-1425.28 44.33,-1425.28 40.5,-1421.45 40.5,-1417.61 40.5,-1417.61 40.5,-1409.95 40.5,-1409.95 40.5,-1406.11 44.33,-1402.28 48.17,-1402.28 48.17,-1402.28 159.83,-1402.28 159.83,-1402.28 163.67,-1402.28 167.5,-1406.11 167.5,-1409.95 167.5,-1409.95 167.5,-1417.61 167.5,-1417.61 167.5,-1421.45 163.67,-1425.28 159.83,-1425.28"/>
<text text-anchor="middle" x="104" y="-1410.08" font-family="Arial" font-size="14.00" fill="#cfffac">resources/log.r.ts</text>
</g>
<!-- resources/receiver.r.ts -->
<g id="node37" class="node">
<title>resources/receiver.r.ts</title>
<path fill="none" stroke="#c6c5fe" d="M427.33,-1124.28C427.33,-1124.28 284.67,-1124.28 284.67,-1124.28 280.83,-1124.28 277,-1120.45 277,-1116.61 277,-1116.61 277,-1108.95 277,-1108.95 277,-1105.11 280.83,-1101.28 284.67,-1101.28 284.67,-1101.28 427.33,-1101.28 427.33,-1101.28 431.17,-1101.28 435,-1105.11 435,-1108.95 435,-1108.95 435,-1116.61 435,-1116.61 435,-1120.45 431.17,-1124.28 427.33,-1124.28"/>
<text text-anchor="middle" x="356" y="-1109.08" font-family="Arial" font-size="14.00" fill="#c6c5fe">resources/receiver.r.ts</text>
</g>
<!-- resources/receiver.r.ts&#45;&gt;models/receiver&#45;data.ts -->
<g id="edge49" class="edge">
<title>resources/receiver.r.ts&#45;&gt;models/receiver&#45;data.ts</title>
<path fill="none" stroke="#757575" d="M435.21,-1112.78C544.34,-1112.78 748.48,-1112.78 922.5,-1112.78 922.5,-1112.78 922.5,-1112.78 1262,-1112.78 1397.28,-1112.78 1794.27,-1037.66 1954.14,-1006.29"/>
<polygon fill="#757575" stroke="#757575" points="1955.19,-1009.65 1964.32,-1004.29 1953.84,-1002.78 1955.19,-1009.65"/>
</g>
<!-- resources/receiver.r.ts&#45;&gt;models/receiver.ts -->
<g id="edge51" class="edge">
<title>resources/receiver.r.ts&#45;&gt;models/receiver.ts</title>
<path fill="none" stroke="#757575" d="M435.1,-1121.36C544.1,-1132.56 748.09,-1150.78 922.5,-1150.78 922.5,-1150.78 922.5,-1150.78 1262,-1150.78 1452.96,-1150.78 1505.38,-1171.63 1691,-1126.78 1720.81,-1119.58 1752.55,-1104.74 1774.69,-1093.09"/>
<polygon fill="#757575" stroke="#757575" points="1776.41,-1096.14 1783.56,-1088.32 1773.09,-1089.97 1776.41,-1096.14"/>
</g>
<!-- resources/receiver.r.ts&#45;&gt;models/receiver&#45;event.ts -->
<g id="edge50" class="edge">
<title>resources/receiver.r.ts&#45;&gt;models/receiver&#45;event.ts</title>
<path fill="none" stroke="#757575" d="M395.03,-1124.32C424.5,-1132.85 466.5,-1144.09 504,-1150.78 688.03,-1183.6 735.57,-1192.78 922.5,-1192.78 922.5,-1192.78 922.5,-1192.78 1568,-1192.78 1691.64,-1192.78 1834.23,-1193.16 1926.11,-1193.45"/>
<polygon fill="#757575" stroke="#757575" points="1926.22,-1196.95 1936.23,-1193.48 1926.24,-1189.95 1926.22,-1196.95"/>
</g>
<!-- resources/receiver.r.ts&#45;&gt;util/log.ts -->
<g id="edge53" class="edge">
<title>resources/receiver.r.ts&#45;&gt;util/log.ts</title>
<path fill="none" stroke="#757575" d="M435.21,-1104.94C686.76,-1078.68 1471.4,-988.5 1691,-864.78 1850.87,-774.71 1973.48,-578.39 2010.46,-514.4"/>
<polygon fill="#757575" stroke="#757575" points="2013.56,-516.04 2015.48,-505.62 2007.48,-512.57 2013.56,-516.04"/>
</g>
<!-- resources/receiver.r.ts&#45;&gt;resources/frontend&#45;update.ts -->
<g id="edge52" class="edge">
<title>resources/receiver.r.ts&#45;&gt;resources/frontend&#45;update.ts</title>
<path fill="none" stroke="#757575" d="M365.07,-1100.93C402.14,-1046.45 556.4,-819.81 603.37,-750.8"/>
<polygon fill="#757575" stroke="#757575" points="606.29,-752.73 609.03,-742.49 600.51,-748.79 606.29,-752.73"/>
</g>
<!-- resources/sender.r.ts -->
<g id="node38" class="node">
<title>resources/sender.r.ts</title>
<path fill="none" stroke="#c6c5fe" d="M424.33,-295.28C424.33,-295.28 287.67,-295.28 287.67,-295.28 283.83,-295.28 280,-291.45 280,-287.61 280,-287.61 280,-279.95 280,-279.95 280,-276.11 283.83,-272.28 287.67,-272.28 287.67,-272.28 424.33,-272.28 424.33,-272.28 428.17,-272.28 432,-276.11 432,-279.95 432,-279.95 432,-287.61 432,-287.61 432,-291.45 428.17,-295.28 424.33,-295.28"/>
<text text-anchor="middle" x="356" y="-280.08" font-family="Arial" font-size="14.00" fill="#c6c5fe">resources/sender.r.ts</text>
</g>
<!-- resources/sender.r.ts&#45;&gt;models/battery.ts -->
<g id="edge54" class="edge">
<title>resources/sender.r.ts&#45;&gt;models/battery.ts</title>
<path fill="none" stroke="#757575" d="M432.07,-284.36C507.77,-284.81 628.01,-285.15 732,-283.78 1014.16,-280.06 1349.88,-269.26 1494.22,-264.31"/>
<polygon fill="#757575" stroke="#757575" points="1494.41,-267.81 1504.28,-263.97 1494.17,-260.81 1494.41,-267.81"/>
</g>
<!-- resources/sender.r.ts&#45;&gt;models/transformation.ts -->
<g id="edge58" class="edge">
<title>resources/sender.r.ts&#45;&gt;models/transformation.ts</title>
<path fill="none" stroke="#757575" d="M364.14,-272.15C382.84,-242.88 436.49,-166.28 504,-134.78 673.11,-55.87 735.89,-100.78 922.5,-100.78 922.5,-100.78 922.5,-100.78 1262,-100.78 1452.85,-100.78 1504.84,-77.72 1691,-119.78 1808.36,-146.3 1936.74,-212.31 1992.93,-243.26"/>
<polygon fill="#757575" stroke="#757575" points="1991.5,-246.47 2001.94,-248.27 1994.9,-240.35 1991.5,-246.47"/>
</g>
<!-- resources/sender.r.ts&#45;&gt;models/event.ts -->
<g id="edge55" class="edge">
<title>resources/sender.r.ts&#45;&gt;models/event.ts</title>
<path fill="none" stroke="#757575" d="M366.09,-272.15C387.05,-246.4 441.77,-185.1 504,-162.78 688.06,-96.77 1294.49,-179.69 1498.42,-210.29"/>
<polygon fill="#757575" stroke="#757575" points="1497.99,-213.76 1508.4,-211.79 1499.03,-206.84 1497.99,-213.76"/>
</g>
<!-- resources/sender.r.ts&#45;&gt;util/log.ts -->
<g id="edge63" class="edge">
<title>resources/sender.r.ts&#45;&gt;util/log.ts</title>
<path fill="none" stroke="#757575" d="M380.25,-295.51C408.67,-309.28 458.6,-331.65 504,-342.78 650.61,-378.72 1740.03,-470.41 1976.71,-490.04"/>
<polygon fill="#757575" stroke="#757575" points="1976.44,-493.53 1986.7,-490.87 1977.02,-486.56 1976.44,-493.53"/>
</g>
<!-- resources/sender.r.ts&#45;&gt;models/sender.ts -->
<g id="edge56" class="edge">
<title>resources/sender.r.ts&#45;&gt;models/sender.ts</title>
<path fill="none" stroke="#757575" d="M397.17,-295.28C426.51,-303.14 467.38,-312.96 504,-317.78 753.04,-350.55 1051.96,-348.87 1187.2,-345.92"/>
<polygon fill="#757575" stroke="#757575" points="1187.52,-349.41 1197.43,-345.69 1187.36,-342.42 1187.52,-349.41"/>
</g>
<!-- resources/sender.r.ts&#45;&gt;models/timer.ts -->
<g id="edge57" class="edge">
<title>resources/sender.r.ts&#45;&gt;models/timer.ts</title>
<path fill="none" stroke="#757575" d="M372.3,-295.54C398.86,-315.89 455.32,-358.83 504,-393.78 603.94,-465.54 640.04,-469.04 732,-550.78 750.12,-566.89 746.89,-579.84 768,-591.78 777.27,-597.02 1061.85,-646.6 1193.89,-669.4"/>
<polygon fill="#757575" stroke="#757575" points="1193.44,-672.88 1203.89,-671.13 1194.63,-665.98 1193.44,-672.88"/>
</g>
<!-- resources/sender.r.ts&#45;&gt;resources/frontend&#45;update.ts -->
<g id="edge59" class="edge">
<title>resources/sender.r.ts&#45;&gt;resources/frontend&#45;update.ts</title>
<path fill="none" stroke="#757575" d="M362.93,-295.52C379.78,-328.97 429.24,-427.69 468,-510.78 484.66,-546.48 483.39,-558.2 504,-591.78 532.33,-637.94 574.41,-685.63 598.42,-711.4"/>
<polygon fill="#757575" stroke="#757575" points="596.14,-714.08 605.54,-718.96 601.24,-709.28 596.14,-714.08"/>
</g>
<!-- resources/sender.r.ts&#45;&gt;services/sender&#45;loader.ts -->
<g id="edge61" class="edge">
<title>resources/sender.r.ts&#45;&gt;services/sender&#45;loader.ts</title>
<path fill="none" stroke="#757575" d="M390.09,-272.23C419.57,-262.49 464.1,-249.17 504,-242.78 612.87,-225.36 739.54,-221.91 824.77,-221.99"/>
<polygon fill="#757575" stroke="#757575" points="824.94,-225.49 834.95,-222.02 824.96,-218.49 824.94,-225.49"/>
</g>
<!-- services/mqtt&#45;api.ts -->
<g id="node39" class="node">
<title>services/mqtt&#45;api.ts</title>
<path fill="none" stroke="#cfffac" d="M680.33,-275.28C680.33,-275.28 555.67,-275.28 555.67,-275.28 551.83,-275.28 548,-271.45 548,-267.61 548,-267.61 548,-259.95 548,-259.95 548,-256.11 551.83,-252.28 555.67,-252.28 555.67,-252.28 680.33,-252.28 680.33,-252.28 684.17,-252.28 688,-256.11 688,-259.95 688,-259.95 688,-267.61 688,-267.61 688,-271.45 684.17,-275.28 680.33,-275.28"/>
<text text-anchor="middle" x="618" y="-260.08" font-family="Arial" font-size="14.00" fill="#cfffac">services/mqtt&#45;api.ts</text>
</g>
<!-- resources/sender.r.ts&#45;&gt;services/mqtt&#45;api.ts -->
<g id="edge60" class="edge">
<title>resources/sender.r.ts&#45;&gt;services/mqtt&#45;api.ts</title>
<path fill="none" stroke="#757575" d="M432.2,-278C465.23,-275.45 504.03,-272.47 537.53,-269.89"/>
<polygon fill="#757575" stroke="#757575" points="538.05,-273.36 547.75,-269.11 537.51,-266.38 538.05,-273.36"/>
</g>
<!-- services/sender&#45;trigger&#45;service.ts -->
<g id="node40" class="node">
<title>services/sender&#45;trigger&#45;service.ts</title>
<path fill="none" stroke="#cfffac" d="M724.33,-195.28C724.33,-195.28 511.67,-195.28 511.67,-195.28 507.83,-195.28 504,-191.45 504,-187.61 504,-187.61 504,-179.95 504,-179.95 504,-176.11 507.83,-172.28 511.67,-172.28 511.67,-172.28 724.33,-172.28 724.33,-172.28 728.17,-172.28 732,-176.11 732,-179.95 732,-179.95 732,-187.61 732,-187.61 732,-191.45 728.17,-195.28 724.33,-195.28"/>
<text text-anchor="middle" x="618" y="-180.08" font-family="Arial" font-size="14.00" fill="#cfffac">services/sender&#45;trigger&#45;service.ts</text>
</g>
<!-- resources/sender.r.ts&#45;&gt;services/sender&#45;trigger&#45;service.ts -->
<g id="edge62" class="edge">
<title>resources/sender.r.ts&#45;&gt;services/sender&#45;trigger&#45;service.ts</title>
<path fill="none" stroke="#757575" d="M376.3,-272.16C403.78,-256.07 456.16,-227.04 504,-209.78 516.95,-205.11 531.05,-201.08 544.76,-197.68"/>
<polygon fill="#757575" stroke="#757575" points="545.73,-201.04 554.64,-195.31 544.11,-194.23 545.73,-201.04"/>
</g>
<!-- resources/socket&#45;events.ts -->
<g id="node41" class="node">
<title>resources/socket&#45;events.ts</title>
<path fill="none" stroke="#cfffac" d="M190.33,-1466.28C190.33,-1466.28 17.67,-1466.28 17.67,-1466.28 13.83,-1466.28 10,-1462.45 10,-1458.61 10,-1458.61 10,-1450.95 10,-1450.95 10,-1447.11 13.83,-1443.28 17.67,-1443.28 17.67,-1443.28 190.33,-1443.28 190.33,-1443.28 194.17,-1443.28 198,-1447.11 198,-1450.95 198,-1450.95 198,-1458.61 198,-1458.61 198,-1462.45 194.17,-1466.28 190.33,-1466.28"/>
<text text-anchor="middle" x="104" y="-1451.08" font-family="Arial" font-size="14.00" fill="#cfffac">resources/socket&#45;events.ts</text>
</g>
<!-- resources/transformation.r.ts -->
<g id="node42" class="node">
<title>resources/transformation.r.ts</title>
<path fill="none" stroke="#cfffac" d="M194.83,-1507.28C194.83,-1507.28 13.17,-1507.28 13.17,-1507.28 9.33,-1507.28 5.5,-1503.45 5.5,-1499.61 5.5,-1499.61 5.5,-1491.95 5.5,-1491.95 5.5,-1488.11 9.33,-1484.28 13.17,-1484.28 13.17,-1484.28 194.83,-1484.28 194.83,-1484.28 198.67,-1484.28 202.5,-1488.11 202.5,-1491.95 202.5,-1491.95 202.5,-1499.61 202.5,-1499.61 202.5,-1503.45 198.67,-1507.28 194.83,-1507.28"/>
<text text-anchor="middle" x="104" y="-1492.08" font-family="Arial" font-size="14.00" fill="#cfffac">resources/transformation.r.ts</text>
</g>
<!-- services/generic&#45;node/node&#45;event.ts -->
<g id="node48" class="node">
<title>services/generic&#45;node/node&#45;event.ts</title>
<path fill="none" stroke="#ff6c60" d="M1683.33,-637.28C1683.33,-637.28 1450.67,-637.28 1450.67,-637.28 1446.83,-637.28 1443,-633.45 1443,-629.61 1443,-629.61 1443,-621.95 1443,-621.95 1443,-618.11 1446.83,-614.28 1450.67,-614.28 1450.67,-614.28 1683.33,-614.28 1683.33,-614.28 1687.17,-614.28 1691,-618.11 1691,-621.95 1691,-621.95 1691,-629.61 1691,-629.61 1691,-633.45 1687.17,-637.28 1683.33,-637.28"/>
<text text-anchor="middle" x="1567" y="-622.08" font-family="Arial" font-size="14.00" fill="#ff6c60">services/generic&#45;node/node&#45;event.ts</text>
</g>
<!-- services/generic&#45;node/generic&#45;node&#45;type.ts&#45;&gt;services/generic&#45;node/node&#45;event.ts -->
<g id="edge74" class="edge">
<title>services/generic&#45;node/generic&#45;node&#45;type.ts&#45;&gt;services/generic&#45;node/node&#45;event.ts</title>
<path fill="none" stroke="#757575" d="M1407.32,-619.04C1415.79,-619.02 1424.28,-619.03 1432.7,-619.08"/>
<polygon fill="#757575" stroke="#757575" points="1432.89,-622.58 1442.91,-619.14 1432.94,-615.58 1432.89,-622.58"/>
</g>
<!-- resources/wiring.r.ts -->
<g id="node44" class="node">
<title>resources/wiring.r.ts</title>
<path fill="none" stroke="#cfffac" d="M167.83,-1548.28C167.83,-1548.28 40.17,-1548.28 40.17,-1548.28 36.33,-1548.28 32.5,-1544.45 32.5,-1540.61 32.5,-1540.61 32.5,-1532.95 32.5,-1532.95 32.5,-1529.11 36.33,-1525.28 40.17,-1525.28 40.17,-1525.28 167.83,-1525.28 167.83,-1525.28 171.67,-1525.28 175.5,-1529.11 175.5,-1532.95 175.5,-1532.95 175.5,-1540.61 175.5,-1540.61 175.5,-1544.45 171.67,-1548.28 167.83,-1548.28"/>
<text text-anchor="middle" x="104" y="-1533.08" font-family="Arial" font-size="14.00" fill="#cfffac">resources/wiring.r.ts</text>
</g>
<!-- services/connection&#45;service.ts -->
<g id="node45" class="node">
<title>services/connection&#45;service.ts</title>
<path fill="none" stroke="#c6c5fe" d="M200.33,-763.28C200.33,-763.28 7.67,-763.28 7.67,-763.28 3.83,-763.28 0,-759.45 0,-755.61 0,-755.61 0,-747.95 0,-747.95 0,-744.11 3.83,-740.28 7.67,-740.28 7.67,-740.28 200.33,-740.28 200.33,-740.28 204.17,-740.28 208,-744.11 208,-747.95 208,-747.95 208,-755.61 208,-755.61 208,-759.45 204.17,-763.28 200.33,-763.28"/>
<text text-anchor="middle" x="104" y="-748.08" font-family="Arial" font-size="14.00" fill="#c6c5fe">services/connection&#45;service.ts</text>
</g>
<!-- services/connection&#45;service.ts&#45;&gt;models/connection&#45;response.ts -->
<g id="edge69" class="edge">
<title>services/connection&#45;service.ts&#45;&gt;models/connection&#45;response.ts</title>
<path fill="none" stroke="#757575" d="M109.06,-763.37C131.21,-826.47 236.58,-1125.97 244,-1132.78 370.52,-1248.93 445.25,-1233.78 617,-1233.78 617,-1233.78 617,-1233.78 2024,-1233.78 2091.82,-1233.78 2312.29,-1207.78 2391,-1161.78 2453.35,-1125.34 2501.65,-1051.54 2522.61,-1015.51"/>
<polygon fill="#757575" stroke="#757575" points="2525.88,-1016.83 2527.79,-1006.41 2519.8,-1013.37 2525.88,-1016.83"/>
</g>
<!-- services/connection&#45;service.ts&#45;&gt;models/connection.ts -->
<g id="edge70" class="edge">
<title>services/connection&#45;service.ts&#45;&gt;models/connection.ts</title>
<path fill="none" stroke="#757575" d="M107.47,-740.13C116.79,-699.54 153.93,-563.92 244,-510.78 453.47,-387.2 1222.06,-456.57 1480.54,-484.13"/>
<polygon fill="#757575" stroke="#757575" points="1480.31,-487.62 1490.62,-485.21 1481.05,-480.66 1480.31,-487.62"/>
</g>
<!-- services/connection&#45;service.ts&#45;&gt;models/receiver&#45;data.ts -->
<g id="edge71" class="edge">
<title>services/connection&#45;service.ts&#45;&gt;models/receiver&#45;data.ts</title>
<path fill="none" stroke="#757575" d="M119.39,-763.45C168.98,-802.81 338.77,-930.69 504,-974.78 774.88,-1047.06 1643.91,-1011.64 1929.84,-997.6"/>
<polygon fill="#757575" stroke="#757575" points="1930.35,-1001.08 1940.17,-997.09 1930.01,-994.09 1930.35,-1001.08"/>
</g>
<!-- services/connection&#45;service.ts&#45;&gt;models/transformation.ts -->
<g id="edge72" class="edge">
<title>services/connection&#45;service.ts&#45;&gt;models/transformation.ts</title>
<path fill="none" stroke="#757575" d="M105.46,-740.26C108.28,-682.97 127.24,-425.05 244,-262.78 358.85,-103.16 420.35,-24.78 617,-24.78 617,-24.78 617,-24.78 924.5,-24.78 1352.46,-24.78 1501.03,68.19 1882,-126.78 1885.64,-128.64 1965.06,-204.93 2002.63,-241.11"/>
<polygon fill="#757575" stroke="#757575" points="2000.34,-243.76 2009.97,-248.18 2005.2,-238.72 2000.34,-243.76"/>
</g>
<!-- services/timer&#45;factory.ts -->
<g id="node46" class="node">
<title>services/timer&#45;factory.ts</title>
<path fill="none" stroke="#c6c5fe" d="M431.83,-763.28C431.83,-763.28 280.17,-763.28 280.17,-763.28 276.33,-763.28 272.5,-759.45 272.5,-755.61 272.5,-755.61 272.5,-747.95 272.5,-747.95 272.5,-744.11 276.33,-740.28 280.17,-740.28 280.17,-740.28 431.83,-740.28 431.83,-740.28 435.67,-740.28 439.5,-744.11 439.5,-747.95 439.5,-747.95 439.5,-755.61 439.5,-755.61 439.5,-759.45 435.67,-763.28 431.83,-763.28"/>
<text text-anchor="middle" x="356" y="-748.08" font-family="Arial" font-size="14.00" fill="#c6c5fe">services/timer&#45;factory.ts</text>
</g>
<!-- services/connection&#45;service.ts&#45;&gt;services/timer&#45;factory.ts -->
<g id="edge73" class="edge">
<title>services/connection&#45;service.ts&#45;&gt;services/timer&#45;factory.ts</title>
<path fill="none" stroke="#757575" d="M208.13,-751.78C226.01,-751.78 244.5,-751.78 262.08,-751.78"/>
<polygon fill="#757575" stroke="#757575" points="262.32,-755.28 272.32,-751.78 262.32,-748.28 262.32,-755.28"/>
</g>
<!-- services/timer&#45;factory.ts&#45;&gt;models/connection&#45;response.ts -->
<g id="edge82" class="edge">
<title>services/timer&#45;factory.ts&#45;&gt;models/connection&#45;response.ts</title>
<path fill="none" stroke="#757575" d="M372.78,-763.58C398.7,-782.33 452.57,-818.64 504,-836.78 615.98,-876.29 649.79,-866.6 768,-877.78 1486.56,-945.73 1686.45,-777.08 2391,-933.78 2432.19,-942.94 2476.4,-963.66 2504.58,-978.41"/>
<polygon fill="#757575" stroke="#757575" points="2503.02,-981.54 2513.49,-983.15 2506.31,-975.36 2503.02,-981.54"/>
</g>
<!-- services/timer&#45;factory.ts&#45;&gt;models/timer.ts -->
<g id="edge83" class="edge">
<title>services/timer&#45;factory.ts&#45;&gt;models/timer.ts</title>
<path fill="none" stroke="#757575" d="M436.14,-740.25C447.01,-737.68 457.9,-734.56 468,-730.78 485.35,-724.3 486.54,-715.98 504,-709.78 745.45,-624.08 822.94,-660.3 1079,-668.78 1116.94,-670.04 1159.27,-672.77 1193.46,-675.31"/>
<polygon fill="#757575" stroke="#757575" points="1193.56,-678.83 1203.79,-676.09 1194.08,-671.85 1193.56,-678.83"/>
</g>
<!-- services/timer&#45;factory.ts&#45;&gt;resources/frontend&#45;update.ts -->
<g id="edge84" class="edge">
<title>services/timer&#45;factory.ts&#45;&gt;resources/frontend&#45;update.ts</title>
<path fill="none" stroke="#757575" d="M439.62,-745.11C461.25,-743.36 484.91,-741.45 507.7,-739.61"/>
<polygon fill="#757575" stroke="#757575" points="508.06,-743.09 517.75,-738.8 507.5,-736.11 508.06,-743.09"/>
</g>
<!-- services/event&#45;scheduler.ts -->
<g id="node47" class="node">
<title>services/event&#45;scheduler.ts</title>
<path fill="none" stroke="#cfffac" d="M191.33,-1589.28C191.33,-1589.28 16.67,-1589.28 16.67,-1589.28 12.83,-1589.28 9,-1585.45 9,-1581.61 9,-1581.61 9,-1573.95 9,-1573.95 9,-1570.11 12.83,-1566.28 16.67,-1566.28 16.67,-1566.28 191.33,-1566.28 191.33,-1566.28 195.17,-1566.28 199,-1570.11 199,-1573.95 199,-1573.95 199,-1581.61 199,-1581.61 199,-1585.45 195.17,-1589.28 191.33,-1589.28"/>
<text text-anchor="middle" x="104" y="-1574.08" font-family="Arial" font-size="14.00" fill="#cfffac">services/event&#45;scheduler.ts</text>
</g>
<!-- services/generic&#45;node/node&#45;event.ts&#45;&gt;services/generic&#45;node/generic&#45;node&#45;type.ts -->
<g id="edge75" class="edge">
<title>services/generic&#45;node/node&#45;event.ts&#45;&gt;services/generic&#45;node/generic&#45;node&#45;type.ts</title>
<path fill="none" stroke="#757575" d="M1442.91,-632.42C1434.49,-632.49 1425.94,-632.52 1417.38,-632.53"/>
<polygon fill="#757575" stroke="#757575" points="1417.32,-629.03 1407.32,-632.52 1417.32,-636.03 1417.32,-629.03"/>
</g>
<!-- services/image&#45;converter.test.ts -->
<g id="node49" class="node">
<title>services/image&#45;converter.test.ts</title>
<path fill="none" stroke="#c6c5fe" d="M457.33,-584.28C457.33,-584.28 254.67,-584.28 254.67,-584.28 250.83,-584.28 247,-580.45 247,-576.61 247,-576.61 247,-568.95 247,-568.95 247,-565.11 250.83,-561.28 254.67,-561.28 254.67,-561.28 457.33,-561.28 457.33,-561.28 461.17,-561.28 465,-565.11 465,-568.95 465,-568.95 465,-576.61 465,-576.61 465,-580.45 461.17,-584.28 457.33,-584.28"/>
<text text-anchor="middle" x="356" y="-569.08" font-family="Arial" font-size="14.00" fill="#c6c5fe">services/image&#45;converter.test.ts</text>
</g>
<!-- services/image&#45;converter.test.ts&#45;&gt;services/image&#45;converter.ts -->
<g id="edge76" class="edge">
<title>services/image&#45;converter.test.ts&#45;&gt;services/image&#45;converter.ts</title>
<path fill="none" stroke="#757575" d="M465,-572.36C480.57,-572.31 496.57,-572.24 512.07,-572.18"/>
<polygon fill="#757575" stroke="#757575" points="512.19,-575.68 522.18,-572.15 512.17,-568.68 512.19,-575.68"/>
</g>
<!-- services/json2dts.d.ts -->
<g id="node50" class="node">
<title>services/json2dts.d.ts</title>
<path fill="none" stroke="#cfffac" d="M173.83,-1630.28C173.83,-1630.28 34.17,-1630.28 34.17,-1630.28 30.33,-1630.28 26.5,-1626.45 26.5,-1622.61 26.5,-1622.61 26.5,-1614.95 26.5,-1614.95 26.5,-1611.11 30.33,-1607.28 34.17,-1607.28 34.17,-1607.28 173.83,-1607.28 173.83,-1607.28 177.67,-1607.28 181.5,-1611.11 181.5,-1614.95 181.5,-1614.95 181.5,-1622.61 181.5,-1622.61 181.5,-1626.45 177.67,-1630.28 173.83,-1630.28"/>
<text text-anchor="middle" x="104" y="-1615.08" font-family="Arial" font-size="14.00" fill="#cfffac">services/json2dts.d.ts</text>
</g>
<!-- services/mqtt&#45;tasmota.ts -->
<g id="node51" class="node">
<title>services/mqtt&#45;tasmota.ts</title>
<path fill="none" stroke="#c6c5fe" d="M1001.33,-583.28C1001.33,-583.28 845.67,-583.28 845.67,-583.28 841.83,-583.28 838,-579.45 838,-575.61 838,-575.61 838,-567.95 838,-567.95 838,-564.11 841.83,-560.28 845.67,-560.28 845.67,-560.28 1001.33,-560.28 1001.33,-560.28 1005.17,-560.28 1009,-564.11 1009,-567.95 1009,-567.95 1009,-575.61 1009,-575.61 1009,-579.45 1005.17,-583.28 1001.33,-583.28"/>
<text text-anchor="middle" x="923.5" y="-568.08" font-family="Arial" font-size="14.00" fill="#c6c5fe">services/mqtt&#45;tasmota.ts</text>
</g>
<!-- services/mqtt&#45;tasmota.ts&#45;&gt;services/generic&#45;node/generic&#45;node&#45;type.ts -->
<g id="edge77" class="edge">
<title>services/mqtt&#45;tasmota.ts&#45;&gt;services/generic&#45;node/generic&#45;node&#45;type.ts</title>
<path fill="none" stroke="#757575" d="M996.06,-583.3C1049.51,-591.9 1122.63,-603.67 1178.35,-612.64"/>
<polygon fill="#757575" stroke="#757575" points="1178.12,-616.15 1188.55,-614.28 1179.23,-609.24 1178.12,-616.15"/>
</g>
<!-- services/mqtt&#45;types.ts -->
<g id="node52" class="node">
<title>services/mqtt&#45;types.ts</title>
<path fill="none" stroke="#cfffac" d="M1330.83,-583.28C1330.83,-583.28 1191.17,-583.28 1191.17,-583.28 1187.33,-583.28 1183.5,-579.45 1183.5,-575.61 1183.5,-575.61 1183.5,-567.95 1183.5,-567.95 1183.5,-564.11 1187.33,-560.28 1191.17,-560.28 1191.17,-560.28 1330.83,-560.28 1330.83,-560.28 1334.67,-560.28 1338.5,-564.11 1338.5,-567.95 1338.5,-567.95 1338.5,-575.61 1338.5,-575.61 1338.5,-579.45 1334.67,-583.28 1330.83,-583.28"/>
<text text-anchor="middle" x="1261" y="-568.08" font-family="Arial" font-size="14.00" fill="#cfffac">services/mqtt&#45;types.ts</text>
</g>
<!-- services/mqtt&#45;tasmota.ts&#45;&gt;services/mqtt&#45;types.ts -->
<g id="edge78" class="edge">
<title>services/mqtt&#45;tasmota.ts&#45;&gt;services/mqtt&#45;types.ts</title>
<path fill="none" stroke="#757575" d="M1009.16,-571.78C1059.28,-571.78 1122.65,-571.78 1173.15,-571.78"/>
<polygon fill="#757575" stroke="#757575" points="1173.4,-575.28 1183.4,-571.78 1173.4,-568.28 1173.4,-575.28"/>
</g>
<!-- util/tsc&#45;compiler.ts&#45;&gt;util/log.ts -->
<g id="edge89" class="edge">
<title>util/tsc&#45;compiler.ts&#45;&gt;util/log.ts</title>
<path fill="none" stroke="#757575" d="M1326.92,-147.85C1443.44,-160.8 1677.31,-188.06 1691,-199.78 1733.3,-235.99 1692.19,-276.32 1727,-319.78 1776.39,-381.44 1813.99,-366.59 1882,-406.78 1922.01,-430.43 1967.61,-459.09 1995.6,-476.88"/>
<polygon fill="#757575" stroke="#757575" points="1993.72,-479.84 2004.03,-482.26 1997.48,-473.93 1993.72,-479.84"/>
</g>
<!-- util/file.ts -->
<g id="node57" class="node">
<title>util/file.ts</title>
<path fill="none" stroke="#cfffac" d="M1594.83,-152.28C1594.83,-152.28 1539.17,-152.28 1539.17,-152.28 1535.33,-152.28 1531.5,-148.45 1531.5,-144.61 1531.5,-144.61 1531.5,-136.95 1531.5,-136.95 1531.5,-133.11 1535.33,-129.28 1539.17,-129.28 1539.17,-129.28 1594.83,-129.28 1594.83,-129.28 1598.67,-129.28 1602.5,-133.11 1602.5,-136.95 1602.5,-136.95 1602.5,-144.61 1602.5,-144.61 1602.5,-148.45 1598.67,-152.28 1594.83,-152.28"/>
<text text-anchor="middle" x="1567" y="-137.08" font-family="Arial" font-size="14.00" fill="#cfffac">util/file.ts</text>
</g>
<!-- util/tsc&#45;compiler.ts&#45;&gt;util/file.ts -->
<g id="edge88" class="edge">
<title>util/tsc&#45;compiler.ts&#45;&gt;util/file.ts</title>
<path fill="none" stroke="#757575" d="M1326.84,-140.78C1385.41,-140.78 1470.05,-140.78 1521.36,-140.78"/>
<polygon fill="#757575" stroke="#757575" points="1521.47,-144.28 1531.47,-140.78 1521.47,-137.28 1521.47,-144.28"/>
</g>
<!-- services/tuya.spec.ts -->
<g id="node54" class="node">
<title>services/tuya.spec.ts</title>
<path fill="none" stroke="#c6c5fe" d="M170.83,-1671.28C170.83,-1671.28 37.17,-1671.28 37.17,-1671.28 33.33,-1671.28 29.5,-1667.45 29.5,-1663.61 29.5,-1663.61 29.5,-1655.95 29.5,-1655.95 29.5,-1652.11 33.33,-1648.28 37.17,-1648.28 37.17,-1648.28 170.83,-1648.28 170.83,-1648.28 174.67,-1648.28 178.5,-1652.11 178.5,-1655.95 178.5,-1655.95 178.5,-1663.61 178.5,-1663.61 178.5,-1667.45 174.67,-1671.28 170.83,-1671.28"/>
<text text-anchor="middle" x="104" y="-1656.08" font-family="Arial" font-size="14.00" fill="#c6c5fe">services/tuya.spec.ts</text>
</g>
<!-- services/tuya.ts -->
<g id="node55" class="node">
<title>services/tuya.ts</title>
<path fill="none" stroke="#cfffac" d="M405.33,-1671.28C405.33,-1671.28 306.67,-1671.28 306.67,-1671.28 302.83,-1671.28 299,-1667.45 299,-1663.61 299,-1663.61 299,-1655.95 299,-1655.95 299,-1652.11 302.83,-1648.28 306.67,-1648.28 306.67,-1648.28 405.33,-1648.28 405.33,-1648.28 409.17,-1648.28 413,-1652.11 413,-1655.95 413,-1655.95 413,-1663.61 413,-1663.61 413,-1667.45 409.17,-1671.28 405.33,-1671.28"/>
<text text-anchor="middle" x="356" y="-1656.08" font-family="Arial" font-size="14.00" fill="#cfffac">services/tuya.ts</text>
</g>
<!-- services/tuya.spec.ts&#45;&gt;services/tuya.ts -->
<g id="edge85" class="edge">
<title>services/tuya.spec.ts&#45;&gt;services/tuya.ts</title>
<path fill="none" stroke="#757575" d="M178.66,-1659.78C213.51,-1659.78 254.8,-1659.78 288.67,-1659.78"/>
<polygon fill="#757575" stroke="#757575" points="288.92,-1663.28 298.92,-1659.78 288.92,-1656.28 288.92,-1663.28"/>
</g>
<!-- util/reconnecting&#45;socket.ts -->
<g id="node58" class="node">
<title>util/reconnecting&#45;socket.ts</title>
<path fill="none" stroke="#cfffac" d="M186.83,-1712.28C186.83,-1712.28 21.17,-1712.28 21.17,-1712.28 17.33,-1712.28 13.5,-1708.45 13.5,-1704.61 13.5,-1704.61 13.5,-1696.95 13.5,-1696.95 13.5,-1693.11 17.33,-1689.28 21.17,-1689.28 21.17,-1689.28 186.83,-1689.28 186.83,-1689.28 190.67,-1689.28 194.5,-1693.11 194.5,-1696.95 194.5,-1696.95 194.5,-1704.61 194.5,-1704.61 194.5,-1708.45 190.67,-1712.28 186.83,-1712.28"/>
<text text-anchor="middle" x="104" y="-1697.08" font-family="Arial" font-size="14.00" fill="#cfffac">util/reconnecting&#45;socket.ts</text>
</g>
<!-- util/resolvable&#45;promise.ts -->
<g id="node59" class="node">
<title>util/resolvable&#45;promise.ts</title>
<path fill="none" stroke="#cfffac" d="M183.33,-1753.28C183.33,-1753.28 24.67,-1753.28 24.67,-1753.28 20.83,-1753.28 17,-1749.45 17,-1745.61 17,-1745.61 17,-1737.95 17,-1737.95 17,-1734.11 20.83,-1730.28 24.67,-1730.28 24.67,-1730.28 183.33,-1730.28 183.33,-1730.28 187.17,-1730.28 191,-1734.11 191,-1737.95 191,-1737.95 191,-1745.61 191,-1745.61 191,-1749.45 187.17,-1753.28 183.33,-1753.28"/>
<text text-anchor="middle" x="104" y="-1738.08" font-family="Arial" font-size="14.00" fill="#cfffac">util/resolvable&#45;promise.ts</text>
</g>
</g>
</svg>
