<?xml version="1.0" encoding="UTF-8" standalone="no"?>
<!DOCTYPE svg PUBLIC "-//W3C//DTD SVG 1.1//EN"
 "http://www.w3.org/Graphics/SVG/1.1/DTD/svg11.dtd">
<!-- Generated by graphviz version 2.47.2 (20210527.0053)
 -->
<!-- Title: G Pages: 1 -->
<svg width="2460pt" height="1277pt"
 viewBox="0.00 0.00 2460.20 1277.40" xmlns="http://www.w3.org/2000/svg" xmlns:xlink="http://www.w3.org/1999/xlink">
<g id="graph0" class="graph" transform="scale(1 1) rotate(0) translate(21.6 1255.8)">
<title>G</title>
<polygon fill="#111111" stroke="transparent" points="-21.6,21.6 -21.6,-1255.8 2438.6,-1255.8 2438.6,21.6 -21.6,21.6"/>
<!-- models/battery.ts -->
<g id="node1" class="node">
<title>models/battery.ts</title>
<path fill="none" stroke="#cfffac" d="M1459.33,-283.2C1459.33,-283.2 1349.67,-283.2 1349.67,-283.2 1345.83,-283.2 1342,-279.37 1342,-275.53 1342,-275.53 1342,-267.87 1342,-267.87 1342,-264.03 1345.83,-260.2 1349.67,-260.2 1349.67,-260.2 1459.33,-260.2 1459.33,-260.2 1463.17,-260.2 1467,-264.03 1467,-267.87 1467,-267.87 1467,-275.53 1467,-275.53 1467,-279.37 1463.17,-283.2 1459.33,-283.2"/>
<text text-anchor="middle" x="1404.5" y="-268" font-family="Arial" font-size="14.00" fill="#cfffac">models/battery.ts</text>
</g>
<!-- models/connection&#45;response.ts -->
<g id="node2" class="node">
<title>models/connection&#45;response.ts</title>
<path fill="none" stroke="#cfffac" d="M2409.33,-636.2C2409.33,-636.2 2208.67,-636.2 2208.67,-636.2 2204.83,-636.2 2201,-632.37 2201,-628.53 2201,-628.53 2201,-620.87 2201,-620.87 2201,-617.03 2204.83,-613.2 2208.67,-613.2 2208.67,-613.2 2409.33,-613.2 2409.33,-613.2 2413.17,-613.2 2417,-617.03 2417,-620.87 2417,-620.87 2417,-628.53 2417,-628.53 2417,-632.37 2413.17,-636.2 2409.33,-636.2"/>
<text text-anchor="middle" x="2309" y="-621" font-family="Arial" font-size="14.00" fill="#cfffac">models/connection&#45;response.ts</text>
</g>
<!-- models/connection.ts -->
<g id="node3" class="node">
<title>models/connection.ts</title>
<path fill="none" stroke="#c6c5fe" d="M1472.83,-594.2C1472.83,-594.2 1336.17,-594.2 1336.17,-594.2 1332.33,-594.2 1328.5,-590.37 1328.5,-586.53 1328.5,-586.53 1328.5,-578.87 1328.5,-578.87 1328.5,-575.03 1332.33,-571.2 1336.17,-571.2 1336.17,-571.2 1472.83,-571.2 1472.83,-571.2 1476.67,-571.2 1480.5,-575.03 1480.5,-578.87 1480.5,-578.87 1480.5,-586.53 1480.5,-586.53 1480.5,-590.37 1476.67,-594.2 1472.83,-594.2"/>
<text text-anchor="middle" x="1404.5" y="-579" font-family="Arial" font-size="14.00" fill="#c6c5fe">models/connection.ts</text>
</g>
<!-- models/receiver&#45;data.ts -->
<g id="node4" class="node">
<title>models/receiver&#45;data.ts</title>
<path fill="none" stroke="#c6c5fe" d="M1915.33,-754.2C1915.33,-754.2 1765.67,-754.2 1765.67,-754.2 1761.83,-754.2 1758,-750.37 1758,-746.53 1758,-746.53 1758,-738.87 1758,-738.87 1758,-735.03 1761.83,-731.2 1765.67,-731.2 1765.67,-731.2 1915.33,-731.2 1915.33,-731.2 1919.17,-731.2 1923,-735.03 1923,-738.87 1923,-738.87 1923,-746.53 1923,-746.53 1923,-750.37 1919.17,-754.2 1915.33,-754.2"/>
<text text-anchor="middle" x="1840.5" y="-739" font-family="Arial" font-size="14.00" fill="#c6c5fe">models/receiver&#45;data.ts</text>
</g>
<!-- models/connection.ts&#45;&gt;models/receiver&#45;data.ts -->
<g id="edge1" class="edge">
<title>models/connection.ts&#45;&gt;models/receiver&#45;data.ts</title>
<path fill="none" stroke="#757575" d="M1421.65,-594.45C1445.61,-611.44 1492.42,-642.99 1536,-662.7 1616.95,-699.31 1640.74,-700.4 1727,-721.7 1737.89,-724.39 1749.45,-726.91 1760.85,-729.21"/>
<polygon fill="#757575" stroke="#757575" points="1760.32,-732.68 1770.81,-731.18 1761.68,-725.81 1760.32,-732.68"/>
</g>
<!-- models/receiver.ts -->
<g id="node5" class="node">
<title>models/receiver.ts</title>
<path fill="none" stroke="#c6c5fe" d="M1672.83,-654.2C1672.83,-654.2 1554.17,-654.2 1554.17,-654.2 1550.33,-654.2 1546.5,-650.37 1546.5,-646.53 1546.5,-646.53 1546.5,-638.87 1546.5,-638.87 1546.5,-635.03 1550.33,-631.2 1554.17,-631.2 1554.17,-631.2 1672.83,-631.2 1672.83,-631.2 1676.67,-631.2 1680.5,-635.03 1680.5,-638.87 1680.5,-638.87 1680.5,-646.53 1680.5,-646.53 1680.5,-650.37 1676.67,-654.2 1672.83,-654.2"/>
<text text-anchor="middle" x="1613.5" y="-639" font-family="Arial" font-size="14.00" fill="#c6c5fe">models/receiver.ts</text>
</g>
<!-- models/connection.ts&#45;&gt;models/receiver.ts -->
<g id="edge2" class="edge">
<title>models/connection.ts&#45;&gt;models/receiver.ts</title>
<path fill="none" stroke="#757575" d="M1448.37,-594.25C1464.57,-598.68 1483.16,-603.84 1500,-608.7 1521.56,-614.92 1545.37,-622.08 1565.5,-628.21"/>
<polygon fill="#757575" stroke="#757575" points="1564.48,-631.56 1575.07,-631.13 1566.53,-624.86 1564.48,-631.56"/>
</g>
<!-- models/transformation.ts -->
<g id="node6" class="node">
<title>models/transformation.ts</title>
<path fill="none" stroke="#cfffac" d="M1919.33,-476.2C1919.33,-476.2 1761.67,-476.2 1761.67,-476.2 1757.83,-476.2 1754,-472.37 1754,-468.53 1754,-468.53 1754,-460.87 1754,-460.87 1754,-457.03 1757.83,-453.2 1761.67,-453.2 1761.67,-453.2 1919.33,-453.2 1919.33,-453.2 1923.17,-453.2 1927,-457.03 1927,-460.87 1927,-460.87 1927,-468.53 1927,-468.53 1927,-472.37 1923.17,-476.2 1919.33,-476.2"/>
<text text-anchor="middle" x="1840.5" y="-461" font-family="Arial" font-size="14.00" fill="#cfffac">models/transformation.ts</text>
</g>
<!-- models/connection.ts&#45;&gt;models/transformation.ts -->
<g id="edge3" class="edge">
<title>models/connection.ts&#45;&gt;models/transformation.ts</title>
<path fill="none" stroke="#757575" d="M1447.9,-571.17C1527.8,-549.45 1700.38,-502.53 1787.27,-478.9"/>
<polygon fill="#757575" stroke="#757575" points="1788.19,-482.28 1796.92,-476.28 1786.36,-475.52 1788.19,-482.28"/>
</g>
<!-- models/transformer.ts -->
<g id="node7" class="node">
<title>models/transformer.ts</title>
<path fill="none" stroke="#c6c5fe" d="M1683.33,-594.2C1683.33,-594.2 1543.67,-594.2 1543.67,-594.2 1539.83,-594.2 1536,-590.37 1536,-586.53 1536,-586.53 1536,-578.87 1536,-578.87 1536,-575.03 1539.83,-571.2 1543.67,-571.2 1543.67,-571.2 1683.33,-571.2 1683.33,-571.2 1687.17,-571.2 1691,-575.03 1691,-578.87 1691,-578.87 1691,-586.53 1691,-586.53 1691,-590.37 1687.17,-594.2 1683.33,-594.2"/>
<text text-anchor="middle" x="1613.5" y="-579" font-family="Arial" font-size="14.00" fill="#c6c5fe">models/transformer.ts</text>
</g>
<!-- models/connection.ts&#45;&gt;models/transformer.ts -->
<g id="edge4" class="edge">
<title>models/connection.ts&#45;&gt;models/transformer.ts</title>
<path fill="none" stroke="#757575" d="M1480.52,-582.7C1495.19,-582.7 1510.68,-582.7 1525.69,-582.7"/>
<polygon fill="#757575" stroke="#757575" points="1525.99,-586.2 1535.99,-582.7 1525.99,-579.2 1525.99,-586.2"/>
</g>
<!-- models/receiver&#45;data.ts&#45;&gt;models/connection&#45;response.ts -->
<g id="edge8" class="edge">
<title>models/receiver&#45;data.ts&#45;&gt;models/connection&#45;response.ts</title>
<path fill="none" stroke="#757575" d="M1904.62,-731.16C1920.73,-728.15 1938.02,-724.86 1954,-721.7 2047.98,-703.13 2072.94,-704.2 2165,-677.7 2201.64,-667.15 2242.32,-651.7 2270.89,-640.2"/>
<polygon fill="#757575" stroke="#757575" points="2272.51,-643.31 2280.46,-636.31 2269.88,-636.83 2272.51,-643.31"/>
</g>
<!-- models/evaluated&#45;data.ts -->
<g id="node8" class="node">
<title>models/evaluated&#45;data.ts</title>
<path fill="none" stroke="#c6c5fe" d="M2157.33,-636.2C2157.33,-636.2 1997.67,-636.2 1997.67,-636.2 1993.83,-636.2 1990,-632.37 1990,-628.53 1990,-628.53 1990,-620.87 1990,-620.87 1990,-617.03 1993.83,-613.2 1997.67,-613.2 1997.67,-613.2 2157.33,-613.2 2157.33,-613.2 2161.17,-613.2 2165,-617.03 2165,-620.87 2165,-620.87 2165,-628.53 2165,-628.53 2165,-632.37 2161.17,-636.2 2157.33,-636.2"/>
<text text-anchor="middle" x="2077.5" y="-621" font-family="Arial" font-size="14.00" fill="#c6c5fe">models/evaluated&#45;data.ts</text>
</g>
<!-- models/receiver&#45;data.ts&#45;&gt;models/evaluated&#45;data.ts -->
<g id="edge9" class="edge">
<title>models/receiver&#45;data.ts&#45;&gt;models/evaluated&#45;data.ts</title>
<path fill="none" stroke="#757575" d="M1923.17,-733.06C1933.85,-730.2 1944.4,-726.49 1954,-721.7 1973.42,-712 1973.25,-702.51 1990,-688.7 2010.01,-672.2 2033.75,-654.78 2051.29,-642.29"/>
<polygon fill="#757575" stroke="#757575" points="2053.71,-644.87 2059.85,-636.23 2049.66,-639.15 2053.71,-644.87"/>
</g>
<!-- models/sound.ts -->
<g id="node13" class="node">
<title>models/sound.ts</title>
<path fill="none" stroke="#cfffac" d="M2130.83,-556.2C2130.83,-556.2 2024.17,-556.2 2024.17,-556.2 2020.33,-556.2 2016.5,-552.37 2016.5,-548.53 2016.5,-548.53 2016.5,-540.87 2016.5,-540.87 2016.5,-537.03 2020.33,-533.2 2024.17,-533.2 2024.17,-533.2 2130.83,-533.2 2130.83,-533.2 2134.67,-533.2 2138.5,-537.03 2138.5,-540.87 2138.5,-540.87 2138.5,-548.53 2138.5,-548.53 2138.5,-552.37 2134.67,-556.2 2130.83,-556.2"/>
<text text-anchor="middle" x="2077.5" y="-541" font-family="Arial" font-size="14.00" fill="#cfffac">models/sound.ts</text>
</g>
<!-- models/receiver&#45;data.ts&#45;&gt;models/sound.ts -->
<g id="edge10" class="edge">
<title>models/receiver&#45;data.ts&#45;&gt;models/sound.ts</title>
<path fill="none" stroke="#757575" d="M1923.02,-738.5C1934.39,-734.93 1945.19,-729.58 1954,-721.7 1994.87,-685.15 1957.51,-647.87 1990,-603.7 2003.3,-585.62 2023.89,-571.25 2041.65,-561.23"/>
<polygon fill="#757575" stroke="#757575" points="2043.49,-564.21 2050.62,-556.38 2040.16,-558.05 2043.49,-564.21"/>
</g>
<!-- util/types.d.ts -->
<g id="node14" class="node">
<title>util/types.d.ts</title>
<path fill="none" stroke="#cfffac" d="M2119.33,-754.2C2119.33,-754.2 2035.67,-754.2 2035.67,-754.2 2031.83,-754.2 2028,-750.37 2028,-746.53 2028,-746.53 2028,-738.87 2028,-738.87 2028,-735.03 2031.83,-731.2 2035.67,-731.2 2035.67,-731.2 2119.33,-731.2 2119.33,-731.2 2123.17,-731.2 2127,-735.03 2127,-738.87 2127,-738.87 2127,-746.53 2127,-746.53 2127,-750.37 2123.17,-754.2 2119.33,-754.2"/>
<text text-anchor="middle" x="2077.5" y="-739" font-family="Arial" font-size="14.00" fill="#cfffac">util/types.d.ts</text>
</g>
<!-- models/receiver&#45;data.ts&#45;&gt;util/types.d.ts -->
<g id="edge11" class="edge">
<title>models/receiver&#45;data.ts&#45;&gt;util/types.d.ts</title>
<path fill="none" stroke="#757575" d="M1923.03,-742.7C1954.2,-742.7 1989.11,-742.7 2017.75,-742.7"/>
<polygon fill="#757575" stroke="#757575" points="2017.99,-746.2 2027.99,-742.7 2017.99,-739.2 2017.99,-746.2"/>
</g>
<!-- models/receiver.ts&#45;&gt;models/receiver&#45;data.ts -->
<g id="edge13" class="edge">
<title>models/receiver.ts&#45;&gt;models/receiver&#45;data.ts</title>
<path fill="none" stroke="#757575" d="M1630.1,-654.21C1658.44,-675.04 1716.44,-717.26 1727,-721.7 1733.67,-724.51 1740.73,-726.94 1747.91,-729.05"/>
<polygon fill="#757575" stroke="#757575" points="1747.21,-732.49 1757.78,-731.73 1749.05,-725.73 1747.21,-732.49"/>
</g>
<!-- models/receiver.ts&#45;&gt;models/evaluated&#45;data.ts -->
<g id="edge12" class="edge">
<title>models/receiver.ts&#45;&gt;models/evaluated&#45;data.ts</title>
<path fill="none" stroke="#757575" d="M1680.69,-640.12C1759.01,-637.07 1890.08,-631.96 1979.77,-628.47"/>
<polygon fill="#757575" stroke="#757575" points="1980.09,-631.96 1989.95,-628.07 1979.82,-624.96 1980.09,-631.96"/>
</g>
<!-- services/firebasemessaging.ts -->
<g id="node15" class="node">
<title>services/firebasemessaging.ts</title>
<path fill="none" stroke="#cfffac" d="M1937.83,-672.2C1937.83,-672.2 1743.17,-672.2 1743.17,-672.2 1739.33,-672.2 1735.5,-668.37 1735.5,-664.53 1735.5,-664.53 1735.5,-656.87 1735.5,-656.87 1735.5,-653.03 1739.33,-649.2 1743.17,-649.2 1743.17,-649.2 1937.83,-649.2 1937.83,-649.2 1941.67,-649.2 1945.5,-653.03 1945.5,-656.87 1945.5,-656.87 1945.5,-664.53 1945.5,-664.53 1945.5,-668.37 1941.67,-672.2 1937.83,-672.2"/>
<text text-anchor="middle" x="1840.5" y="-657" font-family="Arial" font-size="14.00" fill="#cfffac">services/firebasemessaging.ts</text>
</g>
<!-- models/receiver.ts&#45;&gt;services/firebasemessaging.ts -->
<g id="edge14" class="edge">
<title>models/receiver.ts&#45;&gt;services/firebasemessaging.ts</title>
<path fill="none" stroke="#757575" d="M1680.79,-648C1694.83,-649.13 1710.02,-650.34 1725.26,-651.56"/>
<polygon fill="#757575" stroke="#757575" points="1725.03,-655.05 1735.27,-652.36 1725.59,-648.07 1725.03,-655.05"/>
</g>
<!-- services/websocketmessaging.ts -->
<g id="node16" class="node">
<title>services/websocketmessaging.ts</title>
<path fill="none" stroke="#c6c5fe" d="M1946.33,-713.2C1946.33,-713.2 1734.67,-713.2 1734.67,-713.2 1730.83,-713.2 1727,-709.37 1727,-705.53 1727,-705.53 1727,-697.87 1727,-697.87 1727,-694.03 1730.83,-690.2 1734.67,-690.2 1734.67,-690.2 1946.33,-690.2 1946.33,-690.2 1950.17,-690.2 1954,-694.03 1954,-697.87 1954,-697.87 1954,-705.53 1954,-705.53 1954,-709.37 1950.17,-713.2 1946.33,-713.2"/>
<text text-anchor="middle" x="1840.5" y="-698" font-family="Arial" font-size="14.00" fill="#c6c5fe">services/websocketmessaging.ts</text>
</g>
<!-- models/receiver.ts&#45;&gt;services/websocketmessaging.ts -->
<g id="edge15" class="edge">
<title>models/receiver.ts&#45;&gt;services/websocketmessaging.ts</title>
<path fill="none" stroke="#757575" d="M1645.18,-654.37C1667.6,-662.58 1698.87,-673.36 1727,-680.7 1737.38,-683.41 1748.38,-685.9 1759.28,-688.16"/>
<polygon fill="#757575" stroke="#757575" points="1758.75,-691.63 1769.25,-690.17 1760.13,-684.76 1758.75,-691.63"/>
</g>
<!-- util/log.ts -->
<g id="node17" class="node">
<title>util/log.ts</title>
<path fill="none" stroke="#c6c5fe" d="M1868.83,-176.2C1868.83,-176.2 1812.17,-176.2 1812.17,-176.2 1808.33,-176.2 1804.5,-172.37 1804.5,-168.53 1804.5,-168.53 1804.5,-160.87 1804.5,-160.87 1804.5,-157.03 1808.33,-153.2 1812.17,-153.2 1812.17,-153.2 1868.83,-153.2 1868.83,-153.2 1872.67,-153.2 1876.5,-157.03 1876.5,-160.87 1876.5,-160.87 1876.5,-168.53 1876.5,-168.53 1876.5,-172.37 1872.67,-176.2 1868.83,-176.2"/>
<text text-anchor="middle" x="1840.5" y="-161" font-family="Arial" font-size="14.00" fill="#c6c5fe">util/log.ts</text>
</g>
<!-- models/receiver.ts&#45;&gt;util/log.ts -->
<g id="edge16" class="edge">
<title>models/receiver.ts&#45;&gt;util/log.ts</title>
<path fill="none" stroke="#757575" d="M1651.35,-631.09C1665.69,-624.82 1681.04,-615.65 1691,-602.7 1735.19,-545.28 1705.38,-512.85 1727,-443.7 1757.93,-344.76 1808.53,-231.52 1829.7,-185.63"/>
<polygon fill="#757575" stroke="#757575" points="1832.94,-186.96 1833.98,-176.42 1826.59,-184.01 1832.94,-186.96"/>
</g>
<!-- models/transformer.ts&#45;&gt;models/connection&#45;response.ts -->
<g id="edge24" class="edge">
<title>models/transformer.ts&#45;&gt;models/connection&#45;response.ts</title>
<path fill="none" stroke="#757575" d="M1691.26,-583.02C1797.8,-584.06 1996.43,-588.15 2165,-603.7 2186.04,-605.64 2208.72,-608.58 2229.67,-611.64"/>
<polygon fill="#757575" stroke="#757575" points="2229.4,-615.14 2239.81,-613.16 2230.43,-608.22 2229.4,-615.14"/>
</g>
<!-- models/transformer.ts&#45;&gt;models/transformation.ts -->
<g id="edge25" class="edge">
<title>models/transformer.ts&#45;&gt;models/transformation.ts</title>
<path fill="none" stroke="#757575" d="M1654.09,-571.14C1666.17,-567.12 1679.33,-562.21 1691,-556.7 1736.98,-534.99 1786.43,-502.26 1815.08,-482.25"/>
<polygon fill="#757575" stroke="#757575" points="1817.12,-485.1 1823.28,-476.48 1813.08,-479.37 1817.12,-485.1"/>
</g>
<!-- models/evaluated&#45;data.ts&#45;&gt;models/connection&#45;response.ts -->
<g id="edge5" class="edge">
<title>models/evaluated&#45;data.ts&#45;&gt;models/connection&#45;response.ts</title>
<path fill="none" stroke="#757575" d="M2165.26,-624.7C2173.57,-624.7 2182.08,-624.7 2190.61,-624.7"/>
<polygon fill="#757575" stroke="#757575" points="2190.62,-628.2 2200.62,-624.7 2190.62,-621.2 2190.62,-628.2"/>
</g>
<!-- models/event.ts -->
<g id="node9" class="node">
<title>models/event.ts</title>
<path fill="none" stroke="#cfffac" d="M1455.33,-324.2C1455.33,-324.2 1353.67,-324.2 1353.67,-324.2 1349.83,-324.2 1346,-320.37 1346,-316.53 1346,-316.53 1346,-308.87 1346,-308.87 1346,-305.03 1349.83,-301.2 1353.67,-301.2 1353.67,-301.2 1455.33,-301.2 1455.33,-301.2 1459.17,-301.2 1463,-305.03 1463,-308.87 1463,-308.87 1463,-316.53 1463,-316.53 1463,-320.37 1459.17,-324.2 1455.33,-324.2"/>
<text text-anchor="middle" x="1404.5" y="-309" font-family="Arial" font-size="14.00" fill="#cfffac">models/event.ts</text>
</g>
<!-- models/inventory/item.ts -->
<g id="node10" class="node">
<title>models/inventory/item.ts</title>
<path fill="none" stroke="#c6c5fe" d="M1236.33,-714.2C1236.33,-714.2 1081.67,-714.2 1081.67,-714.2 1077.83,-714.2 1074,-710.37 1074,-706.53 1074,-706.53 1074,-698.87 1074,-698.87 1074,-695.03 1077.83,-691.2 1081.67,-691.2 1081.67,-691.2 1236.33,-691.2 1236.33,-691.2 1240.17,-691.2 1244,-695.03 1244,-698.87 1244,-698.87 1244,-706.53 1244,-706.53 1244,-710.37 1240.17,-714.2 1236.33,-714.2"/>
<text text-anchor="middle" x="1159" y="-699" font-family="Arial" font-size="14.00" fill="#c6c5fe">models/inventory/item.ts</text>
</g>
<!-- models/inventory/location.ts -->
<g id="node11" class="node">
<title>models/inventory/location.ts</title>
<path fill="none" stroke="#cfffac" d="M1492.33,-714.2C1492.33,-714.2 1316.67,-714.2 1316.67,-714.2 1312.83,-714.2 1309,-710.37 1309,-706.53 1309,-706.53 1309,-698.87 1309,-698.87 1309,-695.03 1312.83,-691.2 1316.67,-691.2 1316.67,-691.2 1492.33,-691.2 1492.33,-691.2 1496.17,-691.2 1500,-695.03 1500,-698.87 1500,-698.87 1500,-706.53 1500,-706.53 1500,-710.37 1496.17,-714.2 1492.33,-714.2"/>
<text text-anchor="middle" x="1404.5" y="-699" font-family="Arial" font-size="14.00" fill="#cfffac">models/inventory/location.ts</text>
</g>
<!-- models/inventory/item.ts&#45;&gt;models/inventory/location.ts -->
<g id="edge6" class="edge">
<title>models/inventory/item.ts&#45;&gt;models/inventory/location.ts</title>
<path fill="none" stroke="#757575" d="M1244.14,-702.7C1261.77,-702.7 1280.57,-702.7 1298.84,-702.7"/>
<polygon fill="#757575" stroke="#757575" points="1298.93,-706.2 1308.93,-702.7 1298.93,-699.2 1298.93,-706.2"/>
</g>
<!-- models/inventory/order.ts -->
<g id="node12" class="node">
<title>models/inventory/order.ts</title>
<path fill="none" stroke="#cfffac" d="M1484.83,-847.2C1484.83,-847.2 1324.17,-847.2 1324.17,-847.2 1320.33,-847.2 1316.5,-843.37 1316.5,-839.53 1316.5,-839.53 1316.5,-831.87 1316.5,-831.87 1316.5,-828.03 1320.33,-824.2 1324.17,-824.2 1324.17,-824.2 1484.83,-824.2 1484.83,-824.2 1488.67,-824.2 1492.5,-828.03 1492.5,-831.87 1492.5,-831.87 1492.5,-839.53 1492.5,-839.53 1492.5,-843.37 1488.67,-847.2 1484.83,-847.2"/>
<text text-anchor="middle" x="1404.5" y="-832" font-family="Arial" font-size="14.00" fill="#cfffac">models/inventory/order.ts</text>
</g>
<!-- models/inventory/item.ts&#45;&gt;models/inventory/order.ts -->
<g id="edge7" class="edge">
<title>models/inventory/item.ts&#45;&gt;models/inventory/order.ts</title>
<path fill="none" stroke="#757575" d="M1181.18,-714.27C1224.45,-737.9 1323.08,-791.78 1373.15,-819.12"/>
<polygon fill="#757575" stroke="#757575" points="1371.74,-822.34 1382.19,-824.06 1375.09,-816.2 1371.74,-822.34"/>
</g>
<!-- services/websocketmessaging.ts&#45;&gt;models/connection&#45;response.ts -->
<g id="edge75" class="edge">
<title>services/websocketmessaging.ts&#45;&gt;models/connection&#45;response.ts</title>
<path fill="none" stroke="#757575" d="M1911.34,-690.17C1996.14,-676.17 2138.86,-652.62 2228,-637.9"/>
<polygon fill="#757575" stroke="#757575" points="2228.77,-641.32 2238.06,-636.24 2227.63,-634.42 2228.77,-641.32"/>
</g>
<!-- util/btoaatob.ts -->
<g id="node40" class="node">
<title>util/btoaatob.ts</title>
<path fill="none" stroke="#cfffac" d="M2123.83,-176.2C2123.83,-176.2 2031.17,-176.2 2031.17,-176.2 2027.33,-176.2 2023.5,-172.37 2023.5,-168.53 2023.5,-168.53 2023.5,-160.87 2023.5,-160.87 2023.5,-157.03 2027.33,-153.2 2031.17,-153.2 2031.17,-153.2 2123.83,-153.2 2123.83,-153.2 2127.67,-153.2 2131.5,-157.03 2131.5,-160.87 2131.5,-160.87 2131.5,-168.53 2131.5,-168.53 2131.5,-172.37 2127.67,-176.2 2123.83,-176.2"/>
<text text-anchor="middle" x="2077.5" y="-161" font-family="Arial" font-size="14.00" fill="#cfffac">util/btoaatob.ts</text>
</g>
<!-- util/log.ts&#45;&gt;util/btoaatob.ts -->
<g id="edge76" class="edge">
<title>util/log.ts&#45;&gt;util/btoaatob.ts</title>
<path fill="none" stroke="#757575" d="M1876.68,-164.7C1912.6,-164.7 1969.14,-164.7 2012.92,-164.7"/>
<polygon fill="#757575" stroke="#757575" points="2013.19,-168.2 2023.19,-164.7 2013.19,-161.2 2013.19,-168.2"/>
</g>
<!-- models/sender.ts -->
<g id="node18" class="node">
<title>models/sender.ts</title>
<path fill="none" stroke="#c6c5fe" d="M1214.83,-438.2C1214.83,-438.2 1103.17,-438.2 1103.17,-438.2 1099.33,-438.2 1095.5,-434.37 1095.5,-430.53 1095.5,-430.53 1095.5,-422.87 1095.5,-422.87 1095.5,-419.03 1099.33,-415.2 1103.17,-415.2 1103.17,-415.2 1214.83,-415.2 1214.83,-415.2 1218.67,-415.2 1222.5,-419.03 1222.5,-422.87 1222.5,-422.87 1222.5,-430.53 1222.5,-430.53 1222.5,-434.37 1218.67,-438.2 1214.83,-438.2"/>
<text text-anchor="middle" x="1159" y="-423" font-family="Arial" font-size="14.00" fill="#c6c5fe">models/sender.ts</text>
</g>
<!-- models/sender.ts&#45;&gt;models/battery.ts -->
<g id="edge17" class="edge">
<title>models/sender.ts&#45;&gt;models/battery.ts</title>
<path fill="none" stroke="#757575" d="M1181.92,-415.14C1206.22,-401.57 1245.6,-377.25 1273,-348.7 1293.75,-327.08 1284.41,-308.82 1309,-291.7 1315.93,-286.88 1323.78,-283.18 1331.93,-280.35"/>
<polygon fill="#757575" stroke="#757575" points="1333.04,-283.67 1341.59,-277.41 1331.01,-276.97 1333.04,-283.67"/>
</g>
<!-- models/sender.ts&#45;&gt;models/connection&#45;response.ts -->
<g id="edge18" class="edge">
<title>models/sender.ts&#45;&gt;models/connection&#45;response.ts</title>
<path fill="none" stroke="#757575" d="M1199.55,-438.21C1277.73,-459.91 1457.85,-504.7 1612.5,-504.7 1612.5,-504.7 1612.5,-504.7 1841.5,-504.7 1985.53,-504.7 2029.07,-476.1 2165,-523.7 2214.96,-541.19 2263.12,-581.63 2288.81,-605.69"/>
<polygon fill="#757575" stroke="#757575" points="2286.69,-608.5 2296.34,-612.88 2291.53,-603.44 2286.69,-608.5"/>
</g>
<!-- models/sender.ts&#45;&gt;models/connection.ts -->
<g id="edge19" class="edge">
<title>models/sender.ts&#45;&gt;models/connection.ts</title>
<path fill="none" stroke="#757575" d="M1189.34,-438.24C1214.02,-449.1 1249.03,-467.34 1273,-491.7 1296.16,-515.24 1283.05,-536.28 1309,-556.7 1314.09,-560.7 1319.75,-564.09 1325.71,-566.96"/>
<polygon fill="#757575" stroke="#757575" points="1324.7,-570.34 1335.27,-571.05 1327.46,-563.9 1324.7,-570.34"/>
</g>
<!-- models/sender.ts&#45;&gt;models/transformation.ts -->
<g id="edge21" class="edge">
<title>models/sender.ts&#45;&gt;models/transformation.ts</title>
<path fill="none" stroke="#757575" d="M1222.63,-434.35C1249.22,-437.35 1280.59,-440.59 1309,-442.7 1460.84,-453.99 1637.58,-459.87 1743.89,-462.62"/>
<polygon fill="#757575" stroke="#757575" points="1743.87,-466.12 1753.95,-462.88 1744.04,-459.12 1743.87,-466.12"/>
</g>
<!-- models/sender.ts&#45;&gt;models/transformer.ts -->
<g id="edge22" class="edge">
<title>models/sender.ts&#45;&gt;models/transformer.ts</title>
<path fill="none" stroke="#757575" d="M1189.79,-438.3C1213.48,-448.25 1246.86,-463.93 1273,-482.7 1291.38,-495.9 1289.11,-507.92 1309,-518.7 1319.35,-524.31 1457.11,-552.1 1543.43,-569.17"/>
<polygon fill="#757575" stroke="#757575" points="1542.94,-572.64 1553.43,-571.14 1544.3,-565.77 1542.94,-572.64"/>
</g>
<!-- models/sender.ts&#45;&gt;models/event.ts -->
<g id="edge20" class="edge">
<title>models/sender.ts&#45;&gt;models/event.ts</title>
<path fill="none" stroke="#757575" d="M1176.22,-415.15C1202.8,-396.69 1257.83,-360.39 1309,-338.7 1319.42,-334.28 1330.81,-330.4 1341.95,-327.08"/>
<polygon fill="#757575" stroke="#757575" points="1343,-330.43 1351.65,-324.31 1341.08,-323.69 1343,-330.43"/>
</g>
<!-- models/sender.ts&#45;&gt;util/log.ts -->
<g id="edge23" class="edge">
<title>models/sender.ts&#45;&gt;util/log.ts</title>
<path fill="none" stroke="#757575" d="M1191.4,-415.17C1221.37,-404.4 1267.9,-388.3 1309,-376.7 1392.84,-353.04 1417.96,-361.99 1500,-332.7 1620.85,-289.55 1754.72,-214.57 1811.55,-181.35"/>
<polygon fill="#757575" stroke="#757575" points="1813.46,-184.29 1820.31,-176.21 1809.91,-178.26 1813.46,-184.29"/>
</g>
<!-- models/test.ts -->
<g id="node19" class="node">
<title>models/test.ts</title>
<path fill="none" stroke="#cfffac" d="M149.33,-1036.2C149.33,-1036.2 58.67,-1036.2 58.67,-1036.2 54.83,-1036.2 51,-1032.37 51,-1028.53 51,-1028.53 51,-1020.87 51,-1020.87 51,-1017.03 54.83,-1013.2 58.67,-1013.2 58.67,-1013.2 149.33,-1013.2 149.33,-1013.2 153.17,-1013.2 157,-1017.03 157,-1020.87 157,-1020.87 157,-1028.53 157,-1028.53 157,-1032.37 153.17,-1036.2 149.33,-1036.2"/>
<text text-anchor="middle" x="104" y="-1021" font-family="Arial" font-size="14.00" fill="#cfffac">models/test.ts</text>
</g>
<!-- models/timer.ts -->
<g id="node20" class="node">
<title>models/timer.ts</title>
<path fill="none" stroke="#cfffac" d="M1208.33,-596.2C1208.33,-596.2 1109.67,-596.2 1109.67,-596.2 1105.83,-596.2 1102,-592.37 1102,-588.53 1102,-588.53 1102,-580.87 1102,-580.87 1102,-577.03 1105.83,-573.2 1109.67,-573.2 1109.67,-573.2 1208.33,-573.2 1208.33,-573.2 1212.17,-573.2 1216,-577.03 1216,-580.87 1216,-580.87 1216,-588.53 1216,-588.53 1216,-592.37 1212.17,-596.2 1208.33,-596.2"/>
<text text-anchor="middle" x="1159" y="-581" font-family="Arial" font-size="14.00" fill="#cfffac">models/timer.ts</text>
</g>
<!-- node&#45;red/glboal&#45;script.ts -->
<g id="node21" class="node">
<title>node&#45;red/glboal&#45;script.ts</title>
<path fill="none" stroke="#c6c5fe" d="M964.33,-1132.2C964.33,-1132.2 809.67,-1132.2 809.67,-1132.2 805.83,-1132.2 802,-1128.37 802,-1124.53 802,-1124.53 802,-1116.87 802,-1116.87 802,-1113.03 805.83,-1109.2 809.67,-1109.2 809.67,-1109.2 964.33,-1109.2 964.33,-1109.2 968.17,-1109.2 972,-1113.03 972,-1116.87 972,-1116.87 972,-1124.53 972,-1124.53 972,-1128.37 968.17,-1132.2 964.33,-1132.2"/>
<text text-anchor="middle" x="887" y="-1117" font-family="Arial" font-size="14.00" fill="#c6c5fe">node&#45;red/glboal&#45;script.ts</text>
</g>
<!-- node&#45;red/red&#45;ui.d.ts -->
<g id="node22" class="node">
<title>node&#45;red/red&#45;ui.d.ts</title>
<path fill="none" stroke="#cfffac" d="M1221.83,-1132.2C1221.83,-1132.2 1096.17,-1132.2 1096.17,-1132.2 1092.33,-1132.2 1088.5,-1128.37 1088.5,-1124.53 1088.5,-1124.53 1088.5,-1116.87 1088.5,-1116.87 1088.5,-1113.03 1092.33,-1109.2 1096.17,-1109.2 1096.17,-1109.2 1221.83,-1109.2 1221.83,-1109.2 1225.67,-1109.2 1229.5,-1113.03 1229.5,-1116.87 1229.5,-1116.87 1229.5,-1124.53 1229.5,-1124.53 1229.5,-1128.37 1225.67,-1132.2 1221.83,-1132.2"/>
<text text-anchor="middle" x="1159" y="-1117" font-family="Arial" font-size="14.00" fill="#cfffac">node&#45;red/red&#45;ui.d.ts</text>
</g>
<!-- node&#45;red/glboal&#45;script.ts&#45;&gt;node&#45;red/red&#45;ui.d.ts -->
<g id="edge26" class="edge">
<title>node&#45;red/glboal&#45;script.ts&#45;&gt;node&#45;red/red&#45;ui.d.ts</title>
<path fill="none" stroke="#757575" d="M972.32,-1120.7C1006.11,-1120.7 1044.86,-1120.7 1078.19,-1120.7"/>
<polygon fill="#757575" stroke="#757575" points="1078.35,-1124.2 1088.35,-1120.7 1078.35,-1117.2 1078.35,-1124.2"/>
</g>
<!-- node&#45;red/node&#45;red&#45;registration.ts -->
<g id="node23" class="node">
<title>node&#45;red/node&#45;red&#45;registration.ts</title>
<path fill="none" stroke="#c6c5fe" d="M721.33,-1132.2C721.33,-1132.2 511.67,-1132.2 511.67,-1132.2 507.83,-1132.2 504,-1128.37 504,-1124.53 504,-1124.53 504,-1116.87 504,-1116.87 504,-1113.03 507.83,-1109.2 511.67,-1109.2 511.67,-1109.2 721.33,-1109.2 721.33,-1109.2 725.17,-1109.2 729,-1113.03 729,-1116.87 729,-1116.87 729,-1124.53 729,-1124.53 729,-1128.37 725.17,-1132.2 721.33,-1132.2"/>
<text text-anchor="middle" x="616.5" y="-1117" font-family="Arial" font-size="14.00" fill="#c6c5fe">node&#45;red/node&#45;red&#45;registration.ts</text>
</g>
<!-- node&#45;red/node&#45;red&#45;registration.ts&#45;&gt;node&#45;red/glboal&#45;script.ts -->
<g id="edge27" class="edge">
<title>node&#45;red/node&#45;red&#45;registration.ts&#45;&gt;node&#45;red/glboal&#45;script.ts</title>
<path fill="none" stroke="#757575" d="M729.04,-1120.7C749.87,-1120.7 771.45,-1120.7 791.7,-1120.7"/>
<polygon fill="#757575" stroke="#757575" points="791.83,-1124.2 801.83,-1120.7 791.83,-1117.2 791.83,-1124.2"/>
</g>
<!-- node&#45;red/node&#45;red&#45;registration.ts&#45;&gt;node&#45;red/red&#45;ui.d.ts -->
<g id="edge28" class="edge">
<title>node&#45;red/node&#45;red&#45;registration.ts&#45;&gt;node&#45;red/red&#45;ui.d.ts</title>
<path fill="none" stroke="#757575" d="M684.1,-1109.18C709.36,-1105.35 738.42,-1101.58 765,-1099.7 873.17,-1092.04 900.82,-1092.11 1009,-1099.7 1032.38,-1101.34 1057.68,-1104.41 1080.67,-1107.7"/>
<polygon fill="#757575" stroke="#757575" points="1080.31,-1111.19 1090.71,-1109.18 1081.33,-1104.26 1080.31,-1111.19"/>
</g>
<!-- node&#45;red/register&#45;custom&#45;type.ts -->
<g id="node24" class="node">
<title>node&#45;red/register&#45;custom&#45;type.ts</title>
<path fill="none" stroke="#c6c5fe" d="M460.33,-1152.2C460.33,-1152.2 251.67,-1152.2 251.67,-1152.2 247.83,-1152.2 244,-1148.37 244,-1144.53 244,-1144.53 244,-1136.87 244,-1136.87 244,-1133.03 247.83,-1129.2 251.67,-1129.2 251.67,-1129.2 460.33,-1129.2 460.33,-1129.2 464.17,-1129.2 468,-1133.03 468,-1136.87 468,-1136.87 468,-1144.53 468,-1144.53 468,-1148.37 464.17,-1152.2 460.33,-1152.2"/>
<text text-anchor="middle" x="356" y="-1137" font-family="Arial" font-size="14.00" fill="#c6c5fe">node&#45;red/register&#45;custom&#45;type.ts</text>
</g>
<!-- node&#45;red/register&#45;custom&#45;type.ts&#45;&gt;node&#45;red/red&#45;ui.d.ts -->
<g id="edge30" class="edge">
<title>node&#45;red/register&#45;custom&#45;type.ts&#45;&gt;node&#45;red/red&#45;ui.d.ts</title>
<path fill="none" stroke="#757575" d="M468.19,-1145.2C598.09,-1149.42 819.4,-1153.37 1009,-1140.7 1031.58,-1139.19 1055.96,-1136.41 1078.33,-1133.39"/>
<polygon fill="#757575" stroke="#757575" points="1079.03,-1136.83 1088.46,-1131.99 1078.07,-1129.89 1079.03,-1136.83"/>
</g>
<!-- node&#45;red/register&#45;custom&#45;type.ts&#45;&gt;node&#45;red/node&#45;red&#45;registration.ts -->
<g id="edge29" class="edge">
<title>node&#45;red/register&#45;custom&#45;type.ts&#45;&gt;node&#45;red/node&#45;red&#45;registration.ts</title>
<path fill="none" stroke="#757575" d="M468.13,-1132.1C476.59,-1131.45 485.15,-1130.78 493.67,-1130.13"/>
<polygon fill="#757575" stroke="#757575" points="493.94,-1133.61 503.65,-1129.35 493.4,-1126.64 493.94,-1133.61"/>
</g>
<!-- node&#45;red/server.ts -->
<g id="node25" class="node">
<title>node&#45;red/server.ts</title>
<path fill="none" stroke="#c6c5fe" d="M162.83,-1152.2C162.83,-1152.2 45.17,-1152.2 45.17,-1152.2 41.33,-1152.2 37.5,-1148.37 37.5,-1144.53 37.5,-1144.53 37.5,-1136.87 37.5,-1136.87 37.5,-1133.03 41.33,-1129.2 45.17,-1129.2 45.17,-1129.2 162.83,-1129.2 162.83,-1129.2 166.67,-1129.2 170.5,-1133.03 170.5,-1136.87 170.5,-1136.87 170.5,-1144.53 170.5,-1144.53 170.5,-1148.37 166.67,-1152.2 162.83,-1152.2"/>
<text text-anchor="middle" x="104" y="-1137" font-family="Arial" font-size="14.00" fill="#c6c5fe">node&#45;red/server.ts</text>
</g>
<!-- node&#45;red/server.ts&#45;&gt;node&#45;red/register&#45;custom&#45;type.ts -->
<g id="edge31" class="edge">
<title>node&#45;red/server.ts&#45;&gt;node&#45;red/register&#45;custom&#45;type.ts</title>
<path fill="none" stroke="#757575" d="M170.68,-1140.7C190.04,-1140.7 211.87,-1140.7 233.56,-1140.7"/>
<polygon fill="#757575" stroke="#757575" points="233.84,-1144.2 243.84,-1140.7 233.84,-1137.2 233.84,-1144.2"/>
</g>
<!-- resources/connection.r.ts -->
<g id="node26" class="node">
<title>resources/connection.r.ts</title>
<path fill="none" stroke="#c6c5fe" d="M436.33,-654.2C436.33,-654.2 275.67,-654.2 275.67,-654.2 271.83,-654.2 268,-650.37 268,-646.53 268,-646.53 268,-638.87 268,-638.87 268,-635.03 271.83,-631.2 275.67,-631.2 275.67,-631.2 436.33,-631.2 436.33,-631.2 440.17,-631.2 444,-635.03 444,-638.87 444,-638.87 444,-646.53 444,-646.53 444,-650.37 440.17,-654.2 436.33,-654.2"/>
<text text-anchor="middle" x="356" y="-639" font-family="Arial" font-size="14.00" fill="#c6c5fe">resources/connection.r.ts</text>
</g>
<!-- resources/connection.r.ts&#45;&gt;models/connection.ts -->
<g id="edge32" class="edge">
<title>resources/connection.r.ts&#45;&gt;models/connection.ts</title>
<path fill="none" stroke="#757575" d="M444.21,-644.1C519.61,-644.98 631.52,-645.48 729,-642.7 971.27,-635.78 1032.53,-634.93 1273,-604.7 1292.03,-602.31 1312.53,-599.13 1331.52,-595.95"/>
<polygon fill="#757575" stroke="#757575" points="1332.32,-599.36 1341.59,-594.23 1331.14,-592.46 1332.32,-599.36"/>
</g>
<!-- resources/connection.r.ts&#45;&gt;models/receiver.ts -->
<g id="edge33" class="edge">
<title>resources/connection.r.ts&#45;&gt;models/receiver.ts</title>
<path fill="none" stroke="#757575" d="M391.77,-654.27C533.66,-699.64 1081.21,-856.42 1500,-722.7 1537.65,-710.68 1573.49,-680.94 1594.21,-661.3"/>
<polygon fill="#757575" stroke="#757575" points="1596.66,-663.81 1601.39,-654.33 1591.78,-658.79 1596.66,-663.81"/>
</g>
<!-- resources/connection.r.ts&#45;&gt;models/sender.ts -->
<g id="edge34" class="edge">
<title>resources/connection.r.ts&#45;&gt;models/sender.ts</title>
<path fill="none" stroke="#757575" d="M374.31,-631.14C428.82,-595.44 603.01,-486.9 765,-445.7 873.81,-418.02 1004.91,-418.05 1084.82,-421.62"/>
<polygon fill="#757575" stroke="#757575" points="1085.11,-425.14 1095.27,-422.12 1085.44,-418.15 1085.11,-425.14"/>
</g>
<!-- resources/frontend&#45;update.ts -->
<g id="node27" class="node">
<title>resources/frontend&#45;update.ts</title>
<path fill="none" stroke="#c6c5fe" d="M708.83,-634.2C708.83,-634.2 524.17,-634.2 524.17,-634.2 520.33,-634.2 516.5,-630.37 516.5,-626.53 516.5,-626.53 516.5,-618.87 516.5,-618.87 516.5,-615.03 520.33,-611.2 524.17,-611.2 524.17,-611.2 708.83,-611.2 708.83,-611.2 712.67,-611.2 716.5,-615.03 716.5,-618.87 716.5,-618.87 716.5,-626.53 716.5,-626.53 716.5,-630.37 712.67,-634.2 708.83,-634.2"/>
<text text-anchor="middle" x="616.5" y="-619" font-family="Arial" font-size="14.00" fill="#c6c5fe">resources/frontend&#45;update.ts</text>
</g>
<!-- resources/connection.r.ts&#45;&gt;resources/frontend&#45;update.ts -->
<g id="edge35" class="edge">
<title>resources/connection.r.ts&#45;&gt;resources/frontend&#45;update.ts</title>
<path fill="none" stroke="#757575" d="M444.16,-635.96C464.06,-634.42 485.45,-632.76 506.15,-631.16"/>
<polygon fill="#757575" stroke="#757575" points="506.55,-634.64 516.25,-630.38 506.01,-627.66 506.55,-634.64"/>
</g>
<!-- resources/frontend&#45;update.ts&#45;&gt;models/inventory/item.ts -->
<g id="edge36" class="edge">
<title>resources/frontend&#45;update.ts&#45;&gt;models/inventory/item.ts</title>
<path fill="none" stroke="#757575" d="M695.23,-634.2C794.46,-648.89 965.72,-674.24 1069.75,-689.64"/>
<polygon fill="#757575" stroke="#757575" points="1069.51,-693.14 1079.92,-691.14 1070.54,-686.22 1069.51,-693.14"/>
</g>
<!-- resources/frontend&#45;update.ts&#45;&gt;models/timer.ts -->
<g id="edge37" class="edge">
<title>resources/frontend&#45;update.ts&#45;&gt;models/timer.ts</title>
<path fill="none" stroke="#757575" d="M716.62,-620.54C795.86,-618.23 909.72,-613.63 1009,-604.7 1036.19,-602.25 1066.04,-598.47 1091.84,-594.84"/>
<polygon fill="#757575" stroke="#757575" points="1092.47,-598.29 1101.88,-593.41 1091.49,-591.36 1092.47,-598.29"/>
</g>
<!-- resources/websocket&#45;response.d.ts -->
<g id="node28" class="node">
<title>resources/websocket&#45;response.d.ts</title>
<path fill="none" stroke="#c6c5fe" d="M1001.33,-596.2C1001.33,-596.2 772.67,-596.2 772.67,-596.2 768.83,-596.2 765,-592.37 765,-588.53 765,-588.53 765,-580.87 765,-580.87 765,-577.03 768.83,-573.2 772.67,-573.2 772.67,-573.2 1001.33,-573.2 1001.33,-573.2 1005.17,-573.2 1009,-577.03 1009,-580.87 1009,-580.87 1009,-588.53 1009,-588.53 1009,-592.37 1005.17,-596.2 1001.33,-596.2"/>
<text text-anchor="middle" x="887" y="-581" font-family="Arial" font-size="14.00" fill="#c6c5fe">resources/websocket&#45;response.d.ts</text>
</g>
<!-- resources/frontend&#45;update.ts&#45;&gt;resources/websocket&#45;response.d.ts -->
<g id="edge38" class="edge">
<title>resources/frontend&#45;update.ts&#45;&gt;resources/websocket&#45;response.d.ts</title>
<path fill="none" stroke="#757575" d="M698.79,-611.19C729.01,-606.92 763.5,-602.04 794.57,-597.64"/>
<polygon fill="#757575" stroke="#757575" points="795.11,-601.1 804.53,-596.23 794.13,-594.17 795.11,-601.1"/>
</g>
<!-- services/sender&#45;loader.ts -->
<g id="node29" class="node">
<title>services/sender&#45;loader.ts</title>
<path fill="none" stroke="#c6c5fe" d="M967.83,-360.2C967.83,-360.2 806.17,-360.2 806.17,-360.2 802.33,-360.2 798.5,-356.37 798.5,-352.53 798.5,-352.53 798.5,-344.87 798.5,-344.87 798.5,-341.03 802.33,-337.2 806.17,-337.2 806.17,-337.2 967.83,-337.2 967.83,-337.2 971.67,-337.2 975.5,-341.03 975.5,-344.87 975.5,-344.87 975.5,-352.53 975.5,-352.53 975.5,-356.37 971.67,-360.2 967.83,-360.2"/>
<text text-anchor="middle" x="887" y="-345" font-family="Arial" font-size="14.00" fill="#c6c5fe">services/sender&#45;loader.ts</text>
</g>
<!-- resources/frontend&#45;update.ts&#45;&gt;services/sender&#45;loader.ts -->
<g id="edge39" class="edge">
<title>resources/frontend&#45;update.ts&#45;&gt;services/sender&#45;loader.ts</title>
<path fill="none" stroke="#757575" d="M626.08,-610.83C647.67,-581.31 706.75,-502.85 765,-445.7 795.94,-415.34 835.83,-384.8 861.17,-366.31"/>
<polygon fill="#757575" stroke="#757575" points="863.43,-368.99 869.49,-360.3 859.33,-363.32 863.43,-368.99"/>
</g>
<!-- resources/websocket&#45;response.d.ts&#45;&gt;models/inventory/item.ts -->
<g id="edge56" class="edge">
<title>resources/websocket&#45;response.d.ts&#45;&gt;models/inventory/item.ts</title>
<path fill="none" stroke="#757575" d="M914.38,-596.23C963.07,-617.51 1067.12,-662.98 1122.15,-687.03"/>
<polygon fill="#757575" stroke="#757575" points="1120.95,-690.33 1131.51,-691.12 1123.75,-683.91 1120.95,-690.33"/>
</g>
<!-- resources/websocket&#45;response.d.ts&#45;&gt;models/sender.ts -->
<g id="edge57" class="edge">
<title>resources/websocket&#45;response.d.ts&#45;&gt;models/sender.ts</title>
<path fill="none" stroke="#757575" d="M907.85,-573.08C955.05,-545.46 1074.14,-475.78 1129.23,-443.54"/>
<polygon fill="#757575" stroke="#757575" points="1131.25,-446.41 1138.12,-438.33 1127.72,-440.36 1131.25,-446.41"/>
</g>
<!-- resources/websocket&#45;response.d.ts&#45;&gt;models/timer.ts -->
<g id="edge58" class="edge">
<title>resources/websocket&#45;response.d.ts&#45;&gt;models/timer.ts</title>
<path fill="none" stroke="#757575" d="M1009.18,-584.7C1037.64,-584.7 1066.93,-584.7 1091.92,-584.7"/>
<polygon fill="#757575" stroke="#757575" points="1091.99,-588.2 1101.99,-584.7 1091.99,-581.2 1091.99,-588.2"/>
</g>
<!-- services/sender&#45;loader.ts&#45;&gt;models/sound.ts -->
<g id="edge70" class="edge">
<title>services/sender&#45;loader.ts&#45;&gt;models/sound.ts</title>
<path fill="none" stroke="#757575" d="M975.86,-349.88C1198.11,-353.92 1777.47,-371.3 1954,-443.7 1998.03,-461.76 2038.39,-501.39 2060,-525.29"/>
<polygon fill="#757575" stroke="#757575" points="2057.59,-527.85 2066.84,-533.03 2062.84,-523.22 2057.59,-527.85"/>
</g>
<!-- services/sender&#45;loader.ts&#45;&gt;models/sender.ts -->
<g id="edge69" class="edge">
<title>services/sender&#45;loader.ts&#45;&gt;models/sender.ts</title>
<path fill="none" stroke="#757575" d="M965.04,-360.25C979.98,-363.87 995.26,-368.59 1009,-374.7 1027.03,-382.72 1027.03,-392.55 1045,-400.7 1057.61,-406.42 1071.61,-410.94 1085.33,-414.5"/>
<polygon fill="#757575" stroke="#757575" points="1084.71,-417.95 1095.25,-416.92 1086.37,-411.15 1084.71,-417.95"/>
</g>
<!-- util/tsc&#45;compiler.ts -->
<g id="node39" class="node">
<title>util/tsc&#45;compiler.ts</title>
<path fill="none" stroke="#c6c5fe" d="M1216.83,-204.2C1216.83,-204.2 1101.17,-204.2 1101.17,-204.2 1097.33,-204.2 1093.5,-200.37 1093.5,-196.53 1093.5,-196.53 1093.5,-188.87 1093.5,-188.87 1093.5,-185.03 1097.33,-181.2 1101.17,-181.2 1101.17,-181.2 1216.83,-181.2 1216.83,-181.2 1220.67,-181.2 1224.5,-185.03 1224.5,-188.87 1224.5,-188.87 1224.5,-196.53 1224.5,-196.53 1224.5,-200.37 1220.67,-204.2 1216.83,-204.2"/>
<text text-anchor="middle" x="1159" y="-189" font-family="Arial" font-size="14.00" fill="#c6c5fe">util/tsc&#45;compiler.ts</text>
</g>
<!-- services/sender&#45;loader.ts&#45;&gt;util/tsc&#45;compiler.ts -->
<g id="edge71" class="edge">
<title>services/sender&#45;loader.ts&#45;&gt;util/tsc&#45;compiler.ts</title>
<path fill="none" stroke="#757575" d="M908.29,-336.97C955.71,-309.58 1073.91,-241.29 1128.95,-209.49"/>
<polygon fill="#757575" stroke="#757575" points="1130.93,-212.38 1137.84,-204.35 1127.43,-206.32 1130.93,-212.38"/>
</g>
<!-- resources/inventory.r.ts -->
<g id="node30" class="node">
<title>resources/inventory.r.ts</title>
<path fill="none" stroke="#c6c5fe" d="M430.33,-845.2C430.33,-845.2 281.67,-845.2 281.67,-845.2 277.83,-845.2 274,-841.37 274,-837.53 274,-837.53 274,-829.87 274,-829.87 274,-826.03 277.83,-822.2 281.67,-822.2 281.67,-822.2 430.33,-822.2 430.33,-822.2 434.17,-822.2 438,-826.03 438,-829.87 438,-829.87 438,-837.53 438,-837.53 438,-841.37 434.17,-845.2 430.33,-845.2"/>
<text text-anchor="middle" x="356" y="-830" font-family="Arial" font-size="14.00" fill="#c6c5fe">resources/inventory.r.ts</text>
</g>
<!-- resources/inventory.r.ts&#45;&gt;models/inventory/item.ts -->
<g id="edge40" class="edge">
<title>resources/inventory.r.ts&#45;&gt;models/inventory/item.ts</title>
<path fill="none" stroke="#757575" d="M427.38,-822.19C575.87,-797.9 920.41,-741.56 1077.42,-715.88"/>
<polygon fill="#757575" stroke="#757575" points="1078.19,-719.3 1087.49,-714.23 1077.06,-712.39 1078.19,-719.3"/>
</g>
<!-- resources/inventory.r.ts&#45;&gt;models/inventory/order.ts -->
<g id="edge41" class="edge">
<title>resources/inventory.r.ts&#45;&gt;models/inventory/order.ts</title>
<path fill="none" stroke="#757575" d="M438.25,-833.85C628.33,-834.22 1101.4,-835.12 1306.31,-835.51"/>
<polygon fill="#757575" stroke="#757575" points="1306.45,-839.01 1316.46,-835.53 1306.46,-832.01 1306.45,-839.01"/>
</g>
<!-- resources/inventory.r.ts&#45;&gt;services/websocketmessaging.ts -->
<g id="edge43" class="edge">
<title>resources/inventory.r.ts&#45;&gt;services/websocketmessaging.ts</title>
<path fill="none" stroke="#757575" d="M421.91,-845.23C521.43,-861.89 717.88,-890.7 886,-890.7 886,-890.7 886,-890.7 1405.5,-890.7 1482.96,-890.7 1653.89,-748.77 1727,-721.7 1732.92,-719.51 1739.11,-717.55 1745.41,-715.81"/>
<polygon fill="#757575" stroke="#757575" points="1746.56,-719.12 1755.37,-713.23 1744.81,-712.34 1746.56,-719.12"/>
</g>
<!-- resources/inventory.r.ts&#45;&gt;resources/frontend&#45;update.ts -->
<g id="edge42" class="edge">
<title>resources/inventory.r.ts&#45;&gt;resources/frontend&#45;update.ts</title>
<path fill="none" stroke="#757575" d="M371.27,-822.05C414.08,-787.11 541.67,-682.96 593.38,-640.76"/>
<polygon fill="#757575" stroke="#757575" points="595.74,-643.34 601.28,-634.31 591.32,-637.92 595.74,-643.34"/>
</g>
<!-- resources/receiver.r.ts -->
<g id="node31" class="node">
<title>resources/receiver.r.ts</title>
<path fill="none" stroke="#c6c5fe" d="M427.33,-518.2C427.33,-518.2 284.67,-518.2 284.67,-518.2 280.83,-518.2 277,-514.37 277,-510.53 277,-510.53 277,-502.87 277,-502.87 277,-499.03 280.83,-495.2 284.67,-495.2 284.67,-495.2 427.33,-495.2 427.33,-495.2 431.17,-495.2 435,-499.03 435,-502.87 435,-502.87 435,-510.53 435,-510.53 435,-514.37 431.17,-518.2 427.33,-518.2"/>
<text text-anchor="middle" x="356" y="-503" font-family="Arial" font-size="14.00" fill="#c6c5fe">resources/receiver.r.ts</text>
</g>
<!-- resources/receiver.r.ts&#45;&gt;models/receiver.ts -->
<g id="edge44" class="edge">
<title>resources/receiver.r.ts&#45;&gt;models/receiver.ts</title>
<path fill="none" stroke="#757575" d="M435.14,-508.24C642.92,-512.8 1198.35,-528.21 1273,-563.7 1294.3,-573.83 1288.06,-591.84 1309,-602.7 1379.88,-639.44 1472.07,-646.83 1536.17,-646.67"/>
<polygon fill="#757575" stroke="#757575" points="1536.23,-650.17 1546.2,-646.59 1536.17,-643.17 1536.23,-650.17"/>
</g>
<!-- resources/receiver.r.ts&#45;&gt;util/log.ts -->
<g id="edge46" class="edge">
<title>resources/receiver.r.ts&#45;&gt;util/log.ts</title>
<path fill="none" stroke="#757575" d="M373.47,-495.16C447.21,-444.3 755.96,-239.67 1045,-171.7 1323.24,-106.27 1671.57,-142.17 1794.24,-158.24"/>
<polygon fill="#757575" stroke="#757575" points="1794.01,-161.74 1804.39,-159.59 1794.94,-154.8 1794.01,-161.74"/>
</g>
<!-- resources/receiver.r.ts&#45;&gt;resources/frontend&#45;update.ts -->
<g id="edge45" class="edge">
<title>resources/receiver.r.ts&#45;&gt;resources/frontend&#45;update.ts</title>
<path fill="none" stroke="#757575" d="M382.73,-518.25C429.26,-539.12 527.43,-583.18 580.19,-606.85"/>
<polygon fill="#757575" stroke="#757575" points="578.93,-610.13 589.49,-611.03 581.8,-603.74 578.93,-610.13"/>
</g>
<!-- resources/sender.r.ts -->
<g id="node32" class="node">
<title>resources/sender.r.ts</title>
<path fill="none" stroke="#c6c5fe" d="M424.33,-320.2C424.33,-320.2 287.67,-320.2 287.67,-320.2 283.83,-320.2 280,-316.37 280,-312.53 280,-312.53 280,-304.87 280,-304.87 280,-301.03 283.83,-297.2 287.67,-297.2 287.67,-297.2 424.33,-297.2 424.33,-297.2 428.17,-297.2 432,-301.03 432,-304.87 432,-304.87 432,-312.53 432,-312.53 432,-316.37 428.17,-320.2 424.33,-320.2"/>
<text text-anchor="middle" x="356" y="-305" font-family="Arial" font-size="14.00" fill="#c6c5fe">resources/sender.r.ts</text>
</g>
<!-- resources/sender.r.ts&#45;&gt;models/battery.ts -->
<g id="edge47" class="edge">
<title>resources/sender.r.ts&#45;&gt;models/battery.ts</title>
<path fill="none" stroke="#757575" d="M432.15,-304.91C455.2,-303.81 480.64,-302.64 504,-301.7 811.9,-289.23 1179.24,-278.17 1331.71,-273.75"/>
<polygon fill="#757575" stroke="#757575" points="1331.98,-277.24 1341.87,-273.45 1331.77,-270.24 1331.98,-277.24"/>
</g>
<!-- resources/sender.r.ts&#45;&gt;models/transformation.ts -->
<g id="edge51" class="edge">
<title>resources/sender.r.ts&#45;&gt;models/transformation.ts</title>
<path fill="none" stroke="#757575" d="M393.45,-297.08C516.56,-259.16 928.48,-143.06 1273,-171.7 1374.94,-180.17 1414.81,-153.07 1500,-209.7 1524.95,-226.29 1514.97,-245.36 1536,-266.7 1619.62,-351.56 1745.6,-419.22 1805.52,-448.69"/>
<polygon fill="#757575" stroke="#757575" points="1804.03,-451.85 1814.55,-453.09 1807.09,-445.56 1804.03,-451.85"/>
</g>
<!-- resources/sender.r.ts&#45;&gt;models/event.ts -->
<g id="edge48" class="edge">
<title>resources/sender.r.ts&#45;&gt;models/event.ts</title>
<path fill="none" stroke="#757575" d="M432.11,-307.59C588.56,-305.5 960.77,-301.72 1273,-307.7 1293.36,-308.09 1315.5,-308.82 1335.66,-309.61"/>
<polygon fill="#757575" stroke="#757575" points="1335.56,-313.11 1345.7,-310.01 1335.84,-306.11 1335.56,-313.11"/>
</g>
<!-- resources/sender.r.ts&#45;&gt;util/log.ts -->
<g id="edge55" class="edge">
<title>resources/sender.r.ts&#45;&gt;util/log.ts</title>
<path fill="none" stroke="#757575" d="M385.96,-297.06C500.57,-251.92 934.4,-89.52 1309,-62.7 1478.34,-50.57 1528.85,-12.38 1691,-62.7 1743.79,-79.08 1794.46,-121.45 1820.78,-146.12"/>
<polygon fill="#757575" stroke="#757575" points="1818.5,-148.78 1828.15,-153.16 1823.34,-143.72 1818.5,-148.78"/>
</g>
<!-- resources/sender.r.ts&#45;&gt;models/sender.ts -->
<g id="edge49" class="edge">
<title>resources/sender.r.ts&#45;&gt;models/sender.ts</title>
<path fill="none" stroke="#757575" d="M398.54,-320.23C427.83,-328.03 468.08,-338.07 504,-344.7 614.24,-365.04 938.8,-402.27 1085.07,-418.63"/>
<polygon fill="#757575" stroke="#757575" points="1084.96,-422.14 1095.28,-419.77 1085.73,-415.18 1084.96,-422.14"/>
</g>
<!-- resources/sender.r.ts&#45;&gt;models/timer.ts -->
<g id="edge50" class="edge">
<title>resources/sender.r.ts&#45;&gt;models/timer.ts</title>
<path fill="none" stroke="#757575" d="M382.44,-320.27C411.7,-333.55 461.22,-355.92 504,-374.7 619.58,-425.44 645.37,-446.41 765,-486.7 877.8,-524.69 1013.24,-555.28 1092.07,-571.66"/>
<polygon fill="#757575" stroke="#757575" points="1091.37,-575.08 1101.87,-573.68 1092.78,-568.23 1091.37,-575.08"/>
</g>
<!-- resources/sender.r.ts&#45;&gt;resources/frontend&#45;update.ts -->
<g id="edge52" class="edge">
<title>resources/sender.r.ts&#45;&gt;resources/frontend&#45;update.ts</title>
<path fill="none" stroke="#757575" d="M366.51,-320.25C405.14,-367.18 550.64,-543.91 599.43,-603.18"/>
<polygon fill="#757575" stroke="#757575" points="596.85,-605.55 605.91,-611.05 602.25,-601.1 596.85,-605.55"/>
</g>
<!-- resources/sender.r.ts&#45;&gt;services/sender&#45;loader.ts -->
<g id="edge53" class="edge">
<title>resources/sender.r.ts&#45;&gt;services/sender&#45;loader.ts</title>
<path fill="none" stroke="#757575" d="M432.13,-316.25C455.17,-318.46 480.62,-320.79 504,-322.7 600.54,-330.58 710.93,-337.91 788.14,-342.77"/>
<polygon fill="#757575" stroke="#757575" points="788.13,-346.27 798.33,-343.41 788.57,-339.29 788.13,-346.27"/>
</g>
<!-- services/sender&#45;trigger&#45;service.ts -->
<g id="node33" class="node">
<title>services/sender&#45;trigger&#45;service.ts</title>
<path fill="none" stroke="#cfffac" d="M1265.33,-340.2C1265.33,-340.2 1052.67,-340.2 1052.67,-340.2 1048.83,-340.2 1045,-336.37 1045,-332.53 1045,-332.53 1045,-324.87 1045,-324.87 1045,-321.03 1048.83,-317.2 1052.67,-317.2 1052.67,-317.2 1265.33,-317.2 1265.33,-317.2 1269.17,-317.2 1273,-321.03 1273,-324.87 1273,-324.87 1273,-332.53 1273,-332.53 1273,-336.37 1269.17,-340.2 1265.33,-340.2"/>
<text text-anchor="middle" x="1159" y="-325" font-family="Arial" font-size="14.00" fill="#cfffac">services/sender&#45;trigger&#45;service.ts</text>
</g>
<!-- resources/sender.r.ts&#45;&gt;services/sender&#45;trigger&#45;service.ts -->
<g id="edge54" class="edge">
<title>resources/sender.r.ts&#45;&gt;services/sender&#45;trigger&#45;service.ts</title>
<path fill="none" stroke="#757575" d="M432.36,-310.58C570.8,-314.04 866.81,-321.43 1034.84,-325.62"/>
<polygon fill="#757575" stroke="#757575" points="1034.89,-329.13 1044.98,-325.88 1035.07,-322.13 1034.89,-329.13"/>
</g>
<!-- resources/transformation.r.ts -->
<g id="node34" class="node">
<title>resources/transformation.r.ts</title>
<path fill="none" stroke="#cfffac" d="M194.83,-1193.2C194.83,-1193.2 13.17,-1193.2 13.17,-1193.2 9.33,-1193.2 5.5,-1189.37 5.5,-1185.53 5.5,-1185.53 5.5,-1177.87 5.5,-1177.87 5.5,-1174.03 9.33,-1170.2 13.17,-1170.2 13.17,-1170.2 194.83,-1170.2 194.83,-1170.2 198.67,-1170.2 202.5,-1174.03 202.5,-1177.87 202.5,-1177.87 202.5,-1185.53 202.5,-1185.53 202.5,-1189.37 198.67,-1193.2 194.83,-1193.2"/>
<text text-anchor="middle" x="104" y="-1178" font-family="Arial" font-size="14.00" fill="#cfffac">resources/transformation.r.ts</text>
</g>
<!-- resources/wiring.r.ts -->
<g id="node35" class="node">
<title>resources/wiring.r.ts</title>
<path fill="none" stroke="#cfffac" d="M167.83,-1234.2C167.83,-1234.2 40.17,-1234.2 40.17,-1234.2 36.33,-1234.2 32.5,-1230.37 32.5,-1226.53 32.5,-1226.53 32.5,-1218.87 32.5,-1218.87 32.5,-1215.03 36.33,-1211.2 40.17,-1211.2 40.17,-1211.2 167.83,-1211.2 167.83,-1211.2 171.67,-1211.2 175.5,-1215.03 175.5,-1218.87 175.5,-1218.87 175.5,-1226.53 175.5,-1226.53 175.5,-1230.37 171.67,-1234.2 167.83,-1234.2"/>
<text text-anchor="middle" x="104" y="-1219" font-family="Arial" font-size="14.00" fill="#cfffac">resources/wiring.r.ts</text>
</g>
<!-- services/connection&#45;service.ts -->
<g id="node36" class="node">
<title>services/connection&#45;service.ts</title>
<path fill="none" stroke="#c6c5fe" d="M200.33,-940.2C200.33,-940.2 7.67,-940.2 7.67,-940.2 3.83,-940.2 0,-936.37 0,-932.53 0,-932.53 0,-924.87 0,-924.87 0,-921.03 3.83,-917.2 7.67,-917.2 7.67,-917.2 200.33,-917.2 200.33,-917.2 204.17,-917.2 208,-921.03 208,-924.87 208,-924.87 208,-932.53 208,-932.53 208,-936.37 204.17,-940.2 200.33,-940.2"/>
<text text-anchor="middle" x="104" y="-925" font-family="Arial" font-size="14.00" fill="#c6c5fe">services/connection&#45;service.ts</text>
</g>
<!-- services/connection&#45;service.ts&#45;&gt;models/connection&#45;response.ts -->
<g id="edge59" class="edge">
<title>services/connection&#45;service.ts&#45;&gt;models/connection&#45;response.ts</title>
<path fill="none" stroke="#757575" d="M105.95,-916.99C112.6,-838.23 154.35,-385.87 244,-287.7 531.11,26.71 732.22,-0.7 1158,-0.7 1158,-0.7 1158,-0.7 1841.5,-0.7 1998.7,-0.7 2061.14,-25.7 2165,-143.7 2289.01,-284.59 2305.57,-529 2307.71,-602.91"/>
<polygon fill="#757575" stroke="#757575" points="2304.21,-602.99 2307.93,-612.91 2311.21,-602.83 2304.21,-602.99"/>
</g>
<!-- services/connection&#45;service.ts&#45;&gt;models/connection.ts -->
<g id="edge60" class="edge">
<title>services/connection&#45;service.ts&#45;&gt;models/connection.ts</title>
<path fill="none" stroke="#757575" d="M173.22,-940.21C246.42,-950.75 365.93,-962.76 468,-948.7 836.14,-898 958.54,-920.71 1273,-722.7 1293.52,-709.78 1292.62,-699.58 1309,-681.7 1334.92,-653.39 1365.76,-621.38 1384.99,-601.62"/>
<polygon fill="#757575" stroke="#757575" points="1387.52,-604.04 1391.99,-594.44 1382.51,-599.15 1387.52,-604.04"/>
</g>
<!-- services/connection&#45;service.ts&#45;&gt;models/receiver&#45;data.ts -->
<g id="edge61" class="edge">
<title>services/connection&#45;service.ts&#45;&gt;models/receiver&#45;data.ts</title>
<path fill="none" stroke="#757575" d="M134.97,-940.26C212.92,-969.24 428.88,-1042.7 615.5,-1042.7 615.5,-1042.7 615.5,-1042.7 1405.5,-1042.7 1603.17,-1042.7 1775.99,-829.5 1825.39,-762.56"/>
<polygon fill="#757575" stroke="#757575" points="1828.23,-764.6 1831.28,-754.46 1822.57,-760.48 1828.23,-764.6"/>
</g>
<!-- services/connection&#45;service.ts&#45;&gt;models/transformation.ts -->
<g id="edge62" class="edge">
<title>services/connection&#45;service.ts&#45;&gt;models/transformation.ts</title>
<path fill="none" stroke="#757575" d="M106.36,-916.76C115.46,-838.41 169.43,-397.42 244,-287.7 355.73,-123.3 416.73,-38.7 615.5,-38.7 615.5,-38.7 615.5,-38.7 888,-38.7 1259,-38.7 1407.41,-27.5 1691,-266.7 1754.28,-320.08 1806.43,-405.26 1828.35,-444.14"/>
<polygon fill="#757575" stroke="#757575" points="1825.35,-445.94 1833.26,-452.98 1831.47,-442.54 1825.35,-445.94"/>
</g>
<!-- services/timer&#45;factory.ts -->
<g id="node37" class="node">
<title>services/timer&#45;factory.ts</title>
<path fill="none" stroke="#c6c5fe" d="M431.83,-940.2C431.83,-940.2 280.17,-940.2 280.17,-940.2 276.33,-940.2 272.5,-936.37 272.5,-932.53 272.5,-932.53 272.5,-924.87 272.5,-924.87 272.5,-921.03 276.33,-917.2 280.17,-917.2 280.17,-917.2 431.83,-917.2 431.83,-917.2 435.67,-917.2 439.5,-921.03 439.5,-924.87 439.5,-924.87 439.5,-932.53 439.5,-932.53 439.5,-936.37 435.67,-940.2 431.83,-940.2"/>
<text text-anchor="middle" x="356" y="-925" font-family="Arial" font-size="14.00" fill="#c6c5fe">services/timer&#45;factory.ts</text>
</g>
<!-- services/connection&#45;service.ts&#45;&gt;services/timer&#45;factory.ts -->
<g id="edge63" class="edge">
<title>services/connection&#45;service.ts&#45;&gt;services/timer&#45;factory.ts</title>
<path fill="none" stroke="#757575" d="M208.13,-928.7C226.01,-928.7 244.5,-928.7 262.08,-928.7"/>
<polygon fill="#757575" stroke="#757575" points="262.32,-932.2 272.32,-928.7 262.32,-925.2 262.32,-932.2"/>
</g>
<!-- services/timer&#45;factory.ts&#45;&gt;models/connection&#45;response.ts -->
<g id="edge72" class="edge">
<title>services/timer&#45;factory.ts&#45;&gt;models/connection&#45;response.ts</title>
<path fill="none" stroke="#757575" d="M439.79,-938.34C543.8,-949.6 727.86,-966.7 886,-966.7 886,-966.7 886,-966.7 1841.5,-966.7 2060.59,-966.7 2245.06,-718.31 2294.8,-644.9"/>
<polygon fill="#757575" stroke="#757575" points="2297.79,-646.73 2300.44,-636.47 2291.97,-642.84 2297.79,-646.73"/>
</g>
<!-- services/timer&#45;factory.ts&#45;&gt;models/timer.ts -->
<g id="edge73" class="edge">
<title>services/timer&#45;factory.ts&#45;&gt;models/timer.ts</title>
<path fill="none" stroke="#757575" d="M384.11,-917.06C503.8,-865.65 985.04,-658.98 1121.67,-600.3"/>
<polygon fill="#757575" stroke="#757575" points="1123.09,-603.5 1130.9,-596.34 1120.33,-597.07 1123.09,-603.5"/>
</g>
<!-- services/timer&#45;factory.ts&#45;&gt;resources/frontend&#45;update.ts -->
<g id="edge74" class="edge">
<title>services/timer&#45;factory.ts&#45;&gt;resources/frontend&#45;update.ts</title>
<path fill="none" stroke="#757575" d="M379.39,-917.19C403.31,-904.11 441.38,-881.02 468,-853.7 533.17,-786.81 585.11,-686.71 605.8,-643.64"/>
<polygon fill="#757575" stroke="#757575" points="609.05,-644.96 610.16,-634.42 602.72,-641.96 609.05,-644.96"/>
</g>
<!-- services/event&#45;scheduler.ts -->
<g id="node38" class="node">
<title>services/event&#45;scheduler.ts</title>
<path fill="none" stroke="#c6c5fe" d="M974.33,-478.2C974.33,-478.2 799.67,-478.2 799.67,-478.2 795.83,-478.2 792,-474.37 792,-470.53 792,-470.53 792,-462.87 792,-462.87 792,-459.03 795.83,-455.2 799.67,-455.2 799.67,-455.2 974.33,-455.2 974.33,-455.2 978.17,-455.2 982,-459.03 982,-462.87 982,-462.87 982,-470.53 982,-470.53 982,-474.37 978.17,-478.2 974.33,-478.2"/>
<text text-anchor="middle" x="887" y="-463" font-family="Arial" font-size="14.00" fill="#c6c5fe">services/event&#45;scheduler.ts</text>
</g>
<!-- services/event&#45;scheduler.ts&#45;&gt;models/connection.ts -->
<g id="edge64" class="edge">
<title>services/event&#45;scheduler.ts&#45;&gt;models/connection.ts</title>
<path fill="none" stroke="#757575" d="M982,-477.32C1078.58,-489.12 1221.8,-509.35 1273,-530.7 1291.22,-538.3 1291.2,-548.17 1309,-556.7 1318.3,-561.16 1328.5,-564.96 1338.64,-568.17"/>
<polygon fill="#757575" stroke="#757575" points="1337.74,-571.56 1348.32,-571.07 1339.75,-564.85 1337.74,-571.56"/>
</g>
<!-- services/event&#45;scheduler.ts&#45;&gt;util/log.ts -->
<g id="edge68" class="edge">
<title>services/event&#45;scheduler.ts&#45;&gt;util/log.ts</title>
<path fill="none" stroke="#757575" d="M982.24,-469.08C1060.74,-469.34 1175.1,-465.67 1273,-446.7 1466.62,-409.17 1522.16,-399.63 1691,-297.7 1744.66,-265.3 1796.73,-212.17 1822.59,-183.86"/>
<polygon fill="#757575" stroke="#757575" points="1825.36,-186.02 1829.46,-176.25 1820.16,-181.33 1825.36,-186.02"/>
</g>
<!-- services/event&#45;scheduler.ts&#45;&gt;models/sender.ts -->
<g id="edge65" class="edge">
<title>services/event&#45;scheduler.ts&#45;&gt;models/sender.ts</title>
<path fill="none" stroke="#757575" d="M965.73,-455.18C1003.33,-449.61 1048.19,-442.97 1085.13,-437.5"/>
<polygon fill="#757575" stroke="#757575" points="1085.94,-440.91 1095.32,-435.99 1084.91,-433.99 1085.94,-440.91"/>
</g>
<!-- services/event&#45;scheduler.ts&#45;&gt;models/timer.ts -->
<g id="edge66" class="edge">
<title>services/event&#45;scheduler.ts&#45;&gt;models/timer.ts</title>
<path fill="none" stroke="#757575" d="M914.38,-478.23C963.07,-499.51 1067.12,-544.98 1122.15,-569.03"/>
<polygon fill="#757575" stroke="#757575" points="1120.95,-572.33 1131.51,-573.12 1123.75,-565.91 1120.95,-572.33"/>
</g>
<!-- services/event&#45;scheduler.ts&#45;&gt;services/sender&#45;trigger&#45;service.ts -->
<g id="edge67" class="edge">
<title>services/event&#45;scheduler.ts&#45;&gt;services/sender&#45;trigger&#45;service.ts</title>
<path fill="none" stroke="#757575" d="M910.56,-455.17C958.6,-430.61 1071.14,-373.09 1126.34,-344.88"/>
<polygon fill="#757575" stroke="#757575" points="1128.01,-347.96 1135.32,-340.29 1124.82,-341.73 1128.01,-347.96"/>
</g>
<!-- util/tsc&#45;compiler.ts&#45;&gt;util/log.ts -->
<g id="edge78" class="edge">
<title>util/tsc&#45;compiler.ts&#45;&gt;util/log.ts</title>
<path fill="none" stroke="#757575" d="M1224.54,-190.04C1361.21,-184.41 1676.89,-171.4 1794.38,-166.56"/>
<polygon fill="#757575" stroke="#757575" points="1794.61,-170.05 1804.46,-166.14 1794.33,-163.06 1794.61,-170.05"/>
</g>
<!-- util/file.ts -->
<g id="node41" class="node">
<title>util/file.ts</title>
<path fill="none" stroke="#cfffac" d="M1432.33,-242.2C1432.33,-242.2 1376.67,-242.2 1376.67,-242.2 1372.83,-242.2 1369,-238.37 1369,-234.53 1369,-234.53 1369,-226.87 1369,-226.87 1369,-223.03 1372.83,-219.2 1376.67,-219.2 1376.67,-219.2 1432.33,-219.2 1432.33,-219.2 1436.17,-219.2 1440,-223.03 1440,-226.87 1440,-226.87 1440,-234.53 1440,-234.53 1440,-238.37 1436.17,-242.2 1432.33,-242.2"/>
<text text-anchor="middle" x="1404.5" y="-227" font-family="Arial" font-size="14.00" fill="#cfffac">util/file.ts</text>
</g>
<!-- util/tsc&#45;compiler.ts&#45;&gt;util/file.ts -->
<g id="edge77" class="edge">
<title>util/tsc&#45;compiler.ts&#45;&gt;util/file.ts</title>
<path fill="none" stroke="#757575" d="M1224.61,-202.78C1266.86,-209.37 1320.97,-217.82 1358.56,-223.69"/>
<polygon fill="#757575" stroke="#757575" points="1358.28,-227.18 1368.7,-225.27 1359.36,-220.27 1358.28,-227.18"/>
</g>
</g>
</svg>
