<?xml version="1.0" encoding="UTF-8" standalone="no"?>
<!DOCTYPE svg PUBLIC "-//W3C//DTD SVG 1.1//EN"
 "http://www.w3.org/Graphics/SVG/1.1/DTD/svg11.dtd">
<!-- Generated by graphviz version 2.47.2 (20210527.0053)
 -->
<!-- Title: G Pages: 1 -->
<svg width="2860pt" height="1406pt"
 viewBox="0.00 0.00 2860.20 1406.26" xmlns="http://www.w3.org/2000/svg" xmlns:xlink="http://www.w3.org/1999/xlink">
<g id="graph0" class="graph" transform="scale(1 1) rotate(0) translate(21.6 1384.66)">
<title>G</title>
<polygon fill="#111111" stroke="transparent" points="-21.6,21.6 -21.6,-1384.66 2838.6,-1384.66 2838.6,21.6 -21.6,21.6"/>
<!-- models/battery.ts -->
<g id="node1" class="node">
<title>models/battery.ts</title>
<path fill="none" stroke="#cfffac" d="M1831.83,-845.06C1831.83,-845.06 1722.17,-845.06 1722.17,-845.06 1718.33,-845.06 1714.5,-841.23 1714.5,-837.4 1714.5,-837.4 1714.5,-829.73 1714.5,-829.73 1714.5,-825.9 1718.33,-822.06 1722.17,-822.06 1722.17,-822.06 1831.83,-822.06 1831.83,-822.06 1835.67,-822.06 1839.5,-825.9 1839.5,-829.73 1839.5,-829.73 1839.5,-837.4 1839.5,-837.4 1839.5,-841.23 1835.67,-845.06 1831.83,-845.06"/>
<text text-anchor="middle" x="1777" y="-829.86" font-family="Arial" font-size="14.00" fill="#cfffac">models/battery.ts</text>
</g>
<!-- models/connection&#45;response.d.ts -->
<g id="node2" class="node">
<title>models/connection&#45;response.d.ts</title>
<path fill="none" stroke="#cfffac" d="M2809.33,-553.06C2809.33,-553.06 2596.67,-553.06 2596.67,-553.06 2592.83,-553.06 2589,-549.23 2589,-545.4 2589,-545.4 2589,-537.73 2589,-537.73 2589,-533.9 2592.83,-530.06 2596.67,-530.06 2596.67,-530.06 2809.33,-530.06 2809.33,-530.06 2813.17,-530.06 2817,-533.9 2817,-537.73 2817,-537.73 2817,-545.4 2817,-545.4 2817,-549.23 2813.17,-553.06 2809.33,-553.06"/>
<text text-anchor="middle" x="2703" y="-537.86" font-family="Arial" font-size="14.00" fill="#cfffac">models/connection&#45;response.d.ts</text>
</g>
<!-- models/connection.ts -->
<g id="node3" class="node">
<title>models/connection.ts</title>
<path fill="none" stroke="#c6c5fe" d="M1845.33,-451.06C1845.33,-451.06 1708.67,-451.06 1708.67,-451.06 1704.83,-451.06 1701,-447.23 1701,-443.4 1701,-443.4 1701,-435.73 1701,-435.73 1701,-431.9 1704.83,-428.06 1708.67,-428.06 1708.67,-428.06 1845.33,-428.06 1845.33,-428.06 1849.17,-428.06 1853,-431.9 1853,-435.73 1853,-435.73 1853,-443.4 1853,-443.4 1853,-447.23 1849.17,-451.06 1845.33,-451.06"/>
<text text-anchor="middle" x="1777" y="-435.86" font-family="Arial" font-size="14.00" fill="#c6c5fe">models/connection.ts</text>
</g>
<!-- models/receiver&#45;data.ts -->
<g id="node4" class="node">
<title>models/receiver&#45;data.ts</title>
<path fill="none" stroke="#c6c5fe" d="M2259.83,-533.06C2259.83,-533.06 2110.17,-533.06 2110.17,-533.06 2106.33,-533.06 2102.5,-529.23 2102.5,-525.4 2102.5,-525.4 2102.5,-517.73 2102.5,-517.73 2102.5,-513.9 2106.33,-510.06 2110.17,-510.06 2110.17,-510.06 2259.83,-510.06 2259.83,-510.06 2263.67,-510.06 2267.5,-513.9 2267.5,-517.73 2267.5,-517.73 2267.5,-525.4 2267.5,-525.4 2267.5,-529.23 2263.67,-533.06 2259.83,-533.06"/>
<text text-anchor="middle" x="2185" y="-517.86" font-family="Arial" font-size="14.00" fill="#c6c5fe">models/receiver&#45;data.ts</text>
</g>
<!-- models/connection.ts&#45;&gt;models/receiver&#45;data.ts -->
<g id="edge1" class="edge">
<title>models/connection.ts&#45;&gt;models/receiver&#45;data.ts</title>
<path fill="none" stroke="#757575" d="M1828.48,-451.1C1837.31,-454.71 1845.92,-459.42 1853,-465.56 1879.42,-488.49 1859.14,-517.34 1889,-535.56 1968.81,-584.26 2084.6,-556.48 2144.62,-536.47"/>
<polygon fill="#757575" stroke="#757575" points="2145.78,-539.77 2154.1,-533.21 2143.51,-533.14 2145.78,-539.77"/>
</g>
<!-- models/receiver.ts -->
<g id="node5" class="node">
<title>models/receiver.ts</title>
<path fill="none" stroke="#c6c5fe" d="M2025.83,-612.06C2025.83,-612.06 1907.17,-612.06 1907.17,-612.06 1903.33,-612.06 1899.5,-608.23 1899.5,-604.4 1899.5,-604.4 1899.5,-596.73 1899.5,-596.73 1899.5,-592.9 1903.33,-589.06 1907.17,-589.06 1907.17,-589.06 2025.83,-589.06 2025.83,-589.06 2029.67,-589.06 2033.5,-592.9 2033.5,-596.73 2033.5,-596.73 2033.5,-604.4 2033.5,-604.4 2033.5,-608.23 2029.67,-612.06 2025.83,-612.06"/>
<text text-anchor="middle" x="1966.5" y="-596.86" font-family="Arial" font-size="14.00" fill="#c6c5fe">models/receiver.ts</text>
</g>
<!-- models/connection.ts&#45;&gt;models/receiver.ts -->
<g id="edge2" class="edge">
<title>models/connection.ts&#45;&gt;models/receiver.ts</title>
<path fill="none" stroke="#757575" d="M1831.2,-451.08C1839.26,-454.68 1846.9,-459.39 1853,-465.56 1888.56,-501.55 1853.54,-537.47 1889,-573.56 1893.17,-577.81 1898.06,-581.39 1903.3,-584.41"/>
<polygon fill="#757575" stroke="#757575" points="1901.89,-587.62 1912.4,-588.98 1905.03,-581.36 1901.89,-587.62"/>
</g>
<!-- models/transformation.ts -->
<g id="node6" class="node">
<title>models/transformation.ts</title>
<path fill="none" stroke="#cfffac" d="M2263.83,-396.06C2263.83,-396.06 2106.17,-396.06 2106.17,-396.06 2102.33,-396.06 2098.5,-392.23 2098.5,-388.4 2098.5,-388.4 2098.5,-380.73 2098.5,-380.73 2098.5,-376.9 2102.33,-373.06 2106.17,-373.06 2106.17,-373.06 2263.83,-373.06 2263.83,-373.06 2267.67,-373.06 2271.5,-376.9 2271.5,-380.73 2271.5,-380.73 2271.5,-388.4 2271.5,-388.4 2271.5,-392.23 2267.67,-396.06 2263.83,-396.06"/>
<text text-anchor="middle" x="2185" y="-380.86" font-family="Arial" font-size="14.00" fill="#cfffac">models/transformation.ts</text>
</g>
<!-- models/connection.ts&#45;&gt;models/transformation.ts -->
<g id="edge3" class="edge">
<title>models/connection.ts&#45;&gt;models/transformation.ts</title>
<path fill="none" stroke="#757575" d="M1853.41,-429.35C1919.89,-420.34 2017.05,-407.18 2088.85,-397.45"/>
<polygon fill="#757575" stroke="#757575" points="2089.37,-400.91 2098.81,-396.1 2088.43,-393.98 2089.37,-400.91"/>
</g>
<!-- models/transformer.ts -->
<g id="node7" class="node">
<title>models/transformer.ts</title>
<path fill="none" stroke="#c6c5fe" d="M2036.33,-493.06C2036.33,-493.06 1896.67,-493.06 1896.67,-493.06 1892.83,-493.06 1889,-489.23 1889,-485.4 1889,-485.4 1889,-477.73 1889,-477.73 1889,-473.9 1892.83,-470.06 1896.67,-470.06 1896.67,-470.06 2036.33,-470.06 2036.33,-470.06 2040.17,-470.06 2044,-473.9 2044,-477.73 2044,-477.73 2044,-485.4 2044,-485.4 2044,-489.23 2040.17,-493.06 2036.33,-493.06"/>
<text text-anchor="middle" x="1966.5" y="-477.86" font-family="Arial" font-size="14.00" fill="#c6c5fe">models/transformer.ts</text>
</g>
<!-- models/connection.ts&#45;&gt;models/transformer.ts -->
<g id="edge4" class="edge">
<title>models/connection.ts&#45;&gt;models/transformer.ts</title>
<path fill="none" stroke="#757575" d="M1829.73,-451.15C1852.68,-456.29 1879.87,-462.38 1903.87,-467.76"/>
<polygon fill="#757575" stroke="#757575" points="1903.41,-471.24 1913.94,-470.01 1904.94,-464.41 1903.41,-471.24"/>
</g>
<!-- models/receiver&#45;data.ts&#45;&gt;models/connection&#45;response.d.ts -->
<g id="edge8" class="edge">
<title>models/receiver&#45;data.ts&#45;&gt;models/connection&#45;response.d.ts</title>
<path fill="none" stroke="#757575" d="M2267.76,-524.73C2351.47,-527.98 2482.6,-533.06 2578.87,-536.79"/>
<polygon fill="#757575" stroke="#757575" points="2578.83,-540.29 2588.96,-537.18 2579.1,-533.3 2578.83,-540.29"/>
</g>
<!-- models/evaluated&#45;data.ts -->
<g id="node8" class="node">
<title>models/evaluated&#45;data.ts</title>
<path fill="none" stroke="#c6c5fe" d="M2519.33,-573.06C2519.33,-573.06 2359.67,-573.06 2359.67,-573.06 2355.83,-573.06 2352,-569.23 2352,-565.4 2352,-565.4 2352,-557.73 2352,-557.73 2352,-553.9 2355.83,-550.06 2359.67,-550.06 2359.67,-550.06 2519.33,-550.06 2519.33,-550.06 2523.17,-550.06 2527,-553.9 2527,-557.73 2527,-557.73 2527,-565.4 2527,-565.4 2527,-569.23 2523.17,-573.06 2519.33,-573.06"/>
<text text-anchor="middle" x="2439.5" y="-557.86" font-family="Arial" font-size="14.00" fill="#c6c5fe">models/evaluated&#45;data.ts</text>
</g>
<!-- models/receiver&#45;data.ts&#45;&gt;models/evaluated&#45;data.ts -->
<g id="edge9" class="edge">
<title>models/receiver&#45;data.ts&#45;&gt;models/evaluated&#45;data.ts</title>
<path fill="none" stroke="#757575" d="M2258.69,-533.08C2289.06,-537.89 2324.51,-543.5 2355.86,-548.47"/>
<polygon fill="#757575" stroke="#757575" points="2355.46,-551.95 2365.88,-550.06 2356.55,-545.04 2355.46,-551.95"/>
</g>
<!-- models/sound.ts -->
<g id="node13" class="node">
<title>models/sound.ts</title>
<path fill="none" stroke="#cfffac" d="M2492.83,-681.06C2492.83,-681.06 2386.17,-681.06 2386.17,-681.06 2382.33,-681.06 2378.5,-677.23 2378.5,-673.4 2378.5,-673.4 2378.5,-665.73 2378.5,-665.73 2378.5,-661.9 2382.33,-658.06 2386.17,-658.06 2386.17,-658.06 2492.83,-658.06 2492.83,-658.06 2496.67,-658.06 2500.5,-661.9 2500.5,-665.73 2500.5,-665.73 2500.5,-673.4 2500.5,-673.4 2500.5,-677.23 2496.67,-681.06 2492.83,-681.06"/>
<text text-anchor="middle" x="2439.5" y="-665.86" font-family="Arial" font-size="14.00" fill="#cfffac">models/sound.ts</text>
</g>
<!-- models/receiver&#45;data.ts&#45;&gt;models/sound.ts -->
<g id="edge10" class="edge">
<title>models/receiver&#45;data.ts&#45;&gt;models/sound.ts</title>
<path fill="none" stroke="#757575" d="M2213.75,-533.19C2236.03,-543.44 2267.23,-559.94 2290,-580.56 2310.56,-599.19 2303.76,-614.97 2326,-631.56 2339.55,-641.67 2355.96,-649.2 2372,-654.77"/>
<polygon fill="#757575" stroke="#757575" points="2371.33,-658.23 2381.92,-657.99 2373.49,-651.57 2371.33,-658.23"/>
</g>
<!-- models/receiver.ts&#45;&gt;models/receiver&#45;data.ts -->
<g id="edge12" class="edge">
<title>models/receiver.ts&#45;&gt;models/receiver&#45;data.ts</title>
<path fill="none" stroke="#757575" d="M2006.93,-589.05C2019.13,-584.86 2032.4,-579.64 2044,-573.56 2061.48,-564.41 2062.1,-555.88 2080,-547.56 2089.88,-542.97 2100.69,-539.11 2111.48,-535.9"/>
<polygon fill="#757575" stroke="#757575" points="2112.67,-539.2 2121.35,-533.13 2110.78,-532.46 2112.67,-539.2"/>
</g>
<!-- models/receiver.ts&#45;&gt;models/evaluated&#45;data.ts -->
<g id="edge11" class="edge">
<title>models/receiver.ts&#45;&gt;models/evaluated&#45;data.ts</title>
<path fill="none" stroke="#757575" d="M2024.53,-589.02C2042.24,-585.82 2061.87,-582.65 2080,-580.56 2168.26,-570.42 2269.38,-565.68 2341.68,-563.47"/>
<polygon fill="#757575" stroke="#757575" points="2341.79,-566.97 2351.69,-563.18 2341.59,-559.97 2341.79,-566.97"/>
</g>
<!-- services/firebasemessaging.ts -->
<g id="node14" class="node">
<title>services/firebasemessaging.ts</title>
<path fill="none" stroke="#cfffac" d="M2282.33,-613.06C2282.33,-613.06 2087.67,-613.06 2087.67,-613.06 2083.83,-613.06 2080,-609.23 2080,-605.4 2080,-605.4 2080,-597.73 2080,-597.73 2080,-593.9 2083.83,-590.06 2087.67,-590.06 2087.67,-590.06 2282.33,-590.06 2282.33,-590.06 2286.17,-590.06 2290,-593.9 2290,-597.73 2290,-597.73 2290,-605.4 2290,-605.4 2290,-609.23 2286.17,-613.06 2282.33,-613.06"/>
<text text-anchor="middle" x="2185" y="-597.86" font-family="Arial" font-size="14.00" fill="#cfffac">services/firebasemessaging.ts</text>
</g>
<!-- models/receiver.ts&#45;&gt;services/firebasemessaging.ts -->
<g id="edge13" class="edge">
<title>models/receiver.ts&#45;&gt;services/firebasemessaging.ts</title>
<path fill="none" stroke="#757575" d="M2033.63,-600.87C2045.1,-600.92 2057.31,-600.98 2069.62,-601.03"/>
<polygon fill="#757575" stroke="#757575" points="2069.96,-604.54 2079.98,-601.08 2070,-597.54 2069.96,-604.54"/>
</g>
<!-- services/websocketmessaging.ts -->
<g id="node15" class="node">
<title>services/websocketmessaging.ts</title>
<path fill="none" stroke="#c6c5fe" d="M2545.33,-623.06C2545.33,-623.06 2333.67,-623.06 2333.67,-623.06 2329.83,-623.06 2326,-619.23 2326,-615.4 2326,-615.4 2326,-607.73 2326,-607.73 2326,-603.9 2329.83,-600.06 2333.67,-600.06 2333.67,-600.06 2545.33,-600.06 2545.33,-600.06 2549.17,-600.06 2553,-603.9 2553,-607.73 2553,-607.73 2553,-615.4 2553,-615.4 2553,-619.23 2549.17,-623.06 2545.33,-623.06"/>
<text text-anchor="middle" x="2439.5" y="-607.86" font-family="Arial" font-size="14.00" fill="#c6c5fe">services/websocketmessaging.ts</text>
</g>
<!-- models/receiver.ts&#45;&gt;services/websocketmessaging.ts -->
<g id="edge14" class="edge">
<title>models/receiver.ts&#45;&gt;services/websocketmessaging.ts</title>
<path fill="none" stroke="#757575" d="M2018.18,-612.08C2037.43,-615.91 2059.62,-619.68 2080,-621.56 2158.15,-628.79 2246.26,-626.48 2315.57,-622.27"/>
<polygon fill="#757575" stroke="#757575" points="2315.89,-625.75 2325.65,-621.63 2315.45,-618.77 2315.89,-625.75"/>
</g>
<!-- util/log.ts -->
<g id="node16" class="node">
<title>util/log.ts</title>
<path fill="none" stroke="#c6c5fe" d="M2213.33,-1105.06C2213.33,-1105.06 2156.67,-1105.06 2156.67,-1105.06 2152.83,-1105.06 2149,-1101.23 2149,-1097.4 2149,-1097.4 2149,-1089.73 2149,-1089.73 2149,-1085.9 2152.83,-1082.06 2156.67,-1082.06 2156.67,-1082.06 2213.33,-1082.06 2213.33,-1082.06 2217.17,-1082.06 2221,-1085.9 2221,-1089.73 2221,-1089.73 2221,-1097.4 2221,-1097.4 2221,-1101.23 2217.17,-1105.06 2213.33,-1105.06"/>
<text text-anchor="middle" x="2185" y="-1089.86" font-family="Arial" font-size="14.00" fill="#c6c5fe">util/log.ts</text>
</g>
<!-- models/receiver.ts&#45;&gt;util/log.ts -->
<g id="edge15" class="edge">
<title>models/receiver.ts&#45;&gt;util/log.ts</title>
<path fill="none" stroke="#757575" d="M1972.64,-612.26C2000.91,-676.65 2137.64,-987.99 2174.71,-1072.41"/>
<polygon fill="#757575" stroke="#757575" points="2171.59,-1074 2178.81,-1081.75 2178,-1071.19 2171.59,-1074"/>
</g>
<!-- models/transformer.ts&#45;&gt;models/connection&#45;response.d.ts -->
<g id="edge23" class="edge">
<title>models/transformer.ts&#45;&gt;models/connection&#45;response.d.ts</title>
<path fill="none" stroke="#757575" d="M2044.1,-485.46C2109.47,-488.94 2205.95,-494.41 2290,-500.56 2407.02,-509.12 2436.3,-511.41 2553,-523.56 2568.31,-525.16 2584.48,-526.97 2600.31,-528.82"/>
<polygon fill="#757575" stroke="#757575" points="2600.31,-532.35 2610.65,-530.04 2601.13,-525.4 2600.31,-532.35"/>
</g>
<!-- models/transformer.ts&#45;&gt;models/transformation.ts -->
<g id="edge24" class="edge">
<title>models/transformer.ts&#45;&gt;models/transformation.ts</title>
<path fill="none" stroke="#757575" d="M2004.86,-470.04C2017.44,-465.85 2031.46,-460.84 2044,-455.56 2083.27,-439.03 2126.78,-416.21 2154.72,-400.95"/>
<polygon fill="#757575" stroke="#757575" points="2156.49,-403.97 2163.56,-396.09 2153.11,-397.84 2156.49,-403.97"/>
</g>
<!-- models/evaluated&#45;data.ts&#45;&gt;models/connection&#45;response.d.ts -->
<g id="edge5" class="edge">
<title>models/evaluated&#45;data.ts&#45;&gt;models/connection&#45;response.d.ts</title>
<path fill="none" stroke="#757575" d="M2527.21,-554.93C2543.74,-553.67 2561.33,-552.32 2578.75,-550.99"/>
<polygon fill="#757575" stroke="#757575" points="2579.27,-554.46 2588.97,-550.21 2578.73,-547.48 2579.27,-554.46"/>
</g>
<!-- models/event.ts -->
<g id="node9" class="node">
<title>models/event.ts</title>
<path fill="none" stroke="#cfffac" d="M1827.83,-886.06C1827.83,-886.06 1726.17,-886.06 1726.17,-886.06 1722.33,-886.06 1718.5,-882.23 1718.5,-878.4 1718.5,-878.4 1718.5,-870.73 1718.5,-870.73 1718.5,-866.9 1722.33,-863.06 1726.17,-863.06 1726.17,-863.06 1827.83,-863.06 1827.83,-863.06 1831.67,-863.06 1835.5,-866.9 1835.5,-870.73 1835.5,-870.73 1835.5,-878.4 1835.5,-878.4 1835.5,-882.23 1831.67,-886.06 1827.83,-886.06"/>
<text text-anchor="middle" x="1777" y="-870.86" font-family="Arial" font-size="14.00" fill="#cfffac">models/event.ts</text>
</g>
<!-- models/inventory/item.ts -->
<g id="node10" class="node">
<title>models/inventory/item.ts</title>
<path fill="none" stroke="#c6c5fe" d="M424.33,-1301.06C424.33,-1301.06 269.67,-1301.06 269.67,-1301.06 265.83,-1301.06 262,-1297.23 262,-1293.4 262,-1293.4 262,-1285.73 262,-1285.73 262,-1281.9 265.83,-1278.06 269.67,-1278.06 269.67,-1278.06 424.33,-1278.06 424.33,-1278.06 428.17,-1278.06 432,-1281.9 432,-1285.73 432,-1285.73 432,-1293.4 432,-1293.4 432,-1297.23 428.17,-1301.06 424.33,-1301.06"/>
<text text-anchor="middle" x="347" y="-1285.86" font-family="Arial" font-size="14.00" fill="#c6c5fe">models/inventory/item.ts</text>
</g>
<!-- models/inventory/location.ts -->
<g id="node11" class="node">
<title>models/inventory/location.ts</title>
<path fill="none" stroke="#cfffac" d="M696.83,-1302.06C696.83,-1302.06 521.17,-1302.06 521.17,-1302.06 517.33,-1302.06 513.5,-1298.23 513.5,-1294.4 513.5,-1294.4 513.5,-1286.73 513.5,-1286.73 513.5,-1282.9 517.33,-1279.06 521.17,-1279.06 521.17,-1279.06 696.83,-1279.06 696.83,-1279.06 700.67,-1279.06 704.5,-1282.9 704.5,-1286.73 704.5,-1286.73 704.5,-1294.4 704.5,-1294.4 704.5,-1298.23 700.67,-1302.06 696.83,-1302.06"/>
<text text-anchor="middle" x="609" y="-1286.86" font-family="Arial" font-size="14.00" fill="#cfffac">models/inventory/location.ts</text>
</g>
<!-- models/inventory/item.ts&#45;&gt;models/inventory/location.ts -->
<g id="edge6" class="edge">
<title>models/inventory/item.ts&#45;&gt;models/inventory/location.ts</title>
<path fill="none" stroke="#757575" d="M432.06,-1289.89C454.77,-1289.97 479.64,-1290.07 503.34,-1290.16"/>
<polygon fill="#757575" stroke="#757575" points="503.4,-1293.66 513.41,-1290.2 503.43,-1286.66 503.4,-1293.66"/>
</g>
<!-- models/inventory/order.ts -->
<g id="node12" class="node">
<title>models/inventory/order.ts</title>
<path fill="none" stroke="#cfffac" d="M689.33,-1261.06C689.33,-1261.06 528.67,-1261.06 528.67,-1261.06 524.83,-1261.06 521,-1257.23 521,-1253.4 521,-1253.4 521,-1245.73 521,-1245.73 521,-1241.9 524.83,-1238.06 528.67,-1238.06 528.67,-1238.06 689.33,-1238.06 689.33,-1238.06 693.17,-1238.06 697,-1241.9 697,-1245.73 697,-1245.73 697,-1253.4 697,-1253.4 697,-1257.23 693.17,-1261.06 689.33,-1261.06"/>
<text text-anchor="middle" x="609" y="-1245.86" font-family="Arial" font-size="14.00" fill="#cfffac">models/inventory/order.ts</text>
</g>
<!-- models/inventory/item.ts&#45;&gt;models/inventory/order.ts -->
<g id="edge7" class="edge">
<title>models/inventory/item.ts&#45;&gt;models/inventory/order.ts</title>
<path fill="none" stroke="#757575" d="M422.85,-1278.05C454.26,-1273.21 490.94,-1267.57 523.32,-1262.59"/>
<polygon fill="#757575" stroke="#757575" points="523.87,-1266.05 533.22,-1261.07 522.81,-1259.13 523.87,-1266.05"/>
</g>
<!-- services/websocketmessaging.ts&#45;&gt;models/connection&#45;response.d.ts -->
<g id="edge76" class="edge">
<title>services/websocketmessaging.ts&#45;&gt;models/connection&#45;response.d.ts</title>
<path fill="none" stroke="#757575" d="M2483.78,-600.04C2504.69,-594.47 2530.15,-587.68 2553,-581.56 2584.94,-573.02 2620.72,-563.41 2649.22,-555.76"/>
<polygon fill="#757575" stroke="#757575" points="2650.22,-559.11 2658.97,-553.13 2648.41,-552.35 2650.22,-559.11"/>
</g>
<!-- util/btoaatob.ts -->
<g id="node38" class="node">
<title>util/btoaatob.ts</title>
<path fill="none" stroke="#cfffac" d="M2485.83,-1105.06C2485.83,-1105.06 2393.17,-1105.06 2393.17,-1105.06 2389.33,-1105.06 2385.5,-1101.23 2385.5,-1097.4 2385.5,-1097.4 2385.5,-1089.73 2385.5,-1089.73 2385.5,-1085.9 2389.33,-1082.06 2393.17,-1082.06 2393.17,-1082.06 2485.83,-1082.06 2485.83,-1082.06 2489.67,-1082.06 2493.5,-1085.9 2493.5,-1089.73 2493.5,-1089.73 2493.5,-1097.4 2493.5,-1097.4 2493.5,-1101.23 2489.67,-1105.06 2485.83,-1105.06"/>
<text text-anchor="middle" x="2439.5" y="-1089.86" font-family="Arial" font-size="14.00" fill="#cfffac">util/btoaatob.ts</text>
</g>
<!-- util/log.ts&#45;&gt;util/btoaatob.ts -->
<g id="edge77" class="edge">
<title>util/log.ts&#45;&gt;util/btoaatob.ts</title>
<path fill="none" stroke="#757575" d="M2221.11,-1093.56C2260.83,-1093.56 2326.33,-1093.56 2375.07,-1093.56"/>
<polygon fill="#757575" stroke="#757575" points="2375.2,-1097.06 2385.2,-1093.56 2375.2,-1090.06 2375.2,-1097.06"/>
</g>
<!-- models/sender.ts -->
<g id="node17" class="node">
<title>models/sender.ts</title>
<path fill="none" stroke="#c6c5fe" d="M1655.33,-805.06C1655.33,-805.06 1543.67,-805.06 1543.67,-805.06 1539.83,-805.06 1536,-801.23 1536,-797.4 1536,-797.4 1536,-789.73 1536,-789.73 1536,-785.9 1539.83,-782.06 1543.67,-782.06 1543.67,-782.06 1655.33,-782.06 1655.33,-782.06 1659.17,-782.06 1663,-785.9 1663,-789.73 1663,-789.73 1663,-797.4 1663,-797.4 1663,-801.23 1659.17,-805.06 1655.33,-805.06"/>
<text text-anchor="middle" x="1599.5" y="-789.86" font-family="Arial" font-size="14.00" fill="#c6c5fe">models/sender.ts</text>
</g>
<!-- models/sender.ts&#45;&gt;models/battery.ts -->
<g id="edge16" class="edge">
<title>models/sender.ts&#45;&gt;models/battery.ts</title>
<path fill="none" stroke="#757575" d="M1651.26,-805.13C1671.36,-809.71 1694.63,-815.02 1715.59,-819.79"/>
<polygon fill="#757575" stroke="#757575" points="1714.82,-823.21 1725.35,-822.02 1716.38,-816.38 1714.82,-823.21"/>
</g>
<!-- models/sender.ts&#45;&gt;models/connection&#45;response.d.ts -->
<g id="edge17" class="edge">
<title>models/sender.ts&#45;&gt;models/connection&#45;response.d.ts</title>
<path fill="none" stroke="#757575" d="M1663.27,-783.03C1735.83,-771.78 1858.94,-755.56 1965.5,-755.56 1965.5,-755.56 1965.5,-755.56 2186,-755.56 2349.46,-755.56 2408.43,-807.85 2553,-731.56 2625.12,-693.51 2673.66,-603.59 2692.82,-562.59"/>
<polygon fill="#757575" stroke="#757575" points="2696.1,-563.84 2697.06,-553.28 2689.73,-560.94 2696.1,-563.84"/>
</g>
<!-- models/sender.ts&#45;&gt;models/connection.ts -->
<g id="edge18" class="edge">
<title>models/sender.ts&#45;&gt;models/connection.ts</title>
<path fill="none" stroke="#757575" d="M1604.84,-781.81C1615.4,-753.14 1643.15,-677.31 1665,-613.56 1681.68,-564.9 1672.37,-546.3 1701,-503.56 1713.54,-484.84 1733.01,-468.46 1748.97,-456.95"/>
<polygon fill="#757575" stroke="#757575" points="1751.2,-459.66 1757.41,-451.07 1747.21,-453.92 1751.2,-459.66"/>
</g>
<!-- models/sender.ts&#45;&gt;models/transformation.ts -->
<g id="edge20" class="edge">
<title>models/sender.ts&#45;&gt;models/transformation.ts</title>
<path fill="none" stroke="#757575" d="M1603.39,-782.01C1612.49,-747.52 1643.43,-643.71 1701,-578.56 1766.33,-504.64 1797.58,-497.62 1889,-460.56 1954.27,-434.1 1975.82,-445.25 2044,-427.56 2076.33,-419.17 2112.35,-408.07 2139.75,-399.25"/>
<polygon fill="#757575" stroke="#757575" points="2141,-402.52 2149.43,-396.11 2138.84,-395.86 2141,-402.52"/>
</g>
<!-- models/sender.ts&#45;&gt;models/transformer.ts -->
<g id="edge21" class="edge">
<title>models/sender.ts&#45;&gt;models/transformer.ts</title>
<path fill="none" stroke="#757575" d="M1614.36,-781.71C1669.93,-734.21 1876.81,-557.38 1944.16,-499.81"/>
<polygon fill="#757575" stroke="#757575" points="1946.68,-502.25 1952.01,-493.09 1942.14,-496.93 1946.68,-502.25"/>
</g>
<!-- models/sender.ts&#45;&gt;models/event.ts -->
<g id="edge19" class="edge">
<title>models/sender.ts&#45;&gt;models/event.ts</title>
<path fill="none" stroke="#757575" d="M1616.84,-805.18C1636.15,-818.46 1669.63,-840.09 1701,-853.56 1706.33,-855.85 1711.99,-857.96 1717.7,-859.89"/>
<polygon fill="#757575" stroke="#757575" points="1716.74,-863.26 1727.33,-862.97 1718.87,-856.59 1716.74,-863.26"/>
</g>
<!-- models/sender.ts&#45;&gt;util/log.ts -->
<g id="edge22" class="edge">
<title>models/sender.ts&#45;&gt;util/log.ts</title>
<path fill="none" stroke="#757575" d="M1663.15,-787.76C1715.79,-785.3 1792,-787.52 1853,-812.56 1998,-872.08 2125.81,-1020.29 2168.71,-1073.85"/>
<polygon fill="#757575" stroke="#757575" points="2166.12,-1076.22 2175.07,-1081.89 2171.6,-1071.87 2166.12,-1076.22"/>
</g>
<!-- models/test.ts -->
<g id="node18" class="node">
<title>models/test.ts</title>
<path fill="none" stroke="#cfffac" d="M143.83,-1322.06C143.83,-1322.06 53.17,-1322.06 53.17,-1322.06 49.33,-1322.06 45.5,-1318.23 45.5,-1314.4 45.5,-1314.4 45.5,-1306.73 45.5,-1306.73 45.5,-1302.9 49.33,-1299.06 53.17,-1299.06 53.17,-1299.06 143.83,-1299.06 143.83,-1299.06 147.67,-1299.06 151.5,-1302.9 151.5,-1306.73 151.5,-1306.73 151.5,-1314.4 151.5,-1314.4 151.5,-1318.23 147.67,-1322.06 143.83,-1322.06"/>
<text text-anchor="middle" x="98.5" y="-1306.86" font-family="Arial" font-size="14.00" fill="#cfffac">models/test.ts</text>
</g>
<!-- models/timer.ts -->
<g id="node19" class="node">
<title>models/timer.ts</title>
<path fill="none" stroke="#cfffac" d="M1648.83,-605.06C1648.83,-605.06 1550.17,-605.06 1550.17,-605.06 1546.33,-605.06 1542.5,-601.23 1542.5,-597.4 1542.5,-597.4 1542.5,-589.73 1542.5,-589.73 1542.5,-585.9 1546.33,-582.06 1550.17,-582.06 1550.17,-582.06 1648.83,-582.06 1648.83,-582.06 1652.67,-582.06 1656.5,-585.9 1656.5,-589.73 1656.5,-589.73 1656.5,-597.4 1656.5,-597.4 1656.5,-601.23 1652.67,-605.06 1648.83,-605.06"/>
<text text-anchor="middle" x="1599.5" y="-589.86" font-family="Arial" font-size="14.00" fill="#cfffac">models/timer.ts</text>
</g>
<!-- node&#45;red/glboal&#45;script.ts -->
<g id="node20" class="node">
<title>node&#45;red/glboal&#45;script.ts</title>
<path fill="none" stroke="#c6c5fe" d="M1195.33,-223.06C1195.33,-223.06 1040.67,-223.06 1040.67,-223.06 1036.83,-223.06 1033,-219.23 1033,-215.4 1033,-215.4 1033,-207.73 1033,-207.73 1033,-203.9 1036.83,-200.06 1040.67,-200.06 1040.67,-200.06 1195.33,-200.06 1195.33,-200.06 1199.17,-200.06 1203,-203.9 1203,-207.73 1203,-207.73 1203,-215.4 1203,-215.4 1203,-219.23 1199.17,-223.06 1195.33,-223.06"/>
<text text-anchor="middle" x="1118" y="-207.86" font-family="Arial" font-size="14.00" fill="#c6c5fe">node&#45;red/glboal&#45;script.ts</text>
</g>
<!-- node&#45;red/red&#45;ui.d.ts -->
<g id="node21" class="node">
<title>node&#45;red/red&#45;ui.d.ts</title>
<path fill="none" stroke="#cfffac" d="M1438.83,-185.06C1438.83,-185.06 1313.17,-185.06 1313.17,-185.06 1309.33,-185.06 1305.5,-181.23 1305.5,-177.4 1305.5,-177.4 1305.5,-169.73 1305.5,-169.73 1305.5,-165.9 1309.33,-162.06 1313.17,-162.06 1313.17,-162.06 1438.83,-162.06 1438.83,-162.06 1442.67,-162.06 1446.5,-165.9 1446.5,-169.73 1446.5,-169.73 1446.5,-177.4 1446.5,-177.4 1446.5,-181.23 1442.67,-185.06 1438.83,-185.06"/>
<text text-anchor="middle" x="1376" y="-169.86" font-family="Arial" font-size="14.00" fill="#cfffac">node&#45;red/red&#45;ui.d.ts</text>
</g>
<!-- node&#45;red/glboal&#45;script.ts&#45;&gt;node&#45;red/red&#45;ui.d.ts -->
<g id="edge25" class="edge">
<title>node&#45;red/glboal&#45;script.ts&#45;&gt;node&#45;red/red&#45;ui.d.ts</title>
<path fill="none" stroke="#757575" d="M1196.5,-200.06C1227.71,-195.43 1263.68,-190.09 1295.12,-185.42"/>
<polygon fill="#757575" stroke="#757575" points="1295.78,-188.86 1305.16,-183.93 1294.76,-181.94 1295.78,-188.86"/>
</g>
<!-- node&#45;red/node&#45;red&#45;registration.ts -->
<g id="node22" class="node">
<title>node&#45;red/node&#45;red&#45;registration.ts</title>
<path fill="none" stroke="#c6c5fe" d="M974.33,-204.06C974.33,-204.06 764.67,-204.06 764.67,-204.06 760.83,-204.06 757,-200.23 757,-196.4 757,-196.4 757,-188.73 757,-188.73 757,-184.9 760.83,-181.06 764.67,-181.06 764.67,-181.06 974.33,-181.06 974.33,-181.06 978.17,-181.06 982,-184.9 982,-188.73 982,-188.73 982,-196.4 982,-196.4 982,-200.23 978.17,-204.06 974.33,-204.06"/>
<text text-anchor="middle" x="869.5" y="-188.86" font-family="Arial" font-size="14.00" fill="#c6c5fe">node&#45;red/node&#45;red&#45;registration.ts</text>
</g>
<!-- node&#45;red/node&#45;red&#45;registration.ts&#45;&gt;node&#45;red/glboal&#45;script.ts -->
<g id="edge26" class="edge">
<title>node&#45;red/node&#45;red&#45;registration.ts&#45;&gt;node&#45;red/glboal&#45;script.ts</title>
<path fill="none" stroke="#757575" d="M982.21,-201.17C995.81,-202.22 1009.6,-203.28 1022.91,-204.31"/>
<polygon fill="#757575" stroke="#757575" points="1022.75,-207.81 1032.99,-205.09 1023.29,-200.83 1022.75,-207.81"/>
</g>
<!-- node&#45;red/node&#45;red&#45;registration.ts&#45;&gt;node&#45;red/red&#45;ui.d.ts -->
<g id="edge27" class="edge">
<title>node&#45;red/node&#45;red&#45;registration.ts&#45;&gt;node&#45;red/red&#45;ui.d.ts</title>
<path fill="none" stroke="#757575" d="M982.15,-188.36C1076.98,-184.79 1210.75,-179.75 1295.15,-176.57"/>
<polygon fill="#757575" stroke="#757575" points="1295.33,-180.07 1305.19,-176.19 1295.07,-173.07 1295.33,-180.07"/>
</g>
<!-- node&#45;red/register&#45;custom&#45;type.ts -->
<g id="node23" class="node">
<title>node&#45;red/register&#45;custom&#45;type.ts</title>
<path fill="none" stroke="#c6c5fe" d="M713.33,-204.06C713.33,-204.06 504.67,-204.06 504.67,-204.06 500.83,-204.06 497,-200.23 497,-196.4 497,-196.4 497,-188.73 497,-188.73 497,-184.9 500.83,-181.06 504.67,-181.06 504.67,-181.06 713.33,-181.06 713.33,-181.06 717.17,-181.06 721,-184.9 721,-188.73 721,-188.73 721,-196.4 721,-196.4 721,-200.23 717.17,-204.06 713.33,-204.06"/>
<text text-anchor="middle" x="609" y="-188.86" font-family="Arial" font-size="14.00" fill="#c6c5fe">node&#45;red/register&#45;custom&#45;type.ts</text>
</g>
<!-- node&#45;red/register&#45;custom&#45;type.ts&#45;&gt;node&#45;red/red&#45;ui.d.ts -->
<g id="edge29" class="edge">
<title>node&#45;red/register&#45;custom&#45;type.ts&#45;&gt;node&#45;red/red&#45;ui.d.ts</title>
<path fill="none" stroke="#757575" d="M676.38,-181.04C701.54,-177.21 730.51,-173.44 757,-171.56 949.9,-157.85 1177.53,-164.44 1295.36,-169.54"/>
<polygon fill="#757575" stroke="#757575" points="1295.23,-173.04 1305.38,-169.98 1295.54,-166.04 1295.23,-173.04"/>
</g>
<!-- node&#45;red/register&#45;custom&#45;type.ts&#45;&gt;node&#45;red/node&#45;red&#45;registration.ts -->
<g id="edge28" class="edge">
<title>node&#45;red/register&#45;custom&#45;type.ts&#45;&gt;node&#45;red/node&#45;red&#45;registration.ts</title>
<path fill="none" stroke="#757575" d="M721.13,-192.56C729.49,-192.56 737.96,-192.56 746.39,-192.56"/>
<polygon fill="#757575" stroke="#757575" points="746.65,-196.06 756.65,-192.56 746.65,-189.06 746.65,-196.06"/>
</g>
<!-- node&#45;red/server.ts -->
<g id="node24" class="node">
<title>node&#45;red/server.ts</title>
<path fill="none" stroke="#c6c5fe" d="M405.83,-204.06C405.83,-204.06 288.17,-204.06 288.17,-204.06 284.33,-204.06 280.5,-200.23 280.5,-196.4 280.5,-196.4 280.5,-188.73 280.5,-188.73 280.5,-184.9 284.33,-181.06 288.17,-181.06 288.17,-181.06 405.83,-181.06 405.83,-181.06 409.67,-181.06 413.5,-184.9 413.5,-188.73 413.5,-188.73 413.5,-196.4 413.5,-196.4 413.5,-200.23 409.67,-204.06 405.83,-204.06"/>
<text text-anchor="middle" x="347" y="-188.86" font-family="Arial" font-size="14.00" fill="#c6c5fe">node&#45;red/server.ts</text>
</g>
<!-- node&#45;red/server.ts&#45;&gt;node&#45;red/register&#45;custom&#45;type.ts -->
<g id="edge30" class="edge">
<title>node&#45;red/server.ts&#45;&gt;node&#45;red/register&#45;custom&#45;type.ts</title>
<path fill="none" stroke="#757575" d="M413.61,-192.56C435.92,-192.56 461.62,-192.56 486.87,-192.56"/>
<polygon fill="#757575" stroke="#757575" points="486.89,-196.06 496.89,-192.56 486.89,-189.06 486.89,-196.06"/>
</g>
<!-- resources/connection.r.ts -->
<g id="node25" class="node">
<title>resources/connection.r.ts</title>
<path fill="none" stroke="#c6c5fe" d="M949.83,-569.06C949.83,-569.06 789.17,-569.06 789.17,-569.06 785.33,-569.06 781.5,-565.23 781.5,-561.4 781.5,-561.4 781.5,-553.73 781.5,-553.73 781.5,-549.9 785.33,-546.06 789.17,-546.06 789.17,-546.06 949.83,-546.06 949.83,-546.06 953.67,-546.06 957.5,-549.9 957.5,-553.73 957.5,-553.73 957.5,-561.4 957.5,-561.4 957.5,-565.23 953.67,-569.06 949.83,-569.06"/>
<text text-anchor="middle" x="869.5" y="-553.86" font-family="Arial" font-size="14.00" fill="#c6c5fe">resources/connection.r.ts</text>
</g>
<!-- resources/connection.r.ts&#45;&gt;models/connection.ts -->
<g id="edge31" class="edge">
<title>resources/connection.r.ts&#45;&gt;models/connection.ts</title>
<path fill="none" stroke="#757575" d="M908.15,-546.06C976.35,-525.77 1125.23,-484.05 1254,-465.56 1406.77,-443.63 1586.96,-439.36 1690.7,-438.97"/>
<polygon fill="#757575" stroke="#757575" points="1690.82,-442.47 1700.81,-438.94 1690.8,-435.47 1690.82,-442.47"/>
</g>
<!-- resources/connection.r.ts&#45;&gt;models/receiver.ts -->
<g id="edge32" class="edge">
<title>resources/connection.r.ts&#45;&gt;models/receiver.ts</title>
<path fill="none" stroke="#757575" d="M957.58,-557.1C1103.85,-556.8 1408.11,-558.19 1665,-572.56 1741.41,-576.84 1828.44,-585.35 1889.1,-591.87"/>
<polygon fill="#757575" stroke="#757575" points="1889.04,-595.38 1899.36,-592.98 1889.8,-588.42 1889.04,-595.38"/>
</g>
<!-- resources/connection.r.ts&#45;&gt;models/sender.ts -->
<g id="edge33" class="edge">
<title>resources/connection.r.ts&#45;&gt;models/sender.ts</title>
<path fill="none" stroke="#757575" d="M952.62,-569.07C962.65,-571.41 972.65,-574.22 982,-577.56 1112.39,-624.21 1123.75,-682.51 1254,-729.56 1344.52,-762.26 1454.74,-778.99 1525.73,-787"/>
<polygon fill="#757575" stroke="#757575" points="1525.59,-790.5 1535.92,-788.11 1526.36,-783.54 1525.59,-790.5"/>
</g>
<!-- resources/frontend&#45;update.ts -->
<g id="node26" class="node">
<title>resources/frontend&#45;update.ts</title>
<path fill="none" stroke="#c6c5fe" d="M1210.33,-759.06C1210.33,-759.06 1025.67,-759.06 1025.67,-759.06 1021.83,-759.06 1018,-755.23 1018,-751.4 1018,-751.4 1018,-743.73 1018,-743.73 1018,-739.9 1021.83,-736.06 1025.67,-736.06 1025.67,-736.06 1210.33,-736.06 1210.33,-736.06 1214.17,-736.06 1218,-739.9 1218,-743.73 1218,-743.73 1218,-751.4 1218,-751.4 1218,-755.23 1214.17,-759.06 1210.33,-759.06"/>
<text text-anchor="middle" x="1118" y="-743.86" font-family="Arial" font-size="14.00" fill="#c6c5fe">resources/frontend&#45;update.ts</text>
</g>
<!-- resources/connection.r.ts&#45;&gt;resources/frontend&#45;update.ts -->
<g id="edge34" class="edge">
<title>resources/connection.r.ts&#45;&gt;resources/frontend&#45;update.ts</title>
<path fill="none" stroke="#757575" d="M957.78,-562.84C966.7,-566.29 975.03,-571.05 982,-577.56 1030.19,-622.61 971.63,-674.64 1018,-721.56 1021.65,-725.26 1025.76,-728.45 1030.18,-731.2"/>
<polygon fill="#757575" stroke="#757575" points="1028.55,-734.3 1039.01,-735.98 1031.88,-728.14 1028.55,-734.3"/>
</g>
<!-- resources/frontend&#45;update.ts&#45;&gt;models/timer.ts -->
<g id="edge35" class="edge">
<title>resources/frontend&#45;update.ts&#45;&gt;models/timer.ts</title>
<path fill="none" stroke="#757575" d="M1142.97,-735.84C1169.64,-723.09 1214.22,-702.66 1254,-688.56 1351.68,-653.95 1468.56,-624.06 1537.99,-607.47"/>
<polygon fill="#757575" stroke="#757575" points="1538.96,-610.83 1547.88,-605.12 1537.35,-604.02 1538.96,-610.83"/>
</g>
<!-- resources/websocket&#45;response.d.ts -->
<g id="node27" class="node">
<title>resources/websocket&#45;response.d.ts</title>
<path fill="none" stroke="#c6c5fe" d="M1490.33,-721.06C1490.33,-721.06 1261.67,-721.06 1261.67,-721.06 1257.83,-721.06 1254,-717.23 1254,-713.4 1254,-713.4 1254,-705.73 1254,-705.73 1254,-701.9 1257.83,-698.06 1261.67,-698.06 1261.67,-698.06 1490.33,-698.06 1490.33,-698.06 1494.17,-698.06 1498,-701.9 1498,-705.73 1498,-705.73 1498,-713.4 1498,-713.4 1498,-717.23 1494.17,-721.06 1490.33,-721.06"/>
<text text-anchor="middle" x="1376" y="-705.86" font-family="Arial" font-size="14.00" fill="#c6c5fe">resources/websocket&#45;response.d.ts</text>
</g>
<!-- resources/frontend&#45;update.ts&#45;&gt;resources/websocket&#45;response.d.ts -->
<g id="edge36" class="edge">
<title>resources/frontend&#45;update.ts&#45;&gt;resources/websocket&#45;response.d.ts</title>
<path fill="none" stroke="#757575" d="M1196.5,-736.06C1225.07,-731.82 1257.63,-726.98 1287.05,-722.62"/>
<polygon fill="#757575" stroke="#757575" points="1287.94,-726.02 1297.32,-721.09 1286.91,-719.1 1287.94,-726.02"/>
</g>
<!-- services/sender&#45;loader.ts -->
<g id="node28" class="node">
<title>services/sender&#45;loader.ts</title>
<path fill="none" stroke="#c6c5fe" d="M1456.83,-953.06C1456.83,-953.06 1295.17,-953.06 1295.17,-953.06 1291.33,-953.06 1287.5,-949.23 1287.5,-945.4 1287.5,-945.4 1287.5,-937.73 1287.5,-937.73 1287.5,-933.9 1291.33,-930.06 1295.17,-930.06 1295.17,-930.06 1456.83,-930.06 1456.83,-930.06 1460.67,-930.06 1464.5,-933.9 1464.5,-937.73 1464.5,-937.73 1464.5,-945.4 1464.5,-945.4 1464.5,-949.23 1460.67,-953.06 1456.83,-953.06"/>
<text text-anchor="middle" x="1376" y="-937.86" font-family="Arial" font-size="14.00" fill="#c6c5fe">services/sender&#45;loader.ts</text>
</g>
<!-- resources/frontend&#45;update.ts&#45;&gt;services/sender&#45;loader.ts -->
<g id="edge37" class="edge">
<title>resources/frontend&#45;update.ts&#45;&gt;services/sender&#45;loader.ts</title>
<path fill="none" stroke="#757575" d="M1134.25,-759.12C1177.19,-791.66 1299.37,-884.25 1351.24,-923.56"/>
<polygon fill="#757575" stroke="#757575" points="1349.42,-926.57 1359.51,-929.82 1353.65,-920.99 1349.42,-926.57"/>
</g>
<!-- resources/websocket&#45;response.d.ts&#45;&gt;models/sender.ts -->
<g id="edge52" class="edge">
<title>resources/websocket&#45;response.d.ts&#45;&gt;models/sender.ts</title>
<path fill="none" stroke="#757575" d="M1448.78,-721.13C1465.24,-724.84 1482.46,-729.58 1498,-735.56 1525.39,-746.11 1554.15,-763.43 1573.86,-776.41"/>
<polygon fill="#757575" stroke="#757575" points="1571.98,-779.36 1582.23,-782.02 1575.88,-773.55 1571.98,-779.36"/>
</g>
<!-- resources/websocket&#45;response.d.ts&#45;&gt;models/timer.ts -->
<g id="edge53" class="edge">
<title>resources/websocket&#45;response.d.ts&#45;&gt;models/timer.ts</title>
<path fill="none" stroke="#757575" d="M1399.05,-698.02C1438.58,-677.31 1521.64,-633.81 1567.11,-610"/>
<polygon fill="#757575" stroke="#757575" points="1568.98,-612.97 1576.21,-605.23 1565.73,-606.77 1568.98,-612.97"/>
</g>
<!-- services/sender&#45;loader.ts&#45;&gt;models/sound.ts -->
<g id="edge65" class="edge">
<title>services/sender&#45;loader.ts&#45;&gt;models/sound.ts</title>
<path fill="none" stroke="#757575" d="M1464.58,-939.93C1560.96,-936.51 1719.88,-926.11 1853,-894.56 2072.08,-842.65 2319.18,-727.83 2406.15,-685.58"/>
<polygon fill="#757575" stroke="#757575" points="2407.8,-688.67 2415.25,-681.14 2404.73,-682.38 2407.8,-688.67"/>
</g>
<!-- services/sender&#45;loader.ts&#45;&gt;models/sender.ts -->
<g id="edge64" class="edge">
<title>services/sender&#45;loader.ts&#45;&gt;models/sender.ts</title>
<path fill="none" stroke="#757575" d="M1464.66,-930.11C1476.36,-926.5 1487.81,-921.76 1498,-915.56 1539.52,-890.29 1571.69,-841.59 1587.58,-813.98"/>
<polygon fill="#757575" stroke="#757575" points="1590.68,-815.6 1592.51,-805.16 1584.57,-812.18 1590.68,-815.6"/>
</g>
<!-- util/tsc&#45;compiler.ts -->
<g id="node37" class="node">
<title>util/tsc&#45;compiler.ts</title>
<path fill="none" stroke="#c6c5fe" d="M1657.33,-1143.06C1657.33,-1143.06 1541.67,-1143.06 1541.67,-1143.06 1537.83,-1143.06 1534,-1139.23 1534,-1135.4 1534,-1135.4 1534,-1127.73 1534,-1127.73 1534,-1123.9 1537.83,-1120.06 1541.67,-1120.06 1541.67,-1120.06 1657.33,-1120.06 1657.33,-1120.06 1661.17,-1120.06 1665,-1123.9 1665,-1127.73 1665,-1127.73 1665,-1135.4 1665,-1135.4 1665,-1139.23 1661.17,-1143.06 1657.33,-1143.06"/>
<text text-anchor="middle" x="1599.5" y="-1127.86" font-family="Arial" font-size="14.00" fill="#c6c5fe">util/tsc&#45;compiler.ts</text>
</g>
<!-- services/sender&#45;loader.ts&#45;&gt;util/tsc&#45;compiler.ts -->
<g id="edge66" class="edge">
<title>services/sender&#45;loader.ts&#45;&gt;util/tsc&#45;compiler.ts</title>
<path fill="none" stroke="#757575" d="M1390.52,-953.16C1427.75,-985.09 1531.96,-1074.49 1577.15,-1113.25"/>
<polygon fill="#757575" stroke="#757575" points="1575,-1116.02 1584.87,-1119.87 1579.56,-1110.71 1575,-1116.02"/>
</g>
<!-- resources/inventory.r.ts -->
<g id="node29" class="node">
<title>resources/inventory.r.ts</title>
<path fill="none" stroke="#c6c5fe" d="M172.83,-1281.06C172.83,-1281.06 24.17,-1281.06 24.17,-1281.06 20.33,-1281.06 16.5,-1277.23 16.5,-1273.4 16.5,-1273.4 16.5,-1265.73 16.5,-1265.73 16.5,-1261.9 20.33,-1258.06 24.17,-1258.06 24.17,-1258.06 172.83,-1258.06 172.83,-1258.06 176.67,-1258.06 180.5,-1261.9 180.5,-1265.73 180.5,-1265.73 180.5,-1273.4 180.5,-1273.4 180.5,-1277.23 176.67,-1281.06 172.83,-1281.06"/>
<text text-anchor="middle" x="98.5" y="-1265.86" font-family="Arial" font-size="14.00" fill="#c6c5fe">resources/inventory.r.ts</text>
</g>
<!-- resources/inventory.r.ts&#45;&gt;models/inventory/item.ts -->
<g id="edge38" class="edge">
<title>resources/inventory.r.ts&#45;&gt;models/inventory/item.ts</title>
<path fill="none" stroke="#757575" d="M180.55,-1276.14C203.39,-1277.99 228.43,-1280.02 251.96,-1281.93"/>
<polygon fill="#757575" stroke="#757575" points="251.69,-1285.42 261.94,-1282.74 252.25,-1278.44 251.69,-1285.42"/>
</g>
<!-- resources/inventory.r.ts&#45;&gt;models/inventory/order.ts -->
<g id="edge39" class="edge">
<title>resources/inventory.r.ts&#45;&gt;models/inventory/order.ts</title>
<path fill="none" stroke="#757575" d="M180.64,-1266.37C270.32,-1262.84 414.73,-1257.16 510.49,-1253.4"/>
<polygon fill="#757575" stroke="#757575" points="510.91,-1256.88 520.76,-1252.99 510.63,-1249.89 510.91,-1256.88"/>
</g>
<!-- resources/receiver.r.ts -->
<g id="node30" class="node">
<title>resources/receiver.r.ts</title>
<path fill="none" stroke="#c6c5fe" d="M940.83,-797.06C940.83,-797.06 798.17,-797.06 798.17,-797.06 794.33,-797.06 790.5,-793.23 790.5,-789.4 790.5,-789.4 790.5,-781.73 790.5,-781.73 790.5,-777.9 794.33,-774.06 798.17,-774.06 798.17,-774.06 940.83,-774.06 940.83,-774.06 944.67,-774.06 948.5,-777.9 948.5,-781.73 948.5,-781.73 948.5,-789.4 948.5,-789.4 948.5,-793.23 944.67,-797.06 940.83,-797.06"/>
<text text-anchor="middle" x="869.5" y="-781.86" font-family="Arial" font-size="14.00" fill="#c6c5fe">resources/receiver.r.ts</text>
</g>
<!-- resources/receiver.r.ts&#45;&gt;models/receiver.ts -->
<g id="edge40" class="edge">
<title>resources/receiver.r.ts&#45;&gt;models/receiver.ts</title>
<path fill="none" stroke="#757575" d="M948.61,-783.37C1019.13,-780.95 1125.67,-776.2 1218,-767.56 1343.04,-755.86 1374.97,-754.77 1498,-729.56 1655.33,-697.33 1837.75,-641.51 1920.53,-615.15"/>
<polygon fill="#757575" stroke="#757575" points="1921.66,-618.46 1930.12,-612.09 1919.53,-611.8 1921.66,-618.46"/>
</g>
<!-- resources/receiver.r.ts&#45;&gt;util/log.ts -->
<g id="edge42" class="edge">
<title>resources/receiver.r.ts&#45;&gt;util/log.ts</title>
<path fill="none" stroke="#757575" d="M884.72,-797.12C952.04,-850.96 1247.36,-1077.75 1534,-1151.56 1755.61,-1208.63 2032.16,-1139.54 2139,-1107.84"/>
<polygon fill="#757575" stroke="#757575" points="2140.23,-1111.13 2148.8,-1104.9 2138.21,-1104.42 2140.23,-1111.13"/>
</g>
<!-- resources/receiver.r.ts&#45;&gt;resources/frontend&#45;update.ts -->
<g id="edge41" class="edge">
<title>resources/receiver.r.ts&#45;&gt;resources/frontend&#45;update.ts</title>
<path fill="none" stroke="#757575" d="M945.13,-774.06C972.63,-769.82 1003.99,-764.98 1032.32,-760.62"/>
<polygon fill="#757575" stroke="#757575" points="1032.85,-764.08 1042.2,-759.09 1031.78,-757.16 1032.85,-764.08"/>
</g>
<!-- resources/sender.r.ts -->
<g id="node31" class="node">
<title>resources/sender.r.ts</title>
<path fill="none" stroke="#c6c5fe" d="M166.83,-913.06C166.83,-913.06 30.17,-913.06 30.17,-913.06 26.33,-913.06 22.5,-909.23 22.5,-905.4 22.5,-905.4 22.5,-897.73 22.5,-897.73 22.5,-893.9 26.33,-890.06 30.17,-890.06 30.17,-890.06 166.83,-890.06 166.83,-890.06 170.67,-890.06 174.5,-893.9 174.5,-897.73 174.5,-897.73 174.5,-905.4 174.5,-905.4 174.5,-909.23 170.67,-913.06 166.83,-913.06"/>
<text text-anchor="middle" x="98.5" y="-897.86" font-family="Arial" font-size="14.00" fill="#c6c5fe">resources/sender.r.ts</text>
</g>
<!-- resources/sender.r.ts&#45;&gt;models/battery.ts -->
<g id="edge43" class="edge">
<title>resources/sender.r.ts&#45;&gt;models/battery.ts</title>
<path fill="none" stroke="#757575" d="M129.35,-913.12C206.98,-942.1 422.08,-1015.56 608,-1015.56 608,-1015.56 608,-1015.56 1377,-1015.56 1435.89,-1015.56 1445.08,-987.41 1498,-961.56 1589.83,-916.71 1605.9,-890.97 1701,-853.56 1706.02,-851.59 1711.3,-849.74 1716.63,-848.04"/>
<polygon fill="#757575" stroke="#757575" points="1717.71,-851.37 1726.26,-845.11 1715.68,-844.67 1717.71,-851.37"/>
</g>
<!-- resources/sender.r.ts&#45;&gt;models/transformation.ts -->
<g id="edge47" class="edge">
<title>resources/sender.r.ts&#45;&gt;models/transformation.ts</title>
<path fill="none" stroke="#757575" d="M100.36,-889.94C104.58,-841.16 127.5,-651.07 233,-553.56 449.3,-353.64 573.96,-365.56 868.5,-365.56 868.5,-365.56 868.5,-365.56 1778,-365.56 1884.18,-365.56 2005.81,-372.13 2088.04,-377.54"/>
<polygon fill="#757575" stroke="#757575" points="2087.91,-381.04 2098.12,-378.21 2088.37,-374.05 2087.91,-381.04"/>
</g>
<!-- resources/sender.r.ts&#45;&gt;models/event.ts -->
<g id="edge44" class="edge">
<title>resources/sender.r.ts&#45;&gt;models/event.ts</title>
<path fill="none" stroke="#757575" d="M107.16,-913.15C125.31,-939.49 173.92,-1003.59 233,-1029.56 385.89,-1096.77 440.99,-1053.56 608,-1053.56 608,-1053.56 608,-1053.56 1377,-1053.56 1505.44,-1053.56 1553.29,-1092.96 1665,-1029.56 1718.74,-999.06 1753.13,-930.62 1767.81,-895.79"/>
<polygon fill="#757575" stroke="#757575" points="1771.21,-896.72 1771.74,-886.14 1764.73,-894.08 1771.21,-896.72"/>
</g>
<!-- resources/sender.r.ts&#45;&gt;util/log.ts -->
<g id="edge51" class="edge">
<title>resources/sender.r.ts&#45;&gt;util/log.ts</title>
<path fill="none" stroke="#757575" d="M106.36,-913.42C123.84,-942.69 172.97,-1019.16 233,-1062.56 378.06,-1167.46 428.99,-1209.56 608,-1209.56 608,-1209.56 608,-1209.56 1778,-1209.56 1898.05,-1209.56 1929.91,-1199.92 2044,-1162.56 2084.72,-1149.23 2128.55,-1126.04 2156.11,-1110.26"/>
<polygon fill="#757575" stroke="#757575" points="2157.91,-1113.26 2164.81,-1105.22 2154.4,-1107.21 2157.91,-1113.26"/>
</g>
<!-- resources/sender.r.ts&#45;&gt;models/sender.ts -->
<g id="edge45" class="edge">
<title>resources/sender.r.ts&#45;&gt;models/sender.ts</title>
<path fill="none" stroke="#757575" d="M174.88,-901.56C274.16,-901.56 454.17,-901.56 608,-901.56 608,-901.56 608,-901.56 1119,-901.56 1287.78,-901.56 1341.24,-940.12 1498,-877.56 1532.71,-863.71 1564.28,-833.02 1582.43,-812.82"/>
<polygon fill="#757575" stroke="#757575" points="1585.19,-814.98 1589.14,-805.14 1579.92,-810.37 1585.19,-814.98"/>
</g>
<!-- resources/sender.r.ts&#45;&gt;models/timer.ts -->
<g id="edge46" class="edge">
<title>resources/sender.r.ts&#45;&gt;models/timer.ts</title>
<path fill="none" stroke="#757575" d="M106.82,-889.65C147.67,-824.83 354.67,-517.56 608,-517.56 608,-517.56 608,-517.56 870.5,-517.56 1115.48,-517.56 1404.33,-560.66 1532.05,-581.95"/>
<polygon fill="#757575" stroke="#757575" points="1531.63,-585.42 1542.07,-583.63 1532.79,-578.52 1531.63,-585.42"/>
</g>
<!-- resources/sender.r.ts&#45;&gt;resources/frontend&#45;update.ts -->
<g id="edge48" class="edge">
<title>resources/sender.r.ts&#45;&gt;resources/frontend&#45;update.ts</title>
<path fill="none" stroke="#757575" d="M142.96,-890.01C247.7,-862.72 522.76,-794.31 757,-764.56 840.57,-753.95 935.8,-749.8 1007.32,-748.25"/>
<polygon fill="#757575" stroke="#757575" points="1007.77,-751.74 1017.7,-748.04 1007.63,-744.74 1007.77,-751.74"/>
</g>
<!-- resources/sender.r.ts&#45;&gt;services/sender&#45;loader.ts -->
<g id="edge49" class="edge">
<title>resources/sender.r.ts&#45;&gt;services/sender&#45;loader.ts</title>
<path fill="none" stroke="#757575" d="M174.75,-910.71C273.89,-921.96 453.74,-939.56 608,-939.56 608,-939.56 608,-939.56 870.5,-939.56 1011.7,-939.56 1175.13,-940.36 1276.8,-940.94"/>
<polygon fill="#757575" stroke="#757575" points="1277.03,-944.44 1287.05,-941 1277.07,-937.44 1277.03,-944.44"/>
</g>
<!-- services/sender&#45;trigger&#45;service.ts -->
<g id="node32" class="node">
<title>services/sender&#45;trigger&#45;service.ts</title>
<path fill="none" stroke="#c6c5fe" d="M453.33,-347.06C453.33,-347.06 240.67,-347.06 240.67,-347.06 236.83,-347.06 233,-343.23 233,-339.4 233,-339.4 233,-331.73 233,-331.73 233,-327.9 236.83,-324.06 240.67,-324.06 240.67,-324.06 453.33,-324.06 453.33,-324.06 457.17,-324.06 461,-327.9 461,-331.73 461,-331.73 461,-339.4 461,-339.4 461,-343.23 457.17,-347.06 453.33,-347.06"/>
<text text-anchor="middle" x="347" y="-331.86" font-family="Arial" font-size="14.00" fill="#c6c5fe">services/sender&#45;trigger&#45;service.ts</text>
</g>
<!-- resources/sender.r.ts&#45;&gt;services/sender&#45;trigger&#45;service.ts -->
<g id="edge50" class="edge">
<title>resources/sender.r.ts&#45;&gt;services/sender&#45;trigger&#45;service.ts</title>
<path fill="none" stroke="#757575" d="M101.26,-889.75C109.46,-837.17 147.19,-620.29 233,-465.56 257.86,-420.73 300.11,-377.64 325.3,-354.07"/>
<polygon fill="#757575" stroke="#757575" points="327.85,-356.47 332.83,-347.12 323.11,-351.32 327.85,-356.47"/>
</g>
<!-- services/sender&#45;trigger&#45;service.ts&#45;&gt;models/connection&#45;response.d.ts -->
<g id="edge67" class="edge">
<title>services/sender&#45;trigger&#45;service.ts&#45;&gt;models/connection&#45;response.d.ts</title>
<path fill="none" stroke="#757575" d="M362.63,-324C386.93,-303.97 435.44,-260.39 461,-212.56 492.91,-152.86 446.39,-109.52 497,-64.56 621.34,45.9 702.18,-19.56 868.5,-19.56 868.5,-19.56 868.5,-19.56 2186,-19.56 2361.38,-19.56 2428.98,-40.56 2553,-164.56 2657.7,-269.25 2690.94,-456.46 2699.46,-519.88"/>
<polygon fill="#757575" stroke="#757575" points="2696.01,-520.44 2700.74,-529.92 2702.95,-519.55 2696.01,-520.44"/>
</g>
<!-- services/sender&#45;trigger&#45;service.ts&#45;&gt;models/transformation.ts -->
<g id="edge69" class="edge">
<title>services/sender&#45;trigger&#45;service.ts&#45;&gt;models/transformation.ts</title>
<path fill="none" stroke="#757575" d="M359,-323.77C379.3,-301.96 423.99,-253.77 461,-212.56 477.2,-194.52 476.64,-184.73 497,-171.56 642.03,-77.78 695.79,-57.56 868.5,-57.56 868.5,-57.56 868.5,-57.56 1778,-57.56 1974.22,-57.56 2129.28,-292.09 2172.16,-363.91"/>
<polygon fill="#757575" stroke="#757575" points="2169.37,-366.08 2177.46,-372.92 2175.41,-362.53 2169.37,-366.08"/>
</g>
<!-- services/sender&#45;trigger&#45;service.ts&#45;&gt;models/sender.ts -->
<g id="edge68" class="edge">
<title>services/sender&#45;trigger&#45;service.ts&#45;&gt;models/sender.ts</title>
<path fill="none" stroke="#757575" d="M353.34,-347.17C382.68,-409.42 531.4,-704.6 757,-805.56 893.14,-866.49 1347.34,-822.6 1525.71,-802.33"/>
<polygon fill="#757575" stroke="#757575" points="1526.24,-805.8 1535.78,-801.18 1525.44,-798.84 1526.24,-805.8"/>
</g>
<!-- services/sender&#45;trigger&#45;service.ts&#45;&gt;node&#45;red/register&#45;custom&#45;type.ts -->
<g id="edge70" class="edge">
<title>services/sender&#45;trigger&#45;service.ts&#45;&gt;node&#45;red/register&#45;custom&#45;type.ts</title>
<path fill="none" stroke="#757575" d="M369.28,-323.86C415.38,-298.5 524.64,-238.41 577.84,-209.15"/>
<polygon fill="#757575" stroke="#757575" points="579.72,-212.11 586.79,-204.23 576.34,-205.98 579.72,-212.11"/>
</g>
<!-- services/connection&#45;service.ts -->
<g id="node34" class="node">
<title>services/connection&#45;service.ts</title>
<path fill="none" stroke="#c6c5fe" d="M705.33,-319.06C705.33,-319.06 512.67,-319.06 512.67,-319.06 508.83,-319.06 505,-315.23 505,-311.4 505,-311.4 505,-303.73 505,-303.73 505,-299.9 508.83,-296.06 512.67,-296.06 512.67,-296.06 705.33,-296.06 705.33,-296.06 709.17,-296.06 713,-299.9 713,-303.73 713,-303.73 713,-311.4 713,-311.4 713,-315.23 709.17,-319.06 705.33,-319.06"/>
<text text-anchor="middle" x="609" y="-303.86" font-family="Arial" font-size="14.00" fill="#c6c5fe">services/connection&#45;service.ts</text>
</g>
<!-- services/sender&#45;trigger&#45;service.ts&#45;&gt;services/connection&#45;service.ts -->
<g id="edge71" class="edge">
<title>services/sender&#45;trigger&#45;service.ts&#45;&gt;services/connection&#45;service.ts</title>
<path fill="none" stroke="#757575" d="M454.88,-324.05C468.05,-322.63 481.55,-321.18 494.81,-319.75"/>
<polygon fill="#757575" stroke="#757575" points="495.32,-323.22 504.89,-318.67 494.57,-316.26 495.32,-323.22"/>
</g>
<!-- services/timer&#45;factory.ts -->
<g id="node35" class="node">
<title>services/timer&#45;factory.ts</title>
<path fill="none" stroke="#c6c5fe" d="M945.33,-610.06C945.33,-610.06 793.67,-610.06 793.67,-610.06 789.83,-610.06 786,-606.23 786,-602.4 786,-602.4 786,-594.73 786,-594.73 786,-590.9 789.83,-587.06 793.67,-587.06 793.67,-587.06 945.33,-587.06 945.33,-587.06 949.17,-587.06 953,-590.9 953,-594.73 953,-594.73 953,-602.4 953,-602.4 953,-606.23 949.17,-610.06 945.33,-610.06"/>
<text text-anchor="middle" x="869.5" y="-594.86" font-family="Arial" font-size="14.00" fill="#c6c5fe">services/timer&#45;factory.ts</text>
</g>
<!-- services/sender&#45;trigger&#45;service.ts&#45;&gt;services/timer&#45;factory.ts -->
<g id="edge72" class="edge">
<title>services/sender&#45;trigger&#45;service.ts&#45;&gt;services/timer&#45;factory.ts</title>
<path fill="none" stroke="#757575" d="M362.98,-347.11C414.53,-386.25 590.61,-514.89 757,-577.56 763.99,-580.19 771.35,-582.51 778.82,-584.54"/>
<polygon fill="#757575" stroke="#757575" points="778.13,-587.97 788.68,-587.05 779.85,-581.19 778.13,-587.97"/>
</g>
<!-- resources/transformation.r.ts -->
<g id="node33" class="node">
<title>resources/transformation.r.ts</title>
<path fill="none" stroke="#cfffac" d="M189.33,-1363.06C189.33,-1363.06 7.67,-1363.06 7.67,-1363.06 3.83,-1363.06 0,-1359.23 0,-1355.4 0,-1355.4 0,-1347.73 0,-1347.73 0,-1343.9 3.83,-1340.06 7.67,-1340.06 7.67,-1340.06 189.33,-1340.06 189.33,-1340.06 193.17,-1340.06 197,-1343.9 197,-1347.73 197,-1347.73 197,-1355.4 197,-1355.4 197,-1359.23 193.17,-1363.06 189.33,-1363.06"/>
<text text-anchor="middle" x="98.5" y="-1347.86" font-family="Arial" font-size="14.00" fill="#cfffac">resources/transformation.r.ts</text>
</g>
<!-- services/connection&#45;service.ts&#45;&gt;models/connection&#45;response.d.ts -->
<g id="edge54" class="edge">
<title>services/connection&#45;service.ts&#45;&gt;models/connection&#45;response.d.ts</title>
<path fill="none" stroke="#757575" d="M624.95,-295.9C646.83,-278.58 688.51,-244.64 721,-212.56 738.26,-195.52 735.46,-182.71 757,-171.56 899.88,-97.6 956.11,-133.56 1117,-133.56 1117,-133.56 1117,-133.56 2186,-133.56 2438.41,-133.56 2639.59,-437.67 2689.87,-520.79"/>
<polygon fill="#757575" stroke="#757575" points="2687.11,-523 2695.24,-529.79 2693.12,-519.41 2687.11,-523"/>
</g>
<!-- services/connection&#45;service.ts&#45;&gt;models/connection.ts -->
<g id="edge55" class="edge">
<title>services/connection&#45;service.ts&#45;&gt;models/connection.ts</title>
<path fill="none" stroke="#757575" d="M713.37,-314.03C815.79,-319.87 977.16,-327.56 1117,-327.56 1117,-327.56 1117,-327.56 1377,-327.56 1507.93,-327.56 1540.62,-348.67 1665,-389.56 1692.81,-398.71 1723.02,-412.59 1744.89,-423.41"/>
<polygon fill="#757575" stroke="#757575" points="1743.51,-426.63 1754.02,-427.99 1746.65,-420.38 1743.51,-426.63"/>
</g>
<!-- services/connection&#45;service.ts&#45;&gt;models/receiver&#45;data.ts -->
<g id="edge56" class="edge">
<title>services/connection&#45;service.ts&#45;&gt;models/receiver&#45;data.ts</title>
<path fill="none" stroke="#757575" d="M713.38,-301.74C815.8,-296.48 977.18,-289.56 1117,-289.56 1117,-289.56 1117,-289.56 1377,-289.56 1596.19,-289.56 1695.73,-265.89 1853,-418.56 1881.85,-446.57 1856.15,-478.38 1889,-501.56 1920.69,-523.93 2017.79,-526.86 2092.02,-525.5"/>
<polygon fill="#757575" stroke="#757575" points="2092.4,-529 2102.33,-525.29 2092.26,-522 2092.4,-529"/>
</g>
<!-- services/connection&#45;service.ts&#45;&gt;models/transformation.ts -->
<g id="edge57" class="edge">
<title>services/connection&#45;service.ts&#45;&gt;models/transformation.ts</title>
<path fill="none" stroke="#757575" d="M654.72,-296.02C683.69,-289 722.35,-280.46 757,-275.56 915.78,-253.11 956.64,-251.56 1117,-251.56 1117,-251.56 1117,-251.56 1778,-251.56 1926.11,-251.56 2090.18,-332.48 2155.2,-368.08"/>
<polygon fill="#757575" stroke="#757575" points="2153.62,-371.21 2164.06,-372.99 2157.01,-365.08 2153.62,-371.21"/>
</g>
<!-- services/connection&#45;service.ts&#45;&gt;services/timer&#45;factory.ts -->
<g id="edge58" class="edge">
<title>services/connection&#45;service.ts&#45;&gt;services/timer&#45;factory.ts</title>
<path fill="none" stroke="#757575" d="M624.78,-319.13C648.79,-338.76 696.11,-381.01 721,-427.56 753.33,-488.02 707.34,-530.29 757,-577.56 762.72,-583.01 769.38,-587.26 776.55,-590.56"/>
<polygon fill="#757575" stroke="#757575" points="775.28,-593.82 785.86,-594.25 777.86,-587.32 775.28,-593.82"/>
</g>
<!-- services/timer&#45;factory.ts&#45;&gt;models/connection&#45;response.d.ts -->
<g id="edge73" class="edge">
<title>services/timer&#45;factory.ts&#45;&gt;models/connection&#45;response.d.ts</title>
<path fill="none" stroke="#757575" d="M953.34,-609.92C1173.08,-639.66 1767.46,-717.56 1965.5,-717.56 1965.5,-717.56 1965.5,-717.56 2186,-717.56 2349.59,-717.56 2404.24,-757.62 2553,-689.56 2615.13,-661.14 2666.13,-595.03 2689.01,-561.63"/>
<polygon fill="#757575" stroke="#757575" points="2692.05,-563.4 2694.71,-553.14 2686.23,-559.5 2692.05,-563.4"/>
</g>
<!-- services/timer&#45;factory.ts&#45;&gt;models/timer.ts -->
<g id="edge74" class="edge">
<title>services/timer&#45;factory.ts&#45;&gt;models/timer.ts</title>
<path fill="none" stroke="#757575" d="M953.3,-597.99C1099.13,-596.99 1398.92,-594.93 1532.15,-594.02"/>
<polygon fill="#757575" stroke="#757575" points="1532.25,-597.52 1542.22,-593.95 1532.2,-590.52 1532.25,-597.52"/>
</g>
<!-- services/timer&#45;factory.ts&#45;&gt;resources/frontend&#45;update.ts -->
<g id="edge75" class="edge">
<title>services/timer&#45;factory.ts&#45;&gt;resources/frontend&#45;update.ts</title>
<path fill="none" stroke="#757575" d="M881.09,-610.35C903.74,-634.85 959.61,-691.47 1018,-721.56 1026.83,-726.11 1036.51,-729.91 1046.27,-733.08"/>
<polygon fill="#757575" stroke="#757575" points="1045.43,-736.48 1056.02,-736.03 1047.46,-729.78 1045.43,-736.48"/>
</g>
<!-- services/event&#45;scheduler.ts -->
<g id="node36" class="node">
<title>services/event&#45;scheduler.ts</title>
<path fill="none" stroke="#c6c5fe" d="M185.83,-453.06C185.83,-453.06 11.17,-453.06 11.17,-453.06 7.33,-453.06 3.5,-449.23 3.5,-445.4 3.5,-445.4 3.5,-437.73 3.5,-437.73 3.5,-433.9 7.33,-430.06 11.17,-430.06 11.17,-430.06 185.83,-430.06 185.83,-430.06 189.67,-430.06 193.5,-433.9 193.5,-437.73 193.5,-437.73 193.5,-445.4 193.5,-445.4 193.5,-449.23 189.67,-453.06 185.83,-453.06"/>
<text text-anchor="middle" x="98.5" y="-437.86" font-family="Arial" font-size="14.00" fill="#c6c5fe">services/event&#45;scheduler.ts</text>
</g>
<!-- services/event&#45;scheduler.ts&#45;&gt;models/connection.ts -->
<g id="edge59" class="edge">
<title>services/event&#45;scheduler.ts&#45;&gt;models/connection.ts</title>
<path fill="none" stroke="#757575" d="M193.53,-430.32C295.47,-419.11 463.04,-403.56 608,-403.56 608,-403.56 608,-403.56 1377,-403.56 1485.55,-403.56 1610.05,-416.94 1690.7,-427.39"/>
<polygon fill="#757575" stroke="#757575" points="1690.43,-430.88 1700.8,-428.71 1691.34,-423.94 1690.43,-430.88"/>
</g>
<!-- services/event&#45;scheduler.ts&#45;&gt;util/log.ts -->
<g id="edge63" class="edge">
<title>services/event&#45;scheduler.ts&#45;&gt;util/log.ts</title>
<path fill="none" stroke="#757575" d="M104.21,-453.27C118.91,-488.74 166.93,-596.83 233,-666.56 466.7,-913.22 528.71,-1091.56 868.5,-1091.56 868.5,-1091.56 868.5,-1091.56 1377,-1091.56 1521.25,-1091.56 1556.81,-1076.79 1701,-1072.56 1768.53,-1070.58 1785.48,-1070.42 1853,-1072.56 1955.22,-1075.8 2074.93,-1084.65 2138.65,-1089.77"/>
<polygon fill="#757575" stroke="#757575" points="2138.51,-1093.27 2148.76,-1090.59 2139.08,-1086.3 2138.51,-1093.27"/>
</g>
<!-- services/event&#45;scheduler.ts&#45;&gt;models/sender.ts -->
<g id="edge60" class="edge">
<title>services/event&#45;scheduler.ts&#45;&gt;models/sender.ts</title>
<path fill="none" stroke="#757575" d="M110.42,-453.29C175.14,-521.45 517.48,-863.56 868.5,-863.56 868.5,-863.56 868.5,-863.56 1119,-863.56 1288.08,-863.56 1332.99,-867.43 1498,-830.56 1520.41,-825.56 1544.58,-816.77 1563.6,-809.02"/>
<polygon fill="#757575" stroke="#757575" points="1565.16,-812.16 1573.04,-805.08 1562.46,-805.7 1565.16,-812.16"/>
</g>
<!-- services/event&#45;scheduler.ts&#45;&gt;models/timer.ts -->
<g id="edge61" class="edge">
<title>services/event&#45;scheduler.ts&#45;&gt;models/timer.ts</title>
<path fill="none" stroke="#757575" d="M193.59,-444.25C386.22,-450.31 839.26,-467.42 1218,-503.56 1343.02,-515.49 1378.26,-503.71 1498,-541.56 1524.52,-549.95 1552.44,-564.96 1572.11,-576.71"/>
<polygon fill="#757575" stroke="#757575" points="1570.43,-579.79 1580.79,-582 1574.08,-573.81 1570.43,-579.79"/>
</g>
<!-- services/event&#45;scheduler.ts&#45;&gt;services/sender&#45;trigger&#45;service.ts -->
<g id="edge62" class="edge">
<title>services/event&#45;scheduler.ts&#45;&gt;services/sender&#45;trigger&#45;service.ts</title>
<path fill="none" stroke="#757575" d="M126.35,-430.02C170.8,-410.9 259.74,-372.66 309.73,-351.16"/>
<polygon fill="#757575" stroke="#757575" points="311.38,-354.26 319.18,-347.09 308.61,-347.83 311.38,-354.26"/>
</g>
<!-- util/tsc&#45;compiler.ts&#45;&gt;util/log.ts -->
<g id="edge79" class="edge">
<title>util/tsc&#45;compiler.ts&#45;&gt;util/log.ts</title>
<path fill="none" stroke="#757575" d="M1665.17,-1127.35C1784.37,-1119.59 2035.9,-1103.21 2138.74,-1096.51"/>
<polygon fill="#757575" stroke="#757575" points="2139.04,-1100 2148.79,-1095.86 2138.59,-1093.01 2139.04,-1100"/>
</g>
<!-- util/file.ts -->
<g id="node39" class="node">
<title>util/file.ts</title>
<path fill="none" stroke="#cfffac" d="M1804.83,-1105.06C1804.83,-1105.06 1749.17,-1105.06 1749.17,-1105.06 1745.33,-1105.06 1741.5,-1101.23 1741.5,-1097.4 1741.5,-1097.4 1741.5,-1089.73 1741.5,-1089.73 1741.5,-1085.9 1745.33,-1082.06 1749.17,-1082.06 1749.17,-1082.06 1804.83,-1082.06 1804.83,-1082.06 1808.67,-1082.06 1812.5,-1085.9 1812.5,-1089.73 1812.5,-1089.73 1812.5,-1097.4 1812.5,-1097.4 1812.5,-1101.23 1808.67,-1105.06 1804.83,-1105.06"/>
<text text-anchor="middle" x="1777" y="-1089.86" font-family="Arial" font-size="14.00" fill="#cfffac">util/file.ts</text>
</g>
<!-- util/tsc&#45;compiler.ts&#45;&gt;util/file.ts -->
<g id="edge78" class="edge">
<title>util/tsc&#45;compiler.ts&#45;&gt;util/file.ts</title>
<path fill="none" stroke="#757575" d="M1653.63,-1120.06C1678.53,-1114.67 1707.85,-1108.32 1731.55,-1103.19"/>
<polygon fill="#757575" stroke="#757575" points="1732.3,-1106.61 1741.33,-1101.07 1730.81,-1099.77 1732.3,-1106.61"/>
</g>
</g>
</svg>
