<?xml version="1.0" encoding="UTF-8" standalone="no"?>
<!DOCTYPE svg PUBLIC "-//W3C//DTD SVG 1.1//EN"
 "http://www.w3.org/Graphics/SVG/1.1/DTD/svg11.dtd">
<!-- Generated by graphviz version 2.47.2 (20210527.0053)
 -->
<!-- Title: G Pages: 1 -->
<svg width="2456pt" height="1065pt"
 viewBox="0.00 0.00 2456.20 1064.70" xmlns="http://www.w3.org/2000/svg" xmlns:xlink="http://www.w3.org/1999/xlink">
<g id="graph0" class="graph" transform="scale(1 1) rotate(0) translate(21.6 1043.1)">
<title>G</title>
<polygon fill="#111111" stroke="transparent" points="-21.6,21.6 -21.6,-1043.1 2434.6,-1043.1 2434.6,21.6 -21.6,21.6"/>
<!-- models/battery.ts -->
<g id="node1" class="node">
<title>models/battery.ts</title>
<path fill="none" stroke="#cfffac" d="M1439.83,-321.5C1439.83,-321.5 1330.17,-321.5 1330.17,-321.5 1326.33,-321.5 1322.5,-317.67 1322.5,-313.83 1322.5,-313.83 1322.5,-306.17 1322.5,-306.17 1322.5,-302.33 1326.33,-298.5 1330.17,-298.5 1330.17,-298.5 1439.83,-298.5 1439.83,-298.5 1443.67,-298.5 1447.5,-302.33 1447.5,-306.17 1447.5,-306.17 1447.5,-313.83 1447.5,-313.83 1447.5,-317.67 1443.67,-321.5 1439.83,-321.5"/>
<text text-anchor="middle" x="1385" y="-306.3" font-family="Arial" font-size="14.00" fill="#cfffac">models/battery.ts</text>
</g>
<!-- models/connection&#45;response.ts -->
<g id="node2" class="node">
<title>models/connection&#45;response.ts</title>
<path fill="none" stroke="#cfffac" d="M2405.33,-564.5C2405.33,-564.5 2204.67,-564.5 2204.67,-564.5 2200.83,-564.5 2197,-560.67 2197,-556.83 2197,-556.83 2197,-549.17 2197,-549.17 2197,-545.33 2200.83,-541.5 2204.67,-541.5 2204.67,-541.5 2405.33,-541.5 2405.33,-541.5 2409.17,-541.5 2413,-545.33 2413,-549.17 2413,-549.17 2413,-556.83 2413,-556.83 2413,-560.67 2409.17,-564.5 2405.33,-564.5"/>
<text text-anchor="middle" x="2305" y="-549.3" font-family="Arial" font-size="14.00" fill="#cfffac">models/connection&#45;response.ts</text>
</g>
<!-- models/connection.ts -->
<g id="node3" class="node">
<title>models/connection.ts</title>
<path fill="none" stroke="#c6c5fe" d="M1453.33,-521.5C1453.33,-521.5 1316.67,-521.5 1316.67,-521.5 1312.83,-521.5 1309,-517.67 1309,-513.83 1309,-513.83 1309,-506.17 1309,-506.17 1309,-502.33 1312.83,-498.5 1316.67,-498.5 1316.67,-498.5 1453.33,-498.5 1453.33,-498.5 1457.17,-498.5 1461,-502.33 1461,-506.17 1461,-506.17 1461,-513.83 1461,-513.83 1461,-517.67 1457.17,-521.5 1453.33,-521.5"/>
<text text-anchor="middle" x="1385" y="-506.3" font-family="Arial" font-size="14.00" fill="#c6c5fe">models/connection.ts</text>
</g>
<!-- models/receiver&#45;data.ts -->
<g id="node4" class="node">
<title>models/receiver&#45;data.ts</title>
<path fill="none" stroke="#c6c5fe" d="M1867.83,-524.5C1867.83,-524.5 1718.17,-524.5 1718.17,-524.5 1714.33,-524.5 1710.5,-520.67 1710.5,-516.83 1710.5,-516.83 1710.5,-509.17 1710.5,-509.17 1710.5,-505.33 1714.33,-501.5 1718.17,-501.5 1718.17,-501.5 1867.83,-501.5 1867.83,-501.5 1871.67,-501.5 1875.5,-505.33 1875.5,-509.17 1875.5,-509.17 1875.5,-516.83 1875.5,-516.83 1875.5,-520.67 1871.67,-524.5 1867.83,-524.5"/>
<text text-anchor="middle" x="1793" y="-509.3" font-family="Arial" font-size="14.00" fill="#c6c5fe">models/receiver&#45;data.ts</text>
</g>
<!-- models/connection.ts&#45;&gt;models/receiver&#45;data.ts -->
<g id="edge1" class="edge">
<title>models/connection.ts&#45;&gt;models/receiver&#45;data.ts</title>
<path fill="none" stroke="#757575" d="M1461.41,-510.56C1528.84,-511.06 1627.86,-511.79 1699.94,-512.32"/>
<polygon fill="#757575" stroke="#757575" points="1700.34,-515.82 1710.37,-512.4 1700.4,-508.82 1700.34,-515.82"/>
</g>
<!-- models/receiver.ts -->
<g id="node5" class="node">
<title>models/receiver.ts</title>
<path fill="none" stroke="#c6c5fe" d="M1633.83,-604.5C1633.83,-604.5 1515.17,-604.5 1515.17,-604.5 1511.33,-604.5 1507.5,-600.67 1507.5,-596.83 1507.5,-596.83 1507.5,-589.17 1507.5,-589.17 1507.5,-585.33 1511.33,-581.5 1515.17,-581.5 1515.17,-581.5 1633.83,-581.5 1633.83,-581.5 1637.67,-581.5 1641.5,-585.33 1641.5,-589.17 1641.5,-589.17 1641.5,-596.83 1641.5,-596.83 1641.5,-600.67 1637.67,-604.5 1633.83,-604.5"/>
<text text-anchor="middle" x="1574.5" y="-589.3" font-family="Arial" font-size="14.00" fill="#c6c5fe">models/receiver.ts</text>
</g>
<!-- models/connection.ts&#45;&gt;models/receiver.ts -->
<g id="edge2" class="edge">
<title>models/connection.ts&#45;&gt;models/receiver.ts</title>
<path fill="none" stroke="#757575" d="M1412.07,-521.54C1444.86,-536.06 1501.31,-561.04 1538.01,-577.29"/>
<polygon fill="#757575" stroke="#757575" points="1536.79,-580.58 1547.35,-581.42 1539.62,-574.18 1536.79,-580.58"/>
</g>
<!-- models/transformation.ts -->
<g id="node6" class="node">
<title>models/transformation.ts</title>
<path fill="none" stroke="#cfffac" d="M1871.83,-145.5C1871.83,-145.5 1714.17,-145.5 1714.17,-145.5 1710.33,-145.5 1706.5,-141.67 1706.5,-137.83 1706.5,-137.83 1706.5,-130.17 1706.5,-130.17 1706.5,-126.33 1710.33,-122.5 1714.17,-122.5 1714.17,-122.5 1871.83,-122.5 1871.83,-122.5 1875.67,-122.5 1879.5,-126.33 1879.5,-130.17 1879.5,-130.17 1879.5,-137.83 1879.5,-137.83 1879.5,-141.67 1875.67,-145.5 1871.83,-145.5"/>
<text text-anchor="middle" x="1793" y="-130.3" font-family="Arial" font-size="14.00" fill="#cfffac">models/transformation.ts</text>
</g>
<!-- models/connection.ts&#45;&gt;models/transformation.ts -->
<g id="edge3" class="edge">
<title>models/connection.ts&#45;&gt;models/transformation.ts</title>
<path fill="none" stroke="#757575" d="M1398.6,-498.33C1456.85,-444.39 1700.33,-218.89 1772.05,-152.48"/>
<polygon fill="#757575" stroke="#757575" points="1774.59,-154.89 1779.55,-145.53 1769.84,-149.76 1774.59,-154.89"/>
</g>
<!-- models/transformer.ts -->
<g id="node7" class="node">
<title>models/transformer.ts</title>
<path fill="none" stroke="#c6c5fe" d="M1644.33,-185.5C1644.33,-185.5 1504.67,-185.5 1504.67,-185.5 1500.83,-185.5 1497,-181.67 1497,-177.83 1497,-177.83 1497,-170.17 1497,-170.17 1497,-166.33 1500.83,-162.5 1504.67,-162.5 1504.67,-162.5 1644.33,-162.5 1644.33,-162.5 1648.17,-162.5 1652,-166.33 1652,-170.17 1652,-170.17 1652,-177.83 1652,-177.83 1652,-181.67 1648.17,-185.5 1644.33,-185.5"/>
<text text-anchor="middle" x="1574.5" y="-170.3" font-family="Arial" font-size="14.00" fill="#c6c5fe">models/transformer.ts</text>
</g>
<!-- models/connection.ts&#45;&gt;models/transformer.ts -->
<g id="edge4" class="edge">
<title>models/connection.ts&#45;&gt;models/transformer.ts</title>
<path fill="none" stroke="#757575" d="M1393.85,-498.28C1409.07,-475.02 1442.7,-420.95 1461,-371 1487.72,-298.07 1445.48,-258.12 1497,-200 1500.12,-196.48 1503.74,-193.44 1507.66,-190.8"/>
<polygon fill="#757575" stroke="#757575" points="1509.72,-193.66 1516.69,-185.68 1506.26,-187.57 1509.72,-193.66"/>
</g>
<!-- models/receiver&#45;data.ts&#45;&gt;models/connection&#45;response.ts -->
<g id="edge8" class="edge">
<title>models/receiver&#45;data.ts&#45;&gt;models/connection&#45;response.ts</title>
<path fill="none" stroke="#757575" d="M1875.79,-515.03C1950.28,-517.4 2063.23,-522.31 2161,-532 2181.71,-534.05 2204.01,-536.98 2224.69,-540"/>
<polygon fill="#757575" stroke="#757575" points="2224.3,-543.48 2234.7,-541.48 2225.32,-536.55 2224.3,-543.48"/>
</g>
<!-- models/evaluated&#45;data.ts -->
<g id="node8" class="node">
<title>models/evaluated&#45;data.ts</title>
<path fill="none" stroke="#c6c5fe" d="M2127.33,-564.5C2127.33,-564.5 1967.67,-564.5 1967.67,-564.5 1963.83,-564.5 1960,-560.67 1960,-556.83 1960,-556.83 1960,-549.17 1960,-549.17 1960,-545.33 1963.83,-541.5 1967.67,-541.5 1967.67,-541.5 2127.33,-541.5 2127.33,-541.5 2131.17,-541.5 2135,-545.33 2135,-549.17 2135,-549.17 2135,-556.83 2135,-556.83 2135,-560.67 2131.17,-564.5 2127.33,-564.5"/>
<text text-anchor="middle" x="2047.5" y="-549.3" font-family="Arial" font-size="14.00" fill="#c6c5fe">models/evaluated&#45;data.ts</text>
</g>
<!-- models/receiver&#45;data.ts&#45;&gt;models/evaluated&#45;data.ts -->
<g id="edge9" class="edge">
<title>models/receiver&#45;data.ts&#45;&gt;models/evaluated&#45;data.ts</title>
<path fill="none" stroke="#757575" d="M1866.69,-524.52C1897.06,-529.33 1932.51,-534.94 1963.86,-539.91"/>
<polygon fill="#757575" stroke="#757575" points="1963.46,-543.39 1973.88,-541.5 1964.55,-536.47 1963.46,-543.39"/>
</g>
<!-- models/sound.ts -->
<g id="node13" class="node">
<title>models/sound.ts</title>
<path fill="none" stroke="#cfffac" d="M2100.83,-343.5C2100.83,-343.5 1994.17,-343.5 1994.17,-343.5 1990.33,-343.5 1986.5,-339.67 1986.5,-335.83 1986.5,-335.83 1986.5,-328.17 1986.5,-328.17 1986.5,-324.33 1990.33,-320.5 1994.17,-320.5 1994.17,-320.5 2100.83,-320.5 2100.83,-320.5 2104.67,-320.5 2108.5,-324.33 2108.5,-328.17 2108.5,-328.17 2108.5,-335.83 2108.5,-335.83 2108.5,-339.67 2104.67,-343.5 2100.83,-343.5"/>
<text text-anchor="middle" x="2047.5" y="-328.3" font-family="Arial" font-size="14.00" fill="#cfffac">models/sound.ts</text>
</g>
<!-- models/receiver&#45;data.ts&#45;&gt;models/sound.ts -->
<g id="edge10" class="edge">
<title>models/receiver&#45;data.ts&#45;&gt;models/sound.ts</title>
<path fill="none" stroke="#757575" d="M1818.09,-501.39C1840.11,-490.17 1872.95,-471.84 1898,-451 1916.64,-435.49 1915.9,-426.14 1934,-410 1960.46,-386.4 1994.29,-363.82 2017.91,-349.08"/>
<polygon fill="#757575" stroke="#757575" points="2020.06,-351.87 2026.74,-343.64 2016.39,-345.91 2020.06,-351.87"/>
</g>
<!-- util/types.d.ts -->
<g id="node14" class="node">
<title>util/types.d.ts</title>
<path fill="none" stroke="#cfffac" d="M2089.33,-484.5C2089.33,-484.5 2005.67,-484.5 2005.67,-484.5 2001.83,-484.5 1998,-480.67 1998,-476.83 1998,-476.83 1998,-469.17 1998,-469.17 1998,-465.33 2001.83,-461.5 2005.67,-461.5 2005.67,-461.5 2089.33,-461.5 2089.33,-461.5 2093.17,-461.5 2097,-465.33 2097,-469.17 2097,-469.17 2097,-476.83 2097,-476.83 2097,-480.67 2093.17,-484.5 2089.33,-484.5"/>
<text text-anchor="middle" x="2047.5" y="-469.3" font-family="Arial" font-size="14.00" fill="#cfffac">util/types.d.ts</text>
</g>
<!-- models/receiver&#45;data.ts&#45;&gt;util/types.d.ts -->
<g id="edge11" class="edge">
<title>models/receiver&#45;data.ts&#45;&gt;util/types.d.ts</title>
<path fill="none" stroke="#757575" d="M1866.69,-501.48C1905.18,-495.39 1951.82,-488 1987.95,-482.28"/>
<polygon fill="#757575" stroke="#757575" points="1988.52,-485.73 1997.85,-480.71 1987.42,-478.82 1988.52,-485.73"/>
</g>
<!-- models/receiver.ts&#45;&gt;models/receiver&#45;data.ts -->
<g id="edge13" class="edge">
<title>models/receiver.ts&#45;&gt;models/receiver&#45;data.ts</title>
<path fill="none" stroke="#757575" d="M1617.39,-581.41C1628.91,-577.52 1641.21,-572.7 1652,-567 1669.69,-557.67 1669.98,-548.68 1688,-540 1698.4,-534.99 1709.85,-530.83 1721.23,-527.39"/>
<polygon fill="#757575" stroke="#757575" points="1722.53,-530.66 1731.19,-524.56 1720.61,-523.93 1722.53,-530.66"/>
</g>
<!-- models/receiver.ts&#45;&gt;models/evaluated&#45;data.ts -->
<g id="edge12" class="edge">
<title>models/receiver.ts&#45;&gt;models/evaluated&#45;data.ts</title>
<path fill="none" stroke="#757575" d="M1641.98,-587.35C1722.27,-580.54 1857.96,-569.01 1949.82,-561.21"/>
<polygon fill="#757575" stroke="#757575" points="1950.3,-564.68 1959.96,-560.35 1949.7,-557.71 1950.3,-564.68"/>
</g>
<!-- services/firebasemessaging.ts -->
<g id="node15" class="node">
<title>services/firebasemessaging.ts</title>
<path fill="none" stroke="#cfffac" d="M1890.33,-644.5C1890.33,-644.5 1695.67,-644.5 1695.67,-644.5 1691.83,-644.5 1688,-640.67 1688,-636.83 1688,-636.83 1688,-629.17 1688,-629.17 1688,-625.33 1691.83,-621.5 1695.67,-621.5 1695.67,-621.5 1890.33,-621.5 1890.33,-621.5 1894.17,-621.5 1898,-625.33 1898,-629.17 1898,-629.17 1898,-636.83 1898,-636.83 1898,-640.67 1894.17,-644.5 1890.33,-644.5"/>
<text text-anchor="middle" x="1793" y="-629.3" font-family="Arial" font-size="14.00" fill="#cfffac">services/firebasemessaging.ts</text>
</g>
<!-- models/receiver.ts&#45;&gt;services/firebasemessaging.ts -->
<g id="edge14" class="edge">
<title>models/receiver.ts&#45;&gt;services/firebasemessaging.ts</title>
<path fill="none" stroke="#757575" d="M1637.83,-604.52C1663.42,-609.24 1693.21,-614.75 1719.74,-619.65"/>
<polygon fill="#757575" stroke="#757575" points="1719.27,-623.12 1729.73,-621.5 1720.54,-616.24 1719.27,-623.12"/>
</g>
<!-- services/websocketmessaging.ts -->
<g id="node16" class="node">
<title>services/websocketmessaging.ts</title>
<path fill="none" stroke="#c6c5fe" d="M2153.33,-605.5C2153.33,-605.5 1941.67,-605.5 1941.67,-605.5 1937.83,-605.5 1934,-601.67 1934,-597.83 1934,-597.83 1934,-590.17 1934,-590.17 1934,-586.33 1937.83,-582.5 1941.67,-582.5 1941.67,-582.5 2153.33,-582.5 2153.33,-582.5 2157.17,-582.5 2161,-586.33 2161,-590.17 2161,-590.17 2161,-597.83 2161,-597.83 2161,-601.67 2157.17,-605.5 2153.33,-605.5"/>
<text text-anchor="middle" x="2047.5" y="-590.3" font-family="Arial" font-size="14.00" fill="#c6c5fe">services/websocketmessaging.ts</text>
</g>
<!-- models/receiver.ts&#45;&gt;services/websocketmessaging.ts -->
<g id="edge15" class="edge">
<title>models/receiver.ts&#45;&gt;services/websocketmessaging.ts</title>
<path fill="none" stroke="#757575" d="M1641.98,-593.14C1714.87,-593.3 1833.4,-593.55 1923.36,-593.74"/>
<polygon fill="#757575" stroke="#757575" points="1923.62,-597.24 1933.63,-593.76 1923.64,-590.24 1923.62,-597.24"/>
</g>
<!-- util/log.ts -->
<g id="node17" class="node">
<title>util/log.ts</title>
<path fill="none" stroke="#c6c5fe" d="M1821.33,-442.5C1821.33,-442.5 1764.67,-442.5 1764.67,-442.5 1760.83,-442.5 1757,-438.67 1757,-434.83 1757,-434.83 1757,-427.17 1757,-427.17 1757,-423.33 1760.83,-419.5 1764.67,-419.5 1764.67,-419.5 1821.33,-419.5 1821.33,-419.5 1825.17,-419.5 1829,-423.33 1829,-427.17 1829,-427.17 1829,-434.83 1829,-434.83 1829,-438.67 1825.17,-442.5 1821.33,-442.5"/>
<text text-anchor="middle" x="1793" y="-427.3" font-family="Arial" font-size="14.00" fill="#c6c5fe">util/log.ts</text>
</g>
<!-- models/receiver.ts&#45;&gt;util/log.ts -->
<g id="edge16" class="edge">
<title>models/receiver.ts&#45;&gt;util/log.ts</title>
<path fill="none" stroke="#757575" d="M1627.92,-581.44C1636.63,-577.85 1645.07,-573.14 1652,-567 1679.66,-542.47 1662.96,-519.21 1688,-492 1706.03,-472.41 1731.81,-457.23 1753.19,-446.91"/>
<polygon fill="#757575" stroke="#757575" points="1754.77,-450.04 1762.36,-442.65 1751.82,-443.69 1754.77,-450.04"/>
</g>
<!-- models/transformer.ts&#45;&gt;models/connection&#45;response.ts -->
<g id="edge24" class="edge">
<title>models/transformer.ts&#45;&gt;models/connection&#45;response.ts</title>
<path fill="none" stroke="#757575" d="M1652.08,-173.2C1791.9,-173.21 2081.49,-180.42 2161,-238 2261.99,-311.14 2293.23,-472.83 2301.43,-531.34"/>
<polygon fill="#757575" stroke="#757575" points="2297.97,-531.85 2302.74,-541.31 2304.91,-530.94 2297.97,-531.85"/>
</g>
<!-- models/transformer.ts&#45;&gt;models/transformation.ts -->
<g id="edge25" class="edge">
<title>models/transformer.ts&#45;&gt;models/transformation.ts</title>
<path fill="none" stroke="#757575" d="M1637.83,-162.48C1663.42,-157.76 1693.21,-152.25 1719.74,-147.35"/>
<polygon fill="#757575" stroke="#757575" points="1720.54,-150.76 1729.73,-145.5 1719.27,-143.88 1720.54,-150.76"/>
</g>
<!-- models/evaluated&#45;data.ts&#45;&gt;models/connection&#45;response.ts -->
<g id="edge5" class="edge">
<title>models/evaluated&#45;data.ts&#45;&gt;models/connection&#45;response.ts</title>
<path fill="none" stroke="#757575" d="M2135,-553C2151.58,-553 2169.2,-553 2186.56,-553"/>
<polygon fill="#757575" stroke="#757575" points="2186.74,-556.5 2196.74,-553 2186.74,-549.5 2186.74,-556.5"/>
</g>
<!-- models/event.ts -->
<g id="node9" class="node">
<title>models/event.ts</title>
<path fill="none" stroke="#cfffac" d="M1435.83,-127.5C1435.83,-127.5 1334.17,-127.5 1334.17,-127.5 1330.33,-127.5 1326.5,-123.67 1326.5,-119.83 1326.5,-119.83 1326.5,-112.17 1326.5,-112.17 1326.5,-108.33 1330.33,-104.5 1334.17,-104.5 1334.17,-104.5 1435.83,-104.5 1435.83,-104.5 1439.67,-104.5 1443.5,-108.33 1443.5,-112.17 1443.5,-112.17 1443.5,-119.83 1443.5,-119.83 1443.5,-123.67 1439.67,-127.5 1435.83,-127.5"/>
<text text-anchor="middle" x="1385" y="-112.3" font-family="Arial" font-size="14.00" fill="#cfffac">models/event.ts</text>
</g>
<!-- models/inventory/item.ts -->
<g id="node10" class="node">
<title>models/inventory/item.ts</title>
<path fill="none" stroke="#c6c5fe" d="M433.33,-908.5C433.33,-908.5 278.67,-908.5 278.67,-908.5 274.83,-908.5 271,-904.67 271,-900.83 271,-900.83 271,-893.17 271,-893.17 271,-889.33 274.83,-885.5 278.67,-885.5 278.67,-885.5 433.33,-885.5 433.33,-885.5 437.17,-885.5 441,-889.33 441,-893.17 441,-893.17 441,-900.83 441,-900.83 441,-904.67 437.17,-908.5 433.33,-908.5"/>
<text text-anchor="middle" x="356" y="-893.3" font-family="Arial" font-size="14.00" fill="#c6c5fe">models/inventory/item.ts</text>
</g>
<!-- models/inventory/location.ts -->
<g id="node11" class="node">
<title>models/inventory/location.ts</title>
<path fill="none" stroke="#cfffac" d="M704.33,-909.5C704.33,-909.5 528.67,-909.5 528.67,-909.5 524.83,-909.5 521,-905.67 521,-901.83 521,-901.83 521,-894.17 521,-894.17 521,-890.33 524.83,-886.5 528.67,-886.5 528.67,-886.5 704.33,-886.5 704.33,-886.5 708.17,-886.5 712,-890.33 712,-894.17 712,-894.17 712,-901.83 712,-901.83 712,-905.67 708.17,-909.5 704.33,-909.5"/>
<text text-anchor="middle" x="616.5" y="-894.3" font-family="Arial" font-size="14.00" fill="#cfffac">models/inventory/location.ts</text>
</g>
<!-- models/inventory/item.ts&#45;&gt;models/inventory/location.ts -->
<g id="edge6" class="edge">
<title>models/inventory/item.ts&#45;&gt;models/inventory/location.ts</title>
<path fill="none" stroke="#757575" d="M441.28,-897.33C463.36,-897.41 487.43,-897.5 510.45,-897.59"/>
<polygon fill="#757575" stroke="#757575" points="510.57,-901.09 520.58,-897.63 510.6,-894.09 510.57,-901.09"/>
</g>
<!-- models/inventory/order.ts -->
<g id="node12" class="node">
<title>models/inventory/order.ts</title>
<path fill="none" stroke="#cfffac" d="M696.83,-868.5C696.83,-868.5 536.17,-868.5 536.17,-868.5 532.33,-868.5 528.5,-864.67 528.5,-860.83 528.5,-860.83 528.5,-853.17 528.5,-853.17 528.5,-849.33 532.33,-845.5 536.17,-845.5 536.17,-845.5 696.83,-845.5 696.83,-845.5 700.67,-845.5 704.5,-849.33 704.5,-853.17 704.5,-853.17 704.5,-860.83 704.5,-860.83 704.5,-864.67 700.67,-868.5 696.83,-868.5"/>
<text text-anchor="middle" x="616.5" y="-853.3" font-family="Arial" font-size="14.00" fill="#cfffac">models/inventory/order.ts</text>
</g>
<!-- models/inventory/item.ts&#45;&gt;models/inventory/order.ts -->
<g id="edge7" class="edge">
<title>models/inventory/item.ts&#45;&gt;models/inventory/order.ts</title>
<path fill="none" stroke="#757575" d="M431.42,-885.48C462.51,-880.67 498.8,-875.06 530.89,-870.09"/>
<polygon fill="#757575" stroke="#757575" points="531.81,-873.49 541.16,-868.5 530.74,-866.57 531.81,-873.49"/>
</g>
<!-- services/websocketmessaging.ts&#45;&gt;models/connection&#45;response.ts -->
<g id="edge71" class="edge">
<title>services/websocketmessaging.ts&#45;&gt;models/connection&#45;response.ts</title>
<path fill="none" stroke="#757575" d="M2120.35,-582.47C2152.05,-577.38 2189.47,-571.38 2222.24,-566.12"/>
<polygon fill="#757575" stroke="#757575" points="2222.93,-569.55 2232.25,-564.51 2221.82,-562.64 2222.93,-569.55"/>
</g>
<!-- util/btoaatob.ts -->
<g id="node39" class="node">
<title>util/btoaatob.ts</title>
<path fill="none" stroke="#cfffac" d="M2093.83,-442.5C2093.83,-442.5 2001.17,-442.5 2001.17,-442.5 1997.33,-442.5 1993.5,-438.67 1993.5,-434.83 1993.5,-434.83 1993.5,-427.17 1993.5,-427.17 1993.5,-423.33 1997.33,-419.5 2001.17,-419.5 2001.17,-419.5 2093.83,-419.5 2093.83,-419.5 2097.67,-419.5 2101.5,-423.33 2101.5,-427.17 2101.5,-427.17 2101.5,-434.83 2101.5,-434.83 2101.5,-438.67 2097.67,-442.5 2093.83,-442.5"/>
<text text-anchor="middle" x="2047.5" y="-427.3" font-family="Arial" font-size="14.00" fill="#cfffac">util/btoaatob.ts</text>
</g>
<!-- util/log.ts&#45;&gt;util/btoaatob.ts -->
<g id="edge72" class="edge">
<title>util/log.ts&#45;&gt;util/btoaatob.ts</title>
<path fill="none" stroke="#757575" d="M1829.11,-431C1868.83,-431 1934.33,-431 1983.07,-431"/>
<polygon fill="#757575" stroke="#757575" points="1983.2,-434.5 1993.2,-431 1983.2,-427.5 1983.2,-434.5"/>
</g>
<!-- models/sender.ts -->
<g id="node18" class="node">
<title>models/sender.ts</title>
<path fill="none" stroke="#c6c5fe" d="M1214.83,-206.5C1214.83,-206.5 1103.17,-206.5 1103.17,-206.5 1099.33,-206.5 1095.5,-202.67 1095.5,-198.83 1095.5,-198.83 1095.5,-191.17 1095.5,-191.17 1095.5,-187.33 1099.33,-183.5 1103.17,-183.5 1103.17,-183.5 1214.83,-183.5 1214.83,-183.5 1218.67,-183.5 1222.5,-187.33 1222.5,-191.17 1222.5,-191.17 1222.5,-198.83 1222.5,-198.83 1222.5,-202.67 1218.67,-206.5 1214.83,-206.5"/>
<text text-anchor="middle" x="1159" y="-191.3" font-family="Arial" font-size="14.00" fill="#c6c5fe">models/sender.ts</text>
</g>
<!-- models/sender.ts&#45;&gt;models/battery.ts -->
<g id="edge17" class="edge">
<title>models/sender.ts&#45;&gt;models/battery.ts</title>
<path fill="none" stroke="#757575" d="M1222.58,-199.99C1240.17,-203.78 1258.46,-210.2 1273,-221 1298.89,-240.23 1284.18,-263.41 1309,-284 1313.8,-287.99 1319.25,-291.37 1324.97,-294.25"/>
<polygon fill="#757575" stroke="#757575" points="1323.57,-297.46 1334.12,-298.37 1326.44,-291.07 1323.57,-297.46"/>
</g>
<!-- models/sender.ts&#45;&gt;models/connection&#45;response.ts -->
<g id="edge18" class="edge">
<title>models/sender.ts&#45;&gt;models/connection&#45;response.ts</title>
<path fill="none" stroke="#757575" d="M1222.74,-199.03C1429.7,-212.77 2082.15,-259.76 2161,-311 2243.17,-364.4 2284.42,-482.93 2298.38,-531.55"/>
<polygon fill="#757575" stroke="#757575" points="2295.05,-532.62 2301.09,-541.33 2301.8,-530.76 2295.05,-532.62"/>
</g>
<!-- models/sender.ts&#45;&gt;models/connection.ts -->
<g id="edge19" class="edge">
<title>models/sender.ts&#45;&gt;models/connection.ts</title>
<path fill="none" stroke="#757575" d="M1198.79,-206.59C1223.28,-215.77 1253.82,-230.95 1273,-254 1307.8,-295.82 1287.98,-320.82 1309,-371 1327.4,-414.92 1355.35,-463.22 1371.43,-489.75"/>
<polygon fill="#757575" stroke="#757575" points="1368.57,-491.78 1376.77,-498.49 1374.54,-488.13 1368.57,-491.78"/>
</g>
<!-- models/sender.ts&#45;&gt;models/transformation.ts -->
<g id="edge21" class="edge">
<title>models/sender.ts&#45;&gt;models/transformation.ts</title>
<path fill="none" stroke="#757575" d="M1222.61,-186.06C1290.18,-176.68 1401.03,-162.06 1497,-153 1563.4,-146.73 1638.4,-141.93 1696.16,-138.72"/>
<polygon fill="#757575" stroke="#757575" points="1696.58,-142.21 1706.37,-138.16 1696.19,-135.22 1696.58,-142.21"/>
</g>
<!-- models/sender.ts&#45;&gt;models/transformer.ts -->
<g id="edge22" class="edge">
<title>models/sender.ts&#45;&gt;models/transformer.ts</title>
<path fill="none" stroke="#757575" d="M1222.8,-191.81C1293.07,-188.24 1407.39,-182.44 1486.3,-178.43"/>
<polygon fill="#757575" stroke="#757575" points="1486.9,-181.9 1496.71,-177.9 1486.55,-174.91 1486.9,-181.9"/>
</g>
<!-- models/sender.ts&#45;&gt;models/event.ts -->
<g id="edge20" class="edge">
<title>models/sender.ts&#45;&gt;models/event.ts</title>
<path fill="none" stroke="#757575" d="M1192.24,-183.45C1222.4,-172.66 1268.72,-156.15 1309,-142 1319.25,-138.4 1330.29,-134.55 1340.68,-130.95"/>
<polygon fill="#757575" stroke="#757575" points="1342.08,-134.17 1350.38,-127.59 1339.78,-127.56 1342.08,-134.17"/>
</g>
<!-- models/sender.ts&#45;&gt;util/log.ts -->
<g id="edge23" class="edge">
<title>models/sender.ts&#45;&gt;util/log.ts</title>
<path fill="none" stroke="#757575" d="M1222.66,-204.97C1239.43,-208.82 1257.26,-214.04 1273,-221 1290.81,-228.88 1291.39,-237.68 1309,-246 1372.48,-275.99 1394.82,-265.56 1461,-289 1572.39,-328.46 1699.7,-387.04 1758.72,-415.01"/>
<polygon fill="#757575" stroke="#757575" points="1757.4,-418.26 1767.93,-419.39 1760.4,-411.94 1757.4,-418.26"/>
</g>
<!-- models/test.ts -->
<g id="node19" class="node">
<title>models/test.ts</title>
<path fill="none" stroke="#cfffac" d="M149.33,-939.5C149.33,-939.5 58.67,-939.5 58.67,-939.5 54.83,-939.5 51,-935.67 51,-931.83 51,-931.83 51,-924.17 51,-924.17 51,-920.33 54.83,-916.5 58.67,-916.5 58.67,-916.5 149.33,-916.5 149.33,-916.5 153.17,-916.5 157,-920.33 157,-924.17 157,-924.17 157,-931.83 157,-931.83 157,-935.67 153.17,-939.5 149.33,-939.5"/>
<text text-anchor="middle" x="104" y="-924.3" font-family="Arial" font-size="14.00" fill="#cfffac">models/test.ts</text>
</g>
<!-- models/timer.ts -->
<g id="node20" class="node">
<title>models/timer.ts</title>
<path fill="none" stroke="#cfffac" d="M1208.33,-484.5C1208.33,-484.5 1109.67,-484.5 1109.67,-484.5 1105.83,-484.5 1102,-480.67 1102,-476.83 1102,-476.83 1102,-469.17 1102,-469.17 1102,-465.33 1105.83,-461.5 1109.67,-461.5 1109.67,-461.5 1208.33,-461.5 1208.33,-461.5 1212.17,-461.5 1216,-465.33 1216,-469.17 1216,-469.17 1216,-476.83 1216,-476.83 1216,-480.67 1212.17,-484.5 1208.33,-484.5"/>
<text text-anchor="middle" x="1159" y="-469.3" font-family="Arial" font-size="14.00" fill="#cfffac">models/timer.ts</text>
</g>
<!-- node&#45;red/glboal&#45;script.ts -->
<g id="node21" class="node">
<title>node&#45;red/glboal&#45;script.ts</title>
<path fill="none" stroke="#c6c5fe" d="M964.33,-970.5C964.33,-970.5 809.67,-970.5 809.67,-970.5 805.83,-970.5 802,-966.67 802,-962.83 802,-962.83 802,-955.17 802,-955.17 802,-951.33 805.83,-947.5 809.67,-947.5 809.67,-947.5 964.33,-947.5 964.33,-947.5 968.17,-947.5 972,-951.33 972,-955.17 972,-955.17 972,-962.83 972,-962.83 972,-966.67 968.17,-970.5 964.33,-970.5"/>
<text text-anchor="middle" x="887" y="-955.3" font-family="Arial" font-size="14.00" fill="#c6c5fe">node&#45;red/glboal&#45;script.ts</text>
</g>
<!-- node&#45;red/red&#45;ui.d.ts -->
<g id="node22" class="node">
<title>node&#45;red/red&#45;ui.d.ts</title>
<path fill="none" stroke="#cfffac" d="M1221.83,-970.5C1221.83,-970.5 1096.17,-970.5 1096.17,-970.5 1092.33,-970.5 1088.5,-966.67 1088.5,-962.83 1088.5,-962.83 1088.5,-955.17 1088.5,-955.17 1088.5,-951.33 1092.33,-947.5 1096.17,-947.5 1096.17,-947.5 1221.83,-947.5 1221.83,-947.5 1225.67,-947.5 1229.5,-951.33 1229.5,-955.17 1229.5,-955.17 1229.5,-962.83 1229.5,-962.83 1229.5,-966.67 1225.67,-970.5 1221.83,-970.5"/>
<text text-anchor="middle" x="1159" y="-955.3" font-family="Arial" font-size="14.00" fill="#cfffac">node&#45;red/red&#45;ui.d.ts</text>
</g>
<!-- node&#45;red/glboal&#45;script.ts&#45;&gt;node&#45;red/red&#45;ui.d.ts -->
<g id="edge26" class="edge">
<title>node&#45;red/glboal&#45;script.ts&#45;&gt;node&#45;red/red&#45;ui.d.ts</title>
<path fill="none" stroke="#757575" d="M972.32,-959C1006.11,-959 1044.86,-959 1078.19,-959"/>
<polygon fill="#757575" stroke="#757575" points="1078.35,-962.5 1088.35,-959 1078.35,-955.5 1078.35,-962.5"/>
</g>
<!-- node&#45;red/node&#45;red&#45;registration.ts -->
<g id="node23" class="node">
<title>node&#45;red/node&#45;red&#45;registration.ts</title>
<path fill="none" stroke="#c6c5fe" d="M721.33,-970.5C721.33,-970.5 511.67,-970.5 511.67,-970.5 507.83,-970.5 504,-966.67 504,-962.83 504,-962.83 504,-955.17 504,-955.17 504,-951.33 507.83,-947.5 511.67,-947.5 511.67,-947.5 721.33,-947.5 721.33,-947.5 725.17,-947.5 729,-951.33 729,-955.17 729,-955.17 729,-962.83 729,-962.83 729,-966.67 725.17,-970.5 721.33,-970.5"/>
<text text-anchor="middle" x="616.5" y="-955.3" font-family="Arial" font-size="14.00" fill="#c6c5fe">node&#45;red/node&#45;red&#45;registration.ts</text>
</g>
<!-- node&#45;red/node&#45;red&#45;registration.ts&#45;&gt;node&#45;red/glboal&#45;script.ts -->
<g id="edge27" class="edge">
<title>node&#45;red/node&#45;red&#45;registration.ts&#45;&gt;node&#45;red/glboal&#45;script.ts</title>
<path fill="none" stroke="#757575" d="M729.04,-959C749.87,-959 771.45,-959 791.7,-959"/>
<polygon fill="#757575" stroke="#757575" points="791.83,-962.5 801.83,-959 791.83,-955.5 791.83,-962.5"/>
</g>
<!-- node&#45;red/node&#45;red&#45;registration.ts&#45;&gt;node&#45;red/red&#45;ui.d.ts -->
<g id="edge28" class="edge">
<title>node&#45;red/node&#45;red&#45;registration.ts&#45;&gt;node&#45;red/red&#45;ui.d.ts</title>
<path fill="none" stroke="#757575" d="M684.1,-947.48C709.36,-943.65 738.42,-939.88 765,-938 873.17,-930.34 900.82,-930.41 1009,-938 1032.38,-939.64 1057.68,-942.71 1080.67,-946.01"/>
<polygon fill="#757575" stroke="#757575" points="1080.31,-949.49 1090.71,-947.48 1081.33,-942.56 1080.31,-949.49"/>
</g>
<!-- node&#45;red/register&#45;custom&#45;type.ts -->
<g id="node24" class="node">
<title>node&#45;red/register&#45;custom&#45;type.ts</title>
<path fill="none" stroke="#c6c5fe" d="M460.33,-980.5C460.33,-980.5 251.67,-980.5 251.67,-980.5 247.83,-980.5 244,-976.67 244,-972.83 244,-972.83 244,-965.17 244,-965.17 244,-961.33 247.83,-957.5 251.67,-957.5 251.67,-957.5 460.33,-957.5 460.33,-957.5 464.17,-957.5 468,-961.33 468,-965.17 468,-965.17 468,-972.83 468,-972.83 468,-976.67 464.17,-980.5 460.33,-980.5"/>
<text text-anchor="middle" x="356" y="-965.3" font-family="Arial" font-size="14.00" fill="#c6c5fe">node&#45;red/register&#45;custom&#45;type.ts</text>
</g>
<!-- node&#45;red/register&#45;custom&#45;type.ts&#45;&gt;node&#45;red/red&#45;ui.d.ts -->
<g id="edge30" class="edge">
<title>node&#45;red/register&#45;custom&#45;type.ts&#45;&gt;node&#45;red/red&#45;ui.d.ts</title>
<path fill="none" stroke="#757575" d="M468.13,-977.36C480.23,-978.03 492.37,-978.6 504,-979 728.32,-986.62 785.05,-993.96 1009,-979 1031.58,-977.49 1055.96,-974.71 1078.33,-971.69"/>
<polygon fill="#757575" stroke="#757575" points="1079.03,-975.13 1088.46,-970.29 1078.07,-968.19 1079.03,-975.13"/>
</g>
<!-- node&#45;red/register&#45;custom&#45;type.ts&#45;&gt;node&#45;red/node&#45;red&#45;registration.ts -->
<g id="edge29" class="edge">
<title>node&#45;red/register&#45;custom&#45;type.ts&#45;&gt;node&#45;red/node&#45;red&#45;registration.ts</title>
<path fill="none" stroke="#757575" d="M468.13,-964.7C476.49,-964.38 484.96,-964.05 493.39,-963.72"/>
<polygon fill="#757575" stroke="#757575" points="493.79,-967.21 503.65,-963.33 493.52,-960.22 493.79,-967.21"/>
</g>
<!-- node&#45;red/server.ts -->
<g id="node25" class="node">
<title>node&#45;red/server.ts</title>
<path fill="none" stroke="#c6c5fe" d="M162.83,-980.5C162.83,-980.5 45.17,-980.5 45.17,-980.5 41.33,-980.5 37.5,-976.67 37.5,-972.83 37.5,-972.83 37.5,-965.17 37.5,-965.17 37.5,-961.33 41.33,-957.5 45.17,-957.5 45.17,-957.5 162.83,-957.5 162.83,-957.5 166.67,-957.5 170.5,-961.33 170.5,-965.17 170.5,-965.17 170.5,-972.83 170.5,-972.83 170.5,-976.67 166.67,-980.5 162.83,-980.5"/>
<text text-anchor="middle" x="104" y="-965.3" font-family="Arial" font-size="14.00" fill="#c6c5fe">node&#45;red/server.ts</text>
</g>
<!-- node&#45;red/server.ts&#45;&gt;node&#45;red/register&#45;custom&#45;type.ts -->
<g id="edge31" class="edge">
<title>node&#45;red/server.ts&#45;&gt;node&#45;red/register&#45;custom&#45;type.ts</title>
<path fill="none" stroke="#757575" d="M170.68,-969C190.04,-969 211.87,-969 233.56,-969"/>
<polygon fill="#757575" stroke="#757575" points="233.84,-972.5 243.84,-969 233.84,-965.5 233.84,-972.5"/>
</g>
<!-- resources/connection.r.ts -->
<g id="node26" class="node">
<title>resources/connection.r.ts</title>
<path fill="none" stroke="#c6c5fe" d="M436.33,-504.5C436.33,-504.5 275.67,-504.5 275.67,-504.5 271.83,-504.5 268,-500.67 268,-496.83 268,-496.83 268,-489.17 268,-489.17 268,-485.33 271.83,-481.5 275.67,-481.5 275.67,-481.5 436.33,-481.5 436.33,-481.5 440.17,-481.5 444,-485.33 444,-489.17 444,-489.17 444,-496.83 444,-496.83 444,-500.67 440.17,-504.5 436.33,-504.5"/>
<text text-anchor="middle" x="356" y="-489.3" font-family="Arial" font-size="14.00" fill="#c6c5fe">resources/connection.r.ts</text>
</g>
<!-- resources/connection.r.ts&#45;&gt;models/connection.ts -->
<g id="edge32" class="edge">
<title>resources/connection.r.ts&#45;&gt;models/connection.ts</title>
<path fill="none" stroke="#757575" d="M444.12,-494.44C638.61,-497.66 1106.17,-505.4 1298.83,-508.59"/>
<polygon fill="#757575" stroke="#757575" points="1298.85,-512.09 1308.9,-508.76 1298.96,-505.09 1298.85,-512.09"/>
</g>
<!-- resources/connection.r.ts&#45;&gt;models/receiver.ts -->
<g id="edge33" class="edge">
<title>resources/connection.r.ts&#45;&gt;models/receiver.ts</title>
<path fill="none" stroke="#757575" d="M440.09,-504.52C460.93,-507.19 483.26,-509.88 504,-512 875.64,-550.06 1321.65,-578.22 1497.2,-588.61"/>
<polygon fill="#757575" stroke="#757575" points="1497.18,-592.12 1507.37,-589.21 1497.59,-585.13 1497.18,-592.12"/>
</g>
<!-- resources/connection.r.ts&#45;&gt;models/sender.ts -->
<g id="edge34" class="edge">
<title>resources/connection.r.ts&#45;&gt;models/sender.ts</title>
<path fill="none" stroke="#757575" d="M382.12,-481.47C470.99,-441.01 779.46,-303.53 1045,-221 1059.59,-216.47 1075.45,-212.34 1090.56,-208.77"/>
<polygon fill="#757575" stroke="#757575" points="1091.4,-212.17 1100.36,-206.51 1089.83,-205.35 1091.4,-212.17"/>
</g>
<!-- resources/frontend&#45;update.ts -->
<g id="node27" class="node">
<title>resources/frontend&#45;update.ts</title>
<path fill="none" stroke="#c6c5fe" d="M708.83,-484.5C708.83,-484.5 524.17,-484.5 524.17,-484.5 520.33,-484.5 516.5,-480.67 516.5,-476.83 516.5,-476.83 516.5,-469.17 516.5,-469.17 516.5,-465.33 520.33,-461.5 524.17,-461.5 524.17,-461.5 708.83,-461.5 708.83,-461.5 712.67,-461.5 716.5,-465.33 716.5,-469.17 716.5,-469.17 716.5,-476.83 716.5,-476.83 716.5,-480.67 712.67,-484.5 708.83,-484.5"/>
<text text-anchor="middle" x="616.5" y="-469.3" font-family="Arial" font-size="14.00" fill="#c6c5fe">resources/frontend&#45;update.ts</text>
</g>
<!-- resources/connection.r.ts&#45;&gt;resources/frontend&#45;update.ts -->
<g id="edge35" class="edge">
<title>resources/connection.r.ts&#45;&gt;resources/frontend&#45;update.ts</title>
<path fill="none" stroke="#757575" d="M444.16,-486.26C464.06,-484.72 485.45,-483.06 506.15,-481.46"/>
<polygon fill="#757575" stroke="#757575" points="506.55,-484.94 516.25,-480.68 506.01,-477.96 506.55,-484.94"/>
</g>
<!-- resources/frontend&#45;update.ts&#45;&gt;models/timer.ts -->
<g id="edge36" class="edge">
<title>resources/frontend&#45;update.ts&#45;&gt;models/timer.ts</title>
<path fill="none" stroke="#757575" d="M716.64,-473C825.62,-473 997.67,-473 1091.52,-473"/>
<polygon fill="#757575" stroke="#757575" points="1091.74,-476.5 1101.74,-473 1091.74,-469.5 1091.74,-476.5"/>
</g>
<!-- resources/websocket&#45;response.d.ts -->
<g id="node28" class="node">
<title>resources/websocket&#45;response.d.ts</title>
<path fill="none" stroke="#c6c5fe" d="M1001.33,-446.5C1001.33,-446.5 772.67,-446.5 772.67,-446.5 768.83,-446.5 765,-442.67 765,-438.83 765,-438.83 765,-431.17 765,-431.17 765,-427.33 768.83,-423.5 772.67,-423.5 772.67,-423.5 1001.33,-423.5 1001.33,-423.5 1005.17,-423.5 1009,-427.33 1009,-431.17 1009,-431.17 1009,-438.83 1009,-438.83 1009,-442.67 1005.17,-446.5 1001.33,-446.5"/>
<text text-anchor="middle" x="887" y="-431.3" font-family="Arial" font-size="14.00" fill="#c6c5fe">resources/websocket&#45;response.d.ts</text>
</g>
<!-- resources/frontend&#45;update.ts&#45;&gt;resources/websocket&#45;response.d.ts -->
<g id="edge37" class="edge">
<title>resources/frontend&#45;update.ts&#45;&gt;resources/websocket&#45;response.d.ts</title>
<path fill="none" stroke="#757575" d="M698.79,-461.5C729.01,-457.22 763.5,-452.34 794.57,-447.94"/>
<polygon fill="#757575" stroke="#757575" points="795.11,-451.4 804.53,-446.53 794.13,-444.47 795.11,-451.4"/>
</g>
<!-- services/sender&#45;loader.ts -->
<g id="node29" class="node">
<title>services/sender&#45;loader.ts</title>
<path fill="none" stroke="#c6c5fe" d="M967.83,-172.5C967.83,-172.5 806.17,-172.5 806.17,-172.5 802.33,-172.5 798.5,-168.67 798.5,-164.83 798.5,-164.83 798.5,-157.17 798.5,-157.17 798.5,-153.33 802.33,-149.5 806.17,-149.5 806.17,-149.5 967.83,-149.5 967.83,-149.5 971.67,-149.5 975.5,-153.33 975.5,-157.17 975.5,-157.17 975.5,-164.83 975.5,-164.83 975.5,-168.67 971.67,-172.5 967.83,-172.5"/>
<text text-anchor="middle" x="887" y="-157.3" font-family="Arial" font-size="14.00" fill="#c6c5fe">services/sender&#45;loader.ts</text>
</g>
<!-- resources/frontend&#45;update.ts&#45;&gt;services/sender&#45;loader.ts -->
<g id="edge38" class="edge">
<title>resources/frontend&#45;update.ts&#45;&gt;services/sender&#45;loader.ts</title>
<path fill="none" stroke="#757575" d="M627.7,-461.15C668.33,-413.94 818.9,-238.97 869.38,-180.31"/>
<polygon fill="#757575" stroke="#757575" points="872.21,-182.39 876.08,-172.53 866.9,-177.83 872.21,-182.39"/>
</g>
<!-- resources/websocket&#45;response.d.ts&#45;&gt;models/sender.ts -->
<g id="edge53" class="edge">
<title>resources/websocket&#45;response.d.ts&#45;&gt;models/sender.ts</title>
<path fill="none" stroke="#757575" d="M930.46,-423.48C956.56,-414.35 988.76,-399.04 1009,-375 1045.14,-332.08 1009.31,-297.29 1045,-254 1061.69,-233.75 1087.16,-219.6 1109.69,-210.25"/>
<polygon fill="#757575" stroke="#757575" points="1111.12,-213.45 1119.14,-206.53 1108.55,-206.94 1111.12,-213.45"/>
</g>
<!-- resources/websocket&#45;response.d.ts&#45;&gt;models/timer.ts -->
<g id="edge54" class="edge">
<title>resources/websocket&#45;response.d.ts&#45;&gt;models/timer.ts</title>
<path fill="none" stroke="#757575" d="M969.74,-446.5C1008.76,-452 1054.84,-458.48 1091.65,-463.66"/>
<polygon fill="#757575" stroke="#757575" points="1091.38,-467.16 1101.77,-465.09 1092.35,-460.23 1091.38,-467.16"/>
</g>
<!-- services/sender&#45;loader.ts&#45;&gt;models/sound.ts -->
<g id="edge66" class="edge">
<title>services/sender&#45;loader.ts&#45;&gt;models/sound.ts</title>
<path fill="none" stroke="#757575" d="M916.55,-149.48C1042.28,-100.72 1555.59,77.65 1898,-113 1977.87,-157.47 2023.3,-265.14 2039.57,-310.88"/>
<polygon fill="#757575" stroke="#757575" points="2036.28,-312.07 2042.84,-320.38 2042.9,-309.78 2036.28,-312.07"/>
</g>
<!-- services/sender&#45;loader.ts&#45;&gt;models/sender.ts -->
<g id="edge65" class="edge">
<title>services/sender&#45;loader.ts&#45;&gt;models/sender.ts</title>
<path fill="none" stroke="#757575" d="M975.66,-172.04C1010.97,-176.48 1051.22,-181.55 1084.9,-185.8"/>
<polygon fill="#757575" stroke="#757575" points="1084.78,-189.31 1095.13,-187.08 1085.65,-182.36 1084.78,-189.31"/>
</g>
<!-- util/tsc&#45;compiler.ts -->
<g id="node38" class="node">
<title>util/tsc&#45;compiler.ts</title>
<path fill="none" stroke="#c6c5fe" d="M1216.83,-286.5C1216.83,-286.5 1101.17,-286.5 1101.17,-286.5 1097.33,-286.5 1093.5,-282.67 1093.5,-278.83 1093.5,-278.83 1093.5,-271.17 1093.5,-271.17 1093.5,-267.33 1097.33,-263.5 1101.17,-263.5 1101.17,-263.5 1216.83,-263.5 1216.83,-263.5 1220.67,-263.5 1224.5,-267.33 1224.5,-271.17 1224.5,-271.17 1224.5,-278.83 1224.5,-278.83 1224.5,-282.67 1220.67,-286.5 1216.83,-286.5"/>
<text text-anchor="middle" x="1159" y="-271.3" font-family="Arial" font-size="14.00" fill="#c6c5fe">util/tsc&#45;compiler.ts</text>
</g>
<!-- services/sender&#45;loader.ts&#45;&gt;util/tsc&#45;compiler.ts -->
<g id="edge67" class="edge">
<title>services/sender&#45;loader.ts&#45;&gt;util/tsc&#45;compiler.ts</title>
<path fill="none" stroke="#757575" d="M915.37,-172.56C964.19,-193.17 1066.29,-236.28 1121.2,-259.46"/>
<polygon fill="#757575" stroke="#757575" points="1119.98,-262.75 1130.55,-263.41 1122.7,-256.3 1119.98,-262.75"/>
</g>
<!-- resources/inventory.r.ts -->
<g id="node30" class="node">
<title>resources/inventory.r.ts</title>
<path fill="none" stroke="#c6c5fe" d="M178.33,-898.5C178.33,-898.5 29.67,-898.5 29.67,-898.5 25.83,-898.5 22,-894.67 22,-890.83 22,-890.83 22,-883.17 22,-883.17 22,-879.33 25.83,-875.5 29.67,-875.5 29.67,-875.5 178.33,-875.5 178.33,-875.5 182.17,-875.5 186,-879.33 186,-883.17 186,-883.17 186,-890.83 186,-890.83 186,-894.67 182.17,-898.5 178.33,-898.5"/>
<text text-anchor="middle" x="104" y="-883.3" font-family="Arial" font-size="14.00" fill="#c6c5fe">resources/inventory.r.ts</text>
</g>
<!-- resources/inventory.r.ts&#45;&gt;models/inventory/item.ts -->
<g id="edge39" class="edge">
<title>resources/inventory.r.ts&#45;&gt;models/inventory/item.ts</title>
<path fill="none" stroke="#757575" d="M186.17,-890.25C209.98,-891.2 236.21,-892.25 260.76,-893.23"/>
<polygon fill="#757575" stroke="#757575" points="260.67,-896.73 270.81,-893.63 260.95,-889.74 260.67,-896.73"/>
</g>
<!-- resources/inventory.r.ts&#45;&gt;models/inventory/order.ts -->
<g id="edge40" class="edge">
<title>resources/inventory.r.ts&#45;&gt;models/inventory/order.ts</title>
<path fill="none" stroke="#757575" d="M186.19,-880.19C205.15,-878.71 225.28,-877.22 244,-876 336.94,-869.95 443.06,-864.68 518.02,-861.24"/>
<polygon fill="#757575" stroke="#757575" points="518.56,-864.72 528.39,-860.77 518.24,-857.73 518.56,-864.72"/>
</g>
<!-- resources/receiver.r.ts -->
<g id="node31" class="node">
<title>resources/receiver.r.ts</title>
<path fill="none" stroke="#c6c5fe" d="M427.33,-600.5C427.33,-600.5 284.67,-600.5 284.67,-600.5 280.83,-600.5 277,-596.67 277,-592.83 277,-592.83 277,-585.17 277,-585.17 277,-581.33 280.83,-577.5 284.67,-577.5 284.67,-577.5 427.33,-577.5 427.33,-577.5 431.17,-577.5 435,-581.33 435,-585.17 435,-585.17 435,-592.83 435,-592.83 435,-596.67 431.17,-600.5 427.33,-600.5"/>
<text text-anchor="middle" x="356" y="-585.3" font-family="Arial" font-size="14.00" fill="#c6c5fe">resources/receiver.r.ts</text>
</g>
<!-- resources/receiver.r.ts&#45;&gt;models/receiver.ts -->
<g id="edge41" class="edge">
<title>resources/receiver.r.ts&#45;&gt;models/receiver.ts</title>
<path fill="none" stroke="#757575" d="M426.05,-600.52C506.98,-613.38 645.28,-633.4 765,-641 1073.71,-660.59 1157.93,-702.95 1461,-641 1490.67,-634.93 1522.2,-620.73 1544.31,-609.34"/>
<polygon fill="#757575" stroke="#757575" points="1545.96,-612.42 1553.17,-604.66 1542.69,-606.23 1545.96,-612.42"/>
</g>
<!-- resources/receiver.r.ts&#45;&gt;util/log.ts -->
<g id="edge43" class="edge">
<title>resources/receiver.r.ts&#45;&gt;util/log.ts</title>
<path fill="none" stroke="#757575" d="M435.06,-591.47C616.7,-595.79 1081.09,-598.52 1461,-530 1568.36,-510.64 1690.24,-468.82 1751.82,-446.22"/>
<polygon fill="#757575" stroke="#757575" points="1753.36,-449.38 1761.53,-442.64 1750.94,-442.82 1753.36,-449.38"/>
</g>
<!-- resources/receiver.r.ts&#45;&gt;resources/frontend&#45;update.ts -->
<g id="edge42" class="edge">
<title>resources/receiver.r.ts&#45;&gt;resources/frontend&#45;update.ts</title>
<path fill="none" stroke="#757575" d="M382.73,-577.45C429.26,-556.58 527.43,-512.52 580.19,-488.85"/>
<polygon fill="#757575" stroke="#757575" points="581.8,-491.96 589.49,-484.67 578.93,-485.57 581.8,-491.96"/>
</g>
<!-- resources/sender.r.ts -->
<g id="node32" class="node">
<title>resources/sender.r.ts</title>
<path fill="none" stroke="#c6c5fe" d="M424.33,-250.5C424.33,-250.5 287.67,-250.5 287.67,-250.5 283.83,-250.5 280,-246.67 280,-242.83 280,-242.83 280,-235.17 280,-235.17 280,-231.33 283.83,-227.5 287.67,-227.5 287.67,-227.5 424.33,-227.5 424.33,-227.5 428.17,-227.5 432,-231.33 432,-235.17 432,-235.17 432,-242.83 432,-242.83 432,-246.67 428.17,-250.5 424.33,-250.5"/>
<text text-anchor="middle" x="356" y="-235.3" font-family="Arial" font-size="14.00" fill="#c6c5fe">resources/sender.r.ts</text>
</g>
<!-- resources/sender.r.ts&#45;&gt;models/battery.ts -->
<g id="edge44" class="edge">
<title>resources/sender.r.ts&#45;&gt;models/battery.ts</title>
<path fill="none" stroke="#757575" d="M432.22,-234.16C622.54,-222.88 1118.96,-199.73 1273,-254 1292.12,-260.74 1291.3,-272.12 1309,-282 1317.74,-286.88 1327.49,-291.23 1337,-294.96"/>
<polygon fill="#757575" stroke="#757575" points="1335.79,-298.24 1346.38,-298.48 1338.25,-291.69 1335.79,-298.24"/>
</g>
<!-- resources/sender.r.ts&#45;&gt;models/transformation.ts -->
<g id="edge48" class="edge">
<title>resources/sender.r.ts&#45;&gt;models/transformation.ts</title>
<path fill="none" stroke="#757575" d="M363.38,-227.36C381.03,-196.49 433.83,-112.45 504,-77 656.32,-0.04 715.34,-38 886,-38 886,-38 886,-38 1386,-38 1524.7,-38 1683.07,-91.72 1754.08,-118.79"/>
<polygon fill="#757575" stroke="#757575" points="1752.91,-122.09 1763.5,-122.42 1755.43,-115.56 1752.91,-122.09"/>
</g>
<!-- resources/sender.r.ts&#45;&gt;models/event.ts -->
<g id="edge45" class="edge">
<title>resources/sender.r.ts&#45;&gt;models/event.ts</title>
<path fill="none" stroke="#757575" d="M365.28,-227.37C385.36,-200.33 439.74,-133.62 504,-109 651.74,-52.4 1136.38,-91.96 1316.12,-109.14"/>
<polygon fill="#757575" stroke="#757575" points="1315.95,-112.64 1326.24,-110.11 1316.62,-105.67 1315.95,-112.64"/>
</g>
<!-- resources/sender.r.ts&#45;&gt;util/log.ts -->
<g id="edge52" class="edge">
<title>resources/sender.r.ts&#45;&gt;util/log.ts</title>
<path fill="none" stroke="#757575" d="M432.06,-244.93C644.62,-261.99 1237.7,-311.35 1273,-334 1299.49,-351 1282.53,-377.96 1309,-395 1379.66,-440.47 1413.24,-408.28 1497,-415 1585.32,-422.09 1688.77,-426.9 1746.72,-429.27"/>
<polygon fill="#757575" stroke="#757575" points="1746.86,-432.78 1756.99,-429.69 1747.14,-425.79 1746.86,-432.78"/>
</g>
<!-- resources/sender.r.ts&#45;&gt;models/sender.ts -->
<g id="edge46" class="edge">
<title>resources/sender.r.ts&#45;&gt;models/sender.ts</title>
<path fill="none" stroke="#757575" d="M372.75,-227.45C398.62,-209.18 452.42,-174.14 504,-159 719.51,-95.74 787.9,-100.5 1009,-140 1050.58,-147.43 1095.75,-165.66 1125.32,-179.11"/>
<polygon fill="#757575" stroke="#757575" points="1124.18,-182.43 1134.73,-183.46 1127.12,-176.08 1124.18,-182.43"/>
</g>
<!-- resources/sender.r.ts&#45;&gt;models/timer.ts -->
<g id="edge47" class="edge">
<title>resources/sender.r.ts&#45;&gt;models/timer.ts</title>
<path fill="none" stroke="#757575" d="M374.29,-250.76C400.96,-268.38 454.29,-301.53 504,-320 615.13,-361.28 648.43,-353.42 765,-375 872.99,-395 909.39,-367.75 1009,-414 1028.15,-422.89 1026.24,-435.31 1045,-445 1059.5,-452.49 1076.09,-458.04 1092.02,-462.13"/>
<polygon fill="#757575" stroke="#757575" points="1091.28,-465.55 1101.82,-464.49 1092.92,-458.75 1091.28,-465.55"/>
</g>
<!-- resources/sender.r.ts&#45;&gt;resources/frontend&#45;update.ts -->
<g id="edge49" class="edge">
<title>resources/sender.r.ts&#45;&gt;resources/frontend&#45;update.ts</title>
<path fill="none" stroke="#757575" d="M365.13,-250.93C385.7,-280.48 442.58,-358.37 504,-409 527.61,-428.47 557.92,-445.44 580.97,-457.01"/>
<polygon fill="#757575" stroke="#757575" points="579.53,-460.2 590.05,-461.47 582.62,-453.92 579.53,-460.2"/>
</g>
<!-- resources/sender.r.ts&#45;&gt;services/sender&#45;loader.ts -->
<g id="edge50" class="edge">
<title>resources/sender.r.ts&#45;&gt;services/sender&#45;loader.ts</title>
<path fill="none" stroke="#757575" d="M382.94,-227.39C411.84,-215.03 460.26,-196.05 504,-187 599.16,-167.32 710.2,-161.63 787.96,-160.38"/>
<polygon fill="#757575" stroke="#757575" points="788.28,-163.88 798.23,-160.24 788.18,-156.88 788.28,-163.88"/>
</g>
<!-- services/sender&#45;trigger&#45;service.ts -->
<g id="node33" class="node">
<title>services/sender&#45;trigger&#45;service.ts</title>
<path fill="none" stroke="#cfffac" d="M1265.33,-366.5C1265.33,-366.5 1052.67,-366.5 1052.67,-366.5 1048.83,-366.5 1045,-362.67 1045,-358.83 1045,-358.83 1045,-351.17 1045,-351.17 1045,-347.33 1048.83,-343.5 1052.67,-343.5 1052.67,-343.5 1265.33,-343.5 1265.33,-343.5 1269.17,-343.5 1273,-347.33 1273,-351.17 1273,-351.17 1273,-358.83 1273,-358.83 1273,-362.67 1269.17,-366.5 1265.33,-366.5"/>
<text text-anchor="middle" x="1159" y="-351.3" font-family="Arial" font-size="14.00" fill="#cfffac">services/sender&#45;trigger&#45;service.ts</text>
</g>
<!-- resources/sender.r.ts&#45;&gt;services/sender&#45;trigger&#45;service.ts -->
<g id="edge51" class="edge">
<title>resources/sender.r.ts&#45;&gt;services/sender&#45;trigger&#45;service.ts</title>
<path fill="none" stroke="#757575" d="M383.23,-250.58C412.19,-262.82 460.47,-281.61 504,-291 724.19,-338.5 785.17,-308.72 1009,-334 1029.41,-336.31 1051.34,-339.18 1071.93,-342.05"/>
<polygon fill="#757575" stroke="#757575" points="1071.53,-345.52 1081.92,-343.45 1072.51,-338.59 1071.53,-345.52"/>
</g>
<!-- resources/transformation.r.ts -->
<g id="node34" class="node">
<title>resources/transformation.r.ts</title>
<path fill="none" stroke="#cfffac" d="M194.83,-1021.5C194.83,-1021.5 13.17,-1021.5 13.17,-1021.5 9.33,-1021.5 5.5,-1017.67 5.5,-1013.83 5.5,-1013.83 5.5,-1006.17 5.5,-1006.17 5.5,-1002.33 9.33,-998.5 13.17,-998.5 13.17,-998.5 194.83,-998.5 194.83,-998.5 198.67,-998.5 202.5,-1002.33 202.5,-1006.17 202.5,-1006.17 202.5,-1013.83 202.5,-1013.83 202.5,-1017.67 198.67,-1021.5 194.83,-1021.5"/>
<text text-anchor="middle" x="104" y="-1006.3" font-family="Arial" font-size="14.00" fill="#cfffac">resources/transformation.r.ts</text>
</g>
<!-- services/connection&#45;service.ts -->
<g id="node35" class="node">
<title>services/connection&#45;service.ts</title>
<path fill="none" stroke="#c6c5fe" d="M200.33,-714.5C200.33,-714.5 7.67,-714.5 7.67,-714.5 3.83,-714.5 0,-710.67 0,-706.83 0,-706.83 0,-699.17 0,-699.17 0,-695.33 3.83,-691.5 7.67,-691.5 7.67,-691.5 200.33,-691.5 200.33,-691.5 204.17,-691.5 208,-695.33 208,-699.17 208,-699.17 208,-706.83 208,-706.83 208,-710.67 204.17,-714.5 200.33,-714.5"/>
<text text-anchor="middle" x="104" y="-699.3" font-family="Arial" font-size="14.00" fill="#c6c5fe">services/connection&#45;service.ts</text>
</g>
<!-- services/connection&#45;service.ts&#45;&gt;models/connection&#45;response.ts -->
<g id="edge55" class="edge">
<title>services/connection&#45;service.ts&#45;&gt;models/connection&#45;response.ts</title>
<path fill="none" stroke="#757575" d="M124.95,-714.73C151.28,-729.64 199.51,-755 244,-768 403.86,-814.71 448.96,-817 615.5,-817 615.5,-817 615.5,-817 1794,-817 1965.75,-817 2014.76,-786.05 2161,-696 2215.69,-662.32 2265.24,-603.75 2289.07,-573.06"/>
<polygon fill="#757575" stroke="#757575" points="2292.06,-574.91 2295.36,-564.84 2286.5,-570.66 2292.06,-574.91"/>
</g>
<!-- services/connection&#45;service.ts&#45;&gt;models/connection.ts -->
<g id="edge56" class="edge">
<title>services/connection&#45;service.ts&#45;&gt;models/connection.ts</title>
<path fill="none" stroke="#757575" d="M208.19,-700.93C281.02,-698.58 380.75,-693.6 468,-683 794.73,-643.32 1180.42,-557.51 1325.2,-523.9"/>
<polygon fill="#757575" stroke="#757575" points="1326.26,-527.25 1335.2,-521.57 1324.67,-520.43 1326.26,-527.25"/>
</g>
<!-- services/connection&#45;service.ts&#45;&gt;models/receiver&#45;data.ts -->
<g id="edge57" class="edge">
<title>services/connection&#45;service.ts&#45;&gt;models/receiver&#45;data.ts</title>
<path fill="none" stroke="#757575" d="M151.11,-714.54C240.23,-735.8 442.56,-779 615.5,-779 615.5,-779 615.5,-779 888,-779 1235.48,-779 1339.16,-764.24 1652,-613 1698.1,-590.71 1745.25,-553.43 1771.36,-531.23"/>
<polygon fill="#757575" stroke="#757575" points="1773.78,-533.76 1779.07,-524.59 1769.21,-528.46 1773.78,-533.76"/>
</g>
<!-- services/connection&#45;service.ts&#45;&gt;models/transformation.ts -->
<g id="edge58" class="edge">
<title>services/connection&#45;service.ts&#45;&gt;models/transformation.ts</title>
<path fill="none" stroke="#757575" d="M105.64,-691.28C109.26,-634.13 131.3,-380.74 244,-218 352.99,-60.61 424.06,0 615.5,0 615.5,0 615.5,0 1386,0 1505.83,0 1540.18,-0.93 1652,-44 1697.54,-61.54 1743.93,-95.11 1770.23,-115.93"/>
<polygon fill="#757575" stroke="#757575" points="1768.36,-118.92 1778.34,-122.46 1772.75,-113.46 1768.36,-118.92"/>
</g>
<!-- services/timer&#45;factory.ts -->
<g id="node36" class="node">
<title>services/timer&#45;factory.ts</title>
<path fill="none" stroke="#c6c5fe" d="M431.83,-674.5C431.83,-674.5 280.17,-674.5 280.17,-674.5 276.33,-674.5 272.5,-670.67 272.5,-666.83 272.5,-666.83 272.5,-659.17 272.5,-659.17 272.5,-655.33 276.33,-651.5 280.17,-651.5 280.17,-651.5 431.83,-651.5 431.83,-651.5 435.67,-651.5 439.5,-655.33 439.5,-659.17 439.5,-659.17 439.5,-666.83 439.5,-666.83 439.5,-670.67 435.67,-674.5 431.83,-674.5"/>
<text text-anchor="middle" x="356" y="-659.3" font-family="Arial" font-size="14.00" fill="#c6c5fe">services/timer&#45;factory.ts</text>
</g>
<!-- services/connection&#45;service.ts&#45;&gt;services/timer&#45;factory.ts -->
<g id="edge59" class="edge">
<title>services/connection&#45;service.ts&#45;&gt;services/timer&#45;factory.ts</title>
<path fill="none" stroke="#757575" d="M176.97,-691.48C207.04,-686.67 242.13,-681.06 273.18,-676.09"/>
<polygon fill="#757575" stroke="#757575" points="273.78,-679.54 283.1,-674.5 272.67,-672.63 273.78,-679.54"/>
</g>
<!-- services/timer&#45;factory.ts&#45;&gt;models/connection&#45;response.ts -->
<g id="edge68" class="edge">
<title>services/timer&#45;factory.ts&#45;&gt;models/connection&#45;response.ts</title>
<path fill="none" stroke="#757575" d="M403.37,-674.51C494.97,-696.21 705.9,-741 886,-741 886,-741 886,-741 1794,-741 1990.38,-741 2204.49,-616.77 2277.74,-570.28"/>
<polygon fill="#757575" stroke="#757575" points="2279.83,-573.1 2286.35,-564.76 2276.05,-567.21 2279.83,-573.1"/>
</g>
<!-- services/timer&#45;factory.ts&#45;&gt;models/timer.ts -->
<g id="edge69" class="edge">
<title>services/timer&#45;factory.ts&#45;&gt;models/timer.ts</title>
<path fill="none" stroke="#757575" d="M405.6,-651.47C545.34,-618.32 947.89,-522.84 1099.39,-486.9"/>
<polygon fill="#757575" stroke="#757575" points="1100.51,-490.23 1109.43,-484.52 1098.9,-483.42 1100.51,-490.23"/>
</g>
<!-- services/timer&#45;factory.ts&#45;&gt;resources/frontend&#45;update.ts -->
<g id="edge70" class="edge">
<title>services/timer&#45;factory.ts&#45;&gt;resources/frontend&#45;update.ts</title>
<path fill="none" stroke="#757575" d="M386.56,-651.43C409.69,-641.72 442.16,-626.64 468,-609 519.85,-573.62 571.79,-520.66 598,-492.4"/>
<polygon fill="#757575" stroke="#757575" points="600.8,-494.53 604.99,-484.79 595.65,-489.79 600.8,-494.53"/>
</g>
<!-- services/event&#45;scheduler.ts -->
<g id="node37" class="node">
<title>services/event&#45;scheduler.ts</title>
<path fill="none" stroke="#c6c5fe" d="M974.33,-366.5C974.33,-366.5 799.67,-366.5 799.67,-366.5 795.83,-366.5 792,-362.67 792,-358.83 792,-358.83 792,-351.17 792,-351.17 792,-347.33 795.83,-343.5 799.67,-343.5 799.67,-343.5 974.33,-343.5 974.33,-343.5 978.17,-343.5 982,-347.33 982,-351.17 982,-351.17 982,-358.83 982,-358.83 982,-362.67 978.17,-366.5 974.33,-366.5"/>
<text text-anchor="middle" x="887" y="-351.3" font-family="Arial" font-size="14.00" fill="#c6c5fe">services/event&#45;scheduler.ts</text>
</g>
<!-- services/event&#45;scheduler.ts&#45;&gt;models/connection.ts -->
<g id="edge60" class="edge">
<title>services/event&#45;scheduler.ts&#45;&gt;models/connection.ts</title>
<path fill="none" stroke="#757575" d="M966.82,-366.56C981.23,-370.17 995.86,-374.87 1009,-381 1027.37,-389.57 1026.52,-400.67 1045,-409 1139,-451.4 1179.37,-408.8 1273,-452 1291.66,-460.61 1291.21,-470.73 1309,-481 1317.98,-486.18 1328.06,-490.8 1337.84,-494.74"/>
<polygon fill="#757575" stroke="#757575" points="1336.89,-498.12 1347.48,-498.45 1339.41,-491.59 1336.89,-498.12"/>
</g>
<!-- services/event&#45;scheduler.ts&#45;&gt;util/log.ts -->
<g id="edge64" class="edge">
<title>services/event&#45;scheduler.ts&#45;&gt;util/log.ts</title>
<path fill="none" stroke="#757575" d="M975.91,-366.5C987.05,-368 998.29,-369.52 1009,-371 1038.36,-375.05 1246.31,-396.11 1273,-409 1292.82,-418.57 1288.55,-434.87 1309,-443 1450.66,-499.32 1499.69,-449.52 1652,-443 1683.77,-441.64 1719.48,-438.55 1746.89,-435.85"/>
<polygon fill="#757575" stroke="#757575" points="1747.36,-439.32 1756.96,-434.84 1746.66,-432.36 1747.36,-439.32"/>
</g>
<!-- services/event&#45;scheduler.ts&#45;&gt;models/sender.ts -->
<g id="edge61" class="edge">
<title>services/event&#45;scheduler.ts&#45;&gt;models/sender.ts</title>
<path fill="none" stroke="#757575" d="M905.11,-343.27C933.62,-323.88 992.88,-284.29 1045,-254 1071.45,-238.63 1102.29,-222.65 1125.06,-211.21"/>
<polygon fill="#757575" stroke="#757575" points="1126.91,-214.2 1134.29,-206.59 1123.78,-207.93 1126.91,-214.2"/>
</g>
<!-- services/event&#45;scheduler.ts&#45;&gt;models/timer.ts -->
<g id="edge62" class="edge">
<title>services/event&#45;scheduler.ts&#45;&gt;models/timer.ts</title>
<path fill="none" stroke="#757575" d="M982.08,-366.61C991.71,-370.26 1000.91,-374.96 1009,-381 1035.77,-401 1018.38,-426.81 1045,-447 1058.48,-457.22 1075.29,-463.54 1091.79,-467.41"/>
<polygon fill="#757575" stroke="#757575" points="1091.49,-470.92 1101.99,-469.51 1092.91,-464.06 1091.49,-470.92"/>
</g>
<!-- services/event&#45;scheduler.ts&#45;&gt;services/sender&#45;trigger&#45;service.ts -->
<g id="edge63" class="edge">
<title>services/event&#45;scheduler.ts&#45;&gt;services/sender&#45;trigger&#45;service.ts</title>
<path fill="none" stroke="#757575" d="M982.05,-355C998.97,-355 1016.84,-355 1034.45,-355"/>
<polygon fill="#757575" stroke="#757575" points="1034.78,-358.5 1044.78,-355 1034.78,-351.5 1034.78,-358.5"/>
</g>
<!-- util/tsc&#45;compiler.ts&#45;&gt;util/log.ts -->
<g id="edge74" class="edge">
<title>util/tsc&#45;compiler.ts&#45;&gt;util/log.ts</title>
<path fill="none" stroke="#757575" d="M1224.64,-279.98C1241.7,-283.8 1259.17,-290.25 1273,-301 1300.62,-322.48 1280.32,-350.97 1309,-371 1313.49,-374.13 1627.25,-411.52 1746.6,-425.64"/>
<polygon fill="#757575" stroke="#757575" points="1746.52,-429.16 1756.87,-426.85 1747.35,-422.2 1746.52,-429.16"/>
</g>
<!-- util/file.ts -->
<g id="node40" class="node">
<title>util/file.ts</title>
<path fill="none" stroke="#cfffac" d="M1412.83,-362.5C1412.83,-362.5 1357.17,-362.5 1357.17,-362.5 1353.33,-362.5 1349.5,-358.67 1349.5,-354.83 1349.5,-354.83 1349.5,-347.17 1349.5,-347.17 1349.5,-343.33 1353.33,-339.5 1357.17,-339.5 1357.17,-339.5 1412.83,-339.5 1412.83,-339.5 1416.67,-339.5 1420.5,-343.33 1420.5,-347.17 1420.5,-347.17 1420.5,-354.83 1420.5,-354.83 1420.5,-358.67 1416.67,-362.5 1412.83,-362.5"/>
<text text-anchor="middle" x="1385" y="-347.3" font-family="Arial" font-size="14.00" fill="#cfffac">util/file.ts</text>
</g>
<!-- util/tsc&#45;compiler.ts&#45;&gt;util/file.ts -->
<g id="edge73" class="edge">
<title>util/tsc&#45;compiler.ts&#45;&gt;util/file.ts</title>
<path fill="none" stroke="#757575" d="M1224.77,-284.64C1241.02,-288.46 1258.06,-293.74 1273,-301 1291.48,-309.98 1290.73,-320.59 1309,-330 1318.47,-334.88 1329.22,-338.74 1339.56,-341.76"/>
<polygon fill="#757575" stroke="#757575" points="1338.73,-345.16 1349.3,-344.39 1340.56,-338.4 1338.73,-345.16"/>
</g>
</g>
</svg>
