<?xml version="1.0" encoding="UTF-8" standalone="no"?>
<!DOCTYPE svg PUBLIC "-//W3C//DTD SVG 1.1//EN"
 "http://www.w3.org/Graphics/SVG/1.1/DTD/svg11.dtd">
<!-- Generated by graphviz version 5.0.1 (20220820.1526)
 -->
<!-- Title: G Pages: 1 -->
<svg width="2908pt" height="1746pt"
 viewBox="0.00 0.00 2908.20 1745.58" xmlns="http://www.w3.org/2000/svg" xmlns:xlink="http://www.w3.org/1999/xlink">
<g id="graph0" class="graph" transform="scale(1 1) rotate(0) translate(21.6 1723.98)">
<title>G</title>
<polygon fill="#111111" stroke="none" points="-21.6,21.6 -21.6,-1723.98 2886.6,-1723.98 2886.6,21.6 -21.6,21.6"/>
<!-- models/action.ts -->
<g id="node1" class="node">
<title>models/action.ts</title>
<path fill="none" stroke="#cfffac" d="M2297.33,-971.38C2297.33,-971.38 2192.67,-971.38 2192.67,-971.38 2188.83,-971.38 2185,-967.54 2185,-963.71 2185,-963.71 2185,-956.04 2185,-956.04 2185,-952.21 2188.83,-948.38 2192.67,-948.38 2192.67,-948.38 2297.33,-948.38 2297.33,-948.38 2301.17,-948.38 2305,-952.21 2305,-956.04 2305,-956.04 2305,-963.71 2305,-963.71 2305,-967.54 2301.17,-971.38 2297.33,-971.38"/>
<text text-anchor="middle" x="2245" y="-956.18" font-family="Arial" font-size="14.00" fill="#cfffac">models/action.ts</text>
</g>
<!-- models/battery.ts -->
<g id="node2" class="node">
<title>models/battery.ts</title>
<path fill="none" stroke="#cfffac" d="M1670.83,-221.38C1670.83,-221.38 1561.17,-221.38 1561.17,-221.38 1557.33,-221.38 1553.5,-217.54 1553.5,-213.71 1553.5,-213.71 1553.5,-206.04 1553.5,-206.04 1553.5,-202.21 1557.33,-198.38 1561.17,-198.38 1561.17,-198.38 1670.83,-198.38 1670.83,-198.38 1674.67,-198.38 1678.5,-202.21 1678.5,-206.04 1678.5,-206.04 1678.5,-213.71 1678.5,-213.71 1678.5,-217.54 1674.67,-221.38 1670.83,-221.38"/>
<text text-anchor="middle" x="1616" y="-206.18" font-family="Arial" font-size="14.00" fill="#cfffac">models/battery.ts</text>
</g>
<!-- models/connection&#45;response.ts -->
<g id="node3" class="node">
<title>models/connection&#45;response.ts</title>
<path fill="none" stroke="#cfffac" d="M2857.33,-1048.38C2857.33,-1048.38 2656.67,-1048.38 2656.67,-1048.38 2652.83,-1048.38 2649,-1044.54 2649,-1040.71 2649,-1040.71 2649,-1033.04 2649,-1033.04 2649,-1029.21 2652.83,-1025.38 2656.67,-1025.38 2656.67,-1025.38 2857.33,-1025.38 2857.33,-1025.38 2861.17,-1025.38 2865,-1029.21 2865,-1033.04 2865,-1033.04 2865,-1040.71 2865,-1040.71 2865,-1044.54 2861.17,-1048.38 2857.33,-1048.38"/>
<text text-anchor="middle" x="2757" y="-1033.18" font-family="Arial" font-size="14.00" fill="#cfffac">models/connection&#45;response.ts</text>
</g>
<!-- models/connection.ts -->
<g id="node4" class="node">
<title>models/connection.ts</title>
<path fill="none" stroke="#c6c5fe" d="M1684.33,-855.38C1684.33,-855.38 1547.67,-855.38 1547.67,-855.38 1543.83,-855.38 1540,-851.54 1540,-847.71 1540,-847.71 1540,-840.04 1540,-840.04 1540,-836.21 1543.83,-832.38 1547.67,-832.38 1547.67,-832.38 1684.33,-832.38 1684.33,-832.38 1688.17,-832.38 1692,-836.21 1692,-840.04 1692,-840.04 1692,-847.71 1692,-847.71 1692,-851.54 1688.17,-855.38 1684.33,-855.38"/>
<text text-anchor="middle" x="1616" y="-840.18" font-family="Arial" font-size="14.00" fill="#c6c5fe">models/connection.ts</text>
</g>
<!-- models/receiver&#45;data.ts -->
<g id="node5" class="node">
<title>models/receiver&#45;data.ts</title>
<path fill="none" stroke="#c6c5fe" d="M2319.83,-1115.38C2319.83,-1115.38 2170.17,-1115.38 2170.17,-1115.38 2166.33,-1115.38 2162.5,-1111.54 2162.5,-1107.71 2162.5,-1107.71 2162.5,-1100.04 2162.5,-1100.04 2162.5,-1096.21 2166.33,-1092.38 2170.17,-1092.38 2170.17,-1092.38 2319.83,-1092.38 2319.83,-1092.38 2323.67,-1092.38 2327.5,-1096.21 2327.5,-1100.04 2327.5,-1100.04 2327.5,-1107.71 2327.5,-1107.71 2327.5,-1111.54 2323.67,-1115.38 2319.83,-1115.38"/>
<text text-anchor="middle" x="2245" y="-1100.18" font-family="Arial" font-size="14.00" fill="#c6c5fe">models/receiver&#45;data.ts</text>
</g>
<!-- models/connection.ts&#45;&gt;models/receiver&#45;data.ts -->
<g id="edge1" class="edge">
<title>models/connection.ts&#45;&gt;models/receiver&#45;data.ts</title>
<path fill="none" stroke="#757575" d="M1641.16,-855.51C1673.47,-870.95 1732.66,-898.85 1784,-920.88 1937.57,-986.77 2123.22,-1058.14 2203.63,-1088.65"/>
<polygon fill="#757575" stroke="#757575" points="2202.77,-1092.06 2213.36,-1092.34 2205.25,-1085.52 2202.77,-1092.06"/>
</g>
<!-- models/receiver.ts -->
<g id="node6" class="node">
<title>models/receiver.ts</title>
<path fill="none" stroke="#c6c5fe" d="M2003.33,-912.38C2003.33,-912.38 1884.67,-912.38 1884.67,-912.38 1880.83,-912.38 1877,-908.54 1877,-904.71 1877,-904.71 1877,-897.04 1877,-897.04 1877,-893.21 1880.83,-889.38 1884.67,-889.38 1884.67,-889.38 2003.33,-889.38 2003.33,-889.38 2007.17,-889.38 2011,-893.21 2011,-897.04 2011,-897.04 2011,-904.71 2011,-904.71 2011,-908.54 2007.17,-912.38 2003.33,-912.38"/>
<text text-anchor="middle" x="1944" y="-897.18" font-family="Arial" font-size="14.00" fill="#c6c5fe">models/receiver.ts</text>
</g>
<!-- models/connection.ts&#45;&gt;models/receiver.ts -->
<g id="edge2" class="edge">
<title>models/connection.ts&#45;&gt;models/receiver.ts</title>
<path fill="none" stroke="#757575" d="M1682.97,-855.41C1736.22,-864.72 1811.18,-877.83 1866.95,-887.58"/>
<polygon fill="#757575" stroke="#757575" points="1866.67,-891.08 1877.13,-889.36 1867.88,-884.19 1866.67,-891.08"/>
</g>
<!-- models/transformation.ts -->
<g id="node7" class="node">
<title>models/transformation.ts</title>
<path fill="none" stroke="#cfffac" d="M2323.83,-774.38C2323.83,-774.38 2166.17,-774.38 2166.17,-774.38 2162.33,-774.38 2158.5,-770.54 2158.5,-766.71 2158.5,-766.71 2158.5,-759.04 2158.5,-759.04 2158.5,-755.21 2162.33,-751.38 2166.17,-751.38 2166.17,-751.38 2323.83,-751.38 2323.83,-751.38 2327.67,-751.38 2331.5,-755.21 2331.5,-759.04 2331.5,-759.04 2331.5,-766.71 2331.5,-766.71 2331.5,-770.54 2327.67,-774.38 2323.83,-774.38"/>
<text text-anchor="middle" x="2245" y="-759.18" font-family="Arial" font-size="14.00" fill="#cfffac">models/transformation.ts</text>
</g>
<!-- models/connection.ts&#45;&gt;models/transformation.ts -->
<g id="edge3" class="edge">
<title>models/connection.ts&#45;&gt;models/transformation.ts</title>
<path fill="none" stroke="#757575" d="M1692.01,-834.19C1806.1,-819.45 2023.18,-791.4 2148.42,-775.22"/>
<polygon fill="#757575" stroke="#757575" points="2148.92,-778.69 2158.39,-773.94 2148.02,-771.75 2148.92,-778.69"/>
</g>
<!-- models/transformer.ts -->
<g id="node8" class="node">
<title>models/transformer.ts</title>
<path fill="none" stroke="#c6c5fe" d="M2013.83,-855.38C2013.83,-855.38 1874.17,-855.38 1874.17,-855.38 1870.33,-855.38 1866.5,-851.54 1866.5,-847.71 1866.5,-847.71 1866.5,-840.04 1866.5,-840.04 1866.5,-836.21 1870.33,-832.38 1874.17,-832.38 1874.17,-832.38 2013.83,-832.38 2013.83,-832.38 2017.67,-832.38 2021.5,-836.21 2021.5,-840.04 2021.5,-840.04 2021.5,-847.71 2021.5,-847.71 2021.5,-851.54 2017.67,-855.38 2013.83,-855.38"/>
<text text-anchor="middle" x="1944" y="-840.18" font-family="Arial" font-size="14.00" fill="#c6c5fe">models/transformer.ts</text>
</g>
<!-- models/connection.ts&#45;&gt;models/transformer.ts -->
<g id="edge4" class="edge">
<title>models/connection.ts&#45;&gt;models/transformer.ts</title>
<path fill="none" stroke="#757575" d="M1692.2,-843.88C1741.21,-843.88 1805.31,-843.88 1856.44,-843.88"/>
<polygon fill="#757575" stroke="#757575" points="1856.48,-847.38 1866.48,-843.88 1856.48,-840.38 1856.48,-847.38"/>
</g>
<!-- models/receiver&#45;data.ts&#45;&gt;models/connection&#45;response.ts -->
<g id="edge8" class="edge">
<title>models/receiver&#45;data.ts&#45;&gt;models/connection&#45;response.ts</title>
<path fill="none" stroke="#757575" d="M2327.53,-1111.02C2402.57,-1115.56 2516.51,-1117.26 2613,-1096.88 2654.18,-1088.18 2698.39,-1067.73 2726.58,-1053.12"/>
<polygon fill="#757575" stroke="#757575" points="2728.28,-1056.18 2735.49,-1048.42 2725.01,-1049.99 2728.28,-1056.18"/>
</g>
<!-- models/evaluated&#45;data.ts -->
<g id="node9" class="node">
<title>models/evaluated&#45;data.ts</title>
<path fill="none" stroke="#c6c5fe" d="M2579.33,-1088.38C2579.33,-1088.38 2419.67,-1088.38 2419.67,-1088.38 2415.83,-1088.38 2412,-1084.54 2412,-1080.71 2412,-1080.71 2412,-1073.04 2412,-1073.04 2412,-1069.21 2415.83,-1065.38 2419.67,-1065.38 2419.67,-1065.38 2579.33,-1065.38 2579.33,-1065.38 2583.17,-1065.38 2587,-1069.21 2587,-1073.04 2587,-1073.04 2587,-1080.71 2587,-1080.71 2587,-1084.54 2583.17,-1088.38 2579.33,-1088.38"/>
<text text-anchor="middle" x="2499.5" y="-1073.18" font-family="Arial" font-size="14.00" fill="#c6c5fe">models/evaluated&#45;data.ts</text>
</g>
<!-- models/receiver&#45;data.ts&#45;&gt;models/evaluated&#45;data.ts -->
<g id="edge9" class="edge">
<title>models/receiver&#45;data.ts&#45;&gt;models/evaluated&#45;data.ts</title>
<path fill="none" stroke="#757575" d="M2327.63,-1095.15C2351.31,-1092.62 2377.4,-1089.83 2401.9,-1087.21"/>
<polygon fill="#757575" stroke="#757575" points="2402.36,-1090.68 2411.93,-1086.13 2401.61,-1083.72 2402.36,-1090.68"/>
</g>
<!-- models/sound.ts -->
<g id="node14" class="node">
<title>models/sound.ts</title>
<path fill="none" stroke="#cfffac" d="M2552.83,-876.38C2552.83,-876.38 2446.17,-876.38 2446.17,-876.38 2442.33,-876.38 2438.5,-872.54 2438.5,-868.71 2438.5,-868.71 2438.5,-861.04 2438.5,-861.04 2438.5,-857.21 2442.33,-853.38 2446.17,-853.38 2446.17,-853.38 2552.83,-853.38 2552.83,-853.38 2556.67,-853.38 2560.5,-857.21 2560.5,-861.04 2560.5,-861.04 2560.5,-868.71 2560.5,-868.71 2560.5,-872.54 2556.67,-876.38 2552.83,-876.38"/>
<text text-anchor="middle" x="2499.5" y="-861.18" font-family="Arial" font-size="14.00" fill="#cfffac">models/sound.ts</text>
</g>
<!-- models/receiver&#45;data.ts&#45;&gt;models/sound.ts -->
<g id="edge10" class="edge">
<title>models/receiver&#45;data.ts&#45;&gt;models/sound.ts</title>
<path fill="none" stroke="#757575" d="M2266.24,-1092.26C2289.34,-1078.07 2326.92,-1052.08 2350,-1020.88 2375.87,-985.91 2357.59,-962.81 2386,-929.88 2405.1,-907.73 2433.71,-891.35 2457.29,-880.57"/>
<polygon fill="#757575" stroke="#757575" points="2458.97,-883.66 2466.72,-876.43 2456.15,-877.25 2458.97,-883.66"/>
</g>
<!-- util/types.d.ts -->
<g id="node15" class="node">
<title>util/types.d.ts</title>
<path fill="none" stroke="#cfffac" d="M2541.33,-1168.38C2541.33,-1168.38 2457.67,-1168.38 2457.67,-1168.38 2453.83,-1168.38 2450,-1164.54 2450,-1160.71 2450,-1160.71 2450,-1153.04 2450,-1153.04 2450,-1149.21 2453.83,-1145.38 2457.67,-1145.38 2457.67,-1145.38 2541.33,-1145.38 2541.33,-1145.38 2545.17,-1145.38 2549,-1149.21 2549,-1153.04 2549,-1153.04 2549,-1160.71 2549,-1160.71 2549,-1164.54 2545.17,-1168.38 2541.33,-1168.38"/>
<text text-anchor="middle" x="2499.5" y="-1153.18" font-family="Arial" font-size="14.00" fill="#cfffac">util/types.d.ts</text>
</g>
<!-- models/receiver&#45;data.ts&#45;&gt;util/types.d.ts -->
<g id="edge11" class="edge">
<title>models/receiver&#45;data.ts&#45;&gt;util/types.d.ts</title>
<path fill="none" stroke="#757575" d="M2300.79,-1115.38C2341.88,-1124 2398.03,-1135.79 2439.99,-1144.59"/>
<polygon fill="#757575" stroke="#757575" points="2439.29,-1148.02 2449.79,-1146.65 2440.72,-1141.17 2439.29,-1148.02"/>
</g>
<!-- models/receiver.ts&#45;&gt;models/action.ts -->
<g id="edge12" class="edge">
<title>models/receiver.ts&#45;&gt;models/action.ts</title>
<path fill="none" stroke="#757575" d="M2003.36,-912.39C2052.77,-922.14 2123.67,-936.13 2175.72,-946.4"/>
<polygon fill="#757575" stroke="#757575" points="2175.04,-949.84 2185.53,-948.34 2176.4,-942.97 2175.04,-949.84"/>
</g>
<!-- models/receiver.ts&#45;&gt;models/receiver&#45;data.ts -->
<g id="edge14" class="edge">
<title>models/receiver.ts&#45;&gt;models/receiver&#45;data.ts</title>
<path fill="none" stroke="#757575" d="M1962.37,-912.67C2012.75,-946.88 2159.14,-1046.26 2218.52,-1086.58"/>
<polygon fill="#757575" stroke="#757575" points="2216.72,-1089.58 2226.96,-1092.31 2220.65,-1083.79 2216.72,-1089.58"/>
</g>
<!-- models/receiver.ts&#45;&gt;models/evaluated&#45;data.ts -->
<g id="edge13" class="edge">
<title>models/receiver.ts&#45;&gt;models/evaluated&#45;data.ts</title>
<path fill="none" stroke="#757575" d="M2011.28,-892.04C2111.38,-880.08 2295.29,-863.86 2350,-897.88 2380.72,-916.98 2364.49,-941.79 2386,-970.88 2411.97,-1006.01 2450.41,-1039.32 2474.95,-1058.93"/>
<polygon fill="#757575" stroke="#757575" points="2472.99,-1061.84 2483.01,-1065.27 2477.32,-1056.34 2472.99,-1061.84"/>
</g>
<!-- models/receiver&#45;event.ts -->
<g id="node16" class="node">
<title>models/receiver&#45;event.ts</title>
<path fill="none" stroke="#cfffac" d="M2323.83,-1012.38C2323.83,-1012.38 2166.17,-1012.38 2166.17,-1012.38 2162.33,-1012.38 2158.5,-1008.54 2158.5,-1004.71 2158.5,-1004.71 2158.5,-997.04 2158.5,-997.04 2158.5,-993.21 2162.33,-989.38 2166.17,-989.38 2166.17,-989.38 2323.83,-989.38 2323.83,-989.38 2327.67,-989.38 2331.5,-993.21 2331.5,-997.04 2331.5,-997.04 2331.5,-1004.71 2331.5,-1004.71 2331.5,-1008.54 2327.67,-1012.38 2323.83,-1012.38"/>
<text text-anchor="middle" x="2245" y="-997.18" font-family="Arial" font-size="14.00" fill="#cfffac">models/receiver&#45;event.ts</text>
</g>
<!-- models/receiver.ts&#45;&gt;models/receiver&#45;event.ts -->
<g id="edge15" class="edge">
<title>models/receiver.ts&#45;&gt;models/receiver&#45;event.ts</title>
<path fill="none" stroke="#757575" d="M1969.4,-912.48C2005.82,-929.4 2076.86,-960.89 2140,-979.88 2148.9,-982.55 2158.34,-984.99 2167.75,-987.18"/>
<polygon fill="#757575" stroke="#757575" points="2167,-990.6 2177.52,-989.37 2168.53,-983.77 2167,-990.6"/>
</g>
<!-- services/firebasemessaging.ts -->
<g id="node17" class="node">
<title>services/firebasemessaging.ts</title>
<path fill="none" stroke="#cfffac" d="M2342.33,-930.38C2342.33,-930.38 2147.67,-930.38 2147.67,-930.38 2143.83,-930.38 2140,-926.54 2140,-922.71 2140,-922.71 2140,-915.04 2140,-915.04 2140,-911.21 2143.83,-907.38 2147.67,-907.38 2147.67,-907.38 2342.33,-907.38 2342.33,-907.38 2346.17,-907.38 2350,-911.21 2350,-915.04 2350,-915.04 2350,-922.71 2350,-922.71 2350,-926.54 2346.17,-930.38 2342.33,-930.38"/>
<text text-anchor="middle" x="2245" y="-915.18" font-family="Arial" font-size="14.00" fill="#cfffac">services/firebasemessaging.ts</text>
</g>
<!-- models/receiver.ts&#45;&gt;services/firebasemessaging.ts -->
<g id="edge16" class="edge">
<title>models/receiver.ts&#45;&gt;services/firebasemessaging.ts</title>
<path fill="none" stroke="#757575" d="M2011.36,-904.87C2046.17,-906.97 2089.81,-909.59 2129.85,-912"/>
<polygon fill="#757575" stroke="#757575" points="2129.75,-915.51 2139.95,-912.61 2130.17,-908.52 2129.75,-915.51"/>
</g>
<!-- services/websocketmessaging.ts -->
<g id="node18" class="node">
<title>services/websocketmessaging.ts</title>
<path fill="none" stroke="#c6c5fe" d="M2605.33,-962.38C2605.33,-962.38 2393.67,-962.38 2393.67,-962.38 2389.83,-962.38 2386,-958.54 2386,-954.71 2386,-954.71 2386,-947.04 2386,-947.04 2386,-943.21 2389.83,-939.38 2393.67,-939.38 2393.67,-939.38 2605.33,-939.38 2605.33,-939.38 2609.17,-939.38 2613,-943.21 2613,-947.04 2613,-947.04 2613,-954.71 2613,-954.71 2613,-958.54 2609.17,-962.38 2605.33,-962.38"/>
<text text-anchor="middle" x="2499.5" y="-947.18" font-family="Arial" font-size="14.00" fill="#c6c5fe">services/websocketmessaging.ts</text>
</g>
<!-- models/receiver.ts&#45;&gt;services/websocketmessaging.ts -->
<g id="edge17" class="edge">
<title>models/receiver.ts&#45;&gt;services/websocketmessaging.ts</title>
<path fill="none" stroke="#757575" d="M1993.54,-889.36C2032.79,-880.67 2089.6,-869.49 2140,-864.88 2232.94,-856.37 2259.86,-840.66 2350,-864.88 2353.29,-865.76 2427.82,-909.36 2470.01,-934.13"/>
<polygon fill="#757575" stroke="#757575" points="2468.34,-937.21 2478.74,-939.25 2471.89,-931.17 2468.34,-937.21"/>
</g>
<!-- util/log.ts -->
<g id="node19" class="node">
<title>util/log.ts</title>
<path fill="none" stroke="#c6c5fe" d="M2273.33,-141.38C2273.33,-141.38 2216.67,-141.38 2216.67,-141.38 2212.83,-141.38 2209,-137.54 2209,-133.71 2209,-133.71 2209,-126.04 2209,-126.04 2209,-122.21 2212.83,-118.38 2216.67,-118.38 2216.67,-118.38 2273.33,-118.38 2273.33,-118.38 2277.17,-118.38 2281,-122.21 2281,-126.04 2281,-126.04 2281,-133.71 2281,-133.71 2281,-137.54 2277.17,-141.38 2273.33,-141.38"/>
<text text-anchor="middle" x="2245" y="-126.18" font-family="Arial" font-size="14.00" fill="#c6c5fe">util/log.ts</text>
</g>
<!-- models/receiver.ts&#45;&gt;util/log.ts -->
<g id="edge18" class="edge">
<title>models/receiver.ts&#45;&gt;util/log.ts</title>
<path fill="none" stroke="#757575" d="M2011.19,-901.49C2043.42,-898.23 2080.24,-888.61 2104,-863.88 2129.74,-837.08 2221.54,-270.35 2240.54,-151.58"/>
<polygon fill="#757575" stroke="#757575" points="2244.03,-151.95 2242.15,-141.52 2237.12,-150.85 2244.03,-151.95"/>
</g>
<!-- models/transformer.ts&#45;&gt;models/connection&#45;response.ts -->
<g id="edge26" class="edge">
<title>models/transformer.ts&#45;&gt;models/connection&#45;response.ts</title>
<path fill="none" stroke="#757575" d="M2021.74,-835.39C2174.71,-819.84 2511.62,-792.82 2613,-843.88 2685.79,-880.54 2730.78,-973.71 2748,-1015.74"/>
<polygon fill="#757575" stroke="#757575" points="2744.83,-1017.25 2751.78,-1025.26 2751.34,-1014.67 2744.83,-1017.25"/>
</g>
<!-- models/transformer.ts&#45;&gt;models/transformation.ts -->
<g id="edge27" class="edge">
<title>models/transformer.ts&#45;&gt;models/transformation.ts</title>
<path fill="none" stroke="#757575" d="M2021.72,-839.39C2048.61,-835.75 2078.46,-829.28 2104,-817.88 2122.76,-809.5 2121.6,-798.03 2140,-788.88 2149.28,-784.26 2159.45,-780.42 2169.67,-777.24"/>
<polygon fill="#757575" stroke="#757575" points="2170.85,-780.55 2179.47,-774.39 2168.89,-773.82 2170.85,-780.55"/>
</g>
<!-- models/evaluated&#45;data.ts&#45;&gt;models/connection&#45;response.ts -->
<g id="edge5" class="edge">
<title>models/evaluated&#45;data.ts&#45;&gt;models/connection&#45;response.ts</title>
<path fill="none" stroke="#757575" d="M2574.06,-1065.36C2604.79,-1060.55 2640.65,-1054.94 2672.38,-1049.97"/>
<polygon fill="#757575" stroke="#757575" points="2673.18,-1053.39 2682.52,-1048.38 2672.1,-1046.47 2673.18,-1053.39"/>
</g>
<!-- models/event.ts -->
<g id="node10" class="node">
<title>models/event.ts</title>
<path fill="none" stroke="#cfffac" d="M1666.83,-301.38C1666.83,-301.38 1565.17,-301.38 1565.17,-301.38 1561.33,-301.38 1557.5,-297.54 1557.5,-293.71 1557.5,-293.71 1557.5,-286.04 1557.5,-286.04 1557.5,-282.21 1561.33,-278.38 1565.17,-278.38 1565.17,-278.38 1666.83,-278.38 1666.83,-278.38 1670.67,-278.38 1674.5,-282.21 1674.5,-286.04 1674.5,-286.04 1674.5,-293.71 1674.5,-293.71 1674.5,-297.54 1670.67,-301.38 1666.83,-301.38"/>
<text text-anchor="middle" x="1616" y="-286.18" font-family="Arial" font-size="14.00" fill="#cfffac">models/event.ts</text>
</g>
<!-- models/inventory/item.ts -->
<g id="node11" class="node">
<title>models/inventory/item.ts</title>
<path fill="none" stroke="#c6c5fe" d="M1358.83,-615.38C1358.83,-615.38 1204.17,-615.38 1204.17,-615.38 1200.33,-615.38 1196.5,-611.54 1196.5,-607.71 1196.5,-607.71 1196.5,-600.04 1196.5,-600.04 1196.5,-596.21 1200.33,-592.38 1204.17,-592.38 1204.17,-592.38 1358.83,-592.38 1358.83,-592.38 1362.67,-592.38 1366.5,-596.21 1366.5,-600.04 1366.5,-600.04 1366.5,-607.71 1366.5,-607.71 1366.5,-611.54 1362.67,-615.38 1358.83,-615.38"/>
<text text-anchor="middle" x="1281.5" y="-600.18" font-family="Arial" font-size="14.00" fill="#c6c5fe">models/inventory/item.ts</text>
</g>
<!-- models/inventory/location.ts -->
<g id="node12" class="node">
<title>models/inventory/location.ts</title>
<path fill="none" stroke="#cfffac" d="M1703.83,-616.38C1703.83,-616.38 1528.17,-616.38 1528.17,-616.38 1524.33,-616.38 1520.5,-612.54 1520.5,-608.71 1520.5,-608.71 1520.5,-601.04 1520.5,-601.04 1520.5,-597.21 1524.33,-593.38 1528.17,-593.38 1528.17,-593.38 1703.83,-593.38 1703.83,-593.38 1707.67,-593.38 1711.5,-597.21 1711.5,-601.04 1711.5,-601.04 1711.5,-608.71 1711.5,-608.71 1711.5,-612.54 1707.67,-616.38 1703.83,-616.38"/>
<text text-anchor="middle" x="1616" y="-601.18" font-family="Arial" font-size="14.00" fill="#cfffac">models/inventory/location.ts</text>
</g>
<!-- models/inventory/item.ts&#45;&gt;models/inventory/location.ts -->
<g id="edge6" class="edge">
<title>models/inventory/item.ts&#45;&gt;models/inventory/location.ts</title>
<path fill="none" stroke="#757575" d="M1366.83,-604.13C1410.48,-604.26 1464.17,-604.42 1510.43,-604.56"/>
<polygon fill="#757575" stroke="#757575" points="1510.48,-608.06 1520.49,-604.59 1510.5,-601.06 1510.48,-608.06"/>
</g>
<!-- models/inventory/order.ts -->
<g id="node13" class="node">
<title>models/inventory/order.ts</title>
<path fill="none" stroke="#cfffac" d="M1696.33,-575.38C1696.33,-575.38 1535.67,-575.38 1535.67,-575.38 1531.83,-575.38 1528,-571.54 1528,-567.71 1528,-567.71 1528,-560.04 1528,-560.04 1528,-556.21 1531.83,-552.38 1535.67,-552.38 1535.67,-552.38 1696.33,-552.38 1696.33,-552.38 1700.17,-552.38 1704,-556.21 1704,-560.04 1704,-560.04 1704,-567.71 1704,-567.71 1704,-571.54 1700.17,-575.38 1696.33,-575.38"/>
<text text-anchor="middle" x="1616" y="-560.18" font-family="Arial" font-size="14.00" fill="#cfffac">models/inventory/order.ts</text>
</g>
<!-- models/inventory/item.ts&#45;&gt;models/inventory/order.ts -->
<g id="edge7" class="edge">
<title>models/inventory/item.ts&#45;&gt;models/inventory/order.ts</title>
<path fill="none" stroke="#757575" d="M1366.83,-593.73C1412.82,-588.2 1469.94,-581.33 1517.79,-575.57"/>
<polygon fill="#757575" stroke="#757575" points="1518.35,-579.03 1527.86,-574.36 1517.51,-572.08 1518.35,-579.03"/>
</g>
<!-- services/websocketmessaging.ts&#45;&gt;models/connection&#45;response.ts -->
<g id="edge95" class="edge">
<title>services/websocketmessaging.ts&#45;&gt;models/connection&#45;response.ts</title>
<path fill="none" stroke="#757575" d="M2534.69,-962.39C2580.46,-977.79 2661.68,-1005.13 2711.98,-1022.06"/>
<polygon fill="#757575" stroke="#757575" points="2711.01,-1025.43 2721.6,-1025.3 2713.24,-1018.79 2711.01,-1025.43"/>
</g>
<!-- util/btoaatob.ts -->
<g id="node60" class="node">
<title>util/btoaatob.ts</title>
<path fill="none" stroke="#cfffac" d="M2545.83,-141.38C2545.83,-141.38 2453.17,-141.38 2453.17,-141.38 2449.33,-141.38 2445.5,-137.54 2445.5,-133.71 2445.5,-133.71 2445.5,-126.04 2445.5,-126.04 2445.5,-122.21 2449.33,-118.38 2453.17,-118.38 2453.17,-118.38 2545.83,-118.38 2545.83,-118.38 2549.67,-118.38 2553.5,-122.21 2553.5,-126.04 2553.5,-126.04 2553.5,-133.71 2553.5,-133.71 2553.5,-137.54 2549.67,-141.38 2545.83,-141.38"/>
<text text-anchor="middle" x="2499.5" y="-126.18" font-family="Arial" font-size="14.00" fill="#cfffac">util/btoaatob.ts</text>
</g>
<!-- util/log.ts&#45;&gt;util/btoaatob.ts -->
<g id="edge96" class="edge">
<title>util/log.ts&#45;&gt;util/btoaatob.ts</title>
<path fill="none" stroke="#757575" d="M2281.11,-129.88C2320.83,-129.88 2386.33,-129.88 2435.07,-129.88"/>
<polygon fill="#757575" stroke="#757575" points="2435.2,-133.38 2445.2,-129.88 2435.2,-126.38 2435.2,-133.38"/>
</g>
<!-- models/sender.ts -->
<g id="node20" class="node">
<title>models/sender.ts</title>
<path fill="none" stroke="#c6c5fe" d="M1337.33,-379.38C1337.33,-379.38 1225.67,-379.38 1225.67,-379.38 1221.83,-379.38 1218,-375.54 1218,-371.71 1218,-371.71 1218,-364.04 1218,-364.04 1218,-360.21 1221.83,-356.38 1225.67,-356.38 1225.67,-356.38 1337.33,-356.38 1337.33,-356.38 1341.17,-356.38 1345,-360.21 1345,-364.04 1345,-364.04 1345,-371.71 1345,-371.71 1345,-375.54 1341.17,-379.38 1337.33,-379.38"/>
<text text-anchor="middle" x="1281.5" y="-364.18" font-family="Arial" font-size="14.00" fill="#c6c5fe">models/sender.ts</text>
</g>
<!-- models/sender.ts&#45;&gt;models/battery.ts -->
<g id="edge19" class="edge">
<title>models/sender.ts&#45;&gt;models/battery.ts</title>
<path fill="none" stroke="#757575" d="M1305.35,-356.34C1342.58,-337.61 1418.76,-299.58 1484,-268.88 1516.06,-253.79 1552.88,-237.28 1579.3,-225.57"/>
<polygon fill="#757575" stroke="#757575" points="1580.81,-228.73 1588.54,-221.48 1577.97,-222.33 1580.81,-228.73"/>
</g>
<!-- models/sender.ts&#45;&gt;models/connection&#45;response.ts -->
<g id="edge20" class="edge">
<title>models/sender.ts&#45;&gt;models/connection&#45;response.ts</title>
<path fill="none" stroke="#757575" d="M1345.34,-367.88C1462.75,-367.88 1723.41,-367.88 1943,-367.88 1943,-367.88 1943,-367.88 2246,-367.88 2579.56,-367.88 2723.88,-900.37 2751.12,-1015.22"/>
<polygon fill="#757575" stroke="#757575" points="2747.79,-1016.32 2753.46,-1025.26 2754.6,-1014.73 2747.79,-1016.32"/>
</g>
<!-- models/sender.ts&#45;&gt;models/connection.ts -->
<g id="edge21" class="edge">
<title>models/sender.ts&#45;&gt;models/connection.ts</title>
<path fill="none" stroke="#757575" d="M1294.73,-379.66C1325.6,-410.14 1407.16,-495.37 1448,-582.88 1479.38,-650.1 1443.78,-683.53 1484,-745.88 1507.93,-782.97 1551.09,-811.15 1581.31,-827.56"/>
<polygon fill="#757575" stroke="#757575" points="1579.76,-830.7 1590.24,-832.27 1583.03,-824.51 1579.76,-830.7"/>
</g>
<!-- models/sender.ts&#45;&gt;models/transformation.ts -->
<g id="edge23" class="edge">
<title>models/sender.ts&#45;&gt;models/transformation.ts</title>
<path fill="none" stroke="#757575" d="M1345.26,-372.4C1536.65,-386.21 2100.15,-427.1 2104,-429.88 2210.36,-506.46 2236.37,-679.94 2242.33,-741.06"/>
<polygon fill="#757575" stroke="#757575" points="2238.85,-741.47 2243.23,-751.12 2245.83,-740.85 2238.85,-741.47"/>
</g>
<!-- models/sender.ts&#45;&gt;models/transformer.ts -->
<g id="edge24" class="edge">
<title>models/sender.ts&#45;&gt;models/transformer.ts</title>
<path fill="none" stroke="#757575" d="M1332.19,-379.47C1367.83,-389.86 1415.16,-408.14 1448,-437.88 1472.77,-460.3 1456.59,-484.76 1484,-503.88 1581.28,-571.73 1662.93,-460.23 1748,-542.88 1813.72,-606.73 1732.49,-670.09 1784,-745.88 1811.61,-786.5 1862.21,-813.36 1898.93,-828.52"/>
<polygon fill="#757575" stroke="#757575" points="1897.83,-831.85 1908.41,-832.3 1900.42,-825.35 1897.83,-831.85"/>
</g>
<!-- models/sender.ts&#45;&gt;models/event.ts -->
<g id="edge22" class="edge">
<title>models/sender.ts&#45;&gt;models/event.ts</title>
<path fill="none" stroke="#757575" d="M1324.4,-356.33C1365.04,-345.3 1428.52,-328.53 1484,-315.88 1504.59,-311.18 1527.12,-306.53 1547.59,-302.5"/>
<polygon fill="#757575" stroke="#757575" points="1548.32,-305.92 1557.46,-300.57 1546.97,-299.05 1548.32,-305.92"/>
</g>
<!-- models/sender.ts&#45;&gt;util/log.ts -->
<g id="edge25" class="edge">
<title>models/sender.ts&#45;&gt;util/log.ts</title>
<path fill="none" stroke="#757575" d="M1345,-364.39C1435.07,-358.4 1606.13,-343.4 1748,-309.88 1911.34,-271.28 1946.58,-242.08 2104,-183.88 2138.43,-171.15 2177.36,-156.07 2205.42,-145.09"/>
<polygon fill="#757575" stroke="#757575" points="2206.83,-148.3 2214.86,-141.39 2204.28,-141.78 2206.83,-148.3"/>
</g>
<!-- models/test.ts -->
<g id="node21" class="node">
<title>models/test.ts</title>
<path fill="none" stroke="#cfffac" d="M149.33,-1180.38C149.33,-1180.38 58.67,-1180.38 58.67,-1180.38 54.83,-1180.38 51,-1176.54 51,-1172.71 51,-1172.71 51,-1165.04 51,-1165.04 51,-1161.21 54.83,-1157.38 58.67,-1157.38 58.67,-1157.38 149.33,-1157.38 149.33,-1157.38 153.17,-1157.38 157,-1161.21 157,-1165.04 157,-1165.04 157,-1172.71 157,-1172.71 157,-1176.54 153.17,-1180.38 149.33,-1180.38"/>
<text text-anchor="middle" x="104" y="-1165.18" font-family="Arial" font-size="14.00" fill="#cfffac">models/test.ts</text>
</g>
<!-- models/timer.ts -->
<g id="node22" class="node">
<title>models/timer.ts</title>
<path fill="none" stroke="#cfffac" d="M1330.83,-656.38C1330.83,-656.38 1232.17,-656.38 1232.17,-656.38 1228.33,-656.38 1224.5,-652.54 1224.5,-648.71 1224.5,-648.71 1224.5,-641.04 1224.5,-641.04 1224.5,-637.21 1228.33,-633.38 1232.17,-633.38 1232.17,-633.38 1330.83,-633.38 1330.83,-633.38 1334.67,-633.38 1338.5,-637.21 1338.5,-641.04 1338.5,-641.04 1338.5,-648.71 1338.5,-648.71 1338.5,-652.54 1334.67,-656.38 1330.83,-656.38"/>
<text text-anchor="middle" x="1281.5" y="-641.18" font-family="Arial" font-size="14.00" fill="#cfffac">models/timer.ts</text>
</g>
<!-- node&#45;red/glboal&#45;script.ts -->
<g id="node23" class="node">
<title>node&#45;red/glboal&#45;script.ts</title>
<path fill="none" stroke="#c6c5fe" d="M1000.83,-1313.38C1000.83,-1313.38 846.17,-1313.38 846.17,-1313.38 842.33,-1313.38 838.5,-1309.54 838.5,-1305.71 838.5,-1305.71 838.5,-1298.04 838.5,-1298.04 838.5,-1294.21 842.33,-1290.38 846.17,-1290.38 846.17,-1290.38 1000.83,-1290.38 1000.83,-1290.38 1004.67,-1290.38 1008.5,-1294.21 1008.5,-1298.04 1008.5,-1298.04 1008.5,-1305.71 1008.5,-1305.71 1008.5,-1309.54 1004.67,-1313.38 1000.83,-1313.38"/>
<text text-anchor="middle" x="923.5" y="-1298.18" font-family="Arial" font-size="14.00" fill="#c6c5fe">node&#45;red/glboal&#45;script.ts</text>
</g>
<!-- node&#45;red/red&#45;ui.d.ts -->
<g id="node24" class="node">
<title>node&#45;red/red&#45;ui.d.ts</title>
<path fill="none" stroke="#cfffac" d="M1344.33,-1313.38C1344.33,-1313.38 1218.67,-1313.38 1218.67,-1313.38 1214.83,-1313.38 1211,-1309.54 1211,-1305.71 1211,-1305.71 1211,-1298.04 1211,-1298.04 1211,-1294.21 1214.83,-1290.38 1218.67,-1290.38 1218.67,-1290.38 1344.33,-1290.38 1344.33,-1290.38 1348.17,-1290.38 1352,-1294.21 1352,-1298.04 1352,-1298.04 1352,-1305.71 1352,-1305.71 1352,-1309.54 1348.17,-1313.38 1344.33,-1313.38"/>
<text text-anchor="middle" x="1281.5" y="-1298.18" font-family="Arial" font-size="14.00" fill="#cfffac">node&#45;red/red&#45;ui.d.ts</text>
</g>
<!-- node&#45;red/glboal&#45;script.ts&#45;&gt;node&#45;red/red&#45;ui.d.ts -->
<g id="edge28" class="edge">
<title>node&#45;red/glboal&#45;script.ts&#45;&gt;node&#45;red/red&#45;ui.d.ts</title>
<path fill="none" stroke="#757575" d="M1008.87,-1301.88C1066.96,-1301.88 1143.65,-1301.88 1200.73,-1301.88"/>
<polygon fill="#757575" stroke="#757575" points="1200.79,-1305.38 1210.79,-1301.88 1200.79,-1298.38 1200.79,-1305.38"/>
</g>
<!-- node&#45;red/node&#45;red&#45;registration.ts -->
<g id="node25" class="node">
<title>node&#45;red/node&#45;red&#45;registration.ts</title>
<path fill="none" stroke="#c6c5fe" d="M722.83,-1313.38C722.83,-1313.38 513.17,-1313.38 513.17,-1313.38 509.33,-1313.38 505.5,-1309.54 505.5,-1305.71 505.5,-1305.71 505.5,-1298.04 505.5,-1298.04 505.5,-1294.21 509.33,-1290.38 513.17,-1290.38 513.17,-1290.38 722.83,-1290.38 722.83,-1290.38 726.67,-1290.38 730.5,-1294.21 730.5,-1298.04 730.5,-1298.04 730.5,-1305.71 730.5,-1305.71 730.5,-1309.54 726.67,-1313.38 722.83,-1313.38"/>
<text text-anchor="middle" x="618" y="-1298.18" font-family="Arial" font-size="14.00" fill="#c6c5fe">node&#45;red/node&#45;red&#45;registration.ts</text>
</g>
<!-- node&#45;red/node&#45;red&#45;registration.ts&#45;&gt;node&#45;red/glboal&#45;script.ts -->
<g id="edge29" class="edge">
<title>node&#45;red/node&#45;red&#45;registration.ts&#45;&gt;node&#45;red/glboal&#45;script.ts</title>
<path fill="none" stroke="#757575" d="M730.72,-1301.88C762.61,-1301.88 797.04,-1301.88 827.8,-1301.88"/>
<polygon fill="#757575" stroke="#757575" points="828.09,-1305.38 838.09,-1301.88 828.09,-1298.38 828.09,-1305.38"/>
</g>
<!-- node&#45;red/node&#45;red&#45;registration.ts&#45;&gt;node&#45;red/red&#45;ui.d.ts -->
<g id="edge30" class="edge">
<title>node&#45;red/node&#45;red&#45;registration.ts&#45;&gt;node&#45;red/red&#45;ui.d.ts</title>
<path fill="none" stroke="#757575" d="M686.29,-1290.36C711.8,-1286.53 741.16,-1282.76 768,-1280.88 905.88,-1271.21 940.96,-1273.7 1079,-1280.88 1119.13,-1282.96 1163.58,-1287.37 1200.5,-1291.61"/>
<polygon fill="#757575" stroke="#757575" points="1200.36,-1295.12 1210.7,-1292.8 1201.17,-1288.17 1200.36,-1295.12"/>
</g>
<!-- node&#45;red/register&#45;custom&#45;type.ts -->
<g id="node26" class="node">
<title>node&#45;red/register&#45;custom&#45;type.ts</title>
<path fill="none" stroke="#c6c5fe" d="M460.33,-1333.38C460.33,-1333.38 251.67,-1333.38 251.67,-1333.38 247.83,-1333.38 244,-1329.54 244,-1325.71 244,-1325.71 244,-1318.04 244,-1318.04 244,-1314.21 247.83,-1310.38 251.67,-1310.38 251.67,-1310.38 460.33,-1310.38 460.33,-1310.38 464.17,-1310.38 468,-1314.21 468,-1318.04 468,-1318.04 468,-1325.71 468,-1325.71 468,-1329.54 464.17,-1333.38 460.33,-1333.38"/>
<text text-anchor="middle" x="356" y="-1318.18" font-family="Arial" font-size="14.00" fill="#c6c5fe">node&#45;red/register&#45;custom&#45;type.ts</text>
</g>
<!-- node&#45;red/register&#45;custom&#45;type.ts&#45;&gt;node&#45;red/red&#45;ui.d.ts -->
<g id="edge32" class="edge">
<title>node&#45;red/register&#45;custom&#45;type.ts&#45;&gt;node&#45;red/red&#45;ui.d.ts</title>
<path fill="none" stroke="#757575" d="M468.1,-1325.7C609.95,-1329.74 862.91,-1334.11 1079,-1322.88 1119.13,-1320.79 1163.58,-1316.38 1200.5,-1312.14"/>
<polygon fill="#757575" stroke="#757575" points="1201.17,-1315.59 1210.7,-1310.95 1200.36,-1308.63 1201.17,-1315.59"/>
</g>
<!-- node&#45;red/register&#45;custom&#45;type.ts&#45;&gt;node&#45;red/node&#45;red&#45;registration.ts -->
<g id="edge31" class="edge">
<title>node&#45;red/register&#45;custom&#45;type.ts&#45;&gt;node&#45;red/node&#45;red&#45;registration.ts</title>
<path fill="none" stroke="#757575" d="M468.02,-1313.34C476.94,-1312.65 485.99,-1311.95 494.99,-1311.26"/>
<polygon fill="#757575" stroke="#757575" points="495.41,-1314.74 505.11,-1310.48 494.87,-1307.76 495.41,-1314.74"/>
</g>
<!-- node&#45;red/server.ts -->
<g id="node27" class="node">
<title>node&#45;red/server.ts</title>
<path fill="none" stroke="#c6c5fe" d="M162.83,-1333.38C162.83,-1333.38 45.17,-1333.38 45.17,-1333.38 41.33,-1333.38 37.5,-1329.54 37.5,-1325.71 37.5,-1325.71 37.5,-1318.04 37.5,-1318.04 37.5,-1314.21 41.33,-1310.38 45.17,-1310.38 45.17,-1310.38 162.83,-1310.38 162.83,-1310.38 166.67,-1310.38 170.5,-1314.21 170.5,-1318.04 170.5,-1318.04 170.5,-1325.71 170.5,-1325.71 170.5,-1329.54 166.67,-1333.38 162.83,-1333.38"/>
<text text-anchor="middle" x="104" y="-1318.18" font-family="Arial" font-size="14.00" fill="#c6c5fe">node&#45;red/server.ts</text>
</g>
<!-- node&#45;red/server.ts&#45;&gt;node&#45;red/register&#45;custom&#45;type.ts -->
<g id="edge33" class="edge">
<title>node&#45;red/server.ts&#45;&gt;node&#45;red/register&#45;custom&#45;type.ts</title>
<path fill="none" stroke="#757575" d="M170.68,-1321.88C190.04,-1321.88 211.87,-1321.88 233.56,-1321.88"/>
<polygon fill="#757575" stroke="#757575" points="233.84,-1325.38 243.84,-1321.88 233.84,-1318.38 233.84,-1325.38"/>
</g>
<!-- resources/connection.r.ts -->
<g id="node28" class="node">
<title>resources/connection.r.ts</title>
<path fill="none" stroke="#c6c5fe" d="M436.33,-761.38C436.33,-761.38 275.67,-761.38 275.67,-761.38 271.83,-761.38 268,-757.54 268,-753.71 268,-753.71 268,-746.04 268,-746.04 268,-742.21 271.83,-738.38 275.67,-738.38 275.67,-738.38 436.33,-738.38 436.33,-738.38 440.17,-738.38 444,-742.21 444,-746.04 444,-746.04 444,-753.71 444,-753.71 444,-757.54 440.17,-761.38 436.33,-761.38"/>
<text text-anchor="middle" x="356" y="-746.18" font-family="Arial" font-size="14.00" fill="#c6c5fe">resources/connection.r.ts</text>
</g>
<!-- resources/connection.r.ts&#45;&gt;models/connection.ts -->
<g id="edge34" class="edge">
<title>resources/connection.r.ts&#45;&gt;models/connection.ts</title>
<path fill="none" stroke="#757575" d="M406.63,-761.38C483.53,-778.62 636.36,-810.55 768,-823.88 1045.53,-851.97 1376.68,-849.41 1529.72,-846.2"/>
<polygon fill="#757575" stroke="#757575" points="1530.06,-849.7 1539.98,-845.98 1529.91,-842.7 1530.06,-849.7"/>
</g>
<!-- resources/connection.r.ts&#45;&gt;models/receiver.ts -->
<g id="edge35" class="edge">
<title>resources/connection.r.ts&#45;&gt;models/receiver.ts</title>
<path fill="none" stroke="#757575" d="M379.67,-761.39C408.13,-775.5 458.71,-799.42 504,-814.88 618.36,-853.9 649.69,-855.29 768,-879.88 1195.35,-968.69 1314.08,-991.15 1748,-943.88 1797.83,-938.45 1853.57,-925.44 1892.65,-915.14"/>
<polygon fill="#757575" stroke="#757575" points="1893.96,-918.41 1902.72,-912.45 1892.15,-911.65 1893.96,-918.41"/>
</g>
<!-- resources/connection.r.ts&#45;&gt;models/sender.ts -->
<g id="edge36" class="edge">
<title>resources/connection.r.ts&#45;&gt;models/sender.ts</title>
<path fill="none" stroke="#757575" d="M377.97,-738.37C437.75,-705.82 614.63,-611.25 768,-546.88 935.31,-476.65 1140.84,-410.81 1232.47,-382.48"/>
<polygon fill="#757575" stroke="#757575" points="1233.76,-385.74 1242.29,-379.45 1231.7,-379.05 1233.76,-385.74"/>
</g>
<!-- resources/frontend&#45;update.ts -->
<g id="node29" class="node">
<title>resources/frontend&#45;update.ts</title>
<path fill="none" stroke="#c6c5fe" d="M710.33,-712.38C710.33,-712.38 525.67,-712.38 525.67,-712.38 521.83,-712.38 518,-708.54 518,-704.71 518,-704.71 518,-697.04 518,-697.04 518,-693.21 521.83,-689.38 525.67,-689.38 525.67,-689.38 710.33,-689.38 710.33,-689.38 714.17,-689.38 718,-693.21 718,-697.04 718,-697.04 718,-704.71 718,-704.71 718,-708.54 714.17,-712.38 710.33,-712.38"/>
<text text-anchor="middle" x="618" y="-697.18" font-family="Arial" font-size="14.00" fill="#c6c5fe">resources/frontend&#45;update.ts</text>
</g>
<!-- resources/connection.r.ts&#45;&gt;resources/frontend&#45;update.ts -->
<g id="edge37" class="edge">
<title>resources/connection.r.ts&#45;&gt;resources/frontend&#45;update.ts</title>
<path fill="none" stroke="#757575" d="M418.29,-738.33C456.49,-731.13 505.79,-721.83 545.73,-714.31"/>
<polygon fill="#757575" stroke="#757575" points="546.5,-717.73 555.67,-712.43 545.2,-710.85 546.5,-717.73"/>
</g>
<!-- resources/frontend&#45;update.ts&#45;&gt;models/receiver.ts -->
<g id="edge39" class="edge">
<title>resources/frontend&#45;update.ts&#45;&gt;models/receiver.ts</title>
<path fill="none" stroke="#757575" d="M628.32,-712.41C649.78,-737.98 705.64,-799.13 768,-823.88 1156.75,-978.14 1674.59,-935.02 1866.91,-911.47"/>
<polygon fill="#757575" stroke="#757575" points="1867.42,-914.94 1876.91,-910.23 1866.56,-907.99 1867.42,-914.94"/>
</g>
<!-- resources/frontend&#45;update.ts&#45;&gt;models/inventory/item.ts -->
<g id="edge38" class="edge">
<title>resources/frontend&#45;update.ts&#45;&gt;models/inventory/item.ts</title>
<path fill="none" stroke="#757575" d="M695.92,-689.3C708.43,-685.72 720.91,-681.02 732,-674.88 751.79,-663.91 747.4,-648.24 768,-638.88 840.13,-606.08 1059.03,-601.95 1186.21,-602.49"/>
<polygon fill="#757575" stroke="#757575" points="1186.32,-605.99 1196.34,-602.54 1186.36,-598.99 1186.32,-605.99"/>
</g>
<!-- resources/frontend&#45;update.ts&#45;&gt;models/timer.ts -->
<g id="edge40" class="edge">
<title>resources/frontend&#45;update.ts&#45;&gt;models/timer.ts</title>
<path fill="none" stroke="#757575" d="M671.44,-689.32C690.55,-684.98 712.29,-679.88 732,-674.88 748.1,-670.79 751.59,-667.44 768,-664.88 926.68,-640.09 1116.17,-640.3 1214.28,-642.59"/>
<polygon fill="#757575" stroke="#757575" points="1214.27,-646.09 1224.35,-642.84 1214.44,-639.09 1214.27,-646.09"/>
</g>
<!-- resources/websocket&#45;response.d.ts -->
<g id="node31" class="node">
<title>resources/websocket&#45;response.d.ts</title>
<path fill="none" stroke="#c6c5fe" d="M1037.83,-697.38C1037.83,-697.38 809.17,-697.38 809.17,-697.38 805.33,-697.38 801.5,-693.54 801.5,-689.71 801.5,-689.71 801.5,-682.04 801.5,-682.04 801.5,-678.21 805.33,-674.38 809.17,-674.38 809.17,-674.38 1037.83,-674.38 1037.83,-674.38 1041.67,-674.38 1045.5,-678.21 1045.5,-682.04 1045.5,-682.04 1045.5,-689.71 1045.5,-689.71 1045.5,-693.54 1041.67,-697.38 1037.83,-697.38"/>
<text text-anchor="middle" x="923.5" y="-682.18" font-family="Arial" font-size="14.00" fill="#c6c5fe">resources/websocket&#45;response.d.ts</text>
</g>
<!-- resources/frontend&#45;update.ts&#45;&gt;resources/websocket&#45;response.d.ts -->
<g id="edge41" class="edge">
<title>resources/frontend&#45;update.ts&#45;&gt;resources/websocket&#45;response.d.ts</title>
<path fill="none" stroke="#757575" d="M718.38,-695.96C741.7,-694.81 766.91,-693.57 791.38,-692.36"/>
<polygon fill="#757575" stroke="#757575" points="791.63,-695.85 801.45,-691.86 791.29,-688.86 791.63,-695.85"/>
</g>
<!-- services/generic&#45;node/generic&#45;node&#45;service.ts -->
<g id="node32" class="node">
<title>services/generic&#45;node/generic&#45;node&#45;service.ts</title>
<path fill="none" stroke="#cfffac" d="M1071.33,-579.38C1071.33,-579.38 775.67,-579.38 775.67,-579.38 771.83,-579.38 768,-575.54 768,-571.71 768,-571.71 768,-564.04 768,-564.04 768,-560.21 771.83,-556.38 775.67,-556.38 775.67,-556.38 1071.33,-556.38 1071.33,-556.38 1075.17,-556.38 1079,-560.21 1079,-564.04 1079,-564.04 1079,-571.71 1079,-571.71 1079,-575.54 1075.17,-579.38 1071.33,-579.38"/>
<text text-anchor="middle" x="923.5" y="-564.18" font-family="Arial" font-size="14.00" fill="#cfffac">services/generic&#45;node/generic&#45;node&#45;service.ts</text>
</g>
<!-- resources/frontend&#45;update.ts&#45;&gt;services/generic&#45;node/generic&#45;node&#45;service.ts -->
<g id="edge42" class="edge">
<title>resources/frontend&#45;update.ts&#45;&gt;services/generic&#45;node/generic&#45;node&#45;service.ts</title>
<path fill="none" stroke="#757575" d="M707.09,-689.33C716.09,-685.68 724.62,-680.96 732,-674.88 762.4,-649.82 736.87,-618.02 768,-593.88 772.82,-590.14 777.98,-586.86 783.38,-583.98"/>
<polygon fill="#757575" stroke="#757575" points="785.19,-586.99 792.69,-579.51 782.16,-580.68 785.19,-586.99"/>
</g>
<!-- services/generic&#45;node/last&#45;event&#45;service.ts -->
<g id="node33" class="node">
<title>services/generic&#45;node/last&#45;event&#45;service.ts</title>
<path fill="none" stroke="#c6c5fe" d="M1059.33,-815.38C1059.33,-815.38 787.67,-815.38 787.67,-815.38 783.83,-815.38 780,-811.54 780,-807.71 780,-807.71 780,-800.04 780,-800.04 780,-796.21 783.83,-792.38 787.67,-792.38 787.67,-792.38 1059.33,-792.38 1059.33,-792.38 1063.17,-792.38 1067,-796.21 1067,-800.04 1067,-800.04 1067,-807.71 1067,-807.71 1067,-811.54 1063.17,-815.38 1059.33,-815.38"/>
<text text-anchor="middle" x="923.5" y="-800.18" font-family="Arial" font-size="14.00" fill="#c6c5fe">services/generic&#45;node/last&#45;event&#45;service.ts</text>
</g>
<!-- resources/frontend&#45;update.ts&#45;&gt;services/generic&#45;node/last&#45;event&#45;service.ts -->
<g id="edge43" class="edge">
<title>resources/frontend&#45;update.ts&#45;&gt;services/generic&#45;node/last&#45;event&#45;service.ts</title>
<path fill="none" stroke="#757575" d="M652.93,-712.39C708.17,-731.14 817.5,-768.24 878.59,-788.97"/>
<polygon fill="#757575" stroke="#757575" points="877.73,-792.38 888.32,-792.28 879.98,-785.75 877.73,-792.38"/>
</g>
<!-- services/generic&#45;node/typing/generic&#45;node&#45;type.ts -->
<g id="node34" class="node">
<title>services/generic&#45;node/typing/generic&#45;node&#45;type.ts</title>
<path fill="none" stroke="#c6c5fe" d="M1440.33,-697.38C1440.33,-697.38 1122.67,-697.38 1122.67,-697.38 1118.83,-697.38 1115,-693.54 1115,-689.71 1115,-689.71 1115,-682.04 1115,-682.04 1115,-678.21 1118.83,-674.38 1122.67,-674.38 1122.67,-674.38 1440.33,-674.38 1440.33,-674.38 1444.17,-674.38 1448,-678.21 1448,-682.04 1448,-682.04 1448,-689.71 1448,-689.71 1448,-693.54 1444.17,-697.38 1440.33,-697.38"/>
<text text-anchor="middle" x="1281.5" y="-682.18" font-family="Arial" font-size="14.00" fill="#c6c5fe">services/generic&#45;node/typing/generic&#45;node&#45;type.ts</text>
</g>
<!-- resources/frontend&#45;update.ts&#45;&gt;services/generic&#45;node/typing/generic&#45;node&#45;type.ts -->
<g id="edge44" class="edge">
<title>resources/frontend&#45;update.ts&#45;&gt;services/generic&#45;node/typing/generic&#45;node&#45;type.ts</title>
<path fill="none" stroke="#757575" d="M718.37,-704.68C734.94,-705.18 751.96,-705.61 768,-705.88 906.2,-708.19 940.95,-712.71 1079,-705.88 1109.91,-704.35 1143.4,-701.5 1174.03,-698.43"/>
<polygon fill="#757575" stroke="#757575" points="1174.71,-701.88 1184.3,-697.38 1174,-694.92 1174.71,-701.88"/>
</g>
<!-- services/sender&#45;loader.ts -->
<g id="node35" class="node">
<title>services/sender&#45;loader.ts</title>
<path fill="none" stroke="#c6c5fe" d="M1004.33,-282.38C1004.33,-282.38 842.67,-282.38 842.67,-282.38 838.83,-282.38 835,-278.54 835,-274.71 835,-274.71 835,-267.04 835,-267.04 835,-263.21 838.83,-259.38 842.67,-259.38 842.67,-259.38 1004.33,-259.38 1004.33,-259.38 1008.17,-259.38 1012,-263.21 1012,-267.04 1012,-267.04 1012,-274.71 1012,-274.71 1012,-278.54 1008.17,-282.38 1004.33,-282.38"/>
<text text-anchor="middle" x="923.5" y="-267.18" font-family="Arial" font-size="14.00" fill="#c6c5fe">services/sender&#45;loader.ts</text>
</g>
<!-- resources/frontend&#45;update.ts&#45;&gt;services/sender&#45;loader.ts -->
<g id="edge45" class="edge">
<title>resources/frontend&#45;update.ts&#45;&gt;services/sender&#45;loader.ts</title>
<path fill="none" stroke="#757575" d="M651.67,-689.31C676.64,-679 710.34,-661.67 732,-636.88 760.34,-604.43 749.44,-585.75 768,-546.88 815.16,-448.1 882.54,-335.82 910.07,-290.95"/>
<polygon fill="#757575" stroke="#757575" points="913.05,-292.77 915.32,-282.42 907.09,-289.1 913.05,-292.77"/>
</g>
<!-- resources/control&#45;keys.ws.ts -->
<g id="node30" class="node">
<title>resources/control&#45;keys.ws.ts</title>
<path fill="none" stroke="#cfffac" d="M194.83,-1374.38C194.83,-1374.38 13.17,-1374.38 13.17,-1374.38 9.33,-1374.38 5.5,-1370.54 5.5,-1366.71 5.5,-1366.71 5.5,-1359.04 5.5,-1359.04 5.5,-1355.21 9.33,-1351.38 13.17,-1351.38 13.17,-1351.38 194.83,-1351.38 194.83,-1351.38 198.67,-1351.38 202.5,-1355.21 202.5,-1359.04 202.5,-1359.04 202.5,-1366.71 202.5,-1366.71 202.5,-1370.54 198.67,-1374.38 194.83,-1374.38"/>
<text text-anchor="middle" x="104" y="-1359.18" font-family="Arial" font-size="14.00" fill="#cfffac">resources/control&#45;keys.ws.ts</text>
</g>
<!-- resources/websocket&#45;response.d.ts&#45;&gt;models/receiver.ts -->
<g id="edge68" class="edge">
<title>resources/websocket&#45;response.d.ts&#45;&gt;models/receiver.ts</title>
<path fill="none" stroke="#757575" d="M1014.88,-697.42C1215.33,-723.53 1684.51,-787.57 1748,-822.88 1769.19,-834.66 1763.19,-851.42 1784,-863.88 1808.91,-878.79 1839.33,-887.69 1866.88,-893"/>
<polygon fill="#757575" stroke="#757575" points="1866.42,-896.48 1876.88,-894.8 1867.66,-889.59 1866.42,-896.48"/>
</g>
<!-- resources/websocket&#45;response.d.ts&#45;&gt;models/inventory/item.ts -->
<g id="edge67" class="edge">
<title>resources/websocket&#45;response.d.ts&#45;&gt;models/inventory/item.ts</title>
<path fill="none" stroke="#757575" d="M954.03,-674.28C991.05,-660.2 1056.76,-636.75 1115,-623.88 1137.87,-618.82 1162.83,-614.97 1186.26,-612.05"/>
<polygon fill="#757575" stroke="#757575" points="1186.68,-615.53 1196.2,-610.86 1185.85,-608.58 1186.68,-615.53"/>
</g>
<!-- resources/websocket&#45;response.d.ts&#45;&gt;models/sender.ts -->
<g id="edge69" class="edge">
<title>resources/websocket&#45;response.d.ts&#45;&gt;models/sender.ts</title>
<path fill="none" stroke="#757575" d="M946.72,-674.24C977.89,-657.38 1035.66,-624.18 1079,-587.88 1156.68,-522.81 1233.32,-428.7 1265.13,-387.95"/>
<polygon fill="#757575" stroke="#757575" points="1268.04,-389.92 1271.4,-379.87 1262.5,-385.63 1268.04,-389.92"/>
</g>
<!-- resources/websocket&#45;response.d.ts&#45;&gt;models/timer.ts -->
<g id="edge70" class="edge">
<title>resources/websocket&#45;response.d.ts&#45;&gt;models/timer.ts</title>
<path fill="none" stroke="#757575" d="M1024.61,-674.35C1085.28,-667.36 1160.98,-658.64 1214.25,-652.51"/>
<polygon fill="#757575" stroke="#757575" points="1214.73,-655.97 1224.27,-651.35 1213.93,-649.02 1214.73,-655.97"/>
</g>
<!-- resources/websocket&#45;response.d.ts&#45;&gt;services/generic&#45;node/typing/generic&#45;node&#45;type.ts -->
<g id="edge71" class="edge">
<title>resources/websocket&#45;response.d.ts&#45;&gt;services/generic&#45;node/typing/generic&#45;node&#45;type.ts</title>
<path fill="none" stroke="#757575" d="M1045.52,-685.88C1064.58,-685.88 1084.6,-685.88 1104.6,-685.88"/>
<polygon fill="#757575" stroke="#757575" points="1104.72,-689.38 1114.72,-685.88 1104.72,-682.38 1104.72,-689.38"/>
</g>
<!-- services/generic&#45;node/last&#45;event&#45;service.ts&#45;&gt;services/generic&#45;node/typing/generic&#45;node&#45;type.ts -->
<g id="edge79" class="edge">
<title>services/generic&#45;node/last&#45;event&#45;service.ts&#45;&gt;services/generic&#45;node/typing/generic&#45;node&#45;type.ts</title>
<path fill="none" stroke="#757575" d="M1051.87,-792.32C1061.5,-788.54 1070.69,-783.8 1079,-777.88 1106.21,-758.49 1087.68,-731.12 1115,-711.88 1120.59,-707.94 1126.55,-704.5 1132.77,-701.51"/>
<polygon fill="#757575" stroke="#757575" points="1134.29,-704.67 1142.04,-697.45 1131.48,-698.26 1134.29,-704.67"/>
</g>
<!-- services/generic&#45;node/generic&#45;node&#45;constants.ts -->
<g id="node50" class="node">
<title>services/generic&#45;node/generic&#45;node&#45;constants.ts</title>
<path fill="none" stroke="#cfffac" d="M1436.83,-815.38C1436.83,-815.38 1126.17,-815.38 1126.17,-815.38 1122.33,-815.38 1118.5,-811.54 1118.5,-807.71 1118.5,-807.71 1118.5,-800.04 1118.5,-800.04 1118.5,-796.21 1122.33,-792.38 1126.17,-792.38 1126.17,-792.38 1436.83,-792.38 1436.83,-792.38 1440.67,-792.38 1444.5,-796.21 1444.5,-800.04 1444.5,-800.04 1444.5,-807.71 1444.5,-807.71 1444.5,-811.54 1440.67,-815.38 1436.83,-815.38"/>
<text text-anchor="middle" x="1281.5" y="-800.18" font-family="Arial" font-size="14.00" fill="#cfffac">services/generic&#45;node/generic&#45;node&#45;constants.ts</text>
</g>
<!-- services/generic&#45;node/last&#45;event&#45;service.ts&#45;&gt;services/generic&#45;node/generic&#45;node&#45;constants.ts -->
<g id="edge77" class="edge">
<title>services/generic&#45;node/last&#45;event&#45;service.ts&#45;&gt;services/generic&#45;node/generic&#45;node&#45;constants.ts</title>
<path fill="none" stroke="#757575" d="M1067.25,-803.88C1080.79,-803.88 1094.62,-803.88 1108.39,-803.88"/>
<polygon fill="#757575" stroke="#757575" points="1108.41,-807.38 1118.41,-803.88 1108.41,-800.38 1108.41,-807.38"/>
</g>
<!-- services/generic&#45;node/node&#45;event.ts -->
<g id="node51" class="node">
<title>services/generic&#45;node/node&#45;event.ts</title>
<path fill="none" stroke="#c6c5fe" d="M1732.33,-737.38C1732.33,-737.38 1499.67,-737.38 1499.67,-737.38 1495.83,-737.38 1492,-733.54 1492,-729.71 1492,-729.71 1492,-722.04 1492,-722.04 1492,-718.21 1495.83,-714.38 1499.67,-714.38 1499.67,-714.38 1732.33,-714.38 1732.33,-714.38 1736.17,-714.38 1740,-718.21 1740,-722.04 1740,-722.04 1740,-729.71 1740,-729.71 1740,-733.54 1736.17,-737.38 1732.33,-737.38"/>
<text text-anchor="middle" x="1616" y="-722.18" font-family="Arial" font-size="14.00" fill="#c6c5fe">services/generic&#45;node/node&#45;event.ts</text>
</g>
<!-- services/generic&#45;node/last&#45;event&#45;service.ts&#45;&gt;services/generic&#45;node/node&#45;event.ts -->
<g id="edge78" class="edge">
<title>services/generic&#45;node/last&#45;event&#45;service.ts&#45;&gt;services/generic&#45;node/node&#45;event.ts</title>
<path fill="none" stroke="#757575" d="M1026.39,-792.37C1153.71,-777.98 1370.89,-753.45 1502.84,-738.55"/>
<polygon fill="#757575" stroke="#757575" points="1503.43,-742 1512.98,-737.4 1502.65,-735.05 1503.43,-742"/>
</g>
<!-- services/generic&#45;node/element&#45;node.ts -->
<g id="node49" class="node">
<title>services/generic&#45;node/element&#45;node.ts</title>
<path fill="none" stroke="#cfffac" d="M1740.33,-696.38C1740.33,-696.38 1491.67,-696.38 1491.67,-696.38 1487.83,-696.38 1484,-692.54 1484,-688.71 1484,-688.71 1484,-681.04 1484,-681.04 1484,-677.21 1487.83,-673.38 1491.67,-673.38 1491.67,-673.38 1740.33,-673.38 1740.33,-673.38 1744.17,-673.38 1748,-677.21 1748,-681.04 1748,-681.04 1748,-688.71 1748,-688.71 1748,-692.54 1744.17,-696.38 1740.33,-696.38"/>
<text text-anchor="middle" x="1616" y="-681.18" font-family="Arial" font-size="14.00" fill="#cfffac">services/generic&#45;node/element&#45;node.ts</text>
</g>
<!-- services/generic&#45;node/typing/generic&#45;node&#45;type.ts&#45;&gt;services/generic&#45;node/element&#45;node.ts -->
<g id="edge82" class="edge">
<title>services/generic&#45;node/typing/generic&#45;node&#45;type.ts&#45;&gt;services/generic&#45;node/element&#45;node.ts</title>
<path fill="none" stroke="#757575" d="M1448.26,-685.38C1456.71,-685.35 1465.15,-685.33 1473.51,-685.3"/>
<polygon fill="#757575" stroke="#757575" points="1473.67,-688.8 1483.66,-685.27 1473.64,-681.8 1473.67,-688.8"/>
</g>
<!-- services/generic&#45;node/typing/generic&#45;node&#45;type.ts&#45;&gt;services/generic&#45;node/node&#45;event.ts -->
<g id="edge83" class="edge">
<title>services/generic&#45;node/typing/generic&#45;node&#45;type.ts&#45;&gt;services/generic&#45;node/node&#45;event.ts</title>
<path fill="none" stroke="#757575" d="M1378.23,-697.39C1419.25,-702.33 1467.32,-708.11 1509.38,-713.17"/>
<polygon fill="#757575" stroke="#757575" points="1509.03,-716.65 1519.37,-714.37 1509.86,-709.7 1509.03,-716.65"/>
</g>
<!-- services/generic&#45;node/typing/node&#45;options.ts -->
<g id="node53" class="node">
<title>services/generic&#45;node/typing/node&#45;options.ts</title>
<path fill="none" stroke="#cfffac" d="M2086.83,-656.38C2086.83,-656.38 1801.17,-656.38 1801.17,-656.38 1797.33,-656.38 1793.5,-652.54 1793.5,-648.71 1793.5,-648.71 1793.5,-641.04 1793.5,-641.04 1793.5,-637.21 1797.33,-633.38 1801.17,-633.38 1801.17,-633.38 2086.83,-633.38 2086.83,-633.38 2090.67,-633.38 2094.5,-637.21 2094.5,-641.04 2094.5,-641.04 2094.5,-648.71 2094.5,-648.71 2094.5,-652.54 2090.67,-656.38 2086.83,-656.38"/>
<text text-anchor="middle" x="1944" y="-641.18" font-family="Arial" font-size="14.00" fill="#cfffac">services/generic&#45;node/typing/node&#45;options.ts</text>
</g>
<!-- services/generic&#45;node/typing/generic&#45;node&#45;type.ts&#45;&gt;services/generic&#45;node/typing/node&#45;options.ts -->
<g id="edge84" class="edge">
<title>services/generic&#45;node/typing/generic&#45;node&#45;type.ts&#45;&gt;services/generic&#45;node/typing/node&#45;options.ts</title>
<path fill="none" stroke="#757575" d="M1375.93,-674.35C1409.91,-670.51 1448.65,-666.54 1484,-663.88 1583.36,-656.4 1695.06,-651.7 1783.39,-648.84"/>
<polygon fill="#757575" stroke="#757575" points="1783.61,-652.34 1793.5,-648.52 1783.39,-645.34 1783.61,-652.34"/>
</g>
<!-- services/sender&#45;loader.ts&#45;&gt;models/sound.ts -->
<g id="edge89" class="edge">
<title>services/sender&#45;loader.ts&#45;&gt;models/sound.ts</title>
<path fill="none" stroke="#757575" d="M1012.2,-270.47C1122.36,-269.97 1317.17,-269.17 1484,-268.88 1765.82,-268.37 1873.22,-240.12 2104,-401.88 2291.07,-532.99 2443.68,-773.13 2486.49,-844.41"/>
<polygon fill="#757575" stroke="#757575" points="2483.67,-846.52 2491.79,-853.32 2489.69,-842.94 2483.67,-846.52"/>
</g>
<!-- services/sender&#45;loader.ts&#45;&gt;models/sender.ts -->
<g id="edge88" class="edge">
<title>services/sender&#45;loader.ts&#45;&gt;models/sender.ts</title>
<path fill="none" stroke="#757575" d="M1009.25,-282.44C1032.06,-286.29 1056.61,-291.09 1079,-296.88 1137.56,-312 1203.27,-336.66 1243.26,-352.58"/>
<polygon fill="#757575" stroke="#757575" points="1242.03,-355.85 1252.61,-356.32 1244.63,-349.35 1242.03,-355.85"/>
</g>
<!-- util/tsc&#45;compiler.ts -->
<g id="node57" class="node">
<title>util/tsc&#45;compiler.ts</title>
<path fill="none" stroke="#c6c5fe" d="M1339.33,-103.38C1339.33,-103.38 1223.67,-103.38 1223.67,-103.38 1219.83,-103.38 1216,-99.54 1216,-95.71 1216,-95.71 1216,-88.04 1216,-88.04 1216,-84.21 1219.83,-80.38 1223.67,-80.38 1223.67,-80.38 1339.33,-80.38 1339.33,-80.38 1343.17,-80.38 1347,-84.21 1347,-88.04 1347,-88.04 1347,-95.71 1347,-95.71 1347,-99.54 1343.17,-103.38 1339.33,-103.38"/>
<text text-anchor="middle" x="1281.5" y="-88.18" font-family="Arial" font-size="14.00" fill="#c6c5fe">util/tsc&#45;compiler.ts</text>
</g>
<!-- services/sender&#45;loader.ts&#45;&gt;util/tsc&#45;compiler.ts -->
<g id="edge90" class="edge">
<title>services/sender&#45;loader.ts&#45;&gt;util/tsc&#45;compiler.ts</title>
<path fill="none" stroke="#757575" d="M947.58,-259.27C1009.1,-228.34 1177.09,-143.87 1248.11,-108.16"/>
<polygon fill="#757575" stroke="#757575" points="1250.11,-111.08 1257.47,-103.46 1246.96,-104.82 1250.11,-111.08"/>
</g>
<!-- resources/inventory.r.ts -->
<g id="node36" class="node">
<title>resources/inventory.r.ts</title>
<path fill="none" stroke="#c6c5fe" d="M430.33,-596.38C430.33,-596.38 281.67,-596.38 281.67,-596.38 277.83,-596.38 274,-592.54 274,-588.71 274,-588.71 274,-581.04 274,-581.04 274,-577.21 277.83,-573.38 281.67,-573.38 281.67,-573.38 430.33,-573.38 430.33,-573.38 434.17,-573.38 438,-577.21 438,-581.04 438,-581.04 438,-588.71 438,-588.71 438,-592.54 434.17,-596.38 430.33,-596.38"/>
<text text-anchor="middle" x="356" y="-581.18" font-family="Arial" font-size="14.00" fill="#c6c5fe">resources/inventory.r.ts</text>
</g>
<!-- resources/inventory.r.ts&#45;&gt;models/inventory/item.ts -->
<g id="edge46" class="edge">
<title>resources/inventory.r.ts&#45;&gt;models/inventory/item.ts</title>
<path fill="none" stroke="#757575" d="M438.16,-594C459.55,-596.02 482.62,-597.86 504,-598.88 605.22,-603.69 642.24,-645.91 732,-598.88 756.9,-585.83 743.1,-559.92 768,-546.88 890.43,-482.73 942.09,-527.88 1079,-546.88 1136.22,-554.81 1200.04,-574.86 1240.22,-588.92"/>
<polygon fill="#757575" stroke="#757575" points="1239.06,-592.23 1249.66,-592.27 1241.4,-585.63 1239.06,-592.23"/>
</g>
<!-- resources/inventory.r.ts&#45;&gt;models/inventory/order.ts -->
<g id="edge47" class="edge">
<title>resources/inventory.r.ts&#45;&gt;models/inventory/order.ts</title>
<path fill="none" stroke="#757575" d="M438.36,-575.78C514.93,-566.2 632.39,-548.86 732,-522.88 748.46,-518.58 751.24,-512.81 768,-509.88 904.15,-486.05 940.95,-502.94 1079,-509.88 1232.83,-517.61 1410.56,-537.74 1517.78,-551.12"/>
<polygon fill="#757575" stroke="#757575" points="1517.58,-554.62 1527.93,-552.39 1518.45,-547.67 1517.58,-554.62"/>
</g>
<!-- resources/inventory.r.ts&#45;&gt;util/log.ts -->
<g id="edge50" class="edge">
<title>resources/inventory.r.ts&#45;&gt;util/log.ts</title>
<path fill="none" stroke="#757575" d="M417.08,-573.31C517.6,-553.42 710.98,-512.56 732,-488.88 812.95,-397.67 694,-313.8 768,-216.88 869.53,-83.89 950.99,-103.98 1115,-70.88 1529.23,12.72 2045.28,-86.03 2198.88,-119.54"/>
<polygon fill="#757575" stroke="#757575" points="2198.37,-123.01 2208.89,-121.74 2199.88,-116.17 2198.37,-123.01"/>
</g>
<!-- resources/inventory.r.ts&#45;&gt;resources/frontend&#45;update.ts -->
<g id="edge48" class="edge">
<title>resources/inventory.r.ts&#45;&gt;resources/frontend&#45;update.ts</title>
<path fill="none" stroke="#757575" d="M372.4,-596.66C398.22,-615.86 452.47,-653.83 504,-674.88 515.54,-679.59 528.12,-683.55 540.54,-686.83"/>
<polygon fill="#757575" stroke="#757575" points="539.91,-690.28 550.46,-689.33 541.62,-683.49 539.91,-690.28"/>
</g>
<!-- services/image&#45;converter.ts -->
<g id="node37" class="node">
<title>services/image&#45;converter.ts</title>
<path fill="none" stroke="#cfffac" d="M705.83,-480.38C705.83,-480.38 530.17,-480.38 530.17,-480.38 526.33,-480.38 522.5,-476.54 522.5,-472.71 522.5,-472.71 522.5,-465.04 522.5,-465.04 522.5,-461.21 526.33,-457.38 530.17,-457.38 530.17,-457.38 705.83,-457.38 705.83,-457.38 709.67,-457.38 713.5,-461.21 713.5,-465.04 713.5,-465.04 713.5,-472.71 713.5,-472.71 713.5,-476.54 709.67,-480.38 705.83,-480.38"/>
<text text-anchor="middle" x="618" y="-465.18" font-family="Arial" font-size="14.00" fill="#cfffac">services/image&#45;converter.ts</text>
</g>
<!-- resources/inventory.r.ts&#45;&gt;services/image&#45;converter.ts -->
<g id="edge49" class="edge">
<title>resources/inventory.r.ts&#45;&gt;services/image&#45;converter.ts</title>
<path fill="none" stroke="#757575" d="M372.4,-573.09C398.22,-553.9 452.47,-515.92 504,-494.88 515.54,-490.16 528.12,-486.21 540.54,-482.92"/>
<polygon fill="#757575" stroke="#757575" points="541.62,-486.26 550.46,-480.42 539.91,-479.47 541.62,-486.26"/>
</g>
<!-- resources/log.r.ts -->
<g id="node38" class="node">
<title>resources/log.r.ts</title>
<path fill="none" stroke="#cfffac" d="M159.83,-1415.38C159.83,-1415.38 48.17,-1415.38 48.17,-1415.38 44.33,-1415.38 40.5,-1411.54 40.5,-1407.71 40.5,-1407.71 40.5,-1400.04 40.5,-1400.04 40.5,-1396.21 44.33,-1392.38 48.17,-1392.38 48.17,-1392.38 159.83,-1392.38 159.83,-1392.38 163.67,-1392.38 167.5,-1396.21 167.5,-1400.04 167.5,-1400.04 167.5,-1407.71 167.5,-1407.71 167.5,-1411.54 163.67,-1415.38 159.83,-1415.38"/>
<text text-anchor="middle" x="104" y="-1400.18" font-family="Arial" font-size="14.00" fill="#cfffac">resources/log.r.ts</text>
</g>
<!-- resources/receiver.r.ts -->
<g id="node39" class="node">
<title>resources/receiver.r.ts</title>
<path fill="none" stroke="#c6c5fe" d="M427.33,-1083.38C427.33,-1083.38 284.67,-1083.38 284.67,-1083.38 280.83,-1083.38 277,-1079.54 277,-1075.71 277,-1075.71 277,-1068.04 277,-1068.04 277,-1064.21 280.83,-1060.38 284.67,-1060.38 284.67,-1060.38 427.33,-1060.38 427.33,-1060.38 431.17,-1060.38 435,-1064.21 435,-1068.04 435,-1068.04 435,-1075.71 435,-1075.71 435,-1079.54 431.17,-1083.38 427.33,-1083.38"/>
<text text-anchor="middle" x="356" y="-1068.18" font-family="Arial" font-size="14.00" fill="#c6c5fe">resources/receiver.r.ts</text>
</g>
<!-- resources/receiver.r.ts&#45;&gt;models/receiver&#45;data.ts -->
<g id="edge51" class="edge">
<title>resources/receiver.r.ts&#45;&gt;models/receiver&#45;data.ts</title>
<path fill="none" stroke="#757575" d="M382.66,-1083.46C411.51,-1095.89 460.08,-1115.04 504,-1123.88 686.64,-1160.64 736.19,-1147.88 922.5,-1147.88 922.5,-1147.88 922.5,-1147.88 1617,-1147.88 1807.78,-1147.88 2030.42,-1127.35 2152.42,-1114.34"/>
<polygon fill="#757575" stroke="#757575" points="2152.9,-1117.81 2162.47,-1113.26 2152.15,-1110.85 2152.9,-1117.81"/>
</g>
<!-- resources/receiver.r.ts&#45;&gt;models/receiver.ts -->
<g id="edge53" class="edge">
<title>resources/receiver.r.ts&#45;&gt;models/receiver.ts</title>
<path fill="none" stroke="#757575" d="M435.21,-1071.88C544.34,-1071.88 748.48,-1071.88 922.5,-1071.88 922.5,-1071.88 922.5,-1071.88 1282.5,-1071.88 1529,-1071.88 1811.2,-958.88 1908.17,-916.59"/>
<polygon fill="#757575" stroke="#757575" points="1909.75,-919.72 1917.5,-912.5 1906.94,-913.31 1909.75,-919.72"/>
</g>
<!-- resources/receiver.r.ts&#45;&gt;models/receiver&#45;event.ts -->
<g id="edge52" class="edge">
<title>resources/receiver.r.ts&#45;&gt;models/receiver&#45;event.ts</title>
<path fill="none" stroke="#757575" d="M435.1,-1080.45C544.1,-1091.66 748.09,-1109.88 922.5,-1109.88 922.5,-1109.88 922.5,-1109.88 1282.5,-1109.88 1618.47,-1109.88 2016.29,-1043.36 2174.3,-1014.25"/>
<polygon fill="#757575" stroke="#757575" points="2175.16,-1017.65 2184.35,-1012.39 2173.88,-1010.77 2175.16,-1017.65"/>
</g>
<!-- resources/receiver.r.ts&#45;&gt;util/log.ts -->
<g id="edge55" class="edge">
<title>resources/receiver.r.ts&#45;&gt;util/log.ts</title>
<path fill="none" stroke="#757575" d="M364.79,-1060.07C385.01,-1028.9 439.54,-941.25 468,-860.88 495.38,-783.56 457.45,-747.41 504,-679.88 571.88,-581.39 667.68,-637.73 732,-536.88 801.12,-428.49 675.31,-338.95 768,-249.88 820.97,-198.97 1956.31,-143.29 2198.72,-131.96"/>
<polygon fill="#757575" stroke="#757575" points="2199.11,-135.44 2208.93,-131.48 2198.78,-128.45 2199.11,-135.44"/>
</g>
<!-- resources/receiver.r.ts&#45;&gt;resources/frontend&#45;update.ts -->
<g id="edge54" class="edge">
<title>resources/receiver.r.ts&#45;&gt;resources/frontend&#45;update.ts</title>
<path fill="none" stroke="#757575" d="M365.07,-1060.37C401.99,-1007.68 555.1,-789.21 602.77,-721.19"/>
<polygon fill="#757575" stroke="#757575" points="605.9,-722.82 608.77,-712.62 600.16,-718.8 605.9,-722.82"/>
</g>
<!-- resources/sender.r.ts -->
<g id="node40" class="node">
<title>resources/sender.r.ts</title>
<path fill="none" stroke="#c6c5fe" d="M424.33,-284.38C424.33,-284.38 287.67,-284.38 287.67,-284.38 283.83,-284.38 280,-280.54 280,-276.71 280,-276.71 280,-269.04 280,-269.04 280,-265.21 283.83,-261.38 287.67,-261.38 287.67,-261.38 424.33,-261.38 424.33,-261.38 428.17,-261.38 432,-265.21 432,-269.04 432,-269.04 432,-276.71 432,-276.71 432,-280.54 428.17,-284.38 424.33,-284.38"/>
<text text-anchor="middle" x="356" y="-269.18" font-family="Arial" font-size="14.00" fill="#c6c5fe">resources/sender.r.ts</text>
</g>
<!-- resources/sender.r.ts&#45;&gt;models/battery.ts -->
<g id="edge56" class="edge">
<title>resources/sender.r.ts&#45;&gt;models/battery.ts</title>
<path fill="none" stroke="#757575" d="M366.95,-261.36C388.79,-237.08 443.81,-181.19 504,-160.88 697.37,-95.61 1329.06,-171.56 1543.23,-200"/>
<polygon fill="#757575" stroke="#757575" points="1543.04,-203.5 1553.41,-201.35 1543.96,-196.56 1543.04,-203.5"/>
</g>
<!-- resources/sender.r.ts&#45;&gt;models/transformation.ts -->
<g id="edge60" class="edge">
<title>resources/sender.r.ts&#45;&gt;models/transformation.ts</title>
<path fill="none" stroke="#757575" d="M369.5,-284.69C393.39,-306.41 448.15,-352.2 504,-370.88 546.22,-385 2067.87,-436.87 2104,-462.88 2138.97,-488.04 2122.43,-513.54 2140,-552.88 2171.54,-623.46 2213.55,-704.96 2233.12,-742.28"/>
<polygon fill="#757575" stroke="#757575" points="2230.05,-743.97 2237.8,-751.19 2236.25,-740.71 2230.05,-743.97"/>
</g>
<!-- resources/sender.r.ts&#45;&gt;models/event.ts -->
<g id="edge57" class="edge">
<title>resources/sender.r.ts&#45;&gt;models/event.ts</title>
<path fill="none" stroke="#757575" d="M369.5,-261.25C393.4,-239.91 448.18,-195.2 504,-178.88 601.26,-150.44 630.86,-172.54 732,-178.88 1037.7,-198.02 1399.45,-254.08 1547.12,-278.4"/>
<polygon fill="#757575" stroke="#757575" points="1546.94,-281.92 1557.38,-280.09 1548.09,-275.01 1546.94,-281.92"/>
</g>
<!-- resources/sender.r.ts&#45;&gt;util/log.ts -->
<g id="edge66" class="edge">
<title>resources/sender.r.ts&#45;&gt;util/log.ts</title>
<path fill="none" stroke="#757575" d="M365.9,-261.04C386.87,-233.97 442.3,-167.18 504,-131.88 671.74,-35.9 729.25,-13.88 922.5,-13.88 922.5,-13.88 922.5,-13.88 1617,-13.88 1833.71,-13.88 1897.98,29.33 2104,-37.88 2151.4,-53.34 2198.11,-89.35 2223.78,-111.46"/>
<polygon fill="#757575" stroke="#757575" points="2221.53,-114.14 2231.36,-118.1 2226.15,-108.88 2221.53,-114.14"/>
</g>
<!-- resources/sender.r.ts&#45;&gt;models/sender.ts -->
<g id="edge58" class="edge">
<title>resources/sender.r.ts&#45;&gt;models/sender.ts</title>
<path fill="none" stroke="#757575" d="M376.42,-261.15C435.25,-227.27 614.67,-136.41 732,-211.88 764.45,-232.75 737.19,-267.64 768,-290.88 835.86,-342.06 1082.72,-359.63 1207.39,-365.33"/>
<polygon fill="#757575" stroke="#757575" points="1207.46,-368.84 1217.61,-365.78 1207.77,-361.84 1207.46,-368.84"/>
</g>
<!-- resources/sender.r.ts&#45;&gt;models/timer.ts -->
<g id="edge59" class="edge">
<title>resources/sender.r.ts&#45;&gt;models/timer.ts</title>
<path fill="none" stroke="#757575" d="M366.2,-284.7C387.37,-311.01 442.5,-374.48 504,-404.88 596.44,-450.57 631.65,-424.15 732,-447.88 888.07,-484.78 956.93,-442.86 1079,-546.88 1107.76,-571.38 1084.47,-601.62 1115,-623.88 1143.09,-644.35 1181.21,-650.24 1213.79,-650.73"/>
<polygon fill="#757575" stroke="#757575" points="1214.16,-654.23 1224.15,-650.7 1214.15,-647.23 1214.16,-654.23"/>
</g>
<!-- resources/sender.r.ts&#45;&gt;resources/frontend&#45;update.ts -->
<g id="edge61" class="edge">
<title>resources/sender.r.ts&#45;&gt;resources/frontend&#45;update.ts</title>
<path fill="none" stroke="#757575" d="M364.67,-284.67C382.9,-312.76 430.09,-385.87 468,-447.88 520.41,-533.59 580.44,-637.29 605.29,-680.47"/>
<polygon fill="#757575" stroke="#757575" points="602.29,-682.27 610.3,-689.2 608.35,-678.78 602.29,-682.27"/>
</g>
<!-- resources/sender.r.ts&#45;&gt;services/generic&#45;node/generic&#45;node&#45;service.ts -->
<g id="edge62" class="edge">
<title>resources/sender.r.ts&#45;&gt;services/generic&#45;node/generic&#45;node&#45;service.ts</title>
<path fill="none" stroke="#757575" d="M432.3,-281.35C534.27,-293.27 706.55,-315.19 732,-329.88 824.23,-383.09 889.15,-499.66 912.73,-547.14"/>
<polygon fill="#757575" stroke="#757575" points="909.6,-548.71 917.12,-556.17 915.89,-545.65 909.6,-548.71"/>
</g>
<!-- resources/sender.r.ts&#45;&gt;services/sender&#45;loader.ts -->
<g id="edge64" class="edge">
<title>resources/sender.r.ts&#45;&gt;services/sender&#45;loader.ts</title>
<path fill="none" stroke="#757575" d="M432.09,-272.61C533.05,-272.25 712.71,-271.62 824.29,-271.22"/>
<polygon fill="#757575" stroke="#757575" points="824.55,-274.72 834.54,-271.19 824.52,-267.72 824.55,-274.72"/>
</g>
<!-- services/mqtt&#45;api.ts -->
<g id="node41" class="node">
<title>services/mqtt&#45;api.ts</title>
<path fill="none" stroke="#cfffac" d="M680.33,-244.38C680.33,-244.38 555.67,-244.38 555.67,-244.38 551.83,-244.38 548,-240.54 548,-236.71 548,-236.71 548,-229.04 548,-229.04 548,-225.21 551.83,-221.38 555.67,-221.38 555.67,-221.38 680.33,-221.38 680.33,-221.38 684.17,-221.38 688,-225.21 688,-229.04 688,-229.04 688,-236.71 688,-236.71 688,-240.54 684.17,-244.38 680.33,-244.38"/>
<text text-anchor="middle" x="618" y="-229.18" font-family="Arial" font-size="14.00" fill="#cfffac">services/mqtt&#45;api.ts</text>
</g>
<!-- resources/sender.r.ts&#45;&gt;services/mqtt&#45;api.ts -->
<g id="edge63" class="edge">
<title>resources/sender.r.ts&#45;&gt;services/mqtt&#45;api.ts</title>
<path fill="none" stroke="#757575" d="M431.85,-261.36C464.89,-256.28 503.76,-250.3 537.33,-245.13"/>
<polygon fill="#757575" stroke="#757575" points="538.22,-248.54 547.57,-243.56 537.15,-241.62 538.22,-248.54"/>
</g>
<!-- services/sender&#45;trigger&#45;service.ts -->
<g id="node42" class="node">
<title>services/sender&#45;trigger&#45;service.ts</title>
<path fill="none" stroke="#cfffac" d="M724.33,-362.38C724.33,-362.38 511.67,-362.38 511.67,-362.38 507.83,-362.38 504,-358.54 504,-354.71 504,-354.71 504,-347.04 504,-347.04 504,-343.21 507.83,-339.38 511.67,-339.38 511.67,-339.38 724.33,-339.38 724.33,-339.38 728.17,-339.38 732,-343.21 732,-347.04 732,-347.04 732,-354.71 732,-354.71 732,-358.54 728.17,-362.38 724.33,-362.38"/>
<text text-anchor="middle" x="618" y="-347.18" font-family="Arial" font-size="14.00" fill="#cfffac">services/sender&#45;trigger&#45;service.ts</text>
</g>
<!-- resources/sender.r.ts&#45;&gt;services/sender&#45;trigger&#45;service.ts -->
<g id="edge65" class="edge">
<title>resources/sender.r.ts&#45;&gt;services/sender&#45;trigger&#45;service.ts</title>
<path fill="none" stroke="#757575" d="M386.52,-284.44C415.97,-295.71 462.67,-312.85 504,-324.88 519.14,-329.28 535.6,-333.43 551.15,-337.05"/>
<polygon fill="#757575" stroke="#757575" points="550.68,-340.54 561.21,-339.36 552.25,-333.72 550.68,-340.54"/>
</g>
<!-- resources/socket&#45;events.ts -->
<g id="node43" class="node">
<title>resources/socket&#45;events.ts</title>
<path fill="none" stroke="#cfffac" d="M190.33,-1456.38C190.33,-1456.38 17.67,-1456.38 17.67,-1456.38 13.83,-1456.38 10,-1452.54 10,-1448.71 10,-1448.71 10,-1441.04 10,-1441.04 10,-1437.21 13.83,-1433.38 17.67,-1433.38 17.67,-1433.38 190.33,-1433.38 190.33,-1433.38 194.17,-1433.38 198,-1437.21 198,-1441.04 198,-1441.04 198,-1448.71 198,-1448.71 198,-1452.54 194.17,-1456.38 190.33,-1456.38"/>
<text text-anchor="middle" x="104" y="-1441.18" font-family="Arial" font-size="14.00" fill="#cfffac">resources/socket&#45;events.ts</text>
</g>
<!-- resources/transformation.r.ts -->
<g id="node44" class="node">
<title>resources/transformation.r.ts</title>
<path fill="none" stroke="#cfffac" d="M194.83,-1497.38C194.83,-1497.38 13.17,-1497.38 13.17,-1497.38 9.33,-1497.38 5.5,-1493.54 5.5,-1489.71 5.5,-1489.71 5.5,-1482.04 5.5,-1482.04 5.5,-1478.21 9.33,-1474.38 13.17,-1474.38 13.17,-1474.38 194.83,-1474.38 194.83,-1474.38 198.67,-1474.38 202.5,-1478.21 202.5,-1482.04 202.5,-1482.04 202.5,-1489.71 202.5,-1489.71 202.5,-1493.54 198.67,-1497.38 194.83,-1497.38"/>
<text text-anchor="middle" x="104" y="-1482.18" font-family="Arial" font-size="14.00" fill="#cfffac">resources/transformation.r.ts</text>
</g>
<!-- resources/wiring.r.ts -->
<g id="node45" class="node">
<title>resources/wiring.r.ts</title>
<path fill="none" stroke="#cfffac" d="M167.83,-1538.38C167.83,-1538.38 40.17,-1538.38 40.17,-1538.38 36.33,-1538.38 32.5,-1534.54 32.5,-1530.71 32.5,-1530.71 32.5,-1523.04 32.5,-1523.04 32.5,-1519.21 36.33,-1515.38 40.17,-1515.38 40.17,-1515.38 167.83,-1515.38 167.83,-1515.38 171.67,-1515.38 175.5,-1519.21 175.5,-1523.04 175.5,-1523.04 175.5,-1530.71 175.5,-1530.71 175.5,-1534.54 171.67,-1538.38 167.83,-1538.38"/>
<text text-anchor="middle" x="104" y="-1523.18" font-family="Arial" font-size="14.00" fill="#cfffac">resources/wiring.r.ts</text>
</g>
<!-- services/connection&#45;service.ts -->
<g id="node46" class="node">
<title>services/connection&#45;service.ts</title>
<path fill="none" stroke="#c6c5fe" d="M200.33,-1007.38C200.33,-1007.38 7.67,-1007.38 7.67,-1007.38 3.83,-1007.38 0,-1003.54 0,-999.71 0,-999.71 0,-992.04 0,-992.04 0,-988.21 3.83,-984.38 7.67,-984.38 7.67,-984.38 200.33,-984.38 200.33,-984.38 204.17,-984.38 208,-988.21 208,-992.04 208,-992.04 208,-999.71 208,-999.71 208,-1003.54 204.17,-1007.38 200.33,-1007.38"/>
<text text-anchor="middle" x="104" y="-992.18" font-family="Arial" font-size="14.00" fill="#c6c5fe">services/connection&#45;service.ts</text>
</g>
<!-- services/connection&#45;service.ts&#45;&gt;models/connection&#45;response.ts -->
<g id="edge72" class="edge">
<title>services/connection&#45;service.ts&#45;&gt;models/connection&#45;response.ts</title>
<path fill="none" stroke="#757575" d="M112.02,-1007.69C129.95,-1036.75 180.53,-1111.91 244,-1147.88 391.2,-1231.28 447.82,-1223.88 617,-1223.88 617,-1223.88 617,-1223.88 2246,-1223.88 2410.44,-1223.88 2465.01,-1248.56 2613,-1176.88 2670.77,-1148.89 2719.64,-1088.38 2742.36,-1056.87"/>
<polygon fill="#757575" stroke="#757575" points="2745.4,-1058.63 2748.31,-1048.44 2739.69,-1054.59 2745.4,-1058.63"/>
</g>
<!-- services/connection&#45;service.ts&#45;&gt;models/connection.ts -->
<g id="edge73" class="edge">
<title>services/connection&#45;service.ts&#45;&gt;models/connection.ts</title>
<path fill="none" stroke="#757575" d="M208.15,-1006.66C436.62,-1027.2 1000.52,-1059.49 1448,-933.88 1502.55,-918.56 1559.19,-883.19 1590.49,-861.63"/>
<polygon fill="#757575" stroke="#757575" points="1592.8,-864.29 1598.99,-855.69 1588.79,-858.55 1592.8,-864.29"/>
</g>
<!-- services/connection&#45;service.ts&#45;&gt;models/receiver&#45;data.ts -->
<g id="edge74" class="edge">
<title>services/connection&#45;service.ts&#45;&gt;models/receiver&#45;data.ts</title>
<path fill="none" stroke="#757575" d="M118.21,-1007.46C141.81,-1027.57 193.52,-1068.99 244,-1091.88 399.71,-1162.47 446.04,-1185.88 617,-1185.88 617,-1185.88 617,-1185.88 1617,-1185.88 1834.17,-1185.88 1890.6,-1186.19 2104,-1145.88 2137.87,-1139.48 2175.2,-1128.05 2202.8,-1118.72"/>
<polygon fill="#757575" stroke="#757575" points="2204.17,-1121.95 2212.5,-1115.4 2201.9,-1115.33 2204.17,-1121.95"/>
</g>
<!-- services/connection&#45;service.ts&#45;&gt;models/transformation.ts -->
<g id="edge75" class="edge">
<title>services/connection&#45;service.ts&#45;&gt;models/transformation.ts</title>
<path fill="none" stroke="#757575" d="M195.8,-984.34C412.46,-956.78 976.81,-884.9 1448,-823.88 1597.36,-804.53 1633.92,-792.45 1784,-779.88 1909.5,-769.36 2054.81,-765.35 2147.97,-763.82"/>
<polygon fill="#757575" stroke="#757575" points="2148.29,-767.32 2158.23,-763.66 2148.17,-760.32 2148.29,-767.32"/>
</g>
<!-- services/timer&#45;factory.ts -->
<g id="node47" class="node">
<title>services/timer&#45;factory.ts</title>
<path fill="none" stroke="#c6c5fe" d="M431.83,-852.38C431.83,-852.38 280.17,-852.38 280.17,-852.38 276.33,-852.38 272.5,-848.54 272.5,-844.71 272.5,-844.71 272.5,-837.04 272.5,-837.04 272.5,-833.21 276.33,-829.38 280.17,-829.38 280.17,-829.38 431.83,-829.38 431.83,-829.38 435.67,-829.38 439.5,-833.21 439.5,-837.04 439.5,-837.04 439.5,-844.71 439.5,-844.71 439.5,-848.54 435.67,-852.38 431.83,-852.38"/>
<text text-anchor="middle" x="356" y="-837.18" font-family="Arial" font-size="14.00" fill="#c6c5fe">services/timer&#45;factory.ts</text>
</g>
<!-- services/connection&#45;service.ts&#45;&gt;services/timer&#45;factory.ts -->
<g id="edge76" class="edge">
<title>services/connection&#45;service.ts&#45;&gt;services/timer&#45;factory.ts</title>
<path fill="none" stroke="#757575" d="M123.79,-984.23C167.6,-957.06 276.68,-889.43 327.78,-857.75"/>
<polygon fill="#757575" stroke="#757575" points="329.68,-860.69 336.33,-852.45 325.99,-854.75 329.68,-860.69"/>
</g>
<!-- services/timer&#45;factory.ts&#45;&gt;models/connection&#45;response.ts -->
<g id="edge91" class="edge">
<title>services/timer&#45;factory.ts&#45;&gt;models/connection&#45;response.ts</title>
<path fill="none" stroke="#757575" d="M407.73,-852.39C485.14,-869.69 637.5,-902.73 768,-924.88 1470.19,-1044.05 2329.81,-1043.94 2638.62,-1039.36"/>
<polygon fill="#757575" stroke="#757575" points="2638.98,-1042.86 2648.93,-1039.2 2638.87,-1035.86 2638.98,-1042.86"/>
</g>
<!-- services/timer&#45;factory.ts&#45;&gt;models/timer.ts -->
<g id="edge92" class="edge">
<title>services/timer&#45;factory.ts&#45;&gt;models/timer.ts</title>
<path fill="none" stroke="#757575" d="M434.29,-829.35C608.95,-802.88 1023.24,-737.62 1079,-705.88 1100.07,-693.88 1093.55,-676.19 1115,-664.88 1145.15,-648.98 1182.58,-643.48 1214.21,-642.17"/>
<polygon fill="#757575" stroke="#757575" points="1214.36,-645.66 1224.26,-641.88 1214.17,-638.67 1214.36,-645.66"/>
</g>
<!-- services/timer&#45;factory.ts&#45;&gt;resources/frontend&#45;update.ts -->
<g id="edge93" class="edge">
<title>services/timer&#45;factory.ts&#45;&gt;resources/frontend&#45;update.ts</title>
<path fill="none" stroke="#757575" d="M374.92,-829.33C408.18,-807.97 478.4,-763.26 504,-749.88 527.93,-737.36 555.76,-725.27 577.81,-716.23"/>
<polygon fill="#757575" stroke="#757575" points="579.24,-719.43 587.19,-712.42 576.6,-712.94 579.24,-719.43"/>
</g>
<!-- services/event&#45;scheduler.ts -->
<g id="node48" class="node">
<title>services/event&#45;scheduler.ts</title>
<path fill="none" stroke="#cfffac" d="M191.33,-1579.38C191.33,-1579.38 16.67,-1579.38 16.67,-1579.38 12.83,-1579.38 9,-1575.54 9,-1571.71 9,-1571.71 9,-1564.04 9,-1564.04 9,-1560.21 12.83,-1556.38 16.67,-1556.38 16.67,-1556.38 191.33,-1556.38 191.33,-1556.38 195.17,-1556.38 199,-1560.21 199,-1564.04 199,-1564.04 199,-1571.71 199,-1571.71 199,-1575.54 195.17,-1579.38 191.33,-1579.38"/>
<text text-anchor="middle" x="104" y="-1564.18" font-family="Arial" font-size="14.00" fill="#cfffac">services/event&#45;scheduler.ts</text>
</g>
<!-- services/generic&#45;node/typing/node&#45;event&#45;data.ts -->
<g id="node52" class="node">
<title>services/generic&#45;node/typing/node&#45;event&#45;data.ts</title>
<path fill="none" stroke="#cfffac" d="M2096.33,-737.38C2096.33,-737.38 1791.67,-737.38 1791.67,-737.38 1787.83,-737.38 1784,-733.54 1784,-729.71 1784,-729.71 1784,-722.04 1784,-722.04 1784,-718.21 1787.83,-714.38 1791.67,-714.38 1791.67,-714.38 2096.33,-714.38 2096.33,-714.38 2100.17,-714.38 2104,-718.21 2104,-722.04 2104,-722.04 2104,-729.71 2104,-729.71 2104,-733.54 2100.17,-737.38 2096.33,-737.38"/>
<text text-anchor="middle" x="1944" y="-722.18" font-family="Arial" font-size="14.00" fill="#cfffac">services/generic&#45;node/typing/node&#45;event&#45;data.ts</text>
</g>
<!-- services/generic&#45;node/node&#45;event.ts&#45;&gt;services/generic&#45;node/typing/node&#45;event&#45;data.ts -->
<g id="edge80" class="edge">
<title>services/generic&#45;node/node&#45;event.ts&#45;&gt;services/generic&#45;node/typing/node&#45;event&#45;data.ts</title>
<path fill="none" stroke="#757575" d="M1740.25,-725.88C1751.15,-725.88 1762.31,-725.88 1773.51,-725.88"/>
<polygon fill="#757575" stroke="#757575" points="1773.8,-729.38 1783.8,-725.88 1773.8,-722.38 1773.8,-729.38"/>
</g>
<!-- services/generic&#45;node/node&#45;event.ts&#45;&gt;services/generic&#45;node/typing/node&#45;options.ts -->
<g id="edge81" class="edge">
<title>services/generic&#45;node/node&#45;event.ts&#45;&gt;services/generic&#45;node/typing/node&#45;options.ts</title>
<path fill="none" stroke="#757575" d="M1700.15,-714.34C1716.11,-711.62 1732.63,-708.45 1748,-704.88 1801.43,-692.44 1861.58,-673.09 1900.77,-659.74"/>
<polygon fill="#757575" stroke="#757575" points="1901.94,-663.04 1910.26,-656.49 1899.67,-656.42 1901.94,-663.04"/>
</g>
<!-- services/image&#45;converter.test.ts -->
<g id="node54" class="node">
<title>services/image&#45;converter.test.ts</title>
<path fill="none" stroke="#c6c5fe" d="M457.33,-480.38C457.33,-480.38 254.67,-480.38 254.67,-480.38 250.83,-480.38 247,-476.54 247,-472.71 247,-472.71 247,-465.04 247,-465.04 247,-461.21 250.83,-457.38 254.67,-457.38 254.67,-457.38 457.33,-457.38 457.33,-457.38 461.17,-457.38 465,-461.21 465,-465.04 465,-465.04 465,-472.71 465,-472.71 465,-476.54 461.17,-480.38 457.33,-480.38"/>
<text text-anchor="middle" x="356" y="-465.18" font-family="Arial" font-size="14.00" fill="#c6c5fe">services/image&#45;converter.test.ts</text>
</g>
<!-- services/image&#45;converter.test.ts&#45;&gt;services/image&#45;converter.ts -->
<g id="edge85" class="edge">
<title>services/image&#45;converter.test.ts&#45;&gt;services/image&#45;converter.ts</title>
<path fill="none" stroke="#757575" d="M465,-468.88C480.57,-468.88 496.57,-468.88 512.07,-468.88"/>
<polygon fill="#757575" stroke="#757575" points="512.18,-472.38 522.18,-468.88 512.18,-465.38 512.18,-472.38"/>
</g>
<!-- services/mqtt&#45;tasmota.ts -->
<g id="node55" class="node">
<title>services/mqtt&#45;tasmota.ts</title>
<path fill="none" stroke="#c6c5fe" d="M1693.83,-495.38C1693.83,-495.38 1538.17,-495.38 1538.17,-495.38 1534.33,-495.38 1530.5,-491.54 1530.5,-487.71 1530.5,-487.71 1530.5,-480.04 1530.5,-480.04 1530.5,-476.21 1534.33,-472.38 1538.17,-472.38 1538.17,-472.38 1693.83,-472.38 1693.83,-472.38 1697.67,-472.38 1701.5,-476.21 1701.5,-480.04 1701.5,-480.04 1701.5,-487.71 1701.5,-487.71 1701.5,-491.54 1697.67,-495.38 1693.83,-495.38"/>
<text text-anchor="middle" x="1616" y="-480.18" font-family="Arial" font-size="14.00" fill="#c6c5fe">services/mqtt&#45;tasmota.ts</text>
</g>
<!-- services/mqtt&#45;tasmota.ts&#45;&gt;services/generic&#45;node/typing/node&#45;options.ts -->
<g id="edge86" class="edge">
<title>services/mqtt&#45;tasmota.ts&#45;&gt;services/generic&#45;node/typing/node&#45;options.ts</title>
<path fill="none" stroke="#757575" d="M1701.69,-495.4C1717.43,-499.01 1733.48,-503.73 1748,-509.88 1818.25,-539.64 1888.97,-597.04 1922.67,-626.48"/>
<polygon fill="#757575" stroke="#757575" points="1920.61,-629.33 1930.42,-633.33 1925.24,-624.09 1920.61,-629.33"/>
</g>
<!-- services/mqtt&#45;types.ts -->
<g id="node56" class="node">
<title>services/mqtt&#45;types.ts</title>
<path fill="none" stroke="#cfffac" d="M2013.83,-495.38C2013.83,-495.38 1874.17,-495.38 1874.17,-495.38 1870.33,-495.38 1866.5,-491.54 1866.5,-487.71 1866.5,-487.71 1866.5,-480.04 1866.5,-480.04 1866.5,-476.21 1870.33,-472.38 1874.17,-472.38 1874.17,-472.38 2013.83,-472.38 2013.83,-472.38 2017.67,-472.38 2021.5,-476.21 2021.5,-480.04 2021.5,-480.04 2021.5,-487.71 2021.5,-487.71 2021.5,-491.54 2017.67,-495.38 2013.83,-495.38"/>
<text text-anchor="middle" x="1944" y="-480.18" font-family="Arial" font-size="14.00" fill="#cfffac">services/mqtt&#45;types.ts</text>
</g>
<!-- services/mqtt&#45;tasmota.ts&#45;&gt;services/mqtt&#45;types.ts -->
<g id="edge87" class="edge">
<title>services/mqtt&#45;tasmota.ts&#45;&gt;services/mqtt&#45;types.ts</title>
<path fill="none" stroke="#757575" d="M1701.8,-483.88C1749.36,-483.88 1808.55,-483.88 1856.39,-483.88"/>
<polygon fill="#757575" stroke="#757575" points="1856.42,-487.38 1866.42,-483.88 1856.42,-480.38 1856.42,-487.38"/>
</g>
<!-- util/tsc&#45;compiler.ts&#45;&gt;util/log.ts -->
<g id="edge98" class="edge">
<title>util/tsc&#45;compiler.ts&#45;&gt;util/log.ts</title>
<path fill="none" stroke="#757575" d="M1347.27,-94.12C1437.2,-97.27 1604.97,-103.24 1748,-108.88 1914.14,-115.43 2111.53,-124.03 2198.74,-127.87"/>
<polygon fill="#757575" stroke="#757575" points="2198.68,-131.37 2208.82,-128.32 2198.99,-124.38 2198.68,-131.37"/>
</g>
<!-- util/file.ts -->
<g id="node61" class="node">
<title>util/file.ts</title>
<path fill="none" stroke="#cfffac" d="M1643.83,-141.38C1643.83,-141.38 1588.17,-141.38 1588.17,-141.38 1584.33,-141.38 1580.5,-137.54 1580.5,-133.71 1580.5,-133.71 1580.5,-126.04 1580.5,-126.04 1580.5,-122.21 1584.33,-118.38 1588.17,-118.38 1588.17,-118.38 1643.83,-118.38 1643.83,-118.38 1647.67,-118.38 1651.5,-122.21 1651.5,-126.04 1651.5,-126.04 1651.5,-133.71 1651.5,-133.71 1651.5,-137.54 1647.67,-141.38 1643.83,-141.38"/>
<text text-anchor="middle" x="1616" y="-126.18" font-family="Arial" font-size="14.00" fill="#cfffac">util/file.ts</text>
</g>
<!-- util/tsc&#45;compiler.ts&#45;&gt;util/file.ts -->
<g id="edge97" class="edge">
<title>util/tsc&#45;compiler.ts&#45;&gt;util/file.ts</title>
<path fill="none" stroke="#757575" d="M1347,-99.25C1412.61,-106.75 1512.56,-118.17 1570.05,-124.74"/>
<polygon fill="#757575" stroke="#757575" points="1569.94,-128.25 1580.27,-125.91 1570.73,-121.29 1569.94,-128.25"/>
</g>
<!-- services/tuya.spec.ts -->
<g id="node58" class="node">
<title>services/tuya.spec.ts</title>
<path fill="none" stroke="#c6c5fe" d="M170.83,-1620.38C170.83,-1620.38 37.17,-1620.38 37.17,-1620.38 33.33,-1620.38 29.5,-1616.54 29.5,-1612.71 29.5,-1612.71 29.5,-1605.04 29.5,-1605.04 29.5,-1601.21 33.33,-1597.38 37.17,-1597.38 37.17,-1597.38 170.83,-1597.38 170.83,-1597.38 174.67,-1597.38 178.5,-1601.21 178.5,-1605.04 178.5,-1605.04 178.5,-1612.71 178.5,-1612.71 178.5,-1616.54 174.67,-1620.38 170.83,-1620.38"/>
<text text-anchor="middle" x="104" y="-1605.18" font-family="Arial" font-size="14.00" fill="#c6c5fe">services/tuya.spec.ts</text>
</g>
<!-- services/tuya.ts -->
<g id="node59" class="node">
<title>services/tuya.ts</title>
<path fill="none" stroke="#cfffac" d="M405.33,-1620.38C405.33,-1620.38 306.67,-1620.38 306.67,-1620.38 302.83,-1620.38 299,-1616.54 299,-1612.71 299,-1612.71 299,-1605.04 299,-1605.04 299,-1601.21 302.83,-1597.38 306.67,-1597.38 306.67,-1597.38 405.33,-1597.38 405.33,-1597.38 409.17,-1597.38 413,-1601.21 413,-1605.04 413,-1605.04 413,-1612.71 413,-1612.71 413,-1616.54 409.17,-1620.38 405.33,-1620.38"/>
<text text-anchor="middle" x="356" y="-1605.18" font-family="Arial" font-size="14.00" fill="#cfffac">services/tuya.ts</text>
</g>
<!-- services/tuya.spec.ts&#45;&gt;services/tuya.ts -->
<g id="edge94" class="edge">
<title>services/tuya.spec.ts&#45;&gt;services/tuya.ts</title>
<path fill="none" stroke="#757575" d="M178.66,-1608.88C213.51,-1608.88 254.8,-1608.88 288.67,-1608.88"/>
<polygon fill="#757575" stroke="#757575" points="288.92,-1612.38 298.92,-1608.88 288.92,-1605.38 288.92,-1612.38"/>
</g>
<!-- util/reconnecting&#45;socket.ts -->
<g id="node62" class="node">
<title>util/reconnecting&#45;socket.ts</title>
<path fill="none" stroke="#cfffac" d="M186.83,-1661.38C186.83,-1661.38 21.17,-1661.38 21.17,-1661.38 17.33,-1661.38 13.5,-1657.54 13.5,-1653.71 13.5,-1653.71 13.5,-1646.04 13.5,-1646.04 13.5,-1642.21 17.33,-1638.38 21.17,-1638.38 21.17,-1638.38 186.83,-1638.38 186.83,-1638.38 190.67,-1638.38 194.5,-1642.21 194.5,-1646.04 194.5,-1646.04 194.5,-1653.71 194.5,-1653.71 194.5,-1657.54 190.67,-1661.38 186.83,-1661.38"/>
<text text-anchor="middle" x="104" y="-1646.18" font-family="Arial" font-size="14.00" fill="#cfffac">util/reconnecting&#45;socket.ts</text>
</g>
<!-- util/resolvable&#45;promise.ts -->
<g id="node63" class="node">
<title>util/resolvable&#45;promise.ts</title>
<path fill="none" stroke="#cfffac" d="M183.33,-1702.38C183.33,-1702.38 24.67,-1702.38 24.67,-1702.38 20.83,-1702.38 17,-1698.54 17,-1694.71 17,-1694.71 17,-1687.04 17,-1687.04 17,-1683.21 20.83,-1679.38 24.67,-1679.38 24.67,-1679.38 183.33,-1679.38 183.33,-1679.38 187.17,-1679.38 191,-1683.21 191,-1687.04 191,-1687.04 191,-1694.71 191,-1694.71 191,-1698.54 187.17,-1702.38 183.33,-1702.38"/>
<text text-anchor="middle" x="104" y="-1687.18" font-family="Arial" font-size="14.00" fill="#cfffac">util/resolvable&#45;promise.ts</text>
</g>
</g>
</svg>
