<?xml version="1.0" encoding="UTF-8" standalone="no"?>
<!DOCTYPE svg PUBLIC "-//W3C//DTD SVG 1.1//EN"
 "http://www.w3.org/Graphics/SVG/1.1/DTD/svg11.dtd">
<!-- Generated by graphviz version 5.0.1 (20220820.1526)
 -->
<!-- Title: G Pages: 1 -->
<svg width="2495pt" height="1204pt"
 viewBox="0.00 0.00 2495.20 1204.32" xmlns="http://www.w3.org/2000/svg" xmlns:xlink="http://www.w3.org/1999/xlink">
<g id="graph0" class="graph" transform="scale(1 1) rotate(0) translate(21.6 1182.72)">
<title>G</title>
<polygon fill="#111111" stroke="none" points="-21.6,21.6 -21.6,-1182.72 2473.6,-1182.72 2473.6,21.6 -21.6,21.6"/>
<!-- models/battery.ts -->
<g id="node1" class="node">
<title>models/battery.ts</title>
<path fill="none" stroke="#cfffac" d="M1459.33,-309.12C1459.33,-309.12 1349.67,-309.12 1349.67,-309.12 1345.83,-309.12 1342,-305.28 1342,-301.45 1342,-301.45 1342,-293.78 1342,-293.78 1342,-289.95 1345.83,-286.12 1349.67,-286.12 1349.67,-286.12 1459.33,-286.12 1459.33,-286.12 1463.17,-286.12 1467,-289.95 1467,-293.78 1467,-293.78 1467,-301.45 1467,-301.45 1467,-305.28 1463.17,-309.12 1459.33,-309.12"/>
<text text-anchor="middle" x="1404.5" y="-293.92" font-family="Arial" font-size="14.00" fill="#cfffac">models/battery.ts</text>
</g>
<!-- models/connection&#45;response.ts -->
<g id="node2" class="node">
<title>models/connection&#45;response.ts</title>
<path fill="none" stroke="#cfffac" d="M2444.33,-387.12C2444.33,-387.12 2243.67,-387.12 2243.67,-387.12 2239.83,-387.12 2236,-383.28 2236,-379.45 2236,-379.45 2236,-371.78 2236,-371.78 2236,-367.95 2239.83,-364.12 2243.67,-364.12 2243.67,-364.12 2444.33,-364.12 2444.33,-364.12 2448.17,-364.12 2452,-367.95 2452,-371.78 2452,-371.78 2452,-379.45 2452,-379.45 2452,-383.28 2448.17,-387.12 2444.33,-387.12"/>
<text text-anchor="middle" x="2344" y="-371.92" font-family="Arial" font-size="14.00" fill="#cfffac">models/connection&#45;response.ts</text>
</g>
<!-- models/connection.ts -->
<g id="node3" class="node">
<title>models/connection.ts</title>
<path fill="none" stroke="#c6c5fe" d="M1472.83,-188.12C1472.83,-188.12 1336.17,-188.12 1336.17,-188.12 1332.33,-188.12 1328.5,-184.28 1328.5,-180.45 1328.5,-180.45 1328.5,-172.78 1328.5,-172.78 1328.5,-168.95 1332.33,-165.12 1336.17,-165.12 1336.17,-165.12 1472.83,-165.12 1472.83,-165.12 1476.67,-165.12 1480.5,-168.95 1480.5,-172.78 1480.5,-172.78 1480.5,-180.45 1480.5,-180.45 1480.5,-184.28 1476.67,-188.12 1472.83,-188.12"/>
<text text-anchor="middle" x="1404.5" y="-172.92" font-family="Arial" font-size="14.00" fill="#c6c5fe">models/connection.ts</text>
</g>
<!-- models/receiver&#45;data.ts -->
<g id="node4" class="node">
<title>models/receiver&#45;data.ts</title>
<path fill="none" stroke="#c6c5fe" d="M1906.83,-214.12C1906.83,-214.12 1757.17,-214.12 1757.17,-214.12 1753.33,-214.12 1749.5,-210.28 1749.5,-206.45 1749.5,-206.45 1749.5,-198.78 1749.5,-198.78 1749.5,-194.95 1753.33,-191.12 1757.17,-191.12 1757.17,-191.12 1906.83,-191.12 1906.83,-191.12 1910.67,-191.12 1914.5,-194.95 1914.5,-198.78 1914.5,-198.78 1914.5,-206.45 1914.5,-206.45 1914.5,-210.28 1910.67,-214.12 1906.83,-214.12"/>
<text text-anchor="middle" x="1832" y="-198.92" font-family="Arial" font-size="14.00" fill="#c6c5fe">models/receiver&#45;data.ts</text>
</g>
<!-- models/connection.ts&#45;&gt;models/receiver&#45;data.ts -->
<g id="edge1" class="edge">
<title>models/connection.ts&#45;&gt;models/receiver&#45;data.ts</title>
<path fill="none" stroke="#757575" d="M1480.59,-181.2C1552.74,-185.61 1661.91,-192.28 1739.2,-197.01"/>
<polygon fill="#757575" stroke="#757575" points="1739.21,-200.51 1749.41,-197.63 1739.64,-193.53 1739.21,-200.51"/>
</g>
<!-- models/receiver.ts -->
<g id="node5" class="node">
<title>models/receiver.ts</title>
<path fill="none" stroke="#c6c5fe" d="M1672.83,-115.12C1672.83,-115.12 1554.17,-115.12 1554.17,-115.12 1550.33,-115.12 1546.5,-111.28 1546.5,-107.45 1546.5,-107.45 1546.5,-99.78 1546.5,-99.78 1546.5,-95.95 1550.33,-92.12 1554.17,-92.12 1554.17,-92.12 1672.83,-92.12 1672.83,-92.12 1676.67,-92.12 1680.5,-95.95 1680.5,-99.78 1680.5,-99.78 1680.5,-107.45 1680.5,-107.45 1680.5,-111.28 1676.67,-115.12 1672.83,-115.12"/>
<text text-anchor="middle" x="1613.5" y="-99.92" font-family="Arial" font-size="14.00" fill="#c6c5fe">models/receiver.ts</text>
</g>
<!-- models/connection.ts&#45;&gt;models/receiver.ts -->
<g id="edge2" class="edge">
<title>models/connection.ts&#45;&gt;models/receiver.ts</title>
<path fill="none" stroke="#757575" d="M1437.09,-165.06C1463.48,-155.45 1502.13,-141.47 1536,-129.62 1546.54,-125.93 1557.93,-122.02 1568.61,-118.38"/>
<polygon fill="#757575" stroke="#757575" points="1569.84,-121.66 1578.18,-115.13 1567.59,-115.03 1569.84,-121.66"/>
</g>
<!-- models/transformation.ts -->
<g id="node6" class="node">
<title>models/transformation.ts</title>
<path fill="none" stroke="#cfffac" d="M1910.83,-269.12C1910.83,-269.12 1753.17,-269.12 1753.17,-269.12 1749.33,-269.12 1745.5,-265.28 1745.5,-261.45 1745.5,-261.45 1745.5,-253.78 1745.5,-253.78 1745.5,-249.95 1749.33,-246.12 1753.17,-246.12 1753.17,-246.12 1910.83,-246.12 1910.83,-246.12 1914.67,-246.12 1918.5,-249.95 1918.5,-253.78 1918.5,-253.78 1918.5,-261.45 1918.5,-261.45 1918.5,-265.28 1914.67,-269.12 1910.83,-269.12"/>
<text text-anchor="middle" x="1832" y="-253.92" font-family="Arial" font-size="14.00" fill="#cfffac">models/transformation.ts</text>
</g>
<!-- models/connection.ts&#45;&gt;models/transformation.ts -->
<g id="edge3" class="edge">
<title>models/connection.ts&#45;&gt;models/transformation.ts</title>
<path fill="none" stroke="#757575" d="M1466.01,-188.14C1543.65,-202.91 1678.09,-228.51 1760.34,-244.16"/>
<polygon fill="#757575" stroke="#757575" points="1759.87,-247.64 1770.35,-246.07 1761.18,-240.76 1759.87,-247.64"/>
</g>
<!-- models/transformer.ts -->
<g id="node7" class="node">
<title>models/transformer.ts</title>
<path fill="none" stroke="#c6c5fe" d="M1683.33,-385.12C1683.33,-385.12 1543.67,-385.12 1543.67,-385.12 1539.83,-385.12 1536,-381.28 1536,-377.45 1536,-377.45 1536,-369.78 1536,-369.78 1536,-365.95 1539.83,-362.12 1543.67,-362.12 1543.67,-362.12 1683.33,-362.12 1683.33,-362.12 1687.17,-362.12 1691,-365.95 1691,-369.78 1691,-369.78 1691,-377.45 1691,-377.45 1691,-381.28 1687.17,-385.12 1683.33,-385.12"/>
<text text-anchor="middle" x="1613.5" y="-369.92" font-family="Arial" font-size="14.00" fill="#c6c5fe">models/transformer.ts</text>
</g>
<!-- models/connection.ts&#45;&gt;models/transformer.ts -->
<g id="edge4" class="edge">
<title>models/connection.ts&#45;&gt;models/transformer.ts</title>
<path fill="none" stroke="#757575" d="M1480.59,-186.58C1487.48,-189.21 1494.08,-192.51 1500,-196.62 1529.36,-216.98 1579.82,-310.16 1601.78,-352.53"/>
<polygon fill="#757575" stroke="#757575" points="1598.8,-354.38 1606.48,-361.68 1605.02,-351.18 1598.8,-354.38"/>
</g>
<!-- models/receiver&#45;data.ts&#45;&gt;models/connection&#45;response.ts -->
<g id="edge8" class="edge">
<title>models/receiver&#45;data.ts&#45;&gt;models/connection&#45;response.ts</title>
<path fill="none" stroke="#757575" d="M1869.19,-214.15C1889.22,-220.61 1914.55,-228.89 1937,-236.62 1953.09,-242.15 1956.77,-244.52 1973,-249.62 2072.66,-280.94 2101.67,-275.33 2200,-310.62 2239.43,-324.77 2283.04,-345.34 2311.61,-359.54"/>
<polygon fill="#757575" stroke="#757575" points="2310.18,-362.74 2320.69,-364.09 2313.32,-356.48 2310.18,-362.74"/>
</g>
<!-- models/evaluated&#45;data.ts -->
<g id="node8" class="node">
<title>models/evaluated&#45;data.ts</title>
<path fill="none" stroke="#c6c5fe" d="M2166.33,-200.12C2166.33,-200.12 2006.67,-200.12 2006.67,-200.12 2002.83,-200.12 1999,-196.28 1999,-192.45 1999,-192.45 1999,-184.78 1999,-184.78 1999,-180.95 2002.83,-177.12 2006.67,-177.12 2006.67,-177.12 2166.33,-177.12 2166.33,-177.12 2170.17,-177.12 2174,-180.95 2174,-184.78 2174,-184.78 2174,-192.45 2174,-192.45 2174,-196.28 2170.17,-200.12 2166.33,-200.12"/>
<text text-anchor="middle" x="2086.5" y="-184.92" font-family="Arial" font-size="14.00" fill="#c6c5fe">models/evaluated&#45;data.ts</text>
</g>
<!-- models/receiver&#45;data.ts&#45;&gt;models/evaluated&#45;data.ts -->
<g id="edge9" class="edge">
<title>models/receiver&#45;data.ts&#45;&gt;models/evaluated&#45;data.ts</title>
<path fill="none" stroke="#757575" d="M1914.63,-198.09C1938.31,-196.78 1964.4,-195.33 1988.9,-193.97"/>
<polygon fill="#757575" stroke="#757575" points="1989.14,-197.46 1998.93,-193.42 1988.75,-190.47 1989.14,-197.46"/>
</g>
<!-- models/sound.ts -->
<g id="node13" class="node">
<title>models/sound.ts</title>
<path fill="none" stroke="#cfffac" d="M2139.83,-343.12C2139.83,-343.12 2033.17,-343.12 2033.17,-343.12 2029.33,-343.12 2025.5,-339.28 2025.5,-335.45 2025.5,-335.45 2025.5,-327.78 2025.5,-327.78 2025.5,-323.95 2029.33,-320.12 2033.17,-320.12 2033.17,-320.12 2139.83,-320.12 2139.83,-320.12 2143.67,-320.12 2147.5,-323.95 2147.5,-327.78 2147.5,-327.78 2147.5,-335.45 2147.5,-335.45 2147.5,-339.28 2143.67,-343.12 2139.83,-343.12"/>
<text text-anchor="middle" x="2086.5" y="-327.92" font-family="Arial" font-size="14.00" fill="#cfffac">models/sound.ts</text>
</g>
<!-- models/receiver&#45;data.ts&#45;&gt;models/sound.ts -->
<g id="edge10" class="edge">
<title>models/receiver&#45;data.ts&#45;&gt;models/sound.ts</title>
<path fill="none" stroke="#757575" d="M1893.15,-214.18C1908.58,-219.21 1924.37,-226.4 1937,-236.62 1961.77,-256.66 1947.93,-278.95 1973,-298.62 1985.35,-308.3 2000.47,-315.15 2015.56,-319.98"/>
<polygon fill="#757575" stroke="#757575" points="2014.87,-323.43 2025.45,-322.88 2016.84,-316.71 2014.87,-323.43"/>
</g>
<!-- util/types.d.ts -->
<g id="node14" class="node">
<title>util/types.d.ts</title>
<path fill="none" stroke="#cfffac" d="M2128.33,-241.12C2128.33,-241.12 2044.67,-241.12 2044.67,-241.12 2040.83,-241.12 2037,-237.28 2037,-233.45 2037,-233.45 2037,-225.78 2037,-225.78 2037,-221.95 2040.83,-218.12 2044.67,-218.12 2044.67,-218.12 2128.33,-218.12 2128.33,-218.12 2132.17,-218.12 2136,-221.95 2136,-225.78 2136,-225.78 2136,-233.45 2136,-233.45 2136,-237.28 2132.17,-241.12 2128.33,-241.12"/>
<text text-anchor="middle" x="2086.5" y="-225.92" font-family="Arial" font-size="14.00" fill="#cfffac">util/types.d.ts</text>
</g>
<!-- models/receiver&#45;data.ts&#45;&gt;util/types.d.ts -->
<g id="edge11" class="edge">
<title>models/receiver&#45;data.ts&#45;&gt;util/types.d.ts</title>
<path fill="none" stroke="#757575" d="M1914.63,-211.34C1951.19,-215.25 1993.48,-219.78 2026.84,-223.34"/>
<polygon fill="#757575" stroke="#757575" points="2026.58,-226.84 2036.89,-224.42 2027.32,-219.87 2026.58,-226.84"/>
</g>
<!-- models/receiver.ts&#45;&gt;models/receiver&#45;data.ts -->
<g id="edge13" class="edge">
<title>models/receiver.ts&#45;&gt;models/receiver&#45;data.ts</title>
<path fill="none" stroke="#757575" d="M1663.76,-115.17C1673.36,-118.81 1682.94,-123.53 1691,-129.62 1713.44,-146.55 1703.52,-166.16 1727,-181.62 1731.06,-184.29 1735.4,-186.64 1739.9,-188.7"/>
<polygon fill="#757575" stroke="#757575" points="1738.77,-192.02 1749.35,-192.53 1741.4,-185.53 1738.77,-192.02"/>
</g>
<!-- models/receiver.ts&#45;&gt;models/evaluated&#45;data.ts -->
<g id="edge12" class="edge">
<title>models/receiver.ts&#45;&gt;models/evaluated&#45;data.ts</title>
<path fill="none" stroke="#757575" d="M1680.6,-107.35C1746.23,-111.96 1849.43,-121.64 1937,-140.62 1974.83,-148.81 2016.68,-162.81 2046.28,-173.58"/>
<polygon fill="#757575" stroke="#757575" points="2045.24,-176.92 2055.83,-177.09 2047.66,-170.35 2045.24,-176.92"/>
</g>
<!-- services/firebasemessaging.ts -->
<g id="node15" class="node">
<title>services/firebasemessaging.ts</title>
<path fill="none" stroke="#cfffac" d="M1929.33,-173.12C1929.33,-173.12 1734.67,-173.12 1734.67,-173.12 1730.83,-173.12 1727,-169.28 1727,-165.45 1727,-165.45 1727,-157.78 1727,-157.78 1727,-153.95 1730.83,-150.12 1734.67,-150.12 1734.67,-150.12 1929.33,-150.12 1929.33,-150.12 1933.17,-150.12 1937,-153.95 1937,-157.78 1937,-157.78 1937,-165.45 1937,-165.45 1937,-169.28 1933.17,-173.12 1929.33,-173.12"/>
<text text-anchor="middle" x="1832" y="-157.92" font-family="Arial" font-size="14.00" fill="#cfffac">services/firebasemessaging.ts</text>
</g>
<!-- models/receiver.ts&#45;&gt;services/firebasemessaging.ts -->
<g id="edge14" class="edge">
<title>models/receiver.ts&#45;&gt;services/firebasemessaging.ts</title>
<path fill="none" stroke="#757575" d="M1653.98,-115.18C1675.52,-121.41 1702.67,-129.12 1727,-135.62 1742.12,-139.65 1758.52,-143.85 1773.74,-147.65"/>
<polygon fill="#757575" stroke="#757575" points="1773,-151.07 1783.55,-150.09 1774.69,-144.28 1773,-151.07"/>
</g>
<!-- services/websocketmessaging.ts -->
<g id="node16" class="node">
<title>services/websocketmessaging.ts</title>
<path fill="none" stroke="#c6c5fe" d="M2192.33,-120.12C2192.33,-120.12 1980.67,-120.12 1980.67,-120.12 1976.83,-120.12 1973,-116.28 1973,-112.45 1973,-112.45 1973,-104.78 1973,-104.78 1973,-100.95 1976.83,-97.12 1980.67,-97.12 1980.67,-97.12 2192.33,-97.12 2192.33,-97.12 2196.17,-97.12 2200,-100.95 2200,-104.78 2200,-104.78 2200,-112.45 2200,-112.45 2200,-116.28 2196.17,-120.12 2192.33,-120.12"/>
<text text-anchor="middle" x="2086.5" y="-104.92" font-family="Arial" font-size="14.00" fill="#c6c5fe">services/websocketmessaging.ts</text>
</g>
<!-- models/receiver.ts&#45;&gt;services/websocketmessaging.ts -->
<g id="edge15" class="edge">
<title>models/receiver.ts&#45;&gt;services/websocketmessaging.ts</title>
<path fill="none" stroke="#757575" d="M1680.98,-104.32C1753.87,-105.1 1872.4,-106.35 1962.36,-107.31"/>
<polygon fill="#757575" stroke="#757575" points="1962.59,-110.81 1972.63,-107.42 1962.67,-103.81 1962.59,-110.81"/>
</g>
<!-- util/log.ts -->
<g id="node17" class="node">
<title>util/log.ts</title>
<path fill="none" stroke="#c6c5fe" d="M1860.33,-579.12C1860.33,-579.12 1803.67,-579.12 1803.67,-579.12 1799.83,-579.12 1796,-575.28 1796,-571.45 1796,-571.45 1796,-563.78 1796,-563.78 1796,-559.95 1799.83,-556.12 1803.67,-556.12 1803.67,-556.12 1860.33,-556.12 1860.33,-556.12 1864.17,-556.12 1868,-559.95 1868,-563.78 1868,-563.78 1868,-571.45 1868,-571.45 1868,-575.28 1864.17,-579.12 1860.33,-579.12"/>
<text text-anchor="middle" x="1832" y="-563.92" font-family="Arial" font-size="14.00" fill="#c6c5fe">util/log.ts</text>
</g>
<!-- models/receiver.ts&#45;&gt;util/log.ts -->
<g id="edge16" class="edge">
<title>models/receiver.ts&#45;&gt;util/log.ts</title>
<path fill="none" stroke="#757575" d="M1620.07,-115.55C1649.14,-177.85 1783.56,-465.94 1821.19,-546.58"/>
<polygon fill="#757575" stroke="#757575" points="1818.07,-548.18 1825.47,-555.76 1824.41,-545.22 1818.07,-548.18"/>
</g>
<!-- models/transformer.ts&#45;&gt;models/connection&#45;response.ts -->
<g id="edge24" class="edge">
<title>models/transformer.ts&#45;&gt;models/connection&#45;response.ts</title>
<path fill="none" stroke="#757575" d="M1691.09,-373.83C1818.57,-374.18 2075.14,-374.88 2225.59,-375.29"/>
<polygon fill="#757575" stroke="#757575" points="2225.78,-378.79 2235.79,-375.32 2225.8,-371.79 2225.78,-378.79"/>
</g>
<!-- models/transformer.ts&#45;&gt;models/transformation.ts -->
<g id="edge25" class="edge">
<title>models/transformer.ts&#45;&gt;models/transformation.ts</title>
<path fill="none" stroke="#757575" d="M1655,-362.04C1666.86,-358.07 1679.68,-353.2 1691,-347.62 1708.25,-339.12 1710.88,-334.1 1727,-323.62 1752.92,-306.75 1782.74,-287.88 1803.78,-274.65"/>
<polygon fill="#757575" stroke="#757575" points="1805.9,-277.46 1812.51,-269.17 1802.18,-271.53 1805.9,-277.46"/>
</g>
<!-- models/evaluated&#45;data.ts&#45;&gt;models/connection&#45;response.ts -->
<g id="edge5" class="edge">
<title>models/evaluated&#45;data.ts&#45;&gt;models/connection&#45;response.ts</title>
<path fill="none" stroke="#757575" d="M2174.12,-197.68C2183.18,-200.46 2191.99,-204.04 2200,-208.62 2262.7,-244.46 2310.83,-318.55 2331.68,-354.76"/>
<polygon fill="#757575" stroke="#757575" points="2328.87,-356.91 2336.83,-363.91 2334.98,-353.48 2328.87,-356.91"/>
</g>
<!-- models/event.ts -->
<g id="node9" class="node">
<title>models/event.ts</title>
<path fill="none" stroke="#cfffac" d="M1455.33,-229.12C1455.33,-229.12 1353.67,-229.12 1353.67,-229.12 1349.83,-229.12 1346,-225.28 1346,-221.45 1346,-221.45 1346,-213.78 1346,-213.78 1346,-209.95 1349.83,-206.12 1353.67,-206.12 1353.67,-206.12 1455.33,-206.12 1455.33,-206.12 1459.17,-206.12 1463,-209.95 1463,-213.78 1463,-213.78 1463,-221.45 1463,-221.45 1463,-225.28 1459.17,-229.12 1455.33,-229.12"/>
<text text-anchor="middle" x="1404.5" y="-213.92" font-family="Arial" font-size="14.00" fill="#cfffac">models/event.ts</text>
</g>
<!-- models/inventory/item.ts -->
<g id="node10" class="node">
<title>models/inventory/item.ts</title>
<path fill="none" stroke="#c6c5fe" d="M1236.33,-809.12C1236.33,-809.12 1081.67,-809.12 1081.67,-809.12 1077.83,-809.12 1074,-805.28 1074,-801.45 1074,-801.45 1074,-793.78 1074,-793.78 1074,-789.95 1077.83,-786.12 1081.67,-786.12 1081.67,-786.12 1236.33,-786.12 1236.33,-786.12 1240.17,-786.12 1244,-789.95 1244,-793.78 1244,-793.78 1244,-801.45 1244,-801.45 1244,-805.28 1240.17,-809.12 1236.33,-809.12"/>
<text text-anchor="middle" x="1159" y="-793.92" font-family="Arial" font-size="14.00" fill="#c6c5fe">models/inventory/item.ts</text>
</g>
<!-- models/inventory/location.ts -->
<g id="node11" class="node">
<title>models/inventory/location.ts</title>
<path fill="none" stroke="#cfffac" d="M1492.33,-809.12C1492.33,-809.12 1316.67,-809.12 1316.67,-809.12 1312.83,-809.12 1309,-805.28 1309,-801.45 1309,-801.45 1309,-793.78 1309,-793.78 1309,-789.95 1312.83,-786.12 1316.67,-786.12 1316.67,-786.12 1492.33,-786.12 1492.33,-786.12 1496.17,-786.12 1500,-789.95 1500,-793.78 1500,-793.78 1500,-801.45 1500,-801.45 1500,-805.28 1496.17,-809.12 1492.33,-809.12"/>
<text text-anchor="middle" x="1404.5" y="-793.92" font-family="Arial" font-size="14.00" fill="#cfffac">models/inventory/location.ts</text>
</g>
<!-- models/inventory/item.ts&#45;&gt;models/inventory/location.ts -->
<g id="edge6" class="edge">
<title>models/inventory/item.ts&#45;&gt;models/inventory/location.ts</title>
<path fill="none" stroke="#757575" d="M1244.14,-797.62C1261.77,-797.62 1280.57,-797.62 1298.84,-797.62"/>
<polygon fill="#757575" stroke="#757575" points="1298.93,-801.12 1308.93,-797.62 1298.93,-794.12 1298.93,-801.12"/>
</g>
<!-- models/inventory/order.ts -->
<g id="node12" class="node">
<title>models/inventory/order.ts</title>
<path fill="none" stroke="#cfffac" d="M1484.83,-868.12C1484.83,-868.12 1324.17,-868.12 1324.17,-868.12 1320.33,-868.12 1316.5,-864.28 1316.5,-860.45 1316.5,-860.45 1316.5,-852.78 1316.5,-852.78 1316.5,-848.95 1320.33,-845.12 1324.17,-845.12 1324.17,-845.12 1484.83,-845.12 1484.83,-845.12 1488.67,-845.12 1492.5,-848.95 1492.5,-852.78 1492.5,-852.78 1492.5,-860.45 1492.5,-860.45 1492.5,-864.28 1488.67,-868.12 1484.83,-868.12"/>
<text text-anchor="middle" x="1404.5" y="-852.92" font-family="Arial" font-size="14.00" fill="#cfffac">models/inventory/order.ts</text>
</g>
<!-- models/inventory/item.ts&#45;&gt;models/inventory/order.ts -->
<g id="edge7" class="edge">
<title>models/inventory/item.ts&#45;&gt;models/inventory/order.ts</title>
<path fill="none" stroke="#757575" d="M1207.53,-809.13C1247.12,-818.72 1303.65,-832.42 1345.83,-842.64"/>
<polygon fill="#757575" stroke="#757575" points="1345.13,-846.07 1355.68,-845.03 1346.78,-839.27 1345.13,-846.07"/>
</g>
<!-- services/websocketmessaging.ts&#45;&gt;models/connection&#45;response.ts -->
<g id="edge74" class="edge">
<title>services/websocketmessaging.ts&#45;&gt;models/connection&#45;response.ts</title>
<path fill="none" stroke="#757575" d="M2119.12,-120.3C2143.17,-130.28 2176.08,-146.39 2200,-167.62 2263.46,-223.92 2312.72,-314.02 2332.96,-354.6"/>
<polygon fill="#757575" stroke="#757575" points="2329.93,-356.36 2337.48,-363.8 2336.21,-353.28 2329.93,-356.36"/>
</g>
<!-- util/btoaatob.ts -->
<g id="node40" class="node">
<title>util/btoaatob.ts</title>
<path fill="none" stroke="#cfffac" d="M2132.83,-579.12C2132.83,-579.12 2040.17,-579.12 2040.17,-579.12 2036.33,-579.12 2032.5,-575.28 2032.5,-571.45 2032.5,-571.45 2032.5,-563.78 2032.5,-563.78 2032.5,-559.95 2036.33,-556.12 2040.17,-556.12 2040.17,-556.12 2132.83,-556.12 2132.83,-556.12 2136.67,-556.12 2140.5,-559.95 2140.5,-563.78 2140.5,-563.78 2140.5,-571.45 2140.5,-571.45 2140.5,-575.28 2136.67,-579.12 2132.83,-579.12"/>
<text text-anchor="middle" x="2086.5" y="-563.92" font-family="Arial" font-size="14.00" fill="#cfffac">util/btoaatob.ts</text>
</g>
<!-- util/log.ts&#45;&gt;util/btoaatob.ts -->
<g id="edge75" class="edge">
<title>util/log.ts&#45;&gt;util/btoaatob.ts</title>
<path fill="none" stroke="#757575" d="M1868.11,-567.62C1907.83,-567.62 1973.33,-567.62 2022.07,-567.62"/>
<polygon fill="#757575" stroke="#757575" points="2022.2,-571.12 2032.2,-567.62 2022.2,-564.12 2022.2,-571.12"/>
</g>
<!-- models/sender.ts -->
<g id="node18" class="node">
<title>models/sender.ts</title>
<path fill="none" stroke="#c6c5fe" d="M1214.83,-443.12C1214.83,-443.12 1103.17,-443.12 1103.17,-443.12 1099.33,-443.12 1095.5,-439.28 1095.5,-435.45 1095.5,-435.45 1095.5,-427.78 1095.5,-427.78 1095.5,-423.95 1099.33,-420.12 1103.17,-420.12 1103.17,-420.12 1214.83,-420.12 1214.83,-420.12 1218.67,-420.12 1222.5,-423.95 1222.5,-427.78 1222.5,-427.78 1222.5,-435.45 1222.5,-435.45 1222.5,-439.28 1218.67,-443.12 1214.83,-443.12"/>
<text text-anchor="middle" x="1159" y="-427.92" font-family="Arial" font-size="14.00" fill="#c6c5fe">models/sender.ts</text>
</g>
<!-- models/sender.ts&#45;&gt;models/battery.ts -->
<g id="edge17" class="edge">
<title>models/sender.ts&#45;&gt;models/battery.ts</title>
<path fill="none" stroke="#757575" d="M1222.73,-427.7C1240.53,-423.96 1258.89,-417.3 1273,-405.62 1303.66,-380.23 1278.89,-349.64 1309,-323.62 1315.73,-317.79 1323.66,-313.27 1332.02,-309.75"/>
<polygon fill="#757575" stroke="#757575" points="1333.43,-312.95 1341.59,-306.19 1330.99,-306.39 1333.43,-312.95"/>
</g>
<!-- models/sender.ts&#45;&gt;models/connection&#45;response.ts -->
<g id="edge18" class="edge">
<title>models/sender.ts&#45;&gt;models/connection&#45;response.ts</title>
<path fill="none" stroke="#757575" d="M1222.55,-427.55C1309.84,-422.24 1473.14,-413.62 1612.5,-413.62 1612.5,-413.62 1612.5,-413.62 1833,-413.62 1972.63,-413.62 2133.17,-399.28 2236.24,-388.21"/>
<polygon fill="#757575" stroke="#757575" points="2236.77,-391.68 2246.34,-387.12 2236.02,-384.72 2236.77,-391.68"/>
</g>
<!-- models/sender.ts&#45;&gt;models/connection.ts -->
<g id="edge19" class="edge">
<title>models/sender.ts&#45;&gt;models/connection.ts</title>
<path fill="none" stroke="#757575" d="M1222.57,-430.13C1241.11,-426.6 1259.93,-419.44 1273,-405.62 1337.77,-337.14 1243.63,-264.52 1309,-196.62 1312.07,-193.42 1315.52,-190.67 1319.23,-188.32"/>
<polygon fill="#757575" stroke="#757575" points="1321.13,-191.27 1328.32,-183.49 1317.84,-185.09 1321.13,-191.27"/>
</g>
<!-- models/sender.ts&#45;&gt;models/transformation.ts -->
<g id="edge21" class="edge">
<title>models/sender.ts&#45;&gt;models/transformation.ts</title>
<path fill="none" stroke="#757575" d="M1222.62,-421.65C1239.48,-417.64 1257.36,-412.13 1273,-404.62 1291.27,-395.84 1290.68,-385.3 1309,-376.62 1387.41,-339.46 1629.07,-293.21 1754.18,-270.89"/>
<polygon fill="#757575" stroke="#757575" points="1754.85,-274.32 1764.08,-269.13 1753.62,-267.43 1754.85,-274.32"/>
</g>
<!-- models/sender.ts&#45;&gt;models/transformer.ts -->
<g id="edge22" class="edge">
<title>models/sender.ts&#45;&gt;models/transformer.ts</title>
<path fill="none" stroke="#757575" d="M1206.37,-420.08C1235.63,-413.19 1274.33,-404.8 1309,-399.62 1381.56,-388.76 1464.6,-382.04 1525.46,-378.15"/>
<polygon fill="#757575" stroke="#757575" points="1526.03,-381.62 1535.79,-377.51 1525.59,-374.64 1526.03,-381.62"/>
</g>
<!-- models/sender.ts&#45;&gt;models/event.ts -->
<g id="edge20" class="edge">
<title>models/sender.ts&#45;&gt;models/event.ts</title>
<path fill="none" stroke="#757575" d="M1222.63,-429.14C1240.85,-425.51 1259.46,-418.55 1273,-405.62 1316.05,-364.5 1273.34,-324.27 1309,-276.62 1323.14,-257.72 1345.27,-243.43 1364.57,-233.65"/>
<polygon fill="#757575" stroke="#757575" points="1366.28,-236.71 1373.76,-229.21 1363.23,-230.41 1366.28,-236.71"/>
</g>
<!-- models/sender.ts&#45;&gt;util/log.ts -->
<g id="edge23" class="edge">
<title>models/sender.ts&#45;&gt;util/log.ts</title>
<path fill="none" stroke="#757575" d="M1222.62,-436.89C1322.85,-446.31 1524.94,-469.32 1691,-513.62 1727.93,-523.47 1768.51,-539.76 1796.43,-551.88"/>
<polygon fill="#757575" stroke="#757575" points="1795.18,-555.15 1805.75,-555.97 1798,-548.75 1795.18,-555.15"/>
</g>
<!-- models/test.ts -->
<g id="node19" class="node">
<title>models/test.ts</title>
<path fill="none" stroke="#cfffac" d="M149.33,-616.12C149.33,-616.12 58.67,-616.12 58.67,-616.12 54.83,-616.12 51,-612.28 51,-608.45 51,-608.45 51,-600.78 51,-600.78 51,-596.95 54.83,-593.12 58.67,-593.12 58.67,-593.12 149.33,-593.12 149.33,-593.12 153.17,-593.12 157,-596.95 157,-600.78 157,-600.78 157,-608.45 157,-608.45 157,-612.28 153.17,-616.12 149.33,-616.12"/>
<text text-anchor="middle" x="104" y="-600.92" font-family="Arial" font-size="14.00" fill="#cfffac">models/test.ts</text>
</g>
<!-- models/timer.ts -->
<g id="node20" class="node">
<title>models/timer.ts</title>
<path fill="none" stroke="#cfffac" d="M1208.33,-713.12C1208.33,-713.12 1109.67,-713.12 1109.67,-713.12 1105.83,-713.12 1102,-709.28 1102,-705.45 1102,-705.45 1102,-697.78 1102,-697.78 1102,-693.95 1105.83,-690.12 1109.67,-690.12 1109.67,-690.12 1208.33,-690.12 1208.33,-690.12 1212.17,-690.12 1216,-693.95 1216,-697.78 1216,-697.78 1216,-705.45 1216,-705.45 1216,-709.28 1212.17,-713.12 1208.33,-713.12"/>
<text text-anchor="middle" x="1159" y="-697.92" font-family="Arial" font-size="14.00" fill="#cfffac">models/timer.ts</text>
</g>
<!-- node&#45;red/glboal&#45;script.ts -->
<g id="node21" class="node">
<title>node&#45;red/glboal&#45;script.ts</title>
<path fill="none" stroke="#c6c5fe" d="M964.33,-1059.12C964.33,-1059.12 809.67,-1059.12 809.67,-1059.12 805.83,-1059.12 802,-1055.28 802,-1051.45 802,-1051.45 802,-1043.78 802,-1043.78 802,-1039.95 805.83,-1036.12 809.67,-1036.12 809.67,-1036.12 964.33,-1036.12 964.33,-1036.12 968.17,-1036.12 972,-1039.95 972,-1043.78 972,-1043.78 972,-1051.45 972,-1051.45 972,-1055.28 968.17,-1059.12 964.33,-1059.12"/>
<text text-anchor="middle" x="887" y="-1043.92" font-family="Arial" font-size="14.00" fill="#c6c5fe">node&#45;red/glboal&#45;script.ts</text>
</g>
<!-- node&#45;red/red&#45;ui.d.ts -->
<g id="node22" class="node">
<title>node&#45;red/red&#45;ui.d.ts</title>
<path fill="none" stroke="#cfffac" d="M1221.83,-1059.12C1221.83,-1059.12 1096.17,-1059.12 1096.17,-1059.12 1092.33,-1059.12 1088.5,-1055.28 1088.5,-1051.45 1088.5,-1051.45 1088.5,-1043.78 1088.5,-1043.78 1088.5,-1039.95 1092.33,-1036.12 1096.17,-1036.12 1096.17,-1036.12 1221.83,-1036.12 1221.83,-1036.12 1225.67,-1036.12 1229.5,-1039.95 1229.5,-1043.78 1229.5,-1043.78 1229.5,-1051.45 1229.5,-1051.45 1229.5,-1055.28 1225.67,-1059.12 1221.83,-1059.12"/>
<text text-anchor="middle" x="1159" y="-1043.92" font-family="Arial" font-size="14.00" fill="#cfffac">node&#45;red/red&#45;ui.d.ts</text>
</g>
<!-- node&#45;red/glboal&#45;script.ts&#45;&gt;node&#45;red/red&#45;ui.d.ts -->
<g id="edge26" class="edge">
<title>node&#45;red/glboal&#45;script.ts&#45;&gt;node&#45;red/red&#45;ui.d.ts</title>
<path fill="none" stroke="#757575" d="M972.32,-1047.62C1006.11,-1047.62 1044.86,-1047.62 1078.19,-1047.62"/>
<polygon fill="#757575" stroke="#757575" points="1078.35,-1051.12 1088.35,-1047.62 1078.35,-1044.12 1078.35,-1051.12"/>
</g>
<!-- node&#45;red/node&#45;red&#45;registration.ts -->
<g id="node23" class="node">
<title>node&#45;red/node&#45;red&#45;registration.ts</title>
<path fill="none" stroke="#c6c5fe" d="M721.33,-1059.12C721.33,-1059.12 511.67,-1059.12 511.67,-1059.12 507.83,-1059.12 504,-1055.28 504,-1051.45 504,-1051.45 504,-1043.78 504,-1043.78 504,-1039.95 507.83,-1036.12 511.67,-1036.12 511.67,-1036.12 721.33,-1036.12 721.33,-1036.12 725.17,-1036.12 729,-1039.95 729,-1043.78 729,-1043.78 729,-1051.45 729,-1051.45 729,-1055.28 725.17,-1059.12 721.33,-1059.12"/>
<text text-anchor="middle" x="616.5" y="-1043.92" font-family="Arial" font-size="14.00" fill="#c6c5fe">node&#45;red/node&#45;red&#45;registration.ts</text>
</g>
<!-- node&#45;red/node&#45;red&#45;registration.ts&#45;&gt;node&#45;red/glboal&#45;script.ts -->
<g id="edge27" class="edge">
<title>node&#45;red/node&#45;red&#45;registration.ts&#45;&gt;node&#45;red/glboal&#45;script.ts</title>
<path fill="none" stroke="#757575" d="M729.04,-1047.62C749.87,-1047.62 771.45,-1047.62 791.7,-1047.62"/>
<polygon fill="#757575" stroke="#757575" points="791.83,-1051.12 801.83,-1047.62 791.83,-1044.12 791.83,-1051.12"/>
</g>
<!-- node&#45;red/node&#45;red&#45;registration.ts&#45;&gt;node&#45;red/red&#45;ui.d.ts -->
<g id="edge28" class="edge">
<title>node&#45;red/node&#45;red&#45;registration.ts&#45;&gt;node&#45;red/red&#45;ui.d.ts</title>
<path fill="none" stroke="#757575" d="M684.1,-1036.1C709.36,-1032.27 738.42,-1028.5 765,-1026.62 873.17,-1018.95 900.82,-1019.03 1009,-1026.62 1032.38,-1028.26 1057.68,-1031.33 1080.67,-1034.62"/>
<polygon fill="#757575" stroke="#757575" points="1080.31,-1038.11 1090.71,-1036.1 1081.33,-1031.18 1080.31,-1038.11"/>
</g>
<!-- node&#45;red/register&#45;custom&#45;type.ts -->
<g id="node24" class="node">
<title>node&#45;red/register&#45;custom&#45;type.ts</title>
<path fill="none" stroke="#c6c5fe" d="M460.33,-1079.12C460.33,-1079.12 251.67,-1079.12 251.67,-1079.12 247.83,-1079.12 244,-1075.28 244,-1071.45 244,-1071.45 244,-1063.78 244,-1063.78 244,-1059.95 247.83,-1056.12 251.67,-1056.12 251.67,-1056.12 460.33,-1056.12 460.33,-1056.12 464.17,-1056.12 468,-1059.95 468,-1063.78 468,-1063.78 468,-1071.45 468,-1071.45 468,-1075.28 464.17,-1079.12 460.33,-1079.12"/>
<text text-anchor="middle" x="356" y="-1063.92" font-family="Arial" font-size="14.00" fill="#c6c5fe">node&#45;red/register&#45;custom&#45;type.ts</text>
</g>
<!-- node&#45;red/register&#45;custom&#45;type.ts&#45;&gt;node&#45;red/red&#45;ui.d.ts -->
<g id="edge30" class="edge">
<title>node&#45;red/register&#45;custom&#45;type.ts&#45;&gt;node&#45;red/red&#45;ui.d.ts</title>
<path fill="none" stroke="#757575" d="M468.19,-1072.12C598.09,-1076.34 819.4,-1080.28 1009,-1067.62 1031.58,-1066.11 1055.96,-1063.33 1078.33,-1060.31"/>
<polygon fill="#757575" stroke="#757575" points="1079.03,-1063.74 1088.46,-1058.91 1078.07,-1056.81 1079.03,-1063.74"/>
</g>
<!-- node&#45;red/register&#45;custom&#45;type.ts&#45;&gt;node&#45;red/node&#45;red&#45;registration.ts -->
<g id="edge29" class="edge">
<title>node&#45;red/register&#45;custom&#45;type.ts&#45;&gt;node&#45;red/node&#45;red&#45;registration.ts</title>
<path fill="none" stroke="#757575" d="M468.13,-1059.02C476.59,-1058.36 485.15,-1057.7 493.67,-1057.04"/>
<polygon fill="#757575" stroke="#757575" points="493.94,-1060.53 503.65,-1056.27 493.4,-1053.55 493.94,-1060.53"/>
</g>
<!-- node&#45;red/server.ts -->
<g id="node25" class="node">
<title>node&#45;red/server.ts</title>
<path fill="none" stroke="#c6c5fe" d="M162.83,-1079.12C162.83,-1079.12 45.17,-1079.12 45.17,-1079.12 41.33,-1079.12 37.5,-1075.28 37.5,-1071.45 37.5,-1071.45 37.5,-1063.78 37.5,-1063.78 37.5,-1059.95 41.33,-1056.12 45.17,-1056.12 45.17,-1056.12 162.83,-1056.12 162.83,-1056.12 166.67,-1056.12 170.5,-1059.95 170.5,-1063.78 170.5,-1063.78 170.5,-1071.45 170.5,-1071.45 170.5,-1075.28 166.67,-1079.12 162.83,-1079.12"/>
<text text-anchor="middle" x="104" y="-1063.92" font-family="Arial" font-size="14.00" fill="#c6c5fe">node&#45;red/server.ts</text>
</g>
<!-- node&#45;red/server.ts&#45;&gt;node&#45;red/register&#45;custom&#45;type.ts -->
<g id="edge31" class="edge">
<title>node&#45;red/server.ts&#45;&gt;node&#45;red/register&#45;custom&#45;type.ts</title>
<path fill="none" stroke="#757575" d="M170.68,-1067.62C190.04,-1067.62 211.87,-1067.62 233.56,-1067.62"/>
<polygon fill="#757575" stroke="#757575" points="233.84,-1071.12 243.84,-1067.62 233.84,-1064.12 233.84,-1071.12"/>
</g>
<!-- resources/connection.r.ts -->
<g id="node26" class="node">
<title>resources/connection.r.ts</title>
<path fill="none" stroke="#c6c5fe" d="M436.33,-285.12C436.33,-285.12 275.67,-285.12 275.67,-285.12 271.83,-285.12 268,-281.28 268,-277.45 268,-277.45 268,-269.78 268,-269.78 268,-265.95 271.83,-262.12 275.67,-262.12 275.67,-262.12 436.33,-262.12 436.33,-262.12 440.17,-262.12 444,-265.95 444,-269.78 444,-269.78 444,-277.45 444,-277.45 444,-281.28 440.17,-285.12 436.33,-285.12"/>
<text text-anchor="middle" x="356" y="-269.92" font-family="Arial" font-size="14.00" fill="#c6c5fe">resources/connection.r.ts</text>
</g>
<!-- resources/connection.r.ts&#45;&gt;models/connection.ts -->
<g id="edge32" class="edge">
<title>resources/connection.r.ts&#45;&gt;models/connection.ts</title>
<path fill="none" stroke="#757575" d="M382.38,-262.08C411.19,-249.6 459.91,-230.32 504,-221.62 658.18,-191.16 1124.89,-180.79 1318.21,-177.74"/>
<polygon fill="#757575" stroke="#757575" points="1318.38,-181.24 1328.32,-177.58 1318.27,-174.24 1318.38,-181.24"/>
</g>
<!-- resources/connection.r.ts&#45;&gt;models/receiver.ts -->
<g id="edge33" class="edge">
<title>resources/connection.r.ts&#45;&gt;models/receiver.ts</title>
<path fill="none" stroke="#757575" d="M374.26,-262.03C400.89,-244.73 454.16,-212.38 504,-195.62 874.72,-70.89 1352.72,-85.94 1536.18,-97.66"/>
<polygon fill="#757575" stroke="#757575" points="1536.06,-101.16 1546.27,-98.32 1536.52,-94.17 1536.06,-101.16"/>
</g>
<!-- resources/connection.r.ts&#45;&gt;models/sender.ts -->
<g id="edge34" class="edge">
<title>resources/connection.r.ts&#45;&gt;models/sender.ts</title>
<path fill="none" stroke="#757575" d="M376.44,-285.32C433.51,-318.89 606.56,-415.24 765,-447.62 875.67,-470.23 1007.42,-456.94 1086.79,-444.7"/>
<polygon fill="#757575" stroke="#757575" points="1087.35,-448.16 1096.68,-443.14 1086.25,-441.24 1087.35,-448.16"/>
</g>
<!-- resources/frontend&#45;update.ts -->
<g id="node27" class="node">
<title>resources/frontend&#45;update.ts</title>
<path fill="none" stroke="#c6c5fe" d="M708.83,-713.12C708.83,-713.12 524.17,-713.12 524.17,-713.12 520.33,-713.12 516.5,-709.28 516.5,-705.45 516.5,-705.45 516.5,-697.78 516.5,-697.78 516.5,-693.95 520.33,-690.12 524.17,-690.12 524.17,-690.12 708.83,-690.12 708.83,-690.12 712.67,-690.12 716.5,-693.95 716.5,-697.78 716.5,-697.78 716.5,-705.45 716.5,-705.45 716.5,-709.28 712.67,-713.12 708.83,-713.12"/>
<text text-anchor="middle" x="616.5" y="-697.92" font-family="Arial" font-size="14.00" fill="#c6c5fe">resources/frontend&#45;update.ts</text>
</g>
<!-- resources/connection.r.ts&#45;&gt;resources/frontend&#45;update.ts -->
<g id="edge35" class="edge">
<title>resources/connection.r.ts&#45;&gt;resources/frontend&#45;update.ts</title>
<path fill="none" stroke="#757575" d="M364.69,-285.4C382.95,-313.46 430.23,-386.53 468,-448.62 520.08,-534.23 579.4,-637.98 603.94,-681.19"/>
<polygon fill="#757575" stroke="#757575" points="600.91,-682.95 608.89,-689.92 607,-679.5 600.91,-682.95"/>
</g>
<!-- resources/frontend&#45;update.ts&#45;&gt;models/inventory/item.ts -->
<g id="edge36" class="edge">
<title>resources/frontend&#45;update.ts&#45;&gt;models/inventory/item.ts</title>
<path fill="none" stroke="#757575" d="M658.9,-713.14C688.33,-721.06 728.89,-731.39 765,-738.62 866.37,-758.89 983.72,-775.64 1063.6,-786.05"/>
<polygon fill="#757575" stroke="#757575" points="1063.28,-789.54 1073.64,-787.35 1064.18,-782.6 1063.28,-789.54"/>
</g>
<!-- resources/frontend&#45;update.ts&#45;&gt;models/timer.ts -->
<g id="edge37" class="edge">
<title>resources/frontend&#45;update.ts&#45;&gt;models/timer.ts</title>
<path fill="none" stroke="#757575" d="M687.83,-713.12C712.19,-716.58 739.73,-719.91 765,-721.62 873.2,-728.92 900.8,-728.85 1009,-721.62 1036.24,-719.8 1066.1,-716.12 1091.89,-712.42"/>
<polygon fill="#757575" stroke="#757575" points="1092.54,-715.86 1101.93,-710.94 1091.53,-708.93 1092.54,-715.86"/>
</g>
<!-- resources/websocket&#45;response.d.ts -->
<g id="node28" class="node">
<title>resources/websocket&#45;response.d.ts</title>
<path fill="none" stroke="#c6c5fe" d="M1001.33,-713.12C1001.33,-713.12 772.67,-713.12 772.67,-713.12 768.83,-713.12 765,-709.28 765,-705.45 765,-705.45 765,-697.78 765,-697.78 765,-693.95 768.83,-690.12 772.67,-690.12 772.67,-690.12 1001.33,-690.12 1001.33,-690.12 1005.17,-690.12 1009,-693.95 1009,-697.78 1009,-697.78 1009,-705.45 1009,-705.45 1009,-709.28 1005.17,-713.12 1001.33,-713.12"/>
<text text-anchor="middle" x="887" y="-697.92" font-family="Arial" font-size="14.00" fill="#c6c5fe">resources/websocket&#45;response.d.ts</text>
</g>
<!-- resources/frontend&#45;update.ts&#45;&gt;resources/websocket&#45;response.d.ts -->
<g id="edge38" class="edge">
<title>resources/frontend&#45;update.ts&#45;&gt;resources/websocket&#45;response.d.ts</title>
<path fill="none" stroke="#757575" d="M716.72,-701.62C729.09,-701.62 741.9,-701.62 754.67,-701.62"/>
<polygon fill="#757575" stroke="#757575" points="754.89,-705.12 764.89,-701.62 754.89,-698.12 754.89,-705.12"/>
</g>
<!-- services/sender&#45;loader.ts -->
<g id="node29" class="node">
<title>services/sender&#45;loader.ts</title>
<path fill="none" stroke="#c6c5fe" d="M967.83,-557.12C967.83,-557.12 806.17,-557.12 806.17,-557.12 802.33,-557.12 798.5,-553.28 798.5,-549.45 798.5,-549.45 798.5,-541.78 798.5,-541.78 798.5,-537.95 802.33,-534.12 806.17,-534.12 806.17,-534.12 967.83,-534.12 967.83,-534.12 971.67,-534.12 975.5,-537.95 975.5,-541.78 975.5,-541.78 975.5,-549.45 975.5,-549.45 975.5,-553.28 971.67,-557.12 967.83,-557.12"/>
<text text-anchor="middle" x="887" y="-541.92" font-family="Arial" font-size="14.00" fill="#c6c5fe">services/sender&#45;loader.ts</text>
</g>
<!-- resources/frontend&#45;update.ts&#45;&gt;services/sender&#45;loader.ts -->
<g id="edge39" class="edge">
<title>resources/frontend&#45;update.ts&#45;&gt;services/sender&#45;loader.ts</title>
<path fill="none" stroke="#757575" d="M637.68,-689.89C684.83,-662.49 802.37,-594.2 857.11,-562.4"/>
<polygon fill="#757575" stroke="#757575" points="859.06,-565.31 865.95,-557.26 855.55,-559.26 859.06,-565.31"/>
</g>
<!-- resources/websocket&#45;response.d.ts&#45;&gt;models/inventory/item.ts -->
<g id="edge55" class="edge">
<title>resources/websocket&#45;response.d.ts&#45;&gt;models/inventory/item.ts</title>
<path fill="none" stroke="#757575" d="M920.57,-713.2C969.42,-730.57 1061.69,-763.37 1115.7,-782.57"/>
<polygon fill="#757575" stroke="#757575" points="1114.72,-785.94 1125.32,-785.99 1117.07,-779.35 1114.72,-785.94"/>
</g>
<!-- resources/websocket&#45;response.d.ts&#45;&gt;models/sender.ts -->
<g id="edge56" class="edge">
<title>resources/websocket&#45;response.d.ts&#45;&gt;models/sender.ts</title>
<path fill="none" stroke="#757575" d="M899.6,-690.01C941.75,-647.87 1087.02,-502.6 1139.17,-450.44"/>
<polygon fill="#757575" stroke="#757575" points="1141.85,-452.72 1146.44,-443.17 1136.9,-447.77 1141.85,-452.72"/>
</g>
<!-- resources/websocket&#45;response.d.ts&#45;&gt;models/timer.ts -->
<g id="edge57" class="edge">
<title>resources/websocket&#45;response.d.ts&#45;&gt;models/timer.ts</title>
<path fill="none" stroke="#757575" d="M1009.18,-701.62C1037.64,-701.62 1066.93,-701.62 1091.92,-701.62"/>
<polygon fill="#757575" stroke="#757575" points="1091.99,-705.12 1101.99,-701.62 1091.99,-698.12 1091.99,-705.12"/>
</g>
<!-- services/sender&#45;loader.ts&#45;&gt;models/sound.ts -->
<g id="edge69" class="edge">
<title>services/sender&#45;loader.ts&#45;&gt;models/sound.ts</title>
<path fill="none" stroke="#757575" d="M952.38,-534.11C1158.61,-497.26 1801.82,-382.31 2015.62,-344.1"/>
<polygon fill="#757575" stroke="#757575" points="2016.24,-347.55 2025.47,-342.34 2015.01,-340.66 2016.24,-347.55"/>
</g>
<!-- services/sender&#45;loader.ts&#45;&gt;models/sender.ts -->
<g id="edge68" class="edge">
<title>services/sender&#45;loader.ts&#45;&gt;models/sender.ts</title>
<path fill="none" stroke="#757575" d="M960.14,-534.09C976.5,-530.39 993.59,-525.64 1009,-519.62 1055.96,-501.26 1105.39,-469.15 1133.87,-449.21"/>
<polygon fill="#757575" stroke="#757575" points="1136.21,-451.83 1142.35,-443.19 1132.16,-446.12 1136.21,-451.83"/>
</g>
<!-- util/tsc&#45;compiler.ts -->
<g id="node39" class="node">
<title>util/tsc&#45;compiler.ts</title>
<path fill="none" stroke="#c6c5fe" d="M1216.83,-579.12C1216.83,-579.12 1101.17,-579.12 1101.17,-579.12 1097.33,-579.12 1093.5,-575.28 1093.5,-571.45 1093.5,-571.45 1093.5,-563.78 1093.5,-563.78 1093.5,-559.95 1097.33,-556.12 1101.17,-556.12 1101.17,-556.12 1216.83,-556.12 1216.83,-556.12 1220.67,-556.12 1224.5,-559.95 1224.5,-563.78 1224.5,-563.78 1224.5,-571.45 1224.5,-571.45 1224.5,-575.28 1220.67,-579.12 1216.83,-579.12"/>
<text text-anchor="middle" x="1159" y="-563.92" font-family="Arial" font-size="14.00" fill="#c6c5fe">util/tsc&#45;compiler.ts</text>
</g>
<!-- services/sender&#45;loader.ts&#45;&gt;util/tsc&#45;compiler.ts -->
<g id="edge70" class="edge">
<title>services/sender&#45;loader.ts&#45;&gt;util/tsc&#45;compiler.ts</title>
<path fill="none" stroke="#757575" d="M975.66,-552.76C1010.41,-555.59 1049.95,-558.81 1083.3,-561.53"/>
<polygon fill="#757575" stroke="#757575" points="1083.19,-565.03 1093.44,-562.36 1083.76,-558.05 1083.19,-565.03"/>
</g>
<!-- resources/inventory.r.ts -->
<g id="node30" class="node">
<title>resources/inventory.r.ts</title>
<path fill="none" stroke="#c6c5fe" d="M430.33,-788.12C430.33,-788.12 281.67,-788.12 281.67,-788.12 277.83,-788.12 274,-784.28 274,-780.45 274,-780.45 274,-772.78 274,-772.78 274,-768.95 277.83,-765.12 281.67,-765.12 281.67,-765.12 430.33,-765.12 430.33,-765.12 434.17,-765.12 438,-768.95 438,-772.78 438,-772.78 438,-780.45 438,-780.45 438,-784.28 434.17,-788.12 430.33,-788.12"/>
<text text-anchor="middle" x="356" y="-772.92" font-family="Arial" font-size="14.00" fill="#c6c5fe">resources/inventory.r.ts</text>
</g>
<!-- resources/inventory.r.ts&#45;&gt;models/inventory/item.ts -->
<g id="edge40" class="edge">
<title>resources/inventory.r.ts&#45;&gt;models/inventory/item.ts</title>
<path fill="none" stroke="#757575" d="M438.21,-778.74C587.56,-782.66 905.01,-790.98 1063.65,-795.14"/>
<polygon fill="#757575" stroke="#757575" points="1063.78,-798.65 1073.87,-795.41 1063.96,-791.65 1063.78,-798.65"/>
</g>
<!-- resources/inventory.r.ts&#45;&gt;models/inventory/order.ts -->
<g id="edge41" class="edge">
<title>resources/inventory.r.ts&#45;&gt;models/inventory/order.ts</title>
<path fill="none" stroke="#757575" d="M429.76,-788.13C453.4,-791.57 479.77,-795.09 504,-797.62 795.21,-827.92 1141.18,-845.44 1306.35,-852.68"/>
<polygon fill="#757575" stroke="#757575" points="1306.34,-856.18 1316.48,-853.12 1306.64,-849.19 1306.34,-856.18"/>
</g>
<!-- resources/inventory.r.ts&#45;&gt;resources/frontend&#45;update.ts -->
<g id="edge42" class="edge">
<title>resources/inventory.r.ts&#45;&gt;resources/frontend&#45;update.ts</title>
<path fill="none" stroke="#757575" d="M396.82,-765.06C442.27,-751.88 516.65,-730.3 565.84,-716.02"/>
<polygon fill="#757575" stroke="#757575" points="567,-719.33 575.63,-713.18 565.05,-712.61 567,-719.33"/>
</g>
<!-- resources/receiver.r.ts -->
<g id="node31" class="node">
<title>resources/receiver.r.ts</title>
<path fill="none" stroke="#c6c5fe" d="M427.33,-635.12C427.33,-635.12 284.67,-635.12 284.67,-635.12 280.83,-635.12 277,-631.28 277,-627.45 277,-627.45 277,-619.78 277,-619.78 277,-615.95 280.83,-612.12 284.67,-612.12 284.67,-612.12 427.33,-612.12 427.33,-612.12 431.17,-612.12 435,-615.95 435,-619.78 435,-619.78 435,-627.45 435,-627.45 435,-631.28 431.17,-635.12 427.33,-635.12"/>
<text text-anchor="middle" x="356" y="-619.92" font-family="Arial" font-size="14.00" fill="#c6c5fe">resources/receiver.r.ts</text>
</g>
<!-- resources/receiver.r.ts&#45;&gt;models/receiver.ts -->
<g id="edge43" class="edge">
<title>resources/receiver.r.ts&#45;&gt;models/receiver.ts</title>
<path fill="none" stroke="#757575" d="M375.2,-611.93C469.04,-552.27 909.29,-279.69 1309,-155.62 1384.45,-132.2 1473.92,-118.49 1536.09,-111.08"/>
<polygon fill="#757575" stroke="#757575" points="1536.68,-114.54 1546.21,-109.9 1535.87,-107.58 1536.68,-114.54"/>
</g>
<!-- resources/receiver.r.ts&#45;&gt;util/log.ts -->
<g id="edge45" class="edge">
<title>resources/receiver.r.ts&#45;&gt;util/log.ts</title>
<path fill="none" stroke="#757575" d="M435.28,-628.58C702.85,-645.13 1571.07,-695.49 1691,-659.62 1739.02,-645.25 1785.84,-608.53 1811.31,-586.06"/>
<polygon fill="#757575" stroke="#757575" points="1813.71,-588.61 1818.8,-579.32 1809.03,-583.41 1813.71,-588.61"/>
</g>
<!-- resources/receiver.r.ts&#45;&gt;resources/frontend&#45;update.ts -->
<g id="edge44" class="edge">
<title>resources/receiver.r.ts&#45;&gt;resources/frontend&#45;update.ts</title>
<path fill="none" stroke="#757575" d="M386.53,-635.15C415.99,-646.4 462.69,-663.53 504,-675.62 518.95,-679.99 535.19,-684.12 550.53,-687.75"/>
<polygon fill="#757575" stroke="#757575" points="549.92,-691.2 560.46,-690.05 551.51,-684.38 549.92,-691.2"/>
</g>
<!-- resources/sender.r.ts -->
<g id="node32" class="node">
<title>resources/sender.r.ts</title>
<path fill="none" stroke="#c6c5fe" d="M424.33,-481.12C424.33,-481.12 287.67,-481.12 287.67,-481.12 283.83,-481.12 280,-477.28 280,-473.45 280,-473.45 280,-465.78 280,-465.78 280,-461.95 283.83,-458.12 287.67,-458.12 287.67,-458.12 424.33,-458.12 424.33,-458.12 428.17,-458.12 432,-461.95 432,-465.78 432,-465.78 432,-473.45 432,-473.45 432,-477.28 428.17,-481.12 424.33,-481.12"/>
<text text-anchor="middle" x="356" y="-465.92" font-family="Arial" font-size="14.00" fill="#c6c5fe">resources/sender.r.ts</text>
</g>
<!-- resources/sender.r.ts&#45;&gt;models/battery.ts -->
<g id="edge46" class="edge">
<title>resources/sender.r.ts&#45;&gt;models/battery.ts</title>
<path fill="none" stroke="#757575" d="M405.07,-458.04C516.74,-431.57 802.66,-366.15 1045,-330.62 1143.73,-316.14 1258.74,-306.89 1331.33,-301.97"/>
<polygon fill="#757575" stroke="#757575" points="1331.98,-305.43 1341.73,-301.28 1331.52,-298.45 1331.98,-305.43"/>
</g>
<!-- resources/sender.r.ts&#45;&gt;models/transformation.ts -->
<g id="edge50" class="edge">
<title>resources/sender.r.ts&#45;&gt;models/transformation.ts</title>
<path fill="none" stroke="#757575" d="M408.28,-458.06C579.22,-419.74 1128.87,-298.01 1309,-276.62 1456.94,-259.05 1629.97,-256.2 1734.96,-256.42"/>
<polygon fill="#757575" stroke="#757575" points="1735.21,-259.92 1745.22,-256.45 1735.23,-252.92 1735.21,-259.92"/>
</g>
<!-- resources/sender.r.ts&#45;&gt;models/event.ts -->
<g id="edge47" class="edge">
<title>resources/sender.r.ts&#45;&gt;models/event.ts</title>
<path fill="none" stroke="#757575" d="M382.42,-458.03C411.45,-445.04 460.58,-423.81 504,-408.62 739.4,-326.25 799.97,-306.1 1045,-259.62 1145.34,-240.58 1263.23,-228.76 1335.65,-222.68"/>
<polygon fill="#757575" stroke="#757575" points="1336.32,-226.14 1346,-221.83 1335.74,-219.16 1336.32,-226.14"/>
</g>
<!-- resources/sender.r.ts&#45;&gt;util/log.ts -->
<g id="edge54" class="edge">
<title>resources/sender.r.ts&#45;&gt;util/log.ts</title>
<path fill="none" stroke="#757575" d="M385.86,-481.2C415.19,-492.6 462.15,-509.82 504,-520.62 617.98,-550 648.2,-550.99 765,-565.62 1089.57,-606.26 1172.91,-607.04 1500,-603.62 1584.9,-602.73 1606.73,-610.02 1691,-599.62 1723.14,-595.65 1758.72,-587.47 1785.96,-580.37"/>
<polygon fill="#757575" stroke="#757575" points="1787.2,-583.66 1795.97,-577.71 1785.4,-576.9 1787.2,-583.66"/>
</g>
<!-- resources/sender.r.ts&#45;&gt;models/sender.ts -->
<g id="edge48" class="edge">
<title>resources/sender.r.ts&#45;&gt;models/sender.ts</title>
<path fill="none" stroke="#757575" d="M432.14,-474.38C579.19,-483.15 900.13,-499.4 1009,-481.62 1049.04,-475.08 1092.83,-459.27 1122.51,-447.16"/>
<polygon fill="#757575" stroke="#757575" points="1124.12,-450.28 1132.01,-443.21 1121.43,-443.82 1124.12,-450.28"/>
</g>
<!-- resources/sender.r.ts&#45;&gt;models/timer.ts -->
<g id="edge49" class="edge">
<title>resources/sender.r.ts&#45;&gt;models/timer.ts</title>
<path fill="none" stroke="#757575" d="M366.17,-481.4C387.3,-507.59 442.34,-570.63 504,-599.62 530.54,-612.09 930.63,-669.53 1091.63,-692.29"/>
<polygon fill="#757575" stroke="#757575" points="1091.49,-695.81 1101.88,-693.74 1092.47,-688.87 1091.49,-695.81"/>
</g>
<!-- resources/sender.r.ts&#45;&gt;resources/frontend&#45;update.ts -->
<g id="edge51" class="edge">
<title>resources/sender.r.ts&#45;&gt;resources/frontend&#45;update.ts</title>
<path fill="none" stroke="#757575" d="M368.44,-481.32C389.82,-503.6 436.51,-554.21 468,-602.62 487.73,-632.94 475.66,-653.13 504,-675.62 509.06,-679.63 514.63,-683.04 520.5,-685.95"/>
<polygon fill="#757575" stroke="#757575" points="519.37,-689.28 529.94,-690.1 522.19,-682.87 519.37,-689.28"/>
</g>
<!-- resources/sender.r.ts&#45;&gt;services/sender&#45;loader.ts -->
<g id="edge52" class="edge">
<title>resources/sender.r.ts&#45;&gt;services/sender&#45;loader.ts</title>
<path fill="none" stroke="#757575" d="M432.23,-480.42C528.02,-494.19 693.37,-517.94 795.81,-532.66"/>
<polygon fill="#757575" stroke="#757575" points="795.44,-536.14 805.83,-534.1 796.43,-529.21 795.44,-536.14"/>
</g>
<!-- services/sender&#45;trigger&#45;service.ts -->
<g id="node33" class="node">
<title>services/sender&#45;trigger&#45;service.ts</title>
<path fill="none" stroke="#cfffac" d="M1265.33,-363.12C1265.33,-363.12 1052.67,-363.12 1052.67,-363.12 1048.83,-363.12 1045,-359.28 1045,-355.45 1045,-355.45 1045,-347.78 1045,-347.78 1045,-343.95 1048.83,-340.12 1052.67,-340.12 1052.67,-340.12 1265.33,-340.12 1265.33,-340.12 1269.17,-340.12 1273,-343.95 1273,-347.78 1273,-347.78 1273,-355.45 1273,-355.45 1273,-359.28 1269.17,-363.12 1265.33,-363.12"/>
<text text-anchor="middle" x="1159" y="-347.92" font-family="Arial" font-size="14.00" fill="#cfffac">services/sender&#45;trigger&#45;service.ts</text>
</g>
<!-- resources/sender.r.ts&#45;&gt;services/sender&#45;trigger&#45;service.ts -->
<g id="edge53" class="edge">
<title>resources/sender.r.ts&#45;&gt;services/sender&#45;trigger&#45;service.ts</title>
<path fill="none" stroke="#757575" d="M429.55,-458.1C511.1,-445.22 647.47,-423.91 765,-406.62 866.8,-391.63 983.59,-375.41 1063.23,-364.5"/>
<polygon fill="#757575" stroke="#757575" points="1063.81,-367.95 1073.24,-363.13 1062.86,-361.01 1063.81,-367.95"/>
</g>
<!-- resources/transformation.r.ts -->
<g id="node34" class="node">
<title>resources/transformation.r.ts</title>
<path fill="none" stroke="#cfffac" d="M194.83,-1120.12C194.83,-1120.12 13.17,-1120.12 13.17,-1120.12 9.33,-1120.12 5.5,-1116.28 5.5,-1112.45 5.5,-1112.45 5.5,-1104.78 5.5,-1104.78 5.5,-1100.95 9.33,-1097.12 13.17,-1097.12 13.17,-1097.12 194.83,-1097.12 194.83,-1097.12 198.67,-1097.12 202.5,-1100.95 202.5,-1104.78 202.5,-1104.78 202.5,-1112.45 202.5,-1112.45 202.5,-1116.28 198.67,-1120.12 194.83,-1120.12"/>
<text text-anchor="middle" x="104" y="-1104.92" font-family="Arial" font-size="14.00" fill="#cfffac">resources/transformation.r.ts</text>
</g>
<!-- resources/wiring.r.ts -->
<g id="node35" class="node">
<title>resources/wiring.r.ts</title>
<path fill="none" stroke="#cfffac" d="M167.83,-1161.12C167.83,-1161.12 40.17,-1161.12 40.17,-1161.12 36.33,-1161.12 32.5,-1157.28 32.5,-1153.45 32.5,-1153.45 32.5,-1145.78 32.5,-1145.78 32.5,-1141.95 36.33,-1138.12 40.17,-1138.12 40.17,-1138.12 167.83,-1138.12 167.83,-1138.12 171.67,-1138.12 175.5,-1141.95 175.5,-1145.78 175.5,-1145.78 175.5,-1153.45 175.5,-1153.45 175.5,-1157.28 171.67,-1161.12 167.83,-1161.12"/>
<text text-anchor="middle" x="104" y="-1145.92" font-family="Arial" font-size="14.00" fill="#cfffac">resources/wiring.r.ts</text>
</g>
<!-- services/connection&#45;service.ts -->
<g id="node36" class="node">
<title>services/connection&#45;service.ts</title>
<path fill="none" stroke="#c6c5fe" d="M200.33,-133.12C200.33,-133.12 7.67,-133.12 7.67,-133.12 3.83,-133.12 0,-129.28 0,-125.45 0,-125.45 0,-117.78 0,-117.78 0,-113.95 3.83,-110.12 7.67,-110.12 7.67,-110.12 200.33,-110.12 200.33,-110.12 204.17,-110.12 208,-113.95 208,-117.78 208,-117.78 208,-125.45 208,-125.45 208,-129.28 204.17,-133.12 200.33,-133.12"/>
<text text-anchor="middle" x="104" y="-117.92" font-family="Arial" font-size="14.00" fill="#c6c5fe">services/connection&#45;service.ts</text>
</g>
<!-- services/connection&#45;service.ts&#45;&gt;models/connection&#45;response.ts -->
<g id="edge58" class="edge">
<title>services/connection&#45;service.ts&#45;&gt;models/connection&#45;response.ts</title>
<path fill="none" stroke="#757575" d="M107.97,-133.33C121.14,-185.59 175.1,-402.92 208,-583.62 218.21,-639.7 207.93,-793.47 244,-837.62 354.87,-973.3 440.28,-969.62 615.5,-969.62 615.5,-969.62 615.5,-969.62 1833,-969.62 2011.84,-969.62 2084.76,-941.37 2200,-804.62 2307.58,-676.94 2335.11,-465.35 2341.34,-397.36"/>
<polygon fill="#757575" stroke="#757575" points="2344.83,-397.64 2342.2,-387.38 2337.86,-397.05 2344.83,-397.64"/>
</g>
<!-- services/connection&#45;service.ts&#45;&gt;models/connection.ts -->
<g id="edge59" class="edge">
<title>services/connection&#45;service.ts&#45;&gt;models/connection.ts</title>
<path fill="none" stroke="#757575" d="M208.25,-125.99C457.46,-136.54 1088.28,-163.26 1318.08,-173"/>
<polygon fill="#757575" stroke="#757575" points="1318.25,-176.51 1328.39,-173.43 1318.55,-169.51 1318.25,-176.51"/>
</g>
<!-- services/connection&#45;service.ts&#45;&gt;models/receiver&#45;data.ts -->
<g id="edge60" class="edge">
<title>services/connection&#45;service.ts&#45;&gt;models/receiver&#45;data.ts</title>
<path fill="none" stroke="#757575" d="M117.98,-109.86C141.24,-89.61 192.42,-48.69 244,-31.62 401.08,20.36 450.04,-7.62 615.5,-7.62 615.5,-7.62 615.5,-7.62 1405.5,-7.62 1454.49,-7.62 1658.73,-53.06 1691,-82.62 1725.53,-114.24 1691.51,-151.08 1727,-181.62 1731,-185.06 1735.4,-187.99 1740.08,-190.49"/>
<polygon fill="#757575" stroke="#757575" points="1738.8,-193.76 1749.35,-194.77 1741.74,-187.4 1738.8,-193.76"/>
</g>
<!-- services/connection&#45;service.ts&#45;&gt;models/transformation.ts -->
<g id="edge61" class="edge">
<title>services/connection&#45;service.ts&#45;&gt;models/transformation.ts</title>
<path fill="none" stroke="#757575" d="M151.11,-110.07C240.23,-88.81 442.56,-45.62 615.5,-45.62 615.5,-45.62 615.5,-45.62 1160,-45.62 1405.72,-45.62 1467.18,-98.21 1691,-199.62 1708.29,-207.45 1709.88,-214.42 1727,-222.62 1743.52,-230.53 1762.3,-237.43 1779.31,-242.97"/>
<polygon fill="#757575" stroke="#757575" points="1778.5,-246.38 1789.09,-246.07 1780.61,-239.71 1778.5,-246.38"/>
</g>
<!-- services/timer&#45;factory.ts -->
<g id="node37" class="node">
<title>services/timer&#45;factory.ts</title>
<path fill="none" stroke="#c6c5fe" d="M431.83,-829.12C431.83,-829.12 280.17,-829.12 280.17,-829.12 276.33,-829.12 272.5,-825.28 272.5,-821.45 272.5,-821.45 272.5,-813.78 272.5,-813.78 272.5,-809.95 276.33,-806.12 280.17,-806.12 280.17,-806.12 431.83,-806.12 431.83,-806.12 435.67,-806.12 439.5,-809.95 439.5,-813.78 439.5,-813.78 439.5,-821.45 439.5,-821.45 439.5,-825.28 435.67,-829.12 431.83,-829.12"/>
<text text-anchor="middle" x="356" y="-813.92" font-family="Arial" font-size="14.00" fill="#c6c5fe">services/timer&#45;factory.ts</text>
</g>
<!-- services/connection&#45;service.ts&#45;&gt;services/timer&#45;factory.ts -->
<g id="edge62" class="edge">
<title>services/connection&#45;service.ts&#45;&gt;services/timer&#45;factory.ts</title>
<path fill="none" stroke="#757575" d="M107.85,-133.35C120.53,-185.71 172.7,-403.37 208,-583.62 217.23,-630.73 210.39,-762.34 244,-796.62 249.38,-802.1 255.72,-806.4 262.59,-809.75"/>
<polygon fill="#757575" stroke="#757575" points="261.67,-813.16 272.25,-813.74 264.34,-806.69 261.67,-813.16"/>
</g>
<!-- services/timer&#45;factory.ts&#45;&gt;models/connection&#45;response.ts -->
<g id="edge71" class="edge">
<title>services/timer&#45;factory.ts&#45;&gt;models/connection&#45;response.ts</title>
<path fill="none" stroke="#757575" d="M388.1,-829.17C468.95,-858.16 692.94,-931.62 886,-931.62 886,-931.62 886,-931.62 1833,-931.62 2129.03,-931.62 2299.86,-498.29 2335.83,-396.73"/>
<polygon fill="#757575" stroke="#757575" points="2339.15,-397.82 2339.14,-387.23 2332.54,-395.52 2339.15,-397.82"/>
</g>
<!-- services/timer&#45;factory.ts&#45;&gt;models/timer.ts -->
<g id="edge72" class="edge">
<title>services/timer&#45;factory.ts&#45;&gt;models/timer.ts</title>
<path fill="none" stroke="#757575" d="M439.57,-810.89C563.81,-800.03 805.89,-775.99 1009,-738.62 1042.06,-732.53 1078.72,-723.46 1107.39,-715.82"/>
<polygon fill="#757575" stroke="#757575" points="1108.44,-719.17 1117.19,-713.19 1106.62,-712.41 1108.44,-719.17"/>
</g>
<!-- services/timer&#45;factory.ts&#45;&gt;resources/frontend&#45;update.ts -->
<g id="edge73" class="edge">
<title>services/timer&#45;factory.ts&#45;&gt;resources/frontend&#45;update.ts</title>
<path fill="none" stroke="#757575" d="M438.08,-806.06C448.32,-803.5 458.53,-800.39 468,-796.62 516.46,-777.28 566.1,-741.29 593.65,-719.59"/>
<polygon fill="#757575" stroke="#757575" points="595.84,-722.32 601.47,-713.35 591.47,-716.85 595.84,-722.32"/>
</g>
<!-- services/event&#45;scheduler.ts -->
<g id="node38" class="node">
<title>services/event&#45;scheduler.ts</title>
<path fill="none" stroke="#c6c5fe" d="M974.33,-439.12C974.33,-439.12 799.67,-439.12 799.67,-439.12 795.83,-439.12 792,-435.28 792,-431.45 792,-431.45 792,-423.78 792,-423.78 792,-419.95 795.83,-416.12 799.67,-416.12 799.67,-416.12 974.33,-416.12 974.33,-416.12 978.17,-416.12 982,-419.95 982,-423.78 982,-423.78 982,-431.45 982,-431.45 982,-435.28 978.17,-439.12 974.33,-439.12"/>
<text text-anchor="middle" x="887" y="-423.92" font-family="Arial" font-size="14.00" fill="#c6c5fe">services/event&#45;scheduler.ts</text>
</g>
<!-- services/event&#45;scheduler.ts&#45;&gt;models/connection.ts -->
<g id="edge63" class="edge">
<title>services/event&#45;scheduler.ts&#45;&gt;models/connection.ts</title>
<path fill="none" stroke="#757575" d="M982.22,-416.65C1092.77,-403.37 1262.45,-381.57 1273,-371.62 1330.77,-317.13 1253.01,-252.92 1309,-196.62 1312.13,-193.47 1315.61,-190.76 1319.36,-188.44"/>
<polygon fill="#757575" stroke="#757575" points="1321.25,-191.39 1328.5,-183.67 1318.01,-185.19 1321.25,-191.39"/>
</g>
<!-- services/event&#45;scheduler.ts&#45;&gt;util/log.ts -->
<g id="edge67" class="edge">
<title>services/event&#45;scheduler.ts&#45;&gt;util/log.ts</title>
<path fill="none" stroke="#757575" d="M963.06,-439.17C989.01,-443.14 1018.28,-447.6 1045,-451.62 1326.65,-493.93 1665.3,-543.45 1785.77,-561.02"/>
<polygon fill="#757575" stroke="#757575" points="1785.34,-564.5 1795.74,-562.48 1786.35,-557.57 1785.34,-564.5"/>
</g>
<!-- services/event&#45;scheduler.ts&#45;&gt;models/sender.ts -->
<g id="edge64" class="edge">
<title>services/event&#45;scheduler.ts&#45;&gt;models/sender.ts</title>
<path fill="none" stroke="#757575" d="M982.05,-429.01C1015.84,-429.51 1053.4,-430.07 1085.11,-430.54"/>
<polygon fill="#757575" stroke="#757575" points="1085.14,-434.04 1095.19,-430.69 1085.24,-427.04 1085.14,-434.04"/>
</g>
<!-- services/event&#45;scheduler.ts&#45;&gt;models/timer.ts -->
<g id="edge65" class="edge">
<title>services/event&#45;scheduler.ts&#45;&gt;models/timer.ts</title>
<path fill="none" stroke="#757575" d="M906.61,-439.28C932.05,-455.89 978.04,-488.39 1009,-524.62 1029.95,-549.13 1025.48,-561.94 1045,-587.62 1073.19,-624.69 1112.72,-661.94 1136.78,-683.34"/>
<polygon fill="#757575" stroke="#757575" points="1134.49,-685.98 1144.31,-689.96 1139.12,-680.73 1134.49,-685.98"/>
</g>
<!-- services/event&#45;scheduler.ts&#45;&gt;services/sender&#45;trigger&#45;service.ts -->
<g id="edge66" class="edge">
<title>services/event&#45;scheduler.ts&#45;&gt;services/sender&#45;trigger&#45;service.ts</title>
<path fill="none" stroke="#757575" d="M962.95,-416.11C978.5,-412.46 994.55,-407.72 1009,-401.62 1026.71,-394.13 1027.34,-385.23 1045,-377.62 1055.98,-372.88 1067.94,-368.95 1079.84,-365.69"/>
<polygon fill="#757575" stroke="#757575" points="1081,-369.01 1089.8,-363.12 1079.24,-362.23 1081,-369.01"/>
</g>
<!-- util/tsc&#45;compiler.ts&#45;&gt;util/log.ts -->
<g id="edge77" class="edge">
<title>util/tsc&#45;compiler.ts&#45;&gt;util/log.ts</title>
<path fill="none" stroke="#757575" d="M1224.72,-578.22C1250.82,-581.99 1281.27,-585.76 1309,-587.62 1485.05,-599.38 1694.99,-581.71 1785.64,-572.55"/>
<polygon fill="#757575" stroke="#757575" points="1786.24,-576.01 1795.83,-571.51 1785.53,-569.05 1786.24,-576.01"/>
</g>
<!-- util/file.ts -->
<g id="node41" class="node">
<title>util/file.ts</title>
<path fill="none" stroke="#cfffac" d="M1432.33,-579.12C1432.33,-579.12 1376.67,-579.12 1376.67,-579.12 1372.83,-579.12 1369,-575.28 1369,-571.45 1369,-571.45 1369,-563.78 1369,-563.78 1369,-559.95 1372.83,-556.12 1376.67,-556.12 1376.67,-556.12 1432.33,-556.12 1432.33,-556.12 1436.17,-556.12 1440,-559.95 1440,-563.78 1440,-563.78 1440,-571.45 1440,-571.45 1440,-575.28 1436.17,-579.12 1432.33,-579.12"/>
<text text-anchor="middle" x="1404.5" y="-563.92" font-family="Arial" font-size="14.00" fill="#cfffac">util/file.ts</text>
</g>
<!-- util/tsc&#45;compiler.ts&#45;&gt;util/file.ts -->
<g id="edge76" class="edge">
<title>util/tsc&#45;compiler.ts&#45;&gt;util/file.ts</title>
<path fill="none" stroke="#757575" d="M1224.61,-567.62C1266.86,-567.62 1320.97,-567.62 1358.56,-567.62"/>
<polygon fill="#757575" stroke="#757575" points="1358.7,-571.12 1368.7,-567.62 1358.7,-564.12 1358.7,-571.12"/>
</g>
</g>
</svg>
