<?xml version="1.0" encoding="UTF-8" standalone="no"?>
<!DOCTYPE svg PUBLIC "-//W3C//DTD SVG 1.1//EN"
 "http://www.w3.org/Graphics/SVG/1.1/DTD/svg11.dtd">
<!-- Generated by graphviz version 5.0.1 (20220820.1526)
 -->
<!-- Title: G Pages: 1 -->
<svg width="619pt" height="66pt"
 viewBox="0.00 0.00 619.20 66.20" xmlns="http://www.w3.org/2000/svg" xmlns:xlink="http://www.w3.org/1999/xlink">
<g id="graph0" class="graph" transform="scale(1 1) rotate(0) translate(21.6 44.6)">
<title>G</title>
<polygon fill="#111111" stroke="none" points="-21.6,21.6 -21.6,-44.6 597.6,-44.6 597.6,21.6 -21.6,21.6"/>
<!-- services/generic&#45;node/generic&#45;node&#45;type.ts -->
<g id="node1" class="node">
<title>services/generic&#45;node/generic&#45;node&#45;type.ts</title>
<path fill="none" stroke="#ff6c60" d="M284.33,-23C284.33,-23 7.67,-23 7.67,-23 3.83,-23 0,-19.17 0,-15.33 0,-15.33 0,-7.67 0,-7.67 0,-3.83 3.83,0 7.67,0 7.67,0 284.33,0 284.33,0 288.17,0 292,-3.83 292,-7.67 292,-7.67 292,-15.33 292,-15.33 292,-19.17 288.17,-23 284.33,-23"/>
<text text-anchor="middle" x="146" y="-7.8" font-family="Arial" font-size="14.00" fill="#ff6c60">services/generic&#45;node/generic&#45;node&#45;type.ts</text>
</g>
<!-- services/generic&#45;node/node&#45;event.ts -->
<g id="node2" class="node">
<title>services/generic&#45;node/node&#45;event.ts</title>
<path fill="none" stroke="#ff6c60" d="M568.33,-23C568.33,-23 335.67,-23 335.67,-23 331.83,-23 328,-19.17 328,-15.33 328,-15.33 328,-7.67 328,-7.67 328,-3.83 331.83,0 335.67,0 335.67,0 568.33,0 568.33,0 572.17,0 576,-3.83 576,-7.67 576,-7.67 576,-15.33 576,-15.33 576,-19.17 572.17,-23 568.33,-23"/>
<text text-anchor="middle" x="452" y="-7.8" font-family="Arial" font-size="14.00" fill="#ff6c60">services/generic&#45;node/node&#45;event.ts</text>
</g>
<!-- services/generic&#45;node/generic&#45;node&#45;type.ts&#45;&gt;services/generic&#45;node/node&#45;event.ts -->
<g id="edge1" class="edge">
<title>services/generic&#45;node/generic&#45;node&#45;type.ts&#45;&gt;services/generic&#45;node/node&#45;event.ts</title>
<path fill="none" stroke="#757575" d="M292.32,-4.76C300.79,-4.74 309.28,-4.75 317.7,-4.8"/>
<polygon fill="#757575" stroke="#757575" points="317.89,-8.3 327.91,-4.86 317.94,-1.3 317.89,-8.3"/>
</g>
<!-- services/generic&#45;node/node&#45;event.ts&#45;&gt;services/generic&#45;node/generic&#45;node&#45;type.ts -->
<g id="edge2" class="edge">
<title>services/generic&#45;node/node&#45;event.ts&#45;&gt;services/generic&#45;node/generic&#45;node&#45;type.ts</title>
<path fill="none" stroke="#757575" d="M327.91,-18.14C319.49,-18.2 310.94,-18.24 302.38,-18.25"/>
<polygon fill="#757575" stroke="#757575" points="302.32,-14.75 292.32,-18.24 302.32,-21.75 302.32,-14.75"/>
</g>
</g>
</svg>
