<?xml version="1.0" encoding="UTF-8" standalone="no"?>
<!DOCTYPE svg PUBLIC "-//W3C//DTD SVG 1.1//EN"
 "http://www.w3.org/Graphics/SVG/1.1/DTD/svg11.dtd">
<!-- Generated by graphviz version 2.47.2 (20210527.0053)
 -->
<!-- Title: G Pages: 1 -->
<svg width="2812pt" height="1196pt"
 viewBox="0.00 0.00 2812.20 1196.43" xmlns="http://www.w3.org/2000/svg" xmlns:xlink="http://www.w3.org/1999/xlink">
<g id="graph0" class="graph" transform="scale(1 1) rotate(0) translate(21.6 1174.83)">
<title>G</title>
<polygon fill="#111111" stroke="transparent" points="-21.6,21.6 -21.6,-1174.83 2790.6,-1174.83 2790.6,21.6 -21.6,21.6"/>
<!-- models/battery.ts -->
<g id="node1" class="node">
<title>models/battery.ts</title>
<path fill="none" stroke="#cfffac" d="M1783.83,-704.23C1783.83,-704.23 1674.17,-704.23 1674.17,-704.23 1670.33,-704.23 1666.5,-700.4 1666.5,-696.57 1666.5,-696.57 1666.5,-688.9 1666.5,-688.9 1666.5,-685.07 1670.33,-681.23 1674.17,-681.23 1674.17,-681.23 1783.83,-681.23 1783.83,-681.23 1787.67,-681.23 1791.5,-685.07 1791.5,-688.9 1791.5,-688.9 1791.5,-696.57 1791.5,-696.57 1791.5,-700.4 1787.67,-704.23 1783.83,-704.23"/>
<text text-anchor="middle" x="1729" y="-689.03" font-family="Arial" font-size="14.00" fill="#cfffac">models/battery.ts</text>
</g>
<!-- models/connection&#45;response.d.ts -->
<g id="node2" class="node">
<title>models/connection&#45;response.d.ts</title>
<path fill="none" stroke="#cfffac" d="M2761.33,-404.23C2761.33,-404.23 2548.67,-404.23 2548.67,-404.23 2544.83,-404.23 2541,-400.4 2541,-396.57 2541,-396.57 2541,-388.9 2541,-388.9 2541,-385.07 2544.83,-381.23 2548.67,-381.23 2548.67,-381.23 2761.33,-381.23 2761.33,-381.23 2765.17,-381.23 2769,-385.07 2769,-388.9 2769,-388.9 2769,-396.57 2769,-396.57 2769,-400.4 2765.17,-404.23 2761.33,-404.23"/>
<text text-anchor="middle" x="2655" y="-389.03" font-family="Arial" font-size="14.00" fill="#cfffac">models/connection&#45;response.d.ts</text>
</g>
<!-- models/connection.ts -->
<g id="node3" class="node">
<title>models/connection.ts</title>
<path fill="none" stroke="#c6c5fe" d="M1797.33,-436.23C1797.33,-436.23 1660.67,-436.23 1660.67,-436.23 1656.83,-436.23 1653,-432.4 1653,-428.57 1653,-428.57 1653,-420.9 1653,-420.9 1653,-417.07 1656.83,-413.23 1660.67,-413.23 1660.67,-413.23 1797.33,-413.23 1797.33,-413.23 1801.17,-413.23 1805,-417.07 1805,-420.9 1805,-420.9 1805,-428.57 1805,-428.57 1805,-432.4 1801.17,-436.23 1797.33,-436.23"/>
<text text-anchor="middle" x="1729" y="-421.03" font-family="Arial" font-size="14.00" fill="#c6c5fe">models/connection.ts</text>
</g>
<!-- models/receiver&#45;data.ts -->
<g id="node4" class="node">
<title>models/receiver&#45;data.ts</title>
<path fill="none" stroke="#c6c5fe" d="M2211.83,-425.23C2211.83,-425.23 2062.17,-425.23 2062.17,-425.23 2058.33,-425.23 2054.5,-421.4 2054.5,-417.57 2054.5,-417.57 2054.5,-409.9 2054.5,-409.9 2054.5,-406.07 2058.33,-402.23 2062.17,-402.23 2062.17,-402.23 2211.83,-402.23 2211.83,-402.23 2215.67,-402.23 2219.5,-406.07 2219.5,-409.9 2219.5,-409.9 2219.5,-417.57 2219.5,-417.57 2219.5,-421.4 2215.67,-425.23 2211.83,-425.23"/>
<text text-anchor="middle" x="2137" y="-410.03" font-family="Arial" font-size="14.00" fill="#c6c5fe">models/receiver&#45;data.ts</text>
</g>
<!-- models/connection.ts&#45;&gt;models/receiver&#45;data.ts -->
<g id="edge1" class="edge">
<title>models/connection.ts&#45;&gt;models/receiver&#45;data.ts</title>
<path fill="none" stroke="#757575" d="M1805.23,-427.04C1817.19,-427.33 1829.43,-427.58 1841,-427.73 1909.88,-428.66 1927.2,-431.16 1996,-427.73 2011.51,-426.96 2027.95,-425.71 2043.9,-424.26"/>
<polygon fill="#757575" stroke="#757575" points="2044.67,-427.7 2054.3,-423.28 2044.02,-420.73 2044.67,-427.7"/>
</g>
<!-- models/receiver.ts -->
<g id="node5" class="node">
<title>models/receiver.ts</title>
<path fill="none" stroke="#c6c5fe" d="M1977.83,-504.23C1977.83,-504.23 1859.17,-504.23 1859.17,-504.23 1855.33,-504.23 1851.5,-500.4 1851.5,-496.57 1851.5,-496.57 1851.5,-488.9 1851.5,-488.9 1851.5,-485.07 1855.33,-481.23 1859.17,-481.23 1859.17,-481.23 1977.83,-481.23 1977.83,-481.23 1981.67,-481.23 1985.5,-485.07 1985.5,-488.9 1985.5,-488.9 1985.5,-496.57 1985.5,-496.57 1985.5,-500.4 1981.67,-504.23 1977.83,-504.23"/>
<text text-anchor="middle" x="1918.5" y="-489.03" font-family="Arial" font-size="14.00" fill="#c6c5fe">models/receiver.ts</text>
</g>
<!-- models/connection.ts&#45;&gt;models/receiver.ts -->
<g id="edge2" class="edge">
<title>models/connection.ts&#45;&gt;models/receiver.ts</title>
<path fill="none" stroke="#757575" d="M1764.89,-436.33C1777.58,-440.68 1791.99,-445.77 1805,-450.73 1821.2,-456.91 1824.82,-459.51 1841,-465.73 1851.57,-469.8 1863.04,-473.97 1873.81,-477.78"/>
<polygon fill="#757575" stroke="#757575" points="1872.86,-481.16 1883.46,-481.17 1875.18,-474.56 1872.86,-481.16"/>
</g>
<!-- models/transformation.ts -->
<g id="node6" class="node">
<title>models/transformation.ts</title>
<path fill="none" stroke="#cfffac" d="M2215.83,-250.23C2215.83,-250.23 2058.17,-250.23 2058.17,-250.23 2054.33,-250.23 2050.5,-246.4 2050.5,-242.57 2050.5,-242.57 2050.5,-234.9 2050.5,-234.9 2050.5,-231.07 2054.33,-227.23 2058.17,-227.23 2058.17,-227.23 2215.83,-227.23 2215.83,-227.23 2219.67,-227.23 2223.5,-231.07 2223.5,-234.9 2223.5,-234.9 2223.5,-242.57 2223.5,-242.57 2223.5,-246.4 2219.67,-250.23 2215.83,-250.23"/>
<text text-anchor="middle" x="2137" y="-235.03" font-family="Arial" font-size="14.00" fill="#cfffac">models/transformation.ts</text>
</g>
<!-- models/connection.ts&#45;&gt;models/transformation.ts -->
<g id="edge3" class="edge">
<title>models/connection.ts&#45;&gt;models/transformation.ts</title>
<path fill="none" stroke="#757575" d="M1776.85,-413.13C1786.67,-409.46 1796.59,-404.74 1805,-398.73 1826.13,-383.64 1820.14,-368.19 1841,-352.73 1911.56,-300.44 2009.1,-268.99 2072.37,-252.75"/>
<polygon fill="#757575" stroke="#757575" points="2073.38,-256.11 2082.22,-250.28 2071.67,-249.32 2073.38,-256.11"/>
</g>
<!-- models/transformer.ts -->
<g id="node7" class="node">
<title>models/transformer.ts</title>
<path fill="none" stroke="#c6c5fe" d="M1988.33,-385.23C1988.33,-385.23 1848.67,-385.23 1848.67,-385.23 1844.83,-385.23 1841,-381.4 1841,-377.57 1841,-377.57 1841,-369.9 1841,-369.9 1841,-366.07 1844.83,-362.23 1848.67,-362.23 1848.67,-362.23 1988.33,-362.23 1988.33,-362.23 1992.17,-362.23 1996,-366.07 1996,-369.9 1996,-369.9 1996,-377.57 1996,-377.57 1996,-381.4 1992.17,-385.23 1988.33,-385.23"/>
<text text-anchor="middle" x="1918.5" y="-370.03" font-family="Arial" font-size="14.00" fill="#c6c5fe">models/transformer.ts</text>
</g>
<!-- models/connection.ts&#45;&gt;models/transformer.ts -->
<g id="edge4" class="edge">
<title>models/connection.ts&#45;&gt;models/transformer.ts</title>
<path fill="none" stroke="#757575" d="M1772.55,-413.16C1800,-405.69 1835.89,-395.93 1865.1,-387.99"/>
<polygon fill="#757575" stroke="#757575" points="1866.39,-391.26 1875.12,-385.26 1864.55,-384.51 1866.39,-391.26"/>
</g>
<!-- models/receiver&#45;data.ts&#45;&gt;models/connection&#45;response.d.ts -->
<g id="edge6" class="edge">
<title>models/receiver&#45;data.ts&#45;&gt;models/connection&#45;response.d.ts</title>
<path fill="none" stroke="#757575" d="M2219.76,-410.4C2303.47,-407 2434.6,-401.66 2530.87,-397.74"/>
<polygon fill="#757575" stroke="#757575" points="2531.11,-401.24 2540.96,-397.33 2530.82,-394.24 2531.11,-401.24"/>
</g>
<!-- models/evaluated&#45;data.ts -->
<g id="node8" class="node">
<title>models/evaluated&#45;data.ts</title>
<path fill="none" stroke="#c6c5fe" d="M2471.33,-463.23C2471.33,-463.23 2311.67,-463.23 2311.67,-463.23 2307.83,-463.23 2304,-459.4 2304,-455.57 2304,-455.57 2304,-447.9 2304,-447.9 2304,-444.07 2307.83,-440.23 2311.67,-440.23 2311.67,-440.23 2471.33,-440.23 2471.33,-440.23 2475.17,-440.23 2479,-444.07 2479,-447.9 2479,-447.9 2479,-455.57 2479,-455.57 2479,-459.4 2475.17,-463.23 2471.33,-463.23"/>
<text text-anchor="middle" x="2391.5" y="-448.03" font-family="Arial" font-size="14.00" fill="#c6c5fe">models/evaluated&#45;data.ts</text>
</g>
<!-- models/receiver&#45;data.ts&#45;&gt;models/evaluated&#45;data.ts -->
<g id="edge7" class="edge">
<title>models/receiver&#45;data.ts&#45;&gt;models/evaluated&#45;data.ts</title>
<path fill="none" stroke="#757575" d="M2214.44,-425.24C2242.62,-429.48 2274.74,-434.31 2303.76,-438.68"/>
<polygon fill="#757575" stroke="#757575" points="2303.47,-442.17 2313.88,-440.2 2304.51,-435.25 2303.47,-442.17"/>
</g>
<!-- models/sound.ts -->
<g id="node10" class="node">
<title>models/sound.ts</title>
<path fill="none" stroke="#cfffac" d="M2444.83,-580.23C2444.83,-580.23 2338.17,-580.23 2338.17,-580.23 2334.33,-580.23 2330.5,-576.4 2330.5,-572.57 2330.5,-572.57 2330.5,-564.9 2330.5,-564.9 2330.5,-561.07 2334.33,-557.23 2338.17,-557.23 2338.17,-557.23 2444.83,-557.23 2444.83,-557.23 2448.67,-557.23 2452.5,-561.07 2452.5,-564.9 2452.5,-564.9 2452.5,-572.57 2452.5,-572.57 2452.5,-576.4 2448.67,-580.23 2444.83,-580.23"/>
<text text-anchor="middle" x="2391.5" y="-565.03" font-family="Arial" font-size="14.00" fill="#cfffac">models/sound.ts</text>
</g>
<!-- models/receiver&#45;data.ts&#45;&gt;models/sound.ts -->
<g id="edge8" class="edge">
<title>models/receiver&#45;data.ts&#45;&gt;models/sound.ts</title>
<path fill="none" stroke="#757575" d="M2167.13,-425.28C2189.6,-435.28 2220.39,-451.49 2242,-472.73 2264.45,-494.8 2253.32,-514.19 2278,-533.73 2290.37,-543.52 2305.49,-550.59 2320.59,-555.69"/>
<polygon fill="#757575" stroke="#757575" points="2319.89,-559.13 2330.48,-558.76 2321.97,-552.45 2319.89,-559.13"/>
</g>
<!-- models/receiver.ts&#45;&gt;models/receiver&#45;data.ts -->
<g id="edge10" class="edge">
<title>models/receiver.ts&#45;&gt;models/receiver&#45;data.ts</title>
<path fill="none" stroke="#757575" d="M1958.93,-481.22C1971.13,-477.03 1984.4,-471.81 1996,-465.73 2013.48,-456.58 2014.1,-448.05 2032,-439.73 2041.88,-435.14 2052.69,-431.28 2063.48,-428.07"/>
<polygon fill="#757575" stroke="#757575" points="2064.67,-431.37 2073.35,-425.3 2062.78,-424.63 2064.67,-431.37"/>
</g>
<!-- models/receiver.ts&#45;&gt;models/evaluated&#45;data.ts -->
<g id="edge9" class="edge">
<title>models/receiver.ts&#45;&gt;models/evaluated&#45;data.ts</title>
<path fill="none" stroke="#757575" d="M1976.83,-481.2C1994.46,-478.02 2013.97,-474.85 2032,-472.73 2120.26,-462.34 2221.38,-457.01 2293.68,-454.33"/>
<polygon fill="#757575" stroke="#757575" points="2293.82,-457.82 2303.68,-453.96 2293.56,-450.83 2293.82,-457.82"/>
</g>
<!-- services/firebasemessaging.ts -->
<g id="node11" class="node">
<title>services/firebasemessaging.ts</title>
<path fill="none" stroke="#cfffac" d="M2234.33,-505.23C2234.33,-505.23 2039.67,-505.23 2039.67,-505.23 2035.83,-505.23 2032,-501.4 2032,-497.57 2032,-497.57 2032,-489.9 2032,-489.9 2032,-486.07 2035.83,-482.23 2039.67,-482.23 2039.67,-482.23 2234.33,-482.23 2234.33,-482.23 2238.17,-482.23 2242,-486.07 2242,-489.9 2242,-489.9 2242,-497.57 2242,-497.57 2242,-501.4 2238.17,-505.23 2234.33,-505.23"/>
<text text-anchor="middle" x="2137" y="-490.03" font-family="Arial" font-size="14.00" fill="#cfffac">services/firebasemessaging.ts</text>
</g>
<!-- models/receiver.ts&#45;&gt;services/firebasemessaging.ts -->
<g id="edge11" class="edge">
<title>models/receiver.ts&#45;&gt;services/firebasemessaging.ts</title>
<path fill="none" stroke="#757575" d="M1985.63,-493.04C1997.1,-493.09 2009.31,-493.15 2021.62,-493.2"/>
<polygon fill="#757575" stroke="#757575" points="2021.96,-496.71 2031.98,-493.25 2022,-489.71 2021.96,-496.71"/>
</g>
<!-- services/websocketmessaging.ts -->
<g id="node12" class="node">
<title>services/websocketmessaging.ts</title>
<path fill="none" stroke="#c6c5fe" d="M2497.33,-525.23C2497.33,-525.23 2285.67,-525.23 2285.67,-525.23 2281.83,-525.23 2278,-521.4 2278,-517.57 2278,-517.57 2278,-509.9 2278,-509.9 2278,-506.07 2281.83,-502.23 2285.67,-502.23 2285.67,-502.23 2497.33,-502.23 2497.33,-502.23 2501.17,-502.23 2505,-506.07 2505,-509.9 2505,-509.9 2505,-517.57 2505,-517.57 2505,-521.4 2501.17,-525.23 2497.33,-525.23"/>
<text text-anchor="middle" x="2391.5" y="-510.03" font-family="Arial" font-size="14.00" fill="#c6c5fe">services/websocketmessaging.ts</text>
</g>
<!-- models/receiver.ts&#45;&gt;services/websocketmessaging.ts -->
<g id="edge12" class="edge">
<title>models/receiver.ts&#45;&gt;services/websocketmessaging.ts</title>
<path fill="none" stroke="#757575" d="M1970.18,-504.25C1989.43,-508.08 2011.62,-511.85 2032,-513.73 2110.12,-520.96 2198.23,-521.07 2267.54,-519.32"/>
<polygon fill="#757575" stroke="#757575" points="2267.73,-522.82 2277.63,-519.05 2267.54,-515.82 2267.73,-522.82"/>
</g>
<!-- util/log.ts -->
<g id="node13" class="node">
<title>util/log.ts</title>
<path fill="none" stroke="#c6c5fe" d="M2165.33,-898.23C2165.33,-898.23 2108.67,-898.23 2108.67,-898.23 2104.83,-898.23 2101,-894.4 2101,-890.57 2101,-890.57 2101,-882.9 2101,-882.9 2101,-879.07 2104.83,-875.23 2108.67,-875.23 2108.67,-875.23 2165.33,-875.23 2165.33,-875.23 2169.17,-875.23 2173,-879.07 2173,-882.9 2173,-882.9 2173,-890.57 2173,-890.57 2173,-894.4 2169.17,-898.23 2165.33,-898.23"/>
<text text-anchor="middle" x="2137" y="-883.03" font-family="Arial" font-size="14.00" fill="#c6c5fe">util/log.ts</text>
</g>
<!-- models/receiver.ts&#45;&gt;util/log.ts -->
<g id="edge13" class="edge">
<title>models/receiver.ts&#45;&gt;util/log.ts</title>
<path fill="none" stroke="#757575" d="M1925.98,-504.52C1956.42,-559.92 2085.38,-794.61 2124.62,-866.03"/>
<polygon fill="#757575" stroke="#757575" points="2121.66,-867.91 2129.55,-874.99 2127.8,-864.54 2121.66,-867.91"/>
</g>
<!-- models/transformer.ts&#45;&gt;models/connection&#45;response.d.ts -->
<g id="edge21" class="edge">
<title>models/transformer.ts&#45;&gt;models/connection&#45;response.d.ts</title>
<path fill="none" stroke="#757575" d="M1996.03,-375.71C2122.9,-378.99 2377.93,-385.59 2530.54,-389.54"/>
<polygon fill="#757575" stroke="#757575" points="2530.81,-393.05 2540.89,-389.81 2530.99,-386.05 2530.81,-393.05"/>
</g>
<!-- models/transformer.ts&#45;&gt;models/transformation.ts -->
<g id="edge22" class="edge">
<title>models/transformer.ts&#45;&gt;models/transformation.ts</title>
<path fill="none" stroke="#757575" d="M1937.96,-362.22C1976.13,-338.42 2063.91,-283.68 2108.67,-255.77"/>
<polygon fill="#757575" stroke="#757575" points="2110.65,-258.67 2117.28,-250.4 2106.94,-252.73 2110.65,-258.67"/>
</g>
<!-- models/evaluated&#45;data.ts&#45;&gt;models/connection&#45;response.d.ts -->
<g id="edge5" class="edge">
<title>models/evaluated&#45;data.ts&#45;&gt;models/connection&#45;response.d.ts</title>
<path fill="none" stroke="#757575" d="M2443.54,-440.22C2486.24,-430.58 2547.28,-416.81 2592.63,-406.58"/>
<polygon fill="#757575" stroke="#757575" points="2593.66,-409.93 2602.64,-404.32 2592.12,-403.11 2593.66,-409.93"/>
</g>
<!-- models/event.ts -->
<g id="node9" class="node">
<title>models/event.ts</title>
<path fill="none" stroke="#cfffac" d="M1779.83,-745.23C1779.83,-745.23 1678.17,-745.23 1678.17,-745.23 1674.33,-745.23 1670.5,-741.4 1670.5,-737.57 1670.5,-737.57 1670.5,-729.9 1670.5,-729.9 1670.5,-726.07 1674.33,-722.23 1678.17,-722.23 1678.17,-722.23 1779.83,-722.23 1779.83,-722.23 1783.67,-722.23 1787.5,-726.07 1787.5,-729.9 1787.5,-729.9 1787.5,-737.57 1787.5,-737.57 1787.5,-741.4 1783.67,-745.23 1779.83,-745.23"/>
<text text-anchor="middle" x="1729" y="-730.03" font-family="Arial" font-size="14.00" fill="#cfffac">models/event.ts</text>
</g>
<!-- services/websocketmessaging.ts&#45;&gt;models/connection&#45;response.d.ts -->
<g id="edge71" class="edge">
<title>services/websocketmessaging.ts&#45;&gt;models/connection&#45;response.d.ts</title>
<path fill="none" stroke="#757575" d="M2426.94,-502.19C2449.45,-494.32 2479.33,-483.27 2505,-471.73 2547.89,-452.45 2595.62,-426.27 2625.22,-409.43"/>
<polygon fill="#757575" stroke="#757575" points="2627.23,-412.32 2634.17,-404.31 2623.75,-406.24 2627.23,-412.32"/>
</g>
<!-- util/btoaatob.ts -->
<g id="node34" class="node">
<title>util/btoaatob.ts</title>
<path fill="none" stroke="#cfffac" d="M2437.83,-898.23C2437.83,-898.23 2345.17,-898.23 2345.17,-898.23 2341.33,-898.23 2337.5,-894.4 2337.5,-890.57 2337.5,-890.57 2337.5,-882.9 2337.5,-882.9 2337.5,-879.07 2341.33,-875.23 2345.17,-875.23 2345.17,-875.23 2437.83,-875.23 2437.83,-875.23 2441.67,-875.23 2445.5,-879.07 2445.5,-882.9 2445.5,-882.9 2445.5,-890.57 2445.5,-890.57 2445.5,-894.4 2441.67,-898.23 2437.83,-898.23"/>
<text text-anchor="middle" x="2391.5" y="-883.03" font-family="Arial" font-size="14.00" fill="#cfffac">util/btoaatob.ts</text>
</g>
<!-- util/log.ts&#45;&gt;util/btoaatob.ts -->
<g id="edge72" class="edge">
<title>util/log.ts&#45;&gt;util/btoaatob.ts</title>
<path fill="none" stroke="#757575" d="M2173.11,-886.73C2212.83,-886.73 2278.33,-886.73 2327.07,-886.73"/>
<polygon fill="#757575" stroke="#757575" points="2327.2,-890.23 2337.2,-886.73 2327.2,-883.23 2327.2,-890.23"/>
</g>
<!-- models/sender.ts -->
<g id="node14" class="node">
<title>models/sender.ts</title>
<path fill="none" stroke="#c6c5fe" d="M1607.33,-666.23C1607.33,-666.23 1495.67,-666.23 1495.67,-666.23 1491.83,-666.23 1488,-662.4 1488,-658.57 1488,-658.57 1488,-650.9 1488,-650.9 1488,-647.07 1491.83,-643.23 1495.67,-643.23 1495.67,-643.23 1607.33,-643.23 1607.33,-643.23 1611.17,-643.23 1615,-647.07 1615,-650.9 1615,-650.9 1615,-658.57 1615,-658.57 1615,-662.4 1611.17,-666.23 1607.33,-666.23"/>
<text text-anchor="middle" x="1551.5" y="-651.03" font-family="Arial" font-size="14.00" fill="#c6c5fe">models/sender.ts</text>
</g>
<!-- models/sender.ts&#45;&gt;models/battery.ts -->
<g id="edge14" class="edge">
<title>models/sender.ts&#45;&gt;models/battery.ts</title>
<path fill="none" stroke="#757575" d="M1605.63,-666.24C1624.27,-670.27 1645.4,-674.85 1664.79,-679.05"/>
<polygon fill="#757575" stroke="#757575" points="1664.23,-682.51 1674.75,-681.2 1665.71,-675.66 1664.23,-682.51"/>
</g>
<!-- models/sender.ts&#45;&gt;models/connection&#45;response.d.ts -->
<g id="edge15" class="edge">
<title>models/sender.ts&#45;&gt;models/connection&#45;response.d.ts</title>
<path fill="none" stroke="#757575" d="M1615.25,-643.64C1687.78,-631.81 1810.88,-614.73 1917.5,-614.73 1917.5,-614.73 1917.5,-614.73 2138,-614.73 2301.52,-614.73 2361.17,-666.52 2505,-588.73 2578.64,-548.91 2626.81,-455.3 2645.38,-413.51"/>
<polygon fill="#757575" stroke="#757575" points="2648.61,-414.86 2649.37,-404.29 2642.19,-412.08 2648.61,-414.86"/>
</g>
<!-- models/sender.ts&#45;&gt;models/connection.ts -->
<g id="edge16" class="edge">
<title>models/sender.ts&#45;&gt;models/connection.ts</title>
<path fill="none" stroke="#757575" d="M1559.45,-643C1574.98,-617.11 1614.18,-553.56 1653,-504.73 1670.61,-482.58 1693.07,-459.17 1708.79,-443.44"/>
<polygon fill="#757575" stroke="#757575" points="1711.29,-445.9 1715.92,-436.38 1706.36,-440.93 1711.29,-445.9"/>
</g>
<!-- models/sender.ts&#45;&gt;models/transformation.ts -->
<g id="edge18" class="edge">
<title>models/sender.ts&#45;&gt;models/transformation.ts</title>
<path fill="none" stroke="#757575" d="M1559.03,-643.01C1571.48,-620.31 1599.01,-568.55 1617,-522.73 1637.19,-471.3 1620.54,-448.45 1653,-403.73 1712.83,-321.32 1745.75,-308.77 1841,-272.73 1904.7,-248.63 1981.22,-240.35 2040.36,-237.98"/>
<polygon fill="#757575" stroke="#757575" points="2040.57,-241.48 2050.44,-237.63 2040.32,-234.48 2040.57,-241.48"/>
</g>
<!-- models/sender.ts&#45;&gt;models/transformer.ts -->
<g id="edge19" class="edge">
<title>models/sender.ts&#45;&gt;models/transformer.ts</title>
<path fill="none" stroke="#757575" d="M1567.72,-643.02C1624.65,-599.19 1825.31,-444.71 1894.13,-391.72"/>
<polygon fill="#757575" stroke="#757575" points="1896.43,-394.37 1902.22,-385.5 1892.16,-388.83 1896.43,-394.37"/>
</g>
<!-- models/sender.ts&#45;&gt;models/event.ts -->
<g id="edge17" class="edge">
<title>models/sender.ts&#45;&gt;models/event.ts</title>
<path fill="none" stroke="#757575" d="M1569.6,-666.39C1589.07,-679.23 1622.18,-699.76 1653,-712.73 1658.43,-715.02 1664.18,-717.13 1669.99,-719.07"/>
<polygon fill="#757575" stroke="#757575" points="1669.19,-722.48 1679.78,-722.16 1671.3,-715.81 1669.19,-722.48"/>
</g>
<!-- models/sender.ts&#45;&gt;util/log.ts -->
<g id="edge20" class="edge">
<title>models/sender.ts&#45;&gt;util/log.ts</title>
<path fill="none" stroke="#757575" d="M1615.15,-650.32C1667.29,-648.67 1742.79,-651 1805,-671.73 1936.51,-715.55 2066.87,-824.37 2115.78,-868.1"/>
<polygon fill="#757575" stroke="#757575" points="2113.66,-870.91 2123.43,-875.01 2118.35,-865.71 2113.66,-870.91"/>
</g>
<!-- models/test.ts -->
<g id="node15" class="node">
<title>models/test.ts</title>
<path fill="none" stroke="#cfffac" d="M143.83,-976.23C143.83,-976.23 53.17,-976.23 53.17,-976.23 49.33,-976.23 45.5,-972.4 45.5,-968.57 45.5,-968.57 45.5,-960.9 45.5,-960.9 45.5,-957.07 49.33,-953.23 53.17,-953.23 53.17,-953.23 143.83,-953.23 143.83,-953.23 147.67,-953.23 151.5,-957.07 151.5,-960.9 151.5,-960.9 151.5,-968.57 151.5,-968.57 151.5,-972.4 147.67,-976.23 143.83,-976.23"/>
<text text-anchor="middle" x="98.5" y="-961.03" font-family="Arial" font-size="14.00" fill="#cfffac">models/test.ts</text>
</g>
<!-- models/timer.ts -->
<g id="node16" class="node">
<title>models/timer.ts</title>
<path fill="none" stroke="#cfffac" d="M1600.83,-514.23C1600.83,-514.23 1502.17,-514.23 1502.17,-514.23 1498.33,-514.23 1494.5,-510.4 1494.5,-506.57 1494.5,-506.57 1494.5,-498.9 1494.5,-498.9 1494.5,-495.07 1498.33,-491.23 1502.17,-491.23 1502.17,-491.23 1600.83,-491.23 1600.83,-491.23 1604.67,-491.23 1608.5,-495.07 1608.5,-498.9 1608.5,-498.9 1608.5,-506.57 1608.5,-506.57 1608.5,-510.4 1604.67,-514.23 1600.83,-514.23"/>
<text text-anchor="middle" x="1551.5" y="-499.03" font-family="Arial" font-size="14.00" fill="#cfffac">models/timer.ts</text>
</g>
<!-- node&#45;red/glboal&#45;script.ts -->
<g id="node17" class="node">
<title>node&#45;red/glboal&#45;script.ts</title>
<path fill="none" stroke="#c6c5fe" d="M923.33,-1092.23C923.33,-1092.23 768.67,-1092.23 768.67,-1092.23 764.83,-1092.23 761,-1088.4 761,-1084.57 761,-1084.57 761,-1076.9 761,-1076.9 761,-1073.07 764.83,-1069.23 768.67,-1069.23 768.67,-1069.23 923.33,-1069.23 923.33,-1069.23 927.17,-1069.23 931,-1073.07 931,-1076.9 931,-1076.9 931,-1084.57 931,-1084.57 931,-1088.4 927.17,-1092.23 923.33,-1092.23"/>
<text text-anchor="middle" x="846" y="-1077.03" font-family="Arial" font-size="14.00" fill="#c6c5fe">node&#45;red/glboal&#45;script.ts</text>
</g>
<!-- node&#45;red/red&#45;ui.d.ts -->
<g id="node18" class="node">
<title>node&#45;red/red&#45;ui.d.ts</title>
<path fill="none" stroke="#cfffac" d="M1132.83,-1092.23C1132.83,-1092.23 1007.17,-1092.23 1007.17,-1092.23 1003.33,-1092.23 999.5,-1088.4 999.5,-1084.57 999.5,-1084.57 999.5,-1076.9 999.5,-1076.9 999.5,-1073.07 1003.33,-1069.23 1007.17,-1069.23 1007.17,-1069.23 1132.83,-1069.23 1132.83,-1069.23 1136.67,-1069.23 1140.5,-1073.07 1140.5,-1076.9 1140.5,-1076.9 1140.5,-1084.57 1140.5,-1084.57 1140.5,-1088.4 1136.67,-1092.23 1132.83,-1092.23"/>
<text text-anchor="middle" x="1070" y="-1077.03" font-family="Arial" font-size="14.00" fill="#cfffac">node&#45;red/red&#45;ui.d.ts</text>
</g>
<!-- node&#45;red/glboal&#45;script.ts&#45;&gt;node&#45;red/red&#45;ui.d.ts -->
<g id="edge23" class="edge">
<title>node&#45;red/glboal&#45;script.ts&#45;&gt;node&#45;red/red&#45;ui.d.ts</title>
<path fill="none" stroke="#757575" d="M931.25,-1080.73C950.27,-1080.73 970.41,-1080.73 989.25,-1080.73"/>
<polygon fill="#757575" stroke="#757575" points="989.27,-1084.23 999.27,-1080.73 989.27,-1077.23 989.27,-1084.23"/>
</g>
<!-- node&#45;red/node&#45;red&#45;registration.ts -->
<g id="node19" class="node">
<title>node&#45;red/node&#45;red&#45;registration.ts</title>
<path fill="none" stroke="#c6c5fe" d="M714.33,-1092.23C714.33,-1092.23 504.67,-1092.23 504.67,-1092.23 500.83,-1092.23 497,-1088.4 497,-1084.57 497,-1084.57 497,-1076.9 497,-1076.9 497,-1073.07 500.83,-1069.23 504.67,-1069.23 504.67,-1069.23 714.33,-1069.23 714.33,-1069.23 718.17,-1069.23 722,-1073.07 722,-1076.9 722,-1076.9 722,-1084.57 722,-1084.57 722,-1088.4 718.17,-1092.23 714.33,-1092.23"/>
<text text-anchor="middle" x="609.5" y="-1077.03" font-family="Arial" font-size="14.00" fill="#c6c5fe">node&#45;red/node&#45;red&#45;registration.ts</text>
</g>
<!-- node&#45;red/node&#45;red&#45;registration.ts&#45;&gt;node&#45;red/glboal&#45;script.ts -->
<g id="edge24" class="edge">
<title>node&#45;red/node&#45;red&#45;registration.ts&#45;&gt;node&#45;red/glboal&#45;script.ts</title>
<path fill="none" stroke="#757575" d="M722.26,-1080.73C731.79,-1080.73 741.36,-1080.73 750.74,-1080.73"/>
<polygon fill="#757575" stroke="#757575" points="750.82,-1084.23 760.82,-1080.73 750.82,-1077.23 750.82,-1084.23"/>
</g>
<!-- node&#45;red/node&#45;red&#45;registration.ts&#45;&gt;node&#45;red/red&#45;ui.d.ts -->
<g id="edge25" class="edge">
<title>node&#45;red/node&#45;red&#45;registration.ts&#45;&gt;node&#45;red/red&#45;ui.d.ts</title>
<path fill="none" stroke="#757575" d="M677.1,-1069.21C702.36,-1065.38 731.42,-1061.61 758,-1059.73 836.03,-1054.21 856.01,-1053.7 934,-1059.73 954.93,-1061.35 977.53,-1064.36 998.14,-1067.61"/>
<polygon fill="#757575" stroke="#757575" points="997.65,-1071.07 1008.08,-1069.21 998.76,-1064.16 997.65,-1071.07"/>
</g>
<!-- node&#45;red/register&#45;custom&#45;type.ts -->
<g id="node20" class="node">
<title>node&#45;red/register&#45;custom&#45;type.ts</title>
<path fill="none" stroke="#c6c5fe" d="M451.33,-1112.23C451.33,-1112.23 242.67,-1112.23 242.67,-1112.23 238.83,-1112.23 235,-1108.4 235,-1104.57 235,-1104.57 235,-1096.9 235,-1096.9 235,-1093.07 238.83,-1089.23 242.67,-1089.23 242.67,-1089.23 451.33,-1089.23 451.33,-1089.23 455.17,-1089.23 459,-1093.07 459,-1096.9 459,-1096.9 459,-1104.57 459,-1104.57 459,-1108.4 455.17,-1112.23 451.33,-1112.23"/>
<text text-anchor="middle" x="347" y="-1097.03" font-family="Arial" font-size="14.00" fill="#c6c5fe">node&#45;red/register&#45;custom&#45;type.ts</text>
</g>
<!-- node&#45;red/register&#45;custom&#45;type.ts&#45;&gt;node&#45;red/red&#45;ui.d.ts -->
<g id="edge27" class="edge">
<title>node&#45;red/register&#45;custom&#45;type.ts&#45;&gt;node&#45;red/red&#45;ui.d.ts</title>
<path fill="none" stroke="#757575" d="M459.16,-1105.58C577.15,-1109.6 769,-1112.89 934,-1100.73 953.72,-1099.28 974.93,-1096.65 994.56,-1093.76"/>
<polygon fill="#757575" stroke="#757575" points="995.3,-1097.19 1004.67,-1092.23 994.26,-1090.27 995.3,-1097.19"/>
</g>
<!-- node&#45;red/register&#45;custom&#45;type.ts&#45;&gt;node&#45;red/node&#45;red&#45;registration.ts -->
<g id="edge26" class="edge">
<title>node&#45;red/register&#45;custom&#45;type.ts&#45;&gt;node&#45;red/node&#45;red&#45;registration.ts</title>
<path fill="none" stroke="#757575" d="M459.23,-1092.19C468.27,-1091.5 477.44,-1090.79 486.55,-1090.09"/>
<polygon fill="#757575" stroke="#757575" points="487.11,-1093.56 496.81,-1089.31 486.57,-1086.58 487.11,-1093.56"/>
</g>
<!-- node&#45;red/server.ts -->
<g id="node21" class="node">
<title>node&#45;red/server.ts</title>
<path fill="none" stroke="#c6c5fe" d="M157.33,-1112.23C157.33,-1112.23 39.67,-1112.23 39.67,-1112.23 35.83,-1112.23 32,-1108.4 32,-1104.57 32,-1104.57 32,-1096.9 32,-1096.9 32,-1093.07 35.83,-1089.23 39.67,-1089.23 39.67,-1089.23 157.33,-1089.23 157.33,-1089.23 161.17,-1089.23 165,-1093.07 165,-1096.9 165,-1096.9 165,-1104.57 165,-1104.57 165,-1108.4 161.17,-1112.23 157.33,-1112.23"/>
<text text-anchor="middle" x="98.5" y="-1097.03" font-family="Arial" font-size="14.00" fill="#c6c5fe">node&#45;red/server.ts</text>
</g>
<!-- node&#45;red/server.ts&#45;&gt;node&#45;red/register&#45;custom&#45;type.ts -->
<g id="edge28" class="edge">
<title>node&#45;red/server.ts&#45;&gt;node&#45;red/register&#45;custom&#45;type.ts</title>
<path fill="none" stroke="#757575" d="M165.23,-1100.73C183.62,-1100.73 204.2,-1100.73 224.72,-1100.73"/>
<polygon fill="#757575" stroke="#757575" points="224.77,-1104.23 234.77,-1100.73 224.77,-1097.23 224.77,-1104.23"/>
</g>
<!-- resources/connection.r.ts -->
<g id="node22" class="node">
<title>resources/connection.r.ts</title>
<path fill="none" stroke="#c6c5fe" d="M926.33,-503.23C926.33,-503.23 765.67,-503.23 765.67,-503.23 761.83,-503.23 758,-499.4 758,-495.57 758,-495.57 758,-487.9 758,-487.9 758,-484.07 761.83,-480.23 765.67,-480.23 765.67,-480.23 926.33,-480.23 926.33,-480.23 930.17,-480.23 934,-484.07 934,-487.9 934,-487.9 934,-495.57 934,-495.57 934,-499.4 930.17,-503.23 926.33,-503.23"/>
<text text-anchor="middle" x="846" y="-488.03" font-family="Arial" font-size="14.00" fill="#c6c5fe">resources/connection.r.ts</text>
</g>
<!-- resources/connection.r.ts&#45;&gt;models/connection.ts -->
<g id="edge29" class="edge">
<title>resources/connection.r.ts&#45;&gt;models/connection.ts</title>
<path fill="none" stroke="#757575" d="M872.76,-480.13C897.22,-469.74 935.31,-455.19 970,-448.73 1210.57,-403.97 1501.34,-411.55 1642.63,-419.07"/>
<polygon fill="#757575" stroke="#757575" points="1642.78,-422.58 1652.95,-419.63 1643.16,-415.59 1642.78,-422.58"/>
</g>
<!-- resources/connection.r.ts&#45;&gt;models/receiver.ts -->
<g id="edge30" class="edge">
<title>resources/connection.r.ts&#45;&gt;models/receiver.ts</title>
<path fill="none" stroke="#757575" d="M934.19,-488.82C1076.92,-484.46 1369.38,-477.2 1617,-481.73 1693.23,-483.13 1780.29,-486.51 1841.01,-489.16"/>
<polygon fill="#757575" stroke="#757575" points="1841.13,-492.67 1851.27,-489.61 1841.44,-485.67 1841.13,-492.67"/>
</g>
<!-- resources/connection.r.ts&#45;&gt;models/sender.ts -->
<g id="edge31" class="edge">
<title>resources/connection.r.ts&#45;&gt;models/sender.ts</title>
<path fill="none" stroke="#757575" d="M896.75,-503.26C1022.84,-532.47 1354.6,-609.34 1490.82,-640.9"/>
<polygon fill="#757575" stroke="#757575" points="1490.14,-644.34 1500.67,-643.19 1491.72,-637.52 1490.14,-644.34"/>
</g>
<!-- resources/frontend&#45;update.ts -->
<g id="node23" class="node">
<title>resources/frontend&#45;update.ts</title>
<path fill="none" stroke="#c6c5fe" d="M1162.33,-666.23C1162.33,-666.23 977.67,-666.23 977.67,-666.23 973.83,-666.23 970,-662.4 970,-658.57 970,-658.57 970,-650.9 970,-650.9 970,-647.07 973.83,-643.23 977.67,-643.23 977.67,-643.23 1162.33,-643.23 1162.33,-643.23 1166.17,-643.23 1170,-647.07 1170,-650.9 1170,-650.9 1170,-658.57 1170,-658.57 1170,-662.4 1166.17,-666.23 1162.33,-666.23"/>
<text text-anchor="middle" x="1070" y="-651.03" font-family="Arial" font-size="14.00" fill="#c6c5fe">resources/frontend&#45;update.ts</text>
</g>
<!-- resources/connection.r.ts&#45;&gt;resources/frontend&#45;update.ts -->
<g id="edge32" class="edge">
<title>resources/connection.r.ts&#45;&gt;resources/frontend&#45;update.ts</title>
<path fill="none" stroke="#757575" d="M860.65,-503.5C882.97,-522.55 928.9,-561.03 970,-590.73 993.3,-607.57 1020.84,-625.2 1040.95,-637.69"/>
<polygon fill="#757575" stroke="#757575" points="1039.28,-640.77 1049.63,-643.04 1042.95,-634.81 1039.28,-640.77"/>
</g>
<!-- resources/frontend&#45;update.ts&#45;&gt;models/timer.ts -->
<g id="edge33" class="edge">
<title>resources/frontend&#45;update.ts&#45;&gt;models/timer.ts</title>
<path fill="none" stroke="#757575" d="M1107.43,-643.18C1193.56,-615.88 1409.56,-547.41 1504.51,-517.31"/>
<polygon fill="#757575" stroke="#757575" points="1505.65,-520.62 1514.12,-514.26 1503.53,-513.95 1505.65,-520.62"/>
</g>
<!-- resources/websocket&#45;response.d.ts -->
<g id="node24" class="node">
<title>resources/websocket&#45;response.d.ts</title>
<path fill="none" stroke="#c6c5fe" d="M1442.33,-666.23C1442.33,-666.23 1213.67,-666.23 1213.67,-666.23 1209.83,-666.23 1206,-662.4 1206,-658.57 1206,-658.57 1206,-650.9 1206,-650.9 1206,-647.07 1209.83,-643.23 1213.67,-643.23 1213.67,-643.23 1442.33,-643.23 1442.33,-643.23 1446.17,-643.23 1450,-647.07 1450,-650.9 1450,-650.9 1450,-658.57 1450,-658.57 1450,-662.4 1446.17,-666.23 1442.33,-666.23"/>
<text text-anchor="middle" x="1328" y="-651.03" font-family="Arial" font-size="14.00" fill="#c6c5fe">resources/websocket&#45;response.d.ts</text>
</g>
<!-- resources/frontend&#45;update.ts&#45;&gt;resources/websocket&#45;response.d.ts -->
<g id="edge34" class="edge">
<title>resources/frontend&#45;update.ts&#45;&gt;resources/websocket&#45;response.d.ts</title>
<path fill="none" stroke="#757575" d="M1170.34,-654.73C1178.73,-654.73 1187.28,-654.73 1195.86,-654.73"/>
<polygon fill="#757575" stroke="#757575" points="1195.93,-658.23 1205.93,-654.73 1195.93,-651.23 1195.93,-658.23"/>
</g>
<!-- services/sender&#45;loader.ts -->
<g id="node25" class="node">
<title>services/sender&#45;loader.ts</title>
<path fill="none" stroke="#c6c5fe" d="M1408.83,-822.23C1408.83,-822.23 1247.17,-822.23 1247.17,-822.23 1243.33,-822.23 1239.5,-818.4 1239.5,-814.57 1239.5,-814.57 1239.5,-806.9 1239.5,-806.9 1239.5,-803.07 1243.33,-799.23 1247.17,-799.23 1247.17,-799.23 1408.83,-799.23 1408.83,-799.23 1412.67,-799.23 1416.5,-803.07 1416.5,-806.9 1416.5,-806.9 1416.5,-814.57 1416.5,-814.57 1416.5,-818.4 1412.67,-822.23 1408.83,-822.23"/>
<text text-anchor="middle" x="1328" y="-807.03" font-family="Arial" font-size="14.00" fill="#c6c5fe">services/sender&#45;loader.ts</text>
</g>
<!-- resources/frontend&#45;update.ts&#45;&gt;services/sender&#45;loader.ts -->
<g id="edge35" class="edge">
<title>resources/frontend&#45;update.ts&#45;&gt;services/sender&#45;loader.ts</title>
<path fill="none" stroke="#757575" d="M1090.24,-666.46C1135.11,-693.8 1246.8,-761.86 1299.13,-793.75"/>
<polygon fill="#757575" stroke="#757575" points="1297.52,-796.87 1307.88,-799.08 1301.17,-790.89 1297.52,-796.87"/>
</g>
<!-- resources/websocket&#45;response.d.ts&#45;&gt;models/sender.ts -->
<g id="edge48" class="edge">
<title>resources/websocket&#45;response.d.ts&#45;&gt;models/sender.ts</title>
<path fill="none" stroke="#757575" d="M1450.12,-654.73C1459.48,-654.73 1468.75,-654.73 1477.64,-654.73"/>
<polygon fill="#757575" stroke="#757575" points="1477.9,-658.23 1487.9,-654.73 1477.9,-651.23 1477.9,-658.23"/>
</g>
<!-- resources/websocket&#45;response.d.ts&#45;&gt;models/timer.ts -->
<g id="edge49" class="edge">
<title>resources/websocket&#45;response.d.ts&#45;&gt;models/timer.ts</title>
<path fill="none" stroke="#757575" d="M1346.01,-643.06C1384.76,-616.47 1479.74,-551.29 1525.31,-520.02"/>
<polygon fill="#757575" stroke="#757575" points="1527.47,-522.78 1533.73,-514.24 1523.51,-517.01 1527.47,-522.78"/>
</g>
<!-- services/sender&#45;loader.ts&#45;&gt;models/sound.ts -->
<g id="edge61" class="edge">
<title>services/sender&#45;loader.ts&#45;&gt;models/sound.ts</title>
<path fill="none" stroke="#757575" d="M1416.67,-805.16C1512.79,-797.92 1671.17,-782.62 1805,-753.73 2015.38,-708.32 2258.09,-619.47 2351.29,-583.94"/>
<polygon fill="#757575" stroke="#757575" points="2352.78,-587.12 2360.87,-580.28 2350.28,-580.58 2352.78,-587.12"/>
</g>
<!-- services/sender&#45;loader.ts&#45;&gt;models/sender.ts -->
<g id="edge60" class="edge">
<title>services/sender&#45;loader.ts&#45;&gt;models/sender.ts</title>
<path fill="none" stroke="#757575" d="M1416.52,-799.66C1428.3,-796 1439.82,-791.15 1450,-784.73 1493.18,-757.53 1525.09,-704.86 1540.4,-675.6"/>
<polygon fill="#757575" stroke="#757575" points="1543.71,-676.81 1545.11,-666.31 1537.46,-673.64 1543.71,-676.81"/>
</g>
<!-- util/tsc&#45;compiler.ts -->
<g id="node33" class="node">
<title>util/tsc&#45;compiler.ts</title>
<path fill="none" stroke="#c6c5fe" d="M1609.33,-936.23C1609.33,-936.23 1493.67,-936.23 1493.67,-936.23 1489.83,-936.23 1486,-932.4 1486,-928.57 1486,-928.57 1486,-920.9 1486,-920.9 1486,-917.07 1489.83,-913.23 1493.67,-913.23 1493.67,-913.23 1609.33,-913.23 1609.33,-913.23 1613.17,-913.23 1617,-917.07 1617,-920.9 1617,-920.9 1617,-928.57 1617,-928.57 1617,-932.4 1613.17,-936.23 1609.33,-936.23"/>
<text text-anchor="middle" x="1551.5" y="-921.03" font-family="Arial" font-size="14.00" fill="#c6c5fe">util/tsc&#45;compiler.ts</text>
</g>
<!-- services/sender&#45;loader.ts&#45;&gt;util/tsc&#45;compiler.ts -->
<g id="edge62" class="edge">
<title>services/sender&#45;loader.ts&#45;&gt;util/tsc&#45;compiler.ts</title>
<path fill="none" stroke="#757575" d="M1351.46,-822.29C1391.09,-842.69 1473.54,-885.12 1518.9,-908.47"/>
<polygon fill="#757575" stroke="#757575" points="1517.49,-911.68 1527.98,-913.14 1520.69,-905.45 1517.49,-911.68"/>
</g>
<!-- resources/receiver.r.ts -->
<g id="node26" class="node">
<title>resources/receiver.r.ts</title>
<path fill="none" stroke="#c6c5fe" d="M917.33,-628.23C917.33,-628.23 774.67,-628.23 774.67,-628.23 770.83,-628.23 767,-624.4 767,-620.57 767,-620.57 767,-612.9 767,-612.9 767,-609.07 770.83,-605.23 774.67,-605.23 774.67,-605.23 917.33,-605.23 917.33,-605.23 921.17,-605.23 925,-609.07 925,-612.9 925,-612.9 925,-620.57 925,-620.57 925,-624.4 921.17,-628.23 917.33,-628.23"/>
<text text-anchor="middle" x="846" y="-613.03" font-family="Arial" font-size="14.00" fill="#c6c5fe">resources/receiver.r.ts</text>
</g>
<!-- resources/receiver.r.ts&#45;&gt;models/receiver.ts -->
<g id="edge36" class="edge">
<title>resources/receiver.r.ts&#45;&gt;models/receiver.ts</title>
<path fill="none" stroke="#757575" d="M925.28,-607.66C1123.79,-584.67 1644.93,-524.3 1841.23,-501.57"/>
<polygon fill="#757575" stroke="#757575" points="1841.64,-505.04 1851.17,-500.41 1840.84,-498.09 1841.64,-505.04"/>
</g>
<!-- resources/receiver.r.ts&#45;&gt;util/log.ts -->
<g id="edge38" class="edge">
<title>resources/receiver.r.ts&#45;&gt;util/log.ts</title>
<path fill="none" stroke="#757575" d="M861.61,-628.31C928.24,-680.19 1211.88,-891.07 1486,-944.73 1710.31,-988.64 1984.75,-927.33 2091.01,-899.36"/>
<polygon fill="#757575" stroke="#757575" points="2092,-902.72 2100.76,-896.76 2090.2,-895.96 2092,-902.72"/>
</g>
<!-- resources/receiver.r.ts&#45;&gt;resources/frontend&#45;update.ts -->
<g id="edge37" class="edge">
<title>resources/receiver.r.ts&#45;&gt;resources/frontend&#45;update.ts</title>
<path fill="none" stroke="#757575" d="M914.21,-628.24C938.66,-632.42 966.48,-637.18 991.73,-641.51"/>
<polygon fill="#757575" stroke="#757575" points="991.19,-644.96 1001.64,-643.2 992.37,-638.06 991.19,-644.96"/>
</g>
<!-- resources/sender.r.ts -->
<g id="node27" class="node">
<title>resources/sender.r.ts</title>
<path fill="none" stroke="#c6c5fe" d="M166.83,-820.23C166.83,-820.23 30.17,-820.23 30.17,-820.23 26.33,-820.23 22.5,-816.4 22.5,-812.57 22.5,-812.57 22.5,-804.9 22.5,-804.9 22.5,-801.07 26.33,-797.23 30.17,-797.23 30.17,-797.23 166.83,-797.23 166.83,-797.23 170.67,-797.23 174.5,-801.07 174.5,-804.9 174.5,-804.9 174.5,-812.57 174.5,-812.57 174.5,-816.4 170.67,-820.23 166.83,-820.23"/>
<text text-anchor="middle" x="98.5" y="-805.03" font-family="Arial" font-size="14.00" fill="#c6c5fe">resources/sender.r.ts</text>
</g>
<!-- resources/sender.r.ts&#45;&gt;models/battery.ts -->
<g id="edge39" class="edge">
<title>resources/sender.r.ts&#45;&gt;models/battery.ts</title>
<path fill="none" stroke="#757575" d="M128.22,-820.26C204.87,-849.95 421.18,-926.73 608.5,-926.73 608.5,-926.73 608.5,-926.73 1071,-926.73 1244.76,-926.73 1289.11,-896.36 1450,-830.73 1546.63,-791.32 1556.62,-752.75 1653,-712.73 1657.7,-710.78 1662.65,-708.97 1667.67,-707.3"/>
<polygon fill="#757575" stroke="#757575" points="1668.86,-710.59 1677.36,-704.26 1666.77,-703.91 1668.86,-710.59"/>
</g>
<!-- resources/sender.r.ts&#45;&gt;models/transformation.ts -->
<g id="edge43" class="edge">
<title>resources/sender.r.ts&#45;&gt;models/transformation.ts</title>
<path fill="none" stroke="#757575" d="M108.08,-797.12C127.78,-771.09 178.73,-707.16 233,-666.73 442.28,-510.81 509.33,-482.91 758,-403.73 1222,-255.99 1355.45,-274.73 1841,-237.73 1907.36,-232.68 1982.36,-233.01 2040.13,-234.57"/>
<polygon fill="#757575" stroke="#757575" points="2040.25,-238.07 2050.35,-234.86 2040.45,-231.07 2040.25,-238.07"/>
</g>
<!-- resources/sender.r.ts&#45;&gt;models/event.ts -->
<g id="edge40" class="edge">
<title>resources/sender.r.ts&#45;&gt;models/event.ts</title>
<path fill="none" stroke="#757575" d="M106.8,-820.28C124.54,-847.17 172.93,-913.78 233,-940.73 385.57,-1009.19 441.27,-964.73 608.5,-964.73 608.5,-964.73 608.5,-964.73 1071,-964.73 1239.78,-964.73 1296.67,-1011.27 1450,-940.73 1470.84,-931.14 1468.11,-918.1 1486,-903.73 1539.38,-860.88 1561.08,-862.22 1617,-822.73 1649.56,-799.74 1685.18,-770.37 1707.06,-751.8"/>
<polygon fill="#757575" stroke="#757575" points="1709.41,-754.4 1714.74,-745.24 1704.86,-749.07 1709.41,-754.4"/>
</g>
<!-- resources/sender.r.ts&#45;&gt;util/log.ts -->
<g id="edge47" class="edge">
<title>resources/sender.r.ts&#45;&gt;util/log.ts</title>
<path fill="none" stroke="#757575" d="M107.06,-820.39C129.84,-855.1 198.38,-956.53 233,-974.73 381.13,-1052.6 441.15,-1002.73 608.5,-1002.73 608.5,-1002.73 608.5,-1002.73 1730,-1002.73 1850.55,-1002.73 1881.19,-986.48 1996,-949.73 2034.83,-937.3 2077.24,-917.24 2105.09,-903.09"/>
<polygon fill="#757575" stroke="#757575" points="2107.01,-906.04 2114.3,-898.36 2103.81,-899.82 2107.01,-906.04"/>
</g>
<!-- resources/sender.r.ts&#45;&gt;models/sender.ts -->
<g id="edge41" class="edge">
<title>resources/sender.r.ts&#45;&gt;models/sender.ts</title>
<path fill="none" stroke="#757575" d="M174.53,-808.73C273.82,-808.73 454.3,-808.73 608.5,-808.73 608.5,-808.73 608.5,-808.73 847,-808.73 914.35,-808.73 1388.55,-774.31 1450,-746.73 1486.2,-730.49 1518.11,-696.03 1535.81,-674.21"/>
<polygon fill="#757575" stroke="#757575" points="1538.63,-676.27 1542.08,-666.25 1533.14,-671.94 1538.63,-676.27"/>
</g>
<!-- resources/sender.r.ts&#45;&gt;models/timer.ts -->
<g id="edge42" class="edge">
<title>resources/sender.r.ts&#45;&gt;models/timer.ts</title>
<path fill="none" stroke="#757575" d="M122.72,-797.11C149.04,-784.21 193.42,-763.31 233,-748.73 648.75,-595.56 765.75,-581.67 1206,-531.73 1302.43,-520.79 1414.49,-512.1 1483.96,-507.19"/>
<polygon fill="#757575" stroke="#757575" points="1484.58,-510.65 1494.31,-506.46 1484.09,-503.67 1484.58,-510.65"/>
</g>
<!-- resources/sender.r.ts&#45;&gt;resources/frontend&#45;update.ts -->
<g id="edge44" class="edge">
<title>resources/sender.r.ts&#45;&gt;resources/frontend&#45;update.ts</title>
<path fill="none" stroke="#757575" d="M171.97,-797.22C348.52,-769.18 800.02,-697.46 986.51,-667.84"/>
<polygon fill="#757575" stroke="#757575" points="987.2,-671.27 996.53,-666.24 986.1,-664.36 987.2,-671.27"/>
</g>
<!-- resources/sender.r.ts&#45;&gt;services/sender&#45;loader.ts -->
<g id="edge45" class="edge">
<title>resources/sender.r.ts&#45;&gt;services/sender&#45;loader.ts</title>
<path fill="none" stroke="#757575" d="M174.83,-817.88C274.06,-829.13 454.09,-846.73 608.5,-846.73 608.5,-846.73 608.5,-846.73 847,-846.73 979.57,-846.73 1132.16,-832.91 1229.05,-822.39"/>
<polygon fill="#757575" stroke="#757575" points="1229.56,-825.86 1239.12,-821.29 1228.8,-818.9 1229.56,-825.86"/>
</g>
<!-- services/sender&#45;trigger&#45;service.ts -->
<g id="node28" class="node">
<title>services/sender&#45;trigger&#45;service.ts</title>
<path fill="none" stroke="#c6c5fe" d="M453.33,-418.23C453.33,-418.23 240.67,-418.23 240.67,-418.23 236.83,-418.23 233,-414.4 233,-410.57 233,-410.57 233,-402.9 233,-402.9 233,-399.07 236.83,-395.23 240.67,-395.23 240.67,-395.23 453.33,-395.23 453.33,-395.23 457.17,-395.23 461,-399.07 461,-402.9 461,-402.9 461,-410.57 461,-410.57 461,-414.4 457.17,-418.23 453.33,-418.23"/>
<text text-anchor="middle" x="347" y="-403.03" font-family="Arial" font-size="14.00" fill="#c6c5fe">services/sender&#45;trigger&#45;service.ts</text>
</g>
<!-- resources/sender.r.ts&#45;&gt;services/sender&#45;trigger&#45;service.ts -->
<g id="edge46" class="edge">
<title>resources/sender.r.ts&#45;&gt;services/sender&#45;trigger&#45;service.ts</title>
<path fill="none" stroke="#757575" d="M99.82,-797.07C101.9,-745.48 117.42,-535.73 233,-432.73 237.23,-428.97 241.89,-425.71 246.84,-422.91"/>
<polygon fill="#757575" stroke="#757575" points="248.64,-425.92 256.03,-418.32 245.52,-419.65 248.64,-425.92"/>
</g>
<!-- services/sender&#45;trigger&#45;service.ts&#45;&gt;models/connection&#45;response.d.ts -->
<g id="edge63" class="edge">
<title>services/sender&#45;trigger&#45;service.ts&#45;&gt;models/connection&#45;response.d.ts</title>
<path fill="none" stroke="#757575" d="M349.69,-395.2C357.17,-348.51 391.73,-171.94 497,-86.73 620.35,13.12 686.3,-6.73 845,-6.73 845,-6.73 845,-6.73 2138,-6.73 2303.57,-6.73 2373.7,30.13 2505,-70.73 2606.42,-148.64 2641.34,-311.97 2650.91,-370.92"/>
<polygon fill="#757575" stroke="#757575" points="2647.48,-371.62 2652.46,-380.97 2654.4,-370.56 2647.48,-371.62"/>
</g>
<!-- services/sender&#45;trigger&#45;service.ts&#45;&gt;models/transformation.ts -->
<g id="edge65" class="edge">
<title>services/sender&#45;trigger&#45;service.ts&#45;&gt;models/transformation.ts</title>
<path fill="none" stroke="#757575" d="M352.91,-395.17C368.51,-359.82 420.46,-252.12 497,-195.73 627.92,-99.28 682.38,-82.73 845,-82.73 845,-82.73 845,-82.73 1730,-82.73 1850.05,-82.73 1886.29,-80.97 1996,-129.73 2045.28,-151.63 2092.62,-194.55 2117.64,-219.5"/>
<polygon fill="#757575" stroke="#757575" points="2115.44,-222.25 2124.95,-226.92 2120.43,-217.34 2115.44,-222.25"/>
</g>
<!-- services/sender&#45;trigger&#45;service.ts&#45;&gt;models/sender.ts -->
<g id="edge64" class="edge">
<title>services/sender&#45;trigger&#45;service.ts&#45;&gt;models/sender.ts</title>
<path fill="none" stroke="#757575" d="M363.84,-418.25C416.73,-456.1 593.21,-577.64 758,-636.73 1047.94,-740.7 1143.47,-704.94 1450,-674.73 1463.89,-673.36 1478.71,-670.95 1492.58,-668.27"/>
<polygon fill="#757575" stroke="#757575" points="1493.37,-671.68 1502.48,-666.28 1491.99,-664.82 1493.37,-671.68"/>
</g>
<!-- services/connection&#45;service.ts -->
<g id="node30" class="node">
<title>services/connection&#45;service.ts</title>
<path fill="none" stroke="#c6c5fe" d="M705.83,-228.23C705.83,-228.23 513.17,-228.23 513.17,-228.23 509.33,-228.23 505.5,-224.4 505.5,-220.57 505.5,-220.57 505.5,-212.9 505.5,-212.9 505.5,-209.07 509.33,-205.23 513.17,-205.23 513.17,-205.23 705.83,-205.23 705.83,-205.23 709.67,-205.23 713.5,-209.07 713.5,-212.9 713.5,-212.9 713.5,-220.57 713.5,-220.57 713.5,-224.4 709.67,-228.23 705.83,-228.23"/>
<text text-anchor="middle" x="609.5" y="-213.03" font-family="Arial" font-size="14.00" fill="#c6c5fe">services/connection&#45;service.ts</text>
</g>
<!-- services/sender&#45;trigger&#45;service.ts&#45;&gt;services/connection&#45;service.ts -->
<g id="edge66" class="edge">
<title>services/sender&#45;trigger&#45;service.ts&#45;&gt;services/connection&#45;service.ts</title>
<path fill="none" stroke="#757575" d="M363.9,-395.13C407.96,-363 531.78,-272.69 584.38,-234.33"/>
<polygon fill="#757575" stroke="#757575" points="586.46,-237.14 592.47,-228.42 582.33,-231.49 586.46,-237.14"/>
</g>
<!-- services/timer&#45;factory.ts -->
<g id="node31" class="node">
<title>services/timer&#45;factory.ts</title>
<path fill="none" stroke="#c6c5fe" d="M921.83,-436.23C921.83,-436.23 770.17,-436.23 770.17,-436.23 766.33,-436.23 762.5,-432.4 762.5,-428.57 762.5,-428.57 762.5,-420.9 762.5,-420.9 762.5,-417.07 766.33,-413.23 770.17,-413.23 770.17,-413.23 921.83,-413.23 921.83,-413.23 925.67,-413.23 929.5,-417.07 929.5,-420.9 929.5,-420.9 929.5,-428.57 929.5,-428.57 929.5,-432.4 925.67,-436.23 921.83,-436.23"/>
<text text-anchor="middle" x="846" y="-421.03" font-family="Arial" font-size="14.00" fill="#c6c5fe">services/timer&#45;factory.ts</text>
</g>
<!-- services/sender&#45;trigger&#45;service.ts&#45;&gt;services/timer&#45;factory.ts -->
<g id="edge67" class="edge">
<title>services/sender&#45;trigger&#45;service.ts&#45;&gt;services/timer&#45;factory.ts</title>
<path fill="none" stroke="#757575" d="M461.09,-410.83C549.08,-414.01 669.68,-418.38 752.09,-421.37"/>
<polygon fill="#757575" stroke="#757575" points="752.08,-424.87 762.2,-421.73 752.33,-417.87 752.08,-424.87"/>
</g>
<!-- resources/transformation.r.ts -->
<g id="node29" class="node">
<title>resources/transformation.r.ts</title>
<path fill="none" stroke="#cfffac" d="M189.33,-1153.23C189.33,-1153.23 7.67,-1153.23 7.67,-1153.23 3.83,-1153.23 0,-1149.4 0,-1145.57 0,-1145.57 0,-1137.9 0,-1137.9 0,-1134.07 3.83,-1130.23 7.67,-1130.23 7.67,-1130.23 189.33,-1130.23 189.33,-1130.23 193.17,-1130.23 197,-1134.07 197,-1137.9 197,-1137.9 197,-1145.57 197,-1145.57 197,-1149.4 193.17,-1153.23 189.33,-1153.23"/>
<text text-anchor="middle" x="98.5" y="-1138.03" font-family="Arial" font-size="14.00" fill="#cfffac">resources/transformation.r.ts</text>
</g>
<!-- services/connection&#45;service.ts&#45;&gt;models/connection&#45;response.d.ts -->
<g id="edge50" class="edge">
<title>services/connection&#45;service.ts&#45;&gt;models/connection&#45;response.d.ts</title>
<path fill="none" stroke="#757575" d="M626.52,-205.15C652.8,-186.63 707.21,-150.26 758,-128.73 889.83,-72.86 925.82,-44.73 1069,-44.73 1069,-44.73 1069,-44.73 2138,-44.73 2374.74,-44.73 2584.2,-299.63 2639.68,-373.12"/>
<polygon fill="#757575" stroke="#757575" points="2636.89,-375.23 2645.67,-381.15 2642.5,-371.05 2636.89,-375.23"/>
</g>
<!-- services/connection&#45;service.ts&#45;&gt;models/connection.ts -->
<g id="edge51" class="edge">
<title>services/connection&#45;service.ts&#45;&gt;models/connection.ts</title>
<path fill="none" stroke="#757575" d="M713.79,-223.1C806.69,-228.28 946.92,-234.73 1069,-234.73 1069,-234.73 1069,-234.73 1329,-234.73 1487.73,-234.73 1650.48,-358.81 1707.1,-406.43"/>
<polygon fill="#757575" stroke="#757575" points="1705.08,-409.31 1714.96,-413.13 1709.62,-403.98 1705.08,-409.31"/>
</g>
<!-- services/connection&#45;service.ts&#45;&gt;models/receiver&#45;data.ts -->
<g id="edge52" class="edge">
<title>services/connection&#45;service.ts&#45;&gt;models/receiver&#45;data.ts</title>
<path fill="none" stroke="#757575" d="M664.89,-205.19C819.3,-174.89 1271.54,-103.25 1617,-221.73 1735.73,-262.45 1723.58,-349.37 1841,-393.73 1905.91,-418.26 1984.53,-422.46 2044.27,-420.96"/>
<polygon fill="#757575" stroke="#757575" points="2044.56,-424.45 2054.45,-420.65 2044.34,-417.46 2044.56,-424.45"/>
</g>
<!-- services/connection&#45;service.ts&#45;&gt;models/transformation.ts -->
<g id="edge53" class="edge">
<title>services/connection&#45;service.ts&#45;&gt;models/transformation.ts</title>
<path fill="none" stroke="#757575" d="M642.81,-205.15C717.05,-179.62 905.94,-120.73 1069,-120.73 1069,-120.73 1069,-120.73 1730,-120.73 1874.47,-120.73 2036.78,-190.48 2104.1,-222.73"/>
<polygon fill="#757575" stroke="#757575" points="2102.81,-225.99 2113.33,-227.2 2105.86,-219.69 2102.81,-225.99"/>
</g>
<!-- services/connection&#45;service.ts&#45;&gt;services/timer&#45;factory.ts -->
<g id="edge54" class="edge">
<title>services/connection&#45;service.ts&#45;&gt;services/timer&#45;factory.ts</title>
<path fill="none" stroke="#757575" d="M623.78,-228.51C662.72,-263.05 776.82,-364.26 824.1,-406.2"/>
<polygon fill="#757575" stroke="#757575" points="822.06,-409.06 831.87,-413.08 826.71,-403.83 822.06,-409.06"/>
</g>
<!-- services/timer&#45;factory.ts&#45;&gt;models/connection&#45;response.d.ts -->
<g id="edge68" class="edge">
<title>services/timer&#45;factory.ts&#45;&gt;models/connection&#45;response.d.ts</title>
<path fill="none" stroke="#757575" d="M929.82,-414.47C1118.69,-392.17 1595.9,-342.13 1996,-352.73 2222.46,-358.73 2279.01,-363.88 2505,-379.73 2513.38,-380.32 2522.02,-380.97 2530.72,-381.65"/>
<polygon fill="#757575" stroke="#757575" points="2530.7,-385.16 2540.95,-382.46 2531.26,-378.18 2530.7,-385.16"/>
</g>
<!-- services/timer&#45;factory.ts&#45;&gt;models/timer.ts -->
<g id="edge69" class="edge">
<title>services/timer&#45;factory.ts&#45;&gt;models/timer.ts</title>
<path fill="none" stroke="#757575" d="M929.59,-431.76C1045.9,-442 1264.52,-462.45 1450,-486.73 1461.11,-488.19 1472.88,-489.9 1484.31,-491.66"/>
<polygon fill="#757575" stroke="#757575" points="1483.82,-495.13 1494.24,-493.21 1484.9,-488.21 1483.82,-495.13"/>
</g>
<!-- services/timer&#45;factory.ts&#45;&gt;resources/frontend&#45;update.ts -->
<g id="edge70" class="edge">
<title>services/timer&#45;factory.ts&#45;&gt;resources/frontend&#45;update.ts</title>
<path fill="none" stroke="#757575" d="M876.45,-436.28C894.33,-444.23 916.93,-456 934,-470.73 990.99,-519.93 1037.76,-597.47 1058.08,-634.17"/>
<polygon fill="#757575" stroke="#757575" points="1055.02,-635.87 1062.88,-642.98 1061.17,-632.52 1055.02,-635.87"/>
</g>
<!-- services/event&#45;scheduler.ts -->
<g id="node32" class="node">
<title>services/event&#45;scheduler.ts</title>
<path fill="none" stroke="#c6c5fe" d="M185.83,-418.23C185.83,-418.23 11.17,-418.23 11.17,-418.23 7.33,-418.23 3.5,-414.4 3.5,-410.57 3.5,-410.57 3.5,-402.9 3.5,-402.9 3.5,-399.07 7.33,-395.23 11.17,-395.23 11.17,-395.23 185.83,-395.23 185.83,-395.23 189.67,-395.23 193.5,-399.07 193.5,-402.9 193.5,-402.9 193.5,-410.57 193.5,-410.57 193.5,-414.4 189.67,-418.23 185.83,-418.23"/>
<text text-anchor="middle" x="98.5" y="-403.03" font-family="Arial" font-size="14.00" fill="#c6c5fe">services/event&#45;scheduler.ts</text>
</g>
<!-- services/event&#45;scheduler.ts&#45;&gt;models/connection.ts -->
<g id="edge55" class="edge">
<title>services/event&#45;scheduler.ts&#45;&gt;models/connection.ts</title>
<path fill="none" stroke="#757575" d="M114.63,-395.09C165.2,-356.99 334.37,-236.22 497,-195.73 637.77,-160.69 957,-144.04 1450,-220.73 1526.19,-232.58 1559.95,-215.86 1617,-267.73 1649.79,-297.55 1627.36,-324.58 1653,-360.73 1666.03,-379.11 1685.49,-395.51 1701.32,-407.1"/>
<polygon fill="#757575" stroke="#757575" points="1699.5,-410.1 1709.68,-413.04 1703.55,-404.39 1699.5,-410.1"/>
</g>
<!-- services/event&#45;scheduler.ts&#45;&gt;util/log.ts -->
<g id="edge59" class="edge">
<title>services/event&#45;scheduler.ts&#45;&gt;util/log.ts</title>
<path fill="none" stroke="#757575" d="M107.27,-418.43C149.65,-480.73 360.26,-770.73 608.5,-770.73 608.5,-770.73 608.5,-770.73 847,-770.73 1008.77,-770.73 1045.24,-812.65 1206,-830.73 1471.01,-860.53 1538.82,-849.51 1805,-865.73 1907.08,-871.95 2026.84,-879.65 2090.62,-883.78"/>
<polygon fill="#757575" stroke="#757575" points="2090.53,-887.28 2100.73,-884.44 2090.98,-880.3 2090.53,-887.28"/>
</g>
<!-- services/event&#45;scheduler.ts&#45;&gt;models/sender.ts -->
<g id="edge56" class="edge">
<title>services/event&#45;scheduler.ts&#45;&gt;models/sender.ts</title>
<path fill="none" stroke="#757575" d="M124.87,-418.35C187.56,-446.93 354.95,-522.47 497,-579.73 699.88,-661.51 752.16,-695.86 970,-715.73 1058.52,-723.81 1081.14,-717.95 1170,-715.73 1294.56,-712.62 1329.08,-731.8 1450,-701.73 1475.86,-695.3 1503.13,-682.09 1522.72,-671.31"/>
<polygon fill="#757575" stroke="#757575" points="1524.7,-674.22 1531.69,-666.25 1521.26,-668.12 1524.7,-674.22"/>
</g>
<!-- services/event&#45;scheduler.ts&#45;&gt;models/timer.ts -->
<g id="edge57" class="edge">
<title>services/event&#45;scheduler.ts&#45;&gt;models/timer.ts</title>
<path fill="none" stroke="#757575" d="M159.74,-395.21C182.59,-391.38 208.91,-387.62 233,-385.73 334.03,-377.83 359.68,-383.8 461,-385.73 901.58,-394.11 1025.19,-338.65 1450,-455.73 1475.37,-462.73 1502.29,-475.64 1521.88,-486.17"/>
<polygon fill="#757575" stroke="#757575" points="1520.42,-489.36 1530.86,-491.11 1523.79,-483.22 1520.42,-489.36"/>
</g>
<!-- services/event&#45;scheduler.ts&#45;&gt;services/sender&#45;trigger&#45;service.ts -->
<g id="edge58" class="edge">
<title>services/event&#45;scheduler.ts&#45;&gt;services/sender&#45;trigger&#45;service.ts</title>
<path fill="none" stroke="#757575" d="M193.75,-406.73C203.23,-406.73 212.95,-406.73 222.68,-406.73"/>
<polygon fill="#757575" stroke="#757575" points="222.8,-410.23 232.8,-406.73 222.8,-403.23 222.8,-410.23"/>
</g>
<!-- util/tsc&#45;compiler.ts&#45;&gt;util/log.ts -->
<g id="edge74" class="edge">
<title>util/tsc&#45;compiler.ts&#45;&gt;util/log.ts</title>
<path fill="none" stroke="#757575" d="M1617.17,-920.52C1736.37,-912.76 1987.9,-896.38 2090.74,-889.68"/>
<polygon fill="#757575" stroke="#757575" points="2091.04,-893.17 2100.79,-889.02 2090.59,-886.18 2091.04,-893.17"/>
</g>
<!-- util/file.ts -->
<g id="node35" class="node">
<title>util/file.ts</title>
<path fill="none" stroke="#cfffac" d="M1756.83,-898.23C1756.83,-898.23 1701.17,-898.23 1701.17,-898.23 1697.33,-898.23 1693.5,-894.4 1693.5,-890.57 1693.5,-890.57 1693.5,-882.9 1693.5,-882.9 1693.5,-879.07 1697.33,-875.23 1701.17,-875.23 1701.17,-875.23 1756.83,-875.23 1756.83,-875.23 1760.67,-875.23 1764.5,-879.07 1764.5,-882.9 1764.5,-882.9 1764.5,-890.57 1764.5,-890.57 1764.5,-894.4 1760.67,-898.23 1756.83,-898.23"/>
<text text-anchor="middle" x="1729" y="-883.03" font-family="Arial" font-size="14.00" fill="#cfffac">util/file.ts</text>
</g>
<!-- util/tsc&#45;compiler.ts&#45;&gt;util/file.ts -->
<g id="edge73" class="edge">
<title>util/tsc&#45;compiler.ts&#45;&gt;util/file.ts</title>
<path fill="none" stroke="#757575" d="M1605.63,-913.23C1630.53,-907.84 1659.85,-901.49 1683.55,-896.36"/>
<polygon fill="#757575" stroke="#757575" points="1684.3,-899.78 1693.33,-894.24 1682.81,-892.93 1684.3,-899.78"/>
</g>
</g>
</svg>
