<?xml version="1.0" encoding="UTF-8" standalone="no"?>
<!DOCTYPE svg PUBLIC "-//W3C//DTD SVG 1.1//EN"
 "http://www.w3.org/Graphics/SVG/1.1/DTD/svg11.dtd">
<!-- Generated by graphviz version 5.0.1 (20220820.1526)
 -->
<!-- Title: G Pages: 1 -->
<svg width="2966pt" height="431pt"
 viewBox="0.00 0.00 2966.20 431.45" xmlns="http://www.w3.org/2000/svg" xmlns:xlink="http://www.w3.org/1999/xlink">
<g id="graph0" class="graph" transform="scale(1 1) rotate(0) translate(21.6 409.85)">
<title>G</title>
<polygon fill="#111111" stroke="none" points="-21.6,21.6 -21.6,-409.85 2944.6,-409.85 2944.6,21.6 -21.6,21.6"/>
<!-- resources/frontend&#45;update.ts -->
<g id="node1" class="node">
<title>resources/frontend&#45;update.ts</title>
<path fill="none" stroke="#ff6c60" d="M192.33,-129.75C192.33,-129.75 7.67,-129.75 7.67,-129.75 3.83,-129.75 0,-125.91 0,-122.08 0,-122.08 0,-114.41 0,-114.41 0,-110.58 3.83,-106.75 7.67,-106.75 7.67,-106.75 192.33,-106.75 192.33,-106.75 196.17,-106.75 200,-110.58 200,-114.41 200,-114.41 200,-122.08 200,-122.08 200,-125.91 196.17,-129.75 192.33,-129.75"/>
<text text-anchor="middle" x="100" y="-114.55" font-family="Arial" font-size="14.00" fill="#ff6c60">resources/frontend&#45;update.ts</text>
</g>
<!-- services/generic&#45;node/generic&#45;node&#45;socket.ts -->
<g id="node2" class="node">
<title>services/generic&#45;node/generic&#45;node&#45;socket.ts</title>
<path fill="none" stroke="#ff6c60" d="M535.33,-129.75C535.33,-129.75 243.67,-129.75 243.67,-129.75 239.83,-129.75 236,-125.91 236,-122.08 236,-122.08 236,-114.41 236,-114.41 236,-110.58 239.83,-106.75 243.67,-106.75 243.67,-106.75 535.33,-106.75 535.33,-106.75 539.17,-106.75 543,-110.58 543,-114.41 543,-114.41 543,-122.08 543,-122.08 543,-125.91 539.17,-129.75 535.33,-129.75"/>
<text text-anchor="middle" x="389.5" y="-114.55" font-family="Arial" font-size="14.00" fill="#ff6c60">services/generic&#45;node/generic&#45;node&#45;socket.ts</text>
</g>
<!-- resources/frontend&#45;update.ts&#45;&gt;services/generic&#45;node/generic&#45;node&#45;socket.ts -->
<g id="edge1" class="edge">
<title>resources/frontend&#45;update.ts&#45;&gt;services/generic&#45;node/generic&#45;node&#45;socket.ts</title>
<path fill="none" stroke="#757575" d="M200.34,-111.79C208.63,-111.68 217.13,-111.6 225.72,-111.55"/>
<polygon fill="#757575" stroke="#757575" points="225.86,-115.05 235.84,-111.51 225.83,-108.05 225.86,-115.05"/>
</g>
<!-- services/generic&#45;node/typing/frontend&#45;events.ts -->
<g id="node3" class="node">
<title>services/generic&#45;node/typing/frontend&#45;events.ts</title>
<path fill="none" stroke="#ff6c60" d="M2573.83,-91.75C2573.83,-91.75 2272.17,-91.75 2272.17,-91.75 2268.33,-91.75 2264.5,-87.91 2264.5,-84.08 2264.5,-84.08 2264.5,-76.41 2264.5,-76.41 2264.5,-72.58 2268.33,-68.75 2272.17,-68.75 2272.17,-68.75 2573.83,-68.75 2573.83,-68.75 2577.67,-68.75 2581.5,-72.58 2581.5,-76.41 2581.5,-76.41 2581.5,-84.08 2581.5,-84.08 2581.5,-87.91 2577.67,-91.75 2573.83,-91.75"/>
<text text-anchor="middle" x="2423" y="-76.55" font-family="Arial" font-size="14.00" fill="#ff6c60">services/generic&#45;node/typing/frontend&#45;events.ts</text>
</g>
<!-- resources/frontend&#45;update.ts&#45;&gt;services/generic&#45;node/typing/frontend&#45;events.ts -->
<g id="edge2" class="edge">
<title>resources/frontend&#45;update.ts&#45;&gt;services/generic&#45;node/typing/frontend&#45;events.ts</title>
<path fill="none" stroke="#757575" d="M138.72,-106.69C236.77,-77.71 508.1,-4.25 739.5,-4.25 739.5,-4.25 739.5,-4.25 1748,-4.25 1960.23,-4.25 2020.19,16.94 2224,-42.25 2241.37,-47.29 2242.72,-55.88 2260,-61.25 2266.12,-63.15 2272.43,-64.86 2278.84,-66.41"/>
<polygon fill="#757575" stroke="#757575" points="2278.46,-69.91 2288.99,-68.7 2280,-63.08 2278.46,-69.91"/>
</g>
<!-- services/generic&#45;node/generic&#45;node&#45;socket.ts&#45;&gt;resources/frontend&#45;update.ts -->
<g id="edge9" class="edge">
<title>services/generic&#45;node/generic&#45;node&#45;socket.ts&#45;&gt;resources/frontend&#45;update.ts</title>
<path fill="none" stroke="#757575" d="M235.84,-124.99C227.29,-124.96 218.78,-124.91 210.43,-124.82"/>
<polygon fill="#757575" stroke="#757575" points="210.39,-121.32 200.34,-124.7 210.3,-128.32 210.39,-121.32"/>
</g>
<!-- services/generic&#45;node/generic&#45;node&#45;socket.ts&#45;&gt;services/generic&#45;node/typing/frontend&#45;events.ts -->
<g id="edge13" class="edge">
<title>services/generic&#45;node/generic&#45;node&#45;socket.ts&#45;&gt;services/generic&#45;node/typing/frontend&#45;events.ts</title>
<path fill="none" stroke="#757575" d="M452.35,-106.7C571.83,-85.44 842.9,-42.25 1073,-42.25 1073,-42.25 1073,-42.25 1748,-42.25 1933.8,-42.25 2147.95,-56.82 2284.09,-67.92"/>
<polygon fill="#757575" stroke="#757575" points="2283.91,-71.41 2294.16,-68.74 2284.48,-64.44 2283.91,-71.41"/>
</g>
<!-- services/generic&#45;node/generic&#45;store/actions.ts -->
<g id="node7" class="node">
<title>services/generic&#45;node/generic&#45;store/actions.ts</title>
<path fill="none" stroke="#ff6c60" d="M2216.33,-131.75C2216.33,-131.75 1922.67,-131.75 1922.67,-131.75 1918.83,-131.75 1915,-127.91 1915,-124.08 1915,-124.08 1915,-116.41 1915,-116.41 1915,-112.58 1918.83,-108.75 1922.67,-108.75 1922.67,-108.75 2216.33,-108.75 2216.33,-108.75 2220.17,-108.75 2224,-112.58 2224,-116.41 2224,-116.41 2224,-124.08 2224,-124.08 2224,-127.91 2220.17,-131.75 2216.33,-131.75"/>
<text text-anchor="middle" x="2069.5" y="-116.55" font-family="Arial" font-size="14.00" fill="#ff6c60">services/generic&#45;node/generic&#45;store/actions.ts</text>
</g>
<!-- services/generic&#45;node/generic&#45;node&#45;socket.ts&#45;&gt;services/generic&#45;node/generic&#45;store/actions.ts -->
<g id="edge10" class="edge">
<title>services/generic&#45;node/generic&#45;node&#45;socket.ts&#45;&gt;services/generic&#45;node/generic&#45;store/actions.ts</title>
<path fill="none" stroke="#757575" d="M543.31,-118.25C681.63,-118.25 890.97,-118.25 1073,-118.25 1073,-118.25 1073,-118.25 1413.5,-118.25 1580.85,-118.25 1772.25,-118.91 1904.75,-119.47"/>
<polygon fill="#757575" stroke="#757575" points="1904.97,-122.97 1914.98,-119.51 1905,-115.97 1904.97,-122.97"/>
</g>
<!-- services/generic&#45;node/generic&#45;store/reference.ts -->
<g id="node8" class="node">
<title>services/generic&#45;node/generic&#45;store/reference.ts</title>
<path fill="none" stroke="#ff6c60" d="M2578.33,-249.75C2578.33,-249.75 2267.67,-249.75 2267.67,-249.75 2263.83,-249.75 2260,-245.91 2260,-242.08 2260,-242.08 2260,-234.41 2260,-234.41 2260,-230.58 2263.83,-226.75 2267.67,-226.75 2267.67,-226.75 2578.33,-226.75 2578.33,-226.75 2582.17,-226.75 2586,-230.58 2586,-234.41 2586,-234.41 2586,-242.08 2586,-242.08 2586,-245.91 2582.17,-249.75 2578.33,-249.75"/>
<text text-anchor="middle" x="2423" y="-234.55" font-family="Arial" font-size="14.00" fill="#ff6c60">services/generic&#45;node/generic&#45;store/reference.ts</text>
</g>
<!-- services/generic&#45;node/generic&#45;node&#45;socket.ts&#45;&gt;services/generic&#45;node/generic&#45;store/reference.ts -->
<g id="edge11" class="edge">
<title>services/generic&#45;node/generic&#45;node&#45;socket.ts&#45;&gt;services/generic&#45;node/generic&#45;store/reference.ts</title>
<path fill="none" stroke="#757575" d="M403.13,-130.04C432.01,-156.37 505.99,-220.36 579,-255.25 784.16,-353.27 845.63,-388.25 1073,-388.25 1073,-388.25 1073,-388.25 1748,-388.25 1961.17,-388.25 2018.96,-387.56 2224,-329.25 2287.23,-311.26 2355.85,-275.76 2393.41,-254.81"/>
<polygon fill="#757575" stroke="#757575" points="2395.28,-257.78 2402.27,-249.82 2391.84,-251.68 2395.28,-257.78"/>
</g>
<!-- services/generic&#45;node/generic&#45;store/selectors.ts -->
<g id="node11" class="node">
<title>services/generic&#45;node/generic&#45;store/selectors.ts</title>
<path fill="none" stroke="#ff6c60" d="M894.33,-245.75C894.33,-245.75 586.67,-245.75 586.67,-245.75 582.83,-245.75 579,-241.91 579,-238.08 579,-238.08 579,-230.41 579,-230.41 579,-226.58 582.83,-222.75 586.67,-222.75 586.67,-222.75 894.33,-222.75 894.33,-222.75 898.17,-222.75 902,-226.58 902,-230.41 902,-230.41 902,-238.08 902,-238.08 902,-241.91 898.17,-245.75 894.33,-245.75"/>
<text text-anchor="middle" x="740.5" y="-230.55" font-family="Arial" font-size="14.00" fill="#ff6c60">services/generic&#45;node/generic&#45;store/selectors.ts</text>
</g>
<!-- services/generic&#45;node/generic&#45;node&#45;socket.ts&#45;&gt;services/generic&#45;node/generic&#45;store/selectors.ts -->
<g id="edge12" class="edge">
<title>services/generic&#45;node/generic&#45;node&#45;socket.ts&#45;&gt;services/generic&#45;node/generic&#45;store/selectors.ts</title>
<path fill="none" stroke="#757575" d="M425.24,-129.79C488.92,-150.96 624.25,-195.94 694.73,-219.37"/>
<polygon fill="#757575" stroke="#757575" points="694.05,-222.83 704.64,-222.66 696.26,-216.19 694.05,-222.83"/>
</g>
<!-- services/generic&#45;node/typing/generic&#45;node&#45;type.ts -->
<g id="node5" class="node">
<title>services/generic&#45;node/typing/generic&#45;node&#45;type.ts</title>
<path fill="none" stroke="#ff6c60" d="M1571.33,-206.75C1571.33,-206.75 1253.67,-206.75 1253.67,-206.75 1249.83,-206.75 1246,-202.91 1246,-199.08 1246,-199.08 1246,-191.41 1246,-191.41 1246,-187.58 1249.83,-183.75 1253.67,-183.75 1253.67,-183.75 1571.33,-183.75 1571.33,-183.75 1575.17,-183.75 1579,-187.58 1579,-191.41 1579,-191.41 1579,-199.08 1579,-199.08 1579,-202.91 1575.17,-206.75 1571.33,-206.75"/>
<text text-anchor="middle" x="1412.5" y="-191.55" font-family="Arial" font-size="14.00" fill="#ff6c60">services/generic&#45;node/typing/generic&#45;node&#45;type.ts</text>
</g>
<!-- services/generic&#45;node/typing/frontend&#45;events.ts&#45;&gt;services/generic&#45;node/typing/generic&#45;node&#45;type.ts -->
<g id="edge25" class="edge">
<title>services/generic&#45;node/typing/frontend&#45;events.ts&#45;&gt;services/generic&#45;node/typing/generic&#45;node&#45;type.ts</title>
<path fill="none" stroke="#757575" d="M2264.15,-79.84C2100.27,-82.19 1837.27,-93.77 1615,-139.25 1560.61,-150.37 1499.32,-168.19 1458.76,-180.73"/>
<polygon fill="#757575" stroke="#757575" points="1457.68,-177.4 1449.17,-183.72 1459.76,-184.08 1457.68,-177.4"/>
</g>
<!-- services/generic&#45;node/typing/node&#45;options.ts -->
<g id="node10" class="node">
<title>services/generic&#45;node/typing/node&#45;options.ts</title>
<path fill="none" stroke="#ff6c60" d="M2915.33,-131.75C2915.33,-131.75 2629.67,-131.75 2629.67,-131.75 2625.83,-131.75 2622,-127.91 2622,-124.08 2622,-124.08 2622,-116.41 2622,-116.41 2622,-112.58 2625.83,-108.75 2629.67,-108.75 2629.67,-108.75 2915.33,-108.75 2915.33,-108.75 2919.17,-108.75 2923,-112.58 2923,-116.41 2923,-116.41 2923,-124.08 2923,-124.08 2923,-127.91 2919.17,-131.75 2915.33,-131.75"/>
<text text-anchor="middle" x="2772.5" y="-116.55" font-family="Arial" font-size="14.00" fill="#ff6c60">services/generic&#45;node/typing/node&#45;options.ts</text>
</g>
<!-- services/generic&#45;node/typing/frontend&#45;events.ts&#45;&gt;services/generic&#45;node/typing/node&#45;options.ts -->
<g id="edge26" class="edge">
<title>services/generic&#45;node/typing/frontend&#45;events.ts&#45;&gt;services/generic&#45;node/typing/node&#45;options.ts</title>
<path fill="none" stroke="#757575" d="M2524.05,-91.76C2567.01,-96.71 2617.37,-102.5 2661.39,-107.57"/>
<polygon fill="#757575" stroke="#757575" points="2661.22,-111.08 2671.56,-108.74 2662.03,-104.12 2661.22,-111.08"/>
</g>
<!-- services/generic&#45;node/data&#45;versioning.ts -->
<g id="node4" class="node">
<title>services/generic&#45;node/data&#45;versioning.ts</title>
<path fill="none" stroke="#ff6c60" d="M1202.33,-245.75C1202.33,-245.75 945.67,-245.75 945.67,-245.75 941.83,-245.75 938,-241.91 938,-238.08 938,-238.08 938,-230.41 938,-230.41 938,-226.58 941.83,-222.75 945.67,-222.75 945.67,-222.75 1202.33,-222.75 1202.33,-222.75 1206.17,-222.75 1210,-226.58 1210,-230.41 1210,-230.41 1210,-238.08 1210,-238.08 1210,-241.91 1206.17,-245.75 1202.33,-245.75"/>
<text text-anchor="middle" x="1074" y="-230.55" font-family="Arial" font-size="14.00" fill="#ff6c60">services/generic&#45;node/data&#45;versioning.ts</text>
</g>
<!-- services/generic&#45;node/data&#45;versioning.ts&#45;&gt;services/generic&#45;node/typing/generic&#45;node&#45;type.ts -->
<g id="edge3" class="edge">
<title>services/generic&#45;node/data&#45;versioning.ts&#45;&gt;services/generic&#45;node/typing/generic&#45;node&#45;type.ts</title>
<path fill="none" stroke="#757575" d="M1174.6,-222.7C1214.7,-218.06 1261.09,-212.68 1302.12,-207.92"/>
<polygon fill="#757575" stroke="#757575" points="1302.63,-211.39 1312.16,-206.76 1301.82,-204.43 1302.63,-211.39"/>
</g>
<!-- services/generic&#45;node/element&#45;node.ts -->
<g id="node6" class="node">
<title>services/generic&#45;node/element&#45;node.ts</title>
<path fill="none" stroke="#ff6c60" d="M1871.33,-207.75C1871.33,-207.75 1622.67,-207.75 1622.67,-207.75 1618.83,-207.75 1615,-203.91 1615,-200.08 1615,-200.08 1615,-192.41 1615,-192.41 1615,-188.58 1618.83,-184.75 1622.67,-184.75 1622.67,-184.75 1871.33,-184.75 1871.33,-184.75 1875.17,-184.75 1879,-188.58 1879,-192.41 1879,-192.41 1879,-200.08 1879,-200.08 1879,-203.91 1875.17,-207.75 1871.33,-207.75"/>
<text text-anchor="middle" x="1747" y="-192.55" font-family="Arial" font-size="14.00" fill="#ff6c60">services/generic&#45;node/element&#45;node.ts</text>
</g>
<!-- services/generic&#45;node/typing/generic&#45;node&#45;type.ts&#45;&gt;services/generic&#45;node/element&#45;node.ts -->
<g id="edge27" class="edge">
<title>services/generic&#45;node/typing/generic&#45;node&#45;type.ts&#45;&gt;services/generic&#45;node/element&#45;node.ts</title>
<path fill="none" stroke="#757575" d="M1579.26,-189C1587.71,-189.02 1596.15,-189.07 1604.51,-189.14"/>
<polygon fill="#757575" stroke="#757575" points="1604.62,-192.64 1614.66,-189.24 1604.69,-185.64 1604.62,-192.64"/>
</g>
<!-- services/generic&#45;node/node&#45;event.ts -->
<g id="node9" class="node">
<title>services/generic&#45;node/node&#45;event.ts</title>
<path fill="none" stroke="#ff6c60" d="M2185.83,-249.75C2185.83,-249.75 1953.17,-249.75 1953.17,-249.75 1949.33,-249.75 1945.5,-245.91 1945.5,-242.08 1945.5,-242.08 1945.5,-234.41 1945.5,-234.41 1945.5,-230.58 1949.33,-226.75 1953.17,-226.75 1953.17,-226.75 2185.83,-226.75 2185.83,-226.75 2189.67,-226.75 2193.5,-230.58 2193.5,-234.41 2193.5,-234.41 2193.5,-242.08 2193.5,-242.08 2193.5,-245.91 2189.67,-249.75 2185.83,-249.75"/>
<text text-anchor="middle" x="2069.5" y="-234.55" font-family="Arial" font-size="14.00" fill="#ff6c60">services/generic&#45;node/node&#45;event.ts</text>
</g>
<!-- services/generic&#45;node/typing/generic&#45;node&#45;type.ts&#45;&gt;services/generic&#45;node/node&#45;event.ts -->
<g id="edge28" class="edge">
<title>services/generic&#45;node/typing/generic&#45;node&#45;type.ts&#45;&gt;services/generic&#45;node/node&#45;event.ts</title>
<path fill="none" stroke="#757575" d="M1507.7,-206.76C1541.49,-210.57 1579.92,-214.52 1615,-217.25 1722.55,-225.6 1844.73,-231.02 1935.15,-234.26"/>
<polygon fill="#757575" stroke="#757575" points="1935.07,-237.76 1945.19,-234.62 1935.32,-230.77 1935.07,-237.76"/>
</g>
<!-- services/generic&#45;node/typing/generic&#45;node&#45;type.ts&#45;&gt;services/generic&#45;node/typing/node&#45;options.ts -->
<g id="edge29" class="edge">
<title>services/generic&#45;node/typing/generic&#45;node&#45;type.ts&#45;&gt;services/generic&#45;node/typing/node&#45;options.ts</title>
<path fill="none" stroke="#757575" d="M1424.71,-183.63C1454.33,-160.07 1537.69,-109.75 1615,-89.25 2032.47,21.48 2159.53,18.07 2586,-50.25 2645.97,-59.85 2712.85,-85.89 2747.6,-103.74"/>
<polygon fill="#757575" stroke="#757575" points="2746.05,-106.88 2756.52,-108.54 2749.37,-100.72 2746.05,-106.88"/>
</g>
<!-- services/generic&#45;node/element&#45;node.ts&#45;&gt;services/generic&#45;node/typing/generic&#45;node&#45;type.ts -->
<g id="edge7" class="edge">
<title>services/generic&#45;node/element&#45;node.ts&#45;&gt;services/generic&#45;node/typing/generic&#45;node&#45;type.ts</title>
<path fill="none" stroke="#757575" d="M1614.66,-202.47C1606.29,-202.51 1597.8,-202.52 1589.28,-202.52"/>
<polygon fill="#757575" stroke="#757575" points="1589.27,-199.02 1579.26,-202.5 1589.26,-206.02 1589.27,-199.02"/>
</g>
<!-- services/generic&#45;node/element&#45;node.ts&#45;&gt;services/generic&#45;node/generic&#45;store/actions.ts -->
<g id="edge4" class="edge">
<title>services/generic&#45;node/element&#45;node.ts&#45;&gt;services/generic&#45;node/generic&#45;store/actions.ts</title>
<path fill="none" stroke="#757575" d="M1831.91,-184.68C1847.88,-181.06 1864.21,-176.36 1879,-170.25 1896.77,-162.9 1897.13,-153.34 1915,-146.25 1927.53,-141.27 1941.01,-137.25 1954.59,-133.99"/>
<polygon fill="#757575" stroke="#757575" points="1955.5,-137.38 1964.48,-131.76 1953.96,-130.55 1955.5,-137.38"/>
</g>
<!-- services/generic&#45;node/element&#45;node.ts&#45;&gt;services/generic&#45;node/generic&#45;store/reference.ts -->
<g id="edge5" class="edge">
<title>services/generic&#45;node/element&#45;node.ts&#45;&gt;services/generic&#45;node/generic&#45;store/reference.ts</title>
<path fill="none" stroke="#757575" d="M1879.19,-200.39C1974.85,-203.87 2107.57,-209.68 2224,-218.25 2251.39,-220.26 2280.86,-222.95 2308.48,-225.71"/>
<polygon fill="#757575" stroke="#757575" points="2308.26,-229.2 2318.56,-226.72 2308.96,-222.24 2308.26,-229.2"/>
</g>
<!-- services/generic&#45;node/element&#45;node.ts&#45;&gt;services/generic&#45;node/node&#45;event.ts -->
<g id="edge6" class="edge">
<title>services/generic&#45;node/element&#45;node.ts&#45;&gt;services/generic&#45;node/node&#45;event.ts</title>
<path fill="none" stroke="#757575" d="M1836,-207.78C1877.69,-213.24 1927.63,-219.79 1970.52,-225.41"/>
<polygon fill="#757575" stroke="#757575" points="1970.32,-228.91 1980.69,-226.74 1971.23,-221.97 1970.32,-228.91"/>
</g>
<!-- services/generic&#45;node/element&#45;node.ts&#45;&gt;services/generic&#45;node/typing/node&#45;options.ts -->
<g id="edge8" class="edge">
<title>services/generic&#45;node/element&#45;node.ts&#45;&gt;services/generic&#45;node/typing/node&#45;options.ts</title>
<path fill="none" stroke="#757575" d="M1879.19,-186.51C2066.44,-172.6 2409.96,-147.09 2611.78,-132.11"/>
<polygon fill="#757575" stroke="#757575" points="2612.16,-135.59 2621.88,-131.36 2611.64,-128.61 2612.16,-135.59"/>
</g>
<!-- services/generic&#45;node/generic&#45;store/actions.ts&#45;&gt;services/generic&#45;node/typing/frontend&#45;events.ts -->
<g id="edge15" class="edge">
<title>services/generic&#45;node/generic&#45;store/actions.ts&#45;&gt;services/generic&#45;node/typing/frontend&#45;events.ts</title>
<path fill="none" stroke="#757575" d="M2171.7,-108.73C2215.25,-103.77 2266.31,-97.96 2310.91,-92.89"/>
<polygon fill="#757575" stroke="#757575" points="2311.37,-96.36 2320.91,-91.75 2310.58,-89.4 2311.37,-96.36"/>
</g>
<!-- services/generic&#45;node/generic&#45;store/actions.ts&#45;&gt;services/generic&#45;node/typing/generic&#45;node&#45;type.ts -->
<g id="edge16" class="edge">
<title>services/generic&#45;node/generic&#45;store/actions.ts&#45;&gt;services/generic&#45;node/typing/generic&#45;node&#45;type.ts</title>
<path fill="none" stroke="#757575" d="M1967.9,-131.77C1848.06,-145.49 1648.52,-168.34 1524.34,-182.55"/>
<polygon fill="#757575" stroke="#757575" points="1523.59,-179.12 1514.05,-183.73 1524.38,-186.07 1523.59,-179.12"/>
</g>
<!-- services/generic&#45;node/generic&#45;store/actions.ts&#45;&gt;services/generic&#45;node/generic&#45;store/reference.ts -->
<g id="edge14" class="edge">
<title>services/generic&#45;node/generic&#45;store/actions.ts&#45;&gt;services/generic&#45;node/generic&#45;store/reference.ts</title>
<path fill="none" stroke="#757575" d="M2104.84,-131.78C2169.02,-153.32 2307.06,-199.66 2377.97,-223.47"/>
<polygon fill="#757575" stroke="#757575" points="2376.92,-226.81 2387.52,-226.67 2379.15,-220.17 2376.92,-226.81"/>
</g>
<!-- services/generic&#45;node/generic&#45;store/reference.ts&#45;&gt;services/generic&#45;node/typing/generic&#45;node&#45;type.ts -->
<g id="edge17" class="edge">
<title>services/generic&#45;node/generic&#45;store/reference.ts&#45;&gt;services/generic&#45;node/typing/generic&#45;node&#45;type.ts</title>
<path fill="none" stroke="#757575" d="M2332.47,-249.77C2298.55,-253.6 2259.56,-257.37 2224,-259.25 1953.55,-273.55 1883.18,-276.06 1615,-238.25 1565.04,-231.2 1508.97,-218.87 1468.68,-209.21"/>
<polygon fill="#757575" stroke="#757575" points="1469.33,-205.77 1458.79,-206.82 1467.69,-212.57 1469.33,-205.77"/>
</g>
<!-- services/generic&#45;node/generic&#45;store/reference.ts&#45;&gt;services/generic&#45;node/typing/node&#45;options.ts -->
<g id="edge18" class="edge">
<title>services/generic&#45;node/generic&#45;store/reference.ts&#45;&gt;services/generic&#45;node/typing/node&#45;options.ts</title>
<path fill="none" stroke="#757575" d="M2525.78,-226.72C2546,-223.09 2566.87,-218.37 2586,-212.25 2645.24,-193.28 2709.15,-157.92 2744.35,-137"/>
<polygon fill="#757575" stroke="#757575" points="2746.3,-139.9 2753.07,-131.75 2742.7,-133.9 2746.3,-139.9"/>
</g>
<!-- services/generic&#45;node/node&#45;event.ts&#45;&gt;services/generic&#45;node/generic&#45;store/reference.ts -->
<g id="edge22" class="edge">
<title>services/generic&#45;node/node&#45;event.ts&#45;&gt;services/generic&#45;node/generic&#45;store/reference.ts</title>
<path fill="none" stroke="#757575" d="M2193.93,-238.25C2212.04,-238.25 2230.97,-238.25 2249.84,-238.25"/>
<polygon fill="#757575" stroke="#757575" points="2250,-241.75 2260,-238.25 2250,-234.75 2250,-241.75"/>
</g>
<!-- services/generic&#45;node/node&#45;event.ts&#45;&gt;services/generic&#45;node/typing/node&#45;options.ts -->
<g id="edge24" class="edge">
<title>services/generic&#45;node/node&#45;event.ts&#45;&gt;services/generic&#45;node/typing/node&#45;options.ts</title>
<path fill="none" stroke="#757575" d="M2179.96,-226.73C2307.64,-212.94 2510.81,-189.75 2586,-174.25 2635.46,-164.05 2690.9,-147.17 2728.18,-134.99"/>
<polygon fill="#757575" stroke="#757575" points="2729.32,-138.3 2737.72,-131.85 2727.13,-131.66 2729.32,-138.3"/>
</g>
<!-- services/generic&#45;node/node&#45;event.ts&#45;&gt;services/generic&#45;node/generic&#45;store/selectors.ts -->
<g id="edge23" class="edge">
<title>services/generic&#45;node/node&#45;event.ts&#45;&gt;services/generic&#45;node/generic&#45;store/selectors.ts</title>
<path fill="none" stroke="#757575" d="M1945.44,-245.59C1737.65,-256.75 1304.05,-274.75 938,-255.25 906.16,-253.55 871.54,-250.32 840.35,-246.89"/>
<polygon fill="#757575" stroke="#757575" points="840.68,-243.4 830.35,-245.77 839.9,-250.36 840.68,-243.4"/>
</g>
<!-- services/generic&#45;node/typing/node&#45;options.ts&#45;&gt;services/generic&#45;node/typing/generic&#45;node&#45;type.ts -->
<g id="edge30" class="edge">
<title>services/generic&#45;node/typing/node&#45;options.ts&#45;&gt;services/generic&#45;node/typing/generic&#45;node&#45;type.ts</title>
<path fill="none" stroke="#757575" d="M2727.88,-108.73C2690.9,-95.72 2636.04,-76.26 2586,-68.25 2159.53,0.07 2032.47,3.48 1615,-107.25 1554.2,-123.37 1489.65,-157.94 1450.45,-178.86"/>
<polygon fill="#757575" stroke="#757575" points="1448.71,-175.83 1441.53,-183.62 1452,-182 1448.71,-175.83"/>
</g>
<!-- services/generic&#45;node/generic&#45;store/selectors.ts&#45;&gt;services/generic&#45;node/data&#45;versioning.ts -->
<g id="edge19" class="edge">
<title>services/generic&#45;node/generic&#45;store/selectors.ts&#45;&gt;services/generic&#45;node/data&#45;versioning.ts</title>
<path fill="none" stroke="#757575" d="M902.39,-234.25C910.84,-234.25 919.3,-234.25 927.69,-234.25"/>
<polygon fill="#757575" stroke="#757575" points="927.88,-237.75 937.88,-234.25 927.88,-230.75 927.88,-237.75"/>
</g>
<!-- services/generic&#45;node/generic&#45;store/selectors.ts&#45;&gt;services/generic&#45;node/typing/generic&#45;node&#45;type.ts -->
<g id="edge21" class="edge">
<title>services/generic&#45;node/generic&#45;store/selectors.ts&#45;&gt;services/generic&#45;node/typing/generic&#45;node&#45;type.ts</title>
<path fill="none" stroke="#757575" d="M842.88,-222.73C873.42,-219.58 907.04,-216.44 938,-214.25 1036.38,-207.27 1146.45,-202.66 1235.69,-199.73"/>
<polygon fill="#757575" stroke="#757575" points="1236.04,-203.23 1245.92,-199.4 1235.81,-196.23 1236.04,-203.23"/>
</g>
<!-- services/generic&#45;node/generic&#45;store/selectors.ts&#45;&gt;services/generic&#45;node/generic&#45;store/reference.ts -->
<g id="edge20" class="edge">
<title>services/generic&#45;node/generic&#45;store/selectors.ts&#45;&gt;services/generic&#45;node/generic&#45;store/reference.ts</title>
<path fill="none" stroke="#757575" d="M780.36,-245.79C882.67,-275.13 1168.32,-350.25 1411.5,-350.25 1411.5,-350.25 1411.5,-350.25 1748,-350.25 1983.81,-350.25 2259.82,-282.71 2371.4,-252.53"/>
<polygon fill="#757575" stroke="#757575" points="2372.63,-255.82 2381.36,-249.81 2370.79,-249.06 2372.63,-255.82"/>
</g>
</g>
</svg>
