<?xml version="1.0" encoding="UTF-8" standalone="no"?>
<!DOCTYPE svg PUBLIC "-//W3C//DTD SVG 1.1//EN"
 "http://www.w3.org/Graphics/SVG/1.1/DTD/svg11.dtd">
<!-- Generated by graphviz version 5.0.1 (20220820.1526)
 -->
<!-- Title: G Pages: 1 -->
<svg width="1255pt" height="66pt"
 viewBox="0.00 0.00 1255.20 66.20" xmlns="http://www.w3.org/2000/svg" xmlns:xlink="http://www.w3.org/1999/xlink">
<g id="graph0" class="graph" transform="scale(1 1) rotate(0) translate(21.6 44.6)">
<title>G</title>
<polygon fill="#111111" stroke="none" points="-21.6,21.6 -21.6,-44.6 1233.6,-44.6 1233.6,21.6 -21.6,21.6"/>
<!-- resources/frontend&#45;update.ts -->
<g id="node1" class="node">
<title>resources/frontend&#45;update.ts</title>
<path fill="none" stroke="#ff6c60" d="M192.33,-23C192.33,-23 7.67,-23 7.67,-23 3.83,-23 0,-19.17 0,-15.33 0,-15.33 0,-7.67 0,-7.67 0,-3.83 3.83,0 7.67,0 7.67,0 192.33,0 192.33,0 196.17,0 200,-3.83 200,-7.67 200,-7.67 200,-15.33 200,-15.33 200,-19.17 196.17,-23 192.33,-23"/>
<text text-anchor="middle" x="100" y="-7.8" font-family="Arial" font-size="14.00" fill="#ff6c60">resources/frontend&#45;update.ts</text>
</g>
<!-- services/generic&#45;node/generic&#45;node&#45;socket.ts -->
<g id="node2" class="node">
<title>services/generic&#45;node/generic&#45;node&#45;socket.ts</title>
<path fill="none" stroke="#ff6c60" d="M535.33,-23C535.33,-23 243.67,-23 243.67,-23 239.83,-23 236,-19.17 236,-15.33 236,-15.33 236,-7.67 236,-7.67 236,-3.83 239.83,0 243.67,0 243.67,0 535.33,0 535.33,0 539.17,0 543,-3.83 543,-7.67 543,-7.67 543,-15.33 543,-15.33 543,-19.17 539.17,-23 535.33,-23"/>
<text text-anchor="middle" x="389.5" y="-7.8" font-family="Arial" font-size="14.00" fill="#ff6c60">services/generic&#45;node/generic&#45;node&#45;socket.ts</text>
</g>
<!-- resources/frontend&#45;update.ts&#45;&gt;services/generic&#45;node/generic&#45;node&#45;socket.ts -->
<g id="edge1" class="edge">
<title>resources/frontend&#45;update.ts&#45;&gt;services/generic&#45;node/generic&#45;node&#45;socket.ts</title>
<path fill="none" stroke="#757575" d="M200.34,-5.04C208.63,-4.93 217.13,-4.85 225.72,-4.8"/>
<polygon fill="#757575" stroke="#757575" points="225.86,-8.3 235.84,-4.76 225.83,-1.3 225.86,-8.3"/>
</g>
<!-- services/generic&#45;node/generic&#45;node&#45;socket.ts&#45;&gt;resources/frontend&#45;update.ts -->
<g id="edge3" class="edge">
<title>services/generic&#45;node/generic&#45;node&#45;socket.ts&#45;&gt;resources/frontend&#45;update.ts</title>
<path fill="none" stroke="#757575" d="M235.84,-18.24C227.29,-18.22 218.78,-18.16 210.43,-18.08"/>
<polygon fill="#757575" stroke="#757575" points="210.39,-14.58 200.34,-17.96 210.3,-21.57 210.39,-14.58"/>
</g>
<!-- services/generic&#45;node/typing/generic&#45;node&#45;type.ts -->
<g id="node4" class="node">
<title>services/generic&#45;node/typing/generic&#45;node&#45;type.ts</title>
<path fill="none" stroke="#ff6c60" d="M904.33,-23C904.33,-23 586.67,-23 586.67,-23 582.83,-23 579,-19.17 579,-15.33 579,-15.33 579,-7.67 579,-7.67 579,-3.83 582.83,0 586.67,0 586.67,0 904.33,0 904.33,0 908.17,0 912,-3.83 912,-7.67 912,-7.67 912,-15.33 912,-15.33 912,-19.17 908.17,-23 904.33,-23"/>
<text text-anchor="middle" x="745.5" y="-7.8" font-family="Arial" font-size="14.00" fill="#ff6c60">services/generic&#45;node/typing/generic&#45;node&#45;type.ts</text>
</g>
<!-- services/generic&#45;node/generic&#45;node&#45;socket.ts&#45;&gt;services/generic&#45;node/typing/generic&#45;node&#45;type.ts -->
<g id="edge4" class="edge">
<title>services/generic&#45;node/generic&#45;node&#45;socket.ts&#45;&gt;services/generic&#45;node/typing/generic&#45;node&#45;type.ts</title>
<path fill="none" stroke="#757575" d="M543.2,-11.5C551.67,-11.5 560.22,-11.5 568.76,-11.5"/>
<polygon fill="#757575" stroke="#757575" points="568.79,-15 578.79,-11.5 568.79,-8 568.79,-15"/>
</g>
<!-- services/generic&#45;node/element&#45;node.ts -->
<g id="node3" class="node">
<title>services/generic&#45;node/element&#45;node.ts</title>
<path fill="none" stroke="#ff6c60" d="M1204.33,-23C1204.33,-23 955.67,-23 955.67,-23 951.83,-23 948,-19.17 948,-15.33 948,-15.33 948,-7.67 948,-7.67 948,-3.83 951.83,0 955.67,0 955.67,0 1204.33,0 1204.33,0 1208.17,0 1212,-3.83 1212,-7.67 1212,-7.67 1212,-15.33 1212,-15.33 1212,-19.17 1208.17,-23 1204.33,-23"/>
<text text-anchor="middle" x="1080" y="-7.8" font-family="Arial" font-size="14.00" fill="#ff6c60">services/generic&#45;node/element&#45;node.ts</text>
</g>
<!-- services/generic&#45;node/element&#45;node.ts&#45;&gt;services/generic&#45;node/typing/generic&#45;node&#45;type.ts -->
<g id="edge2" class="edge">
<title>services/generic&#45;node/element&#45;node.ts&#45;&gt;services/generic&#45;node/typing/generic&#45;node&#45;type.ts</title>
<path fill="none" stroke="#757575" d="M947.66,-18.12C939.29,-18.18 930.8,-18.22 922.28,-18.24"/>
<polygon fill="#757575" stroke="#757575" points="922.26,-14.74 912.26,-18.25 922.27,-21.74 922.26,-14.74"/>
</g>
<!-- services/generic&#45;node/typing/generic&#45;node&#45;type.ts&#45;&gt;services/generic&#45;node/element&#45;node.ts -->
<g id="edge5" class="edge">
<title>services/generic&#45;node/typing/generic&#45;node&#45;type.ts&#45;&gt;services/generic&#45;node/element&#45;node.ts</title>
<path fill="none" stroke="#757575" d="M912.26,-4.75C920.71,-4.75 929.15,-4.77 937.51,-4.82"/>
<polygon fill="#757575" stroke="#757575" points="937.63,-8.32 947.66,-4.88 937.68,-1.32 937.63,-8.32"/>
</g>
</g>
</svg>
