<?xml version="1.0" encoding="UTF-8" standalone="no"?>
<!DOCTYPE svg PUBLIC "-//W3C//DTD SVG 1.1//EN"
 "http://www.w3.org/Graphics/SVG/1.1/DTD/svg11.dtd">
<!-- Generated by graphviz version 5.0.1 (20220820.1526)
 -->
<!-- Title: G Pages: 1 -->
<svg width="2495pt" height="1482pt"
 viewBox="0.00 0.00 2495.20 1482.35" xmlns="http://www.w3.org/2000/svg" xmlns:xlink="http://www.w3.org/1999/xlink">
<g id="graph0" class="graph" transform="scale(1 1) rotate(0) translate(21.6 1460.75)">
<title>G</title>
<polygon fill="#111111" stroke="none" points="-21.6,21.6 -21.6,-1460.75 2473.6,-1460.75 2473.6,21.6 -21.6,21.6"/>
<!-- models/action.ts -->
<g id="node1" class="node">
<title>models/action.ts</title>
<path fill="none" stroke="#cfffac" d="M1884.33,-219.15C1884.33,-219.15 1779.67,-219.15 1779.67,-219.15 1775.83,-219.15 1772,-215.31 1772,-211.48 1772,-211.48 1772,-203.81 1772,-203.81 1772,-199.98 1775.83,-196.15 1779.67,-196.15 1779.67,-196.15 1884.33,-196.15 1884.33,-196.15 1888.17,-196.15 1892,-199.98 1892,-203.81 1892,-203.81 1892,-211.48 1892,-211.48 1892,-215.31 1888.17,-219.15 1884.33,-219.15"/>
<text text-anchor="middle" x="1832" y="-203.95" font-family="Arial" font-size="14.00" fill="#cfffac">models/action.ts</text>
</g>
<!-- models/battery.ts -->
<g id="node2" class="node">
<title>models/battery.ts</title>
<path fill="none" stroke="#cfffac" d="M1459.33,-735.15C1459.33,-735.15 1349.67,-735.15 1349.67,-735.15 1345.83,-735.15 1342,-731.31 1342,-727.48 1342,-727.48 1342,-719.81 1342,-719.81 1342,-715.98 1345.83,-712.15 1349.67,-712.15 1349.67,-712.15 1459.33,-712.15 1459.33,-712.15 1463.17,-712.15 1467,-715.98 1467,-719.81 1467,-719.81 1467,-727.48 1467,-727.48 1467,-731.31 1463.17,-735.15 1459.33,-735.15"/>
<text text-anchor="middle" x="1404.5" y="-719.95" font-family="Arial" font-size="14.00" fill="#cfffac">models/battery.ts</text>
</g>
<!-- models/connection&#45;response.ts -->
<g id="node3" class="node">
<title>models/connection&#45;response.ts</title>
<path fill="none" stroke="#cfffac" d="M2444.33,-295.15C2444.33,-295.15 2243.67,-295.15 2243.67,-295.15 2239.83,-295.15 2236,-291.31 2236,-287.48 2236,-287.48 2236,-279.81 2236,-279.81 2236,-275.98 2239.83,-272.15 2243.67,-272.15 2243.67,-272.15 2444.33,-272.15 2444.33,-272.15 2448.17,-272.15 2452,-275.98 2452,-279.81 2452,-279.81 2452,-287.48 2452,-287.48 2452,-291.31 2448.17,-295.15 2444.33,-295.15"/>
<text text-anchor="middle" x="2344" y="-279.95" font-family="Arial" font-size="14.00" fill="#cfffac">models/connection&#45;response.ts</text>
</g>
<!-- models/connection.ts -->
<g id="node4" class="node">
<title>models/connection.ts</title>
<path fill="none" stroke="#c6c5fe" d="M1472.83,-419.15C1472.83,-419.15 1336.17,-419.15 1336.17,-419.15 1332.33,-419.15 1328.5,-415.31 1328.5,-411.48 1328.5,-411.48 1328.5,-403.81 1328.5,-403.81 1328.5,-399.98 1332.33,-396.15 1336.17,-396.15 1336.17,-396.15 1472.83,-396.15 1472.83,-396.15 1476.67,-396.15 1480.5,-399.98 1480.5,-403.81 1480.5,-403.81 1480.5,-411.48 1480.5,-411.48 1480.5,-415.31 1476.67,-419.15 1472.83,-419.15"/>
<text text-anchor="middle" x="1404.5" y="-403.95" font-family="Arial" font-size="14.00" fill="#c6c5fe">models/connection.ts</text>
</g>
<!-- models/receiver&#45;data.ts -->
<g id="node5" class="node">
<title>models/receiver&#45;data.ts</title>
<path fill="none" stroke="#c6c5fe" d="M1906.83,-96.15C1906.83,-96.15 1757.17,-96.15 1757.17,-96.15 1753.33,-96.15 1749.5,-92.31 1749.5,-88.48 1749.5,-88.48 1749.5,-80.81 1749.5,-80.81 1749.5,-76.98 1753.33,-73.15 1757.17,-73.15 1757.17,-73.15 1906.83,-73.15 1906.83,-73.15 1910.67,-73.15 1914.5,-76.98 1914.5,-80.81 1914.5,-80.81 1914.5,-88.48 1914.5,-88.48 1914.5,-92.31 1910.67,-96.15 1906.83,-96.15"/>
<text text-anchor="middle" x="1832" y="-80.95" font-family="Arial" font-size="14.00" fill="#c6c5fe">models/receiver&#45;data.ts</text>
</g>
<!-- models/connection.ts&#45;&gt;models/receiver&#45;data.ts -->
<g id="edge1" class="edge">
<title>models/connection.ts&#45;&gt;models/receiver&#45;data.ts</title>
<path fill="none" stroke="#757575" d="M1411.47,-395.96C1427.9,-364.66 1476.49,-277.56 1536,-221.65 1608.55,-153.48 1634.18,-140.63 1727,-104.65 1732.49,-102.52 1738.24,-100.61 1744.09,-98.9"/>
<polygon fill="#757575" stroke="#757575" points="1745.27,-102.2 1754,-96.2 1743.44,-95.45 1745.27,-102.2"/>
</g>
<!-- models/receiver.ts -->
<g id="node6" class="node">
<title>models/receiver.ts</title>
<path fill="none" stroke="#c6c5fe" d="M1672.83,-254.15C1672.83,-254.15 1554.17,-254.15 1554.17,-254.15 1550.33,-254.15 1546.5,-250.31 1546.5,-246.48 1546.5,-246.48 1546.5,-238.81 1546.5,-238.81 1546.5,-234.98 1550.33,-231.15 1554.17,-231.15 1554.17,-231.15 1672.83,-231.15 1672.83,-231.15 1676.67,-231.15 1680.5,-234.98 1680.5,-238.81 1680.5,-238.81 1680.5,-246.48 1680.5,-246.48 1680.5,-250.31 1676.67,-254.15 1672.83,-254.15"/>
<text text-anchor="middle" x="1613.5" y="-238.95" font-family="Arial" font-size="14.00" fill="#c6c5fe">models/receiver.ts</text>
</g>
<!-- models/connection.ts&#45;&gt;models/receiver.ts -->
<g id="edge2" class="edge">
<title>models/connection.ts&#45;&gt;models/receiver.ts</title>
<path fill="none" stroke="#757575" d="M1468.87,-396.1C1479.77,-392.5 1490.6,-387.79 1500,-381.65 1547.12,-350.81 1583.94,-293.9 1601.4,-263.34"/>
<polygon fill="#757575" stroke="#757575" points="1604.57,-264.84 1606.38,-254.41 1598.46,-261.44 1604.57,-264.84"/>
</g>
<!-- models/transformation.ts -->
<g id="node7" class="node">
<title>models/transformation.ts</title>
<path fill="none" stroke="#cfffac" d="M1910.83,-423.15C1910.83,-423.15 1753.17,-423.15 1753.17,-423.15 1749.33,-423.15 1745.5,-419.31 1745.5,-415.48 1745.5,-415.48 1745.5,-407.81 1745.5,-407.81 1745.5,-403.98 1749.33,-400.15 1753.17,-400.15 1753.17,-400.15 1910.83,-400.15 1910.83,-400.15 1914.67,-400.15 1918.5,-403.98 1918.5,-407.81 1918.5,-407.81 1918.5,-415.48 1918.5,-415.48 1918.5,-419.31 1914.67,-423.15 1910.83,-423.15"/>
<text text-anchor="middle" x="1832" y="-407.95" font-family="Arial" font-size="14.00" fill="#cfffac">models/transformation.ts</text>
</g>
<!-- models/connection.ts&#45;&gt;models/transformation.ts -->
<g id="edge3" class="edge">
<title>models/connection.ts&#45;&gt;models/transformation.ts</title>
<path fill="none" stroke="#757575" d="M1480.56,-396.18C1498.67,-393.88 1517.99,-391.81 1536,-390.65 1604.74,-386.19 1622.3,-385.52 1691,-390.65 1712.79,-392.27 1736.34,-395.3 1757.79,-398.56"/>
<polygon fill="#757575" stroke="#757575" points="1757.38,-402.04 1767.8,-400.13 1758.46,-395.13 1757.38,-402.04"/>
</g>
<!-- models/transformer.ts -->
<g id="node8" class="node">
<title>models/transformer.ts</title>
<path fill="none" stroke="#c6c5fe" d="M1683.33,-423.15C1683.33,-423.15 1543.67,-423.15 1543.67,-423.15 1539.83,-423.15 1536,-419.31 1536,-415.48 1536,-415.48 1536,-407.81 1536,-407.81 1536,-403.98 1539.83,-400.15 1543.67,-400.15 1543.67,-400.15 1683.33,-400.15 1683.33,-400.15 1687.17,-400.15 1691,-403.98 1691,-407.81 1691,-407.81 1691,-415.48 1691,-415.48 1691,-419.31 1687.17,-423.15 1683.33,-423.15"/>
<text text-anchor="middle" x="1613.5" y="-407.95" font-family="Arial" font-size="14.00" fill="#c6c5fe">models/transformer.ts</text>
</g>
<!-- models/connection.ts&#45;&gt;models/transformer.ts -->
<g id="edge4" class="edge">
<title>models/connection.ts&#45;&gt;models/transformer.ts</title>
<path fill="none" stroke="#757575" d="M1480.52,-409.1C1495.19,-409.38 1510.68,-409.68 1525.69,-409.97"/>
<polygon fill="#757575" stroke="#757575" points="1525.93,-413.47 1535.99,-410.17 1526.06,-406.47 1525.93,-413.47"/>
</g>
<!-- models/receiver&#45;data.ts&#45;&gt;models/connection&#45;response.ts -->
<g id="edge8" class="edge">
<title>models/receiver&#45;data.ts&#45;&gt;models/connection&#45;response.ts</title>
<path fill="none" stroke="#757575" d="M1912.76,-96.19C1989.31,-109.39 2106.72,-135.27 2200,-180.65 2247.42,-203.71 2295.8,-242.4 2322.36,-265.23"/>
<polygon fill="#757575" stroke="#757575" points="2320.35,-268.12 2330.19,-272.04 2324.94,-262.84 2320.35,-268.12"/>
</g>
<!-- models/evaluated&#45;data.ts -->
<g id="node9" class="node">
<title>models/evaluated&#45;data.ts</title>
<path fill="none" stroke="#c6c5fe" d="M2166.33,-213.15C2166.33,-213.15 2006.67,-213.15 2006.67,-213.15 2002.83,-213.15 1999,-209.31 1999,-205.48 1999,-205.48 1999,-197.81 1999,-197.81 1999,-193.98 2002.83,-190.15 2006.67,-190.15 2006.67,-190.15 2166.33,-190.15 2166.33,-190.15 2170.17,-190.15 2174,-193.98 2174,-197.81 2174,-197.81 2174,-205.48 2174,-205.48 2174,-209.31 2170.17,-213.15 2166.33,-213.15"/>
<text text-anchor="middle" x="2086.5" y="-197.95" font-family="Arial" font-size="14.00" fill="#c6c5fe">models/evaluated&#45;data.ts</text>
</g>
<!-- models/receiver&#45;data.ts&#45;&gt;models/evaluated&#45;data.ts -->
<g id="edge9" class="edge">
<title>models/receiver&#45;data.ts&#45;&gt;models/evaluated&#45;data.ts</title>
<path fill="none" stroke="#757575" d="M1914.67,-93.83C1922.56,-96.61 1930.17,-100.15 1937,-104.65 1960.79,-120.3 1950.74,-139.88 1973,-157.65 1989.2,-170.57 2009.65,-180.07 2028.66,-186.87"/>
<polygon fill="#757575" stroke="#757575" points="2027.55,-190.19 2038.15,-190.08 2029.8,-183.56 2027.55,-190.19"/>
</g>
<!-- models/sound.ts -->
<g id="node14" class="node">
<title>models/sound.ts</title>
<path fill="none" stroke="#cfffac" d="M2139.83,-254.15C2139.83,-254.15 2033.17,-254.15 2033.17,-254.15 2029.33,-254.15 2025.5,-250.31 2025.5,-246.48 2025.5,-246.48 2025.5,-238.81 2025.5,-238.81 2025.5,-234.98 2029.33,-231.15 2033.17,-231.15 2033.17,-231.15 2139.83,-231.15 2139.83,-231.15 2143.67,-231.15 2147.5,-234.98 2147.5,-238.81 2147.5,-238.81 2147.5,-246.48 2147.5,-246.48 2147.5,-250.31 2143.67,-254.15 2139.83,-254.15"/>
<text text-anchor="middle" x="2086.5" y="-238.95" font-family="Arial" font-size="14.00" fill="#cfffac">models/sound.ts</text>
</g>
<!-- models/receiver&#45;data.ts&#45;&gt;models/sound.ts -->
<g id="edge10" class="edge">
<title>models/receiver&#45;data.ts&#45;&gt;models/sound.ts</title>
<path fill="none" stroke="#757575" d="M1914.65,-91.23C1922.83,-94.46 1930.5,-98.81 1937,-104.65 1977.5,-140.97 1932.4,-185.43 1973,-221.65 1984.68,-232.06 1999.81,-238.06 2015.18,-241.36"/>
<polygon fill="#757575" stroke="#757575" points="2014.82,-244.85 2025.28,-243.17 2016.05,-237.96 2014.82,-244.85"/>
</g>
<!-- util/types.d.ts -->
<g id="node15" class="node">
<title>util/types.d.ts</title>
<path fill="none" stroke="#cfffac" d="M2128.33,-96.15C2128.33,-96.15 2044.67,-96.15 2044.67,-96.15 2040.83,-96.15 2037,-92.31 2037,-88.48 2037,-88.48 2037,-80.81 2037,-80.81 2037,-76.98 2040.83,-73.15 2044.67,-73.15 2044.67,-73.15 2128.33,-73.15 2128.33,-73.15 2132.17,-73.15 2136,-76.98 2136,-80.81 2136,-80.81 2136,-88.48 2136,-88.48 2136,-92.31 2132.17,-96.15 2128.33,-96.15"/>
<text text-anchor="middle" x="2086.5" y="-80.95" font-family="Arial" font-size="14.00" fill="#cfffac">util/types.d.ts</text>
</g>
<!-- models/receiver&#45;data.ts&#45;&gt;util/types.d.ts -->
<g id="edge11" class="edge">
<title>models/receiver&#45;data.ts&#45;&gt;util/types.d.ts</title>
<path fill="none" stroke="#757575" d="M1914.63,-84.65C1951.19,-84.65 1993.48,-84.65 2026.84,-84.65"/>
<polygon fill="#757575" stroke="#757575" points="2026.89,-88.15 2036.89,-84.65 2026.89,-81.15 2026.89,-88.15"/>
</g>
<!-- models/receiver.ts&#45;&gt;models/action.ts -->
<g id="edge12" class="edge">
<title>models/receiver.ts&#45;&gt;models/action.ts</title>
<path fill="none" stroke="#757575" d="M1680.63,-231.95C1706.32,-227.8 1735.76,-223.04 1761.74,-218.84"/>
<polygon fill="#757575" stroke="#757575" points="1762.57,-222.25 1771.89,-217.2 1761.45,-215.34 1762.57,-222.25"/>
</g>
<!-- models/receiver.ts&#45;&gt;models/receiver&#45;data.ts -->
<g id="edge14" class="edge">
<title>models/receiver.ts&#45;&gt;models/receiver&#45;data.ts</title>
<path fill="none" stroke="#757575" d="M1622.57,-230.78C1643.48,-200.38 1699.67,-120.97 1727,-104.65 1731.12,-102.18 1735.49,-100.01 1740,-98.1"/>
<polygon fill="#757575" stroke="#757575" points="1741.33,-101.35 1749.45,-94.54 1738.86,-94.8 1741.33,-101.35"/>
</g>
<!-- models/receiver.ts&#45;&gt;models/evaluated&#45;data.ts -->
<g id="edge13" class="edge">
<title>models/receiver.ts&#45;&gt;models/evaluated&#45;data.ts</title>
<path fill="none" stroke="#757575" d="M1680.78,-242.02C1746.11,-240.82 1848.7,-237.39 1937,-227.65 1941.01,-227.2 1975.62,-221.15 2010.42,-215"/>
<polygon fill="#757575" stroke="#757575" points="2011.46,-218.37 2020.7,-213.18 2010.24,-211.48 2011.46,-218.37"/>
</g>
<!-- models/receiver&#45;event.ts -->
<g id="node16" class="node">
<title>models/receiver&#45;event.ts</title>
<path fill="none" stroke="#cfffac" d="M1910.83,-137.15C1910.83,-137.15 1753.17,-137.15 1753.17,-137.15 1749.33,-137.15 1745.5,-133.31 1745.5,-129.48 1745.5,-129.48 1745.5,-121.81 1745.5,-121.81 1745.5,-117.98 1749.33,-114.15 1753.17,-114.15 1753.17,-114.15 1910.83,-114.15 1910.83,-114.15 1914.67,-114.15 1918.5,-117.98 1918.5,-121.81 1918.5,-121.81 1918.5,-129.48 1918.5,-129.48 1918.5,-133.31 1914.67,-137.15 1910.83,-137.15"/>
<text text-anchor="middle" x="1832" y="-121.95" font-family="Arial" font-size="14.00" fill="#cfffac">models/receiver&#45;event.ts</text>
</g>
<!-- models/receiver.ts&#45;&gt;models/receiver&#45;event.ts -->
<g id="edge15" class="edge">
<title>models/receiver.ts&#45;&gt;models/receiver&#45;event.ts</title>
<path fill="none" stroke="#757575" d="M1627.44,-230.82C1654.5,-206.19 1715.51,-151.21 1727,-145.65 1731.02,-143.7 1735.21,-141.94 1739.51,-140.36"/>
<polygon fill="#757575" stroke="#757575" points="1740.69,-143.66 1749.05,-137.15 1738.46,-137.02 1740.69,-143.66"/>
</g>
<!-- services/firebasemessaging.ts -->
<g id="node17" class="node">
<title>services/firebasemessaging.ts</title>
<path fill="none" stroke="#cfffac" d="M1929.33,-178.15C1929.33,-178.15 1734.67,-178.15 1734.67,-178.15 1730.83,-178.15 1727,-174.31 1727,-170.48 1727,-170.48 1727,-162.81 1727,-162.81 1727,-158.98 1730.83,-155.15 1734.67,-155.15 1734.67,-155.15 1929.33,-155.15 1929.33,-155.15 1933.17,-155.15 1937,-158.98 1937,-162.81 1937,-162.81 1937,-170.48 1937,-170.48 1937,-174.31 1933.17,-178.15 1929.33,-178.15"/>
<text text-anchor="middle" x="1832" y="-162.95" font-family="Arial" font-size="14.00" fill="#cfffac">services/firebasemessaging.ts</text>
</g>
<!-- models/receiver.ts&#45;&gt;services/firebasemessaging.ts -->
<g id="edge16" class="edge">
<title>models/receiver.ts&#45;&gt;services/firebasemessaging.ts</title>
<path fill="none" stroke="#757575" d="M1633.72,-231.05C1655.57,-218.35 1692.69,-198.24 1727,-186.65 1733.71,-184.38 1740.75,-182.34 1747.87,-180.52"/>
<polygon fill="#757575" stroke="#757575" points="1748.72,-183.91 1757.61,-178.16 1747.07,-177.11 1748.72,-183.91"/>
</g>
<!-- services/websocketmessaging.ts -->
<g id="node18" class="node">
<title>services/websocketmessaging.ts</title>
<path fill="none" stroke="#c6c5fe" d="M2192.33,-295.15C2192.33,-295.15 1980.67,-295.15 1980.67,-295.15 1976.83,-295.15 1973,-291.31 1973,-287.48 1973,-287.48 1973,-279.81 1973,-279.81 1973,-275.98 1976.83,-272.15 1980.67,-272.15 1980.67,-272.15 2192.33,-272.15 2192.33,-272.15 2196.17,-272.15 2200,-275.98 2200,-279.81 2200,-279.81 2200,-287.48 2200,-287.48 2200,-291.31 2196.17,-295.15 2192.33,-295.15"/>
<text text-anchor="middle" x="2086.5" y="-279.95" font-family="Arial" font-size="14.00" fill="#c6c5fe">services/websocketmessaging.ts</text>
</g>
<!-- models/receiver.ts&#45;&gt;services/websocketmessaging.ts -->
<g id="edge17" class="edge">
<title>models/receiver.ts&#45;&gt;services/websocketmessaging.ts</title>
<path fill="none" stroke="#757575" d="M1680.98,-248.43C1753.94,-254.78 1872.64,-265.12 1962.64,-272.95"/>
<polygon fill="#757575" stroke="#757575" points="1962.37,-276.44 1972.63,-273.82 1962.97,-269.47 1962.37,-276.44"/>
</g>
<!-- util/log.ts -->
<g id="node19" class="node">
<title>util/log.ts</title>
<path fill="none" stroke="#c6c5fe" d="M1860.33,-695.15C1860.33,-695.15 1803.67,-695.15 1803.67,-695.15 1799.83,-695.15 1796,-691.31 1796,-687.48 1796,-687.48 1796,-679.81 1796,-679.81 1796,-675.98 1799.83,-672.15 1803.67,-672.15 1803.67,-672.15 1860.33,-672.15 1860.33,-672.15 1864.17,-672.15 1868,-675.98 1868,-679.81 1868,-679.81 1868,-687.48 1868,-687.48 1868,-691.31 1864.17,-695.15 1860.33,-695.15"/>
<text text-anchor="middle" x="1832" y="-679.95" font-family="Arial" font-size="14.00" fill="#c6c5fe">util/log.ts</text>
</g>
<!-- models/receiver.ts&#45;&gt;util/log.ts -->
<g id="edge18" class="edge">
<title>models/receiver.ts&#45;&gt;util/log.ts</title>
<path fill="none" stroke="#757575" d="M1620.77,-254.48C1634.01,-279.49 1665.63,-339.62 1691,-390.65 1741.39,-492 1798.85,-614.59 1821.3,-662.77"/>
<polygon fill="#757575" stroke="#757575" points="1818.27,-664.54 1825.66,-672.13 1824.61,-661.59 1818.27,-664.54"/>
</g>
<!-- models/transformer.ts&#45;&gt;models/connection&#45;response.ts -->
<g id="edge26" class="edge">
<title>models/transformer.ts&#45;&gt;models/connection&#45;response.ts</title>
<path fill="none" stroke="#757575" d="M1671.88,-400.1C1689.52,-396.77 1709.02,-393.33 1727,-390.65 1936.22,-359.44 1994.34,-387.17 2200,-337.65 2238.31,-328.42 2280.29,-311.73 2308.79,-299.34"/>
<polygon fill="#757575" stroke="#757575" points="2310.55,-302.39 2318.28,-295.15 2307.72,-295.98 2310.55,-302.39"/>
</g>
<!-- models/transformer.ts&#45;&gt;models/transformation.ts -->
<g id="edge27" class="edge">
<title>models/transformer.ts&#45;&gt;models/transformation.ts</title>
<path fill="none" stroke="#757575" d="M1691.13,-411.65C1705.37,-411.65 1720.4,-411.65 1735.12,-411.65"/>
<polygon fill="#757575" stroke="#757575" points="1735.25,-415.15 1745.25,-411.65 1735.25,-408.15 1735.25,-415.15"/>
</g>
<!-- models/evaluated&#45;data.ts&#45;&gt;models/connection&#45;response.ts -->
<g id="edge5" class="edge">
<title>models/evaluated&#45;data.ts&#45;&gt;models/connection&#45;response.ts</title>
<path fill="none" stroke="#757575" d="M2166.12,-213.2C2177.59,-215.58 2189.17,-218.38 2200,-221.65 2239.81,-233.63 2283.34,-253.56 2311.79,-267.58"/>
<polygon fill="#757575" stroke="#757575" points="2310.32,-270.76 2320.83,-272.09 2313.44,-264.5 2310.32,-270.76"/>
</g>
<!-- models/event.ts -->
<g id="node10" class="node">
<title>models/event.ts</title>
<path fill="none" stroke="#cfffac" d="M1455.33,-655.15C1455.33,-655.15 1353.67,-655.15 1353.67,-655.15 1349.83,-655.15 1346,-651.31 1346,-647.48 1346,-647.48 1346,-639.81 1346,-639.81 1346,-635.98 1349.83,-632.15 1353.67,-632.15 1353.67,-632.15 1455.33,-632.15 1455.33,-632.15 1459.17,-632.15 1463,-635.98 1463,-639.81 1463,-639.81 1463,-647.48 1463,-647.48 1463,-651.31 1459.17,-655.15 1455.33,-655.15"/>
<text text-anchor="middle" x="1404.5" y="-639.95" font-family="Arial" font-size="14.00" fill="#cfffac">models/event.ts</text>
</g>
<!-- models/inventory/item.ts -->
<g id="node11" class="node">
<title>models/inventory/item.ts</title>
<path fill="none" stroke="#c6c5fe" d="M1236.33,-817.15C1236.33,-817.15 1081.67,-817.15 1081.67,-817.15 1077.83,-817.15 1074,-813.31 1074,-809.48 1074,-809.48 1074,-801.81 1074,-801.81 1074,-797.98 1077.83,-794.15 1081.67,-794.15 1081.67,-794.15 1236.33,-794.15 1236.33,-794.15 1240.17,-794.15 1244,-797.98 1244,-801.81 1244,-801.81 1244,-809.48 1244,-809.48 1244,-813.31 1240.17,-817.15 1236.33,-817.15"/>
<text text-anchor="middle" x="1159" y="-801.95" font-family="Arial" font-size="14.00" fill="#c6c5fe">models/inventory/item.ts</text>
</g>
<!-- models/inventory/location.ts -->
<g id="node12" class="node">
<title>models/inventory/location.ts</title>
<path fill="none" stroke="#cfffac" d="M1492.33,-776.15C1492.33,-776.15 1316.67,-776.15 1316.67,-776.15 1312.83,-776.15 1309,-772.31 1309,-768.48 1309,-768.48 1309,-760.81 1309,-760.81 1309,-756.98 1312.83,-753.15 1316.67,-753.15 1316.67,-753.15 1492.33,-753.15 1492.33,-753.15 1496.17,-753.15 1500,-756.98 1500,-760.81 1500,-760.81 1500,-768.48 1500,-768.48 1500,-772.31 1496.17,-776.15 1492.33,-776.15"/>
<text text-anchor="middle" x="1404.5" y="-760.95" font-family="Arial" font-size="14.00" fill="#cfffac">models/inventory/location.ts</text>
</g>
<!-- models/inventory/item.ts&#45;&gt;models/inventory/location.ts -->
<g id="edge6" class="edge">
<title>models/inventory/item.ts&#45;&gt;models/inventory/location.ts</title>
<path fill="none" stroke="#757575" d="M1228.48,-794.12C1258.56,-789.05 1294.05,-783.08 1325.17,-777.83"/>
<polygon fill="#757575" stroke="#757575" points="1325.84,-781.27 1335.12,-776.16 1324.67,-774.37 1325.84,-781.27"/>
</g>
<!-- models/inventory/order.ts -->
<g id="node13" class="node">
<title>models/inventory/order.ts</title>
<path fill="none" stroke="#cfffac" d="M1484.83,-817.15C1484.83,-817.15 1324.17,-817.15 1324.17,-817.15 1320.33,-817.15 1316.5,-813.31 1316.5,-809.48 1316.5,-809.48 1316.5,-801.81 1316.5,-801.81 1316.5,-797.98 1320.33,-794.15 1324.17,-794.15 1324.17,-794.15 1484.83,-794.15 1484.83,-794.15 1488.67,-794.15 1492.5,-797.98 1492.5,-801.81 1492.5,-801.81 1492.5,-809.48 1492.5,-809.48 1492.5,-813.31 1488.67,-817.15 1484.83,-817.15"/>
<text text-anchor="middle" x="1404.5" y="-801.95" font-family="Arial" font-size="14.00" fill="#cfffac">models/inventory/order.ts</text>
</g>
<!-- models/inventory/item.ts&#45;&gt;models/inventory/order.ts -->
<g id="edge7" class="edge">
<title>models/inventory/item.ts&#45;&gt;models/inventory/order.ts</title>
<path fill="none" stroke="#757575" d="M1244.14,-805.65C1264.22,-805.65 1285.82,-805.65 1306.43,-805.65"/>
<polygon fill="#757575" stroke="#757575" points="1306.46,-809.15 1316.46,-805.65 1306.46,-802.15 1306.46,-809.15"/>
</g>
<!-- services/websocketmessaging.ts&#45;&gt;models/connection&#45;response.ts -->
<g id="edge84" class="edge">
<title>services/websocketmessaging.ts&#45;&gt;models/connection&#45;response.ts</title>
<path fill="none" stroke="#757575" d="M2200.31,-283.65C2208.67,-283.65 2217.12,-283.65 2225.51,-283.65"/>
<polygon fill="#757575" stroke="#757575" points="2225.71,-287.15 2235.71,-283.65 2225.71,-280.15 2225.71,-287.15"/>
</g>
<!-- util/btoaatob.ts -->
<g id="node48" class="node">
<title>util/btoaatob.ts</title>
<path fill="none" stroke="#cfffac" d="M2132.83,-695.15C2132.83,-695.15 2040.17,-695.15 2040.17,-695.15 2036.33,-695.15 2032.5,-691.31 2032.5,-687.48 2032.5,-687.48 2032.5,-679.81 2032.5,-679.81 2032.5,-675.98 2036.33,-672.15 2040.17,-672.15 2040.17,-672.15 2132.83,-672.15 2132.83,-672.15 2136.67,-672.15 2140.5,-675.98 2140.5,-679.81 2140.5,-679.81 2140.5,-687.48 2140.5,-687.48 2140.5,-691.31 2136.67,-695.15 2132.83,-695.15"/>
<text text-anchor="middle" x="2086.5" y="-679.95" font-family="Arial" font-size="14.00" fill="#cfffac">util/btoaatob.ts</text>
</g>
<!-- util/log.ts&#45;&gt;util/btoaatob.ts -->
<g id="edge85" class="edge">
<title>util/log.ts&#45;&gt;util/btoaatob.ts</title>
<path fill="none" stroke="#757575" d="M1868.11,-683.65C1907.83,-683.65 1973.33,-683.65 2022.07,-683.65"/>
<polygon fill="#757575" stroke="#757575" points="2022.2,-687.15 2032.2,-683.65 2022.2,-680.15 2022.2,-687.15"/>
</g>
<!-- models/sender.ts -->
<g id="node20" class="node">
<title>models/sender.ts</title>
<path fill="none" stroke="#c6c5fe" d="M1214.83,-627.15C1214.83,-627.15 1103.17,-627.15 1103.17,-627.15 1099.33,-627.15 1095.5,-623.31 1095.5,-619.48 1095.5,-619.48 1095.5,-611.81 1095.5,-611.81 1095.5,-607.98 1099.33,-604.15 1103.17,-604.15 1103.17,-604.15 1214.83,-604.15 1214.83,-604.15 1218.67,-604.15 1222.5,-607.98 1222.5,-611.81 1222.5,-611.81 1222.5,-619.48 1222.5,-619.48 1222.5,-623.31 1218.67,-627.15 1214.83,-627.15"/>
<text text-anchor="middle" x="1159" y="-611.95" font-family="Arial" font-size="14.00" fill="#c6c5fe">models/sender.ts</text>
</g>
<!-- models/sender.ts&#45;&gt;models/battery.ts -->
<g id="edge19" class="edge">
<title>models/sender.ts&#45;&gt;models/battery.ts</title>
<path fill="none" stroke="#757575" d="M1186.06,-627.2C1229.88,-646.64 1318.39,-685.89 1367.9,-707.86"/>
<polygon fill="#757575" stroke="#757575" points="1366.7,-711.15 1377.26,-712.01 1369.54,-704.75 1366.7,-711.15"/>
</g>
<!-- models/sender.ts&#45;&gt;models/connection&#45;response.ts -->
<g id="edge20" class="edge">
<title>models/sender.ts&#45;&gt;models/connection&#45;response.ts</title>
<path fill="none" stroke="#757575" d="M1222.71,-604.3C1309.84,-589.55 1472.6,-565.65 1612.5,-565.65 1612.5,-565.65 1612.5,-565.65 1833,-565.65 2050.82,-565.65 2262.97,-366.2 2324.94,-302.77"/>
<polygon fill="#757575" stroke="#757575" points="2327.62,-305.03 2332.05,-295.4 2322.59,-300.16 2327.62,-305.03"/>
</g>
<!-- models/sender.ts&#45;&gt;models/connection.ts -->
<g id="edge21" class="edge">
<title>models/sender.ts&#45;&gt;models/connection.ts</title>
<path fill="none" stroke="#757575" d="M1222.77,-611.77C1241.1,-607.68 1259.74,-600.17 1273,-586.65 1321.9,-536.75 1260.54,-483.96 1309,-433.65 1312.6,-429.91 1316.68,-426.7 1321.07,-423.93"/>
<polygon fill="#757575" stroke="#757575" points="1322.76,-427 1329.87,-419.15 1319.41,-420.85 1322.76,-427"/>
</g>
<!-- models/sender.ts&#45;&gt;models/transformation.ts -->
<g id="edge23" class="edge">
<title>models/sender.ts&#45;&gt;models/transformation.ts</title>
<path fill="none" stroke="#757575" d="M1219.75,-604.09C1237.54,-599.26 1256.64,-592.61 1273,-583.65 1291.77,-573.36 1290.45,-562.33 1309,-551.65 1386.46,-507.03 1415.51,-517.83 1500,-488.65 1516.08,-483.09 1519.65,-480.35 1536,-475.65 1609.8,-454.42 1695.76,-436.52 1755.78,-425.1"/>
<polygon fill="#757575" stroke="#757575" points="1756.75,-428.48 1765.93,-423.18 1755.46,-421.6 1756.75,-428.48"/>
</g>
<!-- models/sender.ts&#45;&gt;models/transformer.ts -->
<g id="edge24" class="edge">
<title>models/sender.ts&#45;&gt;models/transformer.ts</title>
<path fill="none" stroke="#757575" d="M1222.63,-609.7C1240.43,-605.48 1258.81,-598.41 1273,-586.65 1302.08,-562.53 1280.67,-534.64 1309,-509.65 1345.11,-477.79 1472.26,-443.98 1550.07,-425.58"/>
<polygon fill="#757575" stroke="#757575" points="1551.3,-428.88 1560.24,-423.19 1549.7,-422.07 1551.3,-428.88"/>
</g>
<!-- models/sender.ts&#45;&gt;models/event.ts -->
<g id="edge22" class="edge">
<title>models/sender.ts&#45;&gt;models/event.ts</title>
<path fill="none" stroke="#757575" d="M1222.71,-622.86C1257.21,-626.82 1300.05,-631.75 1335.37,-635.81"/>
<polygon fill="#757575" stroke="#757575" points="1335.26,-639.32 1345.6,-636.99 1336.06,-632.37 1335.26,-639.32"/>
</g>
<!-- models/sender.ts&#45;&gt;util/log.ts -->
<g id="edge25" class="edge">
<title>models/sender.ts&#45;&gt;util/log.ts</title>
<path fill="none" stroke="#757575" d="M1222.54,-613.92C1290.88,-612.73 1403.52,-612.83 1500,-622.65 1603.25,-633.15 1722.56,-658.44 1785.94,-672.95"/>
<polygon fill="#757575" stroke="#757575" points="1785.47,-676.43 1796,-675.26 1787.04,-669.61 1785.47,-676.43"/>
</g>
<!-- models/test.ts -->
<g id="node21" class="node">
<title>models/test.ts</title>
<path fill="none" stroke="#cfffac" d="M149.33,-712.15C149.33,-712.15 58.67,-712.15 58.67,-712.15 54.83,-712.15 51,-708.31 51,-704.48 51,-704.48 51,-696.81 51,-696.81 51,-692.98 54.83,-689.15 58.67,-689.15 58.67,-689.15 149.33,-689.15 149.33,-689.15 153.17,-689.15 157,-692.98 157,-696.81 157,-696.81 157,-704.48 157,-704.48 157,-708.31 153.17,-712.15 149.33,-712.15"/>
<text text-anchor="middle" x="104" y="-696.95" font-family="Arial" font-size="14.00" fill="#cfffac">models/test.ts</text>
</g>
<!-- models/timer.ts -->
<g id="node22" class="node">
<title>models/timer.ts</title>
<path fill="none" stroke="#cfffac" d="M1208.33,-501.15C1208.33,-501.15 1109.67,-501.15 1109.67,-501.15 1105.83,-501.15 1102,-497.31 1102,-493.48 1102,-493.48 1102,-485.81 1102,-485.81 1102,-481.98 1105.83,-478.15 1109.67,-478.15 1109.67,-478.15 1208.33,-478.15 1208.33,-478.15 1212.17,-478.15 1216,-481.98 1216,-485.81 1216,-485.81 1216,-493.48 1216,-493.48 1216,-497.31 1212.17,-501.15 1208.33,-501.15"/>
<text text-anchor="middle" x="1159" y="-485.95" font-family="Arial" font-size="14.00" fill="#cfffac">models/timer.ts</text>
</g>
<!-- node&#45;red/glboal&#45;script.ts -->
<g id="node23" class="node">
<title>node&#45;red/glboal&#45;script.ts</title>
<path fill="none" stroke="#c6c5fe" d="M964.33,-1214.15C964.33,-1214.15 809.67,-1214.15 809.67,-1214.15 805.83,-1214.15 802,-1210.31 802,-1206.48 802,-1206.48 802,-1198.81 802,-1198.81 802,-1194.98 805.83,-1191.15 809.67,-1191.15 809.67,-1191.15 964.33,-1191.15 964.33,-1191.15 968.17,-1191.15 972,-1194.98 972,-1198.81 972,-1198.81 972,-1206.48 972,-1206.48 972,-1210.31 968.17,-1214.15 964.33,-1214.15"/>
<text text-anchor="middle" x="887" y="-1198.95" font-family="Arial" font-size="14.00" fill="#c6c5fe">node&#45;red/glboal&#45;script.ts</text>
</g>
<!-- node&#45;red/red&#45;ui.d.ts -->
<g id="node24" class="node">
<title>node&#45;red/red&#45;ui.d.ts</title>
<path fill="none" stroke="#cfffac" d="M1221.83,-1214.15C1221.83,-1214.15 1096.17,-1214.15 1096.17,-1214.15 1092.33,-1214.15 1088.5,-1210.31 1088.5,-1206.48 1088.5,-1206.48 1088.5,-1198.81 1088.5,-1198.81 1088.5,-1194.98 1092.33,-1191.15 1096.17,-1191.15 1096.17,-1191.15 1221.83,-1191.15 1221.83,-1191.15 1225.67,-1191.15 1229.5,-1194.98 1229.5,-1198.81 1229.5,-1198.81 1229.5,-1206.48 1229.5,-1206.48 1229.5,-1210.31 1225.67,-1214.15 1221.83,-1214.15"/>
<text text-anchor="middle" x="1159" y="-1198.95" font-family="Arial" font-size="14.00" fill="#cfffac">node&#45;red/red&#45;ui.d.ts</text>
</g>
<!-- node&#45;red/glboal&#45;script.ts&#45;&gt;node&#45;red/red&#45;ui.d.ts -->
<g id="edge28" class="edge">
<title>node&#45;red/glboal&#45;script.ts&#45;&gt;node&#45;red/red&#45;ui.d.ts</title>
<path fill="none" stroke="#757575" d="M972.32,-1202.65C1006.11,-1202.65 1044.86,-1202.65 1078.19,-1202.65"/>
<polygon fill="#757575" stroke="#757575" points="1078.35,-1206.15 1088.35,-1202.65 1078.35,-1199.15 1078.35,-1206.15"/>
</g>
<!-- node&#45;red/node&#45;red&#45;registration.ts -->
<g id="node25" class="node">
<title>node&#45;red/node&#45;red&#45;registration.ts</title>
<path fill="none" stroke="#c6c5fe" d="M721.33,-1214.15C721.33,-1214.15 511.67,-1214.15 511.67,-1214.15 507.83,-1214.15 504,-1210.31 504,-1206.48 504,-1206.48 504,-1198.81 504,-1198.81 504,-1194.98 507.83,-1191.15 511.67,-1191.15 511.67,-1191.15 721.33,-1191.15 721.33,-1191.15 725.17,-1191.15 729,-1194.98 729,-1198.81 729,-1198.81 729,-1206.48 729,-1206.48 729,-1210.31 725.17,-1214.15 721.33,-1214.15"/>
<text text-anchor="middle" x="616.5" y="-1198.95" font-family="Arial" font-size="14.00" fill="#c6c5fe">node&#45;red/node&#45;red&#45;registration.ts</text>
</g>
<!-- node&#45;red/node&#45;red&#45;registration.ts&#45;&gt;node&#45;red/glboal&#45;script.ts -->
<g id="edge29" class="edge">
<title>node&#45;red/node&#45;red&#45;registration.ts&#45;&gt;node&#45;red/glboal&#45;script.ts</title>
<path fill="none" stroke="#757575" d="M729.04,-1202.65C749.87,-1202.65 771.45,-1202.65 791.7,-1202.65"/>
<polygon fill="#757575" stroke="#757575" points="791.83,-1206.15 801.83,-1202.65 791.83,-1199.15 791.83,-1206.15"/>
</g>
<!-- node&#45;red/node&#45;red&#45;registration.ts&#45;&gt;node&#45;red/red&#45;ui.d.ts -->
<g id="edge30" class="edge">
<title>node&#45;red/node&#45;red&#45;registration.ts&#45;&gt;node&#45;red/red&#45;ui.d.ts</title>
<path fill="none" stroke="#757575" d="M684.1,-1191.13C709.36,-1187.29 738.42,-1183.53 765,-1181.65 873.17,-1173.98 900.82,-1174.06 1009,-1181.65 1032.38,-1183.29 1057.68,-1186.35 1080.67,-1189.65"/>
<polygon fill="#757575" stroke="#757575" points="1080.31,-1193.14 1090.71,-1191.13 1081.33,-1186.21 1080.31,-1193.14"/>
</g>
<!-- node&#45;red/register&#45;custom&#45;type.ts -->
<g id="node26" class="node">
<title>node&#45;red/register&#45;custom&#45;type.ts</title>
<path fill="none" stroke="#c6c5fe" d="M460.33,-1234.15C460.33,-1234.15 251.67,-1234.15 251.67,-1234.15 247.83,-1234.15 244,-1230.31 244,-1226.48 244,-1226.48 244,-1218.81 244,-1218.81 244,-1214.98 247.83,-1211.15 251.67,-1211.15 251.67,-1211.15 460.33,-1211.15 460.33,-1211.15 464.17,-1211.15 468,-1214.98 468,-1218.81 468,-1218.81 468,-1226.48 468,-1226.48 468,-1230.31 464.17,-1234.15 460.33,-1234.15"/>
<text text-anchor="middle" x="356" y="-1218.95" font-family="Arial" font-size="14.00" fill="#c6c5fe">node&#45;red/register&#45;custom&#45;type.ts</text>
</g>
<!-- node&#45;red/register&#45;custom&#45;type.ts&#45;&gt;node&#45;red/red&#45;ui.d.ts -->
<g id="edge32" class="edge">
<title>node&#45;red/register&#45;custom&#45;type.ts&#45;&gt;node&#45;red/red&#45;ui.d.ts</title>
<path fill="none" stroke="#757575" d="M468.2,-1227.64C598.12,-1232.37 819.44,-1236.94 1009,-1223.65 1032.38,-1222.01 1057.68,-1218.94 1080.67,-1215.64"/>
<polygon fill="#757575" stroke="#757575" points="1081.33,-1219.08 1090.71,-1214.17 1080.31,-1212.16 1081.33,-1219.08"/>
</g>
<!-- node&#45;red/register&#45;custom&#45;type.ts&#45;&gt;node&#45;red/node&#45;red&#45;registration.ts -->
<g id="edge31" class="edge">
<title>node&#45;red/register&#45;custom&#45;type.ts&#45;&gt;node&#45;red/node&#45;red&#45;registration.ts</title>
<path fill="none" stroke="#757575" d="M468.13,-1214.05C476.59,-1213.39 485.15,-1212.73 493.67,-1212.07"/>
<polygon fill="#757575" stroke="#757575" points="493.94,-1215.56 503.65,-1211.3 493.4,-1208.58 493.94,-1215.56"/>
</g>
<!-- node&#45;red/server.ts -->
<g id="node27" class="node">
<title>node&#45;red/server.ts</title>
<path fill="none" stroke="#c6c5fe" d="M162.83,-1234.15C162.83,-1234.15 45.17,-1234.15 45.17,-1234.15 41.33,-1234.15 37.5,-1230.31 37.5,-1226.48 37.5,-1226.48 37.5,-1218.81 37.5,-1218.81 37.5,-1214.98 41.33,-1211.15 45.17,-1211.15 45.17,-1211.15 162.83,-1211.15 162.83,-1211.15 166.67,-1211.15 170.5,-1214.98 170.5,-1218.81 170.5,-1218.81 170.5,-1226.48 170.5,-1226.48 170.5,-1230.31 166.67,-1234.15 162.83,-1234.15"/>
<text text-anchor="middle" x="104" y="-1218.95" font-family="Arial" font-size="14.00" fill="#c6c5fe">node&#45;red/server.ts</text>
</g>
<!-- node&#45;red/server.ts&#45;&gt;node&#45;red/register&#45;custom&#45;type.ts -->
<g id="edge33" class="edge">
<title>node&#45;red/server.ts&#45;&gt;node&#45;red/register&#45;custom&#45;type.ts</title>
<path fill="none" stroke="#757575" d="M170.68,-1222.65C190.04,-1222.65 211.87,-1222.65 233.56,-1222.65"/>
<polygon fill="#757575" stroke="#757575" points="233.84,-1226.15 243.84,-1222.65 233.84,-1219.15 233.84,-1226.15"/>
</g>
<!-- resources/connection.r.ts -->
<g id="node28" class="node">
<title>resources/connection.r.ts</title>
<path fill="none" stroke="#c6c5fe" d="M436.33,-435.15C436.33,-435.15 275.67,-435.15 275.67,-435.15 271.83,-435.15 268,-431.31 268,-427.48 268,-427.48 268,-419.81 268,-419.81 268,-415.98 271.83,-412.15 275.67,-412.15 275.67,-412.15 436.33,-412.15 436.33,-412.15 440.17,-412.15 444,-415.98 444,-419.81 444,-419.81 444,-427.48 444,-427.48 444,-431.31 440.17,-435.15 436.33,-435.15"/>
<text text-anchor="middle" x="356" y="-419.95" font-family="Arial" font-size="14.00" fill="#c6c5fe">resources/connection.r.ts</text>
</g>
<!-- resources/connection.r.ts&#45;&gt;models/connection.ts -->
<g id="edge34" class="edge">
<title>resources/connection.r.ts&#45;&gt;models/connection.ts</title>
<path fill="none" stroke="#757575" d="M444.42,-422.31C642.29,-419.28 1122.41,-411.94 1318.22,-408.95"/>
<polygon fill="#757575" stroke="#757575" points="1318.51,-412.45 1328.45,-408.79 1318.4,-405.45 1318.51,-412.45"/>
</g>
<!-- resources/connection.r.ts&#45;&gt;models/receiver.ts -->
<g id="edge35" class="edge">
<title>resources/connection.r.ts&#45;&gt;models/receiver.ts</title>
<path fill="none" stroke="#757575" d="M379.76,-412.07C440.56,-381.67 612.51,-299.15 765,-258.65 1041.16,-185.3 1385.94,-214.01 1536.38,-232.16"/>
<polygon fill="#757575" stroke="#757575" points="1536.09,-235.65 1546.44,-233.39 1536.94,-228.7 1536.09,-235.65"/>
</g>
<!-- resources/connection.r.ts&#45;&gt;models/sender.ts -->
<g id="edge36" class="edge">
<title>resources/connection.r.ts&#45;&gt;models/sender.ts</title>
<path fill="none" stroke="#757575" d="M431.13,-435.18C443.52,-437.63 456.18,-440.46 468,-443.65 587.18,-475.82 633.77,-460.09 729,-538.65 752.99,-558.43 738.28,-582.74 765,-598.65 817.22,-629.72 986.74,-625.81 1085.25,-620.53"/>
<polygon fill="#757575" stroke="#757575" points="1085.64,-624.02 1095.43,-619.97 1085.25,-617.03 1085.64,-624.02"/>
</g>
<!-- resources/frontend&#45;update.ts -->
<g id="node29" class="node">
<title>resources/frontend&#45;update.ts</title>
<path fill="none" stroke="#c6c5fe" d="M708.83,-571.15C708.83,-571.15 524.17,-571.15 524.17,-571.15 520.33,-571.15 516.5,-567.31 516.5,-563.48 516.5,-563.48 516.5,-555.81 516.5,-555.81 516.5,-551.98 520.33,-548.15 524.17,-548.15 524.17,-548.15 708.83,-548.15 708.83,-548.15 712.67,-548.15 716.5,-551.98 716.5,-555.81 716.5,-555.81 716.5,-563.48 716.5,-563.48 716.5,-567.31 712.67,-571.15 708.83,-571.15"/>
<text text-anchor="middle" x="616.5" y="-555.95" font-family="Arial" font-size="14.00" fill="#c6c5fe">resources/frontend&#45;update.ts</text>
</g>
<!-- resources/connection.r.ts&#45;&gt;resources/frontend&#45;update.ts -->
<g id="edge37" class="edge">
<title>resources/connection.r.ts&#45;&gt;resources/frontend&#45;update.ts</title>
<path fill="none" stroke="#757575" d="M444.17,-430.34C452.79,-433.57 460.94,-437.89 468,-443.65 501.38,-470.88 471.32,-505.57 504,-533.65 508.54,-537.55 513.55,-540.89 518.87,-543.75"/>
<polygon fill="#757575" stroke="#757575" points="517.53,-546.99 528.07,-548.12 520.54,-540.67 517.53,-546.99"/>
</g>
<!-- resources/frontend&#45;update.ts&#45;&gt;models/receiver.ts -->
<g id="edge39" class="edge">
<title>resources/frontend&#45;update.ts&#45;&gt;models/receiver.ts</title>
<path fill="none" stroke="#757575" d="M638.16,-548.03C720.02,-502.68 1030.64,-336.65 1309,-268.65 1384.92,-250.1 1474.32,-244.3 1536.34,-242.71"/>
<polygon fill="#757575" stroke="#757575" points="1536.52,-246.21 1546.43,-242.49 1536.36,-239.21 1536.52,-246.21"/>
</g>
<!-- resources/frontend&#45;update.ts&#45;&gt;models/inventory/item.ts -->
<g id="edge38" class="edge">
<title>resources/frontend&#45;update.ts&#45;&gt;models/inventory/item.ts</title>
<path fill="none" stroke="#757575" d="M629.02,-571.5C652.52,-595.06 708.56,-648.13 765,-678.65 796.06,-695.44 1012.01,-761.58 1109.93,-791.19"/>
<polygon fill="#757575" stroke="#757575" points="1109,-794.56 1119.58,-794.1 1111.02,-787.86 1109,-794.56"/>
</g>
<!-- resources/frontend&#45;update.ts&#45;&gt;models/timer.ts -->
<g id="edge40" class="edge">
<title>resources/frontend&#45;update.ts&#45;&gt;models/timer.ts</title>
<path fill="none" stroke="#757575" d="M659.14,-548.07C688.51,-540.32 728.89,-530.51 765,-524.65 878.89,-506.16 1013.04,-496.85 1091.49,-492.64"/>
<polygon fill="#757575" stroke="#757575" points="1091.91,-496.12 1101.71,-492.1 1091.54,-489.13 1091.91,-496.12"/>
</g>
<!-- resources/websocket&#45;response.d.ts -->
<g id="node31" class="node">
<title>resources/websocket&#45;response.d.ts</title>
<path fill="none" stroke="#c6c5fe" d="M1001.33,-590.15C1001.33,-590.15 772.67,-590.15 772.67,-590.15 768.83,-590.15 765,-586.31 765,-582.48 765,-582.48 765,-574.81 765,-574.81 765,-570.98 768.83,-567.15 772.67,-567.15 772.67,-567.15 1001.33,-567.15 1001.33,-567.15 1005.17,-567.15 1009,-570.98 1009,-574.81 1009,-574.81 1009,-582.48 1009,-582.48 1009,-586.31 1005.17,-590.15 1001.33,-590.15"/>
<text text-anchor="middle" x="887" y="-574.95" font-family="Arial" font-size="14.00" fill="#c6c5fe">resources/websocket&#45;response.d.ts</text>
</g>
<!-- resources/frontend&#45;update.ts&#45;&gt;resources/websocket&#45;response.d.ts -->
<g id="edge41" class="edge">
<title>resources/frontend&#45;update.ts&#45;&gt;resources/websocket&#45;response.d.ts</title>
<path fill="none" stroke="#757575" d="M716.72,-566.67C729.09,-567.54 741.9,-568.45 754.67,-569.35"/>
<polygon fill="#757575" stroke="#757575" points="754.67,-572.86 764.89,-570.08 755.16,-565.88 754.67,-572.86"/>
</g>
<!-- services/sender&#45;loader.ts -->
<g id="node32" class="node">
<title>services/sender&#45;loader.ts</title>
<path fill="none" stroke="#c6c5fe" d="M967.83,-826.15C967.83,-826.15 806.17,-826.15 806.17,-826.15 802.33,-826.15 798.5,-822.31 798.5,-818.48 798.5,-818.48 798.5,-810.81 798.5,-810.81 798.5,-806.98 802.33,-803.15 806.17,-803.15 806.17,-803.15 967.83,-803.15 967.83,-803.15 971.67,-803.15 975.5,-806.98 975.5,-810.81 975.5,-810.81 975.5,-818.48 975.5,-818.48 975.5,-822.31 971.67,-826.15 967.83,-826.15"/>
<text text-anchor="middle" x="887" y="-810.95" font-family="Arial" font-size="14.00" fill="#c6c5fe">services/sender&#45;loader.ts</text>
</g>
<!-- resources/frontend&#45;update.ts&#45;&gt;services/sender&#45;loader.ts -->
<g id="edge42" class="edge">
<title>resources/frontend&#45;update.ts&#45;&gt;services/sender&#45;loader.ts</title>
<path fill="none" stroke="#757575" d="M627.85,-571.17C651.4,-597.21 711.11,-662.24 765,-712.65 797.85,-743.37 838.16,-776.51 862.96,-796.41"/>
<polygon fill="#757575" stroke="#757575" points="861.05,-799.36 871.05,-802.87 865.42,-793.9 861.05,-799.36"/>
</g>
<!-- resources/control&#45;keys.ws.ts -->
<g id="node30" class="node">
<title>resources/control&#45;keys.ws.ts</title>
<path fill="none" stroke="#cfffac" d="M194.83,-1275.15C194.83,-1275.15 13.17,-1275.15 13.17,-1275.15 9.33,-1275.15 5.5,-1271.31 5.5,-1267.48 5.5,-1267.48 5.5,-1259.81 5.5,-1259.81 5.5,-1255.98 9.33,-1252.15 13.17,-1252.15 13.17,-1252.15 194.83,-1252.15 194.83,-1252.15 198.67,-1252.15 202.5,-1255.98 202.5,-1259.81 202.5,-1259.81 202.5,-1267.48 202.5,-1267.48 202.5,-1271.31 198.67,-1275.15 194.83,-1275.15"/>
<text text-anchor="middle" x="104" y="-1259.95" font-family="Arial" font-size="14.00" fill="#cfffac">resources/control&#45;keys.ws.ts</text>
</g>
<!-- resources/websocket&#45;response.d.ts&#45;&gt;models/receiver.ts -->
<g id="edge63" class="edge">
<title>resources/websocket&#45;response.d.ts&#45;&gt;models/receiver.ts</title>
<path fill="none" stroke="#757575" d="M957.46,-567.09C974.42,-563.82 992.45,-559.96 1009,-555.65 1025.32,-551.39 1028.6,-547.57 1045,-543.65 1094.82,-531.72 1234.39,-543.31 1273,-509.65 1315.93,-472.21 1272.03,-429.98 1309,-386.65 1371.23,-313.69 1478.71,-275.05 1547.65,-256.74"/>
<polygon fill="#757575" stroke="#757575" points="1548.73,-260.08 1557.54,-254.18 1546.98,-253.3 1548.73,-260.08"/>
</g>
<!-- resources/websocket&#45;response.d.ts&#45;&gt;models/inventory/item.ts -->
<g id="edge62" class="edge">
<title>resources/websocket&#45;response.d.ts&#45;&gt;models/inventory/item.ts</title>
<path fill="none" stroke="#757575" d="M930.75,-590.25C956.63,-599.28 988.48,-614.29 1009,-637.65 1042.12,-675.34 1012.67,-706.28 1045,-744.65 1062.68,-765.62 1089.47,-780.53 1112.52,-790.35"/>
<polygon fill="#757575" stroke="#757575" points="1111.23,-793.6 1121.81,-794.12 1113.86,-787.12 1111.23,-793.6"/>
</g>
<!-- resources/websocket&#45;response.d.ts&#45;&gt;models/sender.ts -->
<g id="edge64" class="edge">
<title>resources/websocket&#45;response.d.ts&#45;&gt;models/sender.ts</title>
<path fill="none" stroke="#757575" d="M971.95,-590.15C1008.16,-595.11 1050.12,-600.86 1085.01,-605.64"/>
<polygon fill="#757575" stroke="#757575" points="1084.74,-609.14 1095.13,-607.03 1085.69,-602.2 1084.74,-609.14"/>
</g>
<!-- resources/websocket&#45;response.d.ts&#45;&gt;models/timer.ts -->
<g id="edge65" class="edge">
<title>resources/websocket&#45;response.d.ts&#45;&gt;models/timer.ts</title>
<path fill="none" stroke="#757575" d="M972.98,-567.06C985.5,-563.47 997.91,-558.78 1009,-552.65 1029.08,-541.54 1025.01,-526.9 1045,-515.65 1059.31,-507.59 1075.97,-502.03 1092.04,-498.19"/>
<polygon fill="#757575" stroke="#757575" points="1092.92,-501.58 1101.94,-496.02 1091.42,-494.74 1092.92,-501.58"/>
</g>
<!-- services/sender&#45;loader.ts&#45;&gt;models/sound.ts -->
<g id="edge78" class="edge">
<title>services/sender&#45;loader.ts&#45;&gt;models/sound.ts</title>
<path fill="none" stroke="#757575" d="M893.78,-826.25C911.15,-859.58 966.53,-955.49 1045,-990.65 1229.55,-1073.32 1306.25,-1048.58 1500,-990.65 1722.62,-924.08 1818.42,-903.47 1937,-703.65 1987.18,-619.09 1906.83,-335.38 1973,-262.65 1983.94,-250.62 1999.42,-244.24 2015.39,-241.13"/>
<polygon fill="#757575" stroke="#757575" points="2016.02,-244.57 2025.37,-239.59 2014.96,-237.66 2016.02,-244.57"/>
</g>
<!-- services/sender&#45;loader.ts&#45;&gt;models/sender.ts -->
<g id="edge77" class="edge">
<title>services/sender&#45;loader.ts&#45;&gt;models/sender.ts</title>
<path fill="none" stroke="#757575" d="M918.03,-803.09C943.93,-792.16 981.42,-773.97 1009,-750.65 1029.09,-733.66 1026.47,-722.33 1045,-703.65 1072.17,-676.25 1107.92,-649.74 1131.87,-633.1"/>
<polygon fill="#757575" stroke="#757575" points="1134.16,-635.77 1140.42,-627.22 1130.2,-630 1134.16,-635.77"/>
</g>
<!-- util/tsc&#45;compiler.ts -->
<g id="node45" class="node">
<title>util/tsc&#45;compiler.ts</title>
<path fill="none" stroke="#c6c5fe" d="M1216.83,-982.15C1216.83,-982.15 1101.17,-982.15 1101.17,-982.15 1097.33,-982.15 1093.5,-978.31 1093.5,-974.48 1093.5,-974.48 1093.5,-966.81 1093.5,-966.81 1093.5,-962.98 1097.33,-959.15 1101.17,-959.15 1101.17,-959.15 1216.83,-959.15 1216.83,-959.15 1220.67,-959.15 1224.5,-962.98 1224.5,-966.81 1224.5,-966.81 1224.5,-974.48 1224.5,-974.48 1224.5,-978.31 1220.67,-982.15 1216.83,-982.15"/>
<text text-anchor="middle" x="1159" y="-966.95" font-family="Arial" font-size="14.00" fill="#c6c5fe">util/tsc&#45;compiler.ts</text>
</g>
<!-- services/sender&#45;loader.ts&#45;&gt;util/tsc&#45;compiler.ts -->
<g id="edge79" class="edge">
<title>services/sender&#45;loader.ts&#45;&gt;util/tsc&#45;compiler.ts</title>
<path fill="none" stroke="#757575" d="M908.29,-826.37C955.71,-853.77 1073.91,-922.06 1128.95,-953.86"/>
<polygon fill="#757575" stroke="#757575" points="1127.43,-957.02 1137.84,-959 1130.93,-950.96 1127.43,-957.02"/>
</g>
<!-- resources/inventory.r.ts -->
<g id="node33" class="node">
<title>resources/inventory.r.ts</title>
<path fill="none" stroke="#c6c5fe" d="M430.33,-1060.15C430.33,-1060.15 281.67,-1060.15 281.67,-1060.15 277.83,-1060.15 274,-1056.31 274,-1052.48 274,-1052.48 274,-1044.81 274,-1044.81 274,-1040.98 277.83,-1037.15 281.67,-1037.15 281.67,-1037.15 430.33,-1037.15 430.33,-1037.15 434.17,-1037.15 438,-1040.98 438,-1044.81 438,-1044.81 438,-1052.48 438,-1052.48 438,-1056.31 434.17,-1060.15 430.33,-1060.15"/>
<text text-anchor="middle" x="356" y="-1044.95" font-family="Arial" font-size="14.00" fill="#c6c5fe">resources/inventory.r.ts</text>
</g>
<!-- resources/inventory.r.ts&#45;&gt;models/inventory/item.ts -->
<g id="edge43" class="edge">
<title>resources/inventory.r.ts&#45;&gt;models/inventory/item.ts</title>
<path fill="none" stroke="#757575" d="M438.36,-1052.52C514.53,-1054.21 630.97,-1051.84 729,-1028.65 861.1,-997.39 890.09,-972.12 1009,-906.65 1055.64,-880.96 1106.2,-844.73 1134.8,-823.37"/>
<polygon fill="#757575" stroke="#757575" points="1137.05,-826.05 1142.94,-817.24 1132.84,-820.45 1137.05,-826.05"/>
</g>
<!-- resources/inventory.r.ts&#45;&gt;models/inventory/order.ts -->
<g id="edge44" class="edge">
<title>resources/inventory.r.ts&#45;&gt;models/inventory/order.ts</title>
<path fill="none" stroke="#757575" d="M438.33,-1057.36C513.98,-1063.76 629.64,-1069.23 729,-1055.65 856.99,-1038.15 893.61,-1035.73 1009,-977.65 1027.11,-968.53 1027.03,-959.03 1045,-949.65 1139.07,-900.5 1176.76,-923.39 1273,-878.65 1290.22,-870.64 1292.6,-865.2 1309,-855.65 1329.35,-843.79 1352.74,-831.4 1371.16,-821.92"/>
<polygon fill="#757575" stroke="#757575" points="1372.99,-824.92 1380.3,-817.25 1369.8,-818.69 1372.99,-824.92"/>
</g>
<!-- resources/inventory.r.ts&#45;&gt;util/log.ts -->
<g id="edge47" class="edge">
<title>resources/inventory.r.ts&#45;&gt;util/log.ts</title>
<path fill="none" stroke="#757575" d="M404.81,-1060.19C497.19,-1081.45 706.93,-1124.65 886,-1124.65 886,-1124.65 886,-1124.65 1160,-1124.65 1414.28,-1124.65 1522.14,-1101.76 1691,-911.65 1751.27,-843.79 1801.09,-746.7 1821.31,-704.52"/>
<polygon fill="#757575" stroke="#757575" points="1824.58,-705.8 1825.69,-695.26 1818.25,-702.8 1824.58,-705.8"/>
</g>
<!-- resources/inventory.r.ts&#45;&gt;resources/frontend&#45;update.ts -->
<g id="edge45" class="edge">
<title>resources/inventory.r.ts&#45;&gt;resources/frontend&#45;update.ts</title>
<path fill="none" stroke="#757575" d="M438.23,-1043.95C449.15,-1040.41 459.49,-1035.2 468,-1027.65 537.95,-965.52 596.45,-665.5 611.65,-581.53"/>
<polygon fill="#757575" stroke="#757575" points="615.12,-582.03 613.44,-571.56 608.23,-580.79 615.12,-582.03"/>
</g>
<!-- services/image&#45;converter.ts -->
<g id="node34" class="node">
<title>services/image&#45;converter.ts</title>
<path fill="none" stroke="#cfffac" d="M704.33,-1020.15C704.33,-1020.15 528.67,-1020.15 528.67,-1020.15 524.83,-1020.15 521,-1016.31 521,-1012.48 521,-1012.48 521,-1004.81 521,-1004.81 521,-1000.98 524.83,-997.15 528.67,-997.15 528.67,-997.15 704.33,-997.15 704.33,-997.15 708.17,-997.15 712,-1000.98 712,-1004.81 712,-1004.81 712,-1012.48 712,-1012.48 712,-1016.31 708.17,-1020.15 704.33,-1020.15"/>
<text text-anchor="middle" x="616.5" y="-1004.95" font-family="Arial" font-size="14.00" fill="#cfffac">services/image&#45;converter.ts</text>
</g>
<!-- resources/inventory.r.ts&#45;&gt;services/image&#45;converter.ts -->
<g id="edge46" class="edge">
<title>resources/inventory.r.ts&#45;&gt;services/image&#45;converter.ts</title>
<path fill="none" stroke="#757575" d="M431.42,-1037.13C462.51,-1032.32 498.8,-1026.7 530.89,-1021.74"/>
<polygon fill="#757575" stroke="#757575" points="531.81,-1025.14 541.16,-1020.15 530.74,-1018.22 531.81,-1025.14"/>
</g>
<!-- resources/log.r.ts -->
<g id="node35" class="node">
<title>resources/log.r.ts</title>
<path fill="none" stroke="#cfffac" d="M159.83,-1316.15C159.83,-1316.15 48.17,-1316.15 48.17,-1316.15 44.33,-1316.15 40.5,-1312.31 40.5,-1308.48 40.5,-1308.48 40.5,-1300.81 40.5,-1300.81 40.5,-1296.98 44.33,-1293.15 48.17,-1293.15 48.17,-1293.15 159.83,-1293.15 159.83,-1293.15 163.67,-1293.15 167.5,-1296.98 167.5,-1300.81 167.5,-1300.81 167.5,-1308.48 167.5,-1308.48 167.5,-1312.31 163.67,-1316.15 159.83,-1316.15"/>
<text text-anchor="middle" x="104" y="-1300.95" font-family="Arial" font-size="14.00" fill="#cfffac">resources/log.r.ts</text>
</g>
<!-- resources/receiver.r.ts -->
<g id="node36" class="node">
<title>resources/receiver.r.ts</title>
<path fill="none" stroke="#c6c5fe" d="M427.33,-229.15C427.33,-229.15 284.67,-229.15 284.67,-229.15 280.83,-229.15 277,-225.31 277,-221.48 277,-221.48 277,-213.81 277,-213.81 277,-209.98 280.83,-206.15 284.67,-206.15 284.67,-206.15 427.33,-206.15 427.33,-206.15 431.17,-206.15 435,-209.98 435,-213.81 435,-213.81 435,-221.48 435,-221.48 435,-225.31 431.17,-229.15 427.33,-229.15"/>
<text text-anchor="middle" x="356" y="-213.95" font-family="Arial" font-size="14.00" fill="#c6c5fe">resources/receiver.r.ts</text>
</g>
<!-- resources/receiver.r.ts&#45;&gt;models/receiver&#45;data.ts -->
<g id="edge48" class="edge">
<title>resources/receiver.r.ts&#45;&gt;models/receiver&#45;data.ts</title>
<path fill="none" stroke="#757575" d="M369.11,-205.98C392.77,-184.01 447.77,-136.88 504,-116.65 664.38,-58.94 715.55,-82.65 886,-82.65 886,-82.65 886,-82.65 1405.5,-82.65 1520.62,-82.65 1653.25,-83.39 1739.42,-83.97"/>
<polygon fill="#757575" stroke="#757575" points="1739.41,-87.47 1749.43,-84.03 1739.45,-80.47 1739.41,-87.47"/>
</g>
<!-- resources/receiver.r.ts&#45;&gt;models/receiver.ts -->
<g id="edge50" class="edge">
<title>resources/receiver.r.ts&#45;&gt;models/receiver.ts</title>
<path fill="none" stroke="#757575" d="M409.34,-206.09C573.35,-171.99 1090.72,-80.33 1500,-182.65 1532.84,-190.86 1566.59,-210.67 1588.45,-225.29"/>
<polygon fill="#757575" stroke="#757575" points="1586.54,-228.23 1596.77,-231 1590.5,-222.46 1586.54,-228.23"/>
</g>
<!-- resources/receiver.r.ts&#45;&gt;models/receiver&#45;event.ts -->
<g id="edge49" class="edge">
<title>resources/receiver.r.ts&#45;&gt;models/receiver&#45;event.ts</title>
<path fill="none" stroke="#757575" d="M377.15,-206.13C404.78,-190.96 456.41,-164.79 504,-152.65 669.08,-110.5 715.63,-120.65 886,-120.65 886,-120.65 886,-120.65 1160,-120.65 1364.87,-120.65 1604.92,-123.01 1735.14,-124.48"/>
<polygon fill="#757575" stroke="#757575" points="1735.43,-127.99 1745.47,-124.6 1735.51,-120.99 1735.43,-127.99"/>
</g>
<!-- resources/receiver.r.ts&#45;&gt;util/log.ts -->
<g id="edge52" class="edge">
<title>resources/receiver.r.ts&#45;&gt;util/log.ts</title>
<path fill="none" stroke="#757575" d="M435.17,-225.71C511.05,-234.55 629.09,-251 729,-276.65 1162.14,-387.84 1661.73,-607.13 1796.19,-667.78"/>
<polygon fill="#757575" stroke="#757575" points="1795.04,-671.1 1805.59,-672.03 1797.92,-664.72 1795.04,-671.1"/>
</g>
<!-- resources/receiver.r.ts&#45;&gt;resources/frontend&#45;update.ts -->
<g id="edge51" class="edge">
<title>resources/receiver.r.ts&#45;&gt;resources/frontend&#45;update.ts</title>
<path fill="none" stroke="#757575" d="M365.9,-229.42C403.88,-279.67 552.7,-476.56 600.58,-539.9"/>
<polygon fill="#757575" stroke="#757575" points="597.82,-542.06 606.64,-547.92 603.4,-537.83 597.82,-542.06"/>
</g>
<!-- resources/sender.r.ts -->
<g id="node37" class="node">
<title>resources/sender.r.ts</title>
<path fill="none" stroke="#c6c5fe" d="M424.33,-826.15C424.33,-826.15 287.67,-826.15 287.67,-826.15 283.83,-826.15 280,-822.31 280,-818.48 280,-818.48 280,-810.81 280,-810.81 280,-806.98 283.83,-803.15 287.67,-803.15 287.67,-803.15 424.33,-803.15 424.33,-803.15 428.17,-803.15 432,-806.98 432,-810.81 432,-810.81 432,-818.48 432,-818.48 432,-822.31 428.17,-826.15 424.33,-826.15"/>
<text text-anchor="middle" x="356" y="-810.95" font-family="Arial" font-size="14.00" fill="#c6c5fe">resources/sender.r.ts</text>
</g>
<!-- resources/sender.r.ts&#45;&gt;models/battery.ts -->
<g id="edge53" class="edge">
<title>resources/sender.r.ts&#45;&gt;models/battery.ts</title>
<path fill="none" stroke="#757575" d="M369.93,-826.36C394.1,-847.37 448.73,-890.78 504,-906.65 719.73,-968.59 787.04,-939.93 1009,-906.65 1130.37,-888.44 1181.33,-907.25 1273,-825.65 1302.73,-799.18 1278.12,-768.76 1309,-743.65 1315.81,-738.11 1323.78,-734 1332.15,-730.97"/>
<polygon fill="#757575" stroke="#757575" points="1333.23,-734.3 1341.74,-727.98 1331.15,-727.61 1333.23,-734.3"/>
</g>
<!-- resources/sender.r.ts&#45;&gt;models/transformation.ts -->
<g id="edge57" class="edge">
<title>resources/sender.r.ts&#45;&gt;models/transformation.ts</title>
<path fill="none" stroke="#757575" d="M432.15,-809.62C513.98,-804.41 648.72,-796.64 765,-793.65 873.41,-790.86 907.63,-755.11 1009,-793.65 1029.01,-801.25 1024.99,-818.04 1045,-825.65 1139.51,-861.58 1412.72,-876.69 1500,-825.65 1528.17,-809.17 1517.4,-788.46 1536,-761.65 1629.5,-626.83 1764.05,-481.83 1812.63,-430.75"/>
<polygon fill="#757575" stroke="#757575" points="1815.3,-433.03 1819.67,-423.38 1810.24,-428.19 1815.3,-433.03"/>
</g>
<!-- resources/sender.r.ts&#45;&gt;models/event.ts -->
<g id="edge54" class="edge">
<title>resources/sender.r.ts&#45;&gt;models/event.ts</title>
<path fill="none" stroke="#757575" d="M382.62,-826.24C411.44,-838.6 459.98,-857.36 504,-864.65 614.72,-882.96 914.76,-925.58 1009,-864.65 1041.74,-843.48 1014.22,-808.58 1045,-784.65 1126.22,-721.5 1183.61,-795.58 1273,-744.65 1294.36,-732.47 1290.36,-718.67 1309,-702.65 1328.28,-686.07 1352.69,-670.95 1371.86,-660.17"/>
<polygon fill="#757575" stroke="#757575" points="1373.74,-663.13 1380.81,-655.24 1370.37,-657 1373.74,-663.13"/>
</g>
<!-- resources/sender.r.ts&#45;&gt;util/log.ts -->
<g id="edge61" class="edge">
<title>resources/sender.r.ts&#45;&gt;util/log.ts</title>
<path fill="none" stroke="#757575" d="M366.63,-826.3C388.25,-851.6 443.54,-911.56 504,-939.65 537.41,-955.17 1121.17,-1048.65 1158,-1048.65 1158,-1048.65 1158,-1048.65 1405.5,-1048.65 1488.75,-1048.65 1655.95,-872.88 1691,-817.65 1720.38,-771.35 1685.55,-735.54 1727,-699.65 1742.88,-685.9 1765.47,-681.27 1785.54,-680.35"/>
<polygon fill="#757575" stroke="#757575" points="1785.82,-683.84 1795.76,-680.17 1785.7,-676.84 1785.82,-683.84"/>
</g>
<!-- resources/sender.r.ts&#45;&gt;models/sender.ts -->
<g id="edge55" class="edge">
<title>resources/sender.r.ts&#45;&gt;models/sender.ts</title>
<path fill="none" stroke="#757575" d="M383.6,-803.12C412.67,-790.94 460.87,-771.96 504,-760.65 723.94,-702.96 790.5,-741.59 1009,-678.65 1050.89,-666.58 1096.75,-645.99 1126.37,-631.64"/>
<polygon fill="#757575" stroke="#757575" points="1127.95,-634.77 1135.39,-627.22 1124.87,-628.48 1127.95,-634.77"/>
</g>
<!-- resources/sender.r.ts&#45;&gt;models/timer.ts -->
<g id="edge56" class="edge">
<title>resources/sender.r.ts&#45;&gt;models/timer.ts</title>
<path fill="none" stroke="#757575" d="M375.06,-803.01C402.76,-785.18 457.39,-750.1 504,-720.65 507.61,-718.36 760.98,-559.1 765,-557.65 867.93,-520.5 901.53,-545.28 1009,-524.65 1025.2,-521.54 1028.96,-519.49 1045,-515.65 1061.94,-511.58 1080.33,-507.29 1097.27,-503.4"/>
<polygon fill="#757575" stroke="#757575" points="1098.08,-506.8 1107.04,-501.16 1096.52,-499.98 1098.08,-506.8"/>
</g>
<!-- resources/sender.r.ts&#45;&gt;resources/frontend&#45;update.ts -->
<g id="edge58" class="edge">
<title>resources/sender.r.ts&#45;&gt;resources/frontend&#45;update.ts</title>
<path fill="none" stroke="#757575" d="M360.9,-802.88C374.17,-764.8 421.4,-643.94 504,-585.65 509.97,-581.43 516.53,-577.89 523.38,-574.92"/>
<polygon fill="#757575" stroke="#757575" points="524.84,-578.1 532.88,-571.2 522.29,-571.58 524.84,-578.1"/>
</g>
<!-- resources/sender.r.ts&#45;&gt;services/sender&#45;loader.ts -->
<g id="edge59" class="edge">
<title>resources/sender.r.ts&#45;&gt;services/sender&#45;loader.ts</title>
<path fill="none" stroke="#757575" d="M432.23,-814.65C525.68,-814.65 685.31,-814.65 788.17,-814.65"/>
<polygon fill="#757575" stroke="#757575" points="788.26,-818.15 798.26,-814.65 788.26,-811.15 788.26,-818.15"/>
</g>
<!-- services/sender&#45;trigger&#45;service.ts -->
<g id="node38" class="node">
<title>services/sender&#45;trigger&#45;service.ts</title>
<path fill="none" stroke="#cfffac" d="M1265.33,-736.15C1265.33,-736.15 1052.67,-736.15 1052.67,-736.15 1048.83,-736.15 1045,-732.31 1045,-728.48 1045,-728.48 1045,-720.81 1045,-720.81 1045,-716.98 1048.83,-713.15 1052.67,-713.15 1052.67,-713.15 1265.33,-713.15 1265.33,-713.15 1269.17,-713.15 1273,-716.98 1273,-720.81 1273,-720.81 1273,-728.48 1273,-728.48 1273,-732.31 1269.17,-736.15 1265.33,-736.15"/>
<text text-anchor="middle" x="1159" y="-720.95" font-family="Arial" font-size="14.00" fill="#cfffac">services/sender&#45;trigger&#45;service.ts</text>
</g>
<!-- resources/sender.r.ts&#45;&gt;services/sender&#45;trigger&#45;service.ts -->
<g id="edge60" class="edge">
<title>resources/sender.r.ts&#45;&gt;services/sender&#45;trigger&#45;service.ts</title>
<path fill="none" stroke="#757575" d="M424.18,-826.15C570.92,-849.8 914.5,-896.66 1009,-834.65 1042.62,-812.58 1014.2,-777.49 1045,-751.65 1050.24,-747.25 1056.08,-743.54 1062.26,-740.42"/>
<polygon fill="#757575" stroke="#757575" points="1063.85,-743.54 1071.54,-736.25 1060.99,-737.16 1063.85,-743.54"/>
</g>
<!-- resources/transformation.r.ts -->
<g id="node39" class="node">
<title>resources/transformation.r.ts</title>
<path fill="none" stroke="#cfffac" d="M194.83,-1357.15C194.83,-1357.15 13.17,-1357.15 13.17,-1357.15 9.33,-1357.15 5.5,-1353.31 5.5,-1349.48 5.5,-1349.48 5.5,-1341.81 5.5,-1341.81 5.5,-1337.98 9.33,-1334.15 13.17,-1334.15 13.17,-1334.15 194.83,-1334.15 194.83,-1334.15 198.67,-1334.15 202.5,-1337.98 202.5,-1341.81 202.5,-1341.81 202.5,-1349.48 202.5,-1349.48 202.5,-1353.31 198.67,-1357.15 194.83,-1357.15"/>
<text text-anchor="middle" x="104" y="-1341.95" font-family="Arial" font-size="14.00" fill="#cfffac">resources/transformation.r.ts</text>
</g>
<!-- resources/wiring.r.ts -->
<g id="node40" class="node">
<title>resources/wiring.r.ts</title>
<path fill="none" stroke="#cfffac" d="M167.83,-1398.15C167.83,-1398.15 40.17,-1398.15 40.17,-1398.15 36.33,-1398.15 32.5,-1394.31 32.5,-1390.48 32.5,-1390.48 32.5,-1382.81 32.5,-1382.81 32.5,-1378.98 36.33,-1375.15 40.17,-1375.15 40.17,-1375.15 167.83,-1375.15 167.83,-1375.15 171.67,-1375.15 175.5,-1378.98 175.5,-1382.81 175.5,-1382.81 175.5,-1390.48 175.5,-1390.48 175.5,-1394.31 171.67,-1398.15 167.83,-1398.15"/>
<text text-anchor="middle" x="104" y="-1382.95" font-family="Arial" font-size="14.00" fill="#cfffac">resources/wiring.r.ts</text>
</g>
<!-- services/connection&#45;service.ts -->
<g id="node41" class="node">
<title>services/connection&#45;service.ts</title>
<path fill="none" stroke="#c6c5fe" d="M200.33,-189.15C200.33,-189.15 7.67,-189.15 7.67,-189.15 3.83,-189.15 0,-185.31 0,-181.48 0,-181.48 0,-173.81 0,-173.81 0,-169.98 3.83,-166.15 7.67,-166.15 7.67,-166.15 200.33,-166.15 200.33,-166.15 204.17,-166.15 208,-169.98 208,-173.81 208,-173.81 208,-181.48 208,-181.48 208,-185.31 204.17,-189.15 200.33,-189.15"/>
<text text-anchor="middle" x="104" y="-173.95" font-family="Arial" font-size="14.00" fill="#c6c5fe">services/connection&#45;service.ts</text>
</g>
<!-- services/connection&#45;service.ts&#45;&gt;models/connection&#45;response.ts -->
<g id="edge66" class="edge">
<title>services/connection&#45;service.ts&#45;&gt;models/connection&#45;response.ts</title>
<path fill="none" stroke="#757575" d="M114.31,-165.96C134.78,-141.21 186.47,-83.63 244,-57.65 395.88,10.97 448.84,-6.65 615.5,-6.65 615.5,-6.65 615.5,-6.65 1833,-6.65 1998.07,-6.65 2061.41,26.02 2200,-63.65 2275.77,-112.67 2319.91,-217.58 2336,-262.51"/>
<polygon fill="#757575" stroke="#757575" points="2332.74,-263.8 2339.33,-272.1 2339.35,-261.5 2332.74,-263.8"/>
</g>
<!-- services/connection&#45;service.ts&#45;&gt;models/connection.ts -->
<g id="edge67" class="edge">
<title>services/connection&#45;service.ts&#45;&gt;models/connection.ts</title>
<path fill="none" stroke="#757575" d="M126.97,-189.26C153.84,-202.94 201.03,-225.37 244,-237.65 356.36,-269.73 388.41,-259.56 504,-276.65 803.03,-320.85 1158.15,-372.24 1318.02,-395.32"/>
<polygon fill="#757575" stroke="#757575" points="1317.86,-398.83 1328.26,-396.8 1318.86,-391.91 1317.86,-398.83"/>
</g>
<!-- services/connection&#45;service.ts&#45;&gt;models/receiver&#45;data.ts -->
<g id="edge68" class="edge">
<title>services/connection&#45;service.ts&#45;&gt;models/receiver&#45;data.ts</title>
<path fill="none" stroke="#757575" d="M130.42,-166.08C203.91,-133.72 423.63,-44.65 615.5,-44.65 615.5,-44.65 615.5,-44.65 1405.5,-44.65 1523.44,-44.65 1658.97,-60.07 1744.77,-71.76"/>
<polygon fill="#757575" stroke="#757575" points="1744.34,-75.23 1754.72,-73.13 1745.29,-68.3 1744.34,-75.23"/>
</g>
<!-- services/connection&#45;service.ts&#45;&gt;models/transformation.ts -->
<g id="edge69" class="edge">
<title>services/connection&#45;service.ts&#45;&gt;models/transformation.ts</title>
<path fill="none" stroke="#757575" d="M208.04,-180.82C280.79,-183.6 380.5,-188.5 468,-196.65 970.02,-243.37 1567.84,-358.58 1764.62,-398.09"/>
<polygon fill="#757575" stroke="#757575" points="1764.03,-401.54 1774.52,-400.08 1765.41,-394.68 1764.03,-401.54"/>
</g>
<!-- services/timer&#45;factory.ts -->
<g id="node42" class="node">
<title>services/timer&#45;factory.ts</title>
<path fill="none" stroke="#c6c5fe" d="M431.83,-476.15C431.83,-476.15 280.17,-476.15 280.17,-476.15 276.33,-476.15 272.5,-472.31 272.5,-468.48 272.5,-468.48 272.5,-460.81 272.5,-460.81 272.5,-456.98 276.33,-453.15 280.17,-453.15 280.17,-453.15 431.83,-453.15 431.83,-453.15 435.67,-453.15 439.5,-456.98 439.5,-460.81 439.5,-460.81 439.5,-468.48 439.5,-468.48 439.5,-472.31 435.67,-476.15 431.83,-476.15"/>
<text text-anchor="middle" x="356" y="-460.95" font-family="Arial" font-size="14.00" fill="#c6c5fe">services/timer&#45;factory.ts</text>
</g>
<!-- services/connection&#45;service.ts&#45;&gt;services/timer&#45;factory.ts -->
<g id="edge70" class="edge">
<title>services/connection&#45;service.ts&#45;&gt;services/timer&#45;factory.ts</title>
<path fill="none" stroke="#757575" d="M107.31,-189.3C116.29,-231.33 152.97,-376.14 244,-443.65 249.66,-447.84 255.92,-451.28 262.5,-454.08"/>
<polygon fill="#757575" stroke="#757575" points="261.74,-457.53 272.34,-457.75 264.19,-450.97 261.74,-457.53"/>
</g>
<!-- services/timer&#45;factory.ts&#45;&gt;models/connection&#45;response.ts -->
<g id="edge80" class="edge">
<title>services/timer&#45;factory.ts&#45;&gt;models/connection&#45;response.ts</title>
<path fill="none" stroke="#757575" d="M439.84,-455.9C632.19,-435.74 1124.1,-385.13 1536,-350.65 1830.82,-325.96 1905.77,-334.6 2200,-303.65 2218.7,-301.68 2238.72,-299.15 2257.68,-296.55"/>
<polygon fill="#757575" stroke="#757575" points="2258.37,-299.99 2267.79,-295.15 2257.4,-293.06 2258.37,-299.99"/>
</g>
<!-- services/timer&#45;factory.ts&#45;&gt;models/timer.ts -->
<g id="edge81" class="edge">
<title>services/timer&#45;factory.ts&#45;&gt;models/timer.ts</title>
<path fill="none" stroke="#757575" d="M439.7,-467.23C599.16,-472.2 946.2,-483.03 1091.7,-487.58"/>
<polygon fill="#757575" stroke="#757575" points="1091.72,-491.08 1101.83,-487.89 1091.94,-484.08 1091.72,-491.08"/>
</g>
<!-- services/timer&#45;factory.ts&#45;&gt;resources/frontend&#45;update.ts -->
<g id="edge82" class="edge">
<title>services/timer&#45;factory.ts&#45;&gt;resources/frontend&#45;update.ts</title>
<path fill="none" stroke="#757575" d="M378.32,-476.4C406.4,-491.47 457.66,-517.57 504,-533.65 517.22,-538.23 531.61,-542.26 545.51,-545.7"/>
<polygon fill="#757575" stroke="#757575" points="544.99,-549.17 555.53,-548.09 546.62,-542.36 544.99,-549.17"/>
</g>
<!-- services/event&#45;scheduler.ts -->
<g id="node43" class="node">
<title>services/event&#45;scheduler.ts</title>
<path fill="none" stroke="#c6c5fe" d="M974.33,-670.15C974.33,-670.15 799.67,-670.15 799.67,-670.15 795.83,-670.15 792,-666.31 792,-662.48 792,-662.48 792,-654.81 792,-654.81 792,-650.98 795.83,-647.15 799.67,-647.15 799.67,-647.15 974.33,-647.15 974.33,-647.15 978.17,-647.15 982,-650.98 982,-654.81 982,-654.81 982,-662.48 982,-662.48 982,-666.31 978.17,-670.15 974.33,-670.15"/>
<text text-anchor="middle" x="887" y="-654.95" font-family="Arial" font-size="14.00" fill="#c6c5fe">services/event&#45;scheduler.ts</text>
</g>
<!-- services/event&#45;scheduler.ts&#45;&gt;models/connection.ts -->
<g id="edge71" class="edge">
<title>services/event&#45;scheduler.ts&#45;&gt;models/connection.ts</title>
<path fill="none" stroke="#757575" d="M912.55,-647.14C943.05,-633.19 996.97,-609.69 1045,-594.65 1144.09,-563.61 1195.94,-613.24 1273,-543.65 1310.55,-509.73 1272.63,-470.81 1309,-435.65 1313.96,-430.85 1319.7,-426.87 1325.85,-423.57"/>
<polygon fill="#757575" stroke="#757575" points="1327.57,-426.63 1335.12,-419.2 1324.58,-420.3 1327.57,-426.63"/>
</g>
<!-- services/event&#45;scheduler.ts&#45;&gt;util/log.ts -->
<g id="edge75" class="edge">
<title>services/event&#45;scheduler.ts&#45;&gt;util/log.ts</title>
<path fill="none" stroke="#757575" d="M982.3,-661.15C1181.62,-666.43 1639.39,-678.57 1785.38,-682.44"/>
<polygon fill="#757575" stroke="#757575" points="1785.65,-685.94 1795.74,-682.71 1785.84,-678.95 1785.65,-685.94"/>
</g>
<!-- services/event&#45;scheduler.ts&#45;&gt;models/sender.ts -->
<g id="edge72" class="edge">
<title>services/event&#45;scheduler.ts&#45;&gt;models/sender.ts</title>
<path fill="none" stroke="#757575" d="M960.36,-647.12C998.93,-640.98 1046.27,-633.44 1084.94,-627.28"/>
<polygon fill="#757575" stroke="#757575" points="1085.77,-630.69 1095.09,-625.66 1084.67,-623.78 1085.77,-630.69"/>
</g>
<!-- services/event&#45;scheduler.ts&#45;&gt;models/timer.ts -->
<g id="edge73" class="edge">
<title>services/event&#45;scheduler.ts&#45;&gt;models/timer.ts</title>
<path fill="none" stroke="#757575" d="M918.9,-647.14C944.5,-636.74 981.08,-619.84 1009,-598.65 1028.05,-584.19 1026.6,-573.93 1045,-558.65 1070.13,-537.77 1102.19,-518.81 1125.74,-506.07"/>
<polygon fill="#757575" stroke="#757575" points="1127.45,-509.12 1134.63,-501.33 1124.16,-502.94 1127.45,-509.12"/>
</g>
<!-- services/event&#45;scheduler.ts&#45;&gt;services/sender&#45;trigger&#45;service.ts -->
<g id="edge74" class="edge">
<title>services/event&#45;scheduler.ts&#45;&gt;services/sender&#45;trigger&#45;service.ts</title>
<path fill="none" stroke="#757575" d="M949.33,-670.15C968.57,-674.2 989.79,-679.14 1009,-684.65 1025.35,-689.33 1028.7,-692.77 1045,-697.65 1060.84,-702.38 1078.13,-706.85 1094.31,-710.75"/>
<polygon fill="#757575" stroke="#757575" points="1093.68,-714.19 1104.21,-713.09 1095.29,-707.38 1093.68,-714.19"/>
</g>
<!-- services/image&#45;converter.test.ts -->
<g id="node44" class="node">
<title>services/image&#45;converter.test.ts</title>
<path fill="none" stroke="#c6c5fe" d="M457.33,-1019.15C457.33,-1019.15 254.67,-1019.15 254.67,-1019.15 250.83,-1019.15 247,-1015.31 247,-1011.48 247,-1011.48 247,-1003.81 247,-1003.81 247,-999.98 250.83,-996.15 254.67,-996.15 254.67,-996.15 457.33,-996.15 457.33,-996.15 461.17,-996.15 465,-999.98 465,-1003.81 465,-1003.81 465,-1011.48 465,-1011.48 465,-1015.31 461.17,-1019.15 457.33,-1019.15"/>
<text text-anchor="middle" x="356" y="-1003.95" font-family="Arial" font-size="14.00" fill="#c6c5fe">services/image&#45;converter.test.ts</text>
</g>
<!-- services/image&#45;converter.test.ts&#45;&gt;services/image&#45;converter.ts -->
<g id="edge76" class="edge">
<title>services/image&#45;converter.test.ts&#45;&gt;services/image&#45;converter.ts</title>
<path fill="none" stroke="#757575" d="M465.13,-1008.06C480.19,-1008.12 495.65,-1008.18 510.65,-1008.24"/>
<polygon fill="#757575" stroke="#757575" points="510.94,-1011.74 520.95,-1008.28 510.97,-1004.74 510.94,-1011.74"/>
</g>
<!-- util/tsc&#45;compiler.ts&#45;&gt;util/log.ts -->
<g id="edge87" class="edge">
<title>util/tsc&#45;compiler.ts&#45;&gt;util/log.ts</title>
<path fill="none" stroke="#757575" d="M1216.71,-959.14C1234.83,-955.05 1254.88,-950.1 1273,-944.65 1376.16,-913.61 1401.79,-903.92 1500,-859.65 1615.22,-807.71 1746.1,-733.29 1802.58,-700.39"/>
<polygon fill="#757575" stroke="#757575" points="1804.44,-703.36 1811.31,-695.29 1800.91,-697.31 1804.44,-703.36"/>
</g>
<!-- util/file.ts -->
<g id="node49" class="node">
<title>util/file.ts</title>
<path fill="none" stroke="#cfffac" d="M1432.33,-982.15C1432.33,-982.15 1376.67,-982.15 1376.67,-982.15 1372.83,-982.15 1369,-978.31 1369,-974.48 1369,-974.48 1369,-966.81 1369,-966.81 1369,-962.98 1372.83,-959.15 1376.67,-959.15 1376.67,-959.15 1432.33,-959.15 1432.33,-959.15 1436.17,-959.15 1440,-962.98 1440,-966.81 1440,-966.81 1440,-974.48 1440,-974.48 1440,-978.31 1436.17,-982.15 1432.33,-982.15"/>
<text text-anchor="middle" x="1404.5" y="-966.95" font-family="Arial" font-size="14.00" fill="#cfffac">util/file.ts</text>
</g>
<!-- util/tsc&#45;compiler.ts&#45;&gt;util/file.ts -->
<g id="edge86" class="edge">
<title>util/tsc&#45;compiler.ts&#45;&gt;util/file.ts</title>
<path fill="none" stroke="#757575" d="M1224.61,-970.65C1266.86,-970.65 1320.97,-970.65 1358.56,-970.65"/>
<polygon fill="#757575" stroke="#757575" points="1358.7,-974.15 1368.7,-970.65 1358.7,-967.15 1358.7,-974.15"/>
</g>
<!-- services/tuya.spec.ts -->
<g id="node46" class="node">
<title>services/tuya.spec.ts</title>
<path fill="none" stroke="#c6c5fe" d="M170.83,-1439.15C170.83,-1439.15 37.17,-1439.15 37.17,-1439.15 33.33,-1439.15 29.5,-1435.31 29.5,-1431.48 29.5,-1431.48 29.5,-1423.81 29.5,-1423.81 29.5,-1419.98 33.33,-1416.15 37.17,-1416.15 37.17,-1416.15 170.83,-1416.15 170.83,-1416.15 174.67,-1416.15 178.5,-1419.98 178.5,-1423.81 178.5,-1423.81 178.5,-1431.48 178.5,-1431.48 178.5,-1435.31 174.67,-1439.15 170.83,-1439.15"/>
<text text-anchor="middle" x="104" y="-1423.95" font-family="Arial" font-size="14.00" fill="#c6c5fe">services/tuya.spec.ts</text>
</g>
<!-- services/tuya.ts -->
<g id="node47" class="node">
<title>services/tuya.ts</title>
<path fill="none" stroke="#cfffac" d="M405.33,-1439.15C405.33,-1439.15 306.67,-1439.15 306.67,-1439.15 302.83,-1439.15 299,-1435.31 299,-1431.48 299,-1431.48 299,-1423.81 299,-1423.81 299,-1419.98 302.83,-1416.15 306.67,-1416.15 306.67,-1416.15 405.33,-1416.15 405.33,-1416.15 409.17,-1416.15 413,-1419.98 413,-1423.81 413,-1423.81 413,-1431.48 413,-1431.48 413,-1435.31 409.17,-1439.15 405.33,-1439.15"/>
<text text-anchor="middle" x="356" y="-1423.95" font-family="Arial" font-size="14.00" fill="#cfffac">services/tuya.ts</text>
</g>
<!-- services/tuya.spec.ts&#45;&gt;services/tuya.ts -->
<g id="edge83" class="edge">
<title>services/tuya.spec.ts&#45;&gt;services/tuya.ts</title>
<path fill="none" stroke="#757575" d="M178.66,-1427.65C213.51,-1427.65 254.8,-1427.65 288.67,-1427.65"/>
<polygon fill="#757575" stroke="#757575" points="288.92,-1431.15 298.92,-1427.65 288.92,-1424.15 288.92,-1431.15"/>
</g>
</g>
</svg>
