<?xml version="1.0" encoding="UTF-8" standalone="no"?>
<!DOCTYPE svg PUBLIC "-//W3C//DTD SVG 1.1//EN"
 "http://www.w3.org/Graphics/SVG/1.1/DTD/svg11.dtd">
<!-- Generated by graphviz version 2.47.2 (20210527.0053)
 -->
<!-- Title: G Pages: 1 -->
<svg width="2795pt" height="1071pt"
 viewBox="0.00 0.00 2795.20 1071.39" xmlns="http://www.w3.org/2000/svg" xmlns:xlink="http://www.w3.org/1999/xlink">
<g id="graph0" class="graph" transform="scale(1 1) rotate(0) translate(21.6 1049.79)">
<title>G</title>
<polygon fill="#111111" stroke="transparent" points="-21.6,21.6 -21.6,-1049.79 2773.6,-1049.79 2773.6,21.6 -21.6,21.6"/>
<!-- models/battery.ts -->
<g id="node1" class="node">
<title>models/battery.ts</title>
<path fill="none" stroke="#cfffac" d="M1766.83,-704.12C1766.83,-704.12 1657.17,-704.12 1657.17,-704.12 1653.33,-704.12 1649.5,-700.28 1649.5,-696.45 1649.5,-696.45 1649.5,-688.78 1649.5,-688.78 1649.5,-684.95 1653.33,-681.12 1657.17,-681.12 1657.17,-681.12 1766.83,-681.12 1766.83,-681.12 1770.67,-681.12 1774.5,-684.95 1774.5,-688.78 1774.5,-688.78 1774.5,-696.45 1774.5,-696.45 1774.5,-700.28 1770.67,-704.12 1766.83,-704.12"/>
<text text-anchor="middle" x="1712" y="-688.92" font-family="Arial" font-size="14.00" fill="#cfffac">models/battery.ts</text>
</g>
<!-- models/connection&#45;response.d.ts -->
<g id="node2" class="node">
<title>models/connection&#45;response.d.ts</title>
<path fill="none" stroke="#cfffac" d="M2744.33,-386.12C2744.33,-386.12 2531.67,-386.12 2531.67,-386.12 2527.83,-386.12 2524,-382.28 2524,-378.45 2524,-378.45 2524,-370.78 2524,-370.78 2524,-366.95 2527.83,-363.12 2531.67,-363.12 2531.67,-363.12 2744.33,-363.12 2744.33,-363.12 2748.17,-363.12 2752,-366.95 2752,-370.78 2752,-370.78 2752,-378.45 2752,-378.45 2752,-382.28 2748.17,-386.12 2744.33,-386.12"/>
<text text-anchor="middle" x="2638" y="-370.92" font-family="Arial" font-size="14.00" fill="#cfffac">models/connection&#45;response.d.ts</text>
</g>
<!-- models/connection.ts -->
<g id="node3" class="node">
<title>models/connection.ts</title>
<path fill="none" stroke="#c6c5fe" d="M1780.33,-436.12C1780.33,-436.12 1643.67,-436.12 1643.67,-436.12 1639.83,-436.12 1636,-432.28 1636,-428.45 1636,-428.45 1636,-420.78 1636,-420.78 1636,-416.95 1639.83,-413.12 1643.67,-413.12 1643.67,-413.12 1780.33,-413.12 1780.33,-413.12 1784.17,-413.12 1788,-416.95 1788,-420.78 1788,-420.78 1788,-428.45 1788,-428.45 1788,-432.28 1784.17,-436.12 1780.33,-436.12"/>
<text text-anchor="middle" x="1712" y="-420.92" font-family="Arial" font-size="14.00" fill="#c6c5fe">models/connection.ts</text>
</g>
<!-- models/receiver&#45;data.ts -->
<g id="node4" class="node">
<title>models/receiver&#45;data.ts</title>
<path fill="none" stroke="#c6c5fe" d="M2194.83,-407.12C2194.83,-407.12 2045.17,-407.12 2045.17,-407.12 2041.33,-407.12 2037.5,-403.28 2037.5,-399.45 2037.5,-399.45 2037.5,-391.78 2037.5,-391.78 2037.5,-387.95 2041.33,-384.12 2045.17,-384.12 2045.17,-384.12 2194.83,-384.12 2194.83,-384.12 2198.67,-384.12 2202.5,-387.95 2202.5,-391.78 2202.5,-391.78 2202.5,-399.45 2202.5,-399.45 2202.5,-403.28 2198.67,-407.12 2194.83,-407.12"/>
<text text-anchor="middle" x="2120" y="-391.92" font-family="Arial" font-size="14.00" fill="#c6c5fe">models/receiver&#45;data.ts</text>
</g>
<!-- models/connection.ts&#45;&gt;models/receiver&#45;data.ts -->
<g id="edge1" class="edge">
<title>models/connection.ts&#45;&gt;models/receiver&#45;data.ts</title>
<path fill="none" stroke="#757575" d="M1788.16,-421.25C1841.47,-418.65 1914.67,-414.65 1979,-409.62 1994.48,-408.41 2010.91,-406.93 2026.86,-405.4"/>
<polygon fill="#757575" stroke="#757575" points="2027.64,-408.85 2037.25,-404.39 2026.96,-401.88 2027.64,-408.85"/>
</g>
<!-- models/receiver.ts -->
<g id="node5" class="node">
<title>models/receiver.ts</title>
<path fill="none" stroke="#c6c5fe" d="M1960.83,-486.12C1960.83,-486.12 1842.17,-486.12 1842.17,-486.12 1838.33,-486.12 1834.5,-482.28 1834.5,-478.45 1834.5,-478.45 1834.5,-470.78 1834.5,-470.78 1834.5,-466.95 1838.33,-463.12 1842.17,-463.12 1842.17,-463.12 1960.83,-463.12 1960.83,-463.12 1964.67,-463.12 1968.5,-466.95 1968.5,-470.78 1968.5,-470.78 1968.5,-478.45 1968.5,-478.45 1968.5,-482.28 1964.67,-486.12 1960.83,-486.12"/>
<text text-anchor="middle" x="1901.5" y="-470.92" font-family="Arial" font-size="14.00" fill="#c6c5fe">models/receiver.ts</text>
</g>
<!-- models/connection.ts&#45;&gt;models/receiver.ts -->
<g id="edge2" class="edge">
<title>models/connection.ts&#45;&gt;models/receiver.ts</title>
<path fill="none" stroke="#757575" d="M1756.49,-436.21C1783.58,-443.44 1818.63,-452.79 1847.37,-460.45"/>
<polygon fill="#757575" stroke="#757575" points="1846.68,-463.89 1857.25,-463.08 1848.49,-457.12 1846.68,-463.89"/>
</g>
<!-- models/transformation.ts -->
<g id="node6" class="node">
<title>models/transformation.ts</title>
<path fill="none" stroke="#cfffac" d="M2198.83,-232.12C2198.83,-232.12 2041.17,-232.12 2041.17,-232.12 2037.33,-232.12 2033.5,-228.28 2033.5,-224.45 2033.5,-224.45 2033.5,-216.78 2033.5,-216.78 2033.5,-212.95 2037.33,-209.12 2041.17,-209.12 2041.17,-209.12 2198.83,-209.12 2198.83,-209.12 2202.67,-209.12 2206.5,-212.95 2206.5,-216.78 2206.5,-216.78 2206.5,-224.45 2206.5,-224.45 2206.5,-228.28 2202.67,-232.12 2198.83,-232.12"/>
<text text-anchor="middle" x="2120" y="-216.92" font-family="Arial" font-size="14.00" fill="#cfffac">models/transformation.ts</text>
</g>
<!-- models/connection.ts&#45;&gt;models/transformation.ts -->
<g id="edge3" class="edge">
<title>models/connection.ts&#45;&gt;models/transformation.ts</title>
<path fill="none" stroke="#757575" d="M1762.91,-413.03C1771.89,-409.41 1780.7,-404.71 1788,-398.62 1813.04,-377.69 1799.33,-355.98 1824,-334.62 1861.96,-301.75 1996.26,-257.66 2069.86,-235.16"/>
<polygon fill="#757575" stroke="#757575" points="2071.28,-238.38 2079.83,-232.13 2069.24,-231.69 2071.28,-238.38"/>
</g>
<!-- models/transformer.ts -->
<g id="node7" class="node">
<title>models/transformer.ts</title>
<path fill="none" stroke="#c6c5fe" d="M1971.33,-367.12C1971.33,-367.12 1831.67,-367.12 1831.67,-367.12 1827.83,-367.12 1824,-363.28 1824,-359.45 1824,-359.45 1824,-351.78 1824,-351.78 1824,-347.95 1827.83,-344.12 1831.67,-344.12 1831.67,-344.12 1971.33,-344.12 1971.33,-344.12 1975.17,-344.12 1979,-347.95 1979,-351.78 1979,-351.78 1979,-359.45 1979,-359.45 1979,-363.28 1975.17,-367.12 1971.33,-367.12"/>
<text text-anchor="middle" x="1901.5" y="-351.92" font-family="Arial" font-size="14.00" fill="#c6c5fe">models/transformer.ts</text>
</g>
<!-- models/connection.ts&#45;&gt;models/transformer.ts -->
<g id="edge4" class="edge">
<title>models/connection.ts&#45;&gt;models/transformer.ts</title>
<path fill="none" stroke="#757575" d="M1747.06,-413.06C1759.92,-408.63 1774.66,-403.48 1788,-398.62 1812.53,-389.68 1839.9,-379.23 1861.5,-370.87"/>
<polygon fill="#757575" stroke="#757575" points="1862.93,-374.07 1870.99,-367.19 1860.4,-367.54 1862.93,-374.07"/>
</g>
<!-- models/receiver&#45;data.ts&#45;&gt;models/connection&#45;response.d.ts -->
<g id="edge6" class="edge">
<title>models/receiver&#45;data.ts&#45;&gt;models/connection&#45;response.d.ts</title>
<path fill="none" stroke="#757575" d="M2202.76,-392.29C2286.47,-388.88 2417.6,-383.55 2513.87,-379.63"/>
<polygon fill="#757575" stroke="#757575" points="2514.11,-383.12 2523.96,-379.22 2513.82,-376.13 2514.11,-383.12"/>
</g>
<!-- models/evaluated&#45;data.ts -->
<g id="node8" class="node">
<title>models/evaluated&#45;data.ts</title>
<path fill="none" stroke="#c6c5fe" d="M2454.33,-445.12C2454.33,-445.12 2294.67,-445.12 2294.67,-445.12 2290.83,-445.12 2287,-441.28 2287,-437.45 2287,-437.45 2287,-429.78 2287,-429.78 2287,-425.95 2290.83,-422.12 2294.67,-422.12 2294.67,-422.12 2454.33,-422.12 2454.33,-422.12 2458.17,-422.12 2462,-425.95 2462,-429.78 2462,-429.78 2462,-437.45 2462,-437.45 2462,-441.28 2458.17,-445.12 2454.33,-445.12"/>
<text text-anchor="middle" x="2374.5" y="-429.92" font-family="Arial" font-size="14.00" fill="#c6c5fe">models/evaluated&#45;data.ts</text>
</g>
<!-- models/receiver&#45;data.ts&#45;&gt;models/evaluated&#45;data.ts -->
<g id="edge7" class="edge">
<title>models/receiver&#45;data.ts&#45;&gt;models/evaluated&#45;data.ts</title>
<path fill="none" stroke="#757575" d="M2197.44,-407.12C2225.62,-411.36 2257.74,-416.2 2286.76,-420.56"/>
<polygon fill="#757575" stroke="#757575" points="2286.47,-424.06 2296.88,-422.09 2287.51,-417.14 2286.47,-424.06"/>
</g>
<!-- models/sound.ts -->
<g id="node10" class="node">
<title>models/sound.ts</title>
<path fill="none" stroke="#cfffac" d="M2427.83,-573.12C2427.83,-573.12 2321.17,-573.12 2321.17,-573.12 2317.33,-573.12 2313.5,-569.28 2313.5,-565.45 2313.5,-565.45 2313.5,-557.78 2313.5,-557.78 2313.5,-553.95 2317.33,-550.12 2321.17,-550.12 2321.17,-550.12 2427.83,-550.12 2427.83,-550.12 2431.67,-550.12 2435.5,-553.95 2435.5,-557.78 2435.5,-557.78 2435.5,-565.45 2435.5,-565.45 2435.5,-569.28 2431.67,-573.12 2427.83,-573.12"/>
<text text-anchor="middle" x="2374.5" y="-557.92" font-family="Arial" font-size="14.00" fill="#cfffac">models/sound.ts</text>
</g>
<!-- models/receiver&#45;data.ts&#45;&gt;models/sound.ts -->
<g id="edge8" class="edge">
<title>models/receiver&#45;data.ts&#45;&gt;models/sound.ts</title>
<path fill="none" stroke="#757575" d="M2150.13,-407.17C2172.6,-417.17 2203.39,-433.37 2225,-454.62 2247.45,-476.69 2237.19,-495.03 2261,-515.62 2277.04,-529.49 2297.83,-539.56 2317.17,-546.67"/>
<polygon fill="#757575" stroke="#757575" points="2316.22,-550.05 2326.81,-550.03 2318.52,-543.44 2316.22,-550.05"/>
</g>
<!-- models/receiver.ts&#45;&gt;models/receiver&#45;data.ts -->
<g id="edge10" class="edge">
<title>models/receiver.ts&#45;&gt;models/receiver&#45;data.ts</title>
<path fill="none" stroke="#757575" d="M1941.93,-463.11C1954.13,-458.92 1967.4,-453.69 1979,-447.62 1996.48,-438.46 1997.1,-429.94 2015,-421.62 2024.88,-417.02 2035.69,-413.17 2046.48,-409.96"/>
<polygon fill="#757575" stroke="#757575" points="2047.67,-413.26 2056.35,-407.19 2045.78,-406.52 2047.67,-413.26"/>
</g>
<!-- models/receiver.ts&#45;&gt;models/evaluated&#45;data.ts -->
<g id="edge9" class="edge">
<title>models/receiver.ts&#45;&gt;models/evaluated&#45;data.ts</title>
<path fill="none" stroke="#757575" d="M1959.83,-463.09C1977.46,-459.9 1996.97,-456.74 2015,-454.62 2103.26,-444.22 2204.38,-438.89 2276.68,-436.21"/>
<polygon fill="#757575" stroke="#757575" points="2276.82,-439.71 2286.68,-435.85 2276.56,-432.71 2276.82,-439.71"/>
</g>
<!-- services/firebasemessaging.ts -->
<g id="node11" class="node">
<title>services/firebasemessaging.ts</title>
<path fill="none" stroke="#cfffac" d="M2217.33,-487.12C2217.33,-487.12 2022.67,-487.12 2022.67,-487.12 2018.83,-487.12 2015,-483.28 2015,-479.45 2015,-479.45 2015,-471.78 2015,-471.78 2015,-467.95 2018.83,-464.12 2022.67,-464.12 2022.67,-464.12 2217.33,-464.12 2217.33,-464.12 2221.17,-464.12 2225,-467.95 2225,-471.78 2225,-471.78 2225,-479.45 2225,-479.45 2225,-483.28 2221.17,-487.12 2217.33,-487.12"/>
<text text-anchor="middle" x="2120" y="-471.92" font-family="Arial" font-size="14.00" fill="#cfffac">services/firebasemessaging.ts</text>
</g>
<!-- models/receiver.ts&#45;&gt;services/firebasemessaging.ts -->
<g id="edge11" class="edge">
<title>models/receiver.ts&#45;&gt;services/firebasemessaging.ts</title>
<path fill="none" stroke="#757575" d="M1968.63,-474.92C1980.1,-474.98 1992.31,-475.03 2004.62,-475.09"/>
<polygon fill="#757575" stroke="#757575" points="2004.96,-478.59 2014.98,-475.14 2005,-471.59 2004.96,-478.59"/>
</g>
<!-- services/websocketmessaging.ts -->
<g id="node12" class="node">
<title>services/websocketmessaging.ts</title>
<path fill="none" stroke="#c6c5fe" d="M2480.33,-507.12C2480.33,-507.12 2268.67,-507.12 2268.67,-507.12 2264.83,-507.12 2261,-503.28 2261,-499.45 2261,-499.45 2261,-491.78 2261,-491.78 2261,-487.95 2264.83,-484.12 2268.67,-484.12 2268.67,-484.12 2480.33,-484.12 2480.33,-484.12 2484.17,-484.12 2488,-487.95 2488,-491.78 2488,-491.78 2488,-499.45 2488,-499.45 2488,-503.28 2484.17,-507.12 2480.33,-507.12"/>
<text text-anchor="middle" x="2374.5" y="-491.92" font-family="Arial" font-size="14.00" fill="#c6c5fe">services/websocketmessaging.ts</text>
</g>
<!-- models/receiver.ts&#45;&gt;services/websocketmessaging.ts -->
<g id="edge12" class="edge">
<title>models/receiver.ts&#45;&gt;services/websocketmessaging.ts</title>
<path fill="none" stroke="#757575" d="M1953.18,-486.13C1972.43,-489.96 1994.62,-493.73 2015,-495.62 2093.12,-502.85 2181.23,-502.96 2250.54,-501.21"/>
<polygon fill="#757575" stroke="#757575" points="2250.73,-504.7 2260.63,-500.93 2250.54,-497.7 2250.73,-504.7"/>
</g>
<!-- util/log.ts -->
<g id="node13" class="node">
<title>util/log.ts</title>
<path fill="none" stroke="#c6c5fe" d="M2148.33,-898.12C2148.33,-898.12 2091.67,-898.12 2091.67,-898.12 2087.83,-898.12 2084,-894.28 2084,-890.45 2084,-890.45 2084,-882.78 2084,-882.78 2084,-878.95 2087.83,-875.12 2091.67,-875.12 2091.67,-875.12 2148.33,-875.12 2148.33,-875.12 2152.17,-875.12 2156,-878.95 2156,-882.78 2156,-882.78 2156,-890.45 2156,-890.45 2156,-894.28 2152.17,-898.12 2148.33,-898.12"/>
<text text-anchor="middle" x="2120" y="-882.92" font-family="Arial" font-size="14.00" fill="#c6c5fe">util/log.ts</text>
</g>
<!-- models/receiver.ts&#45;&gt;util/log.ts -->
<g id="edge13" class="edge">
<title>models/receiver.ts&#45;&gt;util/log.ts</title>
<path fill="none" stroke="#757575" d="M1908.75,-486.5C1938.87,-543.84 2069.32,-792.08 2108.09,-865.86"/>
<polygon fill="#757575" stroke="#757575" points="2105.19,-867.85 2112.94,-875.08 2111.38,-864.6 2105.19,-867.85"/>
</g>
<!-- models/transformer.ts&#45;&gt;models/connection&#45;response.d.ts -->
<g id="edge21" class="edge">
<title>models/transformer.ts&#45;&gt;models/connection&#45;response.d.ts</title>
<path fill="none" stroke="#757575" d="M1979.03,-357.6C2105.9,-360.88 2360.93,-367.48 2513.54,-371.42"/>
<polygon fill="#757575" stroke="#757575" points="2513.81,-374.93 2523.89,-371.69 2513.99,-367.93 2513.81,-374.93"/>
</g>
<!-- models/transformer.ts&#45;&gt;models/transformation.ts -->
<g id="edge22" class="edge">
<title>models/transformer.ts&#45;&gt;models/transformation.ts</title>
<path fill="none" stroke="#757575" d="M1920.96,-344.11C1959.13,-320.31 2046.91,-265.57 2091.67,-237.66"/>
<polygon fill="#757575" stroke="#757575" points="2093.65,-240.55 2100.28,-232.29 2089.94,-234.61 2093.65,-240.55"/>
</g>
<!-- models/evaluated&#45;data.ts&#45;&gt;models/connection&#45;response.d.ts -->
<g id="edge5" class="edge">
<title>models/evaluated&#45;data.ts&#45;&gt;models/connection&#45;response.d.ts</title>
<path fill="none" stroke="#757575" d="M2426.54,-422.1C2469.24,-412.47 2530.28,-398.7 2575.63,-388.46"/>
<polygon fill="#757575" stroke="#757575" points="2576.66,-391.82 2585.64,-386.2 2575.12,-384.99 2576.66,-391.82"/>
</g>
<!-- models/event.ts -->
<g id="node9" class="node">
<title>models/event.ts</title>
<path fill="none" stroke="#cfffac" d="M1762.83,-745.12C1762.83,-745.12 1661.17,-745.12 1661.17,-745.12 1657.33,-745.12 1653.5,-741.28 1653.5,-737.45 1653.5,-737.45 1653.5,-729.78 1653.5,-729.78 1653.5,-725.95 1657.33,-722.12 1661.17,-722.12 1661.17,-722.12 1762.83,-722.12 1762.83,-722.12 1766.67,-722.12 1770.5,-725.95 1770.5,-729.78 1770.5,-729.78 1770.5,-737.45 1770.5,-737.45 1770.5,-741.28 1766.67,-745.12 1762.83,-745.12"/>
<text text-anchor="middle" x="1712" y="-729.92" font-family="Arial" font-size="14.00" fill="#cfffac">models/event.ts</text>
</g>
<!-- services/websocketmessaging.ts&#45;&gt;models/connection&#45;response.d.ts -->
<g id="edge65" class="edge">
<title>services/websocketmessaging.ts&#45;&gt;models/connection&#45;response.d.ts</title>
<path fill="none" stroke="#757575" d="M2409.94,-484.07C2432.45,-476.2 2462.33,-465.16 2488,-453.62 2530.89,-434.34 2578.62,-408.15 2608.22,-391.32"/>
<polygon fill="#757575" stroke="#757575" points="2610.23,-394.2 2617.17,-386.2 2606.75,-388.13 2610.23,-394.2"/>
</g>
<!-- util/btoaatob.ts -->
<g id="node29" class="node">
<title>util/btoaatob.ts</title>
<path fill="none" stroke="#cfffac" d="M2420.83,-898.12C2420.83,-898.12 2328.17,-898.12 2328.17,-898.12 2324.33,-898.12 2320.5,-894.28 2320.5,-890.45 2320.5,-890.45 2320.5,-882.78 2320.5,-882.78 2320.5,-878.95 2324.33,-875.12 2328.17,-875.12 2328.17,-875.12 2420.83,-875.12 2420.83,-875.12 2424.67,-875.12 2428.5,-878.95 2428.5,-882.78 2428.5,-882.78 2428.5,-890.45 2428.5,-890.45 2428.5,-894.28 2424.67,-898.12 2420.83,-898.12"/>
<text text-anchor="middle" x="2374.5" y="-882.92" font-family="Arial" font-size="14.00" fill="#cfffac">util/btoaatob.ts</text>
</g>
<!-- util/log.ts&#45;&gt;util/btoaatob.ts -->
<g id="edge66" class="edge">
<title>util/log.ts&#45;&gt;util/btoaatob.ts</title>
<path fill="none" stroke="#757575" d="M2156.11,-886.62C2195.83,-886.62 2261.33,-886.62 2310.07,-886.62"/>
<polygon fill="#757575" stroke="#757575" points="2310.2,-890.12 2320.2,-886.62 2310.2,-883.12 2310.2,-890.12"/>
</g>
<!-- models/sender.ts -->
<g id="node14" class="node">
<title>models/sender.ts</title>
<path fill="none" stroke="#c6c5fe" d="M1590.33,-666.12C1590.33,-666.12 1478.67,-666.12 1478.67,-666.12 1474.83,-666.12 1471,-662.28 1471,-658.45 1471,-658.45 1471,-650.78 1471,-650.78 1471,-646.95 1474.83,-643.12 1478.67,-643.12 1478.67,-643.12 1590.33,-643.12 1590.33,-643.12 1594.17,-643.12 1598,-646.95 1598,-650.78 1598,-650.78 1598,-658.45 1598,-658.45 1598,-662.28 1594.17,-666.12 1590.33,-666.12"/>
<text text-anchor="middle" x="1534.5" y="-650.92" font-family="Arial" font-size="14.00" fill="#c6c5fe">models/sender.ts</text>
</g>
<!-- models/sender.ts&#45;&gt;models/battery.ts -->
<g id="edge14" class="edge">
<title>models/sender.ts&#45;&gt;models/battery.ts</title>
<path fill="none" stroke="#757575" d="M1588.63,-666.12C1607.27,-670.16 1628.4,-674.73 1647.79,-678.93"/>
<polygon fill="#757575" stroke="#757575" points="1647.23,-682.39 1657.75,-681.09 1648.71,-675.55 1647.23,-682.39"/>
</g>
<!-- models/sender.ts&#45;&gt;models/connection&#45;response.d.ts -->
<g id="edge15" class="edge">
<title>models/sender.ts&#45;&gt;models/connection&#45;response.d.ts</title>
<path fill="none" stroke="#757575" d="M1598.25,-643.53C1670.78,-631.69 1793.88,-614.62 1900.5,-614.62 1900.5,-614.62 1900.5,-614.62 2121,-614.62 2284.77,-614.62 2345.74,-662.75 2488,-581.62 2563.85,-538.36 2611.25,-438.92 2629.03,-395.52"/>
<polygon fill="#757575" stroke="#757575" points="2632.29,-396.81 2632.74,-386.22 2625.78,-394.22 2632.29,-396.81"/>
</g>
<!-- models/sender.ts&#45;&gt;models/connection.ts -->
<g id="edge16" class="edge">
<title>models/sender.ts&#45;&gt;models/connection.ts</title>
<path fill="none" stroke="#757575" d="M1542.49,-642.98C1558.1,-617.32 1597.43,-554.28 1636,-505.62 1653.8,-483.16 1676.39,-459.3 1692.11,-443.34"/>
<polygon fill="#757575" stroke="#757575" points="1694.66,-445.74 1699.22,-436.18 1689.69,-440.81 1694.66,-445.74"/>
</g>
<!-- models/sender.ts&#45;&gt;models/transformation.ts -->
<g id="edge18" class="edge">
<title>models/sender.ts&#45;&gt;models/transformation.ts</title>
<path fill="none" stroke="#757575" d="M1542.03,-642.89C1554.48,-620.2 1582.01,-568.44 1600,-522.62 1620.19,-471.18 1604.32,-448.89 1636,-403.62 1695.88,-318.04 1727.5,-302.56 1824,-262.62 1887.26,-236.43 1963.95,-226.1 2023.28,-222.22"/>
<polygon fill="#757575" stroke="#757575" points="2023.63,-225.71 2033.4,-221.61 2023.21,-218.72 2023.63,-225.71"/>
</g>
<!-- models/sender.ts&#45;&gt;models/transformer.ts -->
<g id="edge19" class="edge">
<title>models/sender.ts&#45;&gt;models/transformer.ts</title>
<path fill="none" stroke="#757575" d="M1549.81,-642.9C1605.8,-597.03 1810.32,-429.49 1878.33,-373.77"/>
<polygon fill="#757575" stroke="#757575" points="1880.77,-376.3 1886.29,-367.26 1876.34,-370.89 1880.77,-376.3"/>
</g>
<!-- models/sender.ts&#45;&gt;models/event.ts -->
<g id="edge17" class="edge">
<title>models/sender.ts&#45;&gt;models/event.ts</title>
<path fill="none" stroke="#757575" d="M1552.6,-666.27C1572.07,-679.11 1605.18,-699.65 1636,-712.62 1641.43,-714.9 1647.18,-717.02 1652.99,-718.95"/>
<polygon fill="#757575" stroke="#757575" points="1652.19,-722.37 1662.78,-722.04 1654.3,-715.69 1652.19,-722.37"/>
</g>
<!-- models/sender.ts&#45;&gt;util/log.ts -->
<g id="edge20" class="edge">
<title>models/sender.ts&#45;&gt;util/log.ts</title>
<path fill="none" stroke="#757575" d="M1598.15,-650.21C1650.29,-648.55 1725.79,-650.89 1788,-671.62 1919.51,-715.44 2049.87,-824.26 2098.78,-867.99"/>
<polygon fill="#757575" stroke="#757575" points="2096.66,-870.79 2106.43,-874.9 2101.35,-865.6 2096.66,-870.79"/>
</g>
<!-- models/test.ts -->
<g id="node15" class="node">
<title>models/test.ts</title>
<path fill="none" stroke="#cfffac" d="M143.83,-861.12C143.83,-861.12 53.17,-861.12 53.17,-861.12 49.33,-861.12 45.5,-857.28 45.5,-853.45 45.5,-853.45 45.5,-845.78 45.5,-845.78 45.5,-841.95 49.33,-838.12 53.17,-838.12 53.17,-838.12 143.83,-838.12 143.83,-838.12 147.67,-838.12 151.5,-841.95 151.5,-845.78 151.5,-845.78 151.5,-853.45 151.5,-853.45 151.5,-857.28 147.67,-861.12 143.83,-861.12"/>
<text text-anchor="middle" x="98.5" y="-845.92" font-family="Arial" font-size="14.00" fill="#cfffac">models/test.ts</text>
</g>
<!-- models/timer.ts -->
<g id="node16" class="node">
<title>models/timer.ts</title>
<path fill="none" stroke="#cfffac" d="M1583.83,-514.12C1583.83,-514.12 1485.17,-514.12 1485.17,-514.12 1481.33,-514.12 1477.5,-510.28 1477.5,-506.45 1477.5,-506.45 1477.5,-498.78 1477.5,-498.78 1477.5,-494.95 1481.33,-491.12 1485.17,-491.12 1485.17,-491.12 1583.83,-491.12 1583.83,-491.12 1587.67,-491.12 1591.5,-494.95 1591.5,-498.78 1591.5,-498.78 1591.5,-506.45 1591.5,-506.45 1591.5,-510.28 1587.67,-514.12 1583.83,-514.12"/>
<text text-anchor="middle" x="1534.5" y="-498.92" font-family="Arial" font-size="14.00" fill="#cfffac">models/timer.ts</text>
</g>
<!-- resources/connection.r.ts -->
<g id="node17" class="node">
<title>resources/connection.r.ts</title>
<path fill="none" stroke="#c6c5fe" d="M909.33,-495.12C909.33,-495.12 748.67,-495.12 748.67,-495.12 744.83,-495.12 741,-491.28 741,-487.45 741,-487.45 741,-479.78 741,-479.78 741,-475.95 744.83,-472.12 748.67,-472.12 748.67,-472.12 909.33,-472.12 909.33,-472.12 913.17,-472.12 917,-475.95 917,-479.78 917,-479.78 917,-487.45 917,-487.45 917,-491.28 913.17,-495.12 909.33,-495.12"/>
<text text-anchor="middle" x="829" y="-479.92" font-family="Arial" font-size="14.00" fill="#c6c5fe">resources/connection.r.ts</text>
</g>
<!-- resources/connection.r.ts&#45;&gt;models/connection.ts -->
<g id="edge23" class="edge">
<title>resources/connection.r.ts&#45;&gt;models/connection.ts</title>
<path fill="none" stroke="#757575" d="M862.4,-472.03C886.93,-463.85 921.63,-453.5 953,-448.62 1194.62,-411 1484.62,-415.33 1625.63,-420.55"/>
<polygon fill="#757575" stroke="#757575" points="1625.8,-424.06 1635.93,-420.94 1626.07,-417.06 1625.8,-424.06"/>
</g>
<!-- resources/connection.r.ts&#45;&gt;models/receiver.ts -->
<g id="edge24" class="edge">
<title>resources/connection.r.ts&#45;&gt;models/receiver.ts</title>
<path fill="none" stroke="#757575" d="M917.15,-482.88C1121.88,-481.16 1630.78,-476.88 1824.23,-475.26"/>
<polygon fill="#757575" stroke="#757575" points="1824.34,-478.76 1834.31,-475.17 1824.28,-471.76 1824.34,-478.76"/>
</g>
<!-- resources/connection.r.ts&#45;&gt;models/sender.ts -->
<g id="edge25" class="edge">
<title>resources/connection.r.ts&#45;&gt;models/sender.ts</title>
<path fill="none" stroke="#757575" d="M877.53,-495.17C1002.65,-525.58 1340.82,-607.78 1476.26,-640.7"/>
<polygon fill="#757575" stroke="#757575" points="1475.5,-644.12 1486.04,-643.08 1477.15,-637.32 1475.5,-644.12"/>
</g>
<!-- resources/frontend&#45;update.ts -->
<g id="node18" class="node">
<title>resources/frontend&#45;update.ts</title>
<path fill="none" stroke="#c6c5fe" d="M1145.33,-666.12C1145.33,-666.12 960.67,-666.12 960.67,-666.12 956.83,-666.12 953,-662.28 953,-658.45 953,-658.45 953,-650.78 953,-650.78 953,-646.95 956.83,-643.12 960.67,-643.12 960.67,-643.12 1145.33,-643.12 1145.33,-643.12 1149.17,-643.12 1153,-646.95 1153,-650.78 1153,-650.78 1153,-658.45 1153,-658.45 1153,-662.28 1149.17,-666.12 1145.33,-666.12"/>
<text text-anchor="middle" x="1053" y="-650.92" font-family="Arial" font-size="14.00" fill="#c6c5fe">resources/frontend&#45;update.ts</text>
</g>
<!-- resources/connection.r.ts&#45;&gt;resources/frontend&#45;update.ts -->
<g id="edge26" class="edge">
<title>resources/connection.r.ts&#45;&gt;resources/frontend&#45;update.ts</title>
<path fill="none" stroke="#757575" d="M842.08,-495.16C863.58,-515.46 910.25,-558.46 953,-590.62 975.84,-607.79 1003.21,-625.27 1023.38,-637.61"/>
<polygon fill="#757575" stroke="#757575" points="1021.73,-640.71 1032.1,-642.9 1025.36,-634.72 1021.73,-640.71"/>
</g>
<!-- resources/frontend&#45;update.ts&#45;&gt;models/timer.ts -->
<g id="edge27" class="edge">
<title>resources/frontend&#45;update.ts&#45;&gt;models/timer.ts</title>
<path fill="none" stroke="#757575" d="M1090.43,-643.07C1176.56,-615.77 1392.56,-547.3 1487.51,-517.2"/>
<polygon fill="#757575" stroke="#757575" points="1488.65,-520.51 1497.12,-514.15 1486.53,-513.83 1488.65,-520.51"/>
</g>
<!-- resources/websocket&#45;response.d.ts -->
<g id="node19" class="node">
<title>resources/websocket&#45;response.d.ts</title>
<path fill="none" stroke="#c6c5fe" d="M1425.33,-666.12C1425.33,-666.12 1196.67,-666.12 1196.67,-666.12 1192.83,-666.12 1189,-662.28 1189,-658.45 1189,-658.45 1189,-650.78 1189,-650.78 1189,-646.95 1192.83,-643.12 1196.67,-643.12 1196.67,-643.12 1425.33,-643.12 1425.33,-643.12 1429.17,-643.12 1433,-646.95 1433,-650.78 1433,-650.78 1433,-658.45 1433,-658.45 1433,-662.28 1429.17,-666.12 1425.33,-666.12"/>
<text text-anchor="middle" x="1311" y="-650.92" font-family="Arial" font-size="14.00" fill="#c6c5fe">resources/websocket&#45;response.d.ts</text>
</g>
<!-- resources/frontend&#45;update.ts&#45;&gt;resources/websocket&#45;response.d.ts -->
<g id="edge28" class="edge">
<title>resources/frontend&#45;update.ts&#45;&gt;resources/websocket&#45;response.d.ts</title>
<path fill="none" stroke="#757575" d="M1153.34,-654.62C1161.73,-654.62 1170.28,-654.62 1178.86,-654.62"/>
<polygon fill="#757575" stroke="#757575" points="1178.93,-658.12 1188.93,-654.62 1178.93,-651.12 1178.93,-658.12"/>
</g>
<!-- services/sender&#45;loader.ts -->
<g id="node20" class="node">
<title>services/sender&#45;loader.ts</title>
<path fill="none" stroke="#c6c5fe" d="M1391.83,-822.12C1391.83,-822.12 1230.17,-822.12 1230.17,-822.12 1226.33,-822.12 1222.5,-818.28 1222.5,-814.45 1222.5,-814.45 1222.5,-806.78 1222.5,-806.78 1222.5,-802.95 1226.33,-799.12 1230.17,-799.12 1230.17,-799.12 1391.83,-799.12 1391.83,-799.12 1395.67,-799.12 1399.5,-802.95 1399.5,-806.78 1399.5,-806.78 1399.5,-814.45 1399.5,-814.45 1399.5,-818.28 1395.67,-822.12 1391.83,-822.12"/>
<text text-anchor="middle" x="1311" y="-806.92" font-family="Arial" font-size="14.00" fill="#c6c5fe">services/sender&#45;loader.ts</text>
</g>
<!-- resources/frontend&#45;update.ts&#45;&gt;services/sender&#45;loader.ts -->
<g id="edge29" class="edge">
<title>resources/frontend&#45;update.ts&#45;&gt;services/sender&#45;loader.ts</title>
<path fill="none" stroke="#757575" d="M1073.24,-666.34C1118.11,-693.68 1229.8,-761.75 1282.13,-793.63"/>
<polygon fill="#757575" stroke="#757575" points="1280.52,-796.75 1290.88,-798.97 1284.17,-790.78 1280.52,-796.75"/>
</g>
<!-- resources/websocket&#45;response.d.ts&#45;&gt;models/sender.ts -->
<g id="edge42" class="edge">
<title>resources/websocket&#45;response.d.ts&#45;&gt;models/sender.ts</title>
<path fill="none" stroke="#757575" d="M1433.12,-654.62C1442.48,-654.62 1451.75,-654.62 1460.64,-654.62"/>
<polygon fill="#757575" stroke="#757575" points="1460.9,-658.12 1470.9,-654.62 1460.9,-651.12 1460.9,-658.12"/>
</g>
<!-- resources/websocket&#45;response.d.ts&#45;&gt;models/timer.ts -->
<g id="edge43" class="edge">
<title>resources/websocket&#45;response.d.ts&#45;&gt;models/timer.ts</title>
<path fill="none" stroke="#757575" d="M1329.01,-642.94C1367.76,-616.35 1462.74,-551.17 1508.31,-519.9"/>
<polygon fill="#757575" stroke="#757575" points="1510.47,-522.67 1516.73,-514.12 1506.51,-516.9 1510.47,-522.67"/>
</g>
<!-- services/sender&#45;loader.ts&#45;&gt;models/sound.ts -->
<g id="edge55" class="edge">
<title>services/sender&#45;loader.ts&#45;&gt;models/sound.ts</title>
<path fill="none" stroke="#757575" d="M1399.73,-805.33C1495.9,-798.32 1654.33,-783.23 1788,-753.62 1999.87,-706.68 2243.61,-613.57 2335.67,-576.93"/>
<polygon fill="#757575" stroke="#757575" points="2337.14,-580.12 2345.12,-573.16 2334.54,-573.62 2337.14,-580.12"/>
</g>
<!-- services/sender&#45;loader.ts&#45;&gt;models/sender.ts -->
<g id="edge54" class="edge">
<title>services/sender&#45;loader.ts&#45;&gt;models/sender.ts</title>
<path fill="none" stroke="#757575" d="M1399.52,-799.55C1411.3,-795.88 1422.82,-791.03 1433,-784.62 1476.18,-757.41 1508.09,-704.74 1523.4,-675.48"/>
<polygon fill="#757575" stroke="#757575" points="1526.71,-676.69 1528.11,-666.19 1520.46,-673.53 1526.71,-676.69"/>
</g>
<!-- util/tsc&#45;compiler.ts -->
<g id="node28" class="node">
<title>util/tsc&#45;compiler.ts</title>
<path fill="none" stroke="#c6c5fe" d="M1592.33,-936.12C1592.33,-936.12 1476.67,-936.12 1476.67,-936.12 1472.83,-936.12 1469,-932.28 1469,-928.45 1469,-928.45 1469,-920.78 1469,-920.78 1469,-916.95 1472.83,-913.12 1476.67,-913.12 1476.67,-913.12 1592.33,-913.12 1592.33,-913.12 1596.17,-913.12 1600,-916.95 1600,-920.78 1600,-920.78 1600,-928.45 1600,-928.45 1600,-932.28 1596.17,-936.12 1592.33,-936.12"/>
<text text-anchor="middle" x="1534.5" y="-920.92" font-family="Arial" font-size="14.00" fill="#c6c5fe">util/tsc&#45;compiler.ts</text>
</g>
<!-- services/sender&#45;loader.ts&#45;&gt;util/tsc&#45;compiler.ts -->
<g id="edge56" class="edge">
<title>services/sender&#45;loader.ts&#45;&gt;util/tsc&#45;compiler.ts</title>
<path fill="none" stroke="#757575" d="M1334.46,-822.18C1374.09,-842.57 1456.54,-885.01 1501.9,-908.35"/>
<polygon fill="#757575" stroke="#757575" points="1500.49,-911.56 1510.98,-913.03 1503.69,-905.34 1500.49,-911.56"/>
</g>
<!-- resources/receiver.r.ts -->
<g id="node21" class="node">
<title>resources/receiver.r.ts</title>
<path fill="none" stroke="#c6c5fe" d="M900.33,-628.12C900.33,-628.12 757.67,-628.12 757.67,-628.12 753.83,-628.12 750,-624.28 750,-620.45 750,-620.45 750,-612.78 750,-612.78 750,-608.95 753.83,-605.12 757.67,-605.12 757.67,-605.12 900.33,-605.12 900.33,-605.12 904.17,-605.12 908,-608.95 908,-612.78 908,-612.78 908,-620.45 908,-620.45 908,-624.28 904.17,-628.12 900.33,-628.12"/>
<text text-anchor="middle" x="829" y="-612.92" font-family="Arial" font-size="14.00" fill="#c6c5fe">resources/receiver.r.ts</text>
</g>
<!-- resources/receiver.r.ts&#45;&gt;models/receiver.ts -->
<g id="edge30" class="edge">
<title>resources/receiver.r.ts&#45;&gt;models/receiver.ts</title>
<path fill="none" stroke="#757575" d="M908.27,-608.03C1047.58,-592.53 1347.62,-558.17 1600,-522.62 1676.56,-511.83 1763.8,-497.69 1824.48,-487.56"/>
<polygon fill="#757575" stroke="#757575" points="1825.08,-491 1834.36,-485.9 1823.92,-484.1 1825.08,-491"/>
</g>
<!-- resources/receiver.r.ts&#45;&gt;util/log.ts -->
<g id="edge32" class="edge">
<title>resources/receiver.r.ts&#45;&gt;util/log.ts</title>
<path fill="none" stroke="#757575" d="M844.61,-628.2C911.24,-680.08 1194.88,-890.95 1469,-944.62 1693.31,-988.53 1967.75,-927.21 2074.01,-899.25"/>
<polygon fill="#757575" stroke="#757575" points="2075,-902.61 2083.76,-896.65 2073.2,-895.84 2075,-902.61"/>
</g>
<!-- resources/receiver.r.ts&#45;&gt;resources/frontend&#45;update.ts -->
<g id="edge31" class="edge">
<title>resources/receiver.r.ts&#45;&gt;resources/frontend&#45;update.ts</title>
<path fill="none" stroke="#757575" d="M897.21,-628.12C921.66,-632.31 949.48,-637.07 974.73,-641.39"/>
<polygon fill="#757575" stroke="#757575" points="974.19,-644.85 984.64,-643.09 975.37,-637.95 974.19,-644.85"/>
</g>
<!-- resources/sender.r.ts -->
<g id="node22" class="node">
<title>resources/sender.r.ts</title>
<path fill="none" stroke="#c6c5fe" d="M166.83,-820.12C166.83,-820.12 30.17,-820.12 30.17,-820.12 26.33,-820.12 22.5,-816.28 22.5,-812.45 22.5,-812.45 22.5,-804.78 22.5,-804.78 22.5,-800.95 26.33,-797.12 30.17,-797.12 30.17,-797.12 166.83,-797.12 166.83,-797.12 170.67,-797.12 174.5,-800.95 174.5,-804.78 174.5,-804.78 174.5,-812.45 174.5,-812.45 174.5,-816.28 170.67,-820.12 166.83,-820.12"/>
<text text-anchor="middle" x="98.5" y="-804.92" font-family="Arial" font-size="14.00" fill="#c6c5fe">resources/sender.r.ts</text>
</g>
<!-- resources/sender.r.ts&#45;&gt;models/battery.ts -->
<g id="edge33" class="edge">
<title>resources/sender.r.ts&#45;&gt;models/battery.ts</title>
<path fill="none" stroke="#757575" d="M168.95,-820.14C178.5,-822.51 188.09,-825.32 197,-828.62 214.16,-834.97 215.86,-842.2 233,-848.62 389.17,-907.09 433.25,-926.62 600,-926.62 600,-926.62 600,-926.62 1054,-926.62 1227.76,-926.62 1272.11,-896.25 1433,-830.62 1529.63,-791.2 1539.62,-752.64 1636,-712.62 1640.7,-710.66 1645.65,-708.85 1650.67,-707.18"/>
<polygon fill="#757575" stroke="#757575" points="1651.86,-710.48 1660.36,-704.15 1649.77,-703.8 1651.86,-710.48"/>
</g>
<!-- resources/sender.r.ts&#45;&gt;models/transformation.ts -->
<g id="edge37" class="edge">
<title>resources/sender.r.ts&#45;&gt;models/transformation.ts</title>
<path fill="none" stroke="#757575" d="M108.12,-797.06C127.89,-771.13 179,-707.41 233,-666.62 435.86,-513.37 499.8,-483.99 741,-403.62 1203.98,-249.34 1337.8,-264.63 1824,-222.62 1890.31,-216.89 1965.31,-216.46 2023.1,-217.43"/>
<polygon fill="#757575" stroke="#757575" points="2023.25,-220.93 2033.31,-217.62 2023.38,-213.93 2023.25,-220.93"/>
</g>
<!-- resources/sender.r.ts&#45;&gt;models/event.ts -->
<g id="edge34" class="edge">
<title>resources/sender.r.ts&#45;&gt;models/event.ts</title>
<path fill="none" stroke="#757575" d="M174.8,-815.42C182.93,-818.57 190.57,-822.85 197,-828.62 235.93,-863.53 191.78,-908.45 233,-940.62 297.44,-990.89 518.27,-964.62 600,-964.62 600,-964.62 600,-964.62 1054,-964.62 1222.78,-964.62 1279.67,-1011.16 1433,-940.62 1453.84,-931.03 1451.11,-917.98 1469,-903.62 1522.38,-860.76 1544.08,-862.1 1600,-822.62 1632.56,-799.62 1668.18,-770.25 1690.06,-751.68"/>
<polygon fill="#757575" stroke="#757575" points="1692.41,-754.28 1697.74,-745.13 1687.86,-748.96 1692.41,-754.28"/>
</g>
<!-- resources/sender.r.ts&#45;&gt;util/log.ts -->
<g id="edge41" class="edge">
<title>resources/sender.r.ts&#45;&gt;util/log.ts</title>
<path fill="none" stroke="#757575" d="M174.67,-814.84C182.92,-818.08 190.63,-822.53 197,-828.62 244.08,-873.59 183.4,-928.44 233,-970.62 357.73,-1076.69 436.27,-1002.62 600,-1002.62 600,-1002.62 600,-1002.62 1713,-1002.62 1833.55,-1002.62 1864.19,-986.36 1979,-949.62 2017.83,-937.19 2060.24,-917.12 2088.09,-902.98"/>
<polygon fill="#757575" stroke="#757575" points="2090.01,-905.93 2097.3,-898.25 2086.81,-899.7 2090.01,-905.93"/>
</g>
<!-- resources/sender.r.ts&#45;&gt;models/sender.ts -->
<g id="edge35" class="edge">
<title>resources/sender.r.ts&#45;&gt;models/sender.ts</title>
<path fill="none" stroke="#757575" d="M174.54,-808.62C272.43,-808.62 449.02,-808.62 600,-808.62 600,-808.62 600,-808.62 830,-808.62 897.35,-808.62 1371.55,-774.2 1433,-746.62 1469.2,-730.37 1501.11,-695.92 1518.81,-674.09"/>
<polygon fill="#757575" stroke="#757575" points="1521.63,-676.16 1525.08,-666.14 1516.14,-671.82 1521.63,-676.16"/>
</g>
<!-- resources/sender.r.ts&#45;&gt;models/timer.ts -->
<g id="edge36" class="edge">
<title>resources/sender.r.ts&#45;&gt;models/timer.ts</title>
<path fill="none" stroke="#757575" d="M122.75,-797.06C149.08,-784.22 193.49,-763.38 233,-748.62 641.16,-596.17 756.08,-580.72 1189,-531.62 1285.43,-520.68 1397.49,-511.99 1466.96,-507.07"/>
<polygon fill="#757575" stroke="#757575" points="1467.58,-510.54 1477.31,-506.34 1467.09,-503.55 1467.58,-510.54"/>
</g>
<!-- resources/sender.r.ts&#45;&gt;resources/frontend&#45;update.ts -->
<g id="edge38" class="edge">
<title>resources/sender.r.ts&#45;&gt;resources/frontend&#45;update.ts</title>
<path fill="none" stroke="#757575" d="M170.7,-797.11C344.07,-769.08 787.3,-697.41 970.68,-667.77"/>
<polygon fill="#757575" stroke="#757575" points="971.48,-671.18 980.8,-666.13 970.37,-664.27 971.48,-671.18"/>
</g>
<!-- resources/sender.r.ts&#45;&gt;services/sender&#45;loader.ts -->
<g id="edge39" class="edge">
<title>resources/sender.r.ts&#45;&gt;services/sender&#45;loader.ts</title>
<path fill="none" stroke="#757575" d="M174.83,-817.91C272.66,-829.16 448.81,-846.62 600,-846.62 600,-846.62 600,-846.62 830,-846.62 962.57,-846.62 1115.16,-832.79 1212.05,-822.28"/>
<polygon fill="#757575" stroke="#757575" points="1212.56,-825.74 1222.12,-821.18 1211.8,-818.78 1212.56,-825.74"/>
</g>
<!-- services/sender&#45;trigger&#45;service.ts -->
<g id="node23" class="node">
<title>services/sender&#45;trigger&#45;service.ts</title>
<path fill="none" stroke="#c6c5fe" d="M453.33,-418.12C453.33,-418.12 240.67,-418.12 240.67,-418.12 236.83,-418.12 233,-414.28 233,-410.45 233,-410.45 233,-402.78 233,-402.78 233,-398.95 236.83,-395.12 240.67,-395.12 240.67,-395.12 453.33,-395.12 453.33,-395.12 457.17,-395.12 461,-398.95 461,-402.78 461,-402.78 461,-410.45 461,-410.45 461,-414.28 457.17,-418.12 453.33,-418.12"/>
<text text-anchor="middle" x="347" y="-402.92" font-family="Arial" font-size="14.00" fill="#c6c5fe">services/sender&#45;trigger&#45;service.ts</text>
</g>
<!-- resources/sender.r.ts&#45;&gt;services/sender&#45;trigger&#45;service.ts -->
<g id="edge40" class="edge">
<title>resources/sender.r.ts&#45;&gt;services/sender&#45;trigger&#45;service.ts</title>
<path fill="none" stroke="#757575" d="M99.82,-796.96C101.9,-745.36 117.42,-535.62 233,-432.62 237.23,-428.85 241.89,-425.6 246.84,-422.79"/>
<polygon fill="#757575" stroke="#757575" points="248.64,-425.8 256.03,-418.21 245.52,-419.54 248.64,-425.8"/>
</g>
<!-- services/sender&#45;trigger&#45;service.ts&#45;&gt;models/connection&#45;response.d.ts -->
<g id="edge57" class="edge">
<title>services/sender&#45;trigger&#45;service.ts&#45;&gt;models/connection&#45;response.d.ts</title>
<path fill="none" stroke="#757575" d="M349.79,-394.85C357.56,-347.98 392.79,-173.09 497,-87.62 614.1,8.43 676.55,-6.62 828,-6.62 828,-6.62 828,-6.62 2121,-6.62 2286.5,-6.62 2355.57,29.64 2488,-69.62 2585.26,-142.52 2622.52,-295.92 2633.33,-352.8"/>
<polygon fill="#757575" stroke="#757575" points="2629.92,-353.62 2635.14,-362.83 2636.8,-352.37 2629.92,-353.62"/>
</g>
<!-- services/sender&#45;trigger&#45;service.ts&#45;&gt;models/transformation.ts -->
<g id="edge59" class="edge">
<title>services/sender&#45;trigger&#45;service.ts&#45;&gt;models/transformation.ts</title>
<path fill="none" stroke="#757575" d="M352.95,-395.11C368.65,-359.9 420.88,-252.58 497,-195.62 621.45,-102.48 672.55,-82.62 828,-82.62 828,-82.62 828,-82.62 1713,-82.62 1832.9,-82.62 1867.52,-83.48 1979,-127.62 2025.27,-145.94 2072.02,-181.12 2098.08,-202.57"/>
<polygon fill="#757575" stroke="#757575" points="2095.87,-205.28 2105.79,-209.01 2100.36,-199.91 2095.87,-205.28"/>
</g>
<!-- services/sender&#45;trigger&#45;service.ts&#45;&gt;models/sender.ts -->
<g id="edge58" class="edge">
<title>services/sender&#45;trigger&#45;service.ts&#45;&gt;models/sender.ts</title>
<path fill="none" stroke="#757575" d="M363.09,-418.16C413.51,-456.11 581.91,-577.93 741,-636.62 1029.98,-743.23 1126.47,-704.82 1433,-674.62 1446.89,-673.25 1461.71,-670.84 1475.58,-668.16"/>
<polygon fill="#757575" stroke="#757575" points="1476.37,-671.57 1485.48,-666.17 1474.99,-664.71 1476.37,-671.57"/>
</g>
<!-- services/connection&#45;service.ts -->
<g id="node25" class="node">
<title>services/connection&#45;service.ts</title>
<path fill="none" stroke="#c6c5fe" d="M697.33,-228.12C697.33,-228.12 504.67,-228.12 504.67,-228.12 500.83,-228.12 497,-224.28 497,-220.45 497,-220.45 497,-212.78 497,-212.78 497,-208.95 500.83,-205.12 504.67,-205.12 504.67,-205.12 697.33,-205.12 697.33,-205.12 701.17,-205.12 705,-208.95 705,-212.78 705,-212.78 705,-220.45 705,-220.45 705,-224.28 701.17,-228.12 697.33,-228.12"/>
<text text-anchor="middle" x="601" y="-212.92" font-family="Arial" font-size="14.00" fill="#c6c5fe">services/connection&#45;service.ts</text>
</g>
<!-- services/sender&#45;trigger&#45;service.ts&#45;&gt;services/connection&#45;service.ts -->
<g id="edge60" class="edge">
<title>services/sender&#45;trigger&#45;service.ts&#45;&gt;services/connection&#45;service.ts</title>
<path fill="none" stroke="#757575" d="M363.38,-395.02C405.91,-362.95 525.29,-272.95 576.35,-234.45"/>
<polygon fill="#757575" stroke="#757575" points="578.62,-237.12 584.5,-228.31 574.4,-231.53 578.62,-237.12"/>
</g>
<!-- services/timer&#45;factory.ts -->
<g id="node26" class="node">
<title>services/timer&#45;factory.ts</title>
<path fill="none" stroke="#c6c5fe" d="M904.83,-436.12C904.83,-436.12 753.17,-436.12 753.17,-436.12 749.33,-436.12 745.5,-432.28 745.5,-428.45 745.5,-428.45 745.5,-420.78 745.5,-420.78 745.5,-416.95 749.33,-413.12 753.17,-413.12 753.17,-413.12 904.83,-413.12 904.83,-413.12 908.67,-413.12 912.5,-416.95 912.5,-420.78 912.5,-420.78 912.5,-428.45 912.5,-428.45 912.5,-432.28 908.67,-436.12 904.83,-436.12"/>
<text text-anchor="middle" x="829" y="-420.92" font-family="Arial" font-size="14.00" fill="#c6c5fe">services/timer&#45;factory.ts</text>
</g>
<!-- services/sender&#45;trigger&#45;service.ts&#45;&gt;services/timer&#45;factory.ts -->
<g id="edge61" class="edge">
<title>services/sender&#45;trigger&#45;service.ts&#45;&gt;services/timer&#45;factory.ts</title>
<path fill="none" stroke="#757575" d="M461.15,-410.86C544.57,-413.99 656.69,-418.19 734.93,-421.13"/>
<polygon fill="#757575" stroke="#757575" points="735.14,-424.64 745.26,-421.51 735.4,-417.64 735.14,-424.64"/>
</g>
<!-- resources/transformation.r.ts -->
<g id="node24" class="node">
<title>resources/transformation.r.ts</title>
<path fill="none" stroke="#cfffac" d="M189.33,-902.12C189.33,-902.12 7.67,-902.12 7.67,-902.12 3.83,-902.12 0,-898.28 0,-894.45 0,-894.45 0,-886.78 0,-886.78 0,-882.95 3.83,-879.12 7.67,-879.12 7.67,-879.12 189.33,-879.12 189.33,-879.12 193.17,-879.12 197,-882.95 197,-886.78 197,-886.78 197,-894.45 197,-894.45 197,-898.28 193.17,-902.12 189.33,-902.12"/>
<text text-anchor="middle" x="98.5" y="-886.92" font-family="Arial" font-size="14.00" fill="#cfffac">resources/transformation.r.ts</text>
</g>
<!-- services/connection&#45;service.ts&#45;&gt;models/connection&#45;response.d.ts -->
<g id="edge44" class="edge">
<title>services/connection&#45;service.ts&#45;&gt;models/connection&#45;response.d.ts</title>
<path fill="none" stroke="#757575" d="M616.98,-204.97C641.58,-186.37 692.63,-149.88 741,-128.62 872.07,-71.01 908.82,-44.62 1052,-44.62 1052,-44.62 1052,-44.62 2121,-44.62 2352.48,-44.62 2563.4,-283.24 2621.34,-354.66"/>
<polygon fill="#757575" stroke="#757575" points="2618.94,-357.26 2627.93,-362.87 2624.4,-352.88 2618.94,-357.26"/>
</g>
<!-- services/connection&#45;service.ts&#45;&gt;models/connection.ts -->
<g id="edge45" class="edge">
<title>services/connection&#45;service.ts&#45;&gt;models/connection.ts</title>
<path fill="none" stroke="#757575" d="M705.17,-223.09C796.35,-228.25 932.96,-234.62 1052,-234.62 1052,-234.62 1052,-234.62 1312,-234.62 1470.73,-234.62 1633.48,-358.7 1690.1,-406.32"/>
<polygon fill="#757575" stroke="#757575" points="1688.08,-409.2 1697.96,-413.02 1692.62,-403.87 1688.08,-409.2"/>
</g>
<!-- services/connection&#45;service.ts&#45;&gt;models/receiver&#45;data.ts -->
<g id="edge46" class="edge">
<title>services/connection&#45;service.ts&#45;&gt;models/receiver&#45;data.ts</title>
<path fill="none" stroke="#757575" d="M661.22,-205.09C818.62,-176.93 1258.63,-114.47 1600,-221.62 1715.27,-257.8 1709.9,-335.9 1824,-375.62 1889.31,-398.35 1967.56,-402.7 2027.06,-401.71"/>
<polygon fill="#757575" stroke="#757575" points="2027.27,-405.21 2037.19,-401.49 2027.12,-398.21 2027.27,-405.21"/>
</g>
<!-- services/connection&#45;service.ts&#45;&gt;models/transformation.ts -->
<g id="edge47" class="edge">
<title>services/connection&#45;service.ts&#45;&gt;models/transformation.ts</title>
<path fill="none" stroke="#757575" d="M633.7,-205.04C706.52,-179.5 891.83,-120.62 1052,-120.62 1052,-120.62 1052,-120.62 1713,-120.62 1852.7,-120.62 2011.81,-177.13 2082.19,-205.19"/>
<polygon fill="#757575" stroke="#757575" points="2080.94,-208.46 2091.52,-208.95 2083.55,-201.97 2080.94,-208.46"/>
</g>
<!-- services/connection&#45;service.ts&#45;&gt;services/timer&#45;factory.ts -->
<g id="edge48" class="edge">
<title>services/connection&#45;service.ts&#45;&gt;services/timer&#45;factory.ts</title>
<path fill="none" stroke="#757575" d="M614.8,-228.4C652.32,-262.93 762.29,-364.14 807.86,-406.08"/>
<polygon fill="#757575" stroke="#757575" points="805.61,-408.77 815.34,-412.97 810.35,-403.62 805.61,-408.77"/>
</g>
<!-- services/timer&#45;factory.ts&#45;&gt;models/connection&#45;response.d.ts -->
<g id="edge62" class="edge">
<title>services/timer&#45;factory.ts&#45;&gt;models/connection&#45;response.d.ts</title>
<path fill="none" stroke="#757575" d="M906.16,-413.11C1090.17,-386.52 1573.71,-323.88 1979,-334.62 2205.46,-340.62 2262.01,-345.77 2488,-361.62 2496.38,-362.2 2505.02,-362.85 2513.72,-363.53"/>
<polygon fill="#757575" stroke="#757575" points="2513.7,-367.04 2523.95,-364.35 2514.26,-360.06 2513.7,-367.04"/>
</g>
<!-- services/timer&#45;factory.ts&#45;&gt;models/timer.ts -->
<g id="edge63" class="edge">
<title>services/timer&#45;factory.ts&#45;&gt;models/timer.ts</title>
<path fill="none" stroke="#757575" d="M912.59,-431.65C1028.9,-441.88 1247.52,-462.34 1433,-486.62 1444.11,-488.07 1455.88,-489.79 1467.31,-491.55"/>
<polygon fill="#757575" stroke="#757575" points="1466.82,-495.01 1477.24,-493.1 1467.9,-488.1 1466.82,-495.01"/>
</g>
<!-- services/timer&#45;factory.ts&#45;&gt;resources/frontend&#45;update.ts -->
<g id="edge64" class="edge">
<title>services/timer&#45;factory.ts&#45;&gt;resources/frontend&#45;update.ts</title>
<path fill="none" stroke="#757575" d="M868.48,-436.24C884.59,-442.36 902.83,-451.04 917,-462.62 977.55,-512.07 1023.17,-595.24 1042.22,-633.81"/>
<polygon fill="#757575" stroke="#757575" points="1039.18,-635.55 1046.69,-643.03 1045.48,-632.5 1039.18,-635.55"/>
</g>
<!-- services/event&#45;scheduler.ts -->
<g id="node27" class="node">
<title>services/event&#45;scheduler.ts</title>
<path fill="none" stroke="#c6c5fe" d="M185.83,-418.12C185.83,-418.12 11.17,-418.12 11.17,-418.12 7.33,-418.12 3.5,-414.28 3.5,-410.45 3.5,-410.45 3.5,-402.78 3.5,-402.78 3.5,-398.95 7.33,-395.12 11.17,-395.12 11.17,-395.12 185.83,-395.12 185.83,-395.12 189.67,-395.12 193.5,-398.95 193.5,-402.78 193.5,-402.78 193.5,-410.45 193.5,-410.45 193.5,-414.28 189.67,-418.12 185.83,-418.12"/>
<text text-anchor="middle" x="98.5" y="-402.92" font-family="Arial" font-size="14.00" fill="#c6c5fe">services/event&#45;scheduler.ts</text>
</g>
<!-- services/event&#45;scheduler.ts&#45;&gt;models/connection.ts -->
<g id="edge49" class="edge">
<title>services/event&#45;scheduler.ts&#45;&gt;models/connection.ts</title>
<path fill="none" stroke="#757575" d="M114.63,-394.97C165.2,-356.88 334.37,-236.1 497,-195.62 637.19,-160.72 881.99,-134.9 1433,-220.62 1509.19,-232.47 1542.95,-215.75 1600,-267.62 1632.79,-297.43 1610.36,-324.46 1636,-360.62 1649.03,-379 1668.49,-395.39 1684.32,-406.99"/>
<polygon fill="#757575" stroke="#757575" points="1682.5,-409.99 1692.68,-412.92 1686.55,-404.28 1682.5,-409.99"/>
</g>
<!-- services/event&#45;scheduler.ts&#45;&gt;util/log.ts -->
<g id="edge53" class="edge">
<title>services/event&#45;scheduler.ts&#45;&gt;util/log.ts</title>
<path fill="none" stroke="#757575" d="M107.09,-418.32C148.51,-480.62 354.49,-770.62 600,-770.62 600,-770.62 600,-770.62 830,-770.62 991.77,-770.62 1028.24,-812.54 1189,-830.62 1454.01,-860.42 1521.82,-849.4 1788,-865.62 1890.08,-871.84 2009.84,-879.54 2073.62,-883.67"/>
<polygon fill="#757575" stroke="#757575" points="2073.53,-887.17 2083.73,-884.32 2073.98,-880.18 2073.53,-887.17"/>
</g>
<!-- services/event&#45;scheduler.ts&#45;&gt;models/sender.ts -->
<g id="edge50" class="edge">
<title>services/event&#45;scheduler.ts&#45;&gt;models/sender.ts</title>
<path fill="none" stroke="#757575" d="M124.93,-418.23C187.72,-446.83 355.36,-522.6 497,-581.62 692.1,-662.91 742.51,-697.42 953,-716.62 1041.52,-724.69 1064.14,-718.84 1153,-716.62 1277.56,-713.51 1312.21,-733.17 1433,-702.62 1459.22,-695.99 1486.78,-682.27 1506.4,-671.2"/>
<polygon fill="#757575" stroke="#757575" points="1508.18,-674.21 1515.08,-666.17 1504.68,-668.15 1508.18,-674.21"/>
</g>
<!-- services/event&#45;scheduler.ts&#45;&gt;models/timer.ts -->
<g id="edge51" class="edge">
<title>services/event&#45;scheduler.ts&#45;&gt;models/timer.ts</title>
<path fill="none" stroke="#757575" d="M159.74,-395.1C182.59,-391.27 208.91,-387.5 233,-385.62 334.03,-377.72 359.69,-383.62 461,-385.62 894.03,-394.16 1015.45,-340.53 1433,-455.62 1458.37,-462.61 1485.29,-475.53 1504.88,-486.05"/>
<polygon fill="#757575" stroke="#757575" points="1503.42,-489.24 1513.86,-490.99 1506.79,-483.11 1503.42,-489.24"/>
</g>
<!-- services/event&#45;scheduler.ts&#45;&gt;services/sender&#45;trigger&#45;service.ts -->
<g id="edge52" class="edge">
<title>services/event&#45;scheduler.ts&#45;&gt;services/sender&#45;trigger&#45;service.ts</title>
<path fill="none" stroke="#757575" d="M193.75,-406.62C203.23,-406.62 212.95,-406.62 222.68,-406.62"/>
<polygon fill="#757575" stroke="#757575" points="222.8,-410.12 232.8,-406.62 222.8,-403.12 222.8,-410.12"/>
</g>
<!-- util/tsc&#45;compiler.ts&#45;&gt;util/log.ts -->
<g id="edge68" class="edge">
<title>util/tsc&#45;compiler.ts&#45;&gt;util/log.ts</title>
<path fill="none" stroke="#757575" d="M1600.17,-920.41C1719.37,-912.64 1970.9,-896.26 2073.74,-889.57"/>
<polygon fill="#757575" stroke="#757575" points="2074.04,-893.05 2083.79,-888.91 2073.59,-886.07 2074.04,-893.05"/>
</g>
<!-- util/file.ts -->
<g id="node30" class="node">
<title>util/file.ts</title>
<path fill="none" stroke="#cfffac" d="M1739.83,-898.12C1739.83,-898.12 1684.17,-898.12 1684.17,-898.12 1680.33,-898.12 1676.5,-894.28 1676.5,-890.45 1676.5,-890.45 1676.5,-882.78 1676.5,-882.78 1676.5,-878.95 1680.33,-875.12 1684.17,-875.12 1684.17,-875.12 1739.83,-875.12 1739.83,-875.12 1743.67,-875.12 1747.5,-878.95 1747.5,-882.78 1747.5,-882.78 1747.5,-890.45 1747.5,-890.45 1747.5,-894.28 1743.67,-898.12 1739.83,-898.12"/>
<text text-anchor="middle" x="1712" y="-882.92" font-family="Arial" font-size="14.00" fill="#cfffac">util/file.ts</text>
</g>
<!-- util/tsc&#45;compiler.ts&#45;&gt;util/file.ts -->
<g id="edge67" class="edge">
<title>util/tsc&#45;compiler.ts&#45;&gt;util/file.ts</title>
<path fill="none" stroke="#757575" d="M1588.63,-913.11C1613.53,-907.72 1642.85,-901.37 1666.55,-896.24"/>
<polygon fill="#757575" stroke="#757575" points="1667.3,-899.66 1676.33,-894.12 1665.81,-892.82 1667.3,-899.66"/>
</g>
</g>
</svg>
