<?xml version="1.0" encoding="UTF-8" standalone="no"?>
<!DOCTYPE svg PUBLIC "-//W3C//DTD SVG 1.1//EN"
 "http://www.w3.org/Graphics/SVG/1.1/DTD/svg11.dtd">
<!-- Generated by graphviz version 5.0.1 (20220820.1526)
 -->
<!-- Title: G Pages: 1 -->
<svg width="2892pt" height="1732pt"
 viewBox="0.00 0.00 2892.20 1732.14" xmlns="http://www.w3.org/2000/svg" xmlns:xlink="http://www.w3.org/1999/xlink">
<g id="graph0" class="graph" transform="scale(1 1) rotate(0) translate(21.6 1710.54)">
<title>G</title>
<polygon fill="#111111" stroke="none" points="-21.6,21.6 -21.6,-1710.54 2870.6,-1710.54 2870.6,21.6 -21.6,21.6"/>
<!-- models/action.ts -->
<g id="node1" class="node">
<title>models/action.ts</title>
<path fill="none" stroke="#cfffac" d="M2281.33,-790.94C2281.33,-790.94 2176.67,-790.94 2176.67,-790.94 2172.83,-790.94 2169,-787.11 2169,-783.27 2169,-783.27 2169,-775.61 2169,-775.61 2169,-771.77 2172.83,-767.94 2176.67,-767.94 2176.67,-767.94 2281.33,-767.94 2281.33,-767.94 2285.17,-767.94 2289,-771.77 2289,-775.61 2289,-775.61 2289,-783.27 2289,-783.27 2289,-787.11 2285.17,-790.94 2281.33,-790.94"/>
<text text-anchor="middle" x="2229" y="-775.74" font-family="Arial" font-size="14.00" fill="#cfffac">models/action.ts</text>
</g>
<!-- models/battery.ts -->
<g id="node2" class="node">
<title>models/battery.ts</title>
<path fill="none" stroke="#cfffac" d="M1662.83,-261.94C1662.83,-261.94 1553.17,-261.94 1553.17,-261.94 1549.33,-261.94 1545.5,-258.11 1545.5,-254.27 1545.5,-254.27 1545.5,-246.61 1545.5,-246.61 1545.5,-242.77 1549.33,-238.94 1553.17,-238.94 1553.17,-238.94 1662.83,-238.94 1662.83,-238.94 1666.67,-238.94 1670.5,-242.77 1670.5,-246.61 1670.5,-246.61 1670.5,-254.27 1670.5,-254.27 1670.5,-258.11 1666.67,-261.94 1662.83,-261.94"/>
<text text-anchor="middle" x="1608" y="-246.74" font-family="Arial" font-size="14.00" fill="#cfffac">models/battery.ts</text>
</g>
<!-- models/connection&#45;response.ts -->
<g id="node3" class="node">
<title>models/connection&#45;response.ts</title>
<path fill="none" stroke="#cfffac" d="M2841.33,-730.94C2841.33,-730.94 2640.67,-730.94 2640.67,-730.94 2636.83,-730.94 2633,-727.11 2633,-723.27 2633,-723.27 2633,-715.61 2633,-715.61 2633,-711.77 2636.83,-707.94 2640.67,-707.94 2640.67,-707.94 2841.33,-707.94 2841.33,-707.94 2845.17,-707.94 2849,-711.77 2849,-715.61 2849,-715.61 2849,-723.27 2849,-723.27 2849,-727.11 2845.17,-730.94 2841.33,-730.94"/>
<text text-anchor="middle" x="2741" y="-715.74" font-family="Arial" font-size="14.00" fill="#cfffac">models/connection&#45;response.ts</text>
</g>
<!-- models/connection.ts -->
<g id="node4" class="node">
<title>models/connection.ts</title>
<path fill="none" stroke="#c6c5fe" d="M1676.33,-790.94C1676.33,-790.94 1539.67,-790.94 1539.67,-790.94 1535.83,-790.94 1532,-787.11 1532,-783.27 1532,-783.27 1532,-775.61 1532,-775.61 1532,-771.77 1535.83,-767.94 1539.67,-767.94 1539.67,-767.94 1676.33,-767.94 1676.33,-767.94 1680.17,-767.94 1684,-771.77 1684,-775.61 1684,-775.61 1684,-783.27 1684,-783.27 1684,-787.11 1680.17,-790.94 1676.33,-790.94"/>
<text text-anchor="middle" x="1608" y="-775.74" font-family="Arial" font-size="14.00" fill="#c6c5fe">models/connection.ts</text>
</g>
<!-- models/receiver&#45;data.ts -->
<g id="node5" class="node">
<title>models/receiver&#45;data.ts</title>
<path fill="none" stroke="#c6c5fe" d="M2303.83,-872.94C2303.83,-872.94 2154.17,-872.94 2154.17,-872.94 2150.33,-872.94 2146.5,-869.11 2146.5,-865.27 2146.5,-865.27 2146.5,-857.61 2146.5,-857.61 2146.5,-853.77 2150.33,-849.94 2154.17,-849.94 2154.17,-849.94 2303.83,-849.94 2303.83,-849.94 2307.67,-849.94 2311.5,-853.77 2311.5,-857.61 2311.5,-857.61 2311.5,-865.27 2311.5,-865.27 2311.5,-869.11 2307.67,-872.94 2303.83,-872.94"/>
<text text-anchor="middle" x="2229" y="-857.74" font-family="Arial" font-size="14.00" fill="#c6c5fe">models/receiver&#45;data.ts</text>
</g>
<!-- models/connection.ts&#45;&gt;models/receiver&#45;data.ts -->
<g id="edge1" class="edge">
<title>models/connection.ts&#45;&gt;models/receiver&#45;data.ts</title>
<path fill="none" stroke="#757575" d="M1684.28,-789.41C1798.04,-804.48 2013.47,-833.02 2136.24,-849.28"/>
<polygon fill="#757575" stroke="#757575" points="2136,-852.78 2146.37,-850.63 2136.92,-845.84 2136,-852.78"/>
</g>
<!-- models/receiver.ts -->
<g id="node6" class="node">
<title>models/receiver.ts</title>
<path fill="none" stroke="#c6c5fe" d="M1987.33,-790.94C1987.33,-790.94 1868.67,-790.94 1868.67,-790.94 1864.83,-790.94 1861,-787.11 1861,-783.27 1861,-783.27 1861,-775.61 1861,-775.61 1861,-771.77 1864.83,-767.94 1868.67,-767.94 1868.67,-767.94 1987.33,-767.94 1987.33,-767.94 1991.17,-767.94 1995,-771.77 1995,-775.61 1995,-775.61 1995,-783.27 1995,-783.27 1995,-787.11 1991.17,-790.94 1987.33,-790.94"/>
<text text-anchor="middle" x="1928" y="-775.74" font-family="Arial" font-size="14.00" fill="#c6c5fe">models/receiver.ts</text>
</g>
<!-- models/connection.ts&#45;&gt;models/receiver.ts -->
<g id="edge2" class="edge">
<title>models/connection.ts&#45;&gt;models/receiver.ts</title>
<path fill="none" stroke="#757575" d="M1684.36,-779.44C1734.54,-779.44 1800.24,-779.44 1850.62,-779.44"/>
<polygon fill="#757575" stroke="#757575" points="1850.81,-782.94 1860.81,-779.44 1850.81,-775.94 1850.81,-782.94"/>
</g>
<!-- models/transformation.ts -->
<g id="node7" class="node">
<title>models/transformation.ts</title>
<path fill="none" stroke="#cfffac" d="M2307.83,-571.94C2307.83,-571.94 2150.17,-571.94 2150.17,-571.94 2146.33,-571.94 2142.5,-568.11 2142.5,-564.27 2142.5,-564.27 2142.5,-556.61 2142.5,-556.61 2142.5,-552.77 2146.33,-548.94 2150.17,-548.94 2150.17,-548.94 2307.83,-548.94 2307.83,-548.94 2311.67,-548.94 2315.5,-552.77 2315.5,-556.61 2315.5,-556.61 2315.5,-564.27 2315.5,-564.27 2315.5,-568.11 2311.67,-571.94 2307.83,-571.94"/>
<text text-anchor="middle" x="2229" y="-556.74" font-family="Arial" font-size="14.00" fill="#cfffac">models/transformation.ts</text>
</g>
<!-- models/connection.ts&#45;&gt;models/transformation.ts -->
<g id="edge3" class="edge">
<title>models/connection.ts&#45;&gt;models/transformation.ts</title>
<path fill="none" stroke="#757575" d="M1642.77,-767.93C1721.14,-741.15 1921.45,-672.4 2088,-612.44 2121.82,-600.26 2160.08,-586.02 2188.04,-575.53"/>
<polygon fill="#757575" stroke="#757575" points="2189.35,-578.77 2197.48,-571.98 2186.89,-572.22 2189.35,-578.77"/>
</g>
<!-- models/transformer.ts -->
<g id="node8" class="node">
<title>models/transformer.ts</title>
<path fill="none" stroke="#c6c5fe" d="M1997.83,-460.94C1997.83,-460.94 1858.17,-460.94 1858.17,-460.94 1854.33,-460.94 1850.5,-457.11 1850.5,-453.27 1850.5,-453.27 1850.5,-445.61 1850.5,-445.61 1850.5,-441.77 1854.33,-437.94 1858.17,-437.94 1858.17,-437.94 1997.83,-437.94 1997.83,-437.94 2001.67,-437.94 2005.5,-441.77 2005.5,-445.61 2005.5,-445.61 2005.5,-453.27 2005.5,-453.27 2005.5,-457.11 2001.67,-460.94 1997.83,-460.94"/>
<text text-anchor="middle" x="1928" y="-445.74" font-family="Arial" font-size="14.00" fill="#c6c5fe">models/transformer.ts</text>
</g>
<!-- models/connection.ts&#45;&gt;models/transformer.ts -->
<g id="edge4" class="edge">
<title>models/connection.ts&#45;&gt;models/transformer.ts</title>
<path fill="none" stroke="#757575" d="M1631.43,-767.84C1657.35,-753.79 1700.47,-728.37 1732,-699.44 1813.02,-625.08 1886.35,-514.52 1914.64,-469.55"/>
<polygon fill="#757575" stroke="#757575" points="1917.66,-471.32 1919.98,-460.99 1911.72,-467.62 1917.66,-471.32"/>
</g>
<!-- models/receiver&#45;data.ts&#45;&gt;models/connection&#45;response.ts -->
<g id="edge8" class="edge">
<title>models/receiver&#45;data.ts&#45;&gt;models/connection&#45;response.ts</title>
<path fill="none" stroke="#757575" d="M2291.8,-849.92C2305.73,-847.05 2320.42,-843.83 2334,-840.44 2466.74,-807.33 2620.92,-758.46 2695.31,-734.21"/>
<polygon fill="#757575" stroke="#757575" points="2696.85,-737.38 2705.27,-730.95 2694.67,-730.73 2696.85,-737.38"/>
</g>
<!-- models/evaluated&#45;data.ts -->
<g id="node9" class="node">
<title>models/evaluated&#45;data.ts</title>
<path fill="none" stroke="#c6c5fe" d="M2563.33,-730.94C2563.33,-730.94 2403.67,-730.94 2403.67,-730.94 2399.83,-730.94 2396,-727.11 2396,-723.27 2396,-723.27 2396,-715.61 2396,-715.61 2396,-711.77 2399.83,-707.94 2403.67,-707.94 2403.67,-707.94 2563.33,-707.94 2563.33,-707.94 2567.17,-707.94 2571,-711.77 2571,-715.61 2571,-715.61 2571,-723.27 2571,-723.27 2571,-727.11 2567.17,-730.94 2563.33,-730.94"/>
<text text-anchor="middle" x="2483.5" y="-715.74" font-family="Arial" font-size="14.00" fill="#c6c5fe">models/evaluated&#45;data.ts</text>
</g>
<!-- models/receiver&#45;data.ts&#45;&gt;models/evaluated&#45;data.ts -->
<g id="edge9" class="edge">
<title>models/receiver&#45;data.ts&#45;&gt;models/evaluated&#45;data.ts</title>
<path fill="none" stroke="#757575" d="M2311.61,-852.7C2319.65,-849.63 2327.3,-845.62 2334,-840.44 2362.92,-818.05 2343.41,-791.55 2370,-766.44 2385.34,-751.95 2405.78,-741.62 2425.03,-734.41"/>
<polygon fill="#757575" stroke="#757575" points="2426.39,-737.64 2434.66,-731.01 2424.06,-731.04 2426.39,-737.64"/>
</g>
<!-- models/sound.ts -->
<g id="node14" class="node">
<title>models/sound.ts</title>
<path fill="none" stroke="#cfffac" d="M2536.83,-681.94C2536.83,-681.94 2430.17,-681.94 2430.17,-681.94 2426.33,-681.94 2422.5,-678.11 2422.5,-674.27 2422.5,-674.27 2422.5,-666.61 2422.5,-666.61 2422.5,-662.77 2426.33,-658.94 2430.17,-658.94 2430.17,-658.94 2536.83,-658.94 2536.83,-658.94 2540.67,-658.94 2544.5,-662.77 2544.5,-666.61 2544.5,-666.61 2544.5,-674.27 2544.5,-674.27 2544.5,-678.11 2540.67,-681.94 2536.83,-681.94"/>
<text text-anchor="middle" x="2483.5" y="-666.74" font-family="Arial" font-size="14.00" fill="#cfffac">models/sound.ts</text>
</g>
<!-- models/receiver&#45;data.ts&#45;&gt;models/sound.ts -->
<g id="edge10" class="edge">
<title>models/receiver&#45;data.ts&#45;&gt;models/sound.ts</title>
<path fill="none" stroke="#757575" d="M2311.72,-854.45C2319.94,-851.08 2327.6,-846.54 2334,-840.44 2381.15,-795.54 2323.86,-744.38 2370,-698.44 2381.46,-687.03 2396.8,-680.03 2412.46,-675.78"/>
<polygon fill="#757575" stroke="#757575" points="2413.29,-679.18 2422.23,-673.48 2411.69,-672.37 2413.29,-679.18"/>
</g>
<!-- util/types.d.ts -->
<g id="node15" class="node">
<title>util/types.d.ts</title>
<path fill="none" stroke="#cfffac" d="M2525.33,-872.94C2525.33,-872.94 2441.67,-872.94 2441.67,-872.94 2437.83,-872.94 2434,-869.11 2434,-865.27 2434,-865.27 2434,-857.61 2434,-857.61 2434,-853.77 2437.83,-849.94 2441.67,-849.94 2441.67,-849.94 2525.33,-849.94 2525.33,-849.94 2529.17,-849.94 2533,-853.77 2533,-857.61 2533,-857.61 2533,-865.27 2533,-865.27 2533,-869.11 2529.17,-872.94 2525.33,-872.94"/>
<text text-anchor="middle" x="2483.5" y="-857.74" font-family="Arial" font-size="14.00" fill="#cfffac">util/types.d.ts</text>
</g>
<!-- models/receiver&#45;data.ts&#45;&gt;util/types.d.ts -->
<g id="edge11" class="edge">
<title>models/receiver&#45;data.ts&#45;&gt;util/types.d.ts</title>
<path fill="none" stroke="#757575" d="M2311.63,-861.44C2348.19,-861.44 2390.48,-861.44 2423.84,-861.44"/>
<polygon fill="#757575" stroke="#757575" points="2423.89,-864.94 2433.89,-861.44 2423.89,-857.94 2423.89,-864.94"/>
</g>
<!-- models/receiver.ts&#45;&gt;models/action.ts -->
<g id="edge12" class="edge">
<title>models/receiver.ts&#45;&gt;models/action.ts</title>
<path fill="none" stroke="#757575" d="M1995.36,-779.44C2043.87,-779.44 2109.5,-779.44 2158.68,-779.44"/>
<polygon fill="#757575" stroke="#757575" points="2158.92,-782.94 2168.92,-779.44 2158.92,-775.94 2158.92,-782.94"/>
</g>
<!-- models/receiver.ts&#45;&gt;models/receiver&#45;data.ts -->
<g id="edge14" class="edge">
<title>models/receiver.ts&#45;&gt;models/receiver&#45;data.ts</title>
<path fill="none" stroke="#757575" d="M1971.48,-790.96C2003.68,-799.94 2048.91,-813.09 2088,-826.44 2104.25,-831.99 2107.53,-835.61 2124,-840.44 2133.05,-843.09 2142.64,-845.52 2152.2,-847.72"/>
<polygon fill="#757575" stroke="#757575" points="2151.6,-851.17 2162.12,-849.91 2153.11,-844.33 2151.6,-851.17"/>
</g>
<!-- models/receiver.ts&#45;&gt;models/evaluated&#45;data.ts -->
<g id="edge13" class="edge">
<title>models/receiver.ts&#45;&gt;models/evaluated&#45;data.ts</title>
<path fill="none" stroke="#757575" d="M1956.13,-767.87C1993.22,-752.73 2062.22,-727.02 2124,-717.44 2216.23,-703.13 2240.67,-716.81 2334,-717.44 2350.7,-717.55 2368.46,-717.74 2385.67,-717.95"/>
<polygon fill="#757575" stroke="#757575" points="2385.69,-721.45 2395.73,-718.07 2385.78,-714.45 2385.69,-721.45"/>
</g>
<!-- models/receiver&#45;event.ts -->
<g id="node16" class="node">
<title>models/receiver&#45;event.ts</title>
<path fill="none" stroke="#cfffac" d="M2307.83,-831.94C2307.83,-831.94 2150.17,-831.94 2150.17,-831.94 2146.33,-831.94 2142.5,-828.11 2142.5,-824.27 2142.5,-824.27 2142.5,-816.61 2142.5,-816.61 2142.5,-812.77 2146.33,-808.94 2150.17,-808.94 2150.17,-808.94 2307.83,-808.94 2307.83,-808.94 2311.67,-808.94 2315.5,-812.77 2315.5,-816.61 2315.5,-816.61 2315.5,-824.27 2315.5,-824.27 2315.5,-828.11 2311.67,-831.94 2307.83,-831.94"/>
<text text-anchor="middle" x="2229" y="-816.74" font-family="Arial" font-size="14.00" fill="#cfffac">models/receiver&#45;event.ts</text>
</g>
<!-- models/receiver.ts&#45;&gt;models/receiver&#45;event.ts -->
<g id="edge15" class="edge">
<title>models/receiver.ts&#45;&gt;models/receiver&#45;event.ts</title>
<path fill="none" stroke="#757575" d="M1995.36,-788.54C2036.06,-794.12 2088.83,-801.36 2133.82,-807.52"/>
<polygon fill="#757575" stroke="#757575" points="2133.5,-811.01 2143.88,-808.9 2134.45,-804.08 2133.5,-811.01"/>
</g>
<!-- services/firebasemessaging.ts -->
<g id="node17" class="node">
<title>services/firebasemessaging.ts</title>
<path fill="none" stroke="#cfffac" d="M2326.33,-749.94C2326.33,-749.94 2131.67,-749.94 2131.67,-749.94 2127.83,-749.94 2124,-746.11 2124,-742.27 2124,-742.27 2124,-734.61 2124,-734.61 2124,-730.77 2127.83,-726.94 2131.67,-726.94 2131.67,-726.94 2326.33,-726.94 2326.33,-726.94 2330.17,-726.94 2334,-730.77 2334,-734.61 2334,-734.61 2334,-742.27 2334,-742.27 2334,-746.11 2330.17,-749.94 2326.33,-749.94"/>
<text text-anchor="middle" x="2229" y="-734.74" font-family="Arial" font-size="14.00" fill="#cfffac">services/firebasemessaging.ts</text>
</g>
<!-- models/receiver.ts&#45;&gt;services/firebasemessaging.ts -->
<g id="edge16" class="edge">
<title>models/receiver.ts&#45;&gt;services/firebasemessaging.ts</title>
<path fill="none" stroke="#757575" d="M1995.36,-770.34C2036.06,-764.76 2088.83,-757.52 2133.82,-751.35"/>
<polygon fill="#757575" stroke="#757575" points="2134.45,-754.8 2143.88,-749.97 2133.5,-747.86 2134.45,-754.8"/>
</g>
<!-- services/websocketmessaging.ts -->
<g id="node18" class="node">
<title>services/websocketmessaging.ts</title>
<path fill="none" stroke="#c6c5fe" d="M2589.33,-636.94C2589.33,-636.94 2377.67,-636.94 2377.67,-636.94 2373.83,-636.94 2370,-633.11 2370,-629.27 2370,-629.27 2370,-621.61 2370,-621.61 2370,-617.77 2373.83,-613.94 2377.67,-613.94 2377.67,-613.94 2589.33,-613.94 2589.33,-613.94 2593.17,-613.94 2597,-617.77 2597,-621.61 2597,-621.61 2597,-629.27 2597,-629.27 2597,-633.11 2593.17,-636.94 2589.33,-636.94"/>
<text text-anchor="middle" x="2483.5" y="-621.74" font-family="Arial" font-size="14.00" fill="#c6c5fe">services/websocketmessaging.ts</text>
</g>
<!-- models/receiver.ts&#45;&gt;services/websocketmessaging.ts -->
<g id="edge17" class="edge">
<title>models/receiver.ts&#45;&gt;services/websocketmessaging.ts</title>
<path fill="none" stroke="#757575" d="M1961.35,-767.86C1993.53,-756.3 2044.28,-737.91 2088,-721.44 2104.06,-715.39 2107.61,-712.53 2124,-707.44 2231.27,-674.11 2260.4,-674.05 2370,-649.44 2385.27,-646.01 2401.72,-642.43 2417.21,-639.12"/>
<polygon fill="#757575" stroke="#757575" points="2418.18,-642.49 2427.23,-636.98 2416.72,-635.65 2418.18,-642.49"/>
</g>
<!-- util/log.ts -->
<g id="node19" class="node">
<title>util/log.ts</title>
<path fill="none" stroke="#c6c5fe" d="M2257.33,-140.94C2257.33,-140.94 2200.67,-140.94 2200.67,-140.94 2196.83,-140.94 2193,-137.11 2193,-133.27 2193,-133.27 2193,-125.61 2193,-125.61 2193,-121.77 2196.83,-117.94 2200.67,-117.94 2200.67,-117.94 2257.33,-117.94 2257.33,-117.94 2261.17,-117.94 2265,-121.77 2265,-125.61 2265,-125.61 2265,-133.27 2265,-133.27 2265,-137.11 2261.17,-140.94 2257.33,-140.94"/>
<text text-anchor="middle" x="2229" y="-125.74" font-family="Arial" font-size="14.00" fill="#c6c5fe">util/log.ts</text>
</g>
<!-- models/receiver.ts&#45;&gt;util/log.ts -->
<g id="edge18" class="edge">
<title>models/receiver.ts&#45;&gt;util/log.ts</title>
<path fill="none" stroke="#757575" d="M1935.42,-767.79C1957.7,-727.2 2033.27,-588.07 2088,-469.44 2142.78,-350.7 2199.53,-204.29 2220.03,-150.52"/>
<polygon fill="#757575" stroke="#757575" points="2223.35,-151.63 2223.63,-141.04 2216.81,-149.14 2223.35,-151.63"/>
</g>
<!-- models/transformer.ts&#45;&gt;models/connection&#45;response.ts -->
<g id="edge26" class="edge">
<title>models/transformer.ts&#45;&gt;models/connection&#45;response.ts</title>
<path fill="none" stroke="#757575" d="M2005.72,-455.7C2134.08,-468.63 2397.89,-505.84 2597,-604.44 2647.45,-629.42 2696.39,-674.71 2721.87,-700.37"/>
<polygon fill="#757575" stroke="#757575" points="2719.5,-702.96 2728.99,-707.66 2724.5,-698.06 2719.5,-702.96"/>
</g>
<!-- models/transformer.ts&#45;&gt;models/transformation.ts -->
<g id="edge27" class="edge">
<title>models/transformer.ts&#45;&gt;models/transformation.ts</title>
<path fill="none" stroke="#757575" d="M2005.87,-455.62C2032.5,-459.42 2062.14,-465.55 2088,-475.44 2105.73,-482.22 2107.84,-488.47 2124,-498.44 2149.24,-514.02 2178.26,-531.26 2199.22,-543.6"/>
<polygon fill="#757575" stroke="#757575" points="2197.56,-546.69 2207.95,-548.74 2201.1,-540.65 2197.56,-546.69"/>
</g>
<!-- models/evaluated&#45;data.ts&#45;&gt;models/connection&#45;response.ts -->
<g id="edge5" class="edge">
<title>models/evaluated&#45;data.ts&#45;&gt;models/connection&#45;response.ts</title>
<path fill="none" stroke="#757575" d="M2571,-719.44C2587.58,-719.44 2605.2,-719.44 2622.56,-719.44"/>
<polygon fill="#757575" stroke="#757575" points="2622.74,-722.94 2632.74,-719.44 2622.74,-715.94 2622.74,-722.94"/>
</g>
<!-- models/event.ts -->
<g id="node10" class="node">
<title>models/event.ts</title>
<path fill="none" stroke="#cfffac" d="M1658.83,-220.94C1658.83,-220.94 1557.17,-220.94 1557.17,-220.94 1553.33,-220.94 1549.5,-217.11 1549.5,-213.27 1549.5,-213.27 1549.5,-205.61 1549.5,-205.61 1549.5,-201.77 1553.33,-197.94 1557.17,-197.94 1557.17,-197.94 1658.83,-197.94 1658.83,-197.94 1662.67,-197.94 1666.5,-201.77 1666.5,-205.61 1666.5,-205.61 1666.5,-213.27 1666.5,-213.27 1666.5,-217.11 1662.67,-220.94 1658.83,-220.94"/>
<text text-anchor="middle" x="1608" y="-205.74" font-family="Arial" font-size="14.00" fill="#cfffac">models/event.ts</text>
</g>
<!-- models/inventory/item.ts -->
<g id="node11" class="node">
<title>models/inventory/item.ts</title>
<path fill="none" stroke="#c6c5fe" d="M1358.83,-649.94C1358.83,-649.94 1204.17,-649.94 1204.17,-649.94 1200.33,-649.94 1196.5,-646.11 1196.5,-642.27 1196.5,-642.27 1196.5,-634.61 1196.5,-634.61 1196.5,-630.77 1200.33,-626.94 1204.17,-626.94 1204.17,-626.94 1358.83,-626.94 1358.83,-626.94 1362.67,-626.94 1366.5,-630.77 1366.5,-634.61 1366.5,-634.61 1366.5,-642.27 1366.5,-642.27 1366.5,-646.11 1362.67,-649.94 1358.83,-649.94"/>
<text text-anchor="middle" x="1281.5" y="-634.74" font-family="Arial" font-size="14.00" fill="#c6c5fe">models/inventory/item.ts</text>
</g>
<!-- models/inventory/location.ts -->
<g id="node12" class="node">
<title>models/inventory/location.ts</title>
<path fill="none" stroke="#cfffac" d="M1695.83,-690.94C1695.83,-690.94 1520.17,-690.94 1520.17,-690.94 1516.33,-690.94 1512.5,-687.11 1512.5,-683.27 1512.5,-683.27 1512.5,-675.61 1512.5,-675.61 1512.5,-671.77 1516.33,-667.94 1520.17,-667.94 1520.17,-667.94 1695.83,-667.94 1695.83,-667.94 1699.67,-667.94 1703.5,-671.77 1703.5,-675.61 1703.5,-675.61 1703.5,-683.27 1703.5,-683.27 1703.5,-687.11 1699.67,-690.94 1695.83,-690.94"/>
<text text-anchor="middle" x="1608" y="-675.74" font-family="Arial" font-size="14.00" fill="#cfffac">models/inventory/location.ts</text>
</g>
<!-- models/inventory/item.ts&#45;&gt;models/inventory/location.ts -->
<g id="edge6" class="edge">
<title>models/inventory/item.ts&#45;&gt;models/inventory/location.ts</title>
<path fill="none" stroke="#757575" d="M1366.91,-649.1C1409.42,-654.48 1461.28,-661.03 1505.9,-666.67"/>
<polygon fill="#757575" stroke="#757575" points="1505.54,-670.15 1515.9,-667.93 1506.41,-663.2 1505.54,-670.15"/>
</g>
<!-- models/inventory/order.ts -->
<g id="node13" class="node">
<title>models/inventory/order.ts</title>
<path fill="none" stroke="#cfffac" d="M1688.33,-649.94C1688.33,-649.94 1527.67,-649.94 1527.67,-649.94 1523.83,-649.94 1520,-646.11 1520,-642.27 1520,-642.27 1520,-634.61 1520,-634.61 1520,-630.77 1523.83,-626.94 1527.67,-626.94 1527.67,-626.94 1688.33,-626.94 1688.33,-626.94 1692.17,-626.94 1696,-630.77 1696,-634.61 1696,-634.61 1696,-642.27 1696,-642.27 1696,-646.11 1692.17,-649.94 1688.33,-649.94"/>
<text text-anchor="middle" x="1608" y="-634.74" font-family="Arial" font-size="14.00" fill="#cfffac">models/inventory/order.ts</text>
</g>
<!-- models/inventory/item.ts&#45;&gt;models/inventory/order.ts -->
<g id="edge7" class="edge">
<title>models/inventory/item.ts&#45;&gt;models/inventory/order.ts</title>
<path fill="none" stroke="#757575" d="M1366.91,-638.44C1410.64,-638.44 1464.27,-638.44 1509.73,-638.44"/>
<polygon fill="#757575" stroke="#757575" points="1509.9,-641.94 1519.9,-638.44 1509.9,-634.94 1509.9,-641.94"/>
</g>
<!-- services/websocketmessaging.ts&#45;&gt;models/connection&#45;response.ts -->
<g id="edge88" class="edge">
<title>services/websocketmessaging.ts&#45;&gt;models/connection&#45;response.ts</title>
<path fill="none" stroke="#757575" d="M2551.87,-637C2566.91,-640.35 2582.65,-644.48 2597,-649.44 2638.31,-663.71 2683.15,-687.06 2711.39,-702.83"/>
<polygon fill="#757575" stroke="#757575" points="2709.88,-705.99 2720.3,-707.86 2713.32,-699.89 2709.88,-705.99"/>
</g>
<!-- util/btoaatob.ts -->
<g id="node57" class="node">
<title>util/btoaatob.ts</title>
<path fill="none" stroke="#cfffac" d="M2529.83,-140.94C2529.83,-140.94 2437.17,-140.94 2437.17,-140.94 2433.33,-140.94 2429.5,-137.11 2429.5,-133.27 2429.5,-133.27 2429.5,-125.61 2429.5,-125.61 2429.5,-121.77 2433.33,-117.94 2437.17,-117.94 2437.17,-117.94 2529.83,-117.94 2529.83,-117.94 2533.67,-117.94 2537.5,-121.77 2537.5,-125.61 2537.5,-125.61 2537.5,-133.27 2537.5,-133.27 2537.5,-137.11 2533.67,-140.94 2529.83,-140.94"/>
<text text-anchor="middle" x="2483.5" y="-125.74" font-family="Arial" font-size="14.00" fill="#cfffac">util/btoaatob.ts</text>
</g>
<!-- util/log.ts&#45;&gt;util/btoaatob.ts -->
<g id="edge89" class="edge">
<title>util/log.ts&#45;&gt;util/btoaatob.ts</title>
<path fill="none" stroke="#757575" d="M2265.11,-129.44C2304.83,-129.44 2370.33,-129.44 2419.07,-129.44"/>
<polygon fill="#757575" stroke="#757575" points="2419.2,-132.94 2429.2,-129.44 2419.2,-125.94 2419.2,-132.94"/>
</g>
<!-- models/sender.ts -->
<g id="node20" class="node">
<title>models/sender.ts</title>
<path fill="none" stroke="#c6c5fe" d="M1337.33,-372.94C1337.33,-372.94 1225.67,-372.94 1225.67,-372.94 1221.83,-372.94 1218,-369.11 1218,-365.27 1218,-365.27 1218,-357.61 1218,-357.61 1218,-353.77 1221.83,-349.94 1225.67,-349.94 1225.67,-349.94 1337.33,-349.94 1337.33,-349.94 1341.17,-349.94 1345,-353.77 1345,-357.61 1345,-357.61 1345,-365.27 1345,-365.27 1345,-369.11 1341.17,-372.94 1337.33,-372.94"/>
<text text-anchor="middle" x="1281.5" y="-357.74" font-family="Arial" font-size="14.00" fill="#c6c5fe">models/sender.ts</text>
</g>
<!-- models/sender.ts&#45;&gt;models/battery.ts -->
<g id="edge19" class="edge">
<title>models/sender.ts&#45;&gt;models/battery.ts</title>
<path fill="none" stroke="#757575" d="M1305.83,-349.86C1342.81,-331.92 1417.52,-297.28 1484,-276.44 1500.45,-271.28 1518.46,-266.83 1535.5,-263.14"/>
<polygon fill="#757575" stroke="#757575" points="1536.34,-266.54 1545.41,-261.06 1534.9,-259.69 1536.34,-266.54"/>
</g>
<!-- models/sender.ts&#45;&gt;models/connection&#45;response.ts -->
<g id="edge20" class="edge">
<title>models/sender.ts&#45;&gt;models/connection&#45;response.ts</title>
<path fill="none" stroke="#757575" d="M1345.27,-366.23C1376.32,-369.12 1414.28,-373.42 1448,-379.44 1464.24,-382.34 1467.71,-385.88 1484,-388.44 1729.98,-427.01 2387.55,-382.8 2597,-517.44 2667.62,-562.84 2713.74,-656.61 2731.62,-698.47"/>
<polygon fill="#757575" stroke="#757575" points="2728.4,-699.82 2735.47,-707.7 2734.86,-697.13 2728.4,-699.82"/>
</g>
<!-- models/sender.ts&#45;&gt;models/connection.ts -->
<g id="edge21" class="edge">
<title>models/sender.ts&#45;&gt;models/connection.ts</title>
<path fill="none" stroke="#757575" d="M1345.23,-367.81C1380.83,-374.83 1423.12,-389.56 1448,-420.44 1526.45,-517.79 1417.46,-593.59 1484,-699.44 1503.06,-729.76 1538.29,-750.91 1566.18,-763.81"/>
<polygon fill="#757575" stroke="#757575" points="1564.76,-767.01 1575.32,-767.87 1567.6,-760.61 1564.76,-767.01"/>
</g>
<!-- models/sender.ts&#45;&gt;models/transformation.ts -->
<g id="edge23" class="edge">
<title>models/sender.ts&#45;&gt;models/transformation.ts</title>
<path fill="none" stroke="#757575" d="M1345.11,-358.04C1378.51,-359.27 1418.65,-365.98 1448,-387.44 1476.88,-408.56 1454.9,-438.62 1484,-459.44 1510.13,-478.14 1937.46,-527.96 2132.4,-549.86"/>
<polygon fill="#757575" stroke="#757575" points="2132.03,-553.34 2142.36,-550.98 2132.81,-546.38 2132.03,-553.34"/>
</g>
<!-- models/sender.ts&#45;&gt;models/transformer.ts -->
<g id="edge24" class="edge">
<title>models/sender.ts&#45;&gt;models/transformer.ts</title>
<path fill="none" stroke="#757575" d="M1345.37,-362.34C1377.51,-364.98 1416.39,-371.64 1448,-387.44 1467.96,-397.42 1463.59,-413.42 1484,-422.44 1599.14,-473.32 1747.75,-470.25 1840.21,-461.38"/>
<polygon fill="#757575" stroke="#757575" points="1840.76,-464.84 1850.36,-460.36 1840.06,-457.87 1840.76,-464.84"/>
</g>
<!-- models/sender.ts&#45;&gt;models/event.ts -->
<g id="edge22" class="edge">
<title>models/sender.ts&#45;&gt;models/event.ts</title>
<path fill="none" stroke="#757575" d="M1296.02,-349.6C1326.91,-323.26 1406.04,-259.73 1484,-229.44 1501.36,-222.7 1520.94,-218.23 1539.3,-215.26"/>
<polygon fill="#757575" stroke="#757575" points="1539.97,-218.7 1549.35,-213.77 1538.94,-211.78 1539.97,-218.7"/>
</g>
<!-- models/sender.ts&#45;&gt;util/log.ts -->
<g id="edge25" class="edge">
<title>models/sender.ts&#45;&gt;util/log.ts</title>
<path fill="none" stroke="#757575" d="M1324.73,-349.92C1365.35,-339.09 1428.58,-322.88 1484,-311.44 1593.41,-288.86 1622.55,-292.83 1732,-270.44 1891.57,-237.8 1932.59,-232.18 2088,-183.44 2123.8,-172.21 2163.63,-156.53 2191.62,-144.95"/>
<polygon fill="#757575" stroke="#757575" points="2193.12,-148.12 2201,-141.04 2190.43,-141.66 2193.12,-148.12"/>
</g>
<!-- models/test.ts -->
<g id="node21" class="node">
<title>models/test.ts</title>
<path fill="none" stroke="#cfffac" d="M149.33,-1204.94C149.33,-1204.94 58.67,-1204.94 58.67,-1204.94 54.83,-1204.94 51,-1201.11 51,-1197.27 51,-1197.27 51,-1189.61 51,-1189.61 51,-1185.77 54.83,-1181.94 58.67,-1181.94 58.67,-1181.94 149.33,-1181.94 149.33,-1181.94 153.17,-1181.94 157,-1185.77 157,-1189.61 157,-1189.61 157,-1197.27 157,-1197.27 157,-1201.11 153.17,-1204.94 149.33,-1204.94"/>
<text text-anchor="middle" x="104" y="-1189.74" font-family="Arial" font-size="14.00" fill="#cfffac">models/test.ts</text>
</g>
<!-- models/timer.ts -->
<g id="node22" class="node">
<title>models/timer.ts</title>
<path fill="none" stroke="#cfffac" d="M1330.83,-793.94C1330.83,-793.94 1232.17,-793.94 1232.17,-793.94 1228.33,-793.94 1224.5,-790.11 1224.5,-786.27 1224.5,-786.27 1224.5,-778.61 1224.5,-778.61 1224.5,-774.77 1228.33,-770.94 1232.17,-770.94 1232.17,-770.94 1330.83,-770.94 1330.83,-770.94 1334.67,-770.94 1338.5,-774.77 1338.5,-778.61 1338.5,-778.61 1338.5,-786.27 1338.5,-786.27 1338.5,-790.11 1334.67,-793.94 1330.83,-793.94"/>
<text text-anchor="middle" x="1281.5" y="-778.74" font-family="Arial" font-size="14.00" fill="#cfffac">models/timer.ts</text>
</g>
<!-- node&#45;red/glboal&#45;script.ts -->
<g id="node23" class="node">
<title>node&#45;red/glboal&#45;script.ts</title>
<path fill="none" stroke="#c6c5fe" d="M1000.83,-1299.94C1000.83,-1299.94 846.17,-1299.94 846.17,-1299.94 842.33,-1299.94 838.5,-1296.11 838.5,-1292.27 838.5,-1292.27 838.5,-1284.61 838.5,-1284.61 838.5,-1280.77 842.33,-1276.94 846.17,-1276.94 846.17,-1276.94 1000.83,-1276.94 1000.83,-1276.94 1004.67,-1276.94 1008.5,-1280.77 1008.5,-1284.61 1008.5,-1284.61 1008.5,-1292.27 1008.5,-1292.27 1008.5,-1296.11 1004.67,-1299.94 1000.83,-1299.94"/>
<text text-anchor="middle" x="923.5" y="-1284.74" font-family="Arial" font-size="14.00" fill="#c6c5fe">node&#45;red/glboal&#45;script.ts</text>
</g>
<!-- node&#45;red/red&#45;ui.d.ts -->
<g id="node24" class="node">
<title>node&#45;red/red&#45;ui.d.ts</title>
<path fill="none" stroke="#cfffac" d="M1344.33,-1299.94C1344.33,-1299.94 1218.67,-1299.94 1218.67,-1299.94 1214.83,-1299.94 1211,-1296.11 1211,-1292.27 1211,-1292.27 1211,-1284.61 1211,-1284.61 1211,-1280.77 1214.83,-1276.94 1218.67,-1276.94 1218.67,-1276.94 1344.33,-1276.94 1344.33,-1276.94 1348.17,-1276.94 1352,-1280.77 1352,-1284.61 1352,-1284.61 1352,-1292.27 1352,-1292.27 1352,-1296.11 1348.17,-1299.94 1344.33,-1299.94"/>
<text text-anchor="middle" x="1281.5" y="-1284.74" font-family="Arial" font-size="14.00" fill="#cfffac">node&#45;red/red&#45;ui.d.ts</text>
</g>
<!-- node&#45;red/glboal&#45;script.ts&#45;&gt;node&#45;red/red&#45;ui.d.ts -->
<g id="edge28" class="edge">
<title>node&#45;red/glboal&#45;script.ts&#45;&gt;node&#45;red/red&#45;ui.d.ts</title>
<path fill="none" stroke="#757575" d="M1008.87,-1288.44C1066.96,-1288.44 1143.65,-1288.44 1200.73,-1288.44"/>
<polygon fill="#757575" stroke="#757575" points="1200.79,-1291.94 1210.79,-1288.44 1200.79,-1284.94 1200.79,-1291.94"/>
</g>
<!-- node&#45;red/node&#45;red&#45;registration.ts -->
<g id="node25" class="node">
<title>node&#45;red/node&#45;red&#45;registration.ts</title>
<path fill="none" stroke="#c6c5fe" d="M722.83,-1299.94C722.83,-1299.94 513.17,-1299.94 513.17,-1299.94 509.33,-1299.94 505.5,-1296.11 505.5,-1292.27 505.5,-1292.27 505.5,-1284.61 505.5,-1284.61 505.5,-1280.77 509.33,-1276.94 513.17,-1276.94 513.17,-1276.94 722.83,-1276.94 722.83,-1276.94 726.67,-1276.94 730.5,-1280.77 730.5,-1284.61 730.5,-1284.61 730.5,-1292.27 730.5,-1292.27 730.5,-1296.11 726.67,-1299.94 722.83,-1299.94"/>
<text text-anchor="middle" x="618" y="-1284.74" font-family="Arial" font-size="14.00" fill="#c6c5fe">node&#45;red/node&#45;red&#45;registration.ts</text>
</g>
<!-- node&#45;red/node&#45;red&#45;registration.ts&#45;&gt;node&#45;red/glboal&#45;script.ts -->
<g id="edge29" class="edge">
<title>node&#45;red/node&#45;red&#45;registration.ts&#45;&gt;node&#45;red/glboal&#45;script.ts</title>
<path fill="none" stroke="#757575" d="M730.72,-1288.44C762.61,-1288.44 797.04,-1288.44 827.8,-1288.44"/>
<polygon fill="#757575" stroke="#757575" points="828.09,-1291.94 838.09,-1288.44 828.09,-1284.94 828.09,-1291.94"/>
</g>
<!-- node&#45;red/node&#45;red&#45;registration.ts&#45;&gt;node&#45;red/red&#45;ui.d.ts -->
<g id="edge30" class="edge">
<title>node&#45;red/node&#45;red&#45;registration.ts&#45;&gt;node&#45;red/red&#45;ui.d.ts</title>
<path fill="none" stroke="#757575" d="M686.29,-1276.92C711.8,-1273.09 741.16,-1269.32 768,-1267.44 905.88,-1257.77 940.96,-1260.27 1079,-1267.44 1119.13,-1269.52 1163.58,-1273.93 1200.5,-1278.17"/>
<polygon fill="#757575" stroke="#757575" points="1200.36,-1281.68 1210.7,-1279.36 1201.17,-1274.73 1200.36,-1281.68"/>
</g>
<!-- node&#45;red/register&#45;custom&#45;type.ts -->
<g id="node26" class="node">
<title>node&#45;red/register&#45;custom&#45;type.ts</title>
<path fill="none" stroke="#c6c5fe" d="M460.33,-1319.94C460.33,-1319.94 251.67,-1319.94 251.67,-1319.94 247.83,-1319.94 244,-1316.11 244,-1312.27 244,-1312.27 244,-1304.61 244,-1304.61 244,-1300.77 247.83,-1296.94 251.67,-1296.94 251.67,-1296.94 460.33,-1296.94 460.33,-1296.94 464.17,-1296.94 468,-1300.77 468,-1304.61 468,-1304.61 468,-1312.27 468,-1312.27 468,-1316.11 464.17,-1319.94 460.33,-1319.94"/>
<text text-anchor="middle" x="356" y="-1304.74" font-family="Arial" font-size="14.00" fill="#c6c5fe">node&#45;red/register&#45;custom&#45;type.ts</text>
</g>
<!-- node&#45;red/register&#45;custom&#45;type.ts&#45;&gt;node&#45;red/red&#45;ui.d.ts -->
<g id="edge32" class="edge">
<title>node&#45;red/register&#45;custom&#45;type.ts&#45;&gt;node&#45;red/red&#45;ui.d.ts</title>
<path fill="none" stroke="#757575" d="M468.1,-1312.26C609.95,-1316.3 862.91,-1320.67 1079,-1309.44 1119.13,-1307.35 1163.58,-1302.95 1200.5,-1298.71"/>
<polygon fill="#757575" stroke="#757575" points="1201.17,-1302.15 1210.7,-1297.52 1200.36,-1295.2 1201.17,-1302.15"/>
</g>
<!-- node&#45;red/register&#45;custom&#45;type.ts&#45;&gt;node&#45;red/node&#45;red&#45;registration.ts -->
<g id="edge31" class="edge">
<title>node&#45;red/register&#45;custom&#45;type.ts&#45;&gt;node&#45;red/node&#45;red&#45;registration.ts</title>
<path fill="none" stroke="#757575" d="M468.02,-1299.9C476.94,-1299.21 485.99,-1298.52 494.99,-1297.82"/>
<polygon fill="#757575" stroke="#757575" points="495.41,-1301.3 505.11,-1297.05 494.87,-1294.32 495.41,-1301.3"/>
</g>
<!-- node&#45;red/server.ts -->
<g id="node27" class="node">
<title>node&#45;red/server.ts</title>
<path fill="none" stroke="#c6c5fe" d="M162.83,-1319.94C162.83,-1319.94 45.17,-1319.94 45.17,-1319.94 41.33,-1319.94 37.5,-1316.11 37.5,-1312.27 37.5,-1312.27 37.5,-1304.61 37.5,-1304.61 37.5,-1300.77 41.33,-1296.94 45.17,-1296.94 45.17,-1296.94 162.83,-1296.94 162.83,-1296.94 166.67,-1296.94 170.5,-1300.77 170.5,-1304.61 170.5,-1304.61 170.5,-1312.27 170.5,-1312.27 170.5,-1316.11 166.67,-1319.94 162.83,-1319.94"/>
<text text-anchor="middle" x="104" y="-1304.74" font-family="Arial" font-size="14.00" fill="#c6c5fe">node&#45;red/server.ts</text>
</g>
<!-- node&#45;red/server.ts&#45;&gt;node&#45;red/register&#45;custom&#45;type.ts -->
<g id="edge33" class="edge">
<title>node&#45;red/server.ts&#45;&gt;node&#45;red/register&#45;custom&#45;type.ts</title>
<path fill="none" stroke="#757575" d="M170.68,-1308.44C190.04,-1308.44 211.87,-1308.44 233.56,-1308.44"/>
<polygon fill="#757575" stroke="#757575" points="233.84,-1311.94 243.84,-1308.44 233.84,-1304.94 233.84,-1311.94"/>
</g>
<!-- resources/connection.r.ts -->
<g id="node28" class="node">
<title>resources/connection.r.ts</title>
<path fill="none" stroke="#c6c5fe" d="M436.33,-802.94C436.33,-802.94 275.67,-802.94 275.67,-802.94 271.83,-802.94 268,-799.11 268,-795.27 268,-795.27 268,-787.61 268,-787.61 268,-783.77 271.83,-779.94 275.67,-779.94 275.67,-779.94 436.33,-779.94 436.33,-779.94 440.17,-779.94 444,-783.77 444,-787.61 444,-787.61 444,-795.27 444,-795.27 444,-799.11 440.17,-802.94 436.33,-802.94"/>
<text text-anchor="middle" x="356" y="-787.74" font-family="Arial" font-size="14.00" fill="#c6c5fe">resources/connection.r.ts</text>
</g>
<!-- resources/connection.r.ts&#45;&gt;models/connection.ts -->
<g id="edge34" class="edge">
<title>resources/connection.r.ts&#45;&gt;models/connection.ts</title>
<path fill="none" stroke="#757575" d="M444.12,-797.15C629.24,-808.22 1075.33,-829.25 1448,-802.44 1475.63,-800.45 1505.75,-796.54 1532.27,-792.51"/>
<polygon fill="#757575" stroke="#757575" points="1532.9,-795.95 1542.25,-790.96 1531.83,-789.03 1532.9,-795.95"/>
</g>
<!-- resources/connection.r.ts&#45;&gt;models/receiver.ts -->
<g id="edge35" class="edge">
<title>resources/connection.r.ts&#45;&gt;models/receiver.ts</title>
<path fill="none" stroke="#757575" d="M405.02,-802.99C433.59,-809.34 470.66,-816.67 504,-820.44 620.64,-833.62 650.63,-826.66 768,-828.44 988.96,-831.79 1724.75,-825.29 1732,-824.44 1782.79,-818.5 1839.64,-804.51 1878.79,-793.7"/>
<polygon fill="#757575" stroke="#757575" points="1879.91,-797.02 1888.59,-790.95 1878.02,-790.28 1879.91,-797.02"/>
</g>
<!-- resources/connection.r.ts&#45;&gt;models/sender.ts -->
<g id="edge36" class="edge">
<title>resources/connection.r.ts&#45;&gt;models/sender.ts</title>
<path fill="none" stroke="#757575" d="M374.25,-779.93C447.02,-731.37 725.49,-545.24 732,-536.44 764.12,-493.05 726.44,-454.89 768,-420.44 776.39,-413.49 1068.25,-383 1207.71,-368.79"/>
<polygon fill="#757575" stroke="#757575" points="1208.29,-372.25 1217.88,-367.75 1207.58,-365.28 1208.29,-372.25"/>
</g>
<!-- resources/frontend&#45;update.ts -->
<g id="node29" class="node">
<title>resources/frontend&#45;update.ts</title>
<path fill="none" stroke="#c6c5fe" d="M710.33,-725.94C710.33,-725.94 525.67,-725.94 525.67,-725.94 521.83,-725.94 518,-722.11 518,-718.27 518,-718.27 518,-710.61 518,-710.61 518,-706.77 521.83,-702.94 525.67,-702.94 525.67,-702.94 710.33,-702.94 710.33,-702.94 714.17,-702.94 718,-706.77 718,-710.61 718,-710.61 718,-718.27 718,-718.27 718,-722.11 714.17,-725.94 710.33,-725.94"/>
<text text-anchor="middle" x="618" y="-710.74" font-family="Arial" font-size="14.00" fill="#c6c5fe">resources/frontend&#45;update.ts</text>
</g>
<!-- resources/connection.r.ts&#45;&gt;resources/frontend&#45;update.ts -->
<g id="edge37" class="edge">
<title>resources/connection.r.ts&#45;&gt;resources/frontend&#45;update.ts</title>
<path fill="none" stroke="#757575" d="M395.92,-779.91C441.88,-766.3 518.34,-743.66 568.21,-728.89"/>
<polygon fill="#757575" stroke="#757575" points="569.21,-732.24 577.81,-726.05 567.23,-725.53 569.21,-732.24"/>
</g>
<!-- resources/frontend&#45;update.ts&#45;&gt;models/receiver.ts -->
<g id="edge39" class="edge">
<title>resources/frontend&#45;update.ts&#45;&gt;models/receiver.ts</title>
<path fill="none" stroke="#757575" d="M634.48,-725.99C660.47,-744.59 715.19,-780.51 768,-794.44 1182.28,-903.71 1304.23,-823.58 1732,-799.44 1771.29,-797.22 1814.87,-792.93 1850.85,-788.88"/>
<polygon fill="#757575" stroke="#757575" points="1851.24,-792.36 1860.78,-787.75 1850.45,-785.41 1851.24,-792.36"/>
</g>
<!-- resources/frontend&#45;update.ts&#45;&gt;models/inventory/item.ts -->
<g id="edge38" class="edge">
<title>resources/frontend&#45;update.ts&#45;&gt;models/inventory/item.ts</title>
<path fill="none" stroke="#757575" d="M695.92,-702.86C708.43,-699.28 720.91,-694.58 732,-688.44 751.79,-677.48 747.22,-661.38 768,-652.44 840.64,-621.18 1059.35,-626.57 1186.36,-632.79"/>
<polygon fill="#757575" stroke="#757575" points="1186.31,-636.29 1196.47,-633.3 1186.66,-629.3 1186.31,-636.29"/>
</g>
<!-- resources/frontend&#45;update.ts&#45;&gt;models/timer.ts -->
<g id="edge40" class="edge">
<title>resources/frontend&#45;update.ts&#45;&gt;models/timer.ts</title>
<path fill="none" stroke="#757575" d="M643.36,-726.02C672.31,-739.14 722.45,-759.8 768,-768.44 925.73,-798.36 1115.61,-793.07 1214.03,-787.33"/>
<polygon fill="#757575" stroke="#757575" points="1214.36,-790.82 1224.13,-786.72 1213.94,-783.83 1214.36,-790.82"/>
</g>
<!-- resources/websocket&#45;response.d.ts -->
<g id="node31" class="node">
<title>resources/websocket&#45;response.d.ts</title>
<path fill="none" stroke="#c6c5fe" d="M1037.83,-725.94C1037.83,-725.94 809.17,-725.94 809.17,-725.94 805.33,-725.94 801.5,-722.11 801.5,-718.27 801.5,-718.27 801.5,-710.61 801.5,-710.61 801.5,-706.77 805.33,-702.94 809.17,-702.94 809.17,-702.94 1037.83,-702.94 1037.83,-702.94 1041.67,-702.94 1045.5,-706.77 1045.5,-710.61 1045.5,-710.61 1045.5,-718.27 1045.5,-718.27 1045.5,-722.11 1041.67,-725.94 1037.83,-725.94"/>
<text text-anchor="middle" x="923.5" y="-710.74" font-family="Arial" font-size="14.00" fill="#c6c5fe">resources/websocket&#45;response.d.ts</text>
</g>
<!-- resources/frontend&#45;update.ts&#45;&gt;resources/websocket&#45;response.d.ts -->
<g id="edge41" class="edge">
<title>resources/frontend&#45;update.ts&#45;&gt;resources/websocket&#45;response.d.ts</title>
<path fill="none" stroke="#757575" d="M718.38,-714.44C741.7,-714.44 766.91,-714.44 791.38,-714.44"/>
<polygon fill="#757575" stroke="#757575" points="791.45,-717.94 801.45,-714.44 791.45,-710.94 791.45,-717.94"/>
</g>
<!-- services/generic&#45;node/generic&#45;node&#45;service.ts -->
<g id="node32" class="node">
<title>services/generic&#45;node/generic&#45;node&#45;service.ts</title>
<path fill="none" stroke="#cfffac" d="M1071.33,-684.94C1071.33,-684.94 775.67,-684.94 775.67,-684.94 771.83,-684.94 768,-681.11 768,-677.27 768,-677.27 768,-669.61 768,-669.61 768,-665.77 771.83,-661.94 775.67,-661.94 775.67,-661.94 1071.33,-661.94 1071.33,-661.94 1075.17,-661.94 1079,-665.77 1079,-669.61 1079,-669.61 1079,-677.27 1079,-677.27 1079,-681.11 1075.17,-684.94 1071.33,-684.94"/>
<text text-anchor="middle" x="923.5" y="-669.74" font-family="Arial" font-size="14.00" fill="#cfffac">services/generic&#45;node/generic&#45;node&#45;service.ts</text>
</g>
<!-- resources/frontend&#45;update.ts&#45;&gt;services/generic&#45;node/generic&#45;node&#45;service.ts -->
<g id="edge42" class="edge">
<title>resources/frontend&#45;update.ts&#45;&gt;services/generic&#45;node/generic&#45;node&#45;service.ts</title>
<path fill="none" stroke="#757575" d="M699.4,-702.94C721.62,-699.81 745.74,-696.45 768,-693.44 785.53,-691.07 804.18,-688.61 822.24,-686.25"/>
<polygon fill="#757575" stroke="#757575" points="822.74,-689.72 832.2,-684.95 821.83,-682.77 822.74,-689.72"/>
</g>
<!-- services/sender&#45;loader.ts -->
<g id="node33" class="node">
<title>services/sender&#45;loader.ts</title>
<path fill="none" stroke="#c6c5fe" d="M1004.33,-372.94C1004.33,-372.94 842.67,-372.94 842.67,-372.94 838.83,-372.94 835,-369.11 835,-365.27 835,-365.27 835,-357.61 835,-357.61 835,-353.77 838.83,-349.94 842.67,-349.94 842.67,-349.94 1004.33,-349.94 1004.33,-349.94 1008.17,-349.94 1012,-353.77 1012,-357.61 1012,-357.61 1012,-365.27 1012,-365.27 1012,-369.11 1008.17,-372.94 1004.33,-372.94"/>
<text text-anchor="middle" x="923.5" y="-357.74" font-family="Arial" font-size="14.00" fill="#c6c5fe">services/sender&#45;loader.ts</text>
</g>
<!-- resources/frontend&#45;update.ts&#45;&gt;services/sender&#45;loader.ts -->
<g id="edge43" class="edge">
<title>resources/frontend&#45;update.ts&#45;&gt;services/sender&#45;loader.ts</title>
<path fill="none" stroke="#757575" d="M713,-702.86C720.09,-699.12 726.58,-694.39 732,-688.44 812.96,-599.62 693.39,-514.66 768,-420.44 785.46,-398.39 812.19,-384.57 838.53,-375.92"/>
<polygon fill="#757575" stroke="#757575" points="839.66,-379.23 848.19,-372.96 837.61,-372.54 839.66,-379.23"/>
</g>
<!-- resources/control&#45;keys.ws.ts -->
<g id="node30" class="node">
<title>resources/control&#45;keys.ws.ts</title>
<path fill="none" stroke="#cfffac" d="M194.83,-1360.94C194.83,-1360.94 13.17,-1360.94 13.17,-1360.94 9.33,-1360.94 5.5,-1357.11 5.5,-1353.27 5.5,-1353.27 5.5,-1345.61 5.5,-1345.61 5.5,-1341.77 9.33,-1337.94 13.17,-1337.94 13.17,-1337.94 194.83,-1337.94 194.83,-1337.94 198.67,-1337.94 202.5,-1341.77 202.5,-1345.61 202.5,-1345.61 202.5,-1353.27 202.5,-1353.27 202.5,-1357.11 198.67,-1360.94 194.83,-1360.94"/>
<text text-anchor="middle" x="104" y="-1345.74" font-family="Arial" font-size="14.00" fill="#cfffac">resources/control&#45;keys.ws.ts</text>
</g>
<!-- resources/websocket&#45;response.d.ts&#45;&gt;models/receiver.ts -->
<g id="edge65" class="edge">
<title>resources/websocket&#45;response.d.ts&#45;&gt;models/receiver.ts</title>
<path fill="none" stroke="#757575" d="M1045.71,-719.04C1203.79,-725.51 1488.85,-738.74 1732,-758.44 1771.24,-761.62 1814.82,-766.21 1850.81,-770.29"/>
<polygon fill="#757575" stroke="#757575" points="1850.41,-773.77 1860.74,-771.43 1851.21,-766.81 1850.41,-773.77"/>
</g>
<!-- resources/websocket&#45;response.d.ts&#45;&gt;models/inventory/item.ts -->
<g id="edge64" class="edge">
<title>resources/websocket&#45;response.d.ts&#45;&gt;models/inventory/item.ts</title>
<path fill="none" stroke="#757575" d="M1023.73,-702.92C1042.18,-700.22 1061.23,-697.06 1079,-693.44 1132.84,-682.48 1193.53,-665.23 1234.1,-652.97"/>
<polygon fill="#757575" stroke="#757575" points="1235.16,-656.31 1243.71,-650.05 1233.13,-649.61 1235.16,-656.31"/>
</g>
<!-- resources/websocket&#45;response.d.ts&#45;&gt;models/sender.ts -->
<g id="edge66" class="edge">
<title>resources/websocket&#45;response.d.ts&#45;&gt;models/sender.ts</title>
<path fill="none" stroke="#757575" d="M1045.83,-713.89C1058.2,-709.41 1069.64,-702.84 1079,-693.44 1165.37,-606.73 1038.07,-515.62 1115,-420.44 1137.59,-392.49 1174.44,-377.77 1207.64,-370.02"/>
<polygon fill="#757575" stroke="#757575" points="1208.76,-373.36 1217.8,-367.83 1207.29,-366.52 1208.76,-373.36"/>
</g>
<!-- resources/websocket&#45;response.d.ts&#45;&gt;models/timer.ts -->
<g id="edge67" class="edge">
<title>resources/websocket&#45;response.d.ts&#45;&gt;models/timer.ts</title>
<path fill="none" stroke="#757575" d="M996.53,-725.97C1022.55,-730.29 1052.14,-735.38 1079,-740.44 1125.78,-749.25 1178.44,-760.26 1218.19,-768.8"/>
<polygon fill="#757575" stroke="#757575" points="1217.49,-772.23 1228,-770.91 1218.96,-765.39 1217.49,-772.23"/>
</g>
<!-- services/generic&#45;node/typing/generic&#45;node&#45;type.ts -->
<g id="node43" class="node">
<title>services/generic&#45;node/typing/generic&#45;node&#45;type.ts</title>
<path fill="none" stroke="#c6c5fe" d="M1440.33,-493.94C1440.33,-493.94 1122.67,-493.94 1122.67,-493.94 1118.83,-493.94 1115,-490.11 1115,-486.27 1115,-486.27 1115,-478.61 1115,-478.61 1115,-474.77 1118.83,-470.94 1122.67,-470.94 1122.67,-470.94 1440.33,-470.94 1440.33,-470.94 1444.17,-470.94 1448,-474.77 1448,-478.61 1448,-478.61 1448,-486.27 1448,-486.27 1448,-490.11 1444.17,-493.94 1440.33,-493.94"/>
<text text-anchor="middle" x="1281.5" y="-478.74" font-family="Arial" font-size="14.00" fill="#c6c5fe">services/generic&#45;node/typing/generic&#45;node&#45;type.ts</text>
</g>
<!-- resources/websocket&#45;response.d.ts&#45;&gt;services/generic&#45;node/typing/generic&#45;node&#45;type.ts -->
<g id="edge68" class="edge">
<title>resources/websocket&#45;response.d.ts&#45;&gt;services/generic&#45;node/typing/generic&#45;node&#45;type.ts</title>
<path fill="none" stroke="#757575" d="M1045.54,-710.07C1057.53,-706.18 1068.95,-700.79 1079,-693.44 1109.16,-671.37 1091.95,-646.86 1115,-617.44 1154.84,-566.58 1217.11,-522.42 1252.83,-499.39"/>
<polygon fill="#757575" stroke="#757575" points="1254.74,-502.32 1261.31,-494 1250.99,-496.41 1254.74,-502.32"/>
</g>
<!-- services/sender&#45;loader.ts&#45;&gt;models/sound.ts -->
<g id="edge82" class="edge">
<title>services/sender&#45;loader.ts&#45;&gt;models/sound.ts</title>
<path fill="none" stroke="#757575" d="M1012.11,-370.77C1159.98,-386.6 1443.59,-417.31 1448,-420.44 1478.14,-441.85 1454.53,-473.11 1484,-495.44 1631.44,-607.15 2210.05,-653.4 2412.27,-666.37"/>
<polygon fill="#757575" stroke="#757575" points="2412.27,-669.88 2422.47,-667.02 2412.72,-662.89 2412.27,-669.88"/>
</g>
<!-- services/sender&#45;loader.ts&#45;&gt;models/sender.ts -->
<g id="edge81" class="edge">
<title>services/sender&#45;loader.ts&#45;&gt;models/sender.ts</title>
<path fill="none" stroke="#757575" d="M1012.04,-361.44C1072.13,-361.44 1150.93,-361.44 1207.6,-361.44"/>
<polygon fill="#757575" stroke="#757575" points="1207.91,-364.94 1217.91,-361.44 1207.91,-357.94 1207.91,-364.94"/>
</g>
<!-- util/tsc&#45;compiler.ts -->
<g id="node54" class="node">
<title>util/tsc&#45;compiler.ts</title>
<path fill="none" stroke="#c6c5fe" d="M1339.33,-102.94C1339.33,-102.94 1223.67,-102.94 1223.67,-102.94 1219.83,-102.94 1216,-99.11 1216,-95.27 1216,-95.27 1216,-87.61 1216,-87.61 1216,-83.77 1219.83,-79.94 1223.67,-79.94 1223.67,-79.94 1339.33,-79.94 1339.33,-79.94 1343.17,-79.94 1347,-83.77 1347,-87.61 1347,-87.61 1347,-95.27 1347,-95.27 1347,-99.11 1343.17,-102.94 1339.33,-102.94"/>
<text text-anchor="middle" x="1281.5" y="-87.74" font-family="Arial" font-size="14.00" fill="#c6c5fe">util/tsc&#45;compiler.ts</text>
</g>
<!-- services/sender&#45;loader.ts&#45;&gt;util/tsc&#45;compiler.ts -->
<g id="edge83" class="edge">
<title>services/sender&#45;loader.ts&#45;&gt;util/tsc&#45;compiler.ts</title>
<path fill="none" stroke="#757575" d="M943.51,-349.85C973.13,-331.57 1031.8,-294.53 1079,-259.44 1147.7,-208.37 1224.12,-141.74 1259.91,-109.92"/>
<polygon fill="#757575" stroke="#757575" points="1262.57,-112.24 1267.71,-102.97 1257.92,-107.01 1262.57,-112.24"/>
</g>
<!-- resources/inventory.r.ts -->
<g id="node34" class="node">
<title>resources/inventory.r.ts</title>
<path fill="none" stroke="#c6c5fe" d="M430.33,-609.94C430.33,-609.94 281.67,-609.94 281.67,-609.94 277.83,-609.94 274,-606.11 274,-602.27 274,-602.27 274,-594.61 274,-594.61 274,-590.77 277.83,-586.94 281.67,-586.94 281.67,-586.94 430.33,-586.94 430.33,-586.94 434.17,-586.94 438,-590.77 438,-594.61 438,-594.61 438,-602.27 438,-602.27 438,-606.11 434.17,-609.94 430.33,-609.94"/>
<text text-anchor="middle" x="356" y="-594.74" font-family="Arial" font-size="14.00" fill="#c6c5fe">resources/inventory.r.ts</text>
</g>
<!-- resources/inventory.r.ts&#45;&gt;models/inventory/item.ts -->
<g id="edge44" class="edge">
<title>resources/inventory.r.ts&#45;&gt;models/inventory/item.ts</title>
<path fill="none" stroke="#757575" d="M438.18,-607.25C459.56,-609.28 482.63,-611.2 504,-612.44 759.18,-627.23 823.65,-612.91 1079,-624.44 1113.92,-626.02 1152.2,-628.49 1185.93,-630.92"/>
<polygon fill="#757575" stroke="#757575" points="1186.01,-634.43 1196.24,-631.67 1186.52,-627.45 1186.01,-634.43"/>
</g>
<!-- resources/inventory.r.ts&#45;&gt;models/inventory/order.ts -->
<g id="edge45" class="edge">
<title>resources/inventory.r.ts&#45;&gt;models/inventory/order.ts</title>
<path fill="none" stroke="#757575" d="M438.24,-596.7C619.64,-593.5 1071.35,-589.38 1448,-617.44 1472.42,-619.26 1498.82,-622.31 1522.97,-625.52"/>
<polygon fill="#757575" stroke="#757575" points="1522.78,-629.03 1533.16,-626.91 1523.73,-622.09 1522.78,-629.03"/>
</g>
<!-- resources/inventory.r.ts&#45;&gt;util/log.ts -->
<g id="edge48" class="edge">
<title>resources/inventory.r.ts&#45;&gt;util/log.ts</title>
<path fill="none" stroke="#757575" d="M379.77,-586.7C408.13,-572.6 458.4,-549.24 504,-536.44 553.32,-522.6 695.68,-538.57 732,-502.44 806.29,-428.54 708.69,-355.82 768,-269.44 868.63,-122.88 943.21,-116.2 1115,-70.44 1253.74,-33.48 1953.08,-91.6 2088,-106.44 2119.81,-109.94 2155.38,-115.81 2182.71,-120.74"/>
<polygon fill="#757575" stroke="#757575" points="2182.29,-124.22 2192.76,-122.58 2183.55,-117.34 2182.29,-124.22"/>
</g>
<!-- resources/inventory.r.ts&#45;&gt;resources/frontend&#45;update.ts -->
<g id="edge46" class="edge">
<title>resources/inventory.r.ts&#45;&gt;resources/frontend&#45;update.ts</title>
<path fill="none" stroke="#757575" d="M382.88,-609.99C429.68,-630.86 528.42,-674.92 581.48,-698.59"/>
<polygon fill="#757575" stroke="#757575" points="580.28,-701.89 590.84,-702.77 583.13,-695.5 580.28,-701.89"/>
</g>
<!-- services/image&#45;converter.ts -->
<g id="node35" class="node">
<title>services/image&#45;converter.ts</title>
<path fill="none" stroke="#cfffac" d="M705.83,-493.94C705.83,-493.94 530.17,-493.94 530.17,-493.94 526.33,-493.94 522.5,-490.11 522.5,-486.27 522.5,-486.27 522.5,-478.61 522.5,-478.61 522.5,-474.77 526.33,-470.94 530.17,-470.94 530.17,-470.94 705.83,-470.94 705.83,-470.94 709.67,-470.94 713.5,-474.77 713.5,-478.61 713.5,-478.61 713.5,-486.27 713.5,-486.27 713.5,-490.11 709.67,-493.94 705.83,-493.94"/>
<text text-anchor="middle" x="618" y="-478.74" font-family="Arial" font-size="14.00" fill="#cfffac">services/image&#45;converter.ts</text>
</g>
<!-- resources/inventory.r.ts&#45;&gt;services/image&#45;converter.ts -->
<g id="edge47" class="edge">
<title>resources/inventory.r.ts&#45;&gt;services/image&#45;converter.ts</title>
<path fill="none" stroke="#757575" d="M372.4,-586.65C398.22,-567.46 452.47,-529.48 504,-508.44 515.54,-503.72 528.12,-499.77 540.54,-496.48"/>
<polygon fill="#757575" stroke="#757575" points="541.62,-499.82 550.46,-493.99 539.91,-493.03 541.62,-499.82"/>
</g>
<!-- resources/log.r.ts -->
<g id="node36" class="node">
<title>resources/log.r.ts</title>
<path fill="none" stroke="#cfffac" d="M159.83,-1401.94C159.83,-1401.94 48.17,-1401.94 48.17,-1401.94 44.33,-1401.94 40.5,-1398.11 40.5,-1394.27 40.5,-1394.27 40.5,-1386.61 40.5,-1386.61 40.5,-1382.77 44.33,-1378.94 48.17,-1378.94 48.17,-1378.94 159.83,-1378.94 159.83,-1378.94 163.67,-1378.94 167.5,-1382.77 167.5,-1386.61 167.5,-1386.61 167.5,-1394.27 167.5,-1394.27 167.5,-1398.11 163.67,-1401.94 159.83,-1401.94"/>
<text text-anchor="middle" x="104" y="-1386.74" font-family="Arial" font-size="14.00" fill="#cfffac">resources/log.r.ts</text>
</g>
<!-- resources/receiver.r.ts -->
<g id="node37" class="node">
<title>resources/receiver.r.ts</title>
<path fill="none" stroke="#c6c5fe" d="M427.33,-995.94C427.33,-995.94 284.67,-995.94 284.67,-995.94 280.83,-995.94 277,-992.11 277,-988.27 277,-988.27 277,-980.61 277,-980.61 277,-976.77 280.83,-972.94 284.67,-972.94 284.67,-972.94 427.33,-972.94 427.33,-972.94 431.17,-972.94 435,-976.77 435,-980.61 435,-980.61 435,-988.27 435,-988.27 435,-992.11 431.17,-995.94 427.33,-995.94"/>
<text text-anchor="middle" x="356" y="-980.74" font-family="Arial" font-size="14.00" fill="#c6c5fe">resources/receiver.r.ts</text>
</g>
<!-- resources/receiver.r.ts&#45;&gt;models/receiver&#45;data.ts -->
<g id="edge49" class="edge">
<title>resources/receiver.r.ts&#45;&gt;models/receiver&#45;data.ts</title>
<path fill="none" stroke="#757575" d="M385.83,-995.98C415.14,-1007.3 462.08,-1024.29 504,-1034.44 686.75,-1078.67 734.47,-1096.44 922.5,-1096.44 922.5,-1096.44 922.5,-1096.44 1609,-1096.44 1823.66,-1096.44 1900.61,-1139.16 2088,-1034.44 2152.4,-998.45 2198.62,-919.91 2217.95,-882.31"/>
<polygon fill="#757575" stroke="#757575" points="2221.13,-883.78 2222.48,-873.27 2214.87,-880.64 2221.13,-883.78"/>
</g>
<!-- resources/receiver.r.ts&#45;&gt;models/receiver.ts -->
<g id="edge51" class="edge">
<title>resources/receiver.r.ts&#45;&gt;models/receiver.ts</title>
<path fill="none" stroke="#757575" d="M435.21,-983.99C544.34,-983.4 748.48,-982.44 922.5,-982.44 922.5,-982.44 922.5,-982.44 1282.5,-982.44 1530.1,-982.44 1807.51,-844.46 1897.28,-796.01"/>
<polygon fill="#757575" stroke="#757575" points="1899.22,-798.94 1906.33,-791.08 1895.88,-792.79 1899.22,-798.94"/>
</g>
<!-- resources/receiver.r.ts&#45;&gt;models/receiver&#45;event.ts -->
<g id="edge50" class="edge">
<title>resources/receiver.r.ts&#45;&gt;models/receiver&#45;event.ts</title>
<path fill="none" stroke="#757575" d="M435.11,-992.56C544.12,-1003.18 748.13,-1020.44 922.5,-1020.44 922.5,-1020.44 922.5,-1020.44 1609,-1020.44 1851.47,-1020.44 1889.88,-903.5 2124,-840.44 2132.45,-838.16 2141.35,-836.04 2150.24,-834.1"/>
<polygon fill="#757575" stroke="#757575" points="2151.2,-837.47 2160.26,-831.98 2149.75,-830.62 2151.2,-837.47"/>
</g>
<!-- resources/receiver.r.ts&#45;&gt;util/log.ts -->
<g id="edge53" class="edge">
<title>resources/receiver.r.ts&#45;&gt;util/log.ts</title>
<path fill="none" stroke="#757575" d="M366,-972.93C386.63,-946.06 437.88,-876.54 468,-811.44 491.02,-761.68 471.81,-737.82 504,-693.44 576.68,-593.23 665.02,-637.55 732,-533.44 779.21,-460.05 707.07,-402.9 768,-340.44 995.16,-107.58 1162.06,-235.17 1484,-188.44 1746.99,-150.26 2066.13,-135.39 2182.65,-130.98"/>
<polygon fill="#757575" stroke="#757575" points="2183.09,-134.47 2192.96,-130.6 2182.83,-127.47 2183.09,-134.47"/>
</g>
<!-- resources/receiver.r.ts&#45;&gt;resources/frontend&#45;update.ts -->
<g id="edge52" class="edge">
<title>resources/receiver.r.ts&#45;&gt;resources/frontend&#45;update.ts</title>
<path fill="none" stroke="#757575" d="M368.17,-972.84C408.76,-930.69 548.65,-785.42 598.87,-733.27"/>
<polygon fill="#757575" stroke="#757575" points="601.45,-735.63 605.87,-726 596.41,-730.77 601.45,-735.63"/>
</g>
<!-- resources/sender.r.ts -->
<g id="node38" class="node">
<title>resources/sender.r.ts</title>
<path fill="none" stroke="#c6c5fe" d="M424.33,-282.94C424.33,-282.94 287.67,-282.94 287.67,-282.94 283.83,-282.94 280,-279.11 280,-275.27 280,-275.27 280,-267.61 280,-267.61 280,-263.77 283.83,-259.94 287.67,-259.94 287.67,-259.94 424.33,-259.94 424.33,-259.94 428.17,-259.94 432,-263.77 432,-267.61 432,-267.61 432,-275.27 432,-275.27 432,-279.11 428.17,-282.94 424.33,-282.94"/>
<text text-anchor="middle" x="356" y="-267.74" font-family="Arial" font-size="14.00" fill="#c6c5fe">resources/sender.r.ts</text>
</g>
<!-- resources/sender.r.ts&#45;&gt;models/battery.ts -->
<g id="edge54" class="edge">
<title>resources/sender.r.ts&#45;&gt;models/battery.ts</title>
<path fill="none" stroke="#757575" d="M432.38,-270.17C656.32,-266.41 1315.68,-255.33 1535.08,-251.65"/>
<polygon fill="#757575" stroke="#757575" points="1535.25,-255.15 1545.19,-251.48 1535.13,-248.15 1535.25,-255.15"/>
</g>
<!-- resources/sender.r.ts&#45;&gt;models/transformation.ts -->
<g id="edge58" class="edge">
<title>resources/sender.r.ts&#45;&gt;models/transformation.ts</title>
<path fill="none" stroke="#757575" d="M378.81,-282.96C407,-297.4 457.93,-322.01 504,-336.44 602.49,-367.28 651.21,-316.22 732,-380.44 762.84,-404.95 736.29,-438.07 768,-461.44 830.51,-507.5 1037.65,-495.63 1115,-502.44 1404.59,-527.95 1477.66,-525.68 1768,-540.44 1893.81,-546.83 2039.05,-552.93 2132.11,-556.68"/>
<polygon fill="#757575" stroke="#757575" points="2132.22,-560.19 2142.35,-557.09 2132.5,-553.19 2132.22,-560.19"/>
</g>
<!-- resources/sender.r.ts&#45;&gt;models/event.ts -->
<g id="edge55" class="edge">
<title>resources/sender.r.ts&#45;&gt;models/event.ts</title>
<path fill="none" stroke="#757575" d="M366.09,-259.81C387.05,-234.06 441.77,-172.76 504,-150.44 695.92,-81.61 1330.03,-167.83 1539.32,-199.01"/>
<polygon fill="#757575" stroke="#757575" points="1538.84,-202.48 1549.25,-200.5 1539.88,-195.56 1538.84,-202.48"/>
</g>
<!-- resources/sender.r.ts&#45;&gt;util/log.ts -->
<g id="edge63" class="edge">
<title>resources/sender.r.ts&#45;&gt;util/log.ts</title>
<path fill="none" stroke="#757575" d="M365.05,-259.58C385.03,-231.09 439.91,-158.48 504,-121.44 670.32,-25.32 730.41,-13.44 922.5,-13.44 922.5,-13.44 922.5,-13.44 1609,-13.44 1822.16,-13.44 1885.38,28.75 2088,-37.44 2135.4,-52.92 2182.1,-88.93 2207.78,-111.03"/>
<polygon fill="#757575" stroke="#757575" points="2205.53,-113.71 2215.36,-117.67 2210.15,-108.44 2205.53,-113.71"/>
</g>
<!-- resources/sender.r.ts&#45;&gt;models/sender.ts -->
<g id="edge56" class="edge">
<title>resources/sender.r.ts&#45;&gt;models/sender.ts</title>
<path fill="none" stroke="#757575" d="M432.09,-277.7C507.82,-284.1 628.07,-294.48 732,-304.44 886.34,-319.24 924.78,-324.4 1079,-340.44 1121.71,-344.88 1169.51,-349.86 1207.84,-353.86"/>
<polygon fill="#757575" stroke="#757575" points="1207.56,-357.35 1217.87,-354.9 1208.29,-350.39 1207.56,-357.35"/>
</g>
<!-- resources/sender.r.ts&#45;&gt;models/timer.ts -->
<g id="edge57" class="edge">
<title>resources/sender.r.ts&#45;&gt;models/timer.ts</title>
<path fill="none" stroke="#757575" d="M369.88,-283.09C394.4,-304.78 450.17,-351.75 504,-380.44 598.9,-431.02 664.36,-377.84 732,-461.44 808.98,-556.58 679.84,-649.55 768,-734.44 775.95,-742.09 1076.98,-766.53 1213.9,-777.28"/>
<polygon fill="#757575" stroke="#757575" points="1214.02,-780.8 1224.26,-778.09 1214.56,-773.82 1214.02,-780.8"/>
</g>
<!-- resources/sender.r.ts&#45;&gt;resources/frontend&#45;update.ts -->
<g id="edge59" class="edge">
<title>resources/sender.r.ts&#45;&gt;resources/frontend&#45;update.ts</title>
<path fill="none" stroke="#757575" d="M363.95,-283.29C399.35,-343.59 559.55,-616.56 604.97,-693.94"/>
<polygon fill="#757575" stroke="#757575" points="602.06,-695.91 610.14,-702.76 608.1,-692.36 602.06,-695.91"/>
</g>
<!-- resources/sender.r.ts&#45;&gt;services/sender&#45;loader.ts -->
<g id="edge61" class="edge">
<title>resources/sender.r.ts&#45;&gt;services/sender&#45;loader.ts</title>
<path fill="none" stroke="#757575" d="M403.8,-283.02C432.58,-289.87 470.28,-298.37 504,-304.44 613.22,-324.1 739.57,-340.44 824.63,-350.51"/>
<polygon fill="#757575" stroke="#757575" points="824.45,-354.01 834.79,-351.7 825.27,-347.06 824.45,-354.01"/>
</g>
<!-- services/mqtt&#45;api.ts -->
<g id="node39" class="node">
<title>services/mqtt&#45;api.ts</title>
<path fill="none" stroke="#cfffac" d="M680.33,-223.94C680.33,-223.94 555.67,-223.94 555.67,-223.94 551.83,-223.94 548,-220.11 548,-216.27 548,-216.27 548,-208.61 548,-208.61 548,-204.77 551.83,-200.94 555.67,-200.94 555.67,-200.94 680.33,-200.94 680.33,-200.94 684.17,-200.94 688,-204.77 688,-208.61 688,-208.61 688,-216.27 688,-216.27 688,-220.11 684.17,-223.94 680.33,-223.94"/>
<text text-anchor="middle" x="618" y="-208.74" font-family="Arial" font-size="14.00" fill="#cfffac">services/mqtt&#45;api.ts</text>
</g>
<!-- resources/sender.r.ts&#45;&gt;services/mqtt&#45;api.ts -->
<g id="edge60" class="edge">
<title>resources/sender.r.ts&#45;&gt;services/mqtt&#45;api.ts</title>
<path fill="none" stroke="#757575" d="M407.75,-259.92C450.2,-250.29 510.89,-236.52 555.99,-226.28"/>
<polygon fill="#757575" stroke="#757575" points="556.96,-229.65 565.94,-224.03 555.41,-222.83 556.96,-229.65"/>
</g>
<!-- services/sender&#45;trigger&#45;service.ts -->
<g id="node40" class="node">
<title>services/sender&#45;trigger&#45;service.ts</title>
<path fill="none" stroke="#cfffac" d="M724.33,-182.94C724.33,-182.94 511.67,-182.94 511.67,-182.94 507.83,-182.94 504,-179.11 504,-175.27 504,-175.27 504,-167.61 504,-167.61 504,-163.77 507.83,-159.94 511.67,-159.94 511.67,-159.94 724.33,-159.94 724.33,-159.94 728.17,-159.94 732,-163.77 732,-167.61 732,-167.61 732,-175.27 732,-175.27 732,-179.11 728.17,-182.94 724.33,-182.94"/>
<text text-anchor="middle" x="618" y="-167.74" font-family="Arial" font-size="14.00" fill="#cfffac">services/sender&#45;trigger&#45;service.ts</text>
</g>
<!-- resources/sender.r.ts&#45;&gt;services/sender&#45;trigger&#45;service.ts -->
<g id="edge62" class="edge">
<title>resources/sender.r.ts&#45;&gt;services/sender&#45;trigger&#45;service.ts</title>
<path fill="none" stroke="#757575" d="M373.8,-259.92C400.26,-242.34 453.82,-209.01 504,-191.44 510.38,-189.21 517.05,-187.21 523.83,-185.44"/>
<polygon fill="#757575" stroke="#757575" points="524.94,-188.77 533.81,-182.98 523.27,-181.97 524.94,-188.77"/>
</g>
<!-- resources/socket&#45;events.ts -->
<g id="node41" class="node">
<title>resources/socket&#45;events.ts</title>
<path fill="none" stroke="#cfffac" d="M190.33,-1442.94C190.33,-1442.94 17.67,-1442.94 17.67,-1442.94 13.83,-1442.94 10,-1439.11 10,-1435.27 10,-1435.27 10,-1427.61 10,-1427.61 10,-1423.77 13.83,-1419.94 17.67,-1419.94 17.67,-1419.94 190.33,-1419.94 190.33,-1419.94 194.17,-1419.94 198,-1423.77 198,-1427.61 198,-1427.61 198,-1435.27 198,-1435.27 198,-1439.11 194.17,-1442.94 190.33,-1442.94"/>
<text text-anchor="middle" x="104" y="-1427.74" font-family="Arial" font-size="14.00" fill="#cfffac">resources/socket&#45;events.ts</text>
</g>
<!-- resources/transformation.r.ts -->
<g id="node42" class="node">
<title>resources/transformation.r.ts</title>
<path fill="none" stroke="#cfffac" d="M194.83,-1483.94C194.83,-1483.94 13.17,-1483.94 13.17,-1483.94 9.33,-1483.94 5.5,-1480.11 5.5,-1476.27 5.5,-1476.27 5.5,-1468.61 5.5,-1468.61 5.5,-1464.77 9.33,-1460.94 13.17,-1460.94 13.17,-1460.94 194.83,-1460.94 194.83,-1460.94 198.67,-1460.94 202.5,-1464.77 202.5,-1468.61 202.5,-1468.61 202.5,-1476.27 202.5,-1476.27 202.5,-1480.11 198.67,-1483.94 194.83,-1483.94"/>
<text text-anchor="middle" x="104" y="-1468.74" font-family="Arial" font-size="14.00" fill="#cfffac">resources/transformation.r.ts</text>
</g>
<!-- services/generic&#45;node/node&#45;event.ts -->
<g id="node48" class="node">
<title>services/generic&#45;node/node&#45;event.ts</title>
<path fill="none" stroke="#c6c5fe" d="M1724.33,-379.94C1724.33,-379.94 1491.67,-379.94 1491.67,-379.94 1487.83,-379.94 1484,-376.11 1484,-372.27 1484,-372.27 1484,-364.61 1484,-364.61 1484,-360.77 1487.83,-356.94 1491.67,-356.94 1491.67,-356.94 1724.33,-356.94 1724.33,-356.94 1728.17,-356.94 1732,-360.77 1732,-364.61 1732,-364.61 1732,-372.27 1732,-372.27 1732,-376.11 1728.17,-379.94 1724.33,-379.94"/>
<text text-anchor="middle" x="1608" y="-364.74" font-family="Arial" font-size="14.00" fill="#c6c5fe">services/generic&#45;node/node&#45;event.ts</text>
</g>
<!-- services/generic&#45;node/typing/generic&#45;node&#45;type.ts&#45;&gt;services/generic&#45;node/node&#45;event.ts -->
<g id="edge76" class="edge">
<title>services/generic&#45;node/typing/generic&#45;node&#45;type.ts&#45;&gt;services/generic&#45;node/node&#45;event.ts</title>
<path fill="none" stroke="#757575" d="M1413.27,-470.88C1425.16,-468.32 1436.89,-465.21 1448,-461.44 1500.08,-443.73 1553.96,-407.83 1583.71,-386.18"/>
<polygon fill="#757575" stroke="#757575" points="1585.82,-388.97 1591.79,-380.22 1581.66,-383.34 1585.82,-388.97"/>
</g>
<!-- services/generic&#45;node/typing/node&#45;options.ts -->
<g id="node50" class="node">
<title>services/generic&#45;node/typing/node&#45;options.ts</title>
<path fill="none" stroke="#cfffac" d="M2070.83,-339.94C2070.83,-339.94 1785.17,-339.94 1785.17,-339.94 1781.33,-339.94 1777.5,-336.11 1777.5,-332.27 1777.5,-332.27 1777.5,-324.61 1777.5,-324.61 1777.5,-320.77 1781.33,-316.94 1785.17,-316.94 1785.17,-316.94 2070.83,-316.94 2070.83,-316.94 2074.67,-316.94 2078.5,-320.77 2078.5,-324.61 2078.5,-324.61 2078.5,-332.27 2078.5,-332.27 2078.5,-336.11 2074.67,-339.94 2070.83,-339.94"/>
<text text-anchor="middle" x="1928" y="-324.74" font-family="Arial" font-size="14.00" fill="#cfffac">services/generic&#45;node/typing/node&#45;options.ts</text>
</g>
<!-- services/generic&#45;node/typing/generic&#45;node&#45;type.ts&#45;&gt;services/generic&#45;node/typing/node&#45;options.ts -->
<g id="edge77" class="edge">
<title>services/generic&#45;node/typing/generic&#45;node&#45;type.ts&#45;&gt;services/generic&#45;node/typing/node&#45;options.ts</title>
<path fill="none" stroke="#757575" d="M1434.54,-470.84C1439.27,-468.08 1443.78,-464.97 1448,-461.44 1488.79,-427.39 1441.83,-379.76 1484,-347.44 1527.36,-314.21 1658.83,-311.99 1767.37,-316.6"/>
<polygon fill="#757575" stroke="#757575" points="1767.32,-320.1 1777.47,-317.05 1767.64,-313.11 1767.32,-320.1"/>
</g>
<!-- resources/wiring.r.ts -->
<g id="node44" class="node">
<title>resources/wiring.r.ts</title>
<path fill="none" stroke="#cfffac" d="M167.83,-1524.94C167.83,-1524.94 40.17,-1524.94 40.17,-1524.94 36.33,-1524.94 32.5,-1521.11 32.5,-1517.27 32.5,-1517.27 32.5,-1509.61 32.5,-1509.61 32.5,-1505.77 36.33,-1501.94 40.17,-1501.94 40.17,-1501.94 167.83,-1501.94 167.83,-1501.94 171.67,-1501.94 175.5,-1505.77 175.5,-1509.61 175.5,-1509.61 175.5,-1517.27 175.5,-1517.27 175.5,-1521.11 171.67,-1524.94 167.83,-1524.94"/>
<text text-anchor="middle" x="104" y="-1509.74" font-family="Arial" font-size="14.00" fill="#cfffac">resources/wiring.r.ts</text>
</g>
<!-- services/connection&#45;service.ts -->
<g id="node45" class="node">
<title>services/connection&#45;service.ts</title>
<path fill="none" stroke="#c6c5fe" d="M200.33,-1069.94C200.33,-1069.94 7.67,-1069.94 7.67,-1069.94 3.83,-1069.94 0,-1066.11 0,-1062.27 0,-1062.27 0,-1054.61 0,-1054.61 0,-1050.77 3.83,-1046.94 7.67,-1046.94 7.67,-1046.94 200.33,-1046.94 200.33,-1046.94 204.17,-1046.94 208,-1050.77 208,-1054.61 208,-1054.61 208,-1062.27 208,-1062.27 208,-1066.11 204.17,-1069.94 200.33,-1069.94"/>
<text text-anchor="middle" x="104" y="-1054.74" font-family="Arial" font-size="14.00" fill="#c6c5fe">services/connection&#45;service.ts</text>
</g>
<!-- services/connection&#45;service.ts&#45;&gt;models/connection&#45;response.ts -->
<g id="edge69" class="edge">
<title>services/connection&#45;service.ts&#45;&gt;models/connection&#45;response.ts</title>
<path fill="none" stroke="#757575" d="M118.54,-1069.98C142.26,-1089.53 193.6,-1128.91 244,-1148.44 400.7,-1209.16 448.95,-1210.44 617,-1210.44 617,-1210.44 617,-1210.44 2230,-1210.44 2406.04,-1210.44 2475.52,-1188.85 2597,-1061.44 2689.2,-964.73 2725.91,-799.94 2736.49,-741.11"/>
<polygon fill="#757575" stroke="#757575" points="2739.96,-741.55 2738.22,-731.1 2733.07,-740.36 2739.96,-741.55"/>
</g>
<!-- services/connection&#45;service.ts&#45;&gt;models/connection.ts -->
<g id="edge70" class="edge">
<title>services/connection&#45;service.ts&#45;&gt;models/connection.ts</title>
<path fill="none" stroke="#757575" d="M117.58,-1046.63C140.61,-1025.79 191.98,-982.88 244,-963.44 748.63,-774.85 919.27,-926.7 1448,-823.44 1486.81,-815.86 1530,-803.66 1561.56,-794.03"/>
<polygon fill="#757575" stroke="#757575" points="1562.86,-797.29 1571.38,-791 1560.79,-790.6 1562.86,-797.29"/>
</g>
<!-- services/connection&#45;service.ts&#45;&gt;models/receiver&#45;data.ts -->
<g id="edge71" class="edge">
<title>services/connection&#45;service.ts&#45;&gt;models/receiver&#45;data.ts</title>
<path fill="none" stroke="#757575" d="M135.06,-1070C213.24,-1098.98 429.86,-1172.44 617,-1172.44 617,-1172.44 617,-1172.44 924.5,-1172.44 1183.79,-1172.44 1865.98,-1218.38 2088,-1084.44 2165.89,-1037.45 2207.28,-928.76 2221.85,-882.69"/>
<polygon fill="#757575" stroke="#757575" points="2225.2,-883.71 2224.77,-873.13 2218.51,-881.67 2225.2,-883.71"/>
</g>
<!-- services/connection&#45;service.ts&#45;&gt;models/transformation.ts -->
<g id="edge72" class="edge">
<title>services/connection&#45;service.ts&#45;&gt;models/transformation.ts</title>
<path fill="none" stroke="#757575" d="M105.81,-1046.71C111.41,-969.84 146.9,-538.53 244,-461.44 413.86,-326.58 530.46,-381.31 732,-461.44 752.45,-469.57 747.96,-486.35 768,-495.44 909.08,-559.43 960.5,-517.08 1115,-528.44 1404.83,-549.76 1477.48,-554.88 1768,-562.44 1893.81,-565.71 2039.05,-564.2 2132.11,-562.55"/>
<polygon fill="#757575" stroke="#757575" points="2132.42,-566.04 2142.36,-562.36 2132.29,-559.05 2132.42,-566.04"/>
</g>
<!-- services/timer&#45;factory.ts -->
<g id="node46" class="node">
<title>services/timer&#45;factory.ts</title>
<path fill="none" stroke="#c6c5fe" d="M431.83,-1069.94C431.83,-1069.94 280.17,-1069.94 280.17,-1069.94 276.33,-1069.94 272.5,-1066.11 272.5,-1062.27 272.5,-1062.27 272.5,-1054.61 272.5,-1054.61 272.5,-1050.77 276.33,-1046.94 280.17,-1046.94 280.17,-1046.94 431.83,-1046.94 431.83,-1046.94 435.67,-1046.94 439.5,-1050.77 439.5,-1054.61 439.5,-1054.61 439.5,-1062.27 439.5,-1062.27 439.5,-1066.11 435.67,-1069.94 431.83,-1069.94"/>
<text text-anchor="middle" x="356" y="-1054.74" font-family="Arial" font-size="14.00" fill="#c6c5fe">services/timer&#45;factory.ts</text>
</g>
<!-- services/connection&#45;service.ts&#45;&gt;services/timer&#45;factory.ts -->
<g id="edge73" class="edge">
<title>services/connection&#45;service.ts&#45;&gt;services/timer&#45;factory.ts</title>
<path fill="none" stroke="#757575" d="M208.13,-1058.44C226.01,-1058.44 244.5,-1058.44 262.08,-1058.44"/>
<polygon fill="#757575" stroke="#757575" points="262.32,-1061.94 272.32,-1058.44 262.32,-1054.94 262.32,-1061.94"/>
</g>
<!-- services/timer&#45;factory.ts&#45;&gt;models/connection&#45;response.ts -->
<g id="edge84" class="edge">
<title>services/timer&#45;factory.ts&#45;&gt;models/connection&#45;response.ts</title>
<path fill="none" stroke="#757575" d="M439.5,-1069.82C522.37,-1080.88 653.82,-1097.44 768,-1107.44 1281.95,-1152.44 1411.08,-1172.44 1927,-1172.44 1927,-1172.44 1927,-1172.44 2230,-1172.44 2493.98,-1172.44 2684.92,-828.98 2729.87,-740.19"/>
<polygon fill="#757575" stroke="#757575" points="2733.08,-741.6 2734.41,-731.09 2726.81,-738.48 2733.08,-741.6"/>
</g>
<!-- services/timer&#45;factory.ts&#45;&gt;models/timer.ts -->
<g id="edge85" class="edge">
<title>services/timer&#45;factory.ts&#45;&gt;models/timer.ts</title>
<path fill="none" stroke="#757575" d="M395.51,-1046.93C542.63,-1002.96 1069.13,-845.61 1232.08,-796.91"/>
<polygon fill="#757575" stroke="#757575" points="1233.25,-800.21 1241.83,-794 1231.25,-793.51 1233.25,-800.21"/>
</g>
<!-- services/timer&#45;factory.ts&#45;&gt;resources/frontend&#45;update.ts -->
<g id="edge86" class="edge">
<title>services/timer&#45;factory.ts&#45;&gt;resources/frontend&#45;update.ts</title>
<path fill="none" stroke="#757575" d="M394.88,-1046.92C418.24,-1038.27 447.55,-1024.45 468,-1004.44 550.35,-923.87 595.93,-788.12 611.16,-735.84"/>
<polygon fill="#757575" stroke="#757575" points="614.59,-736.58 613.96,-726.01 607.86,-734.67 614.59,-736.58"/>
</g>
<!-- services/event&#45;scheduler.ts -->
<g id="node47" class="node">
<title>services/event&#45;scheduler.ts</title>
<path fill="none" stroke="#cfffac" d="M191.33,-1565.94C191.33,-1565.94 16.67,-1565.94 16.67,-1565.94 12.83,-1565.94 9,-1562.11 9,-1558.27 9,-1558.27 9,-1550.61 9,-1550.61 9,-1546.77 12.83,-1542.94 16.67,-1542.94 16.67,-1542.94 191.33,-1542.94 191.33,-1542.94 195.17,-1542.94 199,-1546.77 199,-1550.61 199,-1550.61 199,-1558.27 199,-1558.27 199,-1562.11 195.17,-1565.94 191.33,-1565.94"/>
<text text-anchor="middle" x="104" y="-1550.74" font-family="Arial" font-size="14.00" fill="#cfffac">services/event&#45;scheduler.ts</text>
</g>
<!-- services/generic&#45;node/typing/node&#45;event&#45;data.ts -->
<g id="node49" class="node">
<title>services/generic&#45;node/typing/node&#45;event&#45;data.ts</title>
<path fill="none" stroke="#cfffac" d="M2080.33,-380.94C2080.33,-380.94 1775.67,-380.94 1775.67,-380.94 1771.83,-380.94 1768,-377.11 1768,-373.27 1768,-373.27 1768,-365.61 1768,-365.61 1768,-361.77 1771.83,-357.94 1775.67,-357.94 1775.67,-357.94 2080.33,-357.94 2080.33,-357.94 2084.17,-357.94 2088,-361.77 2088,-365.61 2088,-365.61 2088,-373.27 2088,-373.27 2088,-377.11 2084.17,-380.94 2080.33,-380.94"/>
<text text-anchor="middle" x="1928" y="-365.74" font-family="Arial" font-size="14.00" fill="#cfffac">services/generic&#45;node/typing/node&#45;event&#45;data.ts</text>
</g>
<!-- services/generic&#45;node/node&#45;event.ts&#45;&gt;services/generic&#45;node/typing/node&#45;event&#45;data.ts -->
<g id="edge74" class="edge">
<title>services/generic&#45;node/node&#45;event.ts&#45;&gt;services/generic&#45;node/typing/node&#45;event&#45;data.ts</title>
<path fill="none" stroke="#757575" d="M1732.4,-368.83C1740.75,-368.85 1749.23,-368.88 1757.75,-368.91"/>
<polygon fill="#757575" stroke="#757575" points="1757.76,-372.41 1767.77,-368.94 1757.78,-365.41 1757.76,-372.41"/>
</g>
<!-- services/generic&#45;node/node&#45;event.ts&#45;&gt;services/generic&#45;node/typing/node&#45;options.ts -->
<g id="edge75" class="edge">
<title>services/generic&#45;node/node&#45;event.ts&#45;&gt;services/generic&#45;node/typing/node&#45;options.ts</title>
<path fill="none" stroke="#757575" d="M1700.55,-356.92C1739.63,-352.01 1785.37,-346.25 1825.48,-341.21"/>
<polygon fill="#757575" stroke="#757575" points="1826.06,-344.66 1835.54,-339.94 1825.18,-337.72 1826.06,-344.66"/>
</g>
<!-- services/image&#45;converter.test.ts -->
<g id="node51" class="node">
<title>services/image&#45;converter.test.ts</title>
<path fill="none" stroke="#c6c5fe" d="M457.33,-493.94C457.33,-493.94 254.67,-493.94 254.67,-493.94 250.83,-493.94 247,-490.11 247,-486.27 247,-486.27 247,-478.61 247,-478.61 247,-474.77 250.83,-470.94 254.67,-470.94 254.67,-470.94 457.33,-470.94 457.33,-470.94 461.17,-470.94 465,-474.77 465,-478.61 465,-478.61 465,-486.27 465,-486.27 465,-490.11 461.17,-493.94 457.33,-493.94"/>
<text text-anchor="middle" x="356" y="-478.74" font-family="Arial" font-size="14.00" fill="#c6c5fe">services/image&#45;converter.test.ts</text>
</g>
<!-- services/image&#45;converter.test.ts&#45;&gt;services/image&#45;converter.ts -->
<g id="edge78" class="edge">
<title>services/image&#45;converter.test.ts&#45;&gt;services/image&#45;converter.ts</title>
<path fill="none" stroke="#757575" d="M465,-482.44C480.57,-482.44 496.57,-482.44 512.07,-482.44"/>
<polygon fill="#757575" stroke="#757575" points="512.18,-485.94 522.18,-482.44 512.18,-478.94 512.18,-485.94"/>
</g>
<!-- services/mqtt&#45;tasmota.ts -->
<g id="node52" class="node">
<title>services/mqtt&#45;tasmota.ts</title>
<path fill="none" stroke="#c6c5fe" d="M1001.33,-452.94C1001.33,-452.94 845.67,-452.94 845.67,-452.94 841.83,-452.94 838,-449.11 838,-445.27 838,-445.27 838,-437.61 838,-437.61 838,-433.77 841.83,-429.94 845.67,-429.94 845.67,-429.94 1001.33,-429.94 1001.33,-429.94 1005.17,-429.94 1009,-433.77 1009,-437.61 1009,-437.61 1009,-445.27 1009,-445.27 1009,-449.11 1005.17,-452.94 1001.33,-452.94"/>
<text text-anchor="middle" x="923.5" y="-437.74" font-family="Arial" font-size="14.00" fill="#c6c5fe">services/mqtt&#45;tasmota.ts</text>
</g>
<!-- services/mqtt&#45;tasmota.ts&#45;&gt;services/generic&#45;node/typing/generic&#45;node&#45;type.ts -->
<g id="edge79" class="edge">
<title>services/mqtt&#45;tasmota.ts&#45;&gt;services/generic&#45;node/typing/generic&#45;node&#45;type.ts</title>
<path fill="none" stroke="#757575" d="M1009.32,-451.21C1057.52,-456.76 1118.42,-463.77 1170.29,-469.75"/>
<polygon fill="#757575" stroke="#757575" points="1170.2,-473.26 1180.53,-470.93 1171,-466.3 1170.2,-473.26"/>
</g>
<!-- services/mqtt&#45;types.ts -->
<g id="node53" class="node">
<title>services/mqtt&#45;types.ts</title>
<path fill="none" stroke="#cfffac" d="M1351.33,-452.94C1351.33,-452.94 1211.67,-452.94 1211.67,-452.94 1207.83,-452.94 1204,-449.11 1204,-445.27 1204,-445.27 1204,-437.61 1204,-437.61 1204,-433.77 1207.83,-429.94 1211.67,-429.94 1211.67,-429.94 1351.33,-429.94 1351.33,-429.94 1355.17,-429.94 1359,-433.77 1359,-437.61 1359,-437.61 1359,-445.27 1359,-445.27 1359,-449.11 1355.17,-452.94 1351.33,-452.94"/>
<text text-anchor="middle" x="1281.5" y="-437.74" font-family="Arial" font-size="14.00" fill="#cfffac">services/mqtt&#45;types.ts</text>
</g>
<!-- services/mqtt&#45;tasmota.ts&#45;&gt;services/mqtt&#45;types.ts -->
<g id="edge80" class="edge">
<title>services/mqtt&#45;tasmota.ts&#45;&gt;services/mqtt&#45;types.ts</title>
<path fill="none" stroke="#757575" d="M1009.32,-441.44C1064.98,-441.44 1137.57,-441.44 1193.64,-441.44"/>
<polygon fill="#757575" stroke="#757575" points="1193.91,-444.94 1203.91,-441.44 1193.91,-437.94 1193.91,-444.94"/>
</g>
<!-- util/tsc&#45;compiler.ts&#45;&gt;util/log.ts -->
<g id="edge91" class="edge">
<title>util/tsc&#45;compiler.ts&#45;&gt;util/log.ts</title>
<path fill="none" stroke="#757575" d="M1347.26,-93.8C1434.62,-97 1595.06,-102.95 1732,-108.44 1898.13,-115.1 2095.53,-123.65 2182.74,-127.45"/>
<polygon fill="#757575" stroke="#757575" points="2182.68,-130.95 2192.82,-127.9 2182.98,-123.96 2182.68,-130.95"/>
</g>
<!-- util/file.ts -->
<g id="node58" class="node">
<title>util/file.ts</title>
<path fill="none" stroke="#cfffac" d="M1635.83,-140.94C1635.83,-140.94 1580.17,-140.94 1580.17,-140.94 1576.33,-140.94 1572.5,-137.11 1572.5,-133.27 1572.5,-133.27 1572.5,-125.61 1572.5,-125.61 1572.5,-121.77 1576.33,-117.94 1580.17,-117.94 1580.17,-117.94 1635.83,-117.94 1635.83,-117.94 1639.67,-117.94 1643.5,-121.77 1643.5,-125.61 1643.5,-125.61 1643.5,-133.27 1643.5,-133.27 1643.5,-137.11 1639.67,-140.94 1635.83,-140.94"/>
<text text-anchor="middle" x="1608" y="-125.74" font-family="Arial" font-size="14.00" fill="#cfffac">util/file.ts</text>
</g>
<!-- util/tsc&#45;compiler.ts&#45;&gt;util/file.ts -->
<g id="edge90" class="edge">
<title>util/tsc&#45;compiler.ts&#45;&gt;util/file.ts</title>
<path fill="none" stroke="#757575" d="M1347.39,-99.04C1410.98,-106.48 1506.25,-117.64 1561.96,-124.16"/>
<polygon fill="#757575" stroke="#757575" points="1561.88,-127.68 1572.22,-125.37 1562.7,-120.73 1561.88,-127.68"/>
</g>
<!-- services/tuya.spec.ts -->
<g id="node55" class="node">
<title>services/tuya.spec.ts</title>
<path fill="none" stroke="#c6c5fe" d="M170.83,-1606.94C170.83,-1606.94 37.17,-1606.94 37.17,-1606.94 33.33,-1606.94 29.5,-1603.11 29.5,-1599.27 29.5,-1599.27 29.5,-1591.61 29.5,-1591.61 29.5,-1587.77 33.33,-1583.94 37.17,-1583.94 37.17,-1583.94 170.83,-1583.94 170.83,-1583.94 174.67,-1583.94 178.5,-1587.77 178.5,-1591.61 178.5,-1591.61 178.5,-1599.27 178.5,-1599.27 178.5,-1603.11 174.67,-1606.94 170.83,-1606.94"/>
<text text-anchor="middle" x="104" y="-1591.74" font-family="Arial" font-size="14.00" fill="#c6c5fe">services/tuya.spec.ts</text>
</g>
<!-- services/tuya.ts -->
<g id="node56" class="node">
<title>services/tuya.ts</title>
<path fill="none" stroke="#cfffac" d="M405.33,-1606.94C405.33,-1606.94 306.67,-1606.94 306.67,-1606.94 302.83,-1606.94 299,-1603.11 299,-1599.27 299,-1599.27 299,-1591.61 299,-1591.61 299,-1587.77 302.83,-1583.94 306.67,-1583.94 306.67,-1583.94 405.33,-1583.94 405.33,-1583.94 409.17,-1583.94 413,-1587.77 413,-1591.61 413,-1591.61 413,-1599.27 413,-1599.27 413,-1603.11 409.17,-1606.94 405.33,-1606.94"/>
<text text-anchor="middle" x="356" y="-1591.74" font-family="Arial" font-size="14.00" fill="#cfffac">services/tuya.ts</text>
</g>
<!-- services/tuya.spec.ts&#45;&gt;services/tuya.ts -->
<g id="edge87" class="edge">
<title>services/tuya.spec.ts&#45;&gt;services/tuya.ts</title>
<path fill="none" stroke="#757575" d="M178.66,-1595.44C213.51,-1595.44 254.8,-1595.44 288.67,-1595.44"/>
<polygon fill="#757575" stroke="#757575" points="288.92,-1598.94 298.92,-1595.44 288.92,-1591.94 288.92,-1598.94"/>
</g>
<!-- util/reconnecting&#45;socket.ts -->
<g id="node59" class="node">
<title>util/reconnecting&#45;socket.ts</title>
<path fill="none" stroke="#cfffac" d="M186.83,-1647.94C186.83,-1647.94 21.17,-1647.94 21.17,-1647.94 17.33,-1647.94 13.5,-1644.11 13.5,-1640.27 13.5,-1640.27 13.5,-1632.61 13.5,-1632.61 13.5,-1628.77 17.33,-1624.94 21.17,-1624.94 21.17,-1624.94 186.83,-1624.94 186.83,-1624.94 190.67,-1624.94 194.5,-1628.77 194.5,-1632.61 194.5,-1632.61 194.5,-1640.27 194.5,-1640.27 194.5,-1644.11 190.67,-1647.94 186.83,-1647.94"/>
<text text-anchor="middle" x="104" y="-1632.74" font-family="Arial" font-size="14.00" fill="#cfffac">util/reconnecting&#45;socket.ts</text>
</g>
<!-- util/resolvable&#45;promise.ts -->
<g id="node60" class="node">
<title>util/resolvable&#45;promise.ts</title>
<path fill="none" stroke="#cfffac" d="M183.33,-1688.94C183.33,-1688.94 24.67,-1688.94 24.67,-1688.94 20.83,-1688.94 17,-1685.11 17,-1681.27 17,-1681.27 17,-1673.61 17,-1673.61 17,-1669.77 20.83,-1665.94 24.67,-1665.94 24.67,-1665.94 183.33,-1665.94 183.33,-1665.94 187.17,-1665.94 191,-1669.77 191,-1673.61 191,-1673.61 191,-1681.27 191,-1681.27 191,-1685.11 187.17,-1688.94 183.33,-1688.94"/>
<text text-anchor="middle" x="104" y="-1673.74" font-family="Arial" font-size="14.00" fill="#cfffac">util/resolvable&#45;promise.ts</text>
</g>
</g>
</svg>
