<?xml version="1.0" encoding="UTF-8" standalone="no"?>
<!DOCTYPE svg PUBLIC "-//W3C//DTD SVG 1.1//EN"
 "http://www.w3.org/Graphics/SVG/1.1/DTD/svg11.dtd">
<!-- Generated by graphviz version 5.0.1 (20220820.1526)
 -->
<!-- Title: G Pages: 1 -->
<svg width="2495pt" height="1441pt"
 viewBox="0.00 0.00 2495.20 1441.04" xmlns="http://www.w3.org/2000/svg" xmlns:xlink="http://www.w3.org/1999/xlink">
<g id="graph0" class="graph" transform="scale(1 1) rotate(0) translate(21.6 1419.44)">
<title>G</title>
<polygon fill="#111111" stroke="none" points="-21.6,21.6 -21.6,-1419.44 2473.6,-1419.44 2473.6,21.6 -21.6,21.6"/>
<!-- models/action.ts -->
<g id="node1" class="node">
<title>models/action.ts</title>
<path fill="none" stroke="#cfffac" d="M1884.33,-219.84C1884.33,-219.84 1779.67,-219.84 1779.67,-219.84 1775.83,-219.84 1772,-216.01 1772,-212.17 1772,-212.17 1772,-204.51 1772,-204.51 1772,-200.67 1775.83,-196.84 1779.67,-196.84 1779.67,-196.84 1884.33,-196.84 1884.33,-196.84 1888.17,-196.84 1892,-200.67 1892,-204.51 1892,-204.51 1892,-212.17 1892,-212.17 1892,-216.01 1888.17,-219.84 1884.33,-219.84"/>
<text text-anchor="middle" x="1832" y="-204.64" font-family="Arial" font-size="14.00" fill="#cfffac">models/action.ts</text>
</g>
<!-- models/battery.ts -->
<g id="node2" class="node">
<title>models/battery.ts</title>
<path fill="none" stroke="#cfffac" d="M1459.33,-740.84C1459.33,-740.84 1349.67,-740.84 1349.67,-740.84 1345.83,-740.84 1342,-737.01 1342,-733.17 1342,-733.17 1342,-725.51 1342,-725.51 1342,-721.67 1345.83,-717.84 1349.67,-717.84 1349.67,-717.84 1459.33,-717.84 1459.33,-717.84 1463.17,-717.84 1467,-721.67 1467,-725.51 1467,-725.51 1467,-733.17 1467,-733.17 1467,-737.01 1463.17,-740.84 1459.33,-740.84"/>
<text text-anchor="middle" x="1404.5" y="-725.64" font-family="Arial" font-size="14.00" fill="#cfffac">models/battery.ts</text>
</g>
<!-- models/connection&#45;response.ts -->
<g id="node3" class="node">
<title>models/connection&#45;response.ts</title>
<path fill="none" stroke="#cfffac" d="M2444.33,-295.84C2444.33,-295.84 2243.67,-295.84 2243.67,-295.84 2239.83,-295.84 2236,-292.01 2236,-288.17 2236,-288.17 2236,-280.51 2236,-280.51 2236,-276.67 2239.83,-272.84 2243.67,-272.84 2243.67,-272.84 2444.33,-272.84 2444.33,-272.84 2448.17,-272.84 2452,-276.67 2452,-280.51 2452,-280.51 2452,-288.17 2452,-288.17 2452,-292.01 2448.17,-295.84 2444.33,-295.84"/>
<text text-anchor="middle" x="2344" y="-280.64" font-family="Arial" font-size="14.00" fill="#cfffac">models/connection&#45;response.ts</text>
</g>
<!-- models/connection.ts -->
<g id="node4" class="node">
<title>models/connection.ts</title>
<path fill="none" stroke="#c6c5fe" d="M1472.83,-407.84C1472.83,-407.84 1336.17,-407.84 1336.17,-407.84 1332.33,-407.84 1328.5,-404.01 1328.5,-400.17 1328.5,-400.17 1328.5,-392.51 1328.5,-392.51 1328.5,-388.67 1332.33,-384.84 1336.17,-384.84 1336.17,-384.84 1472.83,-384.84 1472.83,-384.84 1476.67,-384.84 1480.5,-388.67 1480.5,-392.51 1480.5,-392.51 1480.5,-400.17 1480.5,-400.17 1480.5,-404.01 1476.67,-407.84 1472.83,-407.84"/>
<text text-anchor="middle" x="1404.5" y="-392.64" font-family="Arial" font-size="14.00" fill="#c6c5fe">models/connection.ts</text>
</g>
<!-- models/receiver&#45;data.ts -->
<g id="node5" class="node">
<title>models/receiver&#45;data.ts</title>
<path fill="none" stroke="#c6c5fe" d="M1906.83,-96.84C1906.83,-96.84 1757.17,-96.84 1757.17,-96.84 1753.33,-96.84 1749.5,-93.01 1749.5,-89.17 1749.5,-89.17 1749.5,-81.51 1749.5,-81.51 1749.5,-77.67 1753.33,-73.84 1757.17,-73.84 1757.17,-73.84 1906.83,-73.84 1906.83,-73.84 1910.67,-73.84 1914.5,-77.67 1914.5,-81.51 1914.5,-81.51 1914.5,-89.17 1914.5,-89.17 1914.5,-93.01 1910.67,-96.84 1906.83,-96.84"/>
<text text-anchor="middle" x="1832" y="-81.64" font-family="Arial" font-size="14.00" fill="#c6c5fe">models/receiver&#45;data.ts</text>
</g>
<!-- models/connection.ts&#45;&gt;models/receiver&#45;data.ts -->
<g id="edge1" class="edge">
<title>models/connection.ts&#45;&gt;models/receiver&#45;data.ts</title>
<path fill="none" stroke="#757575" d="M1410.6,-384.66C1425.48,-351.72 1471.91,-256.84 1536,-200.34 1607.12,-137.65 1637.18,-135.68 1727,-105.34 1733.71,-103.07 1740.75,-101.04 1747.87,-99.21"/>
<polygon fill="#757575" stroke="#757575" points="1748.72,-102.61 1757.61,-96.85 1747.07,-95.81 1748.72,-102.61"/>
</g>
<!-- models/receiver.ts -->
<g id="node6" class="node">
<title>models/receiver.ts</title>
<path fill="none" stroke="#c6c5fe" d="M1672.83,-232.84C1672.83,-232.84 1554.17,-232.84 1554.17,-232.84 1550.33,-232.84 1546.5,-229.01 1546.5,-225.17 1546.5,-225.17 1546.5,-217.51 1546.5,-217.51 1546.5,-213.67 1550.33,-209.84 1554.17,-209.84 1554.17,-209.84 1672.83,-209.84 1672.83,-209.84 1676.67,-209.84 1680.5,-213.67 1680.5,-217.51 1680.5,-217.51 1680.5,-225.17 1680.5,-225.17 1680.5,-229.01 1676.67,-232.84 1672.83,-232.84"/>
<text text-anchor="middle" x="1613.5" y="-217.64" font-family="Arial" font-size="14.00" fill="#c6c5fe">models/receiver.ts</text>
</g>
<!-- models/connection.ts&#45;&gt;models/receiver.ts -->
<g id="edge2" class="edge">
<title>models/connection.ts&#45;&gt;models/receiver.ts</title>
<path fill="none" stroke="#757575" d="M1470.03,-384.72C1480.58,-381.14 1490.99,-376.46 1500,-370.34 1549.34,-336.85 1585.86,-274.55 1602.51,-242.14"/>
<polygon fill="#757575" stroke="#757575" points="1605.69,-243.61 1607.03,-233.1 1599.43,-240.48 1605.69,-243.61"/>
</g>
<!-- models/transformation.ts -->
<g id="node7" class="node">
<title>models/transformation.ts</title>
<path fill="none" stroke="#cfffac" d="M1910.83,-428.84C1910.83,-428.84 1753.17,-428.84 1753.17,-428.84 1749.33,-428.84 1745.5,-425.01 1745.5,-421.17 1745.5,-421.17 1745.5,-413.51 1745.5,-413.51 1745.5,-409.67 1749.33,-405.84 1753.17,-405.84 1753.17,-405.84 1910.83,-405.84 1910.83,-405.84 1914.67,-405.84 1918.5,-409.67 1918.5,-413.51 1918.5,-413.51 1918.5,-421.17 1918.5,-421.17 1918.5,-425.01 1914.67,-428.84 1910.83,-428.84"/>
<text text-anchor="middle" x="1832" y="-413.64" font-family="Arial" font-size="14.00" fill="#cfffac">models/transformation.ts</text>
</g>
<!-- models/connection.ts&#45;&gt;models/transformation.ts -->
<g id="edge3" class="edge">
<title>models/connection.ts&#45;&gt;models/transformation.ts</title>
<path fill="none" stroke="#757575" d="M1480.75,-393.29C1538.39,-391.69 1619.82,-391.03 1691,-396.34 1712.79,-397.97 1736.34,-400.99 1757.79,-404.26"/>
<polygon fill="#757575" stroke="#757575" points="1757.38,-407.74 1767.8,-405.82 1758.46,-400.82 1757.38,-407.74"/>
</g>
<!-- models/transformer.ts -->
<g id="node8" class="node">
<title>models/transformer.ts</title>
<path fill="none" stroke="#c6c5fe" d="M1683.33,-428.84C1683.33,-428.84 1543.67,-428.84 1543.67,-428.84 1539.83,-428.84 1536,-425.01 1536,-421.17 1536,-421.17 1536,-413.51 1536,-413.51 1536,-409.67 1539.83,-405.84 1543.67,-405.84 1543.67,-405.84 1683.33,-405.84 1683.33,-405.84 1687.17,-405.84 1691,-409.67 1691,-413.51 1691,-413.51 1691,-421.17 1691,-421.17 1691,-425.01 1687.17,-428.84 1683.33,-428.84"/>
<text text-anchor="middle" x="1613.5" y="-413.64" font-family="Arial" font-size="14.00" fill="#c6c5fe">models/transformer.ts</text>
</g>
<!-- models/connection.ts&#45;&gt;models/transformer.ts -->
<g id="edge4" class="edge">
<title>models/connection.ts&#45;&gt;models/transformer.ts</title>
<path fill="none" stroke="#757575" d="M1480.52,-403.95C1495.19,-405.44 1510.68,-407.01 1525.69,-408.53"/>
<polygon fill="#757575" stroke="#757575" points="1525.69,-412.05 1535.99,-409.58 1526.4,-405.09 1525.69,-412.05"/>
</g>
<!-- models/receiver&#45;data.ts&#45;&gt;models/connection&#45;response.ts -->
<g id="edge8" class="edge">
<title>models/receiver&#45;data.ts&#45;&gt;models/connection&#45;response.ts</title>
<path fill="none" stroke="#757575" d="M1912.76,-96.89C1989.31,-110.08 2106.72,-135.96 2200,-181.34 2247.42,-204.41 2295.8,-243.1 2322.36,-265.92"/>
<polygon fill="#757575" stroke="#757575" points="2320.35,-268.81 2330.19,-272.74 2324.94,-263.53 2320.35,-268.81"/>
</g>
<!-- models/evaluated&#45;data.ts -->
<g id="node9" class="node">
<title>models/evaluated&#45;data.ts</title>
<path fill="none" stroke="#c6c5fe" d="M2166.33,-213.84C2166.33,-213.84 2006.67,-213.84 2006.67,-213.84 2002.83,-213.84 1999,-210.01 1999,-206.17 1999,-206.17 1999,-198.51 1999,-198.51 1999,-194.67 2002.83,-190.84 2006.67,-190.84 2006.67,-190.84 2166.33,-190.84 2166.33,-190.84 2170.17,-190.84 2174,-194.67 2174,-198.51 2174,-198.51 2174,-206.17 2174,-206.17 2174,-210.01 2170.17,-213.84 2166.33,-213.84"/>
<text text-anchor="middle" x="2086.5" y="-198.64" font-family="Arial" font-size="14.00" fill="#c6c5fe">models/evaluated&#45;data.ts</text>
</g>
<!-- models/receiver&#45;data.ts&#45;&gt;models/evaluated&#45;data.ts -->
<g id="edge9" class="edge">
<title>models/receiver&#45;data.ts&#45;&gt;models/evaluated&#45;data.ts</title>
<path fill="none" stroke="#757575" d="M1914.67,-94.53C1922.56,-97.3 1930.17,-100.84 1937,-105.34 1960.79,-120.99 1950.74,-140.58 1973,-158.34 1989.2,-171.26 2009.65,-180.77 2028.66,-187.56"/>
<polygon fill="#757575" stroke="#757575" points="2027.55,-190.88 2038.15,-190.78 2029.8,-184.25 2027.55,-190.88"/>
</g>
<!-- models/sound.ts -->
<g id="node14" class="node">
<title>models/sound.ts</title>
<path fill="none" stroke="#cfffac" d="M2139.83,-254.84C2139.83,-254.84 2033.17,-254.84 2033.17,-254.84 2029.33,-254.84 2025.5,-251.01 2025.5,-247.17 2025.5,-247.17 2025.5,-239.51 2025.5,-239.51 2025.5,-235.67 2029.33,-231.84 2033.17,-231.84 2033.17,-231.84 2139.83,-231.84 2139.83,-231.84 2143.67,-231.84 2147.5,-235.67 2147.5,-239.51 2147.5,-239.51 2147.5,-247.17 2147.5,-247.17 2147.5,-251.01 2143.67,-254.84 2139.83,-254.84"/>
<text text-anchor="middle" x="2086.5" y="-239.64" font-family="Arial" font-size="14.00" fill="#cfffac">models/sound.ts</text>
</g>
<!-- models/receiver&#45;data.ts&#45;&gt;models/sound.ts -->
<g id="edge10" class="edge">
<title>models/receiver&#45;data.ts&#45;&gt;models/sound.ts</title>
<path fill="none" stroke="#757575" d="M1914.65,-91.92C1922.83,-95.15 1930.5,-99.51 1937,-105.34 1977.5,-141.67 1932.4,-186.12 1973,-222.34 1984.68,-232.76 1999.81,-238.75 2015.18,-242.06"/>
<polygon fill="#757575" stroke="#757575" points="2014.82,-245.55 2025.28,-243.86 2016.05,-238.66 2014.82,-245.55"/>
</g>
<!-- util/types.d.ts -->
<g id="node15" class="node">
<title>util/types.d.ts</title>
<path fill="none" stroke="#cfffac" d="M2128.33,-96.84C2128.33,-96.84 2044.67,-96.84 2044.67,-96.84 2040.83,-96.84 2037,-93.01 2037,-89.17 2037,-89.17 2037,-81.51 2037,-81.51 2037,-77.67 2040.83,-73.84 2044.67,-73.84 2044.67,-73.84 2128.33,-73.84 2128.33,-73.84 2132.17,-73.84 2136,-77.67 2136,-81.51 2136,-81.51 2136,-89.17 2136,-89.17 2136,-93.01 2132.17,-96.84 2128.33,-96.84"/>
<text text-anchor="middle" x="2086.5" y="-81.64" font-family="Arial" font-size="14.00" fill="#cfffac">util/types.d.ts</text>
</g>
<!-- models/receiver&#45;data.ts&#45;&gt;util/types.d.ts -->
<g id="edge11" class="edge">
<title>models/receiver&#45;data.ts&#45;&gt;util/types.d.ts</title>
<path fill="none" stroke="#757575" d="M1914.63,-85.34C1951.19,-85.34 1993.48,-85.34 2026.84,-85.34"/>
<polygon fill="#757575" stroke="#757575" points="2026.89,-88.84 2036.89,-85.34 2026.89,-81.84 2026.89,-88.84"/>
</g>
<!-- models/receiver.ts&#45;&gt;models/action.ts -->
<g id="edge12" class="edge">
<title>models/receiver.ts&#45;&gt;models/action.ts</title>
<path fill="none" stroke="#757575" d="M1680.63,-217.37C1706.32,-215.83 1735.76,-214.06 1761.74,-212.5"/>
<polygon fill="#757575" stroke="#757575" points="1762.11,-215.98 1771.89,-211.89 1761.69,-209 1762.11,-215.98"/>
</g>
<!-- models/receiver.ts&#45;&gt;models/receiver&#45;data.ts -->
<g id="edge14" class="edge">
<title>models/receiver.ts&#45;&gt;models/receiver&#45;data.ts</title>
<path fill="none" stroke="#757575" d="M1624.08,-209.83C1646.44,-183.25 1702.07,-118.81 1727,-105.34 1731.02,-103.17 1735.24,-101.23 1739.59,-99.5"/>
<polygon fill="#757575" stroke="#757575" points="1741.03,-102.7 1749.26,-96.03 1738.67,-96.11 1741.03,-102.7"/>
</g>
<!-- models/receiver.ts&#45;&gt;models/evaluated&#45;data.ts -->
<g id="edge13" class="edge">
<title>models/receiver.ts&#45;&gt;models/evaluated&#45;data.ts</title>
<path fill="none" stroke="#757575" d="M1680.8,-226.15C1695.97,-227.06 1712.04,-227.87 1727,-228.34 1820.29,-231.24 1844.02,-236.42 1937,-228.34 1939.04,-228.16 1974.62,-221.94 2010.43,-215.62"/>
<polygon fill="#757575" stroke="#757575" points="2011.28,-219.03 2020.52,-213.85 2010.06,-212.14 2011.28,-219.03"/>
</g>
<!-- models/receiver&#45;event.ts -->
<g id="node16" class="node">
<title>models/receiver&#45;event.ts</title>
<path fill="none" stroke="#cfffac" d="M1910.83,-137.84C1910.83,-137.84 1753.17,-137.84 1753.17,-137.84 1749.33,-137.84 1745.5,-134.01 1745.5,-130.17 1745.5,-130.17 1745.5,-122.51 1745.5,-122.51 1745.5,-118.67 1749.33,-114.84 1753.17,-114.84 1753.17,-114.84 1910.83,-114.84 1910.83,-114.84 1914.67,-114.84 1918.5,-118.67 1918.5,-122.51 1918.5,-122.51 1918.5,-130.17 1918.5,-130.17 1918.5,-134.01 1914.67,-137.84 1910.83,-137.84"/>
<text text-anchor="middle" x="1832" y="-122.64" font-family="Arial" font-size="14.00" fill="#cfffac">models/receiver&#45;event.ts</text>
</g>
<!-- models/receiver.ts&#45;&gt;models/receiver&#45;event.ts -->
<g id="edge15" class="edge">
<title>models/receiver.ts&#45;&gt;models/receiver&#45;event.ts</title>
<path fill="none" stroke="#757575" d="M1633.24,-209.74C1648.84,-199.99 1671.57,-185.56 1691,-172.34 1707.32,-161.23 1708.88,-154.17 1727,-146.34 1731.73,-144.3 1736.67,-142.46 1741.72,-140.81"/>
<polygon fill="#757575" stroke="#757575" points="1742.97,-144.09 1751.54,-137.86 1740.96,-137.39 1742.97,-144.09"/>
</g>
<!-- services/firebasemessaging.ts -->
<g id="node17" class="node">
<title>services/firebasemessaging.ts</title>
<path fill="none" stroke="#cfffac" d="M1929.33,-178.84C1929.33,-178.84 1734.67,-178.84 1734.67,-178.84 1730.83,-178.84 1727,-175.01 1727,-171.17 1727,-171.17 1727,-163.51 1727,-163.51 1727,-159.67 1730.83,-155.84 1734.67,-155.84 1734.67,-155.84 1929.33,-155.84 1929.33,-155.84 1933.17,-155.84 1937,-159.67 1937,-163.51 1937,-163.51 1937,-171.17 1937,-171.17 1937,-175.01 1933.17,-178.84 1929.33,-178.84"/>
<text text-anchor="middle" x="1832" y="-163.64" font-family="Arial" font-size="14.00" fill="#cfffac">services/firebasemessaging.ts</text>
</g>
<!-- models/receiver.ts&#45;&gt;services/firebasemessaging.ts -->
<g id="edge16" class="edge">
<title>models/receiver.ts&#45;&gt;services/firebasemessaging.ts</title>
<path fill="none" stroke="#757575" d="M1649.21,-209.83C1671.32,-202.76 1700.65,-193.84 1727,-187.34 1736.21,-185.07 1745.93,-182.9 1755.58,-180.89"/>
<polygon fill="#757575" stroke="#757575" points="1756.49,-184.27 1765.59,-178.85 1755.09,-177.42 1756.49,-184.27"/>
</g>
<!-- services/websocketmessaging.ts -->
<g id="node18" class="node">
<title>services/websocketmessaging.ts</title>
<path fill="none" stroke="#c6c5fe" d="M2192.33,-295.84C2192.33,-295.84 1980.67,-295.84 1980.67,-295.84 1976.83,-295.84 1973,-292.01 1973,-288.17 1973,-288.17 1973,-280.51 1973,-280.51 1973,-276.67 1976.83,-272.84 1980.67,-272.84 1980.67,-272.84 2192.33,-272.84 2192.33,-272.84 2196.17,-272.84 2200,-276.67 2200,-280.51 2200,-280.51 2200,-288.17 2200,-288.17 2200,-292.01 2196.17,-295.84 2192.33,-295.84"/>
<text text-anchor="middle" x="2086.5" y="-280.64" font-family="Arial" font-size="14.00" fill="#c6c5fe">services/websocketmessaging.ts</text>
</g>
<!-- models/receiver.ts&#45;&gt;services/websocketmessaging.ts -->
<g id="edge17" class="edge">
<title>models/receiver.ts&#45;&gt;services/websocketmessaging.ts</title>
<path fill="none" stroke="#757575" d="M1663.3,-232.88C1683,-237.25 1706,-241.97 1727,-245.34 1805.06,-257.88 1893.35,-267.54 1962.78,-274.11"/>
<polygon fill="#757575" stroke="#757575" points="1962.6,-277.61 1972.88,-275.05 1963.25,-270.64 1962.6,-277.61"/>
</g>
<!-- util/log.ts -->
<g id="node19" class="node">
<title>util/log.ts</title>
<path fill="none" stroke="#c6c5fe" d="M1860.33,-700.84C1860.33,-700.84 1803.67,-700.84 1803.67,-700.84 1799.83,-700.84 1796,-697.01 1796,-693.17 1796,-693.17 1796,-685.51 1796,-685.51 1796,-681.67 1799.83,-677.84 1803.67,-677.84 1803.67,-677.84 1860.33,-677.84 1860.33,-677.84 1864.17,-677.84 1868,-681.67 1868,-685.51 1868,-685.51 1868,-693.17 1868,-693.17 1868,-697.01 1864.17,-700.84 1860.33,-700.84"/>
<text text-anchor="middle" x="1832" y="-685.64" font-family="Arial" font-size="14.00" fill="#c6c5fe">util/log.ts</text>
</g>
<!-- models/receiver.ts&#45;&gt;util/log.ts -->
<g id="edge18" class="edge">
<title>models/receiver.ts&#45;&gt;util/log.ts</title>
<path fill="none" stroke="#757575" d="M1619.85,-232.91C1648.51,-294.87 1783.96,-587.64 1821.39,-668.57"/>
<polygon fill="#757575" stroke="#757575" points="1818.27,-670.15 1825.64,-677.76 1824.62,-667.21 1818.27,-670.15"/>
</g>
<!-- models/transformer.ts&#45;&gt;models/connection&#45;response.ts -->
<g id="edge26" class="edge">
<title>models/transformer.ts&#45;&gt;models/connection&#45;response.ts</title>
<path fill="none" stroke="#757575" d="M1672.48,-405.8C1689.96,-402.51 1709.23,-399.09 1727,-396.34 1936.31,-364 1994.35,-389 2200,-338.34 2238.15,-328.94 2280,-312.35 2308.51,-300.04"/>
<polygon fill="#757575" stroke="#757575" points="2310.25,-303.09 2318.01,-295.88 2307.45,-296.68 2310.25,-303.09"/>
</g>
<!-- models/transformer.ts&#45;&gt;models/transformation.ts -->
<g id="edge27" class="edge">
<title>models/transformer.ts&#45;&gt;models/transformation.ts</title>
<path fill="none" stroke="#757575" d="M1691.13,-417.34C1705.37,-417.34 1720.4,-417.34 1735.12,-417.34"/>
<polygon fill="#757575" stroke="#757575" points="1735.25,-420.84 1745.25,-417.34 1735.25,-413.84 1735.25,-420.84"/>
</g>
<!-- models/evaluated&#45;data.ts&#45;&gt;models/connection&#45;response.ts -->
<g id="edge5" class="edge">
<title>models/evaluated&#45;data.ts&#45;&gt;models/connection&#45;response.ts</title>
<path fill="none" stroke="#757575" d="M2166.12,-213.9C2177.59,-216.28 2189.17,-219.08 2200,-222.34 2239.81,-234.33 2283.34,-254.26 2311.79,-268.28"/>
<polygon fill="#757575" stroke="#757575" points="2310.32,-271.46 2320.83,-272.79 2313.44,-265.19 2310.32,-271.46"/>
</g>
<!-- models/event.ts -->
<g id="node10" class="node">
<title>models/event.ts</title>
<path fill="none" stroke="#cfffac" d="M1455.33,-660.84C1455.33,-660.84 1353.67,-660.84 1353.67,-660.84 1349.83,-660.84 1346,-657.01 1346,-653.17 1346,-653.17 1346,-645.51 1346,-645.51 1346,-641.67 1349.83,-637.84 1353.67,-637.84 1353.67,-637.84 1455.33,-637.84 1455.33,-637.84 1459.17,-637.84 1463,-641.67 1463,-645.51 1463,-645.51 1463,-653.17 1463,-653.17 1463,-657.01 1459.17,-660.84 1455.33,-660.84"/>
<text text-anchor="middle" x="1404.5" y="-645.64" font-family="Arial" font-size="14.00" fill="#cfffac">models/event.ts</text>
</g>
<!-- models/inventory/item.ts -->
<g id="node11" class="node">
<title>models/inventory/item.ts</title>
<path fill="none" stroke="#c6c5fe" d="M1236.33,-822.84C1236.33,-822.84 1081.67,-822.84 1081.67,-822.84 1077.83,-822.84 1074,-819.01 1074,-815.17 1074,-815.17 1074,-807.51 1074,-807.51 1074,-803.67 1077.83,-799.84 1081.67,-799.84 1081.67,-799.84 1236.33,-799.84 1236.33,-799.84 1240.17,-799.84 1244,-803.67 1244,-807.51 1244,-807.51 1244,-815.17 1244,-815.17 1244,-819.01 1240.17,-822.84 1236.33,-822.84"/>
<text text-anchor="middle" x="1159" y="-807.64" font-family="Arial" font-size="14.00" fill="#c6c5fe">models/inventory/item.ts</text>
</g>
<!-- models/inventory/location.ts -->
<g id="node12" class="node">
<title>models/inventory/location.ts</title>
<path fill="none" stroke="#cfffac" d="M1492.33,-781.84C1492.33,-781.84 1316.67,-781.84 1316.67,-781.84 1312.83,-781.84 1309,-778.01 1309,-774.17 1309,-774.17 1309,-766.51 1309,-766.51 1309,-762.67 1312.83,-758.84 1316.67,-758.84 1316.67,-758.84 1492.33,-758.84 1492.33,-758.84 1496.17,-758.84 1500,-762.67 1500,-766.51 1500,-766.51 1500,-774.17 1500,-774.17 1500,-778.01 1496.17,-781.84 1492.33,-781.84"/>
<text text-anchor="middle" x="1404.5" y="-766.64" font-family="Arial" font-size="14.00" fill="#cfffac">models/inventory/location.ts</text>
</g>
<!-- models/inventory/item.ts&#45;&gt;models/inventory/location.ts -->
<g id="edge6" class="edge">
<title>models/inventory/item.ts&#45;&gt;models/inventory/location.ts</title>
<path fill="none" stroke="#757575" d="M1228.48,-799.81C1258.56,-794.74 1294.05,-788.77 1325.17,-783.53"/>
<polygon fill="#757575" stroke="#757575" points="1325.84,-786.97 1335.12,-781.85 1324.67,-780.06 1325.84,-786.97"/>
</g>
<!-- models/inventory/order.ts -->
<g id="node13" class="node">
<title>models/inventory/order.ts</title>
<path fill="none" stroke="#cfffac" d="M1484.83,-822.84C1484.83,-822.84 1324.17,-822.84 1324.17,-822.84 1320.33,-822.84 1316.5,-819.01 1316.5,-815.17 1316.5,-815.17 1316.5,-807.51 1316.5,-807.51 1316.5,-803.67 1320.33,-799.84 1324.17,-799.84 1324.17,-799.84 1484.83,-799.84 1484.83,-799.84 1488.67,-799.84 1492.5,-803.67 1492.5,-807.51 1492.5,-807.51 1492.5,-815.17 1492.5,-815.17 1492.5,-819.01 1488.67,-822.84 1484.83,-822.84"/>
<text text-anchor="middle" x="1404.5" y="-807.64" font-family="Arial" font-size="14.00" fill="#cfffac">models/inventory/order.ts</text>
</g>
<!-- models/inventory/item.ts&#45;&gt;models/inventory/order.ts -->
<g id="edge7" class="edge">
<title>models/inventory/item.ts&#45;&gt;models/inventory/order.ts</title>
<path fill="none" stroke="#757575" d="M1244.14,-811.34C1264.22,-811.34 1285.82,-811.34 1306.43,-811.34"/>
<polygon fill="#757575" stroke="#757575" points="1306.46,-814.84 1316.46,-811.34 1306.46,-807.84 1306.46,-814.84"/>
</g>
<!-- services/websocketmessaging.ts&#45;&gt;models/connection&#45;response.ts -->
<g id="edge84" class="edge">
<title>services/websocketmessaging.ts&#45;&gt;models/connection&#45;response.ts</title>
<path fill="none" stroke="#757575" d="M2200.31,-284.34C2208.67,-284.34 2217.12,-284.34 2225.51,-284.34"/>
<polygon fill="#757575" stroke="#757575" points="2225.71,-287.84 2235.71,-284.34 2225.71,-280.84 2225.71,-287.84"/>
</g>
<!-- util/btoaatob.ts -->
<g id="node47" class="node">
<title>util/btoaatob.ts</title>
<path fill="none" stroke="#cfffac" d="M2132.83,-700.84C2132.83,-700.84 2040.17,-700.84 2040.17,-700.84 2036.33,-700.84 2032.5,-697.01 2032.5,-693.17 2032.5,-693.17 2032.5,-685.51 2032.5,-685.51 2032.5,-681.67 2036.33,-677.84 2040.17,-677.84 2040.17,-677.84 2132.83,-677.84 2132.83,-677.84 2136.67,-677.84 2140.5,-681.67 2140.5,-685.51 2140.5,-685.51 2140.5,-693.17 2140.5,-693.17 2140.5,-697.01 2136.67,-700.84 2132.83,-700.84"/>
<text text-anchor="middle" x="2086.5" y="-685.64" font-family="Arial" font-size="14.00" fill="#cfffac">util/btoaatob.ts</text>
</g>
<!-- util/log.ts&#45;&gt;util/btoaatob.ts -->
<g id="edge85" class="edge">
<title>util/log.ts&#45;&gt;util/btoaatob.ts</title>
<path fill="none" stroke="#757575" d="M1868.11,-689.34C1907.83,-689.34 1973.33,-689.34 2022.07,-689.34"/>
<polygon fill="#757575" stroke="#757575" points="2022.2,-692.84 2032.2,-689.34 2022.2,-685.84 2022.2,-692.84"/>
</g>
<!-- models/sender.ts -->
<g id="node20" class="node">
<title>models/sender.ts</title>
<path fill="none" stroke="#c6c5fe" d="M1214.83,-625.84C1214.83,-625.84 1103.17,-625.84 1103.17,-625.84 1099.33,-625.84 1095.5,-622.01 1095.5,-618.17 1095.5,-618.17 1095.5,-610.51 1095.5,-610.51 1095.5,-606.67 1099.33,-602.84 1103.17,-602.84 1103.17,-602.84 1214.83,-602.84 1214.83,-602.84 1218.67,-602.84 1222.5,-606.67 1222.5,-610.51 1222.5,-610.51 1222.5,-618.17 1222.5,-618.17 1222.5,-622.01 1218.67,-625.84 1214.83,-625.84"/>
<text text-anchor="middle" x="1159" y="-610.64" font-family="Arial" font-size="14.00" fill="#c6c5fe">models/sender.ts</text>
</g>
<!-- models/sender.ts&#45;&gt;models/battery.ts -->
<g id="edge19" class="edge">
<title>models/sender.ts&#45;&gt;models/battery.ts</title>
<path fill="none" stroke="#757575" d="M1184.69,-626C1228.55,-646.72 1320.13,-689.96 1369.77,-713.41"/>
<polygon fill="#757575" stroke="#757575" points="1368.57,-716.71 1379.11,-717.82 1371.56,-710.38 1368.57,-716.71"/>
</g>
<!-- models/sender.ts&#45;&gt;models/connection&#45;response.ts -->
<g id="edge20" class="edge">
<title>models/sender.ts&#45;&gt;models/connection&#45;response.ts</title>
<path fill="none" stroke="#757575" d="M1222.78,-604.58C1309.98,-591.9 1472.82,-571.34 1612.5,-571.34 1612.5,-571.34 1612.5,-571.34 1833,-571.34 2052.22,-571.34 2264.21,-367.45 2325.42,-303.37"/>
<polygon fill="#757575" stroke="#757575" points="2328.11,-305.62 2332.43,-295.95 2323.02,-300.81 2328.11,-305.62"/>
</g>
<!-- models/sender.ts&#45;&gt;models/connection.ts -->
<g id="edge21" class="edge">
<title>models/sender.ts&#45;&gt;models/connection.ts</title>
<path fill="none" stroke="#757575" d="M1222.71,-607.03C1241.15,-601.97 1259.87,-593.49 1273,-579.34 1321.69,-526.86 1259.48,-474.04 1309,-422.34 1312.42,-418.76 1316.29,-415.67 1320.45,-412.98"/>
<polygon fill="#757575" stroke="#757575" points="1322.33,-415.95 1329.37,-408.04 1318.93,-409.83 1322.33,-415.95"/>
</g>
<!-- models/sender.ts&#45;&gt;models/transformation.ts -->
<g id="edge23" class="edge">
<title>models/sender.ts&#45;&gt;models/transformation.ts</title>
<path fill="none" stroke="#757575" d="M1206.31,-602.8C1227.14,-596.91 1251.76,-588.94 1273,-579.34 1290.09,-571.62 1292,-565.26 1309,-557.34 1455.47,-489.13 1641.07,-449.34 1746.89,-430.6"/>
<polygon fill="#757575" stroke="#757575" points="1747.63,-434.02 1756.88,-428.85 1746.43,-427.13 1747.63,-434.02"/>
</g>
<!-- models/sender.ts&#45;&gt;models/transformer.ts -->
<g id="edge24" class="edge">
<title>models/sender.ts&#45;&gt;models/transformer.ts</title>
<path fill="none" stroke="#757575" d="M1222.61,-605.02C1240.51,-599.85 1258.95,-591.82 1273,-579.34 1302.45,-553.17 1279.04,-523.92 1309,-498.34 1369.46,-446.72 1459.47,-427.63 1525.77,-420.75"/>
<polygon fill="#757575" stroke="#757575" points="1526.17,-424.23 1535.79,-419.78 1525.5,-417.26 1526.17,-424.23"/>
</g>
<!-- models/sender.ts&#45;&gt;models/event.ts -->
<g id="edge22" class="edge">
<title>models/sender.ts&#45;&gt;models/event.ts</title>
<path fill="none" stroke="#757575" d="M1222.71,-623.35C1257.21,-628.31 1300.05,-634.47 1335.37,-639.55"/>
<polygon fill="#757575" stroke="#757575" points="1335.2,-643.06 1345.6,-641.02 1336.2,-636.13 1335.2,-643.06"/>
</g>
<!-- models/sender.ts&#45;&gt;util/log.ts -->
<g id="edge25" class="edge">
<title>models/sender.ts&#45;&gt;util/log.ts</title>
<path fill="none" stroke="#757575" d="M1222.55,-614.28C1290.92,-614.82 1403.57,-617.52 1500,-628.34 1603.14,-639.91 1722.49,-664.79 1785.91,-678.94"/>
<polygon fill="#757575" stroke="#757575" points="1785.45,-682.42 1795.97,-681.2 1786.98,-675.59 1785.45,-682.42"/>
</g>
<!-- models/test.ts -->
<g id="node21" class="node">
<title>models/test.ts</title>
<path fill="none" stroke="#cfffac" d="M149.33,-730.84C149.33,-730.84 58.67,-730.84 58.67,-730.84 54.83,-730.84 51,-727.01 51,-723.17 51,-723.17 51,-715.51 51,-715.51 51,-711.67 54.83,-707.84 58.67,-707.84 58.67,-707.84 149.33,-707.84 149.33,-707.84 153.17,-707.84 157,-711.67 157,-715.51 157,-715.51 157,-723.17 157,-723.17 157,-727.01 153.17,-730.84 149.33,-730.84"/>
<text text-anchor="middle" x="104" y="-715.64" font-family="Arial" font-size="14.00" fill="#cfffac">models/test.ts</text>
</g>
<!-- models/timer.ts -->
<g id="node22" class="node">
<title>models/timer.ts</title>
<path fill="none" stroke="#cfffac" d="M1208.33,-493.84C1208.33,-493.84 1109.67,-493.84 1109.67,-493.84 1105.83,-493.84 1102,-490.01 1102,-486.17 1102,-486.17 1102,-478.51 1102,-478.51 1102,-474.67 1105.83,-470.84 1109.67,-470.84 1109.67,-470.84 1208.33,-470.84 1208.33,-470.84 1212.17,-470.84 1216,-474.67 1216,-478.51 1216,-478.51 1216,-486.17 1216,-486.17 1216,-490.01 1212.17,-493.84 1208.33,-493.84"/>
<text text-anchor="middle" x="1159" y="-478.64" font-family="Arial" font-size="14.00" fill="#cfffac">models/timer.ts</text>
</g>
<!-- node&#45;red/glboal&#45;script.ts -->
<g id="node23" class="node">
<title>node&#45;red/glboal&#45;script.ts</title>
<path fill="none" stroke="#c6c5fe" d="M964.33,-1213.84C964.33,-1213.84 809.67,-1213.84 809.67,-1213.84 805.83,-1213.84 802,-1210.01 802,-1206.17 802,-1206.17 802,-1198.51 802,-1198.51 802,-1194.67 805.83,-1190.84 809.67,-1190.84 809.67,-1190.84 964.33,-1190.84 964.33,-1190.84 968.17,-1190.84 972,-1194.67 972,-1198.51 972,-1198.51 972,-1206.17 972,-1206.17 972,-1210.01 968.17,-1213.84 964.33,-1213.84"/>
<text text-anchor="middle" x="887" y="-1198.64" font-family="Arial" font-size="14.00" fill="#c6c5fe">node&#45;red/glboal&#45;script.ts</text>
</g>
<!-- node&#45;red/red&#45;ui.d.ts -->
<g id="node24" class="node">
<title>node&#45;red/red&#45;ui.d.ts</title>
<path fill="none" stroke="#cfffac" d="M1221.83,-1213.84C1221.83,-1213.84 1096.17,-1213.84 1096.17,-1213.84 1092.33,-1213.84 1088.5,-1210.01 1088.5,-1206.17 1088.5,-1206.17 1088.5,-1198.51 1088.5,-1198.51 1088.5,-1194.67 1092.33,-1190.84 1096.17,-1190.84 1096.17,-1190.84 1221.83,-1190.84 1221.83,-1190.84 1225.67,-1190.84 1229.5,-1194.67 1229.5,-1198.51 1229.5,-1198.51 1229.5,-1206.17 1229.5,-1206.17 1229.5,-1210.01 1225.67,-1213.84 1221.83,-1213.84"/>
<text text-anchor="middle" x="1159" y="-1198.64" font-family="Arial" font-size="14.00" fill="#cfffac">node&#45;red/red&#45;ui.d.ts</text>
</g>
<!-- node&#45;red/glboal&#45;script.ts&#45;&gt;node&#45;red/red&#45;ui.d.ts -->
<g id="edge28" class="edge">
<title>node&#45;red/glboal&#45;script.ts&#45;&gt;node&#45;red/red&#45;ui.d.ts</title>
<path fill="none" stroke="#757575" d="M972.32,-1202.34C1006.11,-1202.34 1044.86,-1202.34 1078.19,-1202.34"/>
<polygon fill="#757575" stroke="#757575" points="1078.35,-1205.84 1088.35,-1202.34 1078.35,-1198.84 1078.35,-1205.84"/>
</g>
<!-- node&#45;red/node&#45;red&#45;registration.ts -->
<g id="node25" class="node">
<title>node&#45;red/node&#45;red&#45;registration.ts</title>
<path fill="none" stroke="#c6c5fe" d="M721.33,-1213.84C721.33,-1213.84 511.67,-1213.84 511.67,-1213.84 507.83,-1213.84 504,-1210.01 504,-1206.17 504,-1206.17 504,-1198.51 504,-1198.51 504,-1194.67 507.83,-1190.84 511.67,-1190.84 511.67,-1190.84 721.33,-1190.84 721.33,-1190.84 725.17,-1190.84 729,-1194.67 729,-1198.51 729,-1198.51 729,-1206.17 729,-1206.17 729,-1210.01 725.17,-1213.84 721.33,-1213.84"/>
<text text-anchor="middle" x="616.5" y="-1198.64" font-family="Arial" font-size="14.00" fill="#c6c5fe">node&#45;red/node&#45;red&#45;registration.ts</text>
</g>
<!-- node&#45;red/node&#45;red&#45;registration.ts&#45;&gt;node&#45;red/glboal&#45;script.ts -->
<g id="edge29" class="edge">
<title>node&#45;red/node&#45;red&#45;registration.ts&#45;&gt;node&#45;red/glboal&#45;script.ts</title>
<path fill="none" stroke="#757575" d="M729.04,-1202.34C749.87,-1202.34 771.45,-1202.34 791.7,-1202.34"/>
<polygon fill="#757575" stroke="#757575" points="791.83,-1205.84 801.83,-1202.34 791.83,-1198.84 791.83,-1205.84"/>
</g>
<!-- node&#45;red/node&#45;red&#45;registration.ts&#45;&gt;node&#45;red/red&#45;ui.d.ts -->
<g id="edge30" class="edge">
<title>node&#45;red/node&#45;red&#45;registration.ts&#45;&gt;node&#45;red/red&#45;ui.d.ts</title>
<path fill="none" stroke="#757575" d="M684.1,-1190.82C709.36,-1186.99 738.42,-1183.22 765,-1181.34 873.17,-1173.68 900.82,-1173.75 1009,-1181.34 1032.38,-1182.98 1057.68,-1186.05 1080.67,-1189.35"/>
<polygon fill="#757575" stroke="#757575" points="1080.31,-1192.83 1090.71,-1190.82 1081.33,-1185.9 1080.31,-1192.83"/>
</g>
<!-- node&#45;red/register&#45;custom&#45;type.ts -->
<g id="node26" class="node">
<title>node&#45;red/register&#45;custom&#45;type.ts</title>
<path fill="none" stroke="#c6c5fe" d="M460.33,-1233.84C460.33,-1233.84 251.67,-1233.84 251.67,-1233.84 247.83,-1233.84 244,-1230.01 244,-1226.17 244,-1226.17 244,-1218.51 244,-1218.51 244,-1214.67 247.83,-1210.84 251.67,-1210.84 251.67,-1210.84 460.33,-1210.84 460.33,-1210.84 464.17,-1210.84 468,-1214.67 468,-1218.51 468,-1218.51 468,-1226.17 468,-1226.17 468,-1230.01 464.17,-1233.84 460.33,-1233.84"/>
<text text-anchor="middle" x="356" y="-1218.64" font-family="Arial" font-size="14.00" fill="#c6c5fe">node&#45;red/register&#45;custom&#45;type.ts</text>
</g>
<!-- node&#45;red/register&#45;custom&#45;type.ts&#45;&gt;node&#45;red/red&#45;ui.d.ts -->
<g id="edge32" class="edge">
<title>node&#45;red/register&#45;custom&#45;type.ts&#45;&gt;node&#45;red/red&#45;ui.d.ts</title>
<path fill="none" stroke="#757575" d="M468.2,-1227.34C598.12,-1232.06 819.44,-1236.63 1009,-1223.34 1032.38,-1221.7 1057.68,-1218.63 1080.67,-1215.33"/>
<polygon fill="#757575" stroke="#757575" points="1081.33,-1218.78 1090.71,-1213.86 1080.31,-1211.85 1081.33,-1218.78"/>
</g>
<!-- node&#45;red/register&#45;custom&#45;type.ts&#45;&gt;node&#45;red/node&#45;red&#45;registration.ts -->
<g id="edge31" class="edge">
<title>node&#45;red/register&#45;custom&#45;type.ts&#45;&gt;node&#45;red/node&#45;red&#45;registration.ts</title>
<path fill="none" stroke="#757575" d="M468.13,-1213.74C476.59,-1213.09 485.15,-1212.42 493.67,-1211.77"/>
<polygon fill="#757575" stroke="#757575" points="493.94,-1215.25 503.65,-1210.99 493.4,-1208.28 493.94,-1215.25"/>
</g>
<!-- node&#45;red/server.ts -->
<g id="node27" class="node">
<title>node&#45;red/server.ts</title>
<path fill="none" stroke="#c6c5fe" d="M162.83,-1233.84C162.83,-1233.84 45.17,-1233.84 45.17,-1233.84 41.33,-1233.84 37.5,-1230.01 37.5,-1226.17 37.5,-1226.17 37.5,-1218.51 37.5,-1218.51 37.5,-1214.67 41.33,-1210.84 45.17,-1210.84 45.17,-1210.84 162.83,-1210.84 162.83,-1210.84 166.67,-1210.84 170.5,-1214.67 170.5,-1218.51 170.5,-1218.51 170.5,-1226.17 170.5,-1226.17 170.5,-1230.01 166.67,-1233.84 162.83,-1233.84"/>
<text text-anchor="middle" x="104" y="-1218.64" font-family="Arial" font-size="14.00" fill="#c6c5fe">node&#45;red/server.ts</text>
</g>
<!-- node&#45;red/server.ts&#45;&gt;node&#45;red/register&#45;custom&#45;type.ts -->
<g id="edge33" class="edge">
<title>node&#45;red/server.ts&#45;&gt;node&#45;red/register&#45;custom&#45;type.ts</title>
<path fill="none" stroke="#757575" d="M170.68,-1222.34C190.04,-1222.34 211.87,-1222.34 233.56,-1222.34"/>
<polygon fill="#757575" stroke="#757575" points="233.84,-1225.84 243.84,-1222.34 233.84,-1218.84 233.84,-1225.84"/>
</g>
<!-- resources/connection.r.ts -->
<g id="node28" class="node">
<title>resources/connection.r.ts</title>
<path fill="none" stroke="#c6c5fe" d="M436.33,-434.84C436.33,-434.84 275.67,-434.84 275.67,-434.84 271.83,-434.84 268,-431.01 268,-427.17 268,-427.17 268,-419.51 268,-419.51 268,-415.67 271.83,-411.84 275.67,-411.84 275.67,-411.84 436.33,-411.84 436.33,-411.84 440.17,-411.84 444,-415.67 444,-419.51 444,-419.51 444,-427.17 444,-427.17 444,-431.01 440.17,-434.84 436.33,-434.84"/>
<text text-anchor="middle" x="356" y="-419.64" font-family="Arial" font-size="14.00" fill="#c6c5fe">resources/connection.r.ts</text>
</g>
<!-- resources/connection.r.ts&#45;&gt;models/connection.ts -->
<g id="edge34" class="edge">
<title>resources/connection.r.ts&#45;&gt;models/connection.ts</title>
<path fill="none" stroke="#757575" d="M444.42,-421.08C642.29,-415.98 1122.41,-403.59 1318.22,-398.54"/>
<polygon fill="#757575" stroke="#757575" points="1318.55,-402.03 1328.45,-398.28 1318.37,-395.04 1318.55,-402.03"/>
</g>
<!-- resources/connection.r.ts&#45;&gt;models/receiver.ts -->
<g id="edge35" class="edge">
<title>resources/connection.r.ts&#45;&gt;models/receiver.ts</title>
<path fill="none" stroke="#757575" d="M379.76,-411.76C440.56,-381.36 612.51,-298.84 765,-258.34 1041.37,-184.94 1386.04,-201.6 1536.42,-213.93"/>
<polygon fill="#757575" stroke="#757575" points="1536.22,-217.42 1546.48,-214.77 1536.8,-210.44 1536.22,-217.42"/>
</g>
<!-- resources/connection.r.ts&#45;&gt;models/sender.ts -->
<g id="edge36" class="edge">
<title>resources/connection.r.ts&#45;&gt;models/sender.ts</title>
<path fill="none" stroke="#757575" d="M431.13,-434.88C443.52,-437.33 456.18,-440.15 468,-443.34 587.18,-475.51 633.77,-459.79 729,-538.34 752.99,-558.13 738.26,-582.47 765,-598.34 817.25,-629.34 986.76,-624.98 1085.26,-619.43"/>
<polygon fill="#757575" stroke="#757575" points="1085.66,-622.91 1095.44,-618.84 1085.25,-615.92 1085.66,-622.91"/>
</g>
<!-- resources/frontend&#45;update.ts -->
<g id="node29" class="node">
<title>resources/frontend&#45;update.ts</title>
<path fill="none" stroke="#c6c5fe" d="M708.83,-570.84C708.83,-570.84 524.17,-570.84 524.17,-570.84 520.33,-570.84 516.5,-567.01 516.5,-563.17 516.5,-563.17 516.5,-555.51 516.5,-555.51 516.5,-551.67 520.33,-547.84 524.17,-547.84 524.17,-547.84 708.83,-547.84 708.83,-547.84 712.67,-547.84 716.5,-551.67 716.5,-555.51 716.5,-555.51 716.5,-563.17 716.5,-563.17 716.5,-567.01 712.67,-570.84 708.83,-570.84"/>
<text text-anchor="middle" x="616.5" y="-555.64" font-family="Arial" font-size="14.00" fill="#c6c5fe">resources/frontend&#45;update.ts</text>
</g>
<!-- resources/connection.r.ts&#45;&gt;resources/frontend&#45;update.ts -->
<g id="edge37" class="edge">
<title>resources/connection.r.ts&#45;&gt;resources/frontend&#45;update.ts</title>
<path fill="none" stroke="#757575" d="M444.17,-430.04C452.79,-433.26 460.94,-437.58 468,-443.34 501.38,-470.57 471.32,-505.27 504,-533.34 508.54,-537.24 513.55,-540.58 518.87,-543.44"/>
<polygon fill="#757575" stroke="#757575" points="517.53,-546.68 528.07,-547.82 520.54,-540.36 517.53,-546.68"/>
</g>
<!-- resources/frontend&#45;update.ts&#45;&gt;models/receiver.ts -->
<g id="edge39" class="edge">
<title>resources/frontend&#45;update.ts&#45;&gt;models/receiver.ts</title>
<path fill="none" stroke="#757575" d="M637.28,-547.74C717.65,-501.23 1028.79,-327.27 1309,-253.34 1384.7,-233.37 1474.14,-225.79 1536.22,-222.95"/>
<polygon fill="#757575" stroke="#757575" points="1536.49,-226.44 1546.33,-222.52 1536.19,-219.45 1536.49,-226.44"/>
</g>
<!-- resources/frontend&#45;update.ts&#45;&gt;models/inventory/item.ts -->
<g id="edge38" class="edge">
<title>resources/frontend&#45;update.ts&#45;&gt;models/inventory/item.ts</title>
<path fill="none" stroke="#757575" d="M629.05,-571.14C652.61,-594.59 708.74,-647.49 765,-678.34 865.32,-733.34 900.66,-723.59 1009,-760.34 1044.59,-772.41 1084.92,-786.22 1114.64,-796.43"/>
<polygon fill="#757575" stroke="#757575" points="1113.69,-799.8 1124.29,-799.74 1115.97,-793.18 1113.69,-799.8"/>
</g>
<!-- resources/frontend&#45;update.ts&#45;&gt;models/timer.ts -->
<g id="edge40" class="edge">
<title>resources/frontend&#45;update.ts&#45;&gt;models/timer.ts</title>
<path fill="none" stroke="#757575" d="M659.81,-547.8C689.14,-540.17 729.2,-530.47 765,-524.34 878.92,-504.82 1013.06,-492.8 1091.5,-486.87"/>
<polygon fill="#757575" stroke="#757575" points="1092.01,-490.34 1101.72,-486.1 1091.49,-483.36 1092.01,-490.34"/>
</g>
<!-- resources/websocket&#45;response.d.ts -->
<g id="node30" class="node">
<title>resources/websocket&#45;response.d.ts</title>
<path fill="none" stroke="#c6c5fe" d="M1001.33,-589.84C1001.33,-589.84 772.67,-589.84 772.67,-589.84 768.83,-589.84 765,-586.01 765,-582.17 765,-582.17 765,-574.51 765,-574.51 765,-570.67 768.83,-566.84 772.67,-566.84 772.67,-566.84 1001.33,-566.84 1001.33,-566.84 1005.17,-566.84 1009,-570.67 1009,-574.51 1009,-574.51 1009,-582.17 1009,-582.17 1009,-586.01 1005.17,-589.84 1001.33,-589.84"/>
<text text-anchor="middle" x="887" y="-574.64" font-family="Arial" font-size="14.00" fill="#c6c5fe">resources/websocket&#45;response.d.ts</text>
</g>
<!-- resources/frontend&#45;update.ts&#45;&gt;resources/websocket&#45;response.d.ts -->
<g id="edge41" class="edge">
<title>resources/frontend&#45;update.ts&#45;&gt;resources/websocket&#45;response.d.ts</title>
<path fill="none" stroke="#757575" d="M716.72,-566.36C729.09,-567.24 741.9,-568.14 754.67,-569.05"/>
<polygon fill="#757575" stroke="#757575" points="754.67,-572.55 764.89,-569.77 755.16,-565.57 754.67,-572.55"/>
</g>
<!-- services/sender&#45;loader.ts -->
<g id="node31" class="node">
<title>services/sender&#45;loader.ts</title>
<path fill="none" stroke="#c6c5fe" d="M967.83,-825.84C967.83,-825.84 806.17,-825.84 806.17,-825.84 802.33,-825.84 798.5,-822.01 798.5,-818.17 798.5,-818.17 798.5,-810.51 798.5,-810.51 798.5,-806.67 802.33,-802.84 806.17,-802.84 806.17,-802.84 967.83,-802.84 967.83,-802.84 971.67,-802.84 975.5,-806.67 975.5,-810.51 975.5,-810.51 975.5,-818.17 975.5,-818.17 975.5,-822.01 971.67,-825.84 967.83,-825.84"/>
<text text-anchor="middle" x="887" y="-810.64" font-family="Arial" font-size="14.00" fill="#c6c5fe">services/sender&#45;loader.ts</text>
</g>
<!-- resources/frontend&#45;update.ts&#45;&gt;services/sender&#45;loader.ts -->
<g id="edge42" class="edge">
<title>resources/frontend&#45;update.ts&#45;&gt;services/sender&#45;loader.ts</title>
<path fill="none" stroke="#757575" d="M627.85,-570.86C651.4,-596.9 711.11,-661.93 765,-712.34 797.85,-743.06 838.16,-776.2 862.96,-796.1"/>
<polygon fill="#757575" stroke="#757575" points="861.05,-799.06 871.05,-802.57 865.42,-793.59 861.05,-799.06"/>
</g>
<!-- resources/websocket&#45;response.d.ts&#45;&gt;models/receiver.ts -->
<g id="edge63" class="edge">
<title>resources/websocket&#45;response.d.ts&#45;&gt;models/receiver.ts</title>
<path fill="none" stroke="#757575" d="M962.74,-566.77C978.24,-563.47 994.31,-559.37 1009,-554.34 1025.92,-548.55 1027.94,-541.73 1045,-536.34 1142.7,-505.49 1196.06,-570 1273,-502.34 1317.06,-463.6 1271.71,-420.63 1309,-375.34 1372.71,-297.95 1485.27,-255.5 1553.96,-235.67"/>
<polygon fill="#757575" stroke="#757575" points="1555.08,-238.98 1563.76,-232.9 1553.19,-232.25 1555.08,-238.98"/>
</g>
<!-- resources/websocket&#45;response.d.ts&#45;&gt;models/inventory/item.ts -->
<g id="edge62" class="edge">
<title>resources/websocket&#45;response.d.ts&#45;&gt;models/inventory/item.ts</title>
<path fill="none" stroke="#757575" d="M931.17,-589.93C957.05,-598.93 988.75,-613.91 1009,-637.34 1043.47,-677.22 1011.36,-709.76 1045,-750.34 1062.44,-771.38 1089.1,-786.26 1112.14,-796.05"/>
<polygon fill="#757575" stroke="#757575" points="1110.84,-799.31 1121.42,-799.82 1113.47,-792.82 1110.84,-799.31"/>
</g>
<!-- resources/websocket&#45;response.d.ts&#45;&gt;models/sender.ts -->
<g id="edge64" class="edge">
<title>resources/websocket&#45;response.d.ts&#45;&gt;models/sender.ts</title>
<path fill="none" stroke="#757575" d="M974.54,-589.88C1010.19,-594.63 1051.03,-600.08 1085.12,-604.62"/>
<polygon fill="#757575" stroke="#757575" points="1085.09,-608.15 1095.46,-606 1086.02,-601.21 1085.09,-608.15"/>
</g>
<!-- resources/websocket&#45;response.d.ts&#45;&gt;models/timer.ts -->
<g id="edge65" class="edge">
<title>resources/websocket&#45;response.d.ts&#45;&gt;models/timer.ts</title>
<path fill="none" stroke="#757575" d="M975.99,-566.82C987.58,-563.21 998.92,-558.5 1009,-552.34 1030.56,-539.17 1023.53,-521.67 1045,-508.34 1059.02,-499.63 1075.65,-493.84 1091.78,-489.98"/>
<polygon fill="#757575" stroke="#757575" points="1092.7,-493.36 1101.73,-487.82 1091.22,-486.52 1092.7,-493.36"/>
</g>
<!-- services/sender&#45;loader.ts&#45;&gt;models/sound.ts -->
<g id="edge78" class="edge">
<title>services/sender&#45;loader.ts&#45;&gt;models/sound.ts</title>
<path fill="none" stroke="#757575" d="M893.78,-825.94C911.15,-859.27 966.53,-955.18 1045,-990.34 1229.55,-1073.02 1305.98,-1047.34 1500,-990.34 1721.55,-925.26 1818.29,-907.4 1937,-709.34 1988.12,-624.05 1906.12,-336.92 1973,-263.34 1983.94,-251.3 1999.41,-244.93 2015.39,-241.82"/>
<polygon fill="#757575" stroke="#757575" points="2016.01,-245.26 2025.37,-240.28 2014.95,-238.34 2016.01,-245.26"/>
</g>
<!-- services/sender&#45;loader.ts&#45;&gt;models/sender.ts -->
<g id="edge77" class="edge">
<title>services/sender&#45;loader.ts&#45;&gt;models/sender.ts</title>
<path fill="none" stroke="#757575" d="M916.64,-802.76C942.32,-791.57 980.28,-773.02 1009,-750.34 1028.03,-735.31 1027.67,-726.3 1045,-709.34 1074.36,-680.6 1111.26,-650.6 1134.75,-632.19"/>
<polygon fill="#757575" stroke="#757575" points="1137.01,-634.86 1142.75,-625.95 1132.71,-629.34 1137.01,-634.86"/>
</g>
<!-- util/tsc&#45;compiler.ts -->
<g id="node44" class="node">
<title>util/tsc&#45;compiler.ts</title>
<path fill="none" stroke="#c6c5fe" d="M1216.83,-981.84C1216.83,-981.84 1101.17,-981.84 1101.17,-981.84 1097.33,-981.84 1093.5,-978.01 1093.5,-974.17 1093.5,-974.17 1093.5,-966.51 1093.5,-966.51 1093.5,-962.67 1097.33,-958.84 1101.17,-958.84 1101.17,-958.84 1216.83,-958.84 1216.83,-958.84 1220.67,-958.84 1224.5,-962.67 1224.5,-966.51 1224.5,-966.51 1224.5,-974.17 1224.5,-974.17 1224.5,-978.01 1220.67,-981.84 1216.83,-981.84"/>
<text text-anchor="middle" x="1159" y="-966.64" font-family="Arial" font-size="14.00" fill="#c6c5fe">util/tsc&#45;compiler.ts</text>
</g>
<!-- services/sender&#45;loader.ts&#45;&gt;util/tsc&#45;compiler.ts -->
<g id="edge79" class="edge">
<title>services/sender&#45;loader.ts&#45;&gt;util/tsc&#45;compiler.ts</title>
<path fill="none" stroke="#757575" d="M908.29,-826.07C955.71,-853.46 1073.91,-921.75 1128.95,-953.55"/>
<polygon fill="#757575" stroke="#757575" points="1127.43,-956.72 1137.84,-958.69 1130.93,-950.66 1127.43,-956.72"/>
</g>
<!-- resources/inventory.r.ts -->
<g id="node32" class="node">
<title>resources/inventory.r.ts</title>
<path fill="none" stroke="#c6c5fe" d="M430.33,-1059.84C430.33,-1059.84 281.67,-1059.84 281.67,-1059.84 277.83,-1059.84 274,-1056.01 274,-1052.17 274,-1052.17 274,-1044.51 274,-1044.51 274,-1040.67 277.83,-1036.84 281.67,-1036.84 281.67,-1036.84 430.33,-1036.84 430.33,-1036.84 434.17,-1036.84 438,-1040.67 438,-1044.51 438,-1044.51 438,-1052.17 438,-1052.17 438,-1056.01 434.17,-1059.84 430.33,-1059.84"/>
<text text-anchor="middle" x="356" y="-1044.64" font-family="Arial" font-size="14.00" fill="#c6c5fe">resources/inventory.r.ts</text>
</g>
<!-- resources/inventory.r.ts&#45;&gt;models/inventory/item.ts -->
<g id="edge43" class="edge">
<title>resources/inventory.r.ts&#45;&gt;models/inventory/item.ts</title>
<path fill="none" stroke="#757575" d="M438.36,-1052.21C514.53,-1053.91 630.97,-1051.53 729,-1028.34 861.1,-997.09 889.18,-970.14 1009,-906.34 1054.4,-882.17 1104.24,-848.91 1133.23,-828.84"/>
<polygon fill="#757575" stroke="#757575" points="1135.33,-831.64 1141.53,-823.05 1131.33,-825.9 1135.33,-831.64"/>
</g>
<!-- resources/inventory.r.ts&#45;&gt;models/inventory/order.ts -->
<g id="edge44" class="edge">
<title>resources/inventory.r.ts&#45;&gt;models/inventory/order.ts</title>
<path fill="none" stroke="#757575" d="M438.33,-1057.05C513.98,-1063.45 629.64,-1068.92 729,-1055.34 856.99,-1037.85 893.61,-1035.43 1009,-977.34 1027.11,-968.23 1026.98,-958.62 1045,-949.34 1139.02,-900.94 1175.54,-922.37 1273,-881.34 1289.87,-874.24 1292.91,-870.06 1309,-861.34 1330.08,-849.91 1353.94,-837.28 1372.42,-827.58"/>
<polygon fill="#757575" stroke="#757575" points="1374.05,-830.68 1381.28,-822.93 1370.8,-824.48 1374.05,-830.68"/>
</g>
<!-- resources/inventory.r.ts&#45;&gt;util/log.ts -->
<g id="edge47" class="edge">
<title>resources/inventory.r.ts&#45;&gt;util/log.ts</title>
<path fill="none" stroke="#757575" d="M404.81,-1059.88C497.19,-1081.14 706.93,-1124.34 886,-1124.34 886,-1124.34 886,-1124.34 1160,-1124.34 1413.46,-1124.34 1520.96,-1104.3 1691,-916.34 1751.69,-849.25 1801.29,-752.34 1821.38,-710.21"/>
<polygon fill="#757575" stroke="#757575" points="1824.64,-711.49 1825.74,-700.95 1818.31,-708.51 1824.64,-711.49"/>
</g>
<!-- resources/inventory.r.ts&#45;&gt;resources/frontend&#45;update.ts -->
<g id="edge45" class="edge">
<title>resources/inventory.r.ts&#45;&gt;resources/frontend&#45;update.ts</title>
<path fill="none" stroke="#757575" d="M438.23,-1043.64C449.15,-1040.1 459.49,-1034.89 468,-1027.34 537.95,-965.21 596.45,-665.2 611.65,-581.22"/>
<polygon fill="#757575" stroke="#757575" points="615.12,-581.72 613.44,-571.26 608.23,-580.49 615.12,-581.72"/>
</g>
<!-- services/image&#45;converter.ts -->
<g id="node33" class="node">
<title>services/image&#45;converter.ts</title>
<path fill="none" stroke="#cfffac" d="M704.33,-1019.84C704.33,-1019.84 528.67,-1019.84 528.67,-1019.84 524.83,-1019.84 521,-1016.01 521,-1012.17 521,-1012.17 521,-1004.51 521,-1004.51 521,-1000.67 524.83,-996.84 528.67,-996.84 528.67,-996.84 704.33,-996.84 704.33,-996.84 708.17,-996.84 712,-1000.67 712,-1004.51 712,-1004.51 712,-1012.17 712,-1012.17 712,-1016.01 708.17,-1019.84 704.33,-1019.84"/>
<text text-anchor="middle" x="616.5" y="-1004.64" font-family="Arial" font-size="14.00" fill="#cfffac">services/image&#45;converter.ts</text>
</g>
<!-- resources/inventory.r.ts&#45;&gt;services/image&#45;converter.ts -->
<g id="edge46" class="edge">
<title>resources/inventory.r.ts&#45;&gt;services/image&#45;converter.ts</title>
<path fill="none" stroke="#757575" d="M431.42,-1036.82C462.51,-1032.01 498.8,-1026.4 530.89,-1021.43"/>
<polygon fill="#757575" stroke="#757575" points="531.81,-1024.83 541.16,-1019.84 530.74,-1017.91 531.81,-1024.83"/>
</g>
<!-- resources/log.r.ts -->
<g id="node34" class="node">
<title>resources/log.r.ts</title>
<path fill="none" stroke="#cfffac" d="M159.83,-1274.84C159.83,-1274.84 48.17,-1274.84 48.17,-1274.84 44.33,-1274.84 40.5,-1271.01 40.5,-1267.17 40.5,-1267.17 40.5,-1259.51 40.5,-1259.51 40.5,-1255.67 44.33,-1251.84 48.17,-1251.84 48.17,-1251.84 159.83,-1251.84 159.83,-1251.84 163.67,-1251.84 167.5,-1255.67 167.5,-1259.51 167.5,-1259.51 167.5,-1267.17 167.5,-1267.17 167.5,-1271.01 163.67,-1274.84 159.83,-1274.84"/>
<text text-anchor="middle" x="104" y="-1259.64" font-family="Arial" font-size="14.00" fill="#cfffac">resources/log.r.ts</text>
</g>
<!-- resources/receiver.r.ts -->
<g id="node35" class="node">
<title>resources/receiver.r.ts</title>
<path fill="none" stroke="#c6c5fe" d="M427.33,-228.84C427.33,-228.84 284.67,-228.84 284.67,-228.84 280.83,-228.84 277,-225.01 277,-221.17 277,-221.17 277,-213.51 277,-213.51 277,-209.67 280.83,-205.84 284.67,-205.84 284.67,-205.84 427.33,-205.84 427.33,-205.84 431.17,-205.84 435,-209.67 435,-213.51 435,-213.51 435,-221.17 435,-221.17 435,-225.01 431.17,-228.84 427.33,-228.84"/>
<text text-anchor="middle" x="356" y="-213.64" font-family="Arial" font-size="14.00" fill="#c6c5fe">resources/receiver.r.ts</text>
</g>
<!-- resources/receiver.r.ts&#45;&gt;models/receiver&#45;data.ts -->
<g id="edge48" class="edge">
<title>resources/receiver.r.ts&#45;&gt;models/receiver&#45;data.ts</title>
<path fill="none" stroke="#757575" d="M370,-205.67C394.3,-184.64 449.12,-140.76 504,-121.34 664.88,-64.41 715.34,-82.34 886,-82.34 886,-82.34 886,-82.34 1405.5,-82.34 1520.62,-82.34 1653.25,-83.45 1739.42,-84.32"/>
<polygon fill="#757575" stroke="#757575" points="1739.39,-87.82 1749.43,-84.42 1739.47,-80.82 1739.39,-87.82"/>
</g>
<!-- resources/receiver.r.ts&#45;&gt;models/receiver.ts -->
<g id="edge50" class="edge">
<title>resources/receiver.r.ts&#45;&gt;models/receiver.ts</title>
<path fill="none" stroke="#757575" d="M426.25,-205.83C605.34,-178.08 1097.93,-114.62 1500,-182.34 1526.69,-186.84 1555.51,-196.94 1577.3,-205.73"/>
<polygon fill="#757575" stroke="#757575" points="1576.2,-209.07 1586.78,-209.66 1578.88,-202.6 1576.2,-209.07"/>
</g>
<!-- resources/receiver.r.ts&#45;&gt;models/receiver&#45;event.ts -->
<g id="edge49" class="edge">
<title>resources/receiver.r.ts&#45;&gt;models/receiver&#45;event.ts</title>
<path fill="none" stroke="#757575" d="M383.82,-205.81C412.89,-193.8 460.89,-175.37 504,-165.34 670.5,-126.59 715.05,-120.34 886,-120.34 886,-120.34 886,-120.34 1160,-120.34 1364.88,-120.34 1604.92,-123.17 1735.14,-124.94"/>
<polygon fill="#757575" stroke="#757575" points="1735.42,-128.45 1745.47,-125.09 1735.52,-121.45 1735.42,-128.45"/>
</g>
<!-- resources/receiver.r.ts&#45;&gt;util/log.ts -->
<g id="edge52" class="edge">
<title>resources/receiver.r.ts&#45;&gt;util/log.ts</title>
<path fill="none" stroke="#757575" d="M435.08,-227.65C446.16,-229.39 457.39,-231.3 468,-233.34 585.18,-255.88 613.86,-265.01 729,-296.34 972.79,-362.68 1034.67,-377.48 1273,-461.34 1461.87,-527.79 1506.08,-552.57 1691,-629.34 1726.5,-644.08 1766.82,-661.42 1795.05,-673.66"/>
<polygon fill="#757575" stroke="#757575" points="1793.93,-677 1804.5,-677.77 1796.72,-670.58 1793.93,-677"/>
</g>
<!-- resources/receiver.r.ts&#45;&gt;resources/frontend&#45;update.ts -->
<g id="edge51" class="edge">
<title>resources/receiver.r.ts&#45;&gt;resources/frontend&#45;update.ts</title>
<path fill="none" stroke="#757575" d="M365.9,-229.11C403.88,-279.37 552.7,-476.25 600.58,-539.59"/>
<polygon fill="#757575" stroke="#757575" points="597.82,-541.75 606.64,-547.62 603.4,-537.53 597.82,-541.75"/>
</g>
<!-- resources/sender.r.ts -->
<g id="node36" class="node">
<title>resources/sender.r.ts</title>
<path fill="none" stroke="#c6c5fe" d="M424.33,-825.84C424.33,-825.84 287.67,-825.84 287.67,-825.84 283.83,-825.84 280,-822.01 280,-818.17 280,-818.17 280,-810.51 280,-810.51 280,-806.67 283.83,-802.84 287.67,-802.84 287.67,-802.84 424.33,-802.84 424.33,-802.84 428.17,-802.84 432,-806.67 432,-810.51 432,-810.51 432,-818.17 432,-818.17 432,-822.01 428.17,-825.84 424.33,-825.84"/>
<text text-anchor="middle" x="356" y="-810.64" font-family="Arial" font-size="14.00" fill="#c6c5fe">resources/sender.r.ts</text>
</g>
<!-- resources/sender.r.ts&#45;&gt;models/battery.ts -->
<g id="edge53" class="edge">
<title>resources/sender.r.ts&#45;&gt;models/battery.ts</title>
<path fill="none" stroke="#757575" d="M369.93,-826.05C394.1,-847.07 448.73,-890.47 504,-906.34 719.73,-968.28 786.7,-937.3 1009,-906.34 1129.81,-889.51 1181.05,-911.49 1273,-831.34 1303,-805.19 1278.12,-774.45 1309,-749.34 1315.81,-743.8 1323.78,-739.7 1332.15,-736.66"/>
<polygon fill="#757575" stroke="#757575" points="1333.23,-739.99 1341.74,-733.68 1331.15,-733.31 1333.23,-739.99"/>
</g>
<!-- resources/sender.r.ts&#45;&gt;models/transformation.ts -->
<g id="edge57" class="edge">
<title>resources/sender.r.ts&#45;&gt;models/transformation.ts</title>
<path fill="none" stroke="#757575" d="M432.15,-809.31C513.98,-804.11 648.72,-796.33 765,-793.34 873.41,-790.55 909.38,-750.49 1009,-793.34 1030.37,-802.53 1023.63,-822.15 1045,-831.34 1091.44,-851.32 1456.36,-856.86 1500,-831.34 1528.17,-814.86 1517.4,-794.16 1536,-767.34 1629.5,-632.52 1764.05,-487.52 1812.63,-436.44"/>
<polygon fill="#757575" stroke="#757575" points="1815.3,-438.72 1819.67,-429.07 1810.24,-433.89 1815.3,-438.72"/>
</g>
<!-- resources/sender.r.ts&#45;&gt;models/event.ts -->
<g id="edge54" class="edge">
<title>resources/sender.r.ts&#45;&gt;models/event.ts</title>
<path fill="none" stroke="#757575" d="M382.62,-825.94C411.44,-838.29 459.98,-857.06 504,-864.34 614.72,-882.65 913.86,-923.86 1009,-864.34 1040.01,-844.94 1015.79,-812.35 1045,-790.34 1127.16,-728.42 1183.61,-801.27 1273,-750.34 1294.36,-738.17 1290.36,-724.37 1309,-708.34 1328.28,-691.76 1352.69,-676.65 1371.86,-665.87"/>
<polygon fill="#757575" stroke="#757575" points="1373.74,-668.83 1380.81,-660.94 1370.37,-662.7 1373.74,-668.83"/>
</g>
<!-- resources/sender.r.ts&#45;&gt;util/log.ts -->
<g id="edge61" class="edge">
<title>resources/sender.r.ts&#45;&gt;util/log.ts</title>
<path fill="none" stroke="#757575" d="M366.65,-825.89C388.32,-850.98 443.71,-910.42 504,-938.34 537.43,-953.82 1121.16,-1048.34 1158,-1048.34 1158,-1048.34 1158,-1048.34 1405.5,-1048.34 1484.03,-1048.34 1654.24,-880.16 1691,-823.34 1720.78,-777.3 1685.55,-741.23 1727,-705.34 1742.88,-691.59 1765.47,-686.97 1785.54,-686.04"/>
<polygon fill="#757575" stroke="#757575" points="1785.82,-689.54 1795.76,-685.86 1785.7,-682.54 1785.82,-689.54"/>
</g>
<!-- resources/sender.r.ts&#45;&gt;models/sender.ts -->
<g id="edge55" class="edge">
<title>resources/sender.r.ts&#45;&gt;models/sender.ts</title>
<path fill="none" stroke="#757575" d="M383.6,-802.81C412.67,-790.63 460.87,-771.65 504,-760.34 723.94,-702.65 790.68,-741.91 1009,-678.34 1051.2,-666.05 1097.34,-644.95 1126.92,-630.36"/>
<polygon fill="#757575" stroke="#757575" points="1128.53,-633.46 1135.92,-625.87 1125.41,-627.2 1128.53,-633.46"/>
</g>
<!-- resources/sender.r.ts&#45;&gt;models/timer.ts -->
<g id="edge56" class="edge">
<title>resources/sender.r.ts&#45;&gt;models/timer.ts</title>
<path fill="none" stroke="#757575" d="M375.06,-802.7C402.76,-784.88 457.39,-749.79 504,-720.34 507.61,-718.06 760.98,-558.8 765,-557.34 867.92,-519.96 903.38,-552.19 1009,-523.34 1025.72,-518.77 1028.5,-513.64 1045,-508.34 1059.94,-503.55 1076.25,-499.26 1091.72,-495.62"/>
<polygon fill="#757575" stroke="#757575" points="1092.78,-498.97 1101.74,-493.32 1091.21,-492.15 1092.78,-498.97"/>
</g>
<!-- resources/sender.r.ts&#45;&gt;resources/frontend&#45;update.ts -->
<g id="edge58" class="edge">
<title>resources/sender.r.ts&#45;&gt;resources/frontend&#45;update.ts</title>
<path fill="none" stroke="#757575" d="M360.9,-802.58C374.17,-764.49 421.4,-643.64 504,-585.34 509.97,-581.12 516.53,-577.58 523.38,-574.61"/>
<polygon fill="#757575" stroke="#757575" points="524.84,-577.8 532.88,-570.9 522.29,-571.28 524.84,-577.8"/>
</g>
<!-- resources/sender.r.ts&#45;&gt;services/sender&#45;loader.ts -->
<g id="edge59" class="edge">
<title>resources/sender.r.ts&#45;&gt;services/sender&#45;loader.ts</title>
<path fill="none" stroke="#757575" d="M432.23,-814.34C525.68,-814.34 685.31,-814.34 788.17,-814.34"/>
<polygon fill="#757575" stroke="#757575" points="788.26,-817.84 798.26,-814.34 788.26,-810.84 788.26,-817.84"/>
</g>
<!-- services/sender&#45;trigger&#45;service.ts -->
<g id="node37" class="node">
<title>services/sender&#45;trigger&#45;service.ts</title>
<path fill="none" stroke="#cfffac" d="M1265.33,-741.84C1265.33,-741.84 1052.67,-741.84 1052.67,-741.84 1048.83,-741.84 1045,-738.01 1045,-734.17 1045,-734.17 1045,-726.51 1045,-726.51 1045,-722.67 1048.83,-718.84 1052.67,-718.84 1052.67,-718.84 1265.33,-718.84 1265.33,-718.84 1269.17,-718.84 1273,-722.67 1273,-726.51 1273,-726.51 1273,-734.17 1273,-734.17 1273,-738.01 1269.17,-741.84 1265.33,-741.84"/>
<text text-anchor="middle" x="1159" y="-726.64" font-family="Arial" font-size="14.00" fill="#cfffac">services/sender&#45;trigger&#45;service.ts</text>
</g>
<!-- resources/sender.r.ts&#45;&gt;services/sender&#45;trigger&#45;service.ts -->
<g id="edge60" class="edge">
<title>resources/sender.r.ts&#45;&gt;services/sender&#45;trigger&#45;service.ts</title>
<path fill="none" stroke="#757575" d="M425.44,-825.87C572.69,-849.19 913.94,-894.84 1009,-834.34 1040.87,-814.06 1015.72,-781.21 1045,-757.34 1050.41,-752.93 1056.42,-749.22 1062.77,-746.1"/>
<polygon fill="#757575" stroke="#757575" points="1064.53,-749.15 1072.29,-741.94 1061.73,-742.73 1064.53,-749.15"/>
</g>
<!-- resources/transformation.r.ts -->
<g id="node38" class="node">
<title>resources/transformation.r.ts</title>
<path fill="none" stroke="#cfffac" d="M194.83,-1315.84C194.83,-1315.84 13.17,-1315.84 13.17,-1315.84 9.33,-1315.84 5.5,-1312.01 5.5,-1308.17 5.5,-1308.17 5.5,-1300.51 5.5,-1300.51 5.5,-1296.67 9.33,-1292.84 13.17,-1292.84 13.17,-1292.84 194.83,-1292.84 194.83,-1292.84 198.67,-1292.84 202.5,-1296.67 202.5,-1300.51 202.5,-1300.51 202.5,-1308.17 202.5,-1308.17 202.5,-1312.01 198.67,-1315.84 194.83,-1315.84"/>
<text text-anchor="middle" x="104" y="-1300.64" font-family="Arial" font-size="14.00" fill="#cfffac">resources/transformation.r.ts</text>
</g>
<!-- resources/wiring.r.ts -->
<g id="node39" class="node">
<title>resources/wiring.r.ts</title>
<path fill="none" stroke="#cfffac" d="M167.83,-1356.84C167.83,-1356.84 40.17,-1356.84 40.17,-1356.84 36.33,-1356.84 32.5,-1353.01 32.5,-1349.17 32.5,-1349.17 32.5,-1341.51 32.5,-1341.51 32.5,-1337.67 36.33,-1333.84 40.17,-1333.84 40.17,-1333.84 167.83,-1333.84 167.83,-1333.84 171.67,-1333.84 175.5,-1337.67 175.5,-1341.51 175.5,-1341.51 175.5,-1349.17 175.5,-1349.17 175.5,-1353.01 171.67,-1356.84 167.83,-1356.84"/>
<text text-anchor="middle" x="104" y="-1341.64" font-family="Arial" font-size="14.00" fill="#cfffac">resources/wiring.r.ts</text>
</g>
<!-- services/connection&#45;service.ts -->
<g id="node40" class="node">
<title>services/connection&#45;service.ts</title>
<path fill="none" stroke="#c6c5fe" d="M200.33,-188.84C200.33,-188.84 7.67,-188.84 7.67,-188.84 3.83,-188.84 0,-185.01 0,-181.17 0,-181.17 0,-173.51 0,-173.51 0,-169.67 3.83,-165.84 7.67,-165.84 7.67,-165.84 200.33,-165.84 200.33,-165.84 204.17,-165.84 208,-169.67 208,-173.51 208,-173.51 208,-181.17 208,-181.17 208,-185.01 204.17,-188.84 200.33,-188.84"/>
<text text-anchor="middle" x="104" y="-173.64" font-family="Arial" font-size="14.00" fill="#c6c5fe">services/connection&#45;service.ts</text>
</g>
<!-- services/connection&#45;service.ts&#45;&gt;models/connection&#45;response.ts -->
<g id="edge66" class="edge">
<title>services/connection&#45;service.ts&#45;&gt;models/connection&#45;response.ts</title>
<path fill="none" stroke="#757575" d="M114.31,-165.65C134.78,-140.9 186.47,-83.33 244,-57.34 395.88,11.27 448.84,-6.34 615.5,-6.34 615.5,-6.34 615.5,-6.34 1833,-6.34 1998.14,-6.34 2061.47,25.55 2200,-64.34 2275.71,-113.46 2319.88,-218.32 2335.99,-263.22"/>
<polygon fill="#757575" stroke="#757575" points="2332.73,-264.51 2339.32,-272.8 2339.34,-262.21 2332.73,-264.51"/>
</g>
<!-- services/connection&#45;service.ts&#45;&gt;models/connection.ts -->
<g id="edge67" class="edge">
<title>services/connection&#45;service.ts&#45;&gt;models/connection.ts</title>
<path fill="none" stroke="#757575" d="M126.95,-189.04C153.79,-202.82 200.96,-225.34 244,-237.34 636.01,-346.63 1124.38,-382.23 1318.36,-392.55"/>
<polygon fill="#757575" stroke="#757575" points="1318.32,-396.06 1328.49,-393.08 1318.69,-389.07 1318.32,-396.06"/>
</g>
<!-- services/connection&#45;service.ts&#45;&gt;models/receiver&#45;data.ts -->
<g id="edge68" class="edge">
<title>services/connection&#45;service.ts&#45;&gt;models/receiver&#45;data.ts</title>
<path fill="none" stroke="#757575" d="M130.42,-165.77C203.91,-133.41 423.63,-44.34 615.5,-44.34 615.5,-44.34 615.5,-44.34 1405.5,-44.34 1524.36,-44.34 1661.04,-60.39 1746.72,-72.4"/>
<polygon fill="#757575" stroke="#757575" points="1746.26,-75.87 1756.65,-73.81 1747.24,-68.94 1746.26,-75.87"/>
</g>
<!-- services/connection&#45;service.ts&#45;&gt;models/transformation.ts -->
<g id="edge69" class="edge">
<title>services/connection&#45;service.ts&#45;&gt;models/transformation.ts</title>
<path fill="none" stroke="#757575" d="M208.1,-179.9C280.88,-182.4 380.6,-187.22 468,-196.34 1015.24,-253.46 1149.68,-289.84 1691,-388.34 1716.32,-392.95 1744.1,-398.58 1768.19,-403.65"/>
<polygon fill="#757575" stroke="#757575" points="1767.76,-407.14 1778.27,-405.79 1769.21,-400.29 1767.76,-407.14"/>
</g>
<!-- services/timer&#45;factory.ts -->
<g id="node41" class="node">
<title>services/timer&#45;factory.ts</title>
<path fill="none" stroke="#c6c5fe" d="M431.83,-475.84C431.83,-475.84 280.17,-475.84 280.17,-475.84 276.33,-475.84 272.5,-472.01 272.5,-468.17 272.5,-468.17 272.5,-460.51 272.5,-460.51 272.5,-456.67 276.33,-452.84 280.17,-452.84 280.17,-452.84 431.83,-452.84 431.83,-452.84 435.67,-452.84 439.5,-456.67 439.5,-460.51 439.5,-460.51 439.5,-468.17 439.5,-468.17 439.5,-472.01 435.67,-475.84 431.83,-475.84"/>
<text text-anchor="middle" x="356" y="-460.64" font-family="Arial" font-size="14.00" fill="#c6c5fe">services/timer&#45;factory.ts</text>
</g>
<!-- services/connection&#45;service.ts&#45;&gt;services/timer&#45;factory.ts -->
<g id="edge70" class="edge">
<title>services/connection&#45;service.ts&#45;&gt;services/timer&#45;factory.ts</title>
<path fill="none" stroke="#757575" d="M107.31,-189C116.29,-231.03 152.97,-375.83 244,-443.34 249.66,-447.54 255.92,-450.97 262.5,-453.77"/>
<polygon fill="#757575" stroke="#757575" points="261.74,-457.23 272.34,-457.44 264.19,-450.67 261.74,-457.23"/>
</g>
<!-- services/timer&#45;factory.ts&#45;&gt;models/connection&#45;response.ts -->
<g id="edge80" class="edge">
<title>services/timer&#45;factory.ts&#45;&gt;models/connection&#45;response.ts</title>
<path fill="none" stroke="#757575" d="M439.56,-455.67C568.66,-442.22 826.22,-415.86 1045,-396.34 1061.03,-394.91 2184,-306.09 2200,-304.34 2218.38,-302.32 2238.03,-299.81 2256.71,-297.25"/>
<polygon fill="#757575" stroke="#757575" points="2257.24,-300.71 2266.67,-295.87 2256.28,-293.78 2257.24,-300.71"/>
</g>
<!-- services/timer&#45;factory.ts&#45;&gt;models/timer.ts -->
<g id="edge81" class="edge">
<title>services/timer&#45;factory.ts&#45;&gt;models/timer.ts</title>
<path fill="none" stroke="#757575" d="M439.7,-466.2C599.16,-469.78 946.2,-477.58 1091.7,-480.85"/>
<polygon fill="#757575" stroke="#757575" points="1091.75,-484.35 1101.83,-481.08 1091.91,-477.35 1091.75,-484.35"/>
</g>
<!-- services/timer&#45;factory.ts&#45;&gt;resources/frontend&#45;update.ts -->
<g id="edge82" class="edge">
<title>services/timer&#45;factory.ts&#45;&gt;resources/frontend&#45;update.ts</title>
<path fill="none" stroke="#757575" d="M378.32,-476.09C406.4,-491.16 457.66,-517.26 504,-533.34 517.22,-537.93 531.61,-541.96 545.51,-545.39"/>
<polygon fill="#757575" stroke="#757575" points="544.99,-548.87 555.53,-547.79 546.62,-542.06 544.99,-548.87"/>
</g>
<!-- services/event&#45;scheduler.ts -->
<g id="node42" class="node">
<title>services/event&#45;scheduler.ts</title>
<path fill="none" stroke="#c6c5fe" d="M974.33,-669.84C974.33,-669.84 799.67,-669.84 799.67,-669.84 795.83,-669.84 792,-666.01 792,-662.17 792,-662.17 792,-654.51 792,-654.51 792,-650.67 795.83,-646.84 799.67,-646.84 799.67,-646.84 974.33,-646.84 974.33,-646.84 978.17,-646.84 982,-650.67 982,-654.51 982,-654.51 982,-662.17 982,-662.17 982,-666.01 978.17,-669.84 974.33,-669.84"/>
<text text-anchor="middle" x="887" y="-654.64" font-family="Arial" font-size="14.00" fill="#c6c5fe">services/event&#45;scheduler.ts</text>
</g>
<!-- services/event&#45;scheduler.ts&#45;&gt;models/connection.ts -->
<g id="edge71" class="edge">
<title>services/event&#45;scheduler.ts&#45;&gt;models/connection.ts</title>
<path fill="none" stroke="#757575" d="M912.59,-646.83C943.14,-632.84 997.1,-609.15 1045,-593.34 1144.19,-560.61 1197.02,-608.01 1273,-536.34 1311.96,-499.59 1270.29,-458.35 1309,-421.34 1312.5,-418 1316.38,-415.09 1320.53,-412.56"/>
<polygon fill="#757575" stroke="#757575" points="1322.18,-415.65 1329.38,-407.88 1318.9,-409.46 1322.18,-415.65"/>
</g>
<!-- services/event&#45;scheduler.ts&#45;&gt;util/log.ts -->
<g id="edge75" class="edge">
<title>services/event&#45;scheduler.ts&#45;&gt;util/log.ts</title>
<path fill="none" stroke="#757575" d="M982.3,-661.44C1181.62,-667.99 1639.39,-683.04 1785.38,-687.84"/>
<polygon fill="#757575" stroke="#757575" points="1785.63,-691.35 1795.74,-688.18 1785.86,-684.35 1785.63,-691.35"/>
</g>
<!-- services/event&#45;scheduler.ts&#45;&gt;models/sender.ts -->
<g id="edge72" class="edge">
<title>services/event&#45;scheduler.ts&#45;&gt;models/sender.ts</title>
<path fill="none" stroke="#757575" d="M958.59,-646.84C997.54,-640.49 1045.84,-632.62 1085.14,-626.21"/>
<polygon fill="#757575" stroke="#757575" points="1085.88,-629.64 1095.19,-624.58 1084.76,-622.73 1085.88,-629.64"/>
</g>
<!-- services/event&#45;scheduler.ts&#45;&gt;models/timer.ts -->
<g id="edge73" class="edge">
<title>services/event&#45;scheduler.ts&#45;&gt;models/timer.ts</title>
<path fill="none" stroke="#757575" d="M920.92,-646.78C946.69,-636.67 982.48,-620.17 1009,-598.34 1029.31,-581.62 1025.44,-568.94 1045,-551.34 1068.99,-529.76 1100.64,-511.1 1124.34,-498.65"/>
<polygon fill="#757575" stroke="#757575" points="1126.04,-501.71 1133.33,-494.02 1122.83,-495.49 1126.04,-501.71"/>
</g>
<!-- services/event&#45;scheduler.ts&#45;&gt;services/sender&#45;trigger&#45;service.ts -->
<g id="edge74" class="edge">
<title>services/event&#45;scheduler.ts&#45;&gt;services/sender&#45;trigger&#45;service.ts</title>
<path fill="none" stroke="#757575" d="M957.39,-669.84C974.52,-673.61 992.64,-678.39 1009,-684.34 1026,-690.52 1028.07,-696.97 1045,-703.34 1058.5,-708.42 1073.27,-712.77 1087.55,-716.4"/>
<polygon fill="#757575" stroke="#757575" points="1086.79,-719.82 1097.34,-718.8 1088.46,-713.02 1086.79,-719.82"/>
</g>
<!-- services/image&#45;converter.test.ts -->
<g id="node43" class="node">
<title>services/image&#45;converter.test.ts</title>
<path fill="none" stroke="#c6c5fe" d="M457.33,-1018.84C457.33,-1018.84 254.67,-1018.84 254.67,-1018.84 250.83,-1018.84 247,-1015.01 247,-1011.17 247,-1011.17 247,-1003.51 247,-1003.51 247,-999.67 250.83,-995.84 254.67,-995.84 254.67,-995.84 457.33,-995.84 457.33,-995.84 461.17,-995.84 465,-999.67 465,-1003.51 465,-1003.51 465,-1011.17 465,-1011.17 465,-1015.01 461.17,-1018.84 457.33,-1018.84"/>
<text text-anchor="middle" x="356" y="-1003.64" font-family="Arial" font-size="14.00" fill="#c6c5fe">services/image&#45;converter.test.ts</text>
</g>
<!-- services/image&#45;converter.test.ts&#45;&gt;services/image&#45;converter.ts -->
<g id="edge76" class="edge">
<title>services/image&#45;converter.test.ts&#45;&gt;services/image&#45;converter.ts</title>
<path fill="none" stroke="#757575" d="M465.13,-1007.76C480.19,-1007.82 495.65,-1007.88 510.65,-1007.93"/>
<polygon fill="#757575" stroke="#757575" points="510.94,-1011.44 520.95,-1007.97 510.97,-1004.44 510.94,-1011.44"/>
</g>
<!-- util/tsc&#45;compiler.ts&#45;&gt;util/log.ts -->
<g id="edge87" class="edge">
<title>util/tsc&#45;compiler.ts&#45;&gt;util/log.ts</title>
<path fill="none" stroke="#757575" d="M1215.48,-958.84C1233.9,-954.68 1254.43,-949.69 1273,-944.34 1375.65,-914.76 1402.11,-908.1 1500,-865.34 1616.1,-814.63 1747.02,-739.27 1803.1,-706.08"/>
<polygon fill="#757575" stroke="#757575" points="1804.94,-709.05 1811.75,-700.93 1801.36,-703.03 1804.94,-709.05"/>
</g>
<!-- util/file.ts -->
<g id="node48" class="node">
<title>util/file.ts</title>
<path fill="none" stroke="#cfffac" d="M1432.33,-981.84C1432.33,-981.84 1376.67,-981.84 1376.67,-981.84 1372.83,-981.84 1369,-978.01 1369,-974.17 1369,-974.17 1369,-966.51 1369,-966.51 1369,-962.67 1372.83,-958.84 1376.67,-958.84 1376.67,-958.84 1432.33,-958.84 1432.33,-958.84 1436.17,-958.84 1440,-962.67 1440,-966.51 1440,-966.51 1440,-974.17 1440,-974.17 1440,-978.01 1436.17,-981.84 1432.33,-981.84"/>
<text text-anchor="middle" x="1404.5" y="-966.64" font-family="Arial" font-size="14.00" fill="#cfffac">util/file.ts</text>
</g>
<!-- util/tsc&#45;compiler.ts&#45;&gt;util/file.ts -->
<g id="edge86" class="edge">
<title>util/tsc&#45;compiler.ts&#45;&gt;util/file.ts</title>
<path fill="none" stroke="#757575" d="M1224.61,-970.34C1266.86,-970.34 1320.97,-970.34 1358.56,-970.34"/>
<polygon fill="#757575" stroke="#757575" points="1358.7,-973.84 1368.7,-970.34 1358.7,-966.84 1358.7,-973.84"/>
</g>
<!-- services/tuya.spec.ts -->
<g id="node45" class="node">
<title>services/tuya.spec.ts</title>
<path fill="none" stroke="#c6c5fe" d="M170.83,-1397.84C170.83,-1397.84 37.17,-1397.84 37.17,-1397.84 33.33,-1397.84 29.5,-1394.01 29.5,-1390.17 29.5,-1390.17 29.5,-1382.51 29.5,-1382.51 29.5,-1378.67 33.33,-1374.84 37.17,-1374.84 37.17,-1374.84 170.83,-1374.84 170.83,-1374.84 174.67,-1374.84 178.5,-1378.67 178.5,-1382.51 178.5,-1382.51 178.5,-1390.17 178.5,-1390.17 178.5,-1394.01 174.67,-1397.84 170.83,-1397.84"/>
<text text-anchor="middle" x="104" y="-1382.64" font-family="Arial" font-size="14.00" fill="#c6c5fe">services/tuya.spec.ts</text>
</g>
<!-- services/tuya.ts -->
<g id="node46" class="node">
<title>services/tuya.ts</title>
<path fill="none" stroke="#cfffac" d="M405.33,-1397.84C405.33,-1397.84 306.67,-1397.84 306.67,-1397.84 302.83,-1397.84 299,-1394.01 299,-1390.17 299,-1390.17 299,-1382.51 299,-1382.51 299,-1378.67 302.83,-1374.84 306.67,-1374.84 306.67,-1374.84 405.33,-1374.84 405.33,-1374.84 409.17,-1374.84 413,-1378.67 413,-1382.51 413,-1382.51 413,-1390.17 413,-1390.17 413,-1394.01 409.17,-1397.84 405.33,-1397.84"/>
<text text-anchor="middle" x="356" y="-1382.64" font-family="Arial" font-size="14.00" fill="#cfffac">services/tuya.ts</text>
</g>
<!-- services/tuya.spec.ts&#45;&gt;services/tuya.ts -->
<g id="edge83" class="edge">
<title>services/tuya.spec.ts&#45;&gt;services/tuya.ts</title>
<path fill="none" stroke="#757575" d="M178.66,-1386.34C213.51,-1386.34 254.8,-1386.34 288.67,-1386.34"/>
<polygon fill="#757575" stroke="#757575" points="288.92,-1389.84 298.92,-1386.34 288.92,-1382.84 288.92,-1389.84"/>
</g>
</g>
</svg>
