<?xml version="1.0" encoding="UTF-8" standalone="no"?>
<!DOCTYPE svg PUBLIC "-//W3C//DTD SVG 1.1//EN"
 "http://www.w3.org/Graphics/SVG/1.1/DTD/svg11.dtd">
<!-- Generated by graphviz version 5.0.1 (20220820.1526)
 -->
<!-- Title: G Pages: 1 -->
<svg width="676pt" height="107pt"
 viewBox="0.00 0.00 676.20 107.20" xmlns="http://www.w3.org/2000/svg" xmlns:xlink="http://www.w3.org/1999/xlink">
<g id="graph0" class="graph" transform="scale(1 1) rotate(0) translate(21.6 85.6)">
<title>G</title>
<polygon fill="#111111" stroke="none" points="-21.6,21.6 -21.6,-85.6 654.6,-85.6 654.6,21.6 -21.6,21.6"/>
<!-- resources/frontend&#45;update.ts -->
<g id="node1" class="node">
<title>resources/frontend&#45;update.ts</title>
<path fill="none" stroke="#ff6c60" d="M224.33,-23C224.33,-23 39.67,-23 39.67,-23 35.83,-23 32,-19.17 32,-15.33 32,-15.33 32,-7.67 32,-7.67 32,-3.83 35.83,0 39.67,0 39.67,0 224.33,0 224.33,0 228.17,0 232,-3.83 232,-7.67 232,-7.67 232,-15.33 232,-15.33 232,-19.17 228.17,-23 224.33,-23"/>
<text text-anchor="middle" x="132" y="-7.8" font-family="Arial" font-size="14.00" fill="#ff6c60">resources/frontend&#45;update.ts</text>
</g>
<!-- services/generic&#45;node/generic&#45;node&#45;socket.ts -->
<g id="node2" class="node">
<title>services/generic&#45;node/generic&#45;node&#45;socket.ts</title>
<path fill="none" stroke="#ff6c60" d="M612.33,-23C612.33,-23 320.67,-23 320.67,-23 316.83,-23 313,-19.17 313,-15.33 313,-15.33 313,-7.67 313,-7.67 313,-3.83 316.83,0 320.67,0 320.67,0 612.33,0 612.33,0 616.17,0 620,-3.83 620,-7.67 620,-7.67 620,-15.33 620,-15.33 620,-19.17 616.17,-23 612.33,-23"/>
<text text-anchor="middle" x="466.5" y="-7.8" font-family="Arial" font-size="14.00" fill="#ff6c60">services/generic&#45;node/generic&#45;node&#45;socket.ts</text>
</g>
<!-- resources/frontend&#45;update.ts&#45;&gt;services/generic&#45;node/generic&#45;node&#45;socket.ts -->
<g id="edge1" class="edge">
<title>resources/frontend&#45;update.ts&#45;&gt;services/generic&#45;node/generic&#45;node&#45;socket.ts</title>
<path fill="none" stroke="#757575" d="M232.31,-5.26C254.5,-4.9 278.59,-4.73 302.59,-4.75"/>
<polygon fill="#757575" stroke="#757575" points="302.86,-8.25 312.87,-4.77 302.88,-1.25 302.86,-8.25"/>
</g>
<!-- services/generic&#45;node/generic&#45;node&#45;socket.ts&#45;&gt;resources/frontend&#45;update.ts -->
<g id="edge3" class="edge">
<title>services/generic&#45;node/generic&#45;node&#45;socket.ts&#45;&gt;resources/frontend&#45;update.ts</title>
<path fill="none" stroke="#757575" d="M312.87,-18.23C289.15,-18.3 265.05,-18.19 242.54,-17.89"/>
<polygon fill="#757575" stroke="#757575" points="242.36,-14.39 232.31,-17.74 242.26,-21.38 242.36,-14.39"/>
</g>
<!-- services/generic&#45;node/element&#45;node.ts -->
<g id="node3" class="node">
<title>services/generic&#45;node/element&#45;node.ts</title>
<path fill="none" stroke="#ff6c60" d="M256.33,-64C256.33,-64 7.67,-64 7.67,-64 3.83,-64 0,-60.17 0,-56.33 0,-56.33 0,-48.67 0,-48.67 0,-44.83 3.83,-41 7.67,-41 7.67,-41 256.33,-41 256.33,-41 260.17,-41 264,-44.83 264,-48.67 264,-48.67 264,-56.33 264,-56.33 264,-60.17 260.17,-64 256.33,-64"/>
<text text-anchor="middle" x="132" y="-48.8" font-family="Arial" font-size="14.00" fill="#ff6c60">services/generic&#45;node/element&#45;node.ts</text>
</g>
<!-- services/generic&#45;node/typing/generic&#45;node&#45;type.ts -->
<g id="node4" class="node">
<title>services/generic&#45;node/typing/generic&#45;node&#45;type.ts</title>
<path fill="none" stroke="#ff6c60" d="M625.33,-64C625.33,-64 307.67,-64 307.67,-64 303.83,-64 300,-60.17 300,-56.33 300,-56.33 300,-48.67 300,-48.67 300,-44.83 303.83,-41 307.67,-41 307.67,-41 625.33,-41 625.33,-41 629.17,-41 633,-44.83 633,-48.67 633,-48.67 633,-56.33 633,-56.33 633,-60.17 629.17,-64 625.33,-64"/>
<text text-anchor="middle" x="466.5" y="-48.8" font-family="Arial" font-size="14.00" fill="#ff6c60">services/generic&#45;node/typing/generic&#45;node&#45;type.ts</text>
</g>
<!-- services/generic&#45;node/element&#45;node.ts&#45;&gt;services/generic&#45;node/typing/generic&#45;node&#45;type.ts -->
<g id="edge2" class="edge">
<title>services/generic&#45;node/element&#45;node.ts&#45;&gt;services/generic&#45;node/typing/generic&#45;node&#45;type.ts</title>
<path fill="none" stroke="#757575" d="M264.41,-45.88C272.67,-45.82 281.05,-45.78 289.46,-45.76"/>
<polygon fill="#757575" stroke="#757575" points="289.74,-49.26 299.74,-45.75 289.73,-42.26 289.74,-49.26"/>
</g>
<!-- services/generic&#45;node/typing/generic&#45;node&#45;type.ts&#45;&gt;services/generic&#45;node/element&#45;node.ts -->
<g id="edge4" class="edge">
<title>services/generic&#45;node/typing/generic&#45;node&#45;type.ts&#45;&gt;services/generic&#45;node/element&#45;node.ts</title>
<path fill="none" stroke="#757575" d="M299.74,-59.25C291.31,-59.25 282.88,-59.23 274.54,-59.18"/>
<polygon fill="#757575" stroke="#757575" points="274.44,-55.68 264.41,-59.12 274.39,-62.68 274.44,-55.68"/>
</g>
</g>
</svg>
