<?xml version="1.0" encoding="UTF-8" standalone="no"?>
<!DOCTYPE svg PUBLIC "-//W3C//DTD SVG 1.1//EN"
 "http://www.w3.org/Graphics/SVG/1.1/DTD/svg11.dtd">
<!-- Generated by graphviz version 12.2.1 (20241206.2353)
 -->
<!-- Title: G Pages: 1 -->
<svg width="952pt" height="125pt"
 viewBox="0.00 0.00 951.70 124.95" xmlns="http://www.w3.org/2000/svg" xmlns:xlink="http://www.w3.org/1999/xlink">
<g id="graph0" class="graph" transform="scale(1 1) rotate(0) translate(21.6 103.35)">
<title>G</title>
<polygon fill="#111111" stroke="none" points="-21.6,21.6 -21.6,-103.35 930.1,-103.35 930.1,21.6 -21.6,21.6"/>
<!-- services/connection&#45;service.ts -->
<g id="node1" class="node">
<title>services/connection&#45;service.ts</title>
<path fill="none" stroke="#ff6c60" d="M188.08,-23.75C188.08,-23.75 7.92,-23.75 7.92,-23.75 3.96,-23.75 0,-19.79 0,-15.83 0,-15.83 0,-7.92 0,-7.92 0,-3.96 3.96,0 7.92,0 7.92,0 188.08,0 188.08,0 192.04,0 196,-3.96 196,-7.92 196,-7.92 196,-15.83 196,-15.83 196,-19.79 192.04,-23.75 188.08,-23.75"/>
<text text-anchor="middle" x="98" y="-6.45" font-family="Arial" font-size="14.00" fill="#ff6c60">services/connection&#45;service.ts</text>
</g>
<!-- services/event/timer&#45;factory.ts -->
<g id="node2" class="node">
<title>services/event/timer&#45;factory.ts</title>
<path fill="none" stroke="#ff6c60" d="M419.33,-43.75C419.33,-43.75 239.92,-43.75 239.92,-43.75 235.96,-43.75 232,-39.79 232,-35.83 232,-35.83 232,-27.92 232,-27.92 232,-23.96 235.96,-20 239.92,-20 239.92,-20 419.33,-20 419.33,-20 423.29,-20 427.25,-23.96 427.25,-27.92 427.25,-27.92 427.25,-35.83 427.25,-35.83 427.25,-39.79 423.29,-43.75 419.33,-43.75"/>
<text text-anchor="middle" x="329.62" y="-26.45" font-family="Arial" font-size="14.00" fill="#ff6c60">services/event/timer&#45;factory.ts</text>
</g>
<!-- services/connection&#45;service.ts&#45;&gt;services/event/timer&#45;factory.ts -->
<g id="edge1" class="edge">
<title>services/connection&#45;service.ts&#45;&gt;services/event/timer&#45;factory.ts</title>
<path fill="none" stroke="#757575" d="M196.38,-20.36C204.36,-21.05 212.45,-21.76 220.5,-22.46"/>
<polygon fill="#757575" stroke="#757575" points="220.05,-25.93 230.32,-23.31 220.66,-18.96 220.05,-25.93"/>
</g>
<!-- services/event/service&#45;map.ts -->
<g id="node3" class="node">
<title>services/event/service&#45;map.ts</title>
<path fill="none" stroke="#ff6c60" d="M649.83,-81.75C649.83,-81.75 471.17,-81.75 471.17,-81.75 467.21,-81.75 463.25,-77.79 463.25,-73.83 463.25,-73.83 463.25,-65.92 463.25,-65.92 463.25,-61.96 467.21,-58 471.17,-58 471.17,-58 649.83,-58 649.83,-58 653.79,-58 657.75,-61.96 657.75,-65.92 657.75,-65.92 657.75,-73.83 657.75,-73.83 657.75,-77.79 653.79,-81.75 649.83,-81.75"/>
<text text-anchor="middle" x="560.5" y="-64.45" font-family="Arial" font-size="14.00" fill="#ff6c60">services/event/service&#45;map.ts</text>
</g>
<!-- services/event/timer&#45;factory.ts&#45;&gt;services/event/service&#45;map.ts -->
<g id="edge3" class="edge">
<title>services/event/timer&#45;factory.ts&#45;&gt;services/event/service&#45;map.ts</title>
<path fill="none" stroke="#757575" d="M404.93,-44.21C426.93,-47.86 451.19,-51.89 473.85,-55.65"/>
<polygon fill="#757575" stroke="#757575" points="473.24,-59.1 483.68,-57.29 474.39,-52.2 473.24,-59.1"/>
</g>
<!-- services/sender&#45;trigger&#45;service.ts -->
<g id="node4" class="node">
<title>services/sender&#45;trigger&#45;service.ts</title>
<path fill="none" stroke="#ff6c60" d="M900.58,-41.75C900.58,-41.75 701.67,-41.75 701.67,-41.75 697.71,-41.75 693.75,-37.79 693.75,-33.83 693.75,-33.83 693.75,-25.92 693.75,-25.92 693.75,-21.96 697.71,-18 701.67,-18 701.67,-18 900.58,-18 900.58,-18 904.54,-18 908.5,-21.96 908.5,-25.92 908.5,-25.92 908.5,-33.83 908.5,-33.83 908.5,-37.79 904.54,-41.75 900.58,-41.75"/>
<text text-anchor="middle" x="801.12" y="-24.45" font-family="Arial" font-size="14.00" fill="#ff6c60">services/sender&#45;trigger&#45;service.ts</text>
</g>
<!-- services/event/service&#45;map.ts&#45;&gt;services/sender&#45;trigger&#45;service.ts -->
<g id="edge2" class="edge">
<title>services/event/service&#45;map.ts&#45;&gt;services/sender&#45;trigger&#45;service.ts</title>
<path fill="none" stroke="#757575" d="M635.04,-57.55C660.44,-53.29 689.11,-48.48 715.34,-44.09"/>
<polygon fill="#757575" stroke="#757575" points="715.64,-47.59 724.92,-42.48 714.48,-40.68 715.64,-47.59"/>
</g>
<!-- services/sender&#45;trigger&#45;service.ts&#45;&gt;services/connection&#45;service.ts -->
<g id="edge4" class="edge">
<title>services/sender&#45;trigger&#45;service.ts&#45;&gt;services/connection&#45;service.ts</title>
<path fill="none" stroke="#757575" d="M693.3,-22.99C618.77,-18.53 517,-13.16 427.25,-10.88 340.5,-8.67 318.78,-10.55 232,-10.88 224.06,-10.9 215.86,-10.94 207.6,-10.99"/>
<polygon fill="#757575" stroke="#757575" points="207.83,-7.49 197.85,-11.05 207.87,-14.49 207.83,-7.49"/>
</g>
<!-- services/sender&#45;trigger&#45;service.ts&#45;&gt;services/event/timer&#45;factory.ts -->
<g id="edge5" class="edge">
<title>services/sender&#45;trigger&#45;service.ts&#45;&gt;services/event/timer&#45;factory.ts</title>
<path fill="none" stroke="#757575" d="M693.43,-30.33C617.27,-30.65 515.19,-31.09 438.71,-31.41"/>
<polygon fill="#757575" stroke="#757575" points="439.12,-27.91 429.13,-31.46 439.15,-34.91 439.12,-27.91"/>
</g>
</g>
</svg>
